<?xml version="1.0" encoding="UTF-8"?>
<!DOCTYPE svg PUBLIC "-//W3C//DTD SVG 1.1//EN" "http://www.w3.org/Graphics/SVG/1.1/DTD/svg11.dtd">
<!-- Creator: CorelDRAW X8 -->
<svg xmlns="http://www.w3.org/2000/svg" xml:space="preserve" width="4879px" height="1956px" version="1.1" style="shape-rendering:geometricPrecision; text-rendering:geometricPrecision; image-rendering:optimizeQuality; fill-rule:evenodd; clip-rule:evenodd"
viewBox="0 0 48792 19559"
 xmlns:xlink="http://www.w3.org/1999/xlink">
 <defs>
  <style type="text/css">
   <![CDATA[
    .str3 {stroke:#373435;stroke-width:41.6561}
    .str5 {stroke:#313131;stroke-width:41.6561}
    .str4 {stroke:#424242;stroke-width:20.8339}
    .str6 {stroke:black;stroke-width:8.9997}
    .str7 {stroke:#B5EEFF;stroke-width:8.9997}
    .str1 {stroke:#CCCCCC;stroke-width:8.9997}
    .str8 {stroke:#E6E6E6;stroke-width:8.9997}
    .str2 {stroke:#624D3D;stroke-width:399.99;stroke-linecap:round;stroke-linejoin:round}
    .str0 {stroke:#CCCCCC;stroke-width:399.99;stroke-linecap:round;stroke-linejoin:round}
    .fil2 {fill:none}
    .fil17 {fill:#373435}
    .fil23 {fill:#EFB783}
    .fil65 {fill:#0059CA}
    .fil71 {fill:#098184}
    .fil38 {fill:#0B3859}
    .fil50 {fill:#121710}
    .fil26 {fill:#1369B6}
    .fil57 {fill:#1B1B1C}
    .fil34 {fill:#1C1C1C}
    .fil30 {fill:#20547B}
    .fil69 {fill:#2F2F37}
    .fil11 {fill:#313131}
    .fil33 {fill:#33322E}
    .fil39 {fill:#333333}
    .fil29 {fill:#362D24}
    .fil31 {fill:#3689BB}
    .fil25 {fill:#3890D0}
    .fil14 {fill:#424242}
    .fil72 {fill:#445D2A}
    .fil10 {fill:#464646}
    .fil18 {fill:#4A4A4A}
    .fil42 {fill:#4D4D4D}
    .fil41 {fill:#525252}
    .fil73 {fill:#547234}
    .fil19 {fill:#5C707B}
    .fil74 {fill:#62823D}
    .fil20 {fill:#71848B}
    .fil12 {fill:#757575}
    .fil58 {fill:#767B7F}
    .fil35 {fill:#797977}
    .fil4 {fill:#799A56}
    .fil52 {fill:#7A838A}
    .fil44 {fill:gray}
    .fil5 {fill:#8EAF6D}
    .fil59 {fill:#99A3AC}
    .fil53 {fill:#9CADB7}
    .fil60 {fill:#AAB5C5}
    .fil56 {fill:#ADBACA}
    .fil40 {fill:#B5EEFF}
    .fil27 {fill:#B96F48}
    .fil62 {fill:#BABABA}
    .fil55 {fill:#BACADA}
    .fil49 {fill:#C1C2C9}
    .fil21 {fill:#C1CFCF}
    .fil64 {fill:#C2C2C2}
    .fil36 {fill:#C77066}
    .fil8 {fill:#C8382F}
    .fil15 {fill:#CACACA}
    .fil3 {fill:#CCCCCC}
    .fil48 {fill:#CDCED3}
    .fil6 {fill:#CFB175}
    .fil54 {fill:#D2D7DD}
    .fil9 {fill:#DF7E77}
    .fil7 {fill:#DFE9EB}
    .fil37 {fill:#E09474}
    .fil47 {fill:#E0E7ED}
    .fil43 {fill:#E6E6E6}
    .fil45 {fill:#E6EEF1}
    .fil24 {fill:#EC9956}
    .fil32 {fill:#ECB31E}
    .fil28 {fill:#EDD89F}
    .fil16 {fill:#EFEFEF}
    .fil46 {fill:#F1FAFF}
    .fil0 {fill:#F2F2F2}
    .fil51 {fill:#F2FBFF}
    .fil13 {fill:white}
    .fil61 {fill:white}
    .fil66 {fill:white}
    .fil68 {fill:#098184;fill-rule:nonzero}
    .fil70 {fill:#2F2F37;fill-rule:nonzero}
    .fil22 {fill:#464646;fill-rule:nonzero}
    .fil1 {fill:#E6E6E6;fill-rule:nonzero}
    .fil67 {fill:white;fill-rule:nonzero}
    .fil63 {fill:#BABABA}
   ]]>
  </style>
   <mask id="id0">
  <linearGradient id="id1" gradientUnits="userSpaceOnUse" x1="25617.3" y1="16060.5" x2="30445.5" y2="16060.5">
   <stop offset="0" style="stop-opacity:0; stop-color:white"/>
   <stop offset="1" style="stop-opacity:1; stop-color:white"/>
  </linearGradient>
    <rect style="fill:url(#id1)" x="25607" y="14748" width="4849" height="2625"/>
   </mask>
 </defs>
 <g id="Слой_x0020_1">
  <metadata id="CorelCorpID_0Corel-Layer"/>
  <rect class="fil0" x="2" width="48790" height="19559"/>
  <polygon class="fil1" points="48792,13739 48792,12885 48792,10070 48540,10070 48540,12243 48006,12243 48006,9755 47660,9755 47047,9198 47047,10270 46812,10270 46812,7782 46120,7782 46120,7210 45617,7210 45617,6467 44087,6467 44087,7344 43584,7801 43584,11500 42914,11500 42914,9460 42683,9250 42683,7858 42473,7858 42473,9250 42180,9517 42180,11576 41761,11576 41761,9403 41551,9403 41551,9078 41195,9078 40723,8649 40723,8106 40420,8106 40420,8621 40147,8621 40147,8087 39623,8087 39623,8659 39215,9031 39215,9898 38974,9898 38974,9593 38764,9593 38764,9936 38471,10203 38471,10623 38135,10623 38135,6676 35914,6676 35914,9059 35201,9708 35201,10661 34887,10661 34887,9994 34625,9755 33755,9755 33755,10013 33231,10013 32655,10537 32655,9898 32157,9445 29752,9445 29752,9612 30109,9612 30109,10184 29449,10785 29449,10013 29187,10013 29187,11366 28914,11366 28914,10604 28327,10604 28327,11633 27803,11633 27803,9708 27196,9155 26619,9679 26619,11271 26185,10875 26185,9688 25854,9688 25854,7935 24890,7935 24890,10279 24424,9855 23591,9855 23085,10315 23085,9383 22166,9383 22166,9574 21307,9574 21307,11500 20992,11500 20992,10299 20678,10299 20678,9422 20280,9422 20280,11309 19882,11309 19882,8011 19630,8011 19630,7763 17535,8087 17535,10337 17199,10337 17199,9460 16633,9460 16633,9193 16256,9193 16256,8926 15397,8926 15397,8354 14726,8354 14726,9403 14286,9403 14286,8144 13699,8144 13699,7687 13364,7687 13364,8125 12840,8125 11583,6981 11583,10165 11184,10165 11184,9441 10535,8850 10158,8850 10158,9593 9613,9593 9613,7439 9152,7439 9152,7248 8397,7248 8397,7496 7915,7496 7915,8602 6857,9565 6857,10442 6490,10442 6490,9536 5882,8983 5882,7305 5568,7305 5568,6638 5044,6638 5044,6085 4855,6085 4855,5647 4646,5647 4646,6085 4227,6085 4227,7382 3053,7382 3053,10279 2550,10279 2550,11023 1733,10279 1733,11061 1230,11061 1230,8640 4,8640 4,12885 2,12885 2,19559 48792,19559 "/>
  <g id="_2714870836896">
   <path class="fil2 str0" d="M47356 16128c-138,68 -395,17 -493,-246"/>
   <path class="fil2 str0" d="M47583 15522c173,-83 358,-303 401,-626"/>
   <path class="fil2 str0" d="M47529 17569c-123,-491 -140,-998 -18,-1506 123,-508 53,-1226 18,-1418"/>
   <path class="fil3 str1" d="M47377 13748c-258,0 -467,210 -467,468 0,40 5,79 15,117 -153,95 -254,264 -254,458 0,297 241,539 539,539 235,0 435,-151 509,-361 63,31 134,49 209,49 258,0 468,-209 468,-467 0,-258 -210,-467 -468,-467 -34,0 -67,4 -99,11 -54,-200 -235,-347 -452,-347z"/>
   <path class="fil3 str1" d="M47865 14143c-37,0 -72,5 -106,15 -8,-198 -171,-357 -372,-357 -205,0 -372,167 -372,373 0,63 16,123 44,176 -164,43 -285,192 -285,370 0,211 171,382 382,382 207,0 376,-164 382,-370 68,109 189,181 327,181 212,0 385,-172 385,-385 0,-213 -173,-385 -385,-385z"/>
  </g>
  <g id="_2714954377104">
   <path class="fil2 str2" d="M44041 14934c253,127 728,32 908,-454"/>
   <path class="fil2 str2" d="M43361 13817c-320,-153 -662,-559 -741,-1155"/>
   <path class="fil2 str2" d="M43460 17592c226,-904 258,-1840 32,-2777 -226,-937 -96,-2261 -32,-2616"/>
   <path class="fil4" d="M43739 10546c476,0 862,385 862,861 0,75 -10,147 -28,216 282,176 470,489 470,845 0,549 -445,994 -995,994 -434,0 -803,-278 -938,-666 -117,59 -248,92 -387,92 -476,0 -862,-386 -862,-862 0,-476 386,-862 862,-862 63,0 124,7 184,20 98,-368 433,-638 832,-638z"/>
   <path class="fil5" d="M42840 11274c68,0 133,9 195,27 15,-366 317,-658 686,-658 379,0 687,308 687,687 0,118 -30,228 -82,325 303,79 527,355 527,682 0,390 -316,705 -706,705 -382,0 -692,-303 -704,-682 -126,200 -349,334 -603,334 -392,0 -710,-318 -710,-710 0,-392 318,-710 710,-710z"/>
   <path class="fil2 str2" d="M43569 15054c289,-46 761,-290 791,-746"/>
   <path class="fil4" d="M45230 14557c-156,193 -439,224 -632,68 -31,-24 -57,-52 -79,-82 -164,58 -352,32 -497,-85 -224,-179 -259,-506 -80,-729 142,-177 376,-236 578,-164 15,-67 44,-131 90,-188 155,-193 438,-224 632,-69 194,156 224,439 69,633 -21,25 -44,48 -69,68 118,160 118,385 -12,548z"/>
   <path class="fil5" d="M45014 13964c195,0 354,-159 354,-354 0,-194 -159,-353 -354,-353 -195,0 -354,159 -354,353 0,195 159,354 354,354z"/>
   <path class="fil5" d="M44456 14306c194,0 353,-159 353,-353 0,-195 -159,-354 -353,-354 -195,0 -354,159 -354,354 0,194 159,353 354,353z"/>
   <path class="fil5" d="M44917 14582c195,0 354,-159 354,-354 0,-195 -159,-353 -354,-353 -195,0 -353,158 -353,353 0,195 158,354 353,354z"/>
  </g>
  <rect class="fil6" y="17607" width="48790" height="102"/>
  <g id="_2714954380720">
   <path class="fil7" d="M22407 15887c49,2 131,5 187,3 57,-2 88,-7 106,-15 18,-7 23,-17 15,-33 -9,-16 -29,-40 -58,-70 -29,-31 -67,-68 -105,-100 -38,-32 -77,-57 -116,-81 -40,-25 -79,-48 -116,-69 -37,-20 -72,-38 -106,-53 -35,-15 -69,-27 -94,-35 -24,-8 -39,-11 -57,-13 -18,-1 -40,-1 -68,-1 -28,0 -61,1 -85,5 -24,3 -39,10 -50,18 -11,8 -18,18 -19,35 0,17 5,41 23,71 18,30 48,65 83,100 34,34 73,68 117,102 44,34 93,69 138,91 45,22 86,31 114,37 28,5 43,6 91,8z"/>
   <rect class="fil8" x="16149" y="13496" width="526" height="561" rx="62" ry="59"/>
   <polygon class="fil9" points="16220,13496 16603,13496 16603,13784 16220,13784 "/>
   <path class="fil10" d="M11426 15219c-16,-13 -21,-40 -24,-70 -2,-29 -2,-60 3,-88 5,-28 15,-53 28,-73 13,-19 29,-33 48,-43 19,-10 41,-15 190,-17 149,-2 425,-1 569,-1 144,-1 156,-4 256,-43 100,-39 289,-114 521,-205 233,-92 509,-198 781,-294 272,-96 540,-180 775,-242 234,-61 434,-98 625,-128 190,-29 369,-50 543,-62 95,-7 187,-11 283,-13 -1,-2 -1,-4 -1,-6l0 0c0,-36 30,-66 67,-66l617 0c36,0 66,30 66,66l0 0c0,8 -1,16 -4,23 30,2 60,5 90,8 194,20 375,52 551,94 176,42 346,92 519,159 173,67 349,151 528,250 178,100 359,216 522,322 162,106 307,202 379,251 73,48 73,48 73,48 0,0 0,0 0,0 0,0 0,0 347,38 348,39 1043,115 1481,173 437,57 617,95 707,114 89,18 89,18 89,18 0,0 0,0 -30,0 -31,0 -92,0 -124,10 -33,10 -37,30 -19,71 19,41 59,103 109,157 50,54 110,100 165,134 54,33 104,56 196,66 93,10 228,9 296,8 68,0 68,0 68,0 0,0 0,0 0,0 0,0 0,0 10,19 10,20 31,59 39,120 8,61 3,145 0,186 -3,42 -3,42 -3,42 0,0 0,0 7,0 6,0 19,0 26,0 7,0 7,0 7,0 0,0 0,0 0,49 0,49 0,146 0,195 0,49 0,49 0,49 0,0 0,0 0,0 0,0 0,0 -6,-1 -6,-2 -18,-4 -24,-6 -6,-1 -6,-1 -6,-1 0,0 0,0 0,0 0,0 0,0 0,35 0,35 0,106 -4,161 -3,55 -11,96 -24,131 -13,35 -32,65 -54,89 -22,24 -48,42 -82,58 -34,16 -75,29 -187,42 -111,13 -292,26 -382,32 -91,7 -91,7 -91,7 0,0 0,0 -13,-7 -14,-6 -42,-19 -55,-26 -14,-6 -14,-6 -14,-6 0,0 0,0 -10,0 -11,1 -32,2 -42,3 -10,1 -10,1 -284,10 -275,9 -823,27 -1097,36 -274,9 -274,9 -274,9 0,0 0,0 -2,7 -3,8 -8,22 -11,29 -2,7 -2,7 -2,7 0,0 0,0 -935,-10 -934,-11 -2802,-31 -3774,-44 -971,-12 -1045,-16 -1082,-18 -37,-2 -37,-2 -280,-6 -242,-5 -726,-14 -1059,-27 -332,-13 -513,-30 -747,-56 -233,-25 -518,-59 -685,-82 -167,-24 -217,-37 -257,-54 -39,-18 -69,-40 -89,-63 -19,-23 -28,-46 -28,-180 0,-134 9,-379 18,-514 9,-134 18,-159 56,-205 39,-45 107,-112 209,-203 102,-91 239,-207 314,-281 74,-73 87,-104 87,-130 -1,-25 -15,-45 -47,-59 -32,-14 -81,-23 -141,-20 -60,3 -131,19 -179,27 -49,9 -77,10 -93,-3z"/>
   <path class="fil11" d="M22281 15858c21,5 44,9 71,12l13 1 0 1 -688 214 0 -39 604 -189z"/>
   <path class="fil11" d="M11325 15835c10,-10 21,-21 33,-33l1180 198 356 180 -20 35 -367 -184 -1182 -196z"/>
   <path class="fil12" d="M21879 15454c-11,12 -9,30 3,59 19,41 59,103 109,157 26,29 56,55 85,78l8 8c0,0 0,0 -93,-2 -93,-2 -278,-7 -370,-9 -93,-2 -93,-2 -93,-2 0,0 0,0 -27,-13 -26,-13 -79,-39 -133,-56 -55,-18 -111,-28 -179,-35 -69,-7 -150,-12 -223,-6 -72,5 -137,20 -186,33 -49,13 -83,25 -99,31 -17,5 -17,5 -17,5 0,0 0,0 -171,-4 -172,-4 -515,-12 -686,-16 -172,-4 -172,-4 -172,-4 0,0 0,0 0,0 0,0 0,0 -11,-35 -12,-35 -35,-106 -61,-171 -27,-66 -57,-127 -94,-183 -36,-56 -79,-106 -100,-131 -22,-26 -22,-26 -22,-26 0,0 0,0 66,4 66,4 198,11 345,20 147,9 310,19 480,35 170,15 347,36 517,58 170,22 335,45 488,70 153,24 295,51 412,78 94,21 172,43 224,57z"/>
   <path class="fil8" d="M11515 15153c56,-7 139,-12 201,-13 62,0 102,3 137,14 36,10 66,27 88,48 22,21 36,46 43,60 7,14 7,18 2,28 -6,10 -18,25 -54,57 -37,32 -98,80 -164,134 -66,53 -136,112 -194,159 -59,46 -106,82 -141,108 -35,27 -59,45 -70,54 -12,9 -12,9 -12,9 0,0 0,0 6,-97 6,-98 17,-293 26,-399 8,-106 13,-123 30,-136 17,-12 46,-20 102,-26z"/>
   <path class="fil13" d="M11980 15253c1,3 3,6 4,9 7,14 7,18 2,28 -5,8 -15,21 -41,45l-564 0 2 -20c2,-26 4,-46 5,-62l592 0zm-337 330c-24,20 -48,39 -69,57 -12,8 -22,17 -33,25l-181 0 5 -82 278 0z"/>
   <circle class="fil14" cx="13642" cy="16725" r="891"/>
   <circle class="fil15 str3" cx="13642" cy="16725" r="625"/>
   <path class="fil16" d="M16726 15119c14,59 40,165 64,296 24,132 46,290 59,469 12,180 15,382 13,513 -1,27 -1,52 -2,74l-1701 0 3 24 1697 -3c-2,37 -4,66 -7,92l-1690 0 0 67 1681 0c-10,61 -22,124 -29,156 -6,32 -6,32 -6,32 0,0 0,0 0,0 0,0 0,0 -297,0 -297,0 -891,0 -1188,0 -297,0 -297,0 -297,0 0,0 0,0 0,0 0,0 0,0 -28,-70 -28,-70 -83,-209 -188,-408 -105,-199 -259,-459 -402,-681 -143,-223 -276,-409 -351,-514 -75,-105 -92,-128 -86,-140 5,-12 32,-12 487,-5 455,6 1338,19 1785,23 446,3 457,-4 462,0 6,3 8,16 21,75zm77 63c16,75 44,200 65,338 20,138 35,289 42,408 7,119 7,206 5,313 -1,72 -3,153 -8,230l2663 0c2,-20 3,-40 4,-61 8,-176 6,-385 -3,-542 -8,-157 -22,-261 -53,-352 -31,-91 -78,-170 -126,-232 -49,-63 -100,-109 -125,-133 -26,-23 -26,-23 -26,-23 0,0 0,0 0,0 0,0 0,0 0,0 0,0 0,0 -411,-12 -410,-12 -1232,-35 -1643,-47 -411,-12 -411,-12 -411,-12 0,0 0,0 3,13 3,12 8,37 24,112zm103 1310c-2,29 -4,58 -7,85l0 7 2662 0c3,-30 6,-63 8,-97l-2663 5zm-15 159c-9,67 -19,118 -25,148 -8,40 -8,40 -8,40 0,0 0,0 0,0 0,0 0,0 445,4 445,5 1334,14 1779,18 444,5 444,5 444,5 0,0 0,0 0,0 0,0 0,0 10,-70 5,-34 12,-84 19,-145l-2664 0z"/>
   <rect class="fil15" x="14343" y="15207" width="586" height="131"/>
   <rect class="fil17" x="14423" y="15251" width="425.773" height="42.9671"/>
   <rect class="fil15" x="16976" y="15254" width="586" height="131"/>
   <rect class="fil17" x="17057" y="15298" width="425.773" height="42.9671"/>
   <polygon class="fil18" points="13501,17239 13796,17239 13654,16852 "/>
   <polygon class="fil18" points="13156,16891 13315,17140 13564,16810 "/>
   <polygon class="fil18" points="14137,16891 13978,17140 13729,16811 "/>
   <polygon class="fil18" points="14091,16427 14193,16704 13780,16703 "/>
   <polygon class="fil18" points="13198,16425 13096,16702 13509,16701 "/>
   <polygon class="fil18" points="13984,16303 13714,16185 13690,16597 "/>
   <polygon class="fil18" points="13291,16303 13561,16185 13585,16597 "/>
   <path class="fil19" d="M14099 14975c159,8 450,8 595,8 145,0 145,0 145,0 0,0 0,0 0,0 0,0 0,0 -21,-128 -22,-128 -65,-385 -86,-513 -22,-128 -22,-128 -22,-128 0,0 0,0 0,0 0,0 0,0 -75,21 -75,20 -224,62 -337,98 -113,36 -188,66 -251,99 -62,33 -112,69 -148,109 -37,40 -60,83 -71,128 -11,46 -10,94 2,139 12,45 34,87 59,115 24,29 52,45 210,52z"/>
   <path class="fil20" d="M14565 14983c49,0 93,0 129,0 145,0 145,0 145,0 0,0 0,0 0,0 0,0 0,0 -21,-128 -22,-128 -65,-385 -86,-513 -22,-128 -22,-128 -22,-128 0,0 0,0 0,0 0,0 0,0 -75,21 -75,20 -224,62 -337,98 -70,22 -126,42 -173,62l440 588z"/>
   <path class="fil19" d="M14826 14381c23,131 65,367 87,484 21,118 22,118 23,118 1,0 1,0 1,0 0,0 0,0 255,3 255,4 765,10 1021,14 255,3 255,3 255,3 0,0 0,0 0,0 0,0 0,0 -14,-164 -15,-163 -43,-490 -58,-653 -14,-164 -14,-164 -14,-164 0,0 0,0 0,0 0,0 0,0 -81,4 -82,3 -245,9 -416,20 -172,11 -353,27 -517,48 -164,21 -312,47 -405,65 -93,18 -132,29 -151,34 -20,5 -20,5 -20,5 0,0 0,0 3,13 2,13 8,39 31,170z"/>
   <path class="fil20" d="M14826 14381c23,131 65,367 87,484 21,118 22,118 23,118 1,0 1,0 1,0 0,0 0,0 255,3l321 5 -640 -813c-32,7 -50,12 -61,15 -20,5 -20,5 -20,5 0,0 0,0 3,13 2,13 8,39 31,170z"/>
   <path class="fil19" d="M16727 14370c61,156 155,394 202,514 47,119 47,119 47,119 0,0 0,0 0,0 0,0 0,0 0,0 0,0 0,0 290,4 290,4 871,11 1161,15 291,4 291,4 291,4 0,0 0,0 0,0 0,0 0,0 0,-36 0,-37 0,-110 -1,-148 -1,-38 -2,-42 -2,-44 -1,-2 -1,-2 -1,-2 0,0 0,0 -33,-30 -34,-29 -100,-87 -202,-154 -102,-66 -240,-140 -399,-211 -158,-71 -336,-139 -487,-184 -150,-45 -272,-67 -395,-87 -123,-19 -247,-36 -345,-46 -99,-11 -172,-15 -208,-17 -37,-2 -37,-2 -22,35 14,38 43,112 104,268z"/>
   <path class="fil20" d="M18718 14942c0,-35 0,-75 -1,-100 -1,-38 -2,-42 -2,-44 -1,-2 -1,-2 -1,-2 0,0 0,0 -33,-30 -34,-29 -100,-87 -202,-154 -62,-40 -137,-83 -221,-126l460 456z"/>
   <path class="fil20" d="M16727 14370l35 90 536 547 1023 14 -796 -824c-120,-32 -224,-50 -327,-67 -123,-19 -247,-36 -345,-46 -99,-11 -172,-15 -208,-17 -37,-2 -37,-2 -22,35 14,38 43,112 104,268z"/>
   <path class="fil12" d="M13493 15005l-2064 -10c-11,18 -20,41 -24,66 -5,25 -5,52 -4,78 57,-9 124,-19 180,-26 89,-10 150,-11 201,-6 51,5 91,17 122,30 30,14 51,30 69,48 17,18 31,39 41,60 9,21 13,42 12,57 -1,16 -6,26 -8,31l-3 6 92 21c93,22 278,65 424,87 147,23 255,26 531,30 276,5 720,11 942,15l222 3 -52 -82 -209 -325 -52 -81 -420 -2z"/>
   <path class="fil17" d="M13642 15757c-535,0 -969,433 -969,968 0,106 17,207 48,302 27,2 55,4 84,5 -35,-95 -54,-199 -54,-307 0,-492 399,-890 891,-890 491,0 890,398 890,890 0,126 -26,245 -73,354 23,0 50,1 84,1 43,-110 67,-229 67,-355 0,-535 -433,-968 -968,-968z"/>
   <circle class="fil14" cx="21040" cy="16733" r="891"/>
   <circle class="fil15 str3" cx="21040" cy="16733" r="625"/>
   <polygon class="fil18" points="20899,17246 21194,17247 21052,16859 "/>
   <polygon class="fil18" points="20554,16899 20713,17148 20962,16818 "/>
   <polygon class="fil18" points="21536,16899 21376,17148 21127,16818 "/>
   <polygon class="fil18" points="21489,16435 21591,16712 21178,16711 "/>
   <polygon class="fil18" points="20596,16433 20494,16710 20907,16709 "/>
   <polygon class="fil18" points="21383,16311 21112,16193 21088,16605 "/>
   <polygon class="fil18" points="20689,16311 20960,16193 20984,16605 "/>
   <path class="fil17" d="M21040 15764c-535,0 -969,434 -969,969 0,76 9,149 25,219 3,15 6,30 9,42 6,21 11,37 17,52 5,14 11,27 16,37 5,9 10,16 14,22l1 -1 75 -2c-5,-15 -14,-40 -24,-68 -11,-32 -23,-69 -32,-106 -5,-22 -10,-43 -13,-61 -6,-44 -10,-88 -10,-134 0,-492 399,-890 891,-890 492,0 890,398 890,890 0,126 -26,245 -73,353 23,1 51,2 84,2 44,-110 67,-230 67,-355 0,-535 -433,-969 -968,-969z"/>
   <circle class="fil2 str4" cx="13643" cy="16708" r="80"/>
   <circle class="fil2 str4" cx="21049" cy="16724" r="80"/>
   <path class="fil21" d="M21967 15514c-6,15 16,51 41,85 24,33 52,64 85,94 34,30 74,59 111,81 37,22 71,36 109,46 38,10 79,15 99,17 21,3 21,3 21,3 0,0 0,0 -66,-54 -65,-54 -196,-162 -278,-220 -83,-58 -116,-66 -122,-52z"/>
   <ellipse class="fil7" cx="22559" cy="16687" rx="88" ry="138"/>
   <path class="fil11" d="M16706 14796c-39,-163 -113,-477 -155,-635 -16,-58 -27,-95 -35,-119 -4,0 -8,-1 -12,-2 -4,-1 -8,-3 -12,-5 4,24 12,63 25,127 34,164 106,492 142,656 36,164 36,164 36,164 0,0 0,0 9,1 9,0 27,2 36,2 9,1 9,1 9,1 0,0 0,0 -1,-7 -1,-6 -4,-19 -42,-183z"/>
   <path class="fil2 str5" d="M16637 14981c-791,-11 -1660,-15 -2121,-19 -461,-5 -514,-10 -553,-20 -38,-10 -61,-24 -80,-41 -19,-17 -33,-36 -45,-63 -11,-27 -18,-61 -17,-98 1,-37 12,-77 30,-116 18,-38 44,-74 79,-107 34,-33 77,-61 134,-89 58,-27 129,-53 240,-88 111,-35 260,-80 415,-119 155,-39 315,-72 470,-97 154,-25 302,-41 478,-55 176,-14 379,-27 537,-31 158,-4 272,1 412,14 140,12 306,31 466,57 159,26 312,59 449,96 137,37 260,79 392,132 132,52 274,116 401,186 127,70 239,145 307,196 67,51 91,77 119,110 28,33 60,73 81,108 21,34 30,63 33,77 2,15 -2,15 -361,6 -359,-10 -1074,-28 -1866,-39z"/>
   <path class="fil22" d="M15331 15594c42,0 82,10 121,28 37,19 68,46 90,81 22,35 33,77 33,128 0,50 -11,93 -33,128 -22,36 -53,63 -90,81 -39,19 -79,28 -121,28l-161 0 0 283 -160 0 0 -757 321 0zm-31 331c35,0 62,-8 81,-25 18,-15 27,-39 27,-69 0,-31 -9,-55 -27,-70 -19,-17 -46,-25 -81,-25l-130 0 0 189 130 0z"/>
   <path id="1" class="fil22" d="M16306 15976c0,-40 -8,-78 -24,-115 -18,-37 -43,-67 -77,-90 -34,-23 -77,-36 -127,-37 -51,0 -92,12 -125,35 -35,24 -60,54 -76,91 -17,35 -26,74 -26,116 0,42 9,81 26,117 16,36 41,66 76,90 33,23 74,35 125,35 50,-1 93,-14 127,-37 34,-23 59,-53 77,-90 16,-37 24,-75 24,-115zm-227 -396c109,0 203,39 280,116 77,78 116,171 116,281 0,108 -39,201 -116,279 -77,77 -171,116 -280,116 -109,0 -202,-39 -280,-116 -77,-78 -116,-171 -116,-279 0,-110 39,-203 116,-281 78,-77 171,-116 280,-116z"/>
   <polygon id="2" class="fil22" points="17033,16352 16584,16352 16584,15594 16744,15594 16744,16210 17033,16210 "/>
   <polygon id="3" class="fil22" points="17354,15594 17354,16352 17194,16352 17194,15594 "/>
   <path id="4" class="fil22" d="M17653 16016c3,34 12,64 27,92 19,36 46,64 79,83 33,20 71,29 113,29 45,0 84,-10 118,-31 34,-21 58,-49 74,-84l125 78c-22,59 -62,106 -119,139 -58,33 -123,50 -197,50 -72,0 -137,-16 -196,-48 -60,-31 -107,-76 -141,-135 -35,-59 -52,-129 -52,-211 0,-83 17,-153 52,-212 34,-59 81,-104 141,-135 59,-32 124,-47 196,-47 74,0 139,16 197,49 57,34 97,80 119,140l-125 77c-16,-34 -40,-62 -74,-84 -34,-21 -73,-31 -118,-31 -42,0 -80,10 -113,29 -33,19 -60,47 -79,84 -15,27 -24,57 -27,91 -2,21 -2,47 0,77z"/>
   <polygon id="5" class="fil22" points="18785,16352 18310,16352 18310,15594 18774,15594 18774,15736 18470,15736 18470,15898 18742,15898 18742,16038 18470,16038 18470,16211 18785,16211 "/>
  </g>
  <g id="_2714954360592">
   <path class="fil23" d="M23216 13605l179 0c1,-7 3,-13 4,-20 4,-14 7,-28 11,-39 7,-23 15,-39 28,-54 12,-15 30,-29 45,-43 16,-14 29,-28 39,-43 10,-16 17,-32 15,-45 -3,-14 -14,-24 -24,-29 -10,-5 -18,-5 -22,-5 -4,0 -4,0 -5,-55 0,-55 -2,-164 -6,-225 -3,-61 -8,-74 -15,-83 -7,-9 -17,-14 -27,-15 -11,-1 -23,1 -34,7 -10,5 -20,15 -25,43 -5,27 -6,72 -6,94 -1,23 -1,23 -14,26 -14,3 -41,10 -61,16 -19,7 -30,13 -53,18 -23,4 -58,7 -81,10 -23,3 -33,6 -39,38 -5,33 -5,94 -1,142 3,49 9,85 19,113 10,28 24,49 36,68 12,19 23,36 30,54 0,2 1,4 2,6 2,7 4,14 5,21z"/>
   <path class="fil24" d="M23216 13605l46 0c-4,-13 -8,-28 -13,-40 -4,-12 -10,-22 -16,-32 -6,-10 -14,-20 -22,-33 -9,-13 -18,-29 -27,-50 -8,-21 -16,-48 -21,-78 -5,-30 -7,-64 -8,-92 -1,-28 -1,-50 2,-65 3,-15 9,-23 19,-28 9,-5 23,-8 34,-7 12,1 21,5 30,7 9,2 18,1 27,-3 9,-5 18,-12 27,-17 9,-6 18,-9 29,-9 11,1 24,6 34,5 10,-1 17,-7 21,-14 5,-8 7,-18 8,-36 2,-19 3,-46 5,-69 2,-23 5,-42 10,-55 4,-13 10,-21 17,-26 8,-5 17,-7 28,-6 5,0 10,1 15,2 -7,-6 -15,-9 -23,-10 -11,-1 -23,1 -34,7 -10,5 -20,15 -25,43 -5,27 -6,72 -6,94 -1,23 -1,23 -14,26 -14,3 -41,10 -61,16 -19,7 -30,13 -53,18 -23,4 -58,7 -81,10 -23,3 -33,6 -39,38 -5,33 -5,94 -1,142 3,49 9,85 19,113 10,28 24,49 36,68 12,19 23,36 30,54 0,2 1,4 2,6 2,7 4,14 5,21z"/>
   <path class="fil25" d="M23161 13584l0 130c0,131 0,393 5,538 5,145 14,173 29,194 15,21 37,35 130,42 92,8 256,8 338,8l82 0 0 146 -1 592 0 136 101 0c28,0 28,0 28,13 0,6 1,15 1,30 20,3 43,7 68,12 63,11 141,23 251,33 15,1 32,3 48,4l0 -12 63 0c7,28 19,53 36,65 25,18 63,6 93,-6 30,-13 51,-25 69,-52 1,-2 3,-5 4,-7l59 0 0 17c1,0 2,0 2,0l106 0c7,0 14,3 19,7 34,-2 67,-4 98,-6 3,-8 12,-8 46,-7l34 0c33,-3 62,-6 85,-10 24,-3 42,-7 56,-9 9,-5 17,-9 24,-12 0,-56 2,-56 14,-56 7,-1 16,-1 26,0 1,-16 1,-47 1,-129l0 -534 0 -133 42 24 156 87 0 -481c-30,-16 -72,-35 -109,-51 -43,-19 -80,-32 -118,-45 -39,-13 -80,-26 -121,-36 -42,-10 -85,-18 -124,-25 -40,-8 -75,-15 -104,-21 -29,-6 -50,-10 -76,-17 -4,-2 -8,-3 -13,-4 -11,-3 -22,-7 -33,-11l0 -5 0 -49c-1,0 -2,0 -3,1 -4,3 -9,6 -13,9 -16,10 -30,15 -49,19 -20,5 -45,9 -70,11 -26,2 -52,2 -78,0 -26,-3 -52,-7 -72,-12 -19,-5 -31,-11 -41,-17 -5,-2 -9,-5 -13,-8 0,0 -1,0 -1,0l0 51c-5,2 -11,4 -16,7 -8,5 -16,10 -24,16 -30,9 -66,20 -128,33 -84,17 -214,40 -309,55 -96,15 -156,22 -196,26 -40,5 -58,6 -72,6 -13,1 -21,1 -25,1 -5,0 -6,0 -7,-93 -1,-92 -1,-278 -1,-371l0 -92 -49 -1 -10 0 -188 -1 0 0 -50 0z"/>
   <path class="fil26" d="M25077 14579l41 23 156 87 0 -47 -15 -5c-36,-13 -109,-37 -146,-50 -36,-12 -36,-12 -36,-12l0 4z"/>
   <path class="fil26" d="M23161 13584l0 130c0,131 0,393 5,538 5,145 14,173 29,194 15,21 37,35 130,42 92,8 256,8 338,8l80 0c-2,-15 -7,-19 -15,-22 -8,-4 -18,-8 -43,-10 -24,-3 -62,-5 -123,-8 -61,-3 -144,-9 -200,-13 -57,-5 -86,-10 -106,-16 -19,-6 -29,-14 -36,-24 -7,-9 -11,-22 -17,-156 -5,-134 -12,-390 -18,-522 -5,-106 -10,-132 -15,-141l-9 0z"/>
   <polygon class="fil23" points="24236,13921 24576,13921 24576,14028 24434,14156 24386,14156 24236,14017 "/>
   <path class="fil27" d="M24212 13923c-2,3 7,11 15,17 8,6 14,10 23,15 10,6 22,12 41,17 20,5 46,9 72,12 26,2 52,2 78,0 25,-2 50,-6 70,-11 19,-4 33,-9 49,-19 16,-10 34,-25 43,-32 9,-8 9,-8 9,-8 0,0 0,0 -9,2 -8,2 -24,5 -56,9 -32,4 -80,8 -124,9 -45,0 -87,-3 -117,-6 -30,-2 -48,-3 -63,-5 -16,-1 -29,-3 -31,0z"/>
   <path class="fil23" d="M23836 13191c-4,24 -9,57 -11,73 -3,16 -3,16 -3,16 0,0 0,0 -2,0 -2,0 -7,0 -13,2 -6,2 -14,5 -21,13 -8,7 -15,18 -20,35 -4,16 -5,38 -5,57 1,19 4,35 8,49 4,15 10,28 17,37 8,10 17,16 27,20 10,5 21,7 32,8 12,1 24,1 31,1 6,0 6,0 6,0 0,0 0,0 1,24l0 21c2,15 5,32 8,49 4,26 10,50 18,72 7,23 15,45 24,64 8,19 18,35 27,49 10,14 20,26 33,39 13,14 29,29 44,41 16,13 31,22 49,32 17,9 36,19 58,27 22,9 46,16 68,22 22,5 42,9 62,11 19,2 38,2 63,2 25,1 56,1 89,0 33,0 67,-3 100,-5 33,-3 64,-7 93,-13 29,-7 56,-16 81,-29 26,-13 50,-29 70,-44 19,-14 36,-27 50,-44 15,-17 29,-37 42,-58 13,-21 27,-42 39,-66 12,-23 22,-49 30,-75 9,-25 15,-50 19,-73 5,-23 8,-45 9,-56 2,-11 2,-11 2,-11 0,0 0,0 2,1 2,1 7,2 14,2 8,1 19,0 31,-3 2,-1 5,-1 7,-2 4,-2 8,-5 12,-8 10,-10 17,-25 22,-44 4,-20 6,-43 7,-65 1,-22 1,-42 -4,-58 -4,-16 -13,-28 -20,-34 -6,-7 -10,-9 -13,-10 -2,-1 -2,-1 -2,-16 -1,-15 -1,-45 -2,-59 0,-15 0,-15 -1,-36 -1,-20 -3,-60 -8,-90 -6,-30 -15,-49 -52,-65 -37,-16 -102,-29 -208,-36 -106,-7 -253,-8 -373,-5 -120,2 -215,7 -285,14 -71,8 -118,18 -151,33 -32,15 -49,36 -62,60 -13,24 -23,51 -28,72 -6,21 -8,36 -11,59z"/>
   <path class="fil24" d="M23802 13284c-5,2 -11,5 -16,11 -8,7 -15,18 -20,35 -4,16 -5,38 -5,57 1,19 4,35 8,49 4,15 10,28 17,37 8,10 17,16 27,20 10,5 21,7 32,8 12,1 24,1 31,1 6,0 6,0 6,0 0,0 0,0 1,24l0 21c2,15 5,32 8,49 4,26 10,50 18,72 7,23 15,45 24,64 8,19 18,35 27,49 10,14 20,26 33,39 13,14 29,29 44,41 16,13 31,22 49,32 17,9 36,19 58,27 22,9 46,16 68,22 22,5 42,9 62,11 19,2 38,2 63,2 25,1 56,1 89,0 33,0 67,-3 100,-5 33,-3 64,-7 93,-13 29,-7 56,-16 81,-29 26,-13 50,-29 70,-44 19,-14 36,-27 50,-44 15,-17 29,-37 42,-58 13,-21 27,-42 39,-66 12,-23 22,-49 30,-75 9,-25 15,-50 19,-73 5,-23 8,-45 9,-56 2,-11 2,-11 2,-11 0,0 0,0 2,1 2,1 7,2 14,2 8,1 19,0 31,-3 2,-1 5,-1 7,-2 4,-2 8,-5 12,-8 10,-10 17,-25 22,-44 4,-20 6,-43 7,-65 1,-22 1,-42 -4,-58 -4,-16 -13,-28 -20,-34 -2,-3 -4,-5 -6,-6 3,9 6,20 8,32 3,15 4,31 3,50 -1,18 -5,39 -10,56 -5,17 -13,30 -23,39 -10,9 -23,13 -34,15 -10,2 -18,2 -22,1 -4,0 -4,0 -4,0 0,0 0,0 -1,7 -1,6 -4,19 -8,39 -4,19 -10,45 -18,72 -9,27 -20,54 -32,78 -11,23 -24,43 -38,63 -15,21 -32,41 -50,59 -19,18 -37,34 -55,48 -19,14 -36,27 -57,39 -20,12 -43,23 -68,31 -25,9 -51,14 -80,18 -29,4 -61,5 -96,7 -34,1 -71,2 -103,2 -32,-1 -59,-2 -87,-7 -28,-4 -59,-13 -86,-22 -27,-10 -51,-21 -72,-33 -22,-13 -41,-27 -58,-42 -16,-15 -30,-30 -43,-49 -13,-19 -25,-41 -36,-64 -10,-22 -19,-44 -26,-69 -7,-25 -13,-52 -18,-80 -4,-27 -6,-56 -7,-70 -1,-14 -1,-14 -1,-14 0,0 0,0 -8,3 -8,3 -24,8 -37,10 -13,1 -23,-2 -32,-9 -9,-7 -17,-19 -23,-31 -6,-13 -11,-28 -14,-45 -3,-18 -5,-39 -4,-57 1,-18 3,-33 8,-43 3,-6 6,-10 8,-14z"/>
   <path class="fil28" d="M24328 13794c4,5 9,9 14,14 5,4 10,8 15,12 6,3 12,5 19,7 8,2 17,4 26,4 10,1 19,1 29,1 10,0 21,-1 30,-3 8,-1 13,-4 18,-7 4,-3 8,-6 12,-11 4,-4 7,-10 9,-14 1,-3 1,-3 -15,-4 -15,-1 -47,-2 -78,-5 -31,-2 -62,-5 -75,-4 -13,1 -8,5 -4,10z"/>
   <path class="fil28" d="M24575 13540c-7,1 -17,1 -26,1 -8,-1 -15,-2 -20,-5 -6,-2 -10,-6 -14,-10 -4,-4 -8,-9 -13,-16 -4,-7 -10,-17 -15,-30 -6,-13 -11,-28 -14,-44 -4,-15 -6,-32 -6,-44 -1,-12 -1,-20 -1,-29 1,-10 2,-21 6,-31 4,-11 10,-21 16,-29 6,-9 12,-16 19,-21 8,-5 16,-9 22,-11 6,-3 10,-3 17,-1 6,2 15,7 29,29 14,22 33,61 43,97 9,36 9,70 5,92 -4,23 -13,33 -19,40 -6,6 -9,8 -13,9 -4,2 -8,3 -16,3z"/>
   <path class="fil28" d="M24306 13535c10,-1 18,-4 25,-11 7,-7 13,-18 21,-33 7,-14 15,-32 20,-50 5,-18 5,-35 5,-53 0,-17 0,-34 -2,-48 -2,-13 -5,-24 -10,-33 -4,-9 -11,-18 -17,-24 -7,-6 -14,-11 -21,-13 -7,-3 -15,-4 -28,-4 -13,0 -31,1 -47,5 -15,3 -27,9 -38,30 -10,20 -19,55 -17,88 3,33 17,65 32,89 15,25 31,42 44,51 13,8 24,8 33,6z"/>
   <path class="fil28" d="M23979 13117c0,46 0,129 0,171 0,41 0,41 -9,37 -9,-3 -27,-11 -43,-20 -15,-9 -29,-21 -39,-49 -11,-28 -19,-74 -18,-113 1,-40 11,-73 26,-90 15,-16 37,-15 52,-12 15,3 23,7 27,14 4,7 4,16 4,62z"/>
   <path class="fil28" d="M24899 13250c-1,-43 -1,-121 -1,-159 0,-39 0,-39 16,-39 16,0 47,0 64,11 17,11 19,32 20,57 1,24 0,51 -4,72 -4,22 -11,37 -27,56 -16,18 -41,40 -54,47 -13,6 -14,-3 -14,-45z"/>
   <path class="fil29" d="M24076 12874c-181,2 -198,-2 -229,-22 -1,0 -2,-1 -4,-1 -6,21 -16,57 -21,85 -3,14 -4,25 -5,35l0 0 0 1c0,4 0,11 0,22 -1,16 -1,41 0,72 1,30 2,66 4,91 2,20 3,34 5,45 1,7 1,13 2,19 1,9 2,17 3,22 1,5 2,8 2,10 1,5 1,5 14,8l52 13 10 3 -1 -2 4 1 0 -32 0 -134 0 -34 35 10c35,10 104,29 182,43 78,13 164,20 240,23 76,2 143,1 206,-4 63,-4 123,-10 185,-22 62,-12 127,-29 159,-37l32 -9 0 30 0 117 0 29 16 -10 35 -23 27 -17 16 -11 -1 -23c0,-12 -1,-30 -1,-50l-1 -6c0,-17 0,-38 0,-58 0,-20 0,-40 0,-57 0,-2 0,-4 0,-6 -1,-16 -2,-49 -8,-80 -5,-27 -14,-54 -23,-76 -24,14 -57,15 -201,19 -184,4 -547,13 -734,16z"/>
   <path class="fil30" d="M24969 12786c11,2 24,19 36,43 12,23 23,54 29,86 6,31 7,64 8,80 0,16 0,16 -71,16 -72,0 -215,0 -419,0 -204,0 -469,-1 -602,-1 -132,-1 -132,-1 -133,-11 0,-11 -1,-33 5,-63 5,-31 17,-71 23,-90 6,-20 6,-20 105,-23 100,-3 299,-8 481,-10 181,-2 346,-2 432,-8 86,-7 95,-20 106,-19z"/>
   <ellipse class="fil27" cx="24679" cy="13275" rx="94" ry="31"/>
   <path class="fil31" d="M25012 12838c13,-4 20,-10 31,-21 31,-28 94,-86 124,-118 3,-4 6,-7 9,-11 11,-11 12,-15 12,-18 0,-4 -3,-8 -39,-30 -36,-21 -106,-60 -140,-80 -35,-19 -35,-19 -35,-19 0,0 0,0 -82,-25 -82,-25 -246,-74 -339,-101 -92,-27 -113,-31 -133,-30 -11,1 -22,3 -46,9 -15,3 -31,6 -51,11 -56,14 -136,36 -216,60l-205 55c-92,24 -92,24 -120,49 -21,18 -59,51 -88,77 -25,17 -36,28 -41,37 -7,9 -7,12 -3,17 2,12 12,25 38,46 34,27 95,67 125,88 18,11 25,16 34,18 31,20 48,24 229,22 187,-3 550,-12 734,-16 147,-4 179,-5 202,-20z"/>
   <path class="fil30" d="M25016 12837c10,-4 17,-11 27,-20 31,-28 94,-86 124,-118 3,-4 6,-7 9,-11 11,-11 12,-15 12,-18 0,-4 -3,-8 -39,-30 -36,-21 -106,-60 -140,-80 -35,-19 -35,-19 -35,-19l-32 -10c47,33 117,81 154,109 45,34 46,39 38,51 -8,13 -23,32 -45,59 -22,26 -49,59 -63,75 -5,6 -8,9 -10,12z"/>
   <path class="fil30" d="M23835 12538c-29,9 -35,15 -53,31 -21,18 -59,51 -88,77 -25,17 -36,28 -41,37 -7,9 -7,12 -3,17 2,12 12,25 38,46 34,27 95,67 125,88 17,11 25,16 33,18 -3,-3 -7,-7 -12,-11 -29,-24 -86,-72 -115,-100 -29,-28 -30,-35 -30,-43 1,-8 3,-16 23,-39 19,-23 56,-62 78,-84 23,-22 30,-28 43,-36l2 -1z"/>
   <ellipse class="fil27" cx="24158" cy="13276" rx="94" ry="31"/>
   <ellipse class="fil32" cx="24418" cy="12643" rx="113" ry="137"/>
   <path class="fil33" d="M24815 13266l-268 0c-12,0 -23,5 -31,13l0 0c-3,3 -4,6 -6,9 -1,4 -2,9 -3,14 -1,5 -1,11 -1,14 0,3 0,3 0,3 0,0 0,0 -5,-2 -5,-1 -16,-4 -28,-6 -13,-3 -29,-5 -44,-6 -15,-1 -30,-1 -43,0 -13,2 -23,5 -31,8 -8,3 -14,5 -17,6 -3,2 -3,2 -3,2 0,0 0,0 0,-6 0,-5 0,-16 -2,-24 -1,-2 -1,-4 -2,-5 -7,-12 -21,-20 -36,-20l-268 0c-18,0 -34,11 -40,27l-154 -35 151 139 0 0 0 102c0,23 20,42 43,42l268 0c24,0 43,-19 43,-42l0 -124 166 0 0 124c0,23 19,42 43,42l268 0c23,0 42,-19 42,-42l0 -125 188 -179 -197 86c-8,-9 -20,-15 -33,-15z"/>
   <path class="fil34" d="M24810 13266l-263 0c-12,0 -23,5 -31,13l0 0c-3,3 -4,6 -6,9 -1,4 -2,9 -3,14 -1,5 -1,11 -1,14 0,3 0,3 0,3l-1 -1 0 15c0,11 -1,27 -1,42l0 0 0 124c0,23 19,42 43,42l144 0 1 -1c12,-8 17,-20 19,-26 2,-6 2,-6 -25,-5 -27,0 -81,0 -111,-2 -30,-2 -35,-7 -38,-14 -3,-7 -4,-16 -4,-41 -1,-25 -2,-66 -1,-96 1,-29 3,-46 8,-55 4,-10 10,-12 16,-13 6,-1 13,-1 43,-1 30,0 83,-1 118,0 34,0 50,1 62,0 13,-2 22,-6 28,-14 1,-2 2,-5 3,-7z"/>
   <path class="fil34" d="M24282 13266l-255 0c-18,0 -34,11 -40,27l-154 -35 151 139 0 0 0 102c0,23 20,42 43,42l156 0c13,-8 19,-17 23,-22 5,-7 5,-7 -19,-6 -23,0 -71,1 -102,1 -30,-1 -45,-3 -55,-6 -10,-3 -15,-8 -19,-13 -3,-6 -4,-12 -4,-42 -1,-29 -1,-83 0,-113 2,-31 6,-39 11,-44 4,-6 10,-9 22,-11 12,-2 31,-2 56,-2 26,0 58,0 88,1 31,0 59,1 78,-5 10,-3 17,-8 20,-13z"/>
   <path class="fil35" d="M24319 13273c-7,-4 -15,-7 -24,-7l-67 0c0,23 1,57 -1,84 -2,33 -7,57 -15,81 -8,23 -19,47 -33,66 -13,19 -29,34 -44,44l104 0c8,-7 15,-16 23,-26 11,-16 21,-35 29,-56 8,-21 14,-45 18,-69 4,-25 7,-51 8,-72 2,-18 2,-33 2,-45z"/>
   <path class="fil35" d="M24815 13266l-67 0c0,16 0,36 0,55 -1,28 -2,54 -7,78 -4,25 -13,49 -23,70 -10,21 -21,39 -33,53 -7,8 -13,14 -18,19l86 0c1,-1 3,-3 5,-4 10,-9 20,-20 30,-34 9,-15 19,-33 26,-53 8,-21 13,-44 17,-68 3,-24 5,-49 6,-72 0,-14 0,-27 -1,-38 -6,-4 -13,-6 -21,-6z"/>
   <path class="fil36" d="M24420 13743c-67,0 -128,-11 -173,-29 6,55 81,98 173,98 92,0 167,-43 173,-98 -45,18 -106,29 -173,29z"/>
   <path class="fil37" d="M24356 13621c-13,-1 -31,-1 -41,-4 -10,-4 -12,-10 -12,-20 1,-10 4,-23 11,-32 6,-9 16,-14 29,-18 12,-4 28,-6 36,-7 8,-1 8,-1 8,-1 0,0 0,0 0,13 0,14 0,41 0,55 0,14 0,14 0,14 0,0 0,0 -4,0 -5,0 -14,0 -27,0z"/>
   <line class="fil2" x1="24098" y1="14476" x2="24098" y2= "14864" />
   <line class="fil2" x1="23923" y1="14603" x2="24278" y2= "14603" />
   <rect class="fil38" x="25274" y="13881" width="844" height="1152"/>
   <rect class="fil13" x="25351" y="13957" width="691" height="1000"/>
   <path class="fil23" d="M25944 13776c-26,-7 -54,-15 -80,-20 -27,-6 -52,-8 -71,-8 -18,0 -29,2 -37,8 -8,5 -12,13 -17,19 -6,7 -11,11 -23,16 -11,5 -27,12 -41,20 -13,8 -24,19 -30,30 -7,10 -8,21 -1,30 7,9 23,15 34,24 12,8 19,18 29,28 10,10 23,21 43,30 21,8 48,13 76,15 29,1 58,-1 82,-10 25,-10 44,-27 65,-39 21,-13 44,-21 67,-29 22,-7 44,-13 52,-21 9,-9 3,-20 -12,-32 -15,-13 -39,-27 -63,-37 -24,-11 -47,-16 -73,-24z"/>
   <path class="fil24" d="M25756 13955c19,7 44,11 70,13 29,1 58,-1 82,-10 25,-10 44,-27 65,-39 21,-13 44,-21 67,-29 9,-3 19,-6 28,-9 -12,1 -25,4 -41,8 -22,7 -51,17 -78,28 -27,10 -52,20 -77,26 -25,7 -51,9 -74,10 -15,1 -28,1 -42,2z"/>
   <path class="fil24" d="M25944 13776c-26,-7 -54,-15 -80,-20 -27,-6 -52,-8 -71,-8 -18,0 -29,2 -37,8 -8,5 -12,13 -17,19 -6,7 -11,11 -23,16 -11,5 -27,12 -41,20 -13,8 -24,19 -30,30 -7,10 -8,21 -1,30 7,9 23,15 34,24 5,3 9,7 13,10l0 0c0,-12 5,-26 12,-39 7,-12 16,-21 26,-28 11,-6 22,-10 35,-15 13,-4 28,-10 50,-14 21,-4 50,-6 81,-6 32,0 65,2 96,7 31,5 59,14 96,37l5 3c-2,-4 -7,-9 -12,-13 -15,-13 -39,-27 -63,-37 -24,-11 -47,-16 -73,-24z"/>
   <rect class="fil13" x="24290" y="15500" width="227" height="109"/>
   <path class="fil2 str6" d="M23872 15625c-1,14 -2,27 -3,38 -4,49 -12,62 -29,70 -17,8 -44,11 -66,8 -22,-3 -40,-12 -51,-25 -11,-13 -17,-31 -19,-89 -2,-59 -2,-158 -1,-207 0,-50 0,-50 28,-50 29,0 85,0 114,0 28,0 28,0 28,13 1,11 1,31 1,74 38,0 88,1 116,2 38,2 39,3 41,29 3,27 7,78 6,106 -2,29 -8,34 -43,35 -32,1 -87,-1 -122,-4z"/>
   <rect class="fil2 str6" x="24103" y="15467" width="165" height="173" rx="30" ry="26"/>
   <path class="fil39" d="M23995 17375c149,0 269,71 269,158l22 0 0 75 -588 0 0 -75 27 0c0,-87 121,-158 270,-158z"/>
   <path class="fil39" d="M24751 17375c149,0 269,71 269,158l22 0 0 75 -588 0 0 -75 27 0c0,-87 121,-158 270,-158z"/>
   <rect class="fil26" x="24364" y="14160" width="85.9341" height="1310.51"/>
   <path class="fil26" d="M24208 14344c-10,-18 -30,-55 -43,-90 -13,-35 -19,-68 -22,-94 -2,-26 -2,-45 4,-64 2,-10 6,-19 10,-28 -7,12 -14,26 -19,41 -6,17 -9,36 -10,55 -2,19 -2,38 2,62 5,24 13,54 24,78 10,25 22,45 33,60 11,15 21,26 26,31l4 6 30 -35 117 -139 0 -41 -112 136 -34 41 -10 -19z"/>
   <path class="fil26" d="M24450 14175l0 44c4,5 8,11 14,18l104 129 26 32 5 -4c6,-4 17,-12 28,-27 12,-15 23,-37 33,-61 10,-25 18,-52 23,-80 6,-29 8,-58 7,-85 -2,-27 -7,-50 -21,-74 -11,-19 -27,-38 -41,-53 -2,0 -4,-1 -6,-1l-13 -4c14,8 28,19 39,33 13,16 23,34 28,54 6,19 6,38 4,64 -3,26 -9,59 -22,94 -13,35 -33,72 -43,90l-10 19 -34 -41 -121 -147z"/>
   <path class="fil26" d="M23951 14476c-5,1 -11,4 -16,9 -5,4 -10,11 -13,18 -4,8 -6,16 -7,70 -1,54 -1,152 0,205 1,52 2,59 5,65 2,6 6,12 12,17 5,4 13,7 28,8 15,2 36,2 82,2 47,0 117,0 156,-1 39,0 45,-1 53,-3 7,-2 16,-7 23,-13 6,-7 10,-16 13,-24 2,-8 2,-14 1,-67 -1,-53 -2,-153 -4,-205 -1,-53 -3,-59 -7,-64 -4,-5 -10,-9 -16,-12 -6,-3 -13,-5 -16,-5 -3,-1 -3,-1 -3,-1 0,0 0,0 2,1 2,1 6,3 9,6 4,4 8,8 11,14 3,7 5,15 7,66 1,51 1,145 0,196 -1,51 -3,59 -5,66 -2,7 -5,13 -12,17 -6,4 -15,6 -63,6 -49,1 -137,0 -184,-2 -48,-1 -54,-3 -59,-6 -6,-4 -9,-10 -11,-60 -2,-51 -1,-146 0,-199 2,-54 3,-64 5,-72 2,-8 5,-14 10,-19 4,-6 10,-11 10,-14 0,-2 -5,-1 -11,1z"/>
   <rect class="fil26" x="23928" y="14591" width="350.244" height="23.4441"/>
   <rect class="fil26" x="24088" y="14475" width="19.523" height="382.806"/>
   <line class="fil2" x1="24757" y1="14487" x2="24757" y2= "14874" />
   <line class="fil2" x1="24582" y1="14613" x2="24936" y2= "14613" />
   <path class="fil32" d="M24645 14616c58,-3 171,-2 230,-4 58,-1 61,-3 62,-7 2,-4 2,-9 1,-18 -1,-9 -2,-23 -3,-29 0,-7 0,-7 -59,-6 -58,0 -175,1 -233,2 -58,0 -58,0 -59,6 -1,7 -2,19 -2,32 -1,12 0,25 1,28 2,4 4,-2 62,-4z"/>
   <path class="fil26" d="M24610 14486c-5,2 -11,4 -16,9 -5,5 -10,11 -14,19 -3,7 -5,16 -6,69 -1,54 -1,153 -1,205 1,53 3,59 6,65 2,7 6,13 11,17 6,4 14,7 29,9 14,1 36,2 82,2 47,0 117,-1 156,-1 39,-1 45,-1 53,-4 7,-2 16,-6 22,-13 7,-7 11,-16 13,-24 3,-7 3,-14 2,-67 -1,-53 -2,-152 -4,-205 -1,-53 -4,-59 -8,-64 -3,-5 -9,-9 -15,-12 -6,-2 -13,-4 -16,-5 -3,-1 -3,-1 -3,-1 0,0 0,0 2,1 2,1 6,4 9,7 4,3 7,7 10,14 3,6 6,14 7,65 2,51 2,145 1,196 -1,51 -3,59 -5,66 -3,8 -6,14 -12,17 -6,4 -15,6 -63,7 -49,0 -137,-1 -185,-2 -47,-1 -53,-3 -59,-7 -5,-4 -9,-9 -10,-60 -2,-50 -1,-146 0,-199 1,-53 3,-64 5,-72 2,-8 5,-13 9,-19 5,-5 10,-11 11,-13 0,-3 -5,-2 -11,0z"/>
   <rect class="fil26" x="24587" y="14601" width="350.244" height="23.4441"/>
   <rect class="fil26" x="24747" y="14602" width="19.523" height="265.751"/>
   <path class="fil32" d="M24065 14055c-7,-1 -16,-1 -32,0 -16,1 -37,3 -53,5 -16,3 -25,7 -30,11 -4,4 -4,9 -1,12 3,3 8,5 24,4 15,-1 41,-6 61,-11 21,-6 35,-12 39,-16 5,-3 0,-5 -8,-5z"/>
   <path class="fil32" d="M23904 14076c-9,-2 -20,-1 -31,0 -11,1 -22,2 -32,4 -10,2 -20,6 -27,10 -7,4 -12,9 -12,13 -1,4 1,7 6,10 4,2 11,4 22,4 11,0 28,-2 41,-4 14,-2 26,-5 35,-8 8,-4 13,-7 16,-11 3,-3 3,-7 0,-11 -3,-3 -9,-6 -18,-7z"/>
   <path class="fil32" d="M24765 14046c8,0 17,0 33,1 16,1 37,4 53,7 15,3 25,7 29,12 5,4 4,8 1,11 -3,4 -8,6 -24,4 -15,-2 -41,-7 -61,-13 -20,-6 -34,-13 -39,-17 -4,-3 1,-5 8,-5z"/>
   <path class="fil32" d="M24927 14071c8,-1 20,1 31,2 10,1 21,2 31,5 10,2 20,6 27,10 7,4 11,9 12,13 1,5 -2,8 -7,10 -4,2 -11,4 -22,3 -11,0 -27,-2 -41,-4 -14,-3 -26,-6 -34,-10 -8,-3 -13,-7 -16,-11 -3,-3 -3,-7 0,-11 3,-3 10,-6 19,-7z"/>
   <circle class="fil26" cx="24449" cy="15300" r="36"/>
   <circle class="fil26" cx="24451" cy="15126" r="36"/>
   <circle class="fil26" cx="24453" cy="14953" r="36"/>
   <circle class="fil26" cx="24455" cy="14779" r="36"/>
   <circle class="fil26" cx="24457" cy="14605" r="36"/>
   <circle class="fil26" cx="24459" cy="14431" r="36"/>
   <rect class="fil3" x="25484" y="14023" width="414.045" height="36.4594"/>
   <circle class="fil40" cx="25486" cy="14827" r="74"/>
   <path class="fil2 str7" d="M25794 14838c0,-1 33,-33 7,-1 -59,72 36,-9 59,-21 -84,71 -43,43 37,4 56,-27 -28,5 -52,21 -135,90 79,-5 74,-30 -40,2 -126,100 -21,21 11,-9 53,-72 13,-40 -1,0 -128,108 -78,75 13,-9 74,-40 76,-43 -47,7 -119,106 -7,24 25,-18 -36,20 15,-4 29,-13 -26,-3 -25,8 39,0 55,-34 20,-11 -12,7 11,-1 -5,5 -18,6 54,6 76,-3 2,-1 3,0 5,0"/>
   <path class="fil41" d="M23874 15410c0,-13 -1,-21 -1,-27 0,-13 0,-13 -28,-13l-101 0 -13 0c-28,0 -28,0 -28,50 -1,49 -1,148 1,207 2,58 8,76 19,89 4,5 9,9 15,13 0,58 0,132 0,227 2,346 8,969 10,1281l2 230c43,-54 136,-92 245,-92 110,0 204,39 246,94 1,-33 3,-80 5,-146 6,-226 19,-678 29,-918 10,-240 16,-269 27,-292 10,-24 24,-42 46,-51 23,-9 52,-9 77,-1 25,9 45,26 56,54 11,29 13,69 15,312 2,242 3,686 4,908l1 139c39,-58 136,-99 250,-99 109,0 202,38 245,93l7 -214 39 -1226 3 -100c4,2 9,3 15,3 7,0 17,-3 25,-8 8,-5 14,-11 20,-19 5,-8 9,-16 12,-33 2,-16 4,-41 5,-116 0,-76 0,-202 -1,-270 -1,-68 -2,-76 -5,-84 -2,-8 -6,-15 -12,-20 -5,-4 -13,-7 -21,-9 -8,-2 -17,-4 -24,-4 -7,1 -12,3 -17,7 -1,0 -2,1 -3,2l-1 1c-5,6 -9,15 -11,24 -2,9 -3,18 -3,22 0,5 0,5 -7,7 -7,1 -22,5 -62,11 -40,5 -106,11 -140,15 -20,3 -29,5 -33,8 -27,2 -58,5 -91,6 -35,0 -73,-2 -105,-3 -33,0 -59,1 -106,0 -46,-1 -112,-3 -158,-5 -45,-2 -71,-3 -107,-6 -37,-4 -84,-8 -139,-15 -54,-8 -115,-18 -152,-24 -24,-4 -38,-6 -50,-8zm1157 488l0 0 0 21 0 -21z"/>
   <path class="fil39" d="M24968 17440c11,9 20,18 28,28l7 -214 39 -1226 3 -100c4,2 9,3 15,3 7,0 17,-3 25,-8 4,-2 7,-5 10,-8 0,-33 -1,-64 -3,-91 -9,-187 -38,-228 -54,-234 -16,-7 -19,21 -29,350 -10,329 -27,959 -35,1274 -3,108 -5,179 -6,226zm63 -1542l0 0 0 21 0 -21z"/>
   <path class="fil39" d="M24221 17448c8,7 15,14 20,21 1,-33 3,-80 5,-146 6,-226 19,-678 29,-918 10,-240 16,-269 27,-292 10,-24 24,-42 46,-51 23,-9 52,-9 77,-1 25,9 45,26 56,54 11,29 13,69 15,312 2,242 3,686 4,908l1 139c6,-9 13,-17 22,-26l1 -137c2,-210 4,-630 4,-863 0,-234 -2,-281 -9,-317 -7,-37 -19,-63 -36,-82 -17,-20 -41,-33 -67,-39 -26,-6 -55,-5 -78,4 -24,10 -43,28 -57,56 -13,28 -21,65 -27,133 -5,68 -9,166 -12,318 -4,151 -7,357 -11,527 -3,170 -7,303 -9,378l-1 22z"/>
   <path class="fil39" d="M23717 15708c2,3 4,5 6,8 4,5 9,9 15,13 0,58 0,132 0,227 2,346 8,969 10,1281l2 230c6,-7 13,-14 20,-21l-1 -255c-2,-297 -6,-891 -8,-1198 -3,-307 -5,-328 -18,-324 -6,2 -15,10 -26,39z"/>
   <path class="fil34" d="M23881 15644c-3,8 -4,20 -6,34 -3,15 -9,32 -16,44 -7,13 -16,20 -26,25 -9,5 -20,7 -32,6 -12,0 -25,-2 -38,-5 -12,-2 -23,-5 -34,-10 -10,-6 -20,-13 -28,-53 -9,-39 -17,-111 -18,-170 -1,-59 4,-104 7,-127 3,-24 5,-25 36,-27 31,-1 92,-2 125,-1 32,0 35,3 36,17 0,13 -2,39 -4,52 -1,13 -1,13 19,13 20,1 61,3 86,6 26,3 37,8 43,16 6,8 8,20 10,44 1,23 2,59 1,80 -1,22 -4,30 -8,36 -3,6 -9,10 -32,11 -24,0 -65,-3 -89,-3 -24,1 -29,4 -32,12z"/>
   <path class="fil34" d="M24777 15474c0,-12 3,-14 37,-18 34,-4 100,-10 140,-16 40,-5 54,-9 61,-11 8,-2 8,-2 8,-6 0,-4 0,-13 3,-22 2,-9 6,-18 11,-24 6,-6 13,-9 20,-10 8,0 17,1 25,3 8,3 15,5 21,10 6,5 9,12 12,19 3,8 4,17 5,85 1,67 1,194 0,270 0,75 -2,99 -5,116 -3,16 -6,25 -12,33 -5,7 -11,14 -19,19 -8,4 -18,7 -26,8 -8,0 -14,-3 -19,-6 -5,-3 -9,-7 -10,-48 -2,-42 -2,-120 -1,-159 0,-40 0,-40 -9,-39 -9,0 -26,1 -50,0 -24,-1 -54,-4 -78,-8 -25,-3 -43,-7 -58,-12 -15,-4 -27,-9 -35,-16 -9,-6 -15,-14 -18,-33 -3,-19 -3,-48 -3,-74 -1,-26 -1,-49 0,-61z"/>
   <path class="fil42" d="M25097 15376c2,1 4,3 6,4 6,5 9,12 12,19 3,8 4,17 5,85 1,67 1,194 0,270 0,75 -2,99 -5,116 -3,16 -6,25 -12,33 -3,5 -7,10 -12,13 0,-14 0,-34 0,-61 1,-98 1,-293 4,-397 0,-38 1,-64 2,-82z"/>
   <path class="fil34" d="M24241 15640l0 -173c-1,0 -1,0 -2,0l-106 0c-16,0 -30,13 -30,30l0 113c0,17 14,30 30,30l106 0 2 0z"/>
   <path class="fil34" d="M24565 15465l0 175c1,0 2,0 2,0l106 0c17,0 30,-14 30,-32l0 -121c0,-40 -82,-22 -115,-22 -8,0 -15,0 -23,0z"/>
   <rect class="fil43" x="24241" y="15450" width="324" height="211"/>
   <rect class="fil34" x="24294" y="15497" width="224" height="115"/>
   <path class="fil44" d="M24819 17402c17,4 34,8 51,15 18,8 36,18 52,28 16,10 28,21 37,31 9,10 14,18 18,28 4,9 7,19 8,24 1,5 1,5 -19,5 -20,0 -60,0 -80,0 -19,0 -19,0 -19,0 0,0 0,0 -1,-6 0,-7 0,-20 -3,-35 -3,-15 -7,-33 -15,-46 -7,-13 -17,-21 -26,-29 -9,-8 -18,-14 -27,-18 -9,-5 -20,-7 -25,-8 -5,-1 -5,-1 4,1 9,2 27,6 45,10z"/>
   <path class="fil44" d="M24061 17402c17,4 34,8 51,15 18,8 37,18 52,28 16,10 28,21 37,31 9,10 14,18 18,28 4,9 7,19 8,24 2,5 2,5 -18,5 -20,0 -60,0 -80,0 -20,0 -20,0 -20,0 0,0 0,0 -1,-6 0,-7 0,-20 -3,-35 -2,-15 -7,-33 -15,-46 -7,-13 -17,-21 -26,-29 -9,-8 -17,-14 -27,-18 -9,-5 -19,-7 -25,-8 -5,-1 -5,-1 4,1 9,2 28,6 45,10z"/>
   <path class="fil2 str8" d="M25442 14172l515 0m-515 245l515 0m-515 -31l515 0m-515 -30l515 0m-515 -31l515 0m-515 -30l515 0m-515 -31l515 0m-515 -30l515 0m-515 -31l515 0"/>
  </g>
  <g id="_2714869856736">
   <path class="fil45" d="M37916 16930c-22,43 -54,111 -80,155 -27,43 -48,62 -94,73 -46,12 -117,18 -1024,16 -906,-1 -2648,-9 -3526,-14 -879,-4 -893,-6 -904,-23 -10,-18 -17,-52 -27,-111 -11,-59 -25,-142 -31,-184 -6,-42 -4,-44 -310,-44 -307,0 -923,2 -1256,18 -334,17 -385,48 -410,90 -25,41 -24,93 -26,138 -2,45 -7,83 -20,105 -12,21 -32,27 -116,11 -84,-15 -231,-50 -327,-75 -97,-24 -142,-37 -178,-45 -37,-8 -66,-11 -91,-17 -24,-7 -44,-17 -58,-37 -14,-20 -22,-49 -16,-124 5,-74 23,-194 35,-288 11,-95 15,-163 23,-271 9,-107 22,-253 33,-348 12,-95 21,-139 33,-174 13,-35 29,-61 74,-103 46,-43 121,-101 224,-157 104,-57 236,-112 385,-163 149,-51 315,-97 470,-135 155,-37 298,-66 490,-95 192,-28 432,-56 745,-89 313,-33 700,-71 893,-90 193,-19 193,-19 193,-19 0,0 0,0 42,-35 43,-35 127,-105 264,-202 137,-97 327,-221 503,-323 175,-103 336,-185 472,-244 137,-60 249,-97 388,-133 139,-36 305,-72 495,-98 190,-26 404,-44 623,-55 220,-11 445,-16 653,-10 209,6 400,23 575,42 176,20 335,43 531,83 196,40 428,98 544,127 116,29 116,29 121,34 4,4 14,14 24,24 11,9 22,20 254,106 231,87 682,249 928,335 246,85 287,95 340,100 53,5 117,6 174,14 58,8 108,23 220,40 112,17 286,37 442,48 155,11 292,14 370,19 77,5 94,13 106,28 12,16 18,38 21,92 3,54 1,140 1,250 0,110 2,245 2,312 1,67 1,67 1,67 0,0 0,0 15,9 15,10 45,28 76,56 31,29 63,67 86,114 23,48 38,105 34,285 -3,180 -24,483 -38,638 -14,155 -20,161 -53,169 -32,8 -90,17 -338,19 -248,1 -685,-6 -1157,-5 -473,1 -979,9 -1280,13 -302,4 -398,4 -452,12 -55,9 -68,26 -91,69z"/>
   <polygon class="fil46" points="32967,16642 32959,16911 36005,16855 36084,16594 "/>
   <path class="fil47" d="M30266 16890c-5,5 -9,10 -12,16 -25,41 -24,93 -26,138 -2,45 -7,83 -20,105 -12,21 -32,27 -116,11 -84,-15 -231,-50 -327,-75 -97,-24 -142,-37 -178,-45 -37,-8 -66,-11 -91,-17 -24,-7 -44,-17 -58,-37 -14,-20 -22,-49 -16,-124 2,-35 8,-81 14,-129 67,1 141,6 220,11 170,11 361,26 466,32 106,6 125,3 136,50 4,17 6,39 8,64z"/>
   <path class="fil47" d="M41113 15413l0 71c1,67 1,67 1,67 0,0 0,0 15,9 15,10 45,28 76,56 31,29 63,67 86,114 23,48 38,105 34,285 -3,180 -24,483 -38,638 -14,155 -20,161 -53,169 -32,8 -90,17 -338,19 -226,1 -610,-4 -1034,-5 0,-17 1,-36 1,-57 2,-66 4,-149 -17,-243 -20,-93 -62,-197 -107,-286 -45,-88 -93,-161 -145,-225 -53,-65 -111,-122 -140,-150 -29,-28 -29,-28 69,-41 98,-12 295,-37 462,-69 166,-32 304,-70 398,-107 94,-37 146,-72 181,-109 35,-36 53,-73 62,-106 8,-34 7,-64 22,-78 15,-14 47,-11 138,-2 85,10 222,25 327,50z"/>
   <path class="fil8" d="M41317 16231c-2,37 -4,76 -7,113 -25,4 -51,5 -75,6 -45,2 -83,3 -114,-3 -31,-6 -55,-19 -70,-38 -16,-18 -24,-42 -28,-54 -4,-12 -4,-12 61,-14 56,-2 158,-6 233,-10z"/>
   <path class="fil48" d="M37916 16930c-22,43 -54,111 -80,155 -27,43 -48,62 -94,73 -46,12 -117,18 -1024,16 -906,-1 -2648,-9 -3526,-14 -879,-4 -893,-6 -904,-23 -10,-18 -17,-52 -27,-111l-1 -2 0 -1 0 -1 0 -1 0 -1 -1 -1 0 -1 0 -1 0 -2 0 0 -1 -1 0 -2 0 0 0 -2 0 -1 -1 -1 0 -2 0 0 0 -2 0 -1 0 0 -1 -2 0 -1 0 -1 0 -2 -1 0 0 -2 0 -1 0 -1 -1 -2 0 0 0 -2 0 -1 0 -1 -1 -1 0 -1 0 -1 0 -2 0 -1 -1 -1 0 -2 0 0 0 -2 0 -1 -1 -1 0 -2 0 0 0 -2 0 -1 -1 -1 0 -2 0 0 0 -2 -1 -1 0 -1 0 -2 0 -1 0 -1 -1 -2 0 0 0 -2 0 -1 0 -1 -1 -2 0 0 0 -2 0 -1 0 -1 -1 -2 0 0 0 -2 0 -2 0 0 -1 -2 0 -1 0 -1 0 -2 0 0 -1 -2 0 -1 0 -1 0 -2 -1 0 0 -1 0 -2 0 0 0 -2 -1 -1 0 -1 0 -2 0 -1 0 -1 -1 -2 0 0 0 -2 0 -1 0 -1 -1 -2 0 0 0 -2 0 -1 0 -1 -1 -1c89,-7 315,-13 890,-28 947,-26 2840,-76 3793,-86 954,-9 967,21 980,68 5,21 10,44 16,69l-1 1 -1 2z"/>
   <path class="fil49" d="M37821 17106c-20,29 -41,43 -79,52 -46,12 -117,18 -1024,16 -906,-1 -2648,-9 -3526,-14 -879,-4 -893,-6 -904,-23 -9,-17 -16,-47 -25,-97 79,-5 248,-6 619,-10 683,-7 2049,-20 2954,-32 904,-12 1347,-22 1603,-8 256,15 325,54 365,97 7,6 12,13 17,19z"/>
   <path class="fil45 str6" d="M30277 16880c-15,11 -25,26 -37,50 -7,13 -14,28 -22,43 -13,-48 -22,-97 -28,-147 -4,-39 -6,-78 -6,-118 0,-13 0,-27 1,-41 2,-43 5,-74 9,-103 7,-48 19,-90 32,-125 13,-36 28,-66 34,-51 5,15 1,74 4,156 3,81 12,185 13,278 0,20 0,39 0,58z"/>
   <path class="fil50" d="M29462 17009c-9,-6 -17,-14 -24,-23 -14,-20 -22,-49 -16,-124 5,-74 23,-194 35,-288l0 -2c20,-17 37,-29 56,-40 41,-26 90,-53 127,-66 37,-14 62,-16 86,-12 23,3 46,11 64,30 17,19 31,50 36,84 6,35 5,75 -2,111 -6,35 -18,67 -41,106 -23,39 -57,85 -90,118 -33,34 -65,55 -95,72 -29,15 -56,27 -136,34z"/>
   <path class="fil51" d="M29670 15635c44,-35 103,-75 174,-114 104,-57 236,-112 385,-163 149,-51 315,-97 470,-135 155,-37 298,-66 490,-95 192,-28 432,-56 745,-89 313,-33 700,-71 893,-90 193,-19 193,-19 193,-19 0,0 0,0 42,-35 43,-35 127,-105 264,-202 137,-97 327,-221 503,-323 175,-103 336,-185 472,-244 137,-60 249,-97 388,-133 139,-36 305,-72 495,-98 190,-26 404,-44 623,-55 220,-11 445,-16 653,-10 209,6 400,23 575,42 176,20 335,43 531,83 196,40 428,98 544,127 116,29 116,29 121,34 4,4 14,14 24,24 11,9 22,20 254,106 231,87 682,249 928,335 246,85 287,95 340,100 53,5 117,6 174,14 58,8 108,23 220,40 112,17 286,37 442,48 155,11 292,14 370,19 77,5 94,13 106,28 12,16 18,38 21,92 3,54 1,140 1,250 0,39 0,81 1,122 -119,-28 -245,-58 -360,-80 -177,-35 -330,-51 -936,-37 -607,13 -1667,55 -3547,142 -1881,87 -4581,219 -5932,285 -275,13 -494,24 -667,31z"/>
   <path class="fil52" d="M33045 14910l17 -15c43,-35 127,-105 264,-202 137,-97 327,-221 503,-323 175,-103 336,-185 472,-244 85,-37 160,-65 238,-90 13,8 20,18 21,32 0,16 -8,35 -59,72 -51,36 -145,90 -276,161 -132,71 -300,159 -457,249 -156,89 -301,180 -398,241 -97,60 -147,90 -188,105 -41,16 -72,18 -110,16 -9,-1 -18,-1 -27,-2z"/>
   <path class="fil53" d="M29721 15934c-15,24 -33,46 -51,69 -19,23 -38,46 -54,61 -16,16 -29,24 -40,26 -12,3 -21,0 -27,-9 -6,-10 -10,-27 -7,-65 2,-38 10,-97 16,-136 7,-38 12,-57 20,-71 9,-15 20,-26 36,-34 16,-8 37,-12 57,-13 21,-1 40,1 54,5 13,4 22,9 27,25 5,16 7,42 2,68 -5,25 -18,50 -33,74z"/>
   <path class="fil54" d="M39038 15236c-701,41 -1825,107 -3178,165 -1352,58 -2935,108 -3726,133 -791,25 -791,25 -791,25 0,0 0,0 374,-21 375,-21 1124,-63 2030,-117 906,-54 1968,-120 2876,-168 907,-47 1658,-76 2245,-88 587,-12 1009,-7 1220,-4 211,2 211,2 211,2 0,0 0,0 -140,8 -140,8 -419,24 -1121,65z"/>
   <path class="fil55" d="M30012 15976c113,-77 287,-203 374,-267 87,-63 87,-63 87,-63 0,0 0,0 -35,-2 -34,-2 -103,-6 -178,-3 -76,2 -159,12 -238,29 -78,18 -152,45 -207,69 -54,24 -90,47 -115,71 -25,25 -40,51 -49,87 -9,37 -13,83 -11,118 2,35 10,58 37,72 27,14 73,18 122,6 49,-12 100,-39 213,-117z"/>
   <path class="fil50" d="M37672 14904c-367,14 -796,30 -1260,50 -465,20 -966,43 -1519,70 -552,27 -1156,58 -1453,66 -297,9 -286,-4 -235,-41 50,-36 141,-95 187,-125 45,-30 45,-30 48,-39 3,-9 8,-27 21,-49 13,-21 34,-44 61,-64 26,-20 58,-36 86,-46 27,-11 51,-16 75,-21 25,-4 50,-8 62,-10 13,-2 13,-2 13,-2 0,0 0,0 69,-45 69,-45 208,-135 342,-214 133,-80 263,-150 376,-205 113,-56 211,-97 309,-130 99,-34 197,-60 317,-78 119,-18 259,-27 404,-33 145,-6 295,-9 457,-7 161,2 334,9 469,16 135,6 233,13 367,29 135,17 306,43 463,71 156,27 297,56 455,97 158,40 334,91 485,140 152,49 280,95 375,133 95,38 157,69 200,97 43,27 66,52 78,77 12,24 12,48 4,74 -8,27 -24,56 -44,79 -20,23 -46,40 -86,50 -40,11 -95,15 -275,23 -180,9 -485,22 -851,37z"/>
   <path class="fil56 str6" d="M36853 14384c-33,123 -81,297 -105,384 -23,87 -23,87 -23,87 0,0 0,0 290,-9 291,-8 873,-25 1195,-41 321,-16 383,-31 421,-48 37,-17 51,-37 48,-62 -3,-26 -21,-58 -80,-95 -59,-38 -157,-81 -299,-134 -141,-53 -324,-115 -561,-175 -236,-60 -526,-118 -671,-147 -145,-29 -145,-29 -145,-29 0,0 0,0 -10,36 -9,37 -27,109 -60,233z"/>
   <path class="fil56 str6" d="M36706 14311c-35,127 -93,336 -122,440 -29,104 -29,104 -29,104 0,0 0,0 0,0 0,0 0,0 -179,10 -179,10 -536,29 -983,54 -447,24 -984,53 -1252,68 -268,14 -268,14 -268,14 0,0 0,0 4,-31 5,-32 14,-95 15,-140 2,-45 -5,-71 -19,-88 -14,-16 -35,-23 -45,-26 -11,-3 -11,-3 -11,-3 0,0 0,0 54,-34 53,-34 160,-101 272,-166 112,-64 229,-126 344,-182 115,-56 227,-106 341,-145 114,-38 230,-64 361,-85 130,-20 275,-35 443,-43 168,-7 360,-9 552,-2 193,6 386,21 483,28 97,7 97,7 97,7 0,0 0,0 -6,24 -6,23 -17,69 -52,196z"/>
   <path class="fil52" d="M39553 14575c230,83 241,91 245,97 2,4 2,7 1,11 -8,-1 -15,-1 -22,-2 -53,-5 -94,-15 -340,-100 -246,-86 -697,-248 -928,-335 -232,-86 -243,-97 -254,-106 -2,-3 -5,-5 -7,-7 11,0 25,2 51,8 31,6 78,19 326,105 248,86 698,246 928,329z"/>
   <path class="fil8" d="M41111 15130l0 42c0,110 2,245 2,312 1,67 1,67 1,67l1 1c-21,9 -47,11 -75,12 -57,2 -124,0 -192,-14 -68,-13 -136,-40 -210,-90 -73,-50 -151,-124 -193,-172 -43,-48 -51,-70 -45,-93 7,-22 28,-45 70,-68 41,-24 103,-49 167,-65 64,-16 130,-23 189,-23 60,0 112,7 154,18 41,12 72,27 100,46 11,7 21,15 31,27z"/>
   <path class="fil50" d="M38895 15674c571,0 1034,463 1034,1034 0,43 -3,86 -8,128 -42,0 -85,0 -127,0 5,-42 9,-85 9,-128 0,-501 -407,-908 -908,-908 -467,0 -852,352 -902,806 17,57 31,144 33,192 3,56 -11,59 -24,62l-2 1 0 1c-7,2 -13,3 -19,5 -5,1 -9,3 -13,5 -10,5 -18,11 -26,20 -7,8 -15,20 -25,39 -10,19 -24,47 -40,78 -17,31 -37,66 -47,83 -10,18 -10,18 -10,18 0,0 0,0 3,-38 3,-38 9,-113 16,-186 7,-73 13,-144 18,-191 2,-16 3,-30 5,-41 28,-546 479,-980 1033,-980z"/>
   <g>
    <path class="fil57 str6" d="M38895 15800c-502,0 -908,407 -908,908 0,501 406,908 908,908 501,0 908,-407 908,-908 0,-501 -407,-908 -908,-908zm603 1020c-61,7 -176,10 -357,15 -180,5 -427,13 -588,17 -161,4 -236,4 -273,4 -38,0 -38,0 -38,0 0,0 0,0 5,11 4,12 13,34 32,74 18,39 46,96 78,143 33,46 70,83 114,118 44,34 95,66 140,89 45,23 83,37 133,46 49,10 110,14 159,15 48,1 85,0 135,-11 51,-10 114,-30 173,-59 58,-29 112,-67 162,-125 49,-57 94,-133 127,-198 33,-65 54,-117 61,-138 6,-20 -2,-8 -63,-1z"/>
    <circle class="fil58" cx="38886" cy="16699" r="475"/>
    <circle class="fil21 str6" cx="38895" cy="16708" r="107"/>
    <path class="fil59" d="M38895 16010c-386,0 -699,312 -699,698 0,386 313,698 699,698 385,0 698,-312 698,-698 0,-386 -313,-698 -698,-698zm0 492c-14,0 -27,2 -39,4l-16 -427c18,-1 36,-2 55,-2 14,0 27,1 41,2l-3 427c-13,-2 -25,-4 -38,-4zm-69 12c-46,16 -84,48 -108,89l-366 -216c84,-142 222,-249 387,-290l87 417zm-122 117c-8,21 -13,43 -15,66l-416 -94c7,-47 20,-92 38,-134l393 162zm-13 104c5,43 24,82 52,112l-312 289c-104,-112 -167,-263 -167,-428 0,-9 0,-18 0,-27l427 54zm75 134c17,13 36,24 57,32l-228 362c-35,-18 -68,-40 -98,-65l269 -329zm85 40c14,3 29,5 44,5 23,0 45,-4 66,-11l190 382c-78,35 -165,54 -256,54 -83,0 -162,-16 -235,-45l191 -385zm136 -17c19,-9 36,-22 51,-36l281 319c-31,29 -66,54 -104,77l-228 -360zm74 -63c24,-32 38,-72 39,-115l424 -45c1,13 2,26 2,39 0,162 -62,310 -162,422l-303 -301zm38 -148c-4,-24 -11,-48 -22,-69l405 -136c13,34 24,69 31,106l-414 99zm-40 -96c-23,-32 -56,-56 -93,-70l64 -423c174,38 322,148 409,298l-380 195z"/>
    <circle class="fil60" cx="38892" cy="16705" r="107"/>
   </g>
   <path class="fil50" d="M31218 15674c572,0 1035,463 1035,1034 0,34 -2,67 -5,100l-2 27c-1,25 -2,50 -3,63 -1,12 -1,12 -1,12l-2 -1 -1 6c0,0 0,0 -30,-3 -30,-3 -91,-8 -173,-15 -81,-7 -184,-17 -288,-23 -105,-6 -210,-8 -354,-3 -145,5 -328,19 -469,40 -141,22 -240,52 -323,79 -82,26 -148,49 -209,74 -60,25 -116,52 -148,71 -20,11 -31,19 -38,22 -6,5 -10,8 -14,9 -5,3 -8,4 -10,1 -2,1 -4,1 -6,1 0,-9 0,-21 0,-36 1,-81 2,-245 4,-354 1,-45 2,-81 4,-111 21,-552 476,-993 1033,-993zm898 897c-66,-436 -443,-770 -898,-770 -487,0 -885,384 -907,867 46,-61 125,-104 320,-129 211,-28 558,-36 836,-29 279,8 490,30 608,53 15,2 29,5 41,8z"/>
   <g>
    <path class="fil57" d="M31218 15792c-501,0 -907,406 -907,908 0,501 406,907 907,907 502,0 908,-406 908,-907 0,-502 -406,-908 -908,-908zm604 1019c-62,8 -176,10 -357,16 -181,5 -427,13 -588,17 -161,4 -236,4 -274,4 -37,0 -37,0 -37,0 0,0 0,0 4,11 5,11 14,33 33,73 18,40 46,96 78,143 32,47 69,84 114,118 44,34 95,66 140,89 45,23 83,38 132,47 50,9 111,13 159,14 49,2 86,0 136,-10 50,-11 114,-30 172,-59 59,-29 113,-68 162,-125 50,-57 95,-134 128,-199 33,-64 54,-117 60,-137 7,-21 -1,-9 -62,-2z"/>
    <circle class="fil58" cx="31209" cy="16690" r="475"/>
    <circle class="fil21" cx="31218" cy="16700" r="107"/>
    <path class="fil59" d="M31218 16001c-385,0 -698,313 -698,699 0,385 313,698 698,698 386,0 699,-313 699,-698 0,-386 -313,-699 -699,-699zm0 493c-13,0 -26,1 -39,4l-15 -427c18,-2 36,-2 54,-2 14,0 28,0 42,1l-4 427c-12,-2 -25,-3 -38,-3zm-68 12c-46,16 -84,48 -108,88l-367 -216c85,-142 223,-248 387,-290l88 418zm-123 117c-8,20 -13,42 -14,65l-417 -94c8,-46 21,-91 38,-133l393 162zm-13 103c6,44 25,82 53,113l-312 289c-104,-113 -168,-263 -168,-428 0,-10 1,-19 1,-28l426 54zm76 134c17,14 36,25 56,32l-227 363c-35,-19 -68,-41 -98,-66l269 -329zm84 40c15,4 29,5 44,5 24,0 46,-4 67,-11l190 382c-78,35 -165,54 -257,54 -83,0 -162,-16 -234,-45l190 -385zm136 -16c19,-10 37,-22 52,-37l281 319c-32,29 -67,55 -104,77l-229 -359zm75 -64c23,-32 38,-72 39,-114l424 -45c1,13 1,25 1,39 0,162 -61,310 -161,421l-303 -301zm37 -147c-3,-25 -10,-48 -21,-69l404 -136c14,33 24,69 32,105l-415 100zm-39 -97c-23,-31 -56,-56 -93,-69l64 -424c174,38 321,148 409,298l-380 195z"/>
    <circle class="fil60" cx="31215" cy="16696" r="107"/>
   </g>
   <path class="fil49" d="M35875 15238c8,20 13,42 15,69 1,27 -2,59 -16,83 -15,25 -41,42 -85,52 -44,10 -106,12 -159,0 -53,-12 -96,-38 -123,-63 -26,-25 -35,-49 -31,-69 3,-21 21,-38 69,-59 49,-21 130,-46 185,-58 55,-12 86,-10 106,-1 21,9 31,26 39,46z"/>
   <path class="fil61" d="M35925 15350c-111,13 -328,19 -444,17 -115,-1 -128,-9 -133,-20 -6,-10 -3,-23 6,-35 9,-11 25,-20 127,-32 103,-13 291,-29 397,-34 105,-5 128,0 141,10 13,10 17,24 18,42 0,18 -2,39 -112,52z"/>
  </g>
  <rect class="fil62" x="3889" y="13758" width="156" height="3851"/>
  <rect class="fil62" x="8139" y="13774" width="156" height="3835"/>
  <polygon class="fil63" points="48792,19559 2,19559 2,17704 48792,17704 "/>
  <path class="fil61" style="mask:url(#id0)" d="M30385 15712c-109,75 -279,207 -401,285 -122,78 -196,102 -415,208 -220,105 -586,293 -1084,480 -498,188 -1128,375 -1628,488 -500,113 -870,151 -1055,170 -185,20 -185,20 -185,20 0,0 0,0 0,0 0,0 0,0 0,-434 0,-435 0,-1303 0,-1737 0,-434 0,-434 0,-434 0,0 0,0 829,141 828,141 2486,422 3291,571 805,150 757,167 648,242z"/>
  <g id="_2714869868992">
   <g>
    <path class="fil64" d="M3380 10511l5294 0c167,0 303,136 303,303l0 3681c0,167 -136,303 -303,303l-5294 0c-167,0 -303,-136 -303,-303l0 -3681c0,-167 136,-303 303,-303z"/>
   </g>
   <rect class="fil65" x="3159" y="10594" width="5735" height="4122" rx="220" ry="220"/>
   <polygon class="fil66" points="8895,11693 8895,13710 3159,13710 3159,11693 "/>
   <path class="fil67" d="M4401 10988c-6,0 -12,2 -18,4 -6,2 -11,4 -17,7 -9,5 -15,10 -18,16 -4,6 -7,13 -10,21 -11,29 -26,74 -48,137 -21,63 -44,128 -67,195l-56 0 -105 -296 -95 296 -57 0c-31,-91 -55,-161 -71,-210 -17,-49 -31,-90 -42,-124 -4,-10 -8,-17 -12,-22 -5,-4 -11,-9 -18,-14 -5,-3 -10,-5 -16,-7 -6,-2 -12,-3 -20,-4l0 -22 213 0 0 22c-13,1 -22,3 -28,4 -6,1 -11,3 -15,4 -3,2 -5,3 -6,5 -1,2 -1,3 -1,5 0,2 0,5 1,7 0,3 1,6 2,9 4,14 13,42 27,83 14,40 30,91 50,151l91 -290 59 0 105 300c16,-48 28,-88 38,-118 9,-31 17,-57 23,-79 4,-13 7,-24 9,-33 2,-9 3,-17 3,-23 0,-4 -1,-8 -5,-10 -4,-3 -9,-6 -15,-8 -5,-1 -12,-3 -20,-4 -8,-1 -16,-2 -22,-2l0 -23 161 0 0 23z"/>
   <path id="1" class="fil67" d="M4762 11067l-22 0c-5,-15 -14,-30 -28,-46 -13,-16 -26,-25 -39,-28 -6,-1 -14,-2 -24,-2 -10,0 -18,0 -24,0l-58 0 0 154 41 0c10,0 20,-2 28,-4 8,-2 16,-7 23,-14 4,-4 9,-12 13,-23 4,-11 7,-20 9,-28l21 0 0 166 -21 0c-2,-8 -4,-18 -9,-30 -5,-12 -9,-20 -13,-24 -6,-7 -14,-12 -22,-14 -8,-3 -18,-4 -29,-4l-41 0 0 115c0,12 1,21 3,28 1,7 5,13 9,17 5,3 12,5 20,7 8,1 19,1 33,1 7,0 14,0 24,0 9,0 17,-1 24,-2 8,-1 15,-2 22,-4 7,-2 12,-5 15,-8 9,-9 19,-23 30,-42 12,-19 19,-33 23,-43l20 0 -7 125 -374 0 0 -22c5,-1 12,-1 21,-3 9,-1 16,-2 19,-4 8,-3 12,-6 15,-11 2,-4 3,-10 3,-17l0 -281c0,-7 -1,-13 -3,-17 -2,-4 -7,-8 -15,-12 -4,-2 -11,-4 -20,-6 -9,-2 -16,-3 -20,-4l0 -22 353 0 0 102z"/>
   <path id="2" class="fil67" d="M5198 11236l-8 128 -367 0 0 -22c7,-1 14,-2 23,-3 9,-1 15,-2 18,-4 6,-2 11,-6 14,-10 2,-5 4,-11 4,-18l0 -281c0,-7 -1,-13 -3,-17 -2,-4 -7,-8 -15,-12 -6,-3 -13,-5 -21,-6 -8,-2 -15,-3 -20,-4l0 -22 218 0 0 22c-5,1 -13,2 -21,3 -8,1 -15,2 -21,4 -7,2 -12,6 -14,11 -3,6 -4,11 -4,18l0 262c0,12 1,22 3,29 1,7 5,12 9,16 5,3 12,6 21,7 9,1 21,1 36,1 15,0 30,-1 44,-2 14,-2 24,-6 30,-12 10,-10 20,-23 30,-40 10,-18 18,-34 24,-48l20 0z"/>
   <path id="3" class="fil67" d="M5426 11374c-29,0 -56,-4 -82,-14 -25,-9 -47,-23 -66,-41 -19,-18 -33,-39 -44,-65 -11,-26 -16,-55 -16,-86 0,-31 5,-59 16,-86 11,-26 26,-49 46,-68 19,-19 42,-34 68,-44 27,-10 56,-16 86,-16 22,0 43,3 61,9 18,5 33,11 46,18l17 -16 24 0 3 146 -25 0c-14,-45 -31,-77 -51,-98 -19,-21 -43,-32 -71,-32 -35,0 -62,16 -80,47 -19,31 -28,75 -28,131 0,31 3,59 10,81 6,22 14,40 24,54 11,14 24,25 38,31 15,7 31,10 49,10 27,0 50,-7 70,-21 21,-14 39,-36 56,-65l24 15c-8,16 -17,31 -27,44 -10,13 -22,24 -36,34 -15,10 -31,18 -49,24 -18,6 -39,8 -63,8z"/>
   <path id="4" class="fil67" d="M5996 11010c20,18 35,39 47,65 11,25 17,54 17,87 0,29 -5,56 -15,83 -9,26 -23,48 -42,67 -19,20 -42,35 -68,46 -26,11 -56,16 -92,16 -29,0 -57,-4 -83,-14 -25,-9 -48,-23 -68,-41 -19,-18 -34,-40 -46,-65 -11,-26 -17,-54 -17,-85 0,-33 6,-62 17,-89 11,-26 26,-49 46,-68 19,-18 42,-33 68,-42 27,-11 55,-16 85,-16 29,0 57,5 83,15 26,10 49,23 68,41zm-72 285c8,-17 14,-37 18,-58 4,-22 6,-46 6,-73 0,-23 -2,-46 -5,-68 -3,-21 -9,-41 -17,-58 -8,-17 -18,-31 -32,-41 -13,-10 -30,-16 -49,-16 -34,0 -60,17 -78,49 -17,32 -26,77 -26,136 0,25 2,48 6,71 4,22 10,41 18,58 8,16 19,29 32,39 13,9 29,13 48,13 18,0 34,-4 47,-14 14,-9 24,-22 32,-38z"/>
   <path id="5" class="fil67" d="M6646 11364l-215 0 0 -22c6,-1 14,-2 23,-3 9,-1 16,-3 19,-4 7,-3 12,-7 15,-12 3,-5 4,-11 4,-18l0 -298 -136 350 -36 0c-1,-6 -5,-18 -12,-37 -7,-18 -12,-33 -16,-44l-101 -273 0 242c0,23 2,41 5,53 3,12 8,21 15,26 5,4 13,8 25,11 12,4 21,6 25,7l0 22 -171 0 0 -22c4,-1 12,-2 22,-4 11,-2 20,-6 26,-10 8,-6 13,-14 16,-27 2,-12 3,-30 3,-53l0 -197c0,-12 -1,-22 -4,-30 -3,-8 -8,-15 -14,-19 -7,-6 -15,-10 -23,-11 -7,-2 -15,-3 -23,-4l0 -22 184 0 97 262 83 -212c3,-8 6,-17 8,-28 3,-11 4,-18 4,-22l177 0 0 22c-6,1 -13,1 -19,2 -7,2 -13,3 -19,5 -7,2 -12,6 -14,12 -3,5 -4,11 -4,17l0 282c0,7 1,12 4,17 2,4 7,8 14,12 4,2 10,3 19,5 8,1 15,2 19,3l0 22z"/>
   <path id="6" class="fil67" d="M7040 11067l-22 0c-5,-15 -14,-30 -28,-46 -13,-16 -26,-25 -39,-28 -6,-1 -14,-2 -24,-2 -10,0 -18,0 -24,0l-58 0 0 154 41 0c10,0 20,-2 28,-4 8,-2 16,-7 23,-14 4,-4 9,-12 13,-23 4,-11 7,-20 9,-28l21 0 0 166 -21 0c-2,-8 -4,-18 -9,-30 -5,-12 -9,-20 -13,-24 -6,-7 -14,-12 -22,-14 -8,-3 -18,-4 -29,-4l-41 0 0 115c0,12 1,21 2,28 2,7 6,13 10,17 5,3 12,5 20,7 8,1 19,1 33,1 7,0 14,0 24,0 9,0 17,-1 24,-2 8,-1 15,-2 22,-4 7,-2 12,-5 15,-8 9,-9 19,-23 30,-42 12,-19 19,-33 23,-43l20 0 -7 125 -374 0 0 -22c5,-1 12,-1 21,-3 9,-1 16,-2 19,-4 8,-3 12,-6 15,-11 2,-4 3,-10 3,-17l0 -281c0,-7 -1,-13 -3,-17 -2,-4 -7,-8 -15,-12 -4,-2 -11,-4 -20,-6 -9,-2 -16,-3 -20,-4l0 -22 353 0 0 102z"/>
   <path class="fil67" d="M7846 11082l-22 0c-6,-17 -15,-35 -28,-54 -13,-20 -25,-30 -35,-32 -6,0 -14,-1 -22,-2 -9,0 -17,0 -23,0l-13 0 0 312c0,6 1,12 3,17 3,6 8,10 15,13 4,1 11,3 20,5 9,2 16,3 23,4l0 21 -222 0 0 -21c6,-1 13,-2 23,-3 10,-1 17,-2 20,-4 7,-3 12,-7 15,-12 2,-5 3,-11 3,-18l0 -314 -13 0c-6,0 -14,0 -22,0 -9,1 -17,2 -23,2 -10,2 -22,12 -35,32 -13,19 -22,37 -28,54l-22 0 0 -114 386 0 0 114z"/>
   <path id="1" class="fil67" d="M8237 11013c19,18 35,39 46,65 12,25 18,54 18,87 0,29 -5,56 -15,82 -10,27 -24,49 -42,68 -19,20 -42,35 -68,46 -26,11 -57,16 -93,16 -29,0 -56,-4 -82,-14 -25,-9 -48,-23 -68,-41 -19,-18 -35,-40 -46,-65 -11,-26 -17,-54 -17,-85 0,-33 5,-62 17,-89 11,-26 26,-49 45,-68 20,-18 43,-33 69,-43 26,-10 55,-15 84,-15 30,0 58,5 84,15 26,10 49,23 68,41zm-72 285c8,-17 14,-37 18,-58 4,-22 6,-46 6,-73 0,-23 -2,-46 -5,-68 -3,-22 -9,-41 -17,-58 -8,-17 -19,-31 -32,-41 -13,-10 -30,-16 -50,-16 -33,0 -59,17 -77,49 -17,32 -26,77 -26,136 0,25 2,48 6,71 3,22 10,41 18,58 8,16 19,29 32,38 13,10 29,14 47,14 19,0 35,-4 48,-14 13,-9 24,-22 32,-38z"/>
   <path class="fil67" d="M4015 14218c7,4 13,10 17,18 4,7 6,15 6,25 0,12 -2,21 -7,30 -5,8 -12,14 -21,19 -10,5 -21,8 -34,10 -12,2 -27,3 -44,3l-120 0 0 -12c4,-1 8,-1 13,-2 5,-1 9,-1 11,-2 4,-2 6,-4 8,-7 1,-2 2,-6 2,-10l0 -162c0,-4 0,-7 -2,-10 -1,-2 -4,-4 -8,-6 -4,-2 -8,-3 -12,-4 -4,-1 -8,-1 -12,-2l0 -13 125 0c31,0 54,5 68,13 14,9 21,22 21,39 0,7 -2,14 -5,20 -3,6 -7,11 -13,15 -6,4 -12,8 -19,11 -7,3 -15,5 -24,7l0 3c9,1 17,3 26,6 10,2 17,6 24,11zm-52 -70c0,-12 -3,-22 -11,-29 -7,-8 -18,-11 -32,-11 -2,0 -5,0 -8,0 -3,0 -6,1 -9,1l0 85 9 0c17,0 30,-4 39,-12 8,-9 12,-20 12,-34zm11 111c0,-16 -4,-28 -14,-37 -9,-8 -23,-13 -41,-13 -2,0 -5,0 -8,1 -3,0 -6,0 -8,0l0 84c1,4 4,8 10,10 5,3 11,5 18,5 13,0 23,-5 31,-13 8,-9 12,-21 12,-37z"/>
   <path id="1" class="fil67" d="M4329 14106c-3,1 -8,1 -14,3 -6,1 -11,3 -15,5 -4,3 -7,8 -9,15 -1,7 -2,17 -2,31l0 86c0,25 -9,45 -26,60 -17,16 -39,23 -67,23 -33,0 -59,-7 -76,-22 -18,-14 -27,-35 -27,-61l0 -118c0,-4 -1,-7 -3,-10 -1,-2 -4,-5 -8,-7 -3,-1 -6,-2 -10,-3 -4,-1 -8,-2 -10,-2l0 -13 120 0 0 13c-4,0 -7,1 -11,1 -3,1 -7,2 -11,3 -4,1 -6,3 -8,6 -1,3 -2,7 -2,11l0 115c0,23 5,40 15,50 10,10 25,16 44,16 19,0 34,-6 44,-18 11,-11 16,-28 16,-50l0 -78c0,-14 -1,-24 -2,-31 -2,-7 -5,-12 -9,-15 -3,-2 -8,-4 -15,-6 -7,-2 -12,-3 -14,-4l0 -13 100 0 0 13z"/>
   <path id="2" class="fil67" d="M4461 14329c-17,0 -33,-2 -48,-8 -14,-5 -27,-13 -38,-23 -11,-11 -19,-23 -25,-38 -6,-15 -10,-32 -10,-50 0,-17 4,-34 10,-49 6,-15 15,-28 26,-40 11,-11 24,-19 40,-25 15,-6 32,-9 49,-9 13,0 25,2 35,5 11,3 20,6 27,10l10 -9 14 0 1 84 -14 0c-8,-25 -18,-44 -29,-56 -12,-12 -25,-18 -42,-18 -20,0 -35,9 -46,26 -11,18 -16,44 -16,76 0,18 2,34 6,47 3,13 8,23 14,31 6,8 13,14 22,18 8,4 18,6 28,6 15,0 29,-4 40,-12 12,-9 23,-21 33,-38l14 9c-5,9 -10,18 -16,25 -6,8 -13,14 -21,20 -8,5 -18,10 -28,13 -10,4 -22,5 -36,5z"/>
   <path id="3" class="fil67" d="M4847 14323l-91 0c-14,-21 -26,-38 -37,-53 -11,-14 -25,-31 -42,-53l-9 0 0 72c0,4 1,8 2,10 2,3 5,5 9,7 2,1 5,2 8,3 4,0 8,1 12,2l0 12 -122 0 0 -12c3,-1 7,-1 12,-1 6,-1 9,-1 12,-2 3,-2 6,-4 8,-7 1,-2 2,-6 2,-10l0 -163c0,-4 -1,-7 -2,-9 -1,-3 -4,-5 -8,-7 -4,-2 -8,-3 -13,-4 -4,-1 -8,-2 -11,-2l0 -13 126 0 0 13c-3,0 -7,1 -12,1 -5,1 -9,2 -12,3 -4,1 -7,3 -9,7 -1,3 -2,6 -2,10l0 77 7 0c9,-8 18,-17 30,-28 11,-10 20,-19 26,-26 8,-10 15,-17 19,-23 4,-6 6,-11 6,-15 0,-2 -2,-3 -6,-4 -4,-1 -10,-2 -17,-2l0 -13 99 0 0 13c-12,1 -22,3 -30,7 -8,3 -17,8 -25,15 -11,10 -21,19 -28,27 -8,8 -18,17 -29,29 10,13 23,28 37,47 15,18 29,36 44,53 3,5 8,9 12,13 5,4 10,7 16,10 3,1 6,2 9,2 4,1 7,1 9,2l0 12z"/>
   <path id="4" class="fil67" d="M5064 14250l-4 73 -212 0 0 -12c4,-1 8,-1 13,-2 5,-1 9,-1 10,-2 4,-2 7,-4 8,-6 2,-3 3,-6 3,-11l0 -162c0,-4 -1,-7 -2,-9 -1,-3 -4,-5 -9,-7 -3,-2 -7,-3 -12,-4 -5,-1 -8,-2 -11,-2l0 -13 126 0 0 13c-3,0 -8,1 -12,1 -5,1 -9,2 -12,3 -5,1 -7,3 -9,6 -1,3 -2,7 -2,11l0 151c0,7 1,13 2,17 1,4 2,7 5,9 3,2 7,3 12,4 5,0 12,1 21,1 9,0 17,-1 25,-2 8,-1 14,-3 18,-7 5,-5 11,-13 17,-23 5,-10 10,-19 14,-27l11 0z"/>
   <path id="5" class="fil67" d="M5279 14152l-12 0c-4,-9 -9,-18 -17,-27 -7,-9 -15,-14 -22,-15 -4,-1 -8,-2 -14,-2 -6,0 -10,0 -14,0l-34 0 0 89 24 0c6,0 11,-1 16,-2 5,-2 10,-4 14,-8 2,-3 5,-7 7,-14 3,-6 4,-11 5,-16l13 0 0 96 -13 0c-1,-5 -2,-10 -5,-17 -2,-7 -5,-12 -7,-14 -4,-4 -8,-7 -13,-8 -5,-2 -10,-3 -17,-3l-24 0 0 67c0,7 1,12 2,16 1,4 3,7 6,10 2,2 6,3 11,4 5,0 11,1 19,1 4,0 8,0 14,-1 5,0 10,0 14,-1 4,0 8,-1 12,-2 4,-1 7,-3 9,-5 5,-5 11,-13 18,-24 6,-11 10,-19 13,-24l11 0 -4 71 -216 0 0 -12c3,-1 7,-1 13,-2 5,0 8,-1 11,-2 4,-2 7,-4 8,-7 1,-2 2,-6 2,-10l0 -162c0,-4 -1,-7 -2,-9 -1,-3 -4,-5 -8,-7 -3,-2 -7,-3 -12,-4 -5,-1 -9,-2 -12,-2l0 -13 204 0 0 59z"/>
   <path id="6" class="fil67" d="M5664 14106c-3,1 -8,1 -14,3 -6,1 -11,3 -15,5 -4,3 -7,8 -8,15 -2,7 -3,17 -3,31l0 86c0,25 -8,45 -26,60 -17,16 -39,23 -67,23 -33,0 -58,-7 -76,-22 -18,-14 -27,-35 -27,-61l0 -118c0,-4 -1,-7 -2,-10 -2,-2 -5,-5 -9,-7 -3,-1 -6,-2 -10,-3 -4,-1 -7,-2 -10,-2l0 -13 120 0 0 13c-4,0 -7,1 -11,1 -3,1 -7,2 -10,3 -5,1 -7,3 -9,6 -1,3 -2,7 -2,11l0 115c0,23 5,40 15,50 10,10 25,16 44,16 19,0 34,-6 44,-18 11,-11 17,-28 17,-50l0 -78c0,-14 -1,-24 -3,-31 -2,-7 -5,-12 -9,-15 -3,-2 -8,-4 -15,-6 -7,-2 -11,-3 -14,-4l0 -13 100 0 0 13z"/>
   <path id="7" class="fil67" d="M5891 14151c0,13 -3,24 -8,33 -6,10 -13,17 -23,23 -9,6 -20,11 -33,13 -12,3 -26,4 -42,4l-19 0 0 65c0,4 1,7 2,10 2,3 5,5 9,7 2,1 6,2 11,3 4,1 9,1 12,2l0 12 -125 0 0 -12c3,-1 7,-1 13,-2 5,0 8,-1 10,-2 5,-2 7,-4 9,-6 1,-3 2,-6 2,-11l0 -162c0,-4 -1,-7 -2,-10 -1,-2 -4,-5 -9,-7 -3,-1 -7,-2 -12,-3 -5,-1 -9,-2 -11,-2l0 -13 127 0c30,0 52,5 66,15 15,9 23,23 23,43zm-63 8c0,-17 -4,-30 -11,-38 -7,-9 -19,-13 -37,-13l-14 0 0 101 7 0c18,0 31,-4 41,-12 9,-8 14,-21 14,-38z"/>
   <path id="8" class="fil67" d="M6198 14155l-12 0c-3,-9 -9,-19 -17,-29 -8,-10 -15,-15 -23,-16 -3,-1 -7,-1 -12,-2 -6,0 -11,0 -15,0l-36 0 0 90 23 0c6,0 12,-1 16,-2 5,-1 9,-4 13,-8 3,-3 5,-7 8,-13 2,-7 4,-12 5,-17l12 0 0 97 -12 0c-1,-5 -3,-11 -6,-18 -2,-7 -5,-12 -7,-14 -3,-4 -7,-6 -12,-8 -5,-1 -11,-2 -17,-2l-23 0 0 76c0,4 1,7 2,10 2,3 4,5 9,7 2,1 5,2 9,3 5,1 9,1 13,2l0 12 -124 0 0 -12c3,-1 7,-1 12,-2 5,0 9,-1 11,-2 4,-2 7,-4 8,-6 2,-3 2,-6 2,-11l0 -162c0,-4 0,-7 -2,-9 -1,-3 -4,-6 -8,-7 -3,-2 -7,-3 -12,-4 -5,-1 -9,-2 -11,-2l0 -13 206 0 0 62z"/>
   <path id="9" class="fil67" d="M6427 14119c11,10 20,23 27,38 6,14 10,31 10,50 0,16 -3,32 -9,47 -5,16 -13,29 -24,40 -11,11 -24,20 -39,26 -15,6 -33,9 -54,9 -16,0 -32,-2 -47,-8 -15,-5 -28,-13 -39,-24 -12,-10 -21,-22 -27,-37 -7,-15 -10,-31 -10,-49 0,-19 3,-36 10,-51 6,-16 15,-29 26,-40 11,-10 24,-19 40,-24 15,-6 31,-9 48,-9 18,0 34,3 49,8 15,6 28,14 39,24zm-42 165c5,-10 9,-21 11,-34 2,-12 3,-26 3,-42 0,-13 -1,-26 -3,-39 -2,-13 -5,-24 -9,-34 -5,-10 -11,-17 -19,-23 -8,-6 -17,-9 -29,-9 -19,0 -34,9 -44,28 -10,18 -15,44 -15,78 0,15 1,28 3,41 2,13 6,24 10,33 5,10 11,18 19,23 7,5 16,8 27,8 11,0 20,-3 28,-8 8,-6 14,-13 18,-22z"/>
   <path id="10" class="fil67" d="M6750 14323l-88 0c-15,-23 -28,-42 -38,-55 -10,-14 -23,-30 -38,-48l-9 0 0 69c0,4 1,8 3,10 1,3 4,5 8,7 2,1 5,2 10,3 4,1 8,1 11,2l0 12 -123 0 0 -12c3,-1 7,-1 13,-2 5,0 8,-1 11,-2 4,-2 6,-4 8,-7 1,-2 2,-6 2,-10l0 -162c0,-4 -1,-7 -2,-10 -1,-2 -4,-4 -8,-6 -4,-2 -8,-3 -13,-4 -4,-1 -8,-2 -11,-2l0 -13 129 0c29,0 51,5 66,14 15,9 22,23 22,41 0,16 -4,29 -13,39 -10,9 -24,17 -43,23 8,9 16,20 26,33 10,12 20,25 30,38 4,4 8,9 14,15 6,7 11,10 16,12 2,0 5,1 9,2 4,0 7,0 8,1l0 12zm-110 -171c0,-15 -4,-26 -13,-33 -9,-8 -21,-11 -37,-11l-13 0 0 96 13 0c16,0 28,-4 37,-12 9,-8 13,-22 13,-40z"/>
   <path id="11" class="fil67" d="M6931 14329c-14,0 -27,-1 -39,-5 -12,-3 -22,-7 -31,-12l-11 11 -14 0 -2 -83 14 0c3,8 7,16 12,25 5,9 10,17 17,24 6,7 14,13 22,17 8,5 18,7 29,7 14,0 25,-4 33,-11 8,-7 12,-16 12,-27 0,-9 -3,-16 -10,-22 -7,-6 -17,-12 -31,-16 -9,-3 -17,-6 -25,-8 -7,-3 -15,-5 -21,-8 -16,-6 -27,-15 -35,-26 -7,-12 -11,-25 -11,-39 0,-9 2,-17 6,-26 4,-8 9,-15 17,-22 7,-6 16,-11 27,-15 11,-4 24,-6 37,-6 12,0 24,2 35,5 12,4 20,7 27,11l10 -10 13 0 2 79 -14 0c-3,-9 -7,-17 -11,-26 -5,-9 -9,-16 -14,-22 -6,-6 -12,-11 -19,-15 -6,-4 -15,-6 -24,-6 -12,0 -21,4 -28,10 -8,7 -12,15 -12,25 0,9 4,16 10,22 7,6 17,11 30,16 8,2 16,5 25,8 8,2 15,5 22,7 15,7 27,15 36,26 8,10 12,23 12,39 0,10 -3,20 -7,29 -5,9 -11,17 -19,23 -9,7 -19,12 -30,16 -11,4 -25,5 -40,5z"/>
   <path id="12" class="fil67" d="M7299 14323l-125 0 0 -12c6,-1 13,-2 21,-4 8,-1 12,-3 12,-6 0,-1 0,-2 0,-3 0,-1 -1,-2 -2,-4l-19 -48 -80 0c-2,4 -4,10 -6,16 -2,6 -4,11 -6,16 -2,6 -3,10 -3,13 -1,2 -1,4 -1,5 0,4 3,7 8,9 5,3 14,4 26,6l0 12 -94 0 0 -12c4,-1 8,-1 12,-2 5,-1 8,-2 11,-4 4,-3 8,-6 11,-10 3,-3 6,-8 8,-13 12,-30 25,-61 37,-91 13,-31 27,-64 42,-101l32 0c21,52 38,93 50,124 12,30 22,55 30,75 2,3 4,6 6,9 2,2 5,5 9,7 3,2 7,3 11,4 4,1 7,1 10,2l0 12zm-120 -93l-33 -84 -33 84 66 0z"/>
   <path id="13" class="fil67" d="M7508 14155l-13 0c-3,-9 -8,-19 -16,-29 -8,-10 -16,-15 -23,-16 -3,-1 -7,-1 -13,-2 -5,0 -10,0 -15,0l-35 0 0 90 22 0c7,0 13,-1 17,-2 5,-1 9,-4 13,-8 3,-3 5,-7 8,-13 2,-7 4,-12 4,-17l13 0 0 97 -13 0c0,-5 -2,-11 -5,-18 -3,-7 -5,-12 -7,-14 -3,-4 -7,-6 -12,-8 -5,-1 -11,-2 -18,-2l-22 0 0 76c0,4 0,7 2,10 1,3 4,5 8,7 3,1 6,2 10,3 4,1 9,1 13,2l0 12 -125 0 0 -12c4,-1 8,-1 13,-2 5,0 9,-1 11,-2 4,-2 6,-4 8,-6 2,-3 2,-6 2,-11l0 -162c0,-4 0,-7 -2,-9 -1,-3 -4,-6 -8,-7 -3,-2 -7,-3 -12,-4 -5,-1 -9,-2 -12,-2l0 -13 207 0 0 62z"/>
   <path id="14" class="fil67" d="M7728 14152l-13 0c-3,-9 -8,-18 -16,-27 -7,-9 -15,-14 -23,-15 -3,-1 -7,-2 -13,-2 -6,0 -11,0 -14,0l-34 0 0 89 24 0c6,0 11,-1 16,-2 5,-2 9,-4 13,-8 3,-3 5,-7 8,-14 3,-6 4,-11 5,-16l13 0 0 96 -13 0c-1,-5 -2,-10 -5,-17 -3,-7 -5,-12 -8,-14 -3,-4 -7,-7 -12,-8 -5,-2 -11,-3 -17,-3l-24 0 0 67c0,7 1,12 2,16 1,4 3,7 6,10 2,2 6,3 11,4 4,0 11,1 19,1 4,0 8,0 14,-1 5,0 9,0 13,-1 5,0 9,-1 13,-2 4,-1 7,-3 9,-5 5,-5 11,-13 18,-24 6,-11 10,-19 12,-24l12 0 -4 71 -216 0 0 -12c3,-1 7,-1 12,-2 6,0 9,-1 12,-2 4,-2 6,-4 8,-7 1,-2 2,-6 2,-10l0 -162c0,-4 -1,-7 -2,-9 -1,-3 -4,-5 -8,-7 -3,-2 -7,-3 -12,-4 -5,-1 -9,-2 -12,-2l0 -13 204 0 0 59z"/>
   <path id="15" class="fil67" d="M7977 14159l-13 0c-3,-10 -8,-20 -16,-31 -7,-12 -14,-18 -20,-18 -4,-1 -8,-1 -13,-2 -5,0 -9,0 -13,0l-8 0 0 180c0,4 1,7 2,10 2,3 4,6 9,7 2,1 6,2 11,3 5,1 10,2 13,3l0 12 -127 0 0 -12c3,-1 7,-1 13,-2 5,0 9,-1 11,-2 5,-2 7,-4 9,-7 1,-3 2,-6 2,-10l0 -182 -8 0c-3,0 -8,0 -13,0 -5,1 -9,1 -13,2 -6,0 -13,6 -20,18 -7,11 -13,21 -16,31l-13 0 0 -66 223 0 0 66z"/>
   <path id="16" class="fil67" d="M8233 14106c-4,0 -8,1 -11,2 -3,1 -6,2 -9,4 -5,3 -9,6 -12,10 -4,4 -8,9 -11,14 -7,10 -14,21 -22,33 -8,12 -16,25 -25,40 -6,9 -10,16 -11,21 -2,5 -2,13 -2,25l0 33c0,4 0,7 2,10 1,3 4,6 8,7 2,1 6,2 12,3 6,2 10,2 13,3l0 12 -128 0 0 -12c3,-1 8,-1 13,-2 6,0 10,-1 12,-2 4,-2 7,-4 8,-7 2,-3 2,-6 2,-10l0 -41c0,-3 0,-7 0,-9 0,-3 0,-5 -1,-7 -1,-2 -2,-5 -4,-8 -2,-3 -4,-7 -7,-12 -8,-15 -16,-29 -24,-42 -8,-13 -15,-25 -22,-37 -4,-5 -8,-10 -12,-14 -3,-3 -7,-6 -11,-9 -3,-1 -6,-3 -11,-3 -4,-1 -7,-2 -11,-2l0 -13 132 0 0 13c-12,0 -20,1 -25,2 -4,2 -6,4 -6,6 0,1 1,4 2,7 2,4 5,9 9,17 3,7 9,16 16,29 7,12 15,26 25,43 21,-33 35,-55 43,-68 7,-13 11,-21 11,-24 0,-4 -2,-6 -6,-8 -5,-2 -12,-3 -22,-4l0 -13 85 0 0 13z"/>
   <path class="fil68" d="M3937 13194c0,4 -1,5 -3,5 -3,0 -23,-1 -59,-2 -1,39 -2,70 -2,93 0,15 1,36 2,66 1,29 1,51 1,65 0,3 -1,4 -5,4 -2,0 -5,0 -9,0 -4,-1 -7,-1 -9,-1 -2,0 -5,0 -9,1 -4,0 -7,0 -9,0 -3,0 -5,-1 -5,-4 0,-15 1,-37 2,-66 1,-29 2,-50 2,-65 0,-23 -1,-54 -2,-93 -29,2 -50,3 -63,3 -2,0 -2,-1 -2,-2 0,-2 0,-6 1,-10 2,-5 2,-9 3,-10 0,-4 1,-10 2,-18 0,-2 1,-3 3,-3l2 0c39,3 65,4 77,4 11,0 30,-1 55,-2 17,-2 24,-2 21,-2 3,0 5,1 5,3 0,-1 0,5 0,19 0,1 0,4 0,7 1,4 1,6 1,8z"/>
   <path id="1" class="fil68" d="M4238 13421c0,3 -1,4 -5,4 -2,0 -5,0 -9,0 -3,-1 -6,-1 -8,-1 -3,0 -6,0 -10,1 -4,0 -7,0 -10,0 -2,0 -3,-1 -3,-4 0,-11 0,-29 0,-51 1,-23 1,-40 1,-52 0,-5 -1,-8 -3,-8 -4,-1 -23,-2 -58,-2 -35,0 -54,1 -58,2 -2,0 -3,3 -3,8 0,11 0,28 1,51 0,22 0,39 0,50 0,4 -1,6 -4,6 -2,0 -5,0 -9,0 -4,-1 -8,-1 -10,-1 -2,0 -5,0 -9,1 -3,0 -6,0 -8,0 -3,0 -5,-1 -5,-4 0,-14 1,-35 2,-63 1,-28 2,-49 2,-63 0,-15 -1,-37 -2,-66 -1,-30 -2,-52 -2,-67 0,-2 2,-4 5,-4 2,0 5,0 9,1 4,0 7,0 9,0 2,0 5,0 9,0 4,-1 8,-1 10,-1 2,0 3,1 3,4 0,11 0,27 -1,49 -1,22 -1,38 -1,49 0,4 1,6 4,7 2,1 22,1 58,1 35,0 55,0 58,-1 3,-1 4,-4 4,-9 0,-10 0,-26 -1,-48 0,-21 -1,-37 -1,-48 0,-3 2,-4 4,-4 2,0 5,0 9,1 4,0 7,0 10,0 2,0 5,0 9,0 4,-1 7,-1 9,-1 2,0 4,2 4,4 0,15 -1,37 -2,67 -1,29 -2,51 -2,66 0,14 1,35 2,63 2,28 2,49 2,63z"/>
   <path id="2" class="fil68" d="M4501 13387c0,2 0,5 -1,9 -1,5 -2,8 -2,9 0,4 -1,11 -2,20 -1,2 -2,3 -5,3 -1,0 -3,0 -6,-1 -14,-2 -35,-3 -63,-3 -8,0 -21,0 -37,1 -16,0 -28,0 -36,0 -4,0 -6,-1 -6,-5 0,-14 1,-36 2,-64 1,-29 2,-50 2,-64 0,-15 -1,-42 -2,-81 0,-10 -1,-26 -2,-46l0 -2c0,-3 1,-5 4,-5 8,0 20,0 35,1 16,0 28,1 35,1 8,0 19,-1 34,-1 14,-1 26,-1 33,-1 5,0 8,2 9,6 2,16 3,27 3,31 0,3 -1,4 -4,4 -9,0 -23,0 -42,-2 -20,-1 -34,-1 -44,-1 -9,0 -14,1 -17,4 -2,3 -3,10 -3,21l0 28c0,8 0,12 0,14 1,4 4,6 9,6 1,0 3,0 5,-1 3,0 5,0 6,0 22,0 41,0 59,-1 6,0 14,-1 23,-2 3,0 4,1 4,4 0,4 0,10 -1,18 -1,9 -2,15 -2,19 0,3 -1,4 -5,4 -1,0 -6,-1 -14,-2 -7,0 -20,-1 -42,-1 -18,0 -30,1 -35,1 -4,0 -7,3 -8,8 1,-1 1,4 1,15l0 28c0,13 1,21 5,24 3,3 10,4 21,4l18 0c8,0 30,-2 65,-5l3 0c2,0 3,2 3,5z"/>
   <path id="3" class="fil68" d="M5077 13162c0,15 -1,37 -2,67 0,29 -1,51 -1,66 0,14 0,34 0,62 1,28 1,48 1,62 0,4 -2,6 -4,6 -2,0 -5,0 -8,0 -3,-1 -6,-1 -8,-1 -1,0 -4,0 -8,1 -3,0 -6,0 -8,0 -2,0 -4,-2 -7,-6 -24,-37 -60,-92 -109,-165 -7,-11 -12,-18 -13,-19 -1,0 -1,3 -1,8 0,20 0,49 0,88 1,39 1,69 1,88 0,4 -1,6 -3,6 -2,0 -5,0 -9,0 -4,-1 -6,-1 -8,-1 -2,0 -5,0 -9,1 -4,0 -7,0 -9,0 -3,0 -4,-1 -4,-3 0,-14 0,-35 1,-64 2,-28 2,-49 2,-63 0,-15 0,-43 -1,-83 -1,-10 -1,-26 -2,-47l0 -2c0,-2 1,-3 4,-3 7,0 13,-1 17,-1 1,0 4,-1 9,-2 3,0 6,-1 8,-1 1,0 3,2 5,6 26,40 65,100 117,179 3,3 5,6 7,8 1,-5 1,-17 1,-36 0,-17 0,-41 -2,-74 -1,-33 -1,-58 -1,-74 0,-5 1,-7 3,-7 2,0 5,0 9,1 4,0 7,0 9,0 2,0 6,0 10,0 4,-1 7,-1 9,-1 3,0 4,2 4,4z"/>
   <path id="4" class="fil68" d="M5388 13424c0,1 -2,1 -4,1 -2,0 -6,0 -10,0 -4,0 -7,0 -9,0 -2,0 -5,0 -9,0 -5,0 -8,0 -10,0 -3,0 -7,-9 -12,-28 -4,-20 -9,-29 -14,-30 -4,0 -15,0 -32,0l-26 0c-18,0 -28,0 -30,0 -4,1 -9,11 -14,30 -5,19 -8,28 -11,28l-37 0c-3,0 -4,0 -4,-2 0,-2 1,-5 3,-9l41 -128c4,-10 14,-40 32,-88 3,-9 8,-21 13,-37 1,-5 3,-7 4,-7 2,0 6,0 10,1 4,0 7,1 9,1 2,0 5,-1 9,-2 4,0 7,-1 9,-1 1,0 3,3 4,7 3,7 16,46 39,116 32,98 49,147 49,148zm-77 -106c-1,-3 -6,-19 -16,-49 -9,-28 -15,-47 -18,-57 -23,67 -35,103 -35,106 0,4 4,7 13,7 0,1 5,1 16,1l17 0c15,0 23,-3 23,-8z"/>
   <path id="5" class="fil68" d="M5634 13194c0,4 -1,5 -3,5 -3,0 -22,-1 -59,-2 -1,39 -1,70 -1,93 0,15 0,36 1,66 1,29 2,51 2,65 0,3 -2,4 -5,4 -2,0 -5,0 -9,0 -4,-1 -7,-1 -9,-1 -2,0 -6,0 -10,1 -4,0 -7,0 -9,0 -3,0 -4,-1 -4,-4 0,-15 1,-37 2,-66 1,-29 1,-50 1,-65 0,-23 0,-54 -2,-93 -28,2 -49,3 -63,3 -1,0 -2,-1 -2,-2 0,-2 1,-6 2,-10 1,-5 2,-9 2,-10 0,-4 1,-10 3,-18 0,-2 1,-3 2,-3l2 0c40,3 65,4 78,4 11,0 29,-1 54,-2 18,-2 25,-2 22,-2 3,0 4,1 5,3 -1,-1 -1,5 -1,19 0,1 1,4 1,7 0,4 0,6 0,8z"/>
   <path id="6" class="fil68" d="M5916 13162c0,15 0,37 -1,67 -1,29 -2,51 -2,66 0,5 0,12 1,21 0,10 0,17 0,22 0,26 -2,45 -7,55 -6,16 -19,26 -39,32 -11,3 -28,5 -49,5 -39,0 -64,-7 -77,-22 -9,-11 -14,-34 -14,-69 0,-4 1,-11 1,-21 0,-10 0,-18 0,-23 0,-15 -1,-43 -2,-83 0,-10 0,-26 -1,-47 -1,-1 -1,-2 -1,-3 0,-2 2,-4 5,-4 4,0 10,0 18,0 9,1 15,1 19,1 2,0 3,1 3,3 0,19 0,48 -1,87 0,39 -1,68 -1,87 0,22 5,37 13,44 7,7 21,11 40,11 18,0 31,-3 39,-9 9,-7 14,-20 14,-39 0,-20 0,-50 -1,-90 -1,-40 -1,-71 -1,-91 0,-2 2,-3 5,-3 2,-1 6,-1 10,0 5,0 7,0 7,0 2,0 5,0 9,0 4,-1 7,-1 9,-1 3,0 4,2 4,4z"/>
   <path id="7" class="fil68" d="M6202 13424c0,1 -1,1 -2,1 -2,0 -6,0 -10,0 -4,-1 -8,-1 -10,-1 -2,0 -5,0 -10,1 -5,0 -8,0 -10,0 -3,0 -5,-1 -6,-4 -4,-9 -14,-36 -31,-81 -1,-4 -6,-7 -12,-8 -1,0 -6,0 -15,0 -15,0 -24,0 -27,1 -2,0 -4,3 -4,9 0,9 1,23 1,40 1,18 1,31 1,40 0,3 -1,4 -3,4 -2,0 -5,0 -10,-1 -4,0 -8,-1 -10,-1 -2,0 -5,0 -9,1 -4,0 -7,0 -8,0 -3,0 -5,-1 -5,-4 0,-14 1,-35 2,-63 1,-29 2,-50 2,-64 0,-40 -1,-83 -4,-128l0 -4c0,-2 2,-3 7,-3 9,0 24,-1 43,-1 19,-1 33,-1 42,-1 25,0 45,7 60,20 16,15 24,36 24,63 0,19 -2,34 -6,45 -5,11 -14,22 -26,32 -2,2 -3,4 -3,5 0,2 6,19 19,51 14,32 20,49 20,51zm-45 -173c0,-23 -6,-38 -18,-46 -8,-6 -24,-9 -46,-9 -18,0 -27,2 -27,5 -1,7 -1,26 -1,55l0 37c0,0 1,0 2,1 2,0 5,0 10,1 10,0 22,1 34,1 30,0 46,-15 46,-45z"/>
   <path id="8" class="fil68" d="M6500 13424c0,1 -1,1 -4,1 -2,0 -5,0 -9,0 -4,0 -7,0 -9,0 -2,0 -5,0 -10,0 -4,0 -7,0 -9,0 -3,0 -7,-9 -12,-28 -5,-20 -10,-29 -14,-30 -4,0 -15,0 -32,0l-26 0c-18,0 -28,0 -31,0 -4,1 -8,11 -13,30 -5,19 -9,28 -11,28l-38 0c-2,0 -3,0 -3,-2 0,-2 1,-5 2,-9l42 -128c3,-10 14,-40 32,-88 3,-9 7,-21 13,-37 1,-5 2,-7 4,-7 2,0 5,0 9,1 4,0 8,1 10,1 2,0 5,-1 9,-2 4,0 7,-1 9,-1 1,0 2,3 4,7 3,7 15,46 38,116 33,98 49,147 49,148zm-76 -106c-1,-3 -7,-19 -16,-49 -10,-28 -16,-47 -19,-57 -23,67 -34,103 -34,106 0,4 4,7 12,7 1,1 6,1 16,1l17 0c16,0 24,-3 24,-8z"/>
   <path id="9" class="fil68" d="M6749 13384c0,18 -1,31 -2,38 -1,4 -3,6 -6,6 -8,0 -21,-1 -37,-2 -17,-1 -29,-2 -37,-2 -8,0 -19,0 -35,1 -15,0 -27,0 -34,0 -3,0 -5,-1 -5,-4 0,-14 1,-35 2,-63 0,-28 1,-49 1,-63 0,-15 -1,-37 -2,-66 -1,-29 -2,-51 -2,-66 0,-3 2,-4 5,-4 2,0 5,0 9,0 4,1 7,1 9,1 2,0 5,0 9,-1 5,0 8,0 10,0 2,0 4,1 4,3 0,14 -1,34 -2,61 -1,27 -1,47 -1,61 0,7 0,17 0,30 0,14 0,24 0,30 0,28 1,42 3,42 41,0 72,-1 92,-3 1,0 4,-1 8,-1 3,-1 6,-1 8,-1 2,0 3,1 3,3z"/>
   <path id="10" class="fil68" d="M7242 13178c-2,4 -5,10 -9,19 -1,4 -3,9 -6,16 -1,2 -2,2 -3,2 0,0 -5,-2 -16,-7 -11,-4 -20,-6 -27,-6 -20,0 -30,10 -30,30 0,12 7,22 21,30 24,15 37,23 40,25 14,13 21,31 21,53 0,28 -9,51 -29,67 -18,15 -39,22 -65,22 -12,0 -19,-1 -19,-4 -1,-5 -2,-12 -3,-21 -1,-4 -3,-10 -5,-17 0,-2 0,-3 0,-4 0,-1 1,-2 2,-2 3,0 7,0 13,1 5,0 9,1 12,1 35,0 52,-13 52,-39 0,-12 -7,-23 -21,-32 -25,-17 -38,-25 -39,-26 -14,-13 -21,-30 -21,-52 0,-24 7,-43 21,-57 13,-14 30,-20 51,-20 9,0 19,1 30,5 13,3 22,8 29,13 0,1 1,1 1,3z"/>
   <path id="11" class="fil68" d="M7494 13194c0,4 -1,5 -3,5 -3,0 -22,-1 -59,-2 -1,39 -1,70 -1,93 0,15 0,36 1,66 1,29 2,51 2,65 0,3 -2,4 -5,4 -2,0 -5,0 -9,0 -4,-1 -7,-1 -10,-1 -2,0 -5,0 -9,1 -4,0 -7,0 -9,0 -3,0 -4,-1 -4,-4 0,-15 1,-37 2,-66 1,-29 1,-50 1,-65 0,-23 0,-54 -2,-93 -28,2 -49,3 -63,3 -1,0 -2,-1 -2,-2 0,-2 1,-6 2,-10 1,-5 2,-9 2,-10 0,-4 1,-10 3,-18 0,-2 1,-3 2,-3l2 0c40,3 65,4 78,4 11,0 29,-1 54,-2 18,-2 25,-2 22,-2 3,0 4,1 5,3 -1,-1 -1,5 -1,19 0,1 0,4 1,7 0,4 0,6 0,8z"/>
   <path id="12" class="fil68" d="M7790 13424c0,1 -1,1 -4,1 -2,0 -5,0 -9,0 -4,0 -7,0 -10,0 -2,0 -5,0 -9,0 -4,0 -7,0 -10,0 -3,0 -7,-9 -11,-28 -5,-20 -10,-29 -15,-30 -4,0 -14,0 -31,0l-26 0c-18,0 -29,0 -31,0 -4,1 -8,11 -13,30 -5,19 -9,28 -12,28l-37 0c-2,0 -3,0 -3,-2 0,-2 0,-5 2,-9l41 -128c4,-10 15,-40 32,-88 3,-9 8,-21 13,-37 2,-5 3,-7 5,-7 2,0 5,0 9,1 4,0 7,1 9,1 2,0 5,-1 9,-2 5,0 8,-1 10,-1 0,0 2,3 4,7 2,7 15,46 38,116 33,98 49,147 49,148zm-77 -106c-1,-3 -6,-19 -16,-49 -9,-28 -15,-47 -18,-57 -23,67 -35,103 -35,106 0,4 5,7 13,7 0,1 6,1 16,1l17 0c16,0 23,-3 23,-8z"/>
   <path id="13" class="fil68" d="M8037 13194c0,4 -1,5 -3,5 -3,0 -23,-1 -59,-2 -1,39 -2,70 -2,93 0,15 1,36 2,66 1,29 1,51 1,65 0,3 -2,4 -5,4 -2,0 -5,0 -9,0 -4,-1 -7,-1 -9,-1 -2,0 -5,0 -9,1 -4,0 -7,0 -9,0 -3,0 -5,-1 -5,-4 0,-15 1,-37 2,-66 1,-29 1,-50 1,-65 0,-23 0,-54 -1,-93 -29,2 -50,3 -63,3 -2,0 -2,-1 -2,-2 0,-2 0,-6 1,-10 2,-5 2,-9 2,-10 1,-4 1,-10 3,-18 0,-2 1,-3 3,-3l2 0c39,3 65,4 77,4 11,0 30,-1 55,-2 17,-2 24,-2 21,-2 3,0 5,1 5,3 0,-1 0,5 0,19 0,1 0,4 0,7 1,4 1,6 1,8z"/>
   <path id="14" class="fil68" d="M8286 13387c0,2 -1,5 -2,9 -1,5 -1,8 -1,9 -1,4 -2,11 -3,20 0,2 -2,3 -4,3 -1,0 -3,0 -6,-1 -14,-2 -35,-3 -64,-3 -8,0 -20,0 -36,1 -17,0 -29,0 -37,0 -3,0 -5,-1 -5,-5 0,-14 0,-36 2,-64 1,-29 2,-50 2,-64 0,-15 -1,-42 -2,-81 0,-10 -1,-26 -2,-46l0 -2c0,-3 1,-5 4,-5 8,0 19,0 35,1 15,0 27,1 35,1 7,0 18,-1 33,-1 15,-1 26,-1 34,-1 5,0 8,2 8,6 2,16 4,27 4,31 0,3 -2,4 -4,4 -9,0 -24,0 -43,-2 -19,-1 -33,-1 -43,-1 -9,0 -15,1 -17,4 -3,3 -4,10 -4,21l0 28c0,8 0,12 1,14 1,4 4,6 8,6 2,0 4,0 6,-1 3,0 4,0 6,0 21,0 41,0 58,-1 7,0 15,-1 24,-2 2,0 4,1 4,4 0,4 -1,10 -2,18 -1,9 -1,15 -1,19 0,3 -2,4 -5,4 -1,0 -6,-1 -15,-2 -6,0 -20,-1 -42,-1 -18,0 -29,1 -34,1 -5,0 -7,3 -8,8 0,-1 0,4 0,15l0 28c0,13 2,21 6,24 2,3 9,4 20,4l19 0c7,0 29,-2 65,-5l2 0c3,0 4,2 4,5z"/>
   <path class="fil69" d="M4587 13021l-350 0c8,-3 16,-7 22,-11 7,-4 12,-7 17,-11 5,-4 9,-9 13,-15 4,-6 8,-14 11,-23 3,-10 5,-20 6,-30 1,-9 0,-16 -2,-26 0,-4 -2,-9 -3,-15l-1 -3 -60 -218 -244 0c-5,20 -11,44 -18,71 -7,27 -13,51 -18,73 -1,4 -2,9 -3,13 -1,3 -1,6 -2,10 -3,12 -5,26 -6,37 -2,12 -3,22 -1,33 1,12 5,25 9,37 4,12 9,22 15,32 6,10 13,20 21,27 7,7 16,11 27,16 2,1 3,2 5,3l-261 0 0 -2c4,-3 9,-5 13,-8 49,-32 99,-123 114,-178 38,-138 76,-276 115,-415 38,-139 81,-292 127,-459l99 0c65,237 115,424 152,562 37,138 68,252 93,342 5,15 10,29 17,41 6,12 16,23 28,34 9,8 20,14 32,18 12,4 24,6 33,7l0 58zm-367 -423l-103 -383 -101 383 204 0z"/>
   <path class="fil69" d="M4777 12868l0 9c0,14 1,25 3,35 1,4 1,8 2,12 3,17 6,32 11,46 4,14 10,25 18,36 5,5 10,10 15,15l-287 0 0 -55c9,-1 17,-2 25,-4 9,-2 16,-4 22,-7 10,-5 18,-13 21,-25 4,-11 6,-26 6,-44l0 -428c0,-17 -3,-33 -8,-47 -6,-14 -12,-25 -20,-34 -6,-6 -14,-10 -23,-15 -9,-3 -19,-6 -30,-8l0 -54 237 -20 7 11 0 577 1 0z"/>
   <path class="fil69" d="M5510 13021l-183 0c-29,-75 -55,-139 -79,-192 -24,-52 -46,-100 -67,-145l-30 37 0 161c0,17 2,32 5,43 4,11 10,20 20,25 6,4 13,7 21,10 8,3 16,5 24,6l0 55 -284 0c5,-4 9,-8 13,-13 9,-9 17,-22 23,-36 6,-13 9,-28 12,-42 0,-6 1,-13 1,-20 1,-7 2,-15 2,-24l0 -821c0,-9 -1,-18 -2,-27 -1,-20 -3,-37 -5,-53 -3,-24 -6,-47 -14,-69 -2,-8 -5,-15 -9,-23l186 -14 7 11 0 763c25,-32 52,-70 83,-113 30,-43 55,-78 73,-106 11,-17 17,-29 18,-38 1,-9 2,-14 2,-16 0,-9 -5,-16 -16,-22 -10,-6 -25,-11 -46,-16l0 -53 251 0 0 52c-33,14 -58,27 -75,38 -18,12 -37,29 -57,49 -14,13 -27,27 -40,41 -12,15 -27,33 -43,55 32,69 62,134 89,193 28,59 56,122 86,188 11,23 23,39 38,47 16,7 31,12 46,14l0 17c18,3 31,7 42,12 17,9 27,21 32,26 5,6 5,6 -6,5 -12,-1 -36,-3 -75,-4 -13,-1 -28,-1 -43,-1z"/>
   <path class="fil69" d="M6074 13005c-14,10 -31,18 -51,26 -20,8 -40,12 -62,12 -41,0 -70,-9 -90,-27 -18,-18 -31,-43 -38,-77l-3 0c-7,11 -14,20 -21,28 -4,5 -8,10 -13,15 -7,8 -14,15 -24,21 -9,7 -20,13 -31,18 -10,4 -20,7 -31,9 -11,2 -22,3 -34,4 -12,0 -23,0 -35,-2 -11,-1 -22,-3 -31,-5 -7,-2 -12,-3 -19,-3 -11,-8 -21,-18 -31,-30 -27,-34 -41,-78 -41,-134 0,-32 3,-59 9,-81 6,-23 15,-43 26,-60 9,-16 21,-29 34,-39 13,-10 27,-20 43,-29 30,-16 66,-33 107,-50 42,-18 72,-33 92,-47l0 -71c0,-12 -1,-29 -2,-49 -2,-20 -4,-37 -9,-51 -4,-15 -12,-29 -22,-40 -10,-10 -23,-16 -39,-16 -15,0 -27,3 -37,10 -9,6 -17,12 -23,18 1,10 4,25 8,45 5,20 7,40 7,59 0,8 -1,18 -4,31 -3,12 -8,23 -13,30 -8,10 -16,17 -26,23 -9,5 -24,8 -43,8 -28,0 -49,-10 -63,-30 -14,-20 -21,-46 -21,-78 0,-27 7,-52 22,-74 14,-22 32,-40 53,-54 21,-15 45,-26 72,-35 27,-8 52,-12 76,-12 32,0 61,3 88,9 27,5 51,17 72,35 21,17 37,42 49,75 12,32 18,75 18,127 0,56 -1,122 -2,198 -1,76 -2,126 -2,150 0,22 2,39 7,52 4,13 11,22 20,29 5,4 14,6 26,7 12,1 22,1 32,1l0 54zm-244 -383c-19,9 -37,20 -56,32 -18,12 -33,25 -45,38 -12,14 -22,32 -29,53 -7,21 -10,46 -10,76 0,38 6,66 17,83 12,17 27,26 44,26 19,0 34,-6 45,-17 12,-11 23,-24 32,-41l2 -250z"/>
   <path class="fil70" d="M6767 13021l-298 0 0 -55c6,-1 14,-2 23,-4 9,-1 15,-3 20,-7 7,-5 12,-13 15,-24 3,-10 4,-25 4,-45l0 -346c0,-50 -6,-87 -18,-113 -12,-25 -31,-38 -55,-38 -13,0 -25,3 -36,9 -12,6 -23,15 -34,26 -9,10 -17,20 -23,30 -5,10 -10,20 -14,27l0 397c0,17 2,31 5,43 3,11 8,20 16,26 5,4 12,8 20,12 8,3 15,6 23,7l0 55 -302 0 0 -55c9,-1 17,-2 25,-4 9,-2 16,-4 22,-7 10,-5 18,-13 22,-25 3,-11 6,-26 6,-44l0 -428c0,-15 -3,-30 -8,-45 -6,-15 -13,-26 -21,-36 -6,-6 -14,-10 -23,-14 -9,-4 -19,-7 -30,-9l0 -54 237 -20 8 12 0 105 2 0c9,-12 20,-26 33,-44 14,-17 26,-31 37,-42 12,-12 28,-22 48,-30 20,-8 41,-13 63,-13 54,0 94,23 121,69 26,45 40,105 40,181l0 361c0,18 2,33 5,44 4,10 11,19 21,26 5,3 12,6 19,10 8,3 17,6 27,7l0 55z"/>
   <path class="fil70" d="M7020 13045c-32,0 -63,-7 -94,-21 -30,-14 -54,-29 -71,-44l-15 50 -38 0 -6 -275 36 0c5,22 13,47 25,74 11,28 24,53 39,75 16,22 33,41 53,56 20,15 41,23 64,23 30,0 52,-9 67,-26 15,-18 22,-45 22,-81 0,-20 -3,-36 -10,-49 -7,-13 -16,-24 -27,-33 -13,-10 -27,-18 -42,-25 -16,-7 -35,-15 -57,-25 -23,-10 -42,-20 -58,-30 -16,-10 -32,-26 -49,-47 -15,-20 -27,-43 -36,-70 -9,-27 -13,-59 -13,-96 0,-70 19,-126 58,-168 39,-43 91,-65 154,-65 30,0 58,5 83,14 25,9 46,19 64,30l10 -44 38 0 8 251 -35 0c-11,-51 -31,-95 -59,-132 -29,-37 -59,-55 -91,-55 -26,0 -46,8 -60,23 -15,16 -22,38 -22,66 0,37 10,64 32,81 21,17 51,32 89,47 59,23 103,54 130,93 27,39 41,89 41,149 0,81 -21,143 -64,187 -42,45 -98,67 -166,67z"/>
   <path class="fil70" d="M7798 13005c-15,10 -32,18 -51,26 -20,8 -41,12 -63,12 -40,0 -70,-9 -89,-27 -19,-18 -32,-43 -39,-77l-3 0c-11,17 -22,31 -32,43 -11,12 -22,22 -34,30 -15,11 -30,19 -45,25 -14,5 -34,8 -60,8 -39,0 -71,-17 -98,-51 -28,-34 -41,-78 -41,-134 0,-32 3,-59 9,-81 6,-23 14,-43 25,-60 10,-16 22,-29 35,-39 13,-10 27,-20 43,-29 29,-16 65,-33 107,-50 42,-18 72,-33 91,-47l0 -71c0,-12 0,-29 -2,-49 -1,-20 -4,-37 -8,-51 -5,-15 -12,-29 -22,-40 -10,-10 -23,-16 -39,-16 -15,0 -27,3 -37,10 -10,6 -18,12 -24,18 1,10 4,25 9,45 4,20 7,40 7,59 0,8 -2,18 -5,31 -3,12 -7,23 -13,30 -7,10 -16,17 -25,23 -10,5 -24,8 -44,8 -27,0 -48,-10 -63,-30 -14,-20 -21,-46 -21,-78 0,-27 7,-52 22,-74 15,-22 33,-40 54,-54 21,-15 45,-26 72,-35 27,-8 52,-12 75,-12 32,0 62,3 88,9 27,5 51,17 73,35 20,17 37,42 49,75 12,32 18,75 18,127 0,56 -1,122 -2,198 -2,76 -2,126 -2,150 0,22 2,40 6,52 5,13 11,22 20,29 6,4 15,6 26,7 12,1 23,1 33,1l0 54zm-245 -383c-18,9 -37,20 -55,32 -19,12 -33,25 -45,38 -12,14 -22,32 -29,53 -7,21 -11,46 -11,76 0,38 6,66 18,83 12,17 26,26 44,26 18,0 33,-6 45,-17 12,-11 22,-24 31,-41l2 -250z"/>
   <path class="fil70" d="M8050 13045c-32,0 -64,-7 -94,-21 -31,-14 -54,-29 -71,-44l-15 50 -39 0 -6 -275 37 0c5,22 13,47 25,74 11,28 24,53 39,75 15,22 33,41 53,56 20,15 41,23 64,23 30,0 52,-9 67,-26 14,-18 22,-45 22,-81 0,-20 -3,-36 -10,-49 -7,-13 -16,-24 -27,-33 -13,-10 -27,-18 -43,-25 -15,-7 -34,-15 -56,-25 -23,-10 -42,-20 -58,-30 -16,-10 -32,-26 -49,-47 -15,-20 -27,-43 -36,-70 -9,-27 -13,-59 -13,-96 0,-70 19,-126 58,-168 39,-43 91,-65 154,-65 30,0 58,5 83,14 25,9 46,19 64,30l10 -44 37 0 9 251 -35 0c-11,-51 -31,-95 -60,-132 -28,-37 -58,-55 -90,-55 -26,0 -46,8 -61,23 -14,16 -21,38 -21,66 0,37 10,64 32,81 21,17 51,32 89,47 59,23 102,54 130,93 27,39 41,89 41,149 0,81 -21,143 -64,187 -42,45 -98,67 -166,67z"/>
   <g>
    <path class="fil13" d="M5135 12262c10,-6 23,-5 33,2 10,8 14,21 10,33 -3,6 -5,12 -7,19 -11,30 -22,60 -36,89 -15,29 -34,58 -58,81 -21,20 -44,35 -72,43 -25,6 -53,7 -78,3 -21,-4 -39,-11 -59,-18 -13,-4 -24,-8 -37,-7 -16,2 -37,10 -51,18 -10,6 -18,14 -25,24 -2,2 -3,4 -5,6 -9,12 -26,15 -39,7 -13,-8 -17,-25 -10,-38 1,-4 3,-8 5,-12 10,-19 19,-38 29,-56 12,-22 25,-42 40,-61 17,-22 38,-42 61,-57 23,-15 50,-25 76,-31 24,-6 47,-9 72,-11 23,-1 47,-1 70,-4 18,-3 35,-8 51,-15 9,-3 17,-8 26,-12 1,-1 3,-2 4,-3z"/>
   </g>
   <path class="fil71" d="M4828 12478c19,-2 34,3 50,9 16,6 33,12 54,16 20,3 43,3 65,-3 21,-5 41,-17 60,-35 19,-18 36,-43 52,-73 15,-31 28,-68 34,-86 7,-19 7,-19 7,-19 0,0 0,0 -5,3 -5,3 -14,8 -29,14 -14,7 -34,13 -57,17 -24,3 -50,3 -74,5 -23,1 -44,4 -66,9 -22,6 -46,14 -67,27 -21,14 -39,33 -54,51 -15,19 -26,37 -37,57 -11,20 -23,44 -28,55 -6,12 -6,12 -6,12 0,0 0,0 5,-7 5,-6 15,-19 33,-30 18,-11 43,-20 63,-22z"/>
  </g>
  <g id="_2714869845024">
   <path class="fil72" d="M44937 17589c84,0 152,-297 152,-664 0,-367 -68,-1300 -152,-1300 -84,0 -152,933 -152,1300 0,367 68,664 152,664z"/>
   <path class="fil72" d="M44937 17589c71,46 288,-169 486,-478 197,-310 640,-1133 569,-1179 -71,-45 -629,705 -826,1015 -198,310 -300,597 -229,642z"/>
   <path class="fil4" d="M44937 17589c81,24 230,-242 333,-595 103,-352 299,-1267 218,-1290 -81,-24 -408,852 -511,1205 -103,352 -121,657 -40,680z"/>
   <path class="fil73" d="M44937 17589c47,70 332,-38 637,-242 305,-204 1043,-780 996,-849 -47,-70 -860,391 -1165,595 -305,204 -515,427 -468,496z"/>
   <path class="fil4" d="M44937 17589c81,-21 71,-326 -23,-681 -94,-355 -399,-1239 -481,-1217 -81,21 92,940 186,1295 94,355 237,625 318,603z"/>
   <path class="fil73" d="M44937 17589c72,-43 -26,-333 -218,-646 -192,-313 -737,-1072 -809,-1028 -72,44 358,874 550,1187 192,313 405,531 477,487z"/>
   <path class="fil72" d="M44937 17589c46,-70 -167,-289 -475,-489 -308,-200 -1128,-650 -1173,-579 -46,70 699,635 1007,835 308,199 595,304 641,233z"/>
   <path class="fil72" d="M44937 17589c26,-79 -235,-238 -583,-354 -348,-115 -1255,-344 -1282,-265 -26,80 838,439 1186,555 348,115 652,144 679,64z"/>
   <path class="fil72" d="M44937 17589c23,81 328,66 681,-34 353,-100 1232,-420 1209,-501 -23,-81 -939,108 -1292,208 -353,100 -621,247 -598,327z"/>
   <path class="fil74" d="M44936 17594c30,66 287,16 574,-111 288,-127 996,-505 967,-571 -30,-66 -784,205 -1072,332 -288,128 -498,284 -469,350z"/>
   <path class="fil4" d="M44936 17594c53,50 271,-95 487,-324 216,-229 722,-851 670,-900 -52,-50 -644,492 -860,720 -216,229 -349,455 -297,504z"/>
   <path class="fil74" d="M44936 17594c66,31 228,-175 362,-459 134,-285 423,-1033 358,-1064 -65,-30 -460,668 -594,952 -135,285 -191,541 -126,571z"/>
   <path class="fil73" d="M44936 17594c72,10 165,-234 208,-546 44,-312 96,-1112 24,-1122 -71,-10 -239,774 -282,1086 -44,312 -21,572 50,582z"/>
   <path class="fil73" d="M44936 17594c33,-64 -169,-231 -450,-373 -281,-142 -1021,-450 -1053,-385 -33,64 655,476 936,618 281,142 535,205 567,140z"/>
   <path class="fil4" d="M44936 17594c51,-52 -92,-271 -319,-490 -226,-218 -841,-732 -891,-680 -51,52 484,649 710,868 226,219 450,354 500,302z"/>
   <path class="fil74" d="M44936 17594c66,-30 13,-286 -117,-572 -131,-287 -515,-990 -581,-960 -65,30 213,781 343,1068 131,286 290,494 355,464z"/>
   <path class="fil72" d="M44935 17598c32,47 223,-28 426,-167 204,-139 695,-530 663,-577 -32,-46 -575,269 -778,408 -203,139 -343,290 -311,336z"/>
   <path class="fil72" d="M44935 17598c55,16 153,-164 221,-401 67,-237 195,-851 141,-867 -55,-15 -270,574 -338,811 -67,237 -78,442 -24,457z"/>
   <path class="fil72" d="M44935 17598c46,-33 -34,-222 -178,-421 -145,-200 -548,-681 -594,-648 -46,34 284,568 428,767 144,200 298,335 344,302z"/>
  </g>
 </g>
</svg>
