<?xml version="1.0" encoding="UTF-8"?>
<!DOCTYPE svg PUBLIC "-//W3C//DTD SVG 1.1//EN" "http://www.w3.org/Graphics/SVG/1.1/DTD/svg11.dtd">
<!-- Creator: CorelDRAW X8 -->
<svg xmlns="http://www.w3.org/2000/svg" xml:space="preserve" width="4879px" height="1956px" version="1.1" style="shape-rendering:geometricPrecision; text-rendering:geometricPrecision; image-rendering:optimizeQuality; fill-rule:evenodd; clip-rule:evenodd"
viewBox="0 0 48792 19559"
 xmlns:xlink="http://www.w3.org/1999/xlink">
 <defs>
  <style type="text/css">
   <![CDATA[
    .str0 {stroke:#373435;stroke-width:41.6561}
    .str2 {stroke:#313131;stroke-width:41.6561}
    .str1 {stroke:#424242;stroke-width:20.8339}
    .str3 {stroke:black;stroke-width:8.9997}
    .str4 {stroke:#B5EEFF;stroke-width:8.9997}
    .str5 {stroke:#E6E6E6;stroke-width:8.9997}
    .fil17 {fill:none}
    .fil13 {fill:#373435}
    .fil20 {fill:#EFB783}
    .fil62 {fill:#0044FF}
    .fil68 {fill:#005C40}
    .fil67 {fill:#007553}
    .fil66 {fill:#0A461C}
    .fil35 {fill:#0B3859}
    .fil48 {fill:#121710}
    .fil23 {fill:#1369B6}
    .fil55 {fill:#1B1B1C}
    .fil31 {fill:#1C1C1C}
    .fil27 {fill:#20547B}
    .fil7 {fill:#313131}
    .fil30 {fill:#33322E}
    .fil36 {fill:#333333}
    .fil26 {fill:#362D24}
    .fil28 {fill:#3689BB}
    .fil22 {fill:#3890D0}
    .fil10 {fill:#424242}
    .fil6 {fill:#464646}
    .fil14 {fill:#4A4A4A}
    .fil40 {fill:#4D4D4D}
    .fil39 {fill:#525252}
    .fil15 {fill:#5C707B}
    .fil16 {fill:#71848B}
    .fil8 {fill:#757575}
    .fil56 {fill:#767B7F}
    .fil32 {fill:#797977}
    .fil50 {fill:#7A838A}
    .fil42 {fill:gray}
    .fil57 {fill:#99A3AC}
    .fil51 {fill:#9CADB7}
    .fil58 {fill:#AAB5C5}
    .fil54 {fill:#ADBACA}
    .fil38 {fill:#B5EEFF}
    .fil24 {fill:#B96F48}
    .fil60 {fill:#BABABA}
    .fil53 {fill:#BACADA}
    .fil47 {fill:#C1C2C9}
    .fil18 {fill:#C1CFCF}
    .fil33 {fill:#C77066}
    .fil4 {fill:#C8382F}
    .fil11 {fill:#CACACA}
    .fil37 {fill:#CCCCCC}
    .fil46 {fill:#CDCED3}
    .fil2 {fill:#CFB175}
    .fil52 {fill:#D2D7DD}
    .fil5 {fill:#DF7E77}
    .fil3 {fill:#DFE9EB}
    .fil34 {fill:#E09474}
    .fil45 {fill:#E0E7ED}
    .fil41 {fill:#E6E6E6}
    .fil43 {fill:#E6EEF1}
    .fil21 {fill:#EC9956}
    .fil29 {fill:#ECB31E}
    .fil25 {fill:#EDD89F}
    .fil12 {fill:#EFEFEF}
    .fil44 {fill:#F1FAFF}
    .fil0 {fill:#F2F2F2}
    .fil49 {fill:#F2FBFF}
    .fil64 {fill:#F8BC84}
    .fil65 {fill:#FF9F7A}
    .fil9 {fill:white}
    .fil59 {fill:white}
    .fil19 {fill:#464646;fill-rule:nonzero}
    .fil70 {fill:#6E462A;fill-rule:nonzero}
    .fil71 {fill:#7E543D;fill-rule:nonzero}
    .fil74 {fill:#95C638;fill-rule:nonzero}
    .fil75 {fill:#A8D146;fill-rule:nonzero}
    .fil72 {fill:#A8DB52;fill-rule:nonzero}
    .fil69 {fill:#B3B3B3;fill-rule:nonzero}
    .fil73 {fill:#B6E45B;fill-rule:nonzero}
    .fil1 {fill:#E6E6E6;fill-rule:nonzero}
    .fil63 {fill:white;fill-rule:nonzero}
    .fil61 {fill:#B3B3B3}
   ]]>
  </style>
   <mask id="id0">
  <linearGradient id="id1" gradientUnits="userSpaceOnUse" x1="25617.3" y1="16060.5" x2="30445.5" y2="16060.5">
   <stop offset="0" style="stop-opacity:0; stop-color:white"/>
   <stop offset="1" style="stop-opacity:1; stop-color:white"/>
  </linearGradient>
    <rect style="fill:url(#id1)" x="25607" y="14748" width="4849" height="2625"/>
   </mask>
 </defs>
 <g id="Слой_x0020_1">
  <metadata id="CorelCorpID_0Corel-Layer"/>
  <rect class="fil0" x="2" width="48790" height="19559"/>
  <path class="fil1" d="M44708 11267l0 -605 559 0 0 605 2657 0 866 1755 -2 0 0 4761 -3521 0 0 5 -1347 0 0 -5 -639 0 0 -4761 866 -1755 561 0zm-13251 3231l841 -813 0 -1616 588 0 0 1048 951 -919 2035 1966c128,-101 285,-167 457,-186 34,-247 246,-438 502,-438 112,0 217,36 304,102 77,-81 183,-127 297,-127 226,0 411,185 411,412 0,5 0,10 0,14 74,-41 159,-63 245,-63 103,0 198,31 278,84l314 -275 0 -1262 588 0 0 747 706 -619 2625 2300 0 3098 -761 0 -1220 0 -3269 0 0 -7c-12,7 -25,12 -40,12 0,-1 0,-1 0,0l-449 0c-42,0 -75,-34 -75,-75 0,-32 84,-754 134,-1182 -101,37 -208,57 -316,57 -138,0 -269,-31 -386,-86l0 1165 -4760 0 0 -3337zm5892 2546l-15 -360 5 1 10 4 0 355zm-28168 -395c-50,429 -133,1151 -133,1182 0,42 33,75 74,75l449 0c0,0 1,0 1,0 41,0 74,-33 74,-75 0,-3 0,-7 0,-11l-50 -1185 5 0c111,47 230,72 352,72 428,0 791,-294 882,-707 216,-61 367,-258 367,-486 0,-148 -62,-285 -173,-381 -7,-212 -87,-411 -227,-569 36,-70 55,-149 55,-229 0,-279 -227,-506 -506,-506 -86,0 -171,22 -246,63 1,-5 1,-10 1,-15 0,-227 -185,-411 -412,-411 -114,0 -220,46 -296,126 -87,-66 -193,-101 -304,-101 -256,0 -468,191 -502,437 -455,50 -803,432 -803,898 0,83 11,166 34,245 -64,87 -99,192 -99,300 0,177 90,337 238,429 0,1 0,2 0,3 0,498 405,904 903,904 109,0 216,-20 316,-58zm10817 -1808l841 -813 0 -1615 588 0 0 1047 952 -919 2380 2300 0 2918 -1698 0 -1365 0 -1698 0 0 -2918zm-13449 2938l-1539 0 0 -2 -5008 0 0 -3337 9 0 3571 -2300 1344 865 0 -500 558 0 0 860 1669 1075 0 3337 -604 0 0 2zm6468 8l0 5 1425 0 0 -5 4999 0 0 -5419 -1214 -2398 -3777 0 0 -1070 -907 0 0 1070 -617 0 -1214 2398 0 5419 1305 0zm13130 -4l0 5 1347 0 0 -5 3521 0 0 -4761 2 0 -866 -1755 -2657 0 0 -605 -559 0 0 605 -561 0 -866 1755 0 4761 639 0z"/>
  <rect class="fil2" y="17607" width="48790" height="102"/>
  <g id="_2714987310320">
   <path class="fil3" d="M22407 15887c49,2 131,5 187,3 57,-2 88,-7 106,-15 18,-7 23,-17 15,-33 -9,-16 -29,-40 -58,-70 -29,-31 -67,-68 -105,-100 -38,-32 -77,-57 -116,-81 -40,-25 -79,-48 -116,-69 -37,-20 -72,-38 -106,-53 -35,-15 -69,-27 -94,-35 -24,-8 -39,-11 -57,-13 -18,-1 -40,-1 -68,-1 -28,0 -61,1 -85,5 -24,3 -39,10 -50,18 -11,8 -18,18 -19,35 0,17 5,41 23,71 18,30 48,65 83,100 34,34 73,68 117,102 44,34 93,69 138,91 45,22 86,31 114,37 28,5 43,6 91,8z"/>
   <rect class="fil4" x="16149" y="13496" width="526" height="561" rx="62" ry="59"/>
   <polygon class="fil5" points="16220,13496 16603,13496 16603,13784 16220,13784 "/>
   <path class="fil6" d="M11426 15219c-16,-13 -21,-40 -24,-70 -2,-29 -2,-60 3,-88 5,-28 15,-53 28,-73 13,-19 29,-33 48,-43 19,-10 41,-15 190,-17 149,-2 425,-1 569,-1 144,-1 156,-4 256,-43 100,-39 289,-114 521,-205 233,-92 509,-198 781,-294 272,-96 540,-180 775,-242 234,-61 434,-98 625,-128 190,-29 369,-50 543,-62 95,-7 187,-11 283,-13 -1,-2 -1,-4 -1,-6l0 0c0,-36 30,-66 67,-66l617 0c36,0 66,30 66,66l0 0c0,8 -1,16 -4,23 30,2 60,5 90,8 194,20 375,52 551,94 176,42 346,92 519,159 173,67 349,151 528,250 178,100 359,216 522,322 162,106 307,202 379,251 73,48 73,48 73,48 0,0 0,0 0,0 0,0 0,0 347,38 348,39 1043,115 1481,173 437,57 617,95 707,114 89,18 89,18 89,18 0,0 0,0 -30,0 -31,0 -92,0 -124,10 -33,10 -37,30 -19,71 19,41 59,103 109,157 50,54 110,100 165,134 54,33 104,56 196,66 93,10 228,9 296,8 68,0 68,0 68,0 0,0 0,0 0,0 0,0 0,0 10,19 10,20 31,59 39,120 8,61 3,145 0,186 -3,42 -3,42 -3,42 0,0 0,0 7,0 6,0 19,0 26,0 7,0 7,0 7,0 0,0 0,0 0,49 0,49 0,146 0,195 0,49 0,49 0,49 0,0 0,0 0,0 0,0 0,0 -6,-1 -6,-2 -18,-4 -24,-6 -6,-1 -6,-1 -6,-1 0,0 0,0 0,0 0,0 0,0 0,35 0,35 0,106 -4,161 -3,55 -11,96 -24,131 -13,35 -32,65 -54,89 -22,24 -48,42 -82,58 -34,16 -75,29 -187,42 -111,13 -292,26 -382,32 -91,7 -91,7 -91,7 0,0 0,0 -13,-7 -14,-6 -42,-19 -55,-26 -14,-6 -14,-6 -14,-6 0,0 0,0 -10,0 -11,1 -32,2 -42,3 -10,1 -10,1 -284,10 -275,9 -823,27 -1097,36 -274,9 -274,9 -274,9 0,0 0,0 -2,7 -3,8 -8,22 -11,29 -2,7 -2,7 -2,7 0,0 0,0 -935,-10 -934,-11 -2802,-31 -3774,-44 -971,-12 -1045,-16 -1082,-18 -37,-2 -37,-2 -280,-6 -242,-5 -726,-14 -1059,-27 -332,-13 -513,-30 -747,-56 -233,-25 -518,-59 -685,-82 -167,-24 -217,-37 -257,-54 -39,-18 -69,-40 -89,-63 -19,-23 -28,-46 -28,-180 0,-134 9,-379 18,-514 9,-134 18,-159 56,-205 39,-45 107,-112 209,-203 102,-91 239,-207 314,-281 74,-73 87,-104 87,-130 -1,-25 -15,-45 -47,-59 -32,-14 -81,-23 -141,-20 -60,3 -131,19 -179,27 -49,9 -77,10 -93,-3z"/>
   <path class="fil7" d="M22281 15858c21,5 44,9 71,12l13 1 0 1 -688 214 0 -39 604 -189z"/>
   <path class="fil7" d="M11325 15835c10,-10 21,-21 33,-33l1180 198 356 180 -20 35 -367 -184 -1182 -196z"/>
   <path class="fil8" d="M21879 15454c-11,12 -9,30 3,59 19,41 59,103 109,157 26,29 56,55 85,78l8 8c0,0 0,0 -93,-2 -93,-2 -278,-7 -370,-9 -93,-2 -93,-2 -93,-2 0,0 0,0 -27,-13 -26,-13 -79,-39 -133,-56 -55,-18 -111,-28 -179,-35 -69,-7 -150,-12 -223,-6 -72,5 -137,20 -186,33 -49,13 -83,25 -99,31 -17,5 -17,5 -17,5 0,0 0,0 -171,-4 -172,-4 -515,-12 -686,-16 -172,-4 -172,-4 -172,-4 0,0 0,0 0,0 0,0 0,0 -11,-35 -12,-35 -35,-106 -61,-171 -27,-66 -57,-127 -94,-183 -36,-56 -79,-106 -100,-131 -22,-26 -22,-26 -22,-26 0,0 0,0 66,4 66,4 198,11 345,20 147,9 310,19 480,35 170,15 347,36 517,58 170,22 335,45 488,70 153,24 295,51 412,78 94,21 172,43 224,57z"/>
   <path class="fil4" d="M11515 15153c56,-7 139,-12 201,-13 62,0 102,3 137,14 36,10 66,27 88,48 22,21 36,46 43,60 7,14 7,18 2,28 -6,10 -18,25 -54,57 -37,32 -98,80 -164,134 -66,53 -136,112 -194,159 -59,46 -106,82 -141,108 -35,27 -59,45 -70,54 -12,9 -12,9 -12,9 0,0 0,0 6,-97 6,-98 17,-293 26,-399 8,-106 13,-123 30,-136 17,-12 46,-20 102,-26z"/>
   <path class="fil9" d="M11980 15253c1,3 3,6 4,9 7,14 7,18 2,28 -5,8 -15,21 -41,45l-564 0 2 -20c2,-26 4,-46 5,-62l592 0zm-337 330c-24,20 -48,39 -69,57 -12,8 -22,17 -33,25l-181 0 5 -82 278 0z"/>
   <circle class="fil10" cx="13642" cy="16725" r="891"/>
   <circle class="fil11 str0" cx="13642" cy="16725" r="625"/>
   <path class="fil12" d="M16726 15119c14,59 40,165 64,296 24,132 46,290 59,469 12,180 15,382 13,513 -1,27 -1,52 -2,74l-1701 0 3 24 1697 -3c-2,37 -4,66 -7,92l-1690 0 0 67 1681 0c-10,61 -22,124 -29,156 -6,32 -6,32 -6,32 0,0 0,0 0,0 0,0 0,0 -297,0 -297,0 -891,0 -1188,0 -297,0 -297,0 -297,0 0,0 0,0 0,0 0,0 0,0 -28,-70 -28,-70 -83,-209 -188,-408 -105,-199 -259,-459 -402,-681 -143,-223 -276,-409 -351,-514 -75,-105 -92,-128 -86,-140 5,-12 32,-12 487,-5 455,6 1338,19 1785,23 446,3 457,-4 462,0 6,3 8,16 21,75zm77 63c16,75 44,200 65,338 20,138 35,289 42,408 7,119 7,206 5,313 -1,72 -3,153 -8,230l2663 0c2,-20 3,-40 4,-61 8,-176 6,-385 -3,-542 -8,-157 -22,-261 -53,-352 -31,-91 -78,-170 -126,-232 -49,-63 -100,-109 -125,-133 -26,-23 -26,-23 -26,-23 0,0 0,0 0,0 0,0 0,0 0,0 0,0 0,0 -411,-12 -410,-12 -1232,-35 -1643,-47 -411,-12 -411,-12 -411,-12 0,0 0,0 3,13 3,12 8,37 24,112zm103 1310c-2,29 -4,58 -7,85l0 7 2662 0c3,-30 6,-63 8,-97l-2663 5zm-15 159c-9,67 -19,118 -25,148 -8,40 -8,40 -8,40 0,0 0,0 0,0 0,0 0,0 445,4 445,5 1334,14 1779,18 444,5 444,5 444,5 0,0 0,0 0,0 0,0 0,0 10,-70 5,-34 12,-84 19,-145l-2664 0z"/>
   <rect class="fil11" x="14343" y="15207" width="586" height="131"/>
   <rect class="fil13" x="14423" y="15251" width="425.773" height="42.9671"/>
   <rect class="fil11" x="16976" y="15254" width="586" height="131"/>
   <rect class="fil13" x="17057" y="15298" width="425.773" height="42.9671"/>
   <polygon class="fil14" points="13501,17239 13796,17239 13654,16852 "/>
   <polygon class="fil14" points="13156,16891 13315,17140 13564,16810 "/>
   <polygon class="fil14" points="14137,16891 13978,17140 13729,16811 "/>
   <polygon class="fil14" points="14091,16427 14193,16704 13780,16703 "/>
   <polygon class="fil14" points="13198,16425 13096,16702 13509,16701 "/>
   <polygon class="fil14" points="13984,16303 13714,16185 13690,16597 "/>
   <polygon class="fil14" points="13291,16303 13561,16185 13585,16597 "/>
   <path class="fil15" d="M14099 14975c159,8 450,8 595,8 145,0 145,0 145,0 0,0 0,0 0,0 0,0 0,0 -21,-128 -22,-128 -65,-385 -86,-513 -22,-128 -22,-128 -22,-128 0,0 0,0 0,0 0,0 0,0 -75,21 -75,20 -224,62 -337,98 -113,36 -188,66 -251,99 -62,33 -112,69 -148,109 -37,40 -60,83 -71,128 -11,46 -10,94 2,139 12,45 34,87 59,115 24,29 52,45 210,52z"/>
   <path class="fil16" d="M14565 14983c49,0 93,0 129,0 145,0 145,0 145,0 0,0 0,0 0,0 0,0 0,0 -21,-128 -22,-128 -65,-385 -86,-513 -22,-128 -22,-128 -22,-128 0,0 0,0 0,0 0,0 0,0 -75,21 -75,20 -224,62 -337,98 -70,22 -126,42 -173,62l440 588z"/>
   <path class="fil15" d="M14826 14381c23,131 65,367 87,484 21,118 22,118 23,118 1,0 1,0 1,0 0,0 0,0 255,3 255,4 765,10 1021,14 255,3 255,3 255,3 0,0 0,0 0,0 0,0 0,0 -14,-164 -15,-163 -43,-490 -58,-653 -14,-164 -14,-164 -14,-164 0,0 0,0 0,0 0,0 0,0 -81,4 -82,3 -245,9 -416,20 -172,11 -353,27 -517,48 -164,21 -312,47 -405,65 -93,18 -132,29 -151,34 -20,5 -20,5 -20,5 0,0 0,0 3,13 2,13 8,39 31,170z"/>
   <path class="fil16" d="M14826 14381c23,131 65,367 87,484 21,118 22,118 23,118 1,0 1,0 1,0 0,0 0,0 255,3l321 5 -640 -813c-32,7 -50,12 -61,15 -20,5 -20,5 -20,5 0,0 0,0 3,13 2,13 8,39 31,170z"/>
   <path class="fil15" d="M16727 14370c61,156 155,394 202,514 47,119 47,119 47,119 0,0 0,0 0,0 0,0 0,0 0,0 0,0 0,0 290,4 290,4 871,11 1161,15 291,4 291,4 291,4 0,0 0,0 0,0 0,0 0,0 0,-36 0,-37 0,-110 -1,-148 -1,-38 -2,-42 -2,-44 -1,-2 -1,-2 -1,-2 0,0 0,0 -33,-30 -34,-29 -100,-87 -202,-154 -102,-66 -240,-140 -399,-211 -158,-71 -336,-139 -487,-184 -150,-45 -272,-67 -395,-87 -123,-19 -247,-36 -345,-46 -99,-11 -172,-15 -208,-17 -37,-2 -37,-2 -22,35 14,38 43,112 104,268z"/>
   <path class="fil16" d="M18718 14942c0,-35 0,-75 -1,-100 -1,-38 -2,-42 -2,-44 -1,-2 -1,-2 -1,-2 0,0 0,0 -33,-30 -34,-29 -100,-87 -202,-154 -62,-40 -137,-83 -221,-126l460 456z"/>
   <path class="fil16" d="M16727 14370l35 90 536 547 1023 14 -796 -824c-120,-32 -224,-50 -327,-67 -123,-19 -247,-36 -345,-46 -99,-11 -172,-15 -208,-17 -37,-2 -37,-2 -22,35 14,38 43,112 104,268z"/>
   <path class="fil8" d="M13493 15005l-2064 -10c-11,18 -20,41 -24,66 -5,25 -5,52 -4,78 57,-9 124,-19 180,-26 89,-10 150,-11 201,-6 51,5 91,17 122,30 30,14 51,30 69,48 17,18 31,39 41,60 9,21 13,42 12,57 -1,16 -6,26 -8,31l-3 6 92 21c93,22 278,65 424,87 147,23 255,26 531,30 276,5 720,11 942,15l222 3 -52 -82 -209 -325 -52 -81 -420 -2z"/>
   <path class="fil13" d="M13642 15757c-535,0 -969,433 -969,968 0,106 17,207 48,302 27,2 55,4 84,5 -35,-95 -54,-199 -54,-307 0,-492 399,-890 891,-890 491,0 890,398 890,890 0,126 -26,245 -73,354 23,0 50,1 84,1 43,-110 67,-229 67,-355 0,-535 -433,-968 -968,-968z"/>
   <circle class="fil10" cx="21040" cy="16733" r="891"/>
   <circle class="fil11 str0" cx="21040" cy="16733" r="625"/>
   <polygon class="fil14" points="20899,17246 21194,17247 21052,16859 "/>
   <polygon class="fil14" points="20554,16899 20713,17148 20962,16818 "/>
   <polygon class="fil14" points="21536,16899 21376,17148 21127,16818 "/>
   <polygon class="fil14" points="21489,16435 21591,16712 21178,16711 "/>
   <polygon class="fil14" points="20596,16433 20494,16710 20907,16709 "/>
   <polygon class="fil14" points="21383,16311 21112,16193 21088,16605 "/>
   <polygon class="fil14" points="20689,16311 20960,16193 20984,16605 "/>
   <path class="fil13" d="M21040 15764c-535,0 -969,434 -969,969 0,76 9,149 25,219 3,15 6,30 9,42 6,21 11,37 17,52 5,14 11,27 16,37 5,9 10,16 14,22l1 -1 75 -2c-5,-15 -14,-40 -24,-68 -11,-32 -23,-69 -32,-106 -5,-22 -10,-43 -13,-61 -6,-44 -10,-88 -10,-134 0,-492 399,-890 891,-890 492,0 890,398 890,890 0,126 -26,245 -73,353 23,1 51,2 84,2 44,-110 67,-230 67,-355 0,-535 -433,-969 -968,-969z"/>
   <circle class="fil17 str1" cx="13643" cy="16708" r="80"/>
   <circle class="fil17 str1" cx="21049" cy="16724" r="80"/>
   <path class="fil18" d="M21967 15514c-6,15 16,51 41,85 24,33 52,64 85,94 34,30 74,59 111,81 37,22 71,36 109,46 38,10 79,15 99,17 21,3 21,3 21,3 0,0 0,0 -66,-54 -65,-54 -196,-162 -278,-220 -83,-58 -116,-66 -122,-52z"/>
   <ellipse class="fil3" cx="22559" cy="16687" rx="88" ry="138"/>
   <path class="fil7" d="M16706 14796c-39,-163 -113,-477 -155,-635 -16,-58 -27,-95 -35,-119 -4,0 -8,-1 -12,-2 -4,-1 -8,-3 -12,-5 4,24 12,63 25,127 34,164 106,492 142,656 36,164 36,164 36,164 0,0 0,0 9,1 9,0 27,2 36,2 9,1 9,1 9,1 0,0 0,0 -1,-7 -1,-6 -4,-19 -42,-183z"/>
   <path class="fil17 str2" d="M16637 14981c-791,-11 -1660,-15 -2121,-19 -461,-5 -514,-10 -553,-20 -38,-10 -61,-24 -80,-41 -19,-17 -33,-36 -45,-63 -11,-27 -18,-61 -17,-98 1,-37 12,-77 30,-116 18,-38 44,-74 79,-107 34,-33 77,-61 134,-89 58,-27 129,-53 240,-88 111,-35 260,-80 415,-119 155,-39 315,-72 470,-97 154,-25 302,-41 478,-55 176,-14 379,-27 537,-31 158,-4 272,1 412,14 140,12 306,31 466,57 159,26 312,59 449,96 137,37 260,79 392,132 132,52 274,116 401,186 127,70 239,145 307,196 67,51 91,77 119,110 28,33 60,73 81,108 21,34 30,63 33,77 2,15 -2,15 -361,6 -359,-10 -1074,-28 -1866,-39z"/>
   <path class="fil19" d="M15331 15594c42,0 82,10 121,28 37,19 68,46 90,81 22,35 33,77 33,128 0,50 -11,93 -33,128 -22,36 -53,63 -90,81 -39,19 -79,28 -121,28l-161 0 0 283 -160 0 0 -757 321 0zm-31 331c35,0 62,-8 81,-25 18,-15 27,-39 27,-69 0,-31 -9,-55 -27,-70 -19,-17 -46,-25 -81,-25l-130 0 0 189 130 0z"/>
   <path id="1" class="fil19" d="M16306 15976c0,-40 -8,-78 -24,-115 -18,-37 -43,-67 -77,-90 -34,-23 -77,-36 -127,-37 -51,0 -92,12 -125,35 -35,24 -60,54 -76,91 -17,35 -26,74 -26,116 0,42 9,81 26,117 16,36 41,66 76,90 33,23 74,35 125,35 50,-1 93,-14 127,-37 34,-23 59,-53 77,-90 16,-37 24,-75 24,-115zm-227 -396c109,0 203,39 280,116 77,78 116,171 116,281 0,108 -39,201 -116,279 -77,77 -171,116 -280,116 -109,0 -202,-39 -280,-116 -77,-78 -116,-171 -116,-279 0,-110 39,-203 116,-281 78,-77 171,-116 280,-116z"/>
   <polygon id="2" class="fil19" points="17033,16352 16584,16352 16584,15594 16744,15594 16744,16210 17033,16210 "/>
   <polygon id="3" class="fil19" points="17354,15594 17354,16352 17194,16352 17194,15594 "/>
   <path id="4" class="fil19" d="M17653 16016c3,34 12,64 27,92 19,36 46,64 79,83 33,20 71,29 113,29 45,0 84,-10 118,-31 34,-21 58,-49 74,-84l125 78c-22,59 -62,106 -119,139 -58,33 -123,50 -197,50 -72,0 -137,-16 -196,-48 -60,-31 -107,-76 -141,-135 -35,-59 -52,-129 -52,-211 0,-83 17,-153 52,-212 34,-59 81,-104 141,-135 59,-32 124,-47 196,-47 74,0 139,16 197,49 57,34 97,80 119,140l-125 77c-16,-34 -40,-62 -74,-84 -34,-21 -73,-31 -118,-31 -42,0 -80,10 -113,29 -33,19 -60,47 -79,84 -15,27 -24,57 -27,91 -2,21 -2,47 0,77z"/>
   <polygon id="5" class="fil19" points="18785,16352 18310,16352 18310,15594 18774,15594 18774,15736 18470,15736 18470,15898 18742,15898 18742,16038 18470,16038 18470,16211 18785,16211 "/>
  </g>
  <g id="_2714991559296">
   <path class="fil20" d="M23216 13605l179 0c1,-7 3,-13 4,-20 4,-14 7,-28 11,-39 7,-23 15,-39 28,-54 12,-15 30,-29 45,-43 16,-14 29,-28 39,-43 10,-16 17,-32 15,-45 -3,-14 -14,-24 -24,-29 -10,-5 -18,-5 -22,-5 -4,0 -4,0 -5,-55 0,-55 -2,-164 -6,-225 -3,-61 -8,-74 -15,-83 -7,-9 -17,-14 -27,-15 -11,-1 -23,1 -34,7 -10,5 -20,15 -25,43 -5,27 -6,72 -6,94 -1,23 -1,23 -14,26 -14,3 -41,10 -61,16 -19,7 -30,13 -53,18 -23,4 -58,7 -81,10 -23,3 -33,6 -39,38 -5,33 -5,94 -1,142 3,49 9,85 19,113 10,28 24,49 36,68 12,19 23,36 30,54 0,2 1,4 2,6 2,7 4,14 5,21z"/>
   <path class="fil21" d="M23216 13605l46 0c-4,-13 -8,-28 -13,-40 -4,-12 -10,-22 -16,-32 -6,-10 -14,-20 -22,-33 -9,-13 -18,-29 -27,-50 -8,-21 -16,-48 -21,-78 -5,-30 -7,-64 -8,-92 -1,-28 -1,-50 2,-65 3,-15 9,-23 19,-28 9,-5 23,-8 34,-7 12,1 21,5 30,7 9,2 18,1 27,-3 9,-5 18,-12 27,-17 9,-6 18,-9 29,-9 11,1 24,6 34,5 10,-1 17,-7 21,-14 5,-8 7,-18 8,-36 2,-19 3,-46 5,-69 2,-23 5,-42 10,-55 4,-13 10,-21 17,-26 8,-5 17,-7 28,-6 5,0 10,1 15,2 -7,-6 -15,-9 -23,-10 -11,-1 -23,1 -34,7 -10,5 -20,15 -25,43 -5,27 -6,72 -6,94 -1,23 -1,23 -14,26 -14,3 -41,10 -61,16 -19,7 -30,13 -53,18 -23,4 -58,7 -81,10 -23,3 -33,6 -39,38 -5,33 -5,94 -1,142 3,49 9,85 19,113 10,28 24,49 36,68 12,19 23,36 30,54 0,2 1,4 2,6 2,7 4,14 5,21z"/>
   <path class="fil22" d="M23161 13584l0 130c0,131 0,393 5,538 5,145 14,173 29,194 15,21 37,35 130,42 92,8 256,8 338,8l82 0 0 146 -1 592 0 136 101 0c28,0 28,0 28,13 0,6 1,15 1,30 20,3 43,7 68,12 63,11 141,23 251,33 15,1 32,3 48,4l0 -12 63 0c7,28 19,53 36,65 25,18 63,6 93,-6 30,-13 51,-25 69,-52 1,-2 3,-5 4,-7l59 0 0 17c1,0 2,0 2,0l106 0c7,0 14,3 19,7 34,-2 67,-4 98,-6 3,-8 12,-8 46,-7l34 0c33,-3 62,-6 85,-10 24,-3 42,-7 56,-9 9,-5 17,-9 24,-12 0,-56 2,-56 14,-56 7,-1 16,-1 26,0 1,-16 1,-47 1,-129l0 -534 0 -133 42 24 156 87 0 -481c-30,-16 -72,-35 -109,-51 -43,-19 -80,-32 -118,-45 -39,-13 -80,-26 -121,-36 -42,-10 -85,-18 -124,-25 -40,-8 -75,-15 -104,-21 -29,-6 -50,-10 -76,-17 -4,-2 -8,-3 -13,-4 -11,-3 -22,-7 -33,-11l0 -5 0 -49c-1,0 -2,0 -3,1 -4,3 -9,6 -13,9 -16,10 -30,15 -49,19 -20,5 -45,9 -70,11 -26,2 -52,2 -78,0 -26,-3 -52,-7 -72,-12 -19,-5 -31,-11 -41,-17 -5,-2 -9,-5 -13,-8 0,0 -1,0 -1,0l0 51c-5,2 -11,4 -16,7 -8,5 -16,10 -24,16 -30,9 -66,20 -128,33 -84,17 -214,40 -309,55 -96,15 -156,22 -196,26 -40,5 -58,6 -72,6 -13,1 -21,1 -25,1 -5,0 -6,0 -7,-93 -1,-92 -1,-278 -1,-371l0 -92 -49 -1 -10 0 -188 -1 0 0 -50 0z"/>
   <path class="fil23" d="M25077 14579l41 23 156 87 0 -47 -15 -5c-36,-13 -109,-37 -146,-50 -36,-12 -36,-12 -36,-12l0 4z"/>
   <path class="fil23" d="M23161 13584l0 130c0,131 0,393 5,538 5,145 14,173 29,194 15,21 37,35 130,42 92,8 256,8 338,8l80 0c-2,-15 -7,-19 -15,-22 -8,-4 -18,-8 -43,-10 -24,-3 -62,-5 -123,-8 -61,-3 -144,-9 -200,-13 -57,-5 -86,-10 -106,-16 -19,-6 -29,-14 -36,-24 -7,-9 -11,-22 -17,-156 -5,-134 -12,-390 -18,-522 -5,-106 -10,-132 -15,-141l-9 0z"/>
   <polygon class="fil20" points="24236,13921 24576,13921 24576,14028 24434,14156 24386,14156 24236,14017 "/>
   <path class="fil24" d="M24212 13923c-2,3 7,11 15,17 8,6 14,10 23,15 10,6 22,12 41,17 20,5 46,9 72,12 26,2 52,2 78,0 25,-2 50,-6 70,-11 19,-4 33,-9 49,-19 16,-10 34,-25 43,-32 9,-8 9,-8 9,-8 0,0 0,0 -9,2 -8,2 -24,5 -56,9 -32,4 -80,8 -124,9 -45,0 -87,-3 -117,-6 -30,-2 -48,-3 -63,-5 -16,-1 -29,-3 -31,0z"/>
   <path class="fil20" d="M23836 13191c-4,24 -9,57 -11,73 -3,16 -3,16 -3,16 0,0 0,0 -2,0 -2,0 -7,0 -13,2 -6,2 -14,5 -21,13 -8,7 -15,18 -20,35 -4,16 -5,38 -5,57 1,19 4,35 8,49 4,15 10,28 17,37 8,10 17,16 27,20 10,5 21,7 32,8 12,1 24,1 31,1 6,0 6,0 6,0 0,0 0,0 1,24l0 21c2,15 5,32 8,49 4,26 10,50 18,72 7,23 15,45 24,64 8,19 18,35 27,49 10,14 20,26 33,39 13,14 29,29 44,41 16,13 31,22 49,32 17,9 36,19 58,27 22,9 46,16 68,22 22,5 42,9 62,11 19,2 38,2 63,2 25,1 56,1 89,0 33,0 67,-3 100,-5 33,-3 64,-7 93,-13 29,-7 56,-16 81,-29 26,-13 50,-29 70,-44 19,-14 36,-27 50,-44 15,-17 29,-37 42,-58 13,-21 27,-42 39,-66 12,-23 22,-49 30,-75 9,-25 15,-50 19,-73 5,-23 8,-45 9,-56 2,-11 2,-11 2,-11 0,0 0,0 2,1 2,1 7,2 14,2 8,1 19,0 31,-3 2,-1 5,-1 7,-2 4,-2 8,-5 12,-8 10,-10 17,-25 22,-44 4,-20 6,-43 7,-65 1,-22 1,-42 -4,-58 -4,-16 -13,-28 -20,-34 -6,-7 -10,-9 -13,-10 -2,-1 -2,-1 -2,-16 -1,-15 -1,-45 -2,-59 0,-15 0,-15 -1,-36 -1,-20 -3,-60 -8,-90 -6,-30 -15,-49 -52,-65 -37,-16 -102,-29 -208,-36 -106,-7 -253,-8 -373,-5 -120,2 -215,7 -285,14 -71,8 -118,18 -151,33 -32,15 -49,36 -62,60 -13,24 -23,51 -28,72 -6,21 -8,36 -11,59z"/>
   <path class="fil21" d="M23802 13284c-5,2 -11,5 -16,11 -8,7 -15,18 -20,35 -4,16 -5,38 -5,57 1,19 4,35 8,49 4,15 10,28 17,37 8,10 17,16 27,20 10,5 21,7 32,8 12,1 24,1 31,1 6,0 6,0 6,0 0,0 0,0 1,24l0 21c2,15 5,32 8,49 4,26 10,50 18,72 7,23 15,45 24,64 8,19 18,35 27,49 10,14 20,26 33,39 13,14 29,29 44,41 16,13 31,22 49,32 17,9 36,19 58,27 22,9 46,16 68,22 22,5 42,9 62,11 19,2 38,2 63,2 25,1 56,1 89,0 33,0 67,-3 100,-5 33,-3 64,-7 93,-13 29,-7 56,-16 81,-29 26,-13 50,-29 70,-44 19,-14 36,-27 50,-44 15,-17 29,-37 42,-58 13,-21 27,-42 39,-66 12,-23 22,-49 30,-75 9,-25 15,-50 19,-73 5,-23 8,-45 9,-56 2,-11 2,-11 2,-11 0,0 0,0 2,1 2,1 7,2 14,2 8,1 19,0 31,-3 2,-1 5,-1 7,-2 4,-2 8,-5 12,-8 10,-10 17,-25 22,-44 4,-20 6,-43 7,-65 1,-22 1,-42 -4,-58 -4,-16 -13,-28 -20,-34 -2,-3 -4,-5 -6,-6 3,9 6,20 8,32 3,15 4,31 3,50 -1,18 -5,39 -10,56 -5,17 -13,30 -23,39 -10,9 -23,13 -34,15 -10,2 -18,2 -22,1 -4,0 -4,0 -4,0 0,0 0,0 -1,7 -1,6 -4,19 -8,39 -4,19 -10,45 -18,72 -9,27 -20,54 -32,78 -11,23 -24,43 -38,63 -15,21 -32,41 -50,59 -19,18 -37,34 -55,48 -19,14 -36,27 -57,39 -20,12 -43,23 -68,31 -25,9 -51,14 -80,18 -29,4 -61,5 -96,7 -34,1 -71,2 -103,2 -32,-1 -59,-2 -87,-7 -28,-4 -59,-13 -86,-22 -27,-10 -51,-21 -72,-33 -22,-13 -41,-27 -58,-42 -16,-15 -30,-30 -43,-49 -13,-19 -25,-41 -36,-64 -10,-22 -19,-44 -26,-69 -7,-25 -13,-52 -18,-80 -4,-27 -6,-56 -7,-70 -1,-14 -1,-14 -1,-14 0,0 0,0 -8,3 -8,3 -24,8 -37,10 -13,1 -23,-2 -32,-9 -9,-7 -17,-19 -23,-31 -6,-13 -11,-28 -14,-45 -3,-18 -5,-39 -4,-57 1,-18 3,-33 8,-43 3,-6 6,-10 8,-14z"/>
   <path class="fil25" d="M24328 13794c4,5 9,9 14,14 5,4 10,8 15,12 6,3 12,5 19,7 8,2 17,4 26,4 10,1 19,1 29,1 10,0 21,-1 30,-3 8,-1 13,-4 18,-7 4,-3 8,-6 12,-11 4,-4 7,-10 9,-14 1,-3 1,-3 -15,-4 -15,-1 -47,-2 -78,-5 -31,-2 -62,-5 -75,-4 -13,1 -8,5 -4,10z"/>
   <path class="fil25" d="M24575 13540c-7,1 -17,1 -26,1 -8,-1 -15,-2 -20,-5 -6,-2 -10,-6 -14,-10 -4,-4 -8,-9 -13,-16 -4,-7 -10,-17 -15,-30 -6,-13 -11,-28 -14,-44 -4,-15 -6,-32 -6,-44 -1,-12 -1,-20 -1,-29 1,-10 2,-21 6,-31 4,-11 10,-21 16,-29 6,-9 12,-16 19,-21 8,-5 16,-9 22,-11 6,-3 10,-3 17,-1 6,2 15,7 29,29 14,22 33,61 43,97 9,36 9,70 5,92 -4,23 -13,33 -19,40 -6,6 -9,8 -13,9 -4,2 -8,3 -16,3z"/>
   <path class="fil25" d="M24306 13535c10,-1 18,-4 25,-11 7,-7 13,-18 21,-33 7,-14 15,-32 20,-50 5,-18 5,-35 5,-53 0,-17 0,-34 -2,-48 -2,-13 -5,-24 -10,-33 -4,-9 -11,-18 -17,-24 -7,-6 -14,-11 -21,-13 -7,-3 -15,-4 -28,-4 -13,0 -31,1 -47,5 -15,3 -27,9 -38,30 -10,20 -19,55 -17,88 3,33 17,65 32,89 15,25 31,42 44,51 13,8 24,8 33,6z"/>
   <path class="fil25" d="M23979 13117c0,46 0,129 0,171 0,41 0,41 -9,37 -9,-3 -27,-11 -43,-20 -15,-9 -29,-21 -39,-49 -11,-28 -19,-74 -18,-113 1,-40 11,-73 26,-90 15,-16 37,-15 52,-12 15,3 23,7 27,14 4,7 4,16 4,62z"/>
   <path class="fil25" d="M24899 13250c-1,-43 -1,-121 -1,-159 0,-39 0,-39 16,-39 16,0 47,0 64,11 17,11 19,32 20,57 1,24 0,51 -4,72 -4,22 -11,37 -27,56 -16,18 -41,40 -54,47 -13,6 -14,-3 -14,-45z"/>
   <path class="fil26" d="M24076 12874c-181,2 -198,-2 -229,-22 -1,0 -2,-1 -4,-1 -6,21 -16,57 -21,85 -3,14 -4,25 -5,35l0 0 0 1c0,4 0,11 0,22 -1,16 -1,41 0,72 1,30 2,66 4,91 2,20 3,34 5,45 1,7 1,13 2,19 1,9 2,17 3,22 1,5 2,8 2,10 1,5 1,5 14,8l52 13 10 3 -1 -2 4 1 0 -32 0 -134 0 -34 35 10c35,10 104,29 182,43 78,13 164,20 240,23 76,2 143,1 206,-4 63,-4 123,-10 185,-22 62,-12 127,-29 159,-37l32 -9 0 30 0 117 0 29 16 -10 35 -23 27 -17 16 -11 -1 -23c0,-12 -1,-30 -1,-50l-1 -6c0,-17 0,-38 0,-58 0,-20 0,-40 0,-57 0,-2 0,-4 0,-6 -1,-16 -2,-49 -8,-80 -5,-27 -14,-54 -23,-76 -24,14 -57,15 -201,19 -184,4 -547,13 -734,16z"/>
   <path class="fil27" d="M24969 12786c11,2 24,19 36,43 12,23 23,54 29,86 6,31 7,64 8,80 0,16 0,16 -71,16 -72,0 -215,0 -419,0 -204,0 -469,-1 -602,-1 -132,-1 -132,-1 -133,-11 0,-11 -1,-33 5,-63 5,-31 17,-71 23,-90 6,-20 6,-20 105,-23 100,-3 299,-8 481,-10 181,-2 346,-2 432,-8 86,-7 95,-20 106,-19z"/>
   <ellipse class="fil24" cx="24679" cy="13275" rx="94" ry="31"/>
   <path class="fil28" d="M25012 12838c13,-4 20,-10 31,-21 31,-28 94,-86 124,-118 3,-4 6,-7 9,-11 11,-11 12,-15 12,-18 0,-4 -3,-8 -39,-30 -36,-21 -106,-60 -140,-80 -35,-19 -35,-19 -35,-19 0,0 0,0 -82,-25 -82,-25 -246,-74 -339,-101 -92,-27 -113,-31 -133,-30 -11,1 -22,3 -46,9 -15,3 -31,6 -51,11 -56,14 -136,36 -216,60l-205 55c-92,24 -92,24 -120,49 -21,18 -59,51 -88,77 -25,17 -36,28 -41,37 -7,9 -7,12 -3,17 2,12 12,25 38,46 34,27 95,67 125,88 18,11 25,16 34,18 31,20 48,24 229,22 187,-3 550,-12 734,-16 147,-4 179,-5 202,-20z"/>
   <path class="fil27" d="M25016 12837c10,-4 17,-11 27,-20 31,-28 94,-86 124,-118 3,-4 6,-7 9,-11 11,-11 12,-15 12,-18 0,-4 -3,-8 -39,-30 -36,-21 -106,-60 -140,-80 -35,-19 -35,-19 -35,-19l-32 -10c47,33 117,81 154,109 45,34 46,39 38,51 -8,13 -23,32 -45,59 -22,26 -49,59 -63,75 -5,6 -8,9 -10,12z"/>
   <path class="fil27" d="M23835 12538c-29,9 -35,15 -53,31 -21,18 -59,51 -88,77 -25,17 -36,28 -41,37 -7,9 -7,12 -3,17 2,12 12,25 38,46 34,27 95,67 125,88 17,11 25,16 33,18 -3,-3 -7,-7 -12,-11 -29,-24 -86,-72 -115,-100 -29,-28 -30,-35 -30,-43 1,-8 3,-16 23,-39 19,-23 56,-62 78,-84 23,-22 30,-28 43,-36l2 -1z"/>
   <ellipse class="fil24" cx="24158" cy="13276" rx="94" ry="31"/>
   <ellipse class="fil29" cx="24418" cy="12643" rx="113" ry="137"/>
   <path class="fil30" d="M24815 13266l-268 0c-12,0 -23,5 -31,13l0 0c-3,3 -4,6 -6,9 -1,4 -2,9 -3,14 -1,5 -1,11 -1,14 0,3 0,3 0,3 0,0 0,0 -5,-2 -5,-1 -16,-4 -28,-6 -13,-3 -29,-5 -44,-6 -15,-1 -30,-1 -43,0 -13,2 -23,5 -31,8 -8,3 -14,5 -17,6 -3,2 -3,2 -3,2 0,0 0,0 0,-6 0,-5 0,-16 -2,-24 -1,-2 -1,-4 -2,-5 -7,-12 -21,-20 -36,-20l-268 0c-18,0 -34,11 -40,27l-154 -35 151 139 0 0 0 102c0,23 20,42 43,42l268 0c24,0 43,-19 43,-42l0 -124 166 0 0 124c0,23 19,42 43,42l268 0c23,0 42,-19 42,-42l0 -125 188 -179 -197 86c-8,-9 -20,-15 -33,-15z"/>
   <path class="fil31" d="M24810 13266l-263 0c-12,0 -23,5 -31,13l0 0c-3,3 -4,6 -6,9 -1,4 -2,9 -3,14 -1,5 -1,11 -1,14 0,3 0,3 0,3l-1 -1 0 15c0,11 -1,27 -1,42l0 0 0 124c0,23 19,42 43,42l144 0 1 -1c12,-8 17,-20 19,-26 2,-6 2,-6 -25,-5 -27,0 -81,0 -111,-2 -30,-2 -35,-7 -38,-14 -3,-7 -4,-16 -4,-41 -1,-25 -2,-66 -1,-96 1,-29 3,-46 8,-55 4,-10 10,-12 16,-13 6,-1 13,-1 43,-1 30,0 83,-1 118,0 34,0 50,1 62,0 13,-2 22,-6 28,-14 1,-2 2,-5 3,-7z"/>
   <path class="fil31" d="M24282 13266l-255 0c-18,0 -34,11 -40,27l-154 -35 151 139 0 0 0 102c0,23 20,42 43,42l156 0c13,-8 19,-17 23,-22 5,-7 5,-7 -19,-6 -23,0 -71,1 -102,1 -30,-1 -45,-3 -55,-6 -10,-3 -15,-8 -19,-13 -3,-6 -4,-12 -4,-42 -1,-29 -1,-83 0,-113 2,-31 6,-39 11,-44 4,-6 10,-9 22,-11 12,-2 31,-2 56,-2 26,0 58,0 88,1 31,0 59,1 78,-5 10,-3 17,-8 20,-13z"/>
   <path class="fil32" d="M24319 13273c-7,-4 -15,-7 -24,-7l-67 0c0,23 1,57 -1,84 -2,33 -7,57 -15,81 -8,23 -19,47 -33,66 -13,19 -29,34 -44,44l104 0c8,-7 15,-16 23,-26 11,-16 21,-35 29,-56 8,-21 14,-45 18,-69 4,-25 7,-51 8,-72 2,-18 2,-33 2,-45z"/>
   <path class="fil32" d="M24815 13266l-67 0c0,16 0,36 0,55 -1,28 -2,54 -7,78 -4,25 -13,49 -23,70 -10,21 -21,39 -33,53 -7,8 -13,14 -18,19l86 0c1,-1 3,-3 5,-4 10,-9 20,-20 30,-34 9,-15 19,-33 26,-53 8,-21 13,-44 17,-68 3,-24 5,-49 6,-72 0,-14 0,-27 -1,-38 -6,-4 -13,-6 -21,-6z"/>
   <path class="fil33" d="M24420 13743c-67,0 -128,-11 -173,-29 6,55 81,98 173,98 92,0 167,-43 173,-98 -45,18 -106,29 -173,29z"/>
   <path class="fil34" d="M24356 13621c-13,-1 -31,-1 -41,-4 -10,-4 -12,-10 -12,-20 1,-10 4,-23 11,-32 6,-9 16,-14 29,-18 12,-4 28,-6 36,-7 8,-1 8,-1 8,-1 0,0 0,0 0,13 0,14 0,41 0,55 0,14 0,14 0,14 0,0 0,0 -4,0 -5,0 -14,0 -27,0z"/>
   <line class="fil17" x1="24098" y1="14476" x2="24098" y2= "14864" />
   <line class="fil17" x1="23923" y1="14603" x2="24278" y2= "14603" />
   <rect class="fil35" x="25274" y="13881" width="844" height="1152"/>
   <rect class="fil9" x="25351" y="13957" width="691" height="1000"/>
   <path class="fil20" d="M25944 13776c-26,-7 -54,-15 -80,-20 -27,-6 -52,-8 -71,-8 -18,0 -29,2 -37,8 -8,5 -12,13 -17,19 -6,7 -11,11 -23,16 -11,5 -27,12 -41,20 -13,8 -24,19 -30,30 -7,10 -8,21 -1,30 7,9 23,15 34,24 12,8 19,18 29,28 10,10 23,21 43,30 21,8 48,13 76,15 29,1 58,-1 82,-10 25,-10 44,-27 65,-39 21,-13 44,-21 67,-29 22,-7 44,-13 52,-21 9,-9 3,-20 -12,-32 -15,-13 -39,-27 -63,-37 -24,-11 -47,-16 -73,-24z"/>
   <path class="fil21" d="M25756 13955c19,7 44,11 70,13 29,1 58,-1 82,-10 25,-10 44,-27 65,-39 21,-13 44,-21 67,-29 9,-3 19,-6 28,-9 -12,1 -25,4 -41,8 -22,7 -51,17 -78,28 -27,10 -52,20 -77,26 -25,7 -51,9 -74,10 -15,1 -28,1 -42,2z"/>
   <path class="fil21" d="M25944 13776c-26,-7 -54,-15 -80,-20 -27,-6 -52,-8 -71,-8 -18,0 -29,2 -37,8 -8,5 -12,13 -17,19 -6,7 -11,11 -23,16 -11,5 -27,12 -41,20 -13,8 -24,19 -30,30 -7,10 -8,21 -1,30 7,9 23,15 34,24 5,3 9,7 13,10l0 0c0,-12 5,-26 12,-39 7,-12 16,-21 26,-28 11,-6 22,-10 35,-15 13,-4 28,-10 50,-14 21,-4 50,-6 81,-6 32,0 65,2 96,7 31,5 59,14 96,37l5 3c-2,-4 -7,-9 -12,-13 -15,-13 -39,-27 -63,-37 -24,-11 -47,-16 -73,-24z"/>
   <rect class="fil9" x="24290" y="15500" width="227" height="109"/>
   <path class="fil17 str3" d="M23872 15625c-1,14 -2,27 -3,38 -4,49 -12,62 -29,70 -17,8 -44,11 -66,8 -22,-3 -40,-12 -51,-25 -11,-13 -17,-31 -19,-89 -2,-59 -2,-158 -1,-207 0,-50 0,-50 28,-50 29,0 85,0 114,0 28,0 28,0 28,13 1,11 1,31 1,74 38,0 88,1 116,2 38,2 39,3 41,29 3,27 7,78 6,106 -2,29 -8,34 -43,35 -32,1 -87,-1 -122,-4z"/>
   <rect class="fil17 str3" x="24103" y="15467" width="165" height="173" rx="30" ry="26"/>
   <path class="fil36" d="M23995 17375c149,0 269,71 269,158l22 0 0 75 -588 0 0 -75 27 0c0,-87 121,-158 270,-158z"/>
   <path class="fil36" d="M24751 17375c149,0 269,71 269,158l22 0 0 75 -588 0 0 -75 27 0c0,-87 121,-158 270,-158z"/>
   <rect class="fil23" x="24364" y="14160" width="85.9341" height="1310.51"/>
   <path class="fil23" d="M24208 14344c-10,-18 -30,-55 -43,-90 -13,-35 -19,-68 -22,-94 -2,-26 -2,-45 4,-64 2,-10 6,-19 10,-28 -7,12 -14,26 -19,41 -6,17 -9,36 -10,55 -2,19 -2,38 2,62 5,24 13,54 24,78 10,25 22,45 33,60 11,15 21,26 26,31l4 6 30 -35 117 -139 0 -41 -112 136 -34 41 -10 -19z"/>
   <path class="fil23" d="M24450 14175l0 44c4,5 8,11 14,18l104 129 26 32 5 -4c6,-4 17,-12 28,-27 12,-15 23,-37 33,-61 10,-25 18,-52 23,-80 6,-29 8,-58 7,-85 -2,-27 -7,-50 -21,-74 -11,-19 -27,-38 -41,-53 -2,0 -4,-1 -6,-1l-13 -4c14,8 28,19 39,33 13,16 23,34 28,54 6,19 6,38 4,64 -3,26 -9,59 -22,94 -13,35 -33,72 -43,90l-10 19 -34 -41 -121 -147z"/>
   <path class="fil23" d="M23951 14476c-5,1 -11,4 -16,9 -5,4 -10,11 -13,18 -4,8 -6,16 -7,70 -1,54 -1,152 0,205 1,52 2,59 5,65 2,6 6,12 12,17 5,4 13,7 28,8 15,2 36,2 82,2 47,0 117,0 156,-1 39,0 45,-1 53,-3 7,-2 16,-7 23,-13 6,-7 10,-16 13,-24 2,-8 2,-14 1,-67 -1,-53 -2,-153 -4,-205 -1,-53 -3,-59 -7,-64 -4,-5 -10,-9 -16,-12 -6,-3 -13,-5 -16,-5 -3,-1 -3,-1 -3,-1 0,0 0,0 2,1 2,1 6,3 9,6 4,4 8,8 11,14 3,7 5,15 7,66 1,51 1,145 0,196 -1,51 -3,59 -5,66 -2,7 -5,13 -12,17 -6,4 -15,6 -63,6 -49,1 -137,0 -184,-2 -48,-1 -54,-3 -59,-6 -6,-4 -9,-10 -11,-60 -2,-51 -1,-146 0,-199 2,-54 3,-64 5,-72 2,-8 5,-14 10,-19 4,-6 10,-11 10,-14 0,-2 -5,-1 -11,1z"/>
   <rect class="fil23" x="23928" y="14591" width="350.244" height="23.4441"/>
   <rect class="fil23" x="24088" y="14475" width="19.523" height="382.806"/>
   <line class="fil17" x1="24757" y1="14487" x2="24757" y2= "14874" />
   <line class="fil17" x1="24582" y1="14613" x2="24936" y2= "14613" />
   <path class="fil29" d="M24645 14616c58,-3 171,-2 230,-4 58,-1 61,-3 62,-7 2,-4 2,-9 1,-18 -1,-9 -2,-23 -3,-29 0,-7 0,-7 -59,-6 -58,0 -175,1 -233,2 -58,0 -58,0 -59,6 -1,7 -2,19 -2,32 -1,12 0,25 1,28 2,4 4,-2 62,-4z"/>
   <path class="fil23" d="M24610 14486c-5,2 -11,4 -16,9 -5,5 -10,11 -14,19 -3,7 -5,16 -6,69 -1,54 -1,153 -1,205 1,53 3,59 6,65 2,7 6,13 11,17 6,4 14,7 29,9 14,1 36,2 82,2 47,0 117,-1 156,-1 39,-1 45,-1 53,-4 7,-2 16,-6 22,-13 7,-7 11,-16 13,-24 3,-7 3,-14 2,-67 -1,-53 -2,-152 -4,-205 -1,-53 -4,-59 -8,-64 -3,-5 -9,-9 -15,-12 -6,-2 -13,-4 -16,-5 -3,-1 -3,-1 -3,-1 0,0 0,0 2,1 2,1 6,4 9,7 4,3 7,7 10,14 3,6 6,14 7,65 2,51 2,145 1,196 -1,51 -3,59 -5,66 -3,8 -6,14 -12,17 -6,4 -15,6 -63,7 -49,0 -137,-1 -185,-2 -47,-1 -53,-3 -59,-7 -5,-4 -9,-9 -10,-60 -2,-50 -1,-146 0,-199 1,-53 3,-64 5,-72 2,-8 5,-13 9,-19 5,-5 10,-11 11,-13 0,-3 -5,-2 -11,0z"/>
   <rect class="fil23" x="24587" y="14601" width="350.244" height="23.4441"/>
   <rect class="fil23" x="24747" y="14602" width="19.523" height="265.751"/>
   <path class="fil29" d="M24065 14055c-7,-1 -16,-1 -32,0 -16,1 -37,3 -53,5 -16,3 -25,7 -30,11 -4,4 -4,9 -1,12 3,3 8,5 24,4 15,-1 41,-6 61,-11 21,-6 35,-12 39,-16 5,-3 0,-5 -8,-5z"/>
   <path class="fil29" d="M23904 14076c-9,-2 -20,-1 -31,0 -11,1 -22,2 -32,4 -10,2 -20,6 -27,10 -7,4 -12,9 -12,13 -1,4 1,7 6,10 4,2 11,4 22,4 11,0 28,-2 41,-4 14,-2 26,-5 35,-8 8,-4 13,-7 16,-11 3,-3 3,-7 0,-11 -3,-3 -9,-6 -18,-7z"/>
   <path class="fil29" d="M24765 14046c8,0 17,0 33,1 16,1 37,4 53,7 15,3 25,7 29,12 5,4 4,8 1,11 -3,4 -8,6 -24,4 -15,-2 -41,-7 -61,-13 -20,-6 -34,-13 -39,-17 -4,-3 1,-5 8,-5z"/>
   <path class="fil29" d="M24927 14071c8,-1 20,1 31,2 10,1 21,2 31,5 10,2 20,6 27,10 7,4 11,9 12,13 1,5 -2,8 -7,10 -4,2 -11,4 -22,3 -11,0 -27,-2 -41,-4 -14,-3 -26,-6 -34,-10 -8,-3 -13,-7 -16,-11 -3,-3 -3,-7 0,-11 3,-3 10,-6 19,-7z"/>
   <circle class="fil23" cx="24449" cy="15300" r="36"/>
   <circle class="fil23" cx="24451" cy="15126" r="36"/>
   <circle class="fil23" cx="24453" cy="14953" r="36"/>
   <circle class="fil23" cx="24455" cy="14779" r="36"/>
   <circle class="fil23" cx="24457" cy="14605" r="36"/>
   <circle class="fil23" cx="24459" cy="14431" r="36"/>
   <rect class="fil37" x="25484" y="14023" width="414.045" height="36.4594"/>
   <circle class="fil38" cx="25486" cy="14827" r="74"/>
   <path class="fil17 str4" d="M25794 14838c0,-1 33,-33 7,-1 -59,72 36,-9 59,-21 -84,71 -43,43 37,4 56,-27 -28,5 -52,21 -135,90 79,-5 74,-30 -40,2 -126,100 -21,21 11,-9 53,-72 13,-40 -1,0 -128,108 -78,75 13,-9 74,-40 76,-43 -47,7 -119,106 -7,24 25,-18 -36,20 15,-4 29,-13 -26,-3 -25,8 39,0 55,-34 20,-11 -12,7 11,-1 -5,5 -18,6 54,6 76,-3 2,-1 3,0 5,0"/>
   <path class="fil39" d="M23874 15410c0,-13 -1,-21 -1,-27 0,-13 0,-13 -28,-13l-101 0 -13 0c-28,0 -28,0 -28,50 -1,49 -1,148 1,207 2,58 8,76 19,89 4,5 9,9 15,13 0,58 0,132 0,227 2,346 8,969 10,1281l2 230c43,-54 136,-92 245,-92 110,0 204,39 246,94 1,-33 3,-80 5,-146 6,-226 19,-678 29,-918 10,-240 16,-269 27,-292 10,-24 24,-42 46,-51 23,-9 52,-9 77,-1 25,9 45,26 56,54 11,29 13,69 15,312 2,242 3,686 4,908l1 139c39,-58 136,-99 250,-99 109,0 202,38 245,93l7 -214 39 -1226 3 -100c4,2 9,3 15,3 7,0 17,-3 25,-8 8,-5 14,-11 20,-19 5,-8 9,-16 12,-33 2,-16 4,-41 5,-116 0,-76 0,-202 -1,-270 -1,-68 -2,-76 -5,-84 -2,-8 -6,-15 -12,-20 -5,-4 -13,-7 -21,-9 -8,-2 -17,-4 -24,-4 -7,1 -12,3 -17,7 -1,0 -2,1 -3,2l-1 1c-5,6 -9,15 -11,24 -2,9 -3,18 -3,22 0,5 0,5 -7,7 -7,1 -22,5 -62,11 -40,5 -106,11 -140,15 -20,3 -29,5 -33,8 -27,2 -58,5 -91,6 -35,0 -73,-2 -105,-3 -33,0 -59,1 -106,0 -46,-1 -112,-3 -158,-5 -45,-2 -71,-3 -107,-6 -37,-4 -84,-8 -139,-15 -54,-8 -115,-18 -152,-24 -24,-4 -38,-6 -50,-8zm1157 488l0 0 0 21 0 -21z"/>
   <path class="fil36" d="M24968 17440c11,9 20,18 28,28l7 -214 39 -1226 3 -100c4,2 9,3 15,3 7,0 17,-3 25,-8 4,-2 7,-5 10,-8 0,-33 -1,-64 -3,-91 -9,-187 -38,-228 -54,-234 -16,-7 -19,21 -29,350 -10,329 -27,959 -35,1274 -3,108 -5,179 -6,226zm63 -1542l0 0 0 21 0 -21z"/>
   <path class="fil36" d="M24221 17448c8,7 15,14 20,21 1,-33 3,-80 5,-146 6,-226 19,-678 29,-918 10,-240 16,-269 27,-292 10,-24 24,-42 46,-51 23,-9 52,-9 77,-1 25,9 45,26 56,54 11,29 13,69 15,312 2,242 3,686 4,908l1 139c6,-9 13,-17 22,-26l1 -137c2,-210 4,-630 4,-863 0,-234 -2,-281 -9,-317 -7,-37 -19,-63 -36,-82 -17,-20 -41,-33 -67,-39 -26,-6 -55,-5 -78,4 -24,10 -43,28 -57,56 -13,28 -21,65 -27,133 -5,68 -9,166 -12,318 -4,151 -7,357 -11,527 -3,170 -7,303 -9,378l-1 22z"/>
   <path class="fil36" d="M23717 15708c2,3 4,5 6,8 4,5 9,9 15,13 0,58 0,132 0,227 2,346 8,969 10,1281l2 230c6,-7 13,-14 20,-21l-1 -255c-2,-297 -6,-891 -8,-1198 -3,-307 -5,-328 -18,-324 -6,2 -15,10 -26,39z"/>
   <path class="fil31" d="M23881 15644c-3,8 -4,20 -6,34 -3,15 -9,32 -16,44 -7,13 -16,20 -26,25 -9,5 -20,7 -32,6 -12,0 -25,-2 -38,-5 -12,-2 -23,-5 -34,-10 -10,-6 -20,-13 -28,-53 -9,-39 -17,-111 -18,-170 -1,-59 4,-104 7,-127 3,-24 5,-25 36,-27 31,-1 92,-2 125,-1 32,0 35,3 36,17 0,13 -2,39 -4,52 -1,13 -1,13 19,13 20,1 61,3 86,6 26,3 37,8 43,16 6,8 8,20 10,44 1,23 2,59 1,80 -1,22 -4,30 -8,36 -3,6 -9,10 -32,11 -24,0 -65,-3 -89,-3 -24,1 -29,4 -32,12z"/>
   <path class="fil31" d="M24777 15474c0,-12 3,-14 37,-18 34,-4 100,-10 140,-16 40,-5 54,-9 61,-11 8,-2 8,-2 8,-6 0,-4 0,-13 3,-22 2,-9 6,-18 11,-24 6,-6 13,-9 20,-10 8,0 17,1 25,3 8,3 15,5 21,10 6,5 9,12 12,19 3,8 4,17 5,85 1,67 1,194 0,270 0,75 -2,99 -5,116 -3,16 -6,25 -12,33 -5,7 -11,14 -19,19 -8,4 -18,7 -26,8 -8,0 -14,-3 -19,-6 -5,-3 -9,-7 -10,-48 -2,-42 -2,-120 -1,-159 0,-40 0,-40 -9,-39 -9,0 -26,1 -50,0 -24,-1 -54,-4 -78,-8 -25,-3 -43,-7 -58,-12 -15,-4 -27,-9 -35,-16 -9,-6 -15,-14 -18,-33 -3,-19 -3,-48 -3,-74 -1,-26 -1,-49 0,-61z"/>
   <path class="fil40" d="M25097 15376c2,1 4,3 6,4 6,5 9,12 12,19 3,8 4,17 5,85 1,67 1,194 0,270 0,75 -2,99 -5,116 -3,16 -6,25 -12,33 -3,5 -7,10 -12,13 0,-14 0,-34 0,-61 1,-98 1,-293 4,-397 0,-38 1,-64 2,-82z"/>
   <path class="fil31" d="M24241 15640l0 -173c-1,0 -1,0 -2,0l-106 0c-16,0 -30,13 -30,30l0 113c0,17 14,30 30,30l106 0 2 0z"/>
   <path class="fil31" d="M24565 15465l0 175c1,0 2,0 2,0l106 0c17,0 30,-14 30,-32l0 -121c0,-40 -82,-22 -115,-22 -8,0 -15,0 -23,0z"/>
   <rect class="fil41" x="24241" y="15450" width="324" height="211"/>
   <rect class="fil31" x="24294" y="15497" width="224" height="115"/>
   <path class="fil42" d="M24819 17402c17,4 34,8 51,15 18,8 36,18 52,28 16,10 28,21 37,31 9,10 14,18 18,28 4,9 7,19 8,24 1,5 1,5 -19,5 -20,0 -60,0 -80,0 -19,0 -19,0 -19,0 0,0 0,0 -1,-6 0,-7 0,-20 -3,-35 -3,-15 -7,-33 -15,-46 -7,-13 -17,-21 -26,-29 -9,-8 -18,-14 -27,-18 -9,-5 -20,-7 -25,-8 -5,-1 -5,-1 4,1 9,2 27,6 45,10z"/>
   <path class="fil42" d="M24061 17402c17,4 34,8 51,15 18,8 37,18 52,28 16,10 28,21 37,31 9,10 14,18 18,28 4,9 7,19 8,24 2,5 2,5 -18,5 -20,0 -60,0 -80,0 -20,0 -20,0 -20,0 0,0 0,0 -1,-6 0,-7 0,-20 -3,-35 -2,-15 -7,-33 -15,-46 -7,-13 -17,-21 -26,-29 -9,-8 -17,-14 -27,-18 -9,-5 -19,-7 -25,-8 -5,-1 -5,-1 4,1 9,2 28,6 45,10z"/>
   <path class="fil17 str5" d="M25442 14172l515 0m-515 245l515 0m-515 -31l515 0m-515 -30l515 0m-515 -31l515 0m-515 -30l515 0m-515 -31l515 0m-515 -30l515 0m-515 -31l515 0"/>
  </g>
  <g id="_2714989875696">
   <path class="fil43" d="M37916 16930c-22,43 -54,111 -80,155 -27,43 -48,62 -94,73 -46,12 -117,18 -1024,16 -906,-1 -2648,-9 -3526,-14 -879,-4 -893,-6 -904,-23 -10,-18 -17,-52 -27,-111 -11,-59 -25,-142 -31,-184 -6,-42 -4,-44 -310,-44 -307,0 -923,2 -1256,18 -334,17 -385,48 -410,90 -25,41 -24,93 -26,138 -2,45 -7,83 -20,105 -12,21 -32,27 -116,11 -84,-15 -231,-50 -327,-75 -97,-24 -142,-37 -178,-45 -37,-8 -66,-11 -91,-17 -24,-7 -44,-17 -58,-37 -14,-20 -22,-49 -16,-124 5,-74 23,-194 35,-288 11,-95 15,-163 23,-271 9,-107 22,-253 33,-348 12,-95 21,-139 33,-174 13,-35 29,-61 74,-103 46,-43 121,-101 224,-157 104,-57 236,-112 385,-163 149,-51 315,-97 470,-135 155,-37 298,-66 490,-95 192,-28 432,-56 745,-89 313,-33 700,-71 893,-90 193,-19 193,-19 193,-19 0,0 0,0 42,-35 43,-35 127,-105 264,-202 137,-97 327,-221 503,-323 175,-103 336,-185 472,-244 137,-60 249,-97 388,-133 139,-36 305,-72 495,-98 190,-26 404,-44 623,-55 220,-11 445,-16 653,-10 209,6 400,23 575,42 176,20 335,43 531,83 196,40 428,98 544,127 116,29 116,29 121,34 4,4 14,14 24,24 11,9 22,20 254,106 231,87 682,249 928,335 246,85 287,95 340,100 53,5 117,6 174,14 58,8 108,23 220,40 112,17 286,37 442,48 155,11 292,14 370,19 77,5 94,13 106,28 12,16 18,38 21,92 3,54 1,140 1,250 0,110 2,245 2,312 1,67 1,67 1,67 0,0 0,0 15,9 15,10 45,28 76,56 31,29 63,67 86,114 23,48 38,105 34,285 -3,180 -24,483 -38,638 -14,155 -20,161 -53,169 -32,8 -90,17 -338,19 -248,1 -685,-6 -1157,-5 -473,1 -979,9 -1280,13 -302,4 -398,4 -452,12 -55,9 -68,26 -91,69z"/>
   <polygon class="fil44" points="32967,16642 32959,16911 36005,16855 36084,16594 "/>
   <path class="fil45" d="M30266 16890c-5,5 -9,10 -12,16 -25,41 -24,93 -26,138 -2,45 -7,83 -20,105 -12,21 -32,27 -116,11 -84,-15 -231,-50 -327,-75 -97,-24 -142,-37 -178,-45 -37,-8 -66,-11 -91,-17 -24,-7 -44,-17 -58,-37 -14,-20 -22,-49 -16,-124 2,-35 8,-81 14,-129 67,1 141,6 220,11 170,11 361,26 466,32 106,6 125,3 136,50 4,17 6,39 8,64z"/>
   <path class="fil45" d="M41113 15413l0 71c1,67 1,67 1,67 0,0 0,0 15,9 15,10 45,28 76,56 31,29 63,67 86,114 23,48 38,105 34,285 -3,180 -24,483 -38,638 -14,155 -20,161 -53,169 -32,8 -90,17 -338,19 -226,1 -610,-4 -1034,-5 0,-17 1,-36 1,-57 2,-66 4,-149 -17,-243 -20,-93 -62,-197 -107,-286 -45,-88 -93,-161 -145,-225 -53,-65 -111,-122 -140,-150 -29,-28 -29,-28 69,-41 98,-12 295,-37 462,-69 166,-32 304,-70 398,-107 94,-37 146,-72 181,-109 35,-36 53,-73 62,-106 8,-34 7,-64 22,-78 15,-14 47,-11 138,-2 85,10 222,25 327,50z"/>
   <path class="fil4" d="M41317 16231c-2,37 -4,76 -7,113 -25,4 -51,5 -75,6 -45,2 -83,3 -114,-3 -31,-6 -55,-19 -70,-38 -16,-18 -24,-42 -28,-54 -4,-12 -4,-12 61,-14 56,-2 158,-6 233,-10z"/>
   <path class="fil46" d="M37916 16930c-22,43 -54,111 -80,155 -27,43 -48,62 -94,73 -46,12 -117,18 -1024,16 -906,-1 -2648,-9 -3526,-14 -879,-4 -893,-6 -904,-23 -10,-18 -17,-52 -27,-111l-1 -2 0 -1 0 -1 0 -1 0 -1 -1 -1 0 -1 0 -1 0 -2 0 0 -1 -1 0 -2 0 0 0 -2 0 -1 -1 -1 0 -2 0 0 0 -2 0 -1 0 0 -1 -2 0 -1 0 -1 0 -2 -1 0 0 -2 0 -1 0 -1 -1 -2 0 0 0 -2 0 -1 0 -1 -1 -1 0 -1 0 -1 0 -2 0 -1 -1 -1 0 -2 0 0 0 -2 0 -1 -1 -1 0 -2 0 0 0 -2 0 -1 -1 -1 0 -2 0 0 0 -2 -1 -1 0 -1 0 -2 0 -1 0 -1 -1 -2 0 0 0 -2 0 -1 0 -1 -1 -2 0 0 0 -2 0 -1 0 -1 -1 -2 0 0 0 -2 0 -2 0 0 -1 -2 0 -1 0 -1 0 -2 0 0 -1 -2 0 -1 0 -1 0 -2 -1 0 0 -1 0 -2 0 0 0 -2 -1 -1 0 -1 0 -2 0 -1 0 -1 -1 -2 0 0 0 -2 0 -1 0 -1 -1 -2 0 0 0 -2 0 -1 0 -1 -1 -1c89,-7 315,-13 890,-28 947,-26 2840,-76 3793,-86 954,-9 967,21 980,68 5,21 10,44 16,69l-1 1 -1 2z"/>
   <path class="fil47" d="M37821 17106c-20,29 -41,43 -79,52 -46,12 -117,18 -1024,16 -906,-1 -2648,-9 -3526,-14 -879,-4 -893,-6 -904,-23 -9,-17 -16,-47 -25,-97 79,-5 248,-6 619,-10 683,-7 2049,-20 2954,-32 904,-12 1347,-22 1603,-8 256,15 325,54 365,97 7,6 12,13 17,19z"/>
   <path class="fil43 str3" d="M30277 16880c-15,11 -25,26 -37,50 -7,13 -14,28 -22,43 -13,-48 -22,-97 -28,-147 -4,-39 -6,-78 -6,-118 0,-13 0,-27 1,-41 2,-43 5,-74 9,-103 7,-48 19,-90 32,-125 13,-36 28,-66 34,-51 5,15 1,74 4,156 3,81 12,185 13,278 0,20 0,39 0,58z"/>
   <path class="fil48" d="M29462 17009c-9,-6 -17,-14 -24,-23 -14,-20 -22,-49 -16,-124 5,-74 23,-194 35,-288l0 -2c20,-17 37,-29 56,-40 41,-26 90,-53 127,-66 37,-14 62,-16 86,-12 23,3 46,11 64,30 17,19 31,50 36,84 6,35 5,75 -2,111 -6,35 -18,67 -41,106 -23,39 -57,85 -90,118 -33,34 -65,55 -95,72 -29,15 -56,27 -136,34z"/>
   <path class="fil49" d="M29670 15635c44,-35 103,-75 174,-114 104,-57 236,-112 385,-163 149,-51 315,-97 470,-135 155,-37 298,-66 490,-95 192,-28 432,-56 745,-89 313,-33 700,-71 893,-90 193,-19 193,-19 193,-19 0,0 0,0 42,-35 43,-35 127,-105 264,-202 137,-97 327,-221 503,-323 175,-103 336,-185 472,-244 137,-60 249,-97 388,-133 139,-36 305,-72 495,-98 190,-26 404,-44 623,-55 220,-11 445,-16 653,-10 209,6 400,23 575,42 176,20 335,43 531,83 196,40 428,98 544,127 116,29 116,29 121,34 4,4 14,14 24,24 11,9 22,20 254,106 231,87 682,249 928,335 246,85 287,95 340,100 53,5 117,6 174,14 58,8 108,23 220,40 112,17 286,37 442,48 155,11 292,14 370,19 77,5 94,13 106,28 12,16 18,38 21,92 3,54 1,140 1,250 0,39 0,81 1,122 -119,-28 -245,-58 -360,-80 -177,-35 -330,-51 -936,-37 -607,13 -1667,55 -3547,142 -1881,87 -4581,219 -5932,285 -275,13 -494,24 -667,31z"/>
   <path class="fil50" d="M33045 14910l17 -15c43,-35 127,-105 264,-202 137,-97 327,-221 503,-323 175,-103 336,-185 472,-244 85,-37 160,-65 238,-90 13,8 20,18 21,32 0,16 -8,35 -59,72 -51,36 -145,90 -276,161 -132,71 -300,159 -457,249 -156,89 -301,180 -398,241 -97,60 -147,90 -188,105 -41,16 -72,18 -110,16 -9,-1 -18,-1 -27,-2z"/>
   <path class="fil51" d="M29721 15934c-15,24 -33,46 -51,69 -19,23 -38,46 -54,61 -16,16 -29,24 -40,26 -12,3 -21,0 -27,-9 -6,-10 -10,-27 -7,-65 2,-38 10,-97 16,-136 7,-38 12,-57 20,-71 9,-15 20,-26 36,-34 16,-8 37,-12 57,-13 21,-1 40,1 54,5 13,4 22,9 27,25 5,16 7,42 2,68 -5,25 -18,50 -33,74z"/>
   <path class="fil52" d="M39038 15236c-701,41 -1825,107 -3178,165 -1352,58 -2935,108 -3726,133 -791,25 -791,25 -791,25 0,0 0,0 374,-21 375,-21 1124,-63 2030,-117 906,-54 1968,-120 2876,-168 907,-47 1658,-76 2245,-88 587,-12 1009,-7 1220,-4 211,2 211,2 211,2 0,0 0,0 -140,8 -140,8 -419,24 -1121,65z"/>
   <path class="fil53" d="M30012 15976c113,-77 287,-203 374,-267 87,-63 87,-63 87,-63 0,0 0,0 -35,-2 -34,-2 -103,-6 -178,-3 -76,2 -159,12 -238,29 -78,18 -152,45 -207,69 -54,24 -90,47 -115,71 -25,25 -40,51 -49,87 -9,37 -13,83 -11,118 2,35 10,58 37,72 27,14 73,18 122,6 49,-12 100,-39 213,-117z"/>
   <path class="fil48" d="M37672 14904c-367,14 -796,30 -1260,50 -465,20 -966,43 -1519,70 -552,27 -1156,58 -1453,66 -297,9 -286,-4 -235,-41 50,-36 141,-95 187,-125 45,-30 45,-30 48,-39 3,-9 8,-27 21,-49 13,-21 34,-44 61,-64 26,-20 58,-36 86,-46 27,-11 51,-16 75,-21 25,-4 50,-8 62,-10 13,-2 13,-2 13,-2 0,0 0,0 69,-45 69,-45 208,-135 342,-214 133,-80 263,-150 376,-205 113,-56 211,-97 309,-130 99,-34 197,-60 317,-78 119,-18 259,-27 404,-33 145,-6 295,-9 457,-7 161,2 334,9 469,16 135,6 233,13 367,29 135,17 306,43 463,71 156,27 297,56 455,97 158,40 334,91 485,140 152,49 280,95 375,133 95,38 157,69 200,97 43,27 66,52 78,77 12,24 12,48 4,74 -8,27 -24,56 -44,79 -20,23 -46,40 -86,50 -40,11 -95,15 -275,23 -180,9 -485,22 -851,37z"/>
   <path class="fil54 str3" d="M36853 14384c-33,123 -81,297 -105,384 -23,87 -23,87 -23,87 0,0 0,0 290,-9 291,-8 873,-25 1195,-41 321,-16 383,-31 421,-48 37,-17 51,-37 48,-62 -3,-26 -21,-58 -80,-95 -59,-38 -157,-81 -299,-134 -141,-53 -324,-115 -561,-175 -236,-60 -526,-118 -671,-147 -145,-29 -145,-29 -145,-29 0,0 0,0 -10,36 -9,37 -27,109 -60,233z"/>
   <path class="fil54 str3" d="M36706 14311c-35,127 -93,336 -122,440 -29,104 -29,104 -29,104 0,0 0,0 0,0 0,0 0,0 -179,10 -179,10 -536,29 -983,54 -447,24 -984,53 -1252,68 -268,14 -268,14 -268,14 0,0 0,0 4,-31 5,-32 14,-95 15,-140 2,-45 -5,-71 -19,-88 -14,-16 -35,-23 -45,-26 -11,-3 -11,-3 -11,-3 0,0 0,0 54,-34 53,-34 160,-101 272,-166 112,-64 229,-126 344,-182 115,-56 227,-106 341,-145 114,-38 230,-64 361,-85 130,-20 275,-35 443,-43 168,-7 360,-9 552,-2 193,6 386,21 483,28 97,7 97,7 97,7 0,0 0,0 -6,24 -6,23 -17,69 -52,196z"/>
   <path class="fil50" d="M39553 14575c230,83 241,91 245,97 2,4 2,7 1,11 -8,-1 -15,-1 -22,-2 -53,-5 -94,-15 -340,-100 -246,-86 -697,-248 -928,-335 -232,-86 -243,-97 -254,-106 -2,-3 -5,-5 -7,-7 11,0 25,2 51,8 31,6 78,19 326,105 248,86 698,246 928,329z"/>
   <path class="fil4" d="M41111 15130l0 42c0,110 2,245 2,312 1,67 1,67 1,67l1 1c-21,9 -47,11 -75,12 -57,2 -124,0 -192,-14 -68,-13 -136,-40 -210,-90 -73,-50 -151,-124 -193,-172 -43,-48 -51,-70 -45,-93 7,-22 28,-45 70,-68 41,-24 103,-49 167,-65 64,-16 130,-23 189,-23 60,0 112,7 154,18 41,12 72,27 100,46 11,7 21,15 31,27z"/>
   <path class="fil48" d="M38895 15674c571,0 1034,463 1034,1034 0,43 -3,86 -8,128 -42,0 -85,0 -127,0 5,-42 9,-85 9,-128 0,-501 -407,-908 -908,-908 -467,0 -852,352 -902,806 17,57 31,144 33,192 3,56 -11,59 -24,62l-2 1 0 1c-7,2 -13,3 -19,5 -5,1 -9,3 -13,5 -10,5 -18,11 -26,20 -7,8 -15,20 -25,39 -10,19 -24,47 -40,78 -17,31 -37,66 -47,83 -10,18 -10,18 -10,18 0,0 0,0 3,-38 3,-38 9,-113 16,-186 7,-73 13,-144 18,-191 2,-16 3,-30 5,-41 28,-546 479,-980 1033,-980z"/>
   <g>
    <path class="fil55 str3" d="M38895 15800c-502,0 -908,407 -908,908 0,501 406,908 908,908 501,0 908,-407 908,-908 0,-501 -407,-908 -908,-908zm603 1020c-61,7 -176,10 -357,15 -180,5 -427,13 -588,17 -161,4 -236,4 -273,4 -38,0 -38,0 -38,0 0,0 0,0 5,11 4,12 13,34 32,74 18,39 46,96 78,143 33,46 70,83 114,118 44,34 95,66 140,89 45,23 83,37 133,46 49,10 110,14 159,15 48,1 85,0 135,-11 51,-10 114,-30 173,-59 58,-29 112,-67 162,-125 49,-57 94,-133 127,-198 33,-65 54,-117 61,-138 6,-20 -2,-8 -63,-1z"/>
    <circle class="fil56" cx="38886" cy="16699" r="475"/>
    <circle class="fil18 str3" cx="38895" cy="16708" r="107"/>
    <path class="fil57" d="M38895 16010c-386,0 -699,312 -699,698 0,386 313,698 699,698 385,0 698,-312 698,-698 0,-386 -313,-698 -698,-698zm0 492c-14,0 -27,2 -39,4l-16 -427c18,-1 36,-2 55,-2 14,0 27,1 41,2l-3 427c-13,-2 -25,-4 -38,-4zm-69 12c-46,16 -84,48 -108,89l-366 -216c84,-142 222,-249 387,-290l87 417zm-122 117c-8,21 -13,43 -15,66l-416 -94c7,-47 20,-92 38,-134l393 162zm-13 104c5,43 24,82 52,112l-312 289c-104,-112 -167,-263 -167,-428 0,-9 0,-18 0,-27l427 54zm75 134c17,13 36,24 57,32l-228 362c-35,-18 -68,-40 -98,-65l269 -329zm85 40c14,3 29,5 44,5 23,0 45,-4 66,-11l190 382c-78,35 -165,54 -256,54 -83,0 -162,-16 -235,-45l191 -385zm136 -17c19,-9 36,-22 51,-36l281 319c-31,29 -66,54 -104,77l-228 -360zm74 -63c24,-32 38,-72 39,-115l424 -45c1,13 2,26 2,39 0,162 -62,310 -162,422l-303 -301zm38 -148c-4,-24 -11,-48 -22,-69l405 -136c13,34 24,69 31,106l-414 99zm-40 -96c-23,-32 -56,-56 -93,-70l64 -423c174,38 322,148 409,298l-380 195z"/>
    <circle class="fil58" cx="38892" cy="16705" r="107"/>
   </g>
   <path class="fil48" d="M31218 15674c572,0 1035,463 1035,1034 0,34 -2,67 -5,100l-2 27c-1,25 -2,50 -3,63 -1,12 -1,12 -1,12l-2 -1 -1 6c0,0 0,0 -30,-3 -30,-3 -91,-8 -173,-15 -81,-7 -184,-17 -288,-23 -105,-6 -210,-8 -354,-3 -145,5 -328,19 -469,40 -141,22 -240,52 -323,79 -82,26 -148,49 -209,74 -60,25 -116,52 -148,71 -20,11 -31,19 -38,22 -6,5 -10,8 -14,9 -5,3 -8,4 -10,1 -2,1 -4,1 -6,1 0,-9 0,-21 0,-36 1,-81 2,-245 4,-354 1,-45 2,-81 4,-111 21,-552 476,-993 1033,-993zm898 897c-66,-436 -443,-770 -898,-770 -487,0 -885,384 -907,867 46,-61 125,-104 320,-129 211,-28 558,-36 836,-29 279,8 490,30 608,53 15,2 29,5 41,8z"/>
   <g>
    <path class="fil55" d="M31218 15792c-501,0 -907,406 -907,908 0,501 406,907 907,907 502,0 908,-406 908,-907 0,-502 -406,-908 -908,-908zm604 1019c-62,8 -176,10 -357,16 -181,5 -427,13 -588,17 -161,4 -236,4 -274,4 -37,0 -37,0 -37,0 0,0 0,0 4,11 5,11 14,33 33,73 18,40 46,96 78,143 32,47 69,84 114,118 44,34 95,66 140,89 45,23 83,38 132,47 50,9 111,13 159,14 49,2 86,0 136,-10 50,-11 114,-30 172,-59 59,-29 113,-68 162,-125 50,-57 95,-134 128,-199 33,-64 54,-117 60,-137 7,-21 -1,-9 -62,-2z"/>
    <circle class="fil56" cx="31209" cy="16690" r="475"/>
    <circle class="fil18" cx="31218" cy="16700" r="107"/>
    <path class="fil57" d="M31218 16001c-385,0 -698,313 -698,699 0,385 313,698 698,698 386,0 699,-313 699,-698 0,-386 -313,-699 -699,-699zm0 493c-13,0 -26,1 -39,4l-15 -427c18,-2 36,-2 54,-2 14,0 28,0 42,1l-4 427c-12,-2 -25,-3 -38,-3zm-68 12c-46,16 -84,48 -108,88l-367 -216c85,-142 223,-248 387,-290l88 418zm-123 117c-8,20 -13,42 -14,65l-417 -94c8,-46 21,-91 38,-133l393 162zm-13 103c6,44 25,82 53,113l-312 289c-104,-113 -168,-263 -168,-428 0,-10 1,-19 1,-28l426 54zm76 134c17,14 36,25 56,32l-227 363c-35,-19 -68,-41 -98,-66l269 -329zm84 40c15,4 29,5 44,5 24,0 46,-4 67,-11l190 382c-78,35 -165,54 -257,54 -83,0 -162,-16 -234,-45l190 -385zm136 -16c19,-10 37,-22 52,-37l281 319c-32,29 -67,55 -104,77l-229 -359zm75 -64c23,-32 38,-72 39,-114l424 -45c1,13 1,25 1,39 0,162 -61,310 -161,421l-303 -301zm37 -147c-3,-25 -10,-48 -21,-69l404 -136c14,33 24,69 32,105l-415 100zm-39 -97c-23,-31 -56,-56 -93,-69l64 -424c174,38 321,148 409,298l-380 195z"/>
    <circle class="fil58" cx="31215" cy="16696" r="107"/>
   </g>
   <path class="fil47" d="M35875 15238c8,20 13,42 15,69 1,27 -2,59 -16,83 -15,25 -41,42 -85,52 -44,10 -106,12 -159,0 -53,-12 -96,-38 -123,-63 -26,-25 -35,-49 -31,-69 3,-21 21,-38 69,-59 49,-21 130,-46 185,-58 55,-12 86,-10 106,-1 21,9 31,26 39,46z"/>
   <path class="fil59" d="M35925 15350c-111,13 -328,19 -444,17 -115,-1 -128,-9 -133,-20 -6,-10 -3,-23 6,-35 9,-11 25,-20 127,-32 103,-13 291,-29 397,-34 105,-5 128,0 141,10 13,10 17,24 18,42 0,18 -2,39 -112,52z"/>
  </g>
  <rect class="fil60" x="3889" y="13535" width="156" height="4074"/>
  <rect class="fil60" x="8139" y="13552" width="156" height="4057"/>
  <polygon class="fil61" points="48792,19559 2,19559 2,17704 48792,17704 "/>
  <path class="fil59" style="mask:url(#id0)" d="M30385 15712c-109,75 -279,207 -401,285 -122,78 -196,102 -415,208 -220,105 -586,293 -1084,480 -498,188 -1128,375 -1628,488 -500,113 -870,151 -1055,170 -185,20 -185,20 -185,20 0,0 0,0 0,0 0,0 0,0 0,-434 0,-435 0,-1303 0,-1737 0,-434 0,-434 0,-434 0,0 0,0 829,141 828,141 2486,422 3291,571 805,150 757,167 648,242z"/>
  <g id="_2714989888976">
   <rect class="fil59" x="2622" y="9241" width="6901" height="4594" rx="344" ry="346"/>
   <rect class="fil62" x="2720" y="9337" width="6706" height="4401" rx="250" ry="248"/>
   <path class="fil63" d="M3394 9849l-126 476 -64 0 -114 -463c-5,-19 -9,-35 -13,-47 -4,-12 -8,-22 -12,-29 -4,-7 -8,-12 -13,-16 -5,-3 -11,-6 -20,-9l0 -21 169 0 0 21c-17,4 -28,9 -34,16 -7,7 -10,16 -10,28 0,10 1,22 4,36 2,13 5,29 9,46l80 337 126 -484 66 0 103 484 93 -325c11,-40 17,-68 17,-84 0,-18 -3,-30 -10,-38 -7,-8 -18,-13 -33,-16l0 -21 155 0 0 21c-8,3 -14,6 -19,10 -5,3 -9,8 -13,14 -5,7 -10,16 -15,29 -5,13 -11,30 -18,51l-143 460 -56 0 -109 -476z"/>
   <path id="1" class="fil63" d="M4094 10250c-17,19 -33,34 -47,44 -14,11 -29,20 -46,26 -17,6 -35,9 -56,9 -54,0 -95,-18 -122,-53 -28,-35 -41,-87 -41,-155 0,-42 7,-80 21,-112 14,-32 34,-57 60,-75 26,-18 56,-27 89,-27 27,0 50,5 68,14 19,9 34,22 45,37 11,16 20,36 26,60 6,24 10,55 10,94l-248 0 0 8c0,33 4,61 11,84 7,23 18,41 34,54 16,13 36,19 62,19 22,0 41,-4 58,-13 17,-8 34,-22 51,-42l25 28zm-67 -173c-1,-31 -5,-56 -10,-76 -6,-19 -14,-34 -25,-44 -11,-11 -26,-16 -43,-16 -27,0 -49,12 -65,35 -16,24 -26,57 -29,101l172 0z"/>
   <path id="2" class="fil63" d="M4299 10216c0,24 1,41 3,51 2,9 6,16 12,21 6,5 16,10 29,13l0 21 -157 0 0 -21c14,-3 23,-7 28,-11 5,-4 9,-9 11,-15 2,-5 4,-13 5,-22 1,-10 1,-22 1,-37l0 -357c0,-27 0,-46 -1,-57 0,-11 -1,-20 -3,-28 -1,-7 -4,-13 -7,-17 -3,-5 -7,-8 -12,-11 -5,-2 -14,-5 -28,-7l0 -22 95 -5 24 0 0 504z"/>
   <path id="3" class="fil63" d="M4727 9925l0 89 -50 0c-4,-19 -10,-33 -16,-44 -7,-11 -14,-18 -23,-22 -9,-5 -20,-7 -32,-7 -19,0 -35,7 -49,19 -14,13 -26,33 -34,59 -8,26 -12,58 -12,96 0,24 1,46 4,66 4,20 9,37 17,51 7,14 17,26 30,33 13,8 28,12 47,12 18,0 35,-3 50,-11 16,-8 32,-21 49,-41l22 28c-13,16 -25,29 -35,37 -10,9 -21,16 -33,22 -12,6 -23,10 -35,13 -11,3 -23,4 -37,4 -49,0 -87,-18 -113,-54 -27,-35 -40,-87 -40,-154 0,-42 7,-79 22,-112 15,-32 35,-57 62,-75 26,-18 57,-27 92,-27 21,0 41,2 59,5 19,2 37,7 55,13z"/>
   <path id="4" class="fil63" d="M4982 10329c-54,0 -96,-17 -125,-52 -28,-35 -43,-87 -43,-155 0,-47 8,-86 23,-119 15,-32 35,-56 62,-72 26,-16 56,-24 89,-24 57,0 99,18 128,54 29,35 43,86 43,152 0,47 -7,87 -21,119 -15,33 -35,57 -62,73 -26,16 -58,24 -94,24zm-94 -216c0,59 9,104 26,135 17,32 42,47 74,47 18,0 33,-4 45,-14 12,-9 22,-21 30,-37 8,-16 14,-34 17,-54 3,-21 5,-42 5,-65 0,-42 -4,-76 -13,-104 -8,-27 -20,-48 -35,-60 -14,-13 -31,-20 -50,-20 -32,0 -56,15 -73,45 -17,30 -26,72 -26,127z"/>
   <path id="5" class="fil63" d="M5367 9980l5 2c16,-17 29,-30 39,-38 10,-9 20,-16 29,-21 10,-6 19,-9 27,-12 8,-2 17,-3 25,-3 27,0 48,6 64,20 17,13 28,33 35,60 20,-22 35,-38 48,-48 12,-10 24,-18 37,-24 13,-5 26,-8 41,-8 18,0 33,3 46,8 12,6 23,14 32,26 9,11 15,26 19,43 4,17 6,41 6,70l0 161c0,21 1,36 2,44 2,9 4,15 6,20 3,4 6,8 11,11 5,3 14,7 25,10l0 21 -154 0 0 -21c10,-3 17,-6 22,-9 4,-2 8,-6 11,-10 3,-5 5,-12 7,-21 2,-10 3,-24 3,-44l0 -111c0,-24 -1,-44 -2,-60 -1,-16 -3,-29 -6,-38 -2,-9 -5,-17 -9,-22 -3,-6 -7,-10 -12,-14 -4,-4 -9,-7 -15,-10 -7,-2 -14,-3 -24,-3 -11,0 -21,2 -30,7 -9,4 -19,12 -29,23 -11,11 -19,22 -23,32 -5,11 -8,24 -8,39l0 156c0,21 1,36 3,44 1,9 3,15 5,20 3,4 6,8 11,11 5,3 14,7 26,10l0 21 -155 0 0 -21c10,-3 17,-6 22,-9 4,-2 8,-6 11,-10 3,-5 6,-12 7,-21 2,-10 3,-24 3,-44l0 -111c0,-26 -1,-46 -2,-62 -1,-16 -4,-29 -6,-39 -3,-9 -7,-17 -11,-23 -4,-6 -9,-10 -13,-14 -5,-3 -10,-5 -16,-7 -6,-1 -13,-2 -20,-2 -11,0 -21,3 -31,8 -9,5 -19,13 -29,23 -10,10 -17,20 -22,31 -5,11 -7,22 -7,35l0 160c0,16 0,28 1,37 1,8 2,15 4,20 1,4 3,8 6,11 3,3 6,6 11,9 5,3 12,5 22,8l0 21 -154 0 0 -21c10,-3 17,-6 21,-9 5,-2 8,-6 11,-10 4,-5 6,-12 8,-21 1,-10 2,-24 2,-44l0 -186c0,-18 0,-33 -1,-44 0,-11 -2,-20 -5,-26 -4,-7 -8,-12 -15,-15 -6,-4 -15,-6 -27,-9l0 -22 92 -4 24 0 -4 69z"/>
   <path id="6" class="fil63" d="M6267 10250c-16,19 -32,34 -46,44 -14,11 -29,20 -46,26 -17,6 -35,9 -56,9 -54,0 -95,-18 -122,-53 -28,-35 -41,-87 -41,-155 0,-42 7,-80 21,-112 14,-32 34,-57 60,-75 26,-18 56,-27 89,-27 27,0 49,5 68,14 19,9 34,22 45,37 11,16 20,36 26,60 6,24 10,55 10,94l-248 0 0 8c0,33 4,61 11,84 7,23 18,41 34,54 16,13 36,19 62,19 21,0 41,-4 58,-13 17,-8 34,-22 51,-42l24 28zm-66 -173c-1,-31 -5,-56 -10,-76 -6,-19 -14,-34 -25,-44 -11,-11 -26,-16 -43,-16 -28,0 -49,12 -65,35 -16,24 -26,57 -29,101l172 0z"/>
   <path class="fil63" d="M3403 10916l-125 471 -63 0 -113 -458c-5,-19 -9,-35 -13,-47 -4,-12 -8,-21 -12,-28 -4,-7 -8,-12 -13,-16 -4,-3 -11,-6 -19,-9l0 -21 166 0 0 21c-16,3 -27,8 -33,15 -7,7 -10,16 -10,28 0,10 1,22 4,35 2,14 5,29 10,46l78 333 125 -478 66 0 101 479 92 -322c11,-39 17,-67 17,-83 0,-17 -4,-30 -10,-37 -7,-8 -18,-13 -33,-16l0 -21 153 0 0 21c-7,3 -14,6 -18,9 -5,4 -9,9 -14,15 -4,6 -9,15 -14,28 -5,13 -11,30 -17,51l-142 455 -56 0 -107 -471z"/>
   <path class="fil63" d="M4094 11312c-16,19 -32,33 -45,44 -14,11 -30,19 -46,25 -17,6 -35,9 -55,9 -54,0 -94,-17 -121,-52 -28,-34 -41,-86 -41,-153 0,-42 7,-79 21,-111 14,-32 33,-57 59,-74 26,-18 55,-26 89,-26 26,0 48,4 67,13 18,9 33,21 44,37 11,16 20,35 26,59 6,24 9,55 10,93l-245 0 0 7c0,34 3,61 10,84 7,23 18,40 34,53 16,13 36,19 61,19 22,0 41,-4 58,-13 17,-8 34,-22 50,-42l24 28zm-65 -171c-2,-30 -5,-55 -11,-75 -5,-19 -13,-34 -24,-44 -11,-10 -25,-15 -43,-15 -27,0 -48,11 -64,35 -16,23 -25,56 -28,99l170 0z"/>
   <path class="fil63" d="M4281 10781c3,9 6,19 7,30 2,11 3,21 3,30 0,18 -3,35 -8,49 -5,14 -13,29 -25,44 -11,14 -28,33 -51,55l-24 -26c13,-16 22,-33 28,-50 6,-17 9,-38 9,-62 0,-8 0,-17 -1,-27 -1,-10 -3,-24 -6,-43l68 0z"/>
   <path class="fil63" d="M4453 11051l6 1c14,-19 27,-34 40,-45 12,-10 25,-19 39,-25 14,-5 30,-8 48,-8 15,0 29,0 41,2l0 97 -44 0c-6,-15 -13,-26 -20,-33 -7,-7 -16,-10 -29,-10 -9,0 -18,3 -27,9 -10,5 -19,14 -27,25 -9,11 -15,22 -18,32 -3,10 -5,21 -5,35l0 147c0,26 2,43 5,53 2,10 7,17 14,21 6,5 16,8 30,11l0 20 -157 0 0 -20c9,-4 17,-6 21,-9 4,-3 8,-6 11,-10 3,-5 5,-12 7,-21 2,-9 2,-24 2,-44l0 -183c0,-18 0,-33 0,-44 -1,-11 -3,-19 -6,-26 -3,-7 -8,-12 -14,-15 -6,-3 -15,-6 -27,-8l0 -22 91 -4 24 0 -5 74z"/>
   <path class="fil63" d="M4971 11312c-16,19 -32,33 -45,44 -14,11 -29,19 -46,25 -17,6 -35,9 -55,9 -54,0 -94,-17 -121,-52 -27,-34 -41,-86 -41,-153 0,-42 7,-79 21,-111 14,-32 34,-57 59,-74 26,-18 55,-26 89,-26 26,0 48,4 67,13 18,9 33,21 44,37 11,16 20,35 26,59 6,24 9,55 10,93l-245 0 0 7c0,34 3,61 10,84 7,23 18,40 34,53 16,13 36,19 61,19 22,0 41,-4 58,-13 17,-8 34,-22 51,-42l23 28zm-65 -171c-2,-30 -5,-55 -11,-75 -5,-19 -13,-34 -24,-44 -11,-10 -25,-15 -43,-15 -27,0 -48,11 -64,35 -16,23 -25,56 -28,99l170 0z"/>
   <path class="fil63" d="M5653 11023l-72 -3 -4 5c8,9 15,21 19,36 5,15 7,31 7,48 0,46 -13,81 -39,106 -26,25 -63,37 -111,37 -22,0 -40,-3 -56,-8 -19,16 -29,32 -29,48 0,10 2,18 5,23 4,5 10,9 19,12 9,2 22,3 40,3l93 0c27,0 50,5 67,14 18,9 30,22 38,37 7,16 11,34 11,55 0,26 -7,50 -21,70 -14,21 -35,37 -61,48 -27,12 -58,18 -93,18 -26,0 -50,-2 -72,-5 -21,-4 -40,-9 -55,-17 -16,-8 -28,-19 -36,-32 -9,-13 -13,-29 -13,-49 0,-18 6,-34 17,-48 11,-15 26,-27 46,-38 -12,-6 -22,-14 -29,-24 -7,-10 -10,-23 -10,-37 0,-16 4,-30 12,-44 8,-13 23,-28 44,-45 -19,-12 -33,-28 -43,-48 -9,-21 -14,-44 -14,-69 0,-25 3,-46 11,-63 7,-18 18,-33 31,-45 13,-11 28,-20 46,-26 18,-6 37,-8 58,-8 19,0 37,2 56,7l138 0 0 42zm-270 86c0,35 6,62 19,81 14,19 33,29 58,29 13,0 24,-3 33,-9 10,-5 17,-12 23,-22 6,-10 10,-20 13,-33 3,-13 4,-26 4,-39 0,-25 -3,-46 -10,-62 -6,-17 -15,-29 -26,-37 -11,-8 -24,-11 -39,-11 -24,0 -43,8 -56,26 -13,18 -19,43 -19,77zm9 281c-13,11 -23,22 -30,34 -6,12 -10,26 -10,41 0,25 10,44 28,56 19,12 47,17 85,17 24,0 44,-3 61,-10 16,-6 29,-16 38,-29 9,-12 13,-27 13,-44 0,-8 -1,-15 -3,-23 -1,-7 -5,-14 -10,-20 -5,-6 -12,-11 -21,-14 -10,-3 -22,-5 -37,-5l-58 0c-21,0 -40,-1 -56,-3z"/>
   <path id="1" class="fil63" d="M5817 11278c0,24 1,41 3,51 2,9 6,16 12,21 6,5 15,9 29,13l0 20 -155 0 0 -20c13,-4 22,-8 27,-12 5,-3 9,-8 11,-14 2,-5 4,-13 5,-22 1,-9 1,-22 1,-37l0 -353c0,-26 0,-45 0,-56 -1,-11 -2,-20 -4,-27 -1,-8 -4,-13 -7,-18 -3,-4 -7,-7 -12,-10 -5,-2 -14,-5 -27,-7l0 -22 94 -4 23 0 0 497z"/>
   <path id="2" class="fil63" d="M6176 11323l-6 -1c-23,25 -44,42 -64,53 -20,10 -41,15 -63,15 -20,0 -37,-4 -52,-12 -15,-8 -27,-20 -35,-35 -8,-15 -12,-33 -12,-52 0,-41 19,-73 56,-95 38,-22 94,-36 169,-39l0 -28c0,-29 -2,-52 -8,-69 -5,-16 -13,-29 -24,-37 -11,-8 -26,-12 -45,-12 -20,0 -36,6 -49,18 -12,11 -21,28 -28,52l-51 0 0 -55c25,-14 46,-25 63,-31 16,-7 33,-12 49,-16 17,-3 34,-5 51,-5 26,0 46,4 62,13 16,9 27,22 35,40 8,19 12,46 12,83l0 147c0,21 0,35 0,44 0,8 1,16 2,24 2,7 4,13 6,17 3,4 7,8 12,11 5,3 13,6 25,10l0 20 -107 0 2 -60zm-7 -132c-53,1 -92,9 -118,23 -26,15 -40,37 -40,66 0,16 3,29 9,38 6,9 14,16 23,19 9,4 20,6 32,6 18,0 34,-5 48,-14 15,-10 26,-21 34,-36 8,-14 12,-28 12,-42l0 -60z"/>
   <path id="3" class="fil63" d="M6624 10925c0,-26 0,-45 -1,-56 0,-11 -1,-20 -3,-27 -1,-8 -4,-13 -7,-18 -3,-4 -7,-7 -12,-10 -5,-2 -14,-5 -27,-7l0 -22 94 -4 23 0 0 487c0,22 0,38 1,47 1,10 3,17 5,23 3,6 7,10 12,14 6,3 16,6 30,10l0 21 -92 5 -23 0 4 -69 -6 -2c-16,19 -30,33 -42,42 -12,10 -25,17 -39,23 -13,5 -28,8 -44,8 -42,0 -75,-17 -98,-52 -23,-35 -35,-86 -35,-152 0,-46 8,-85 23,-117 15,-32 35,-56 61,-72 25,-16 54,-23 86,-23 17,0 33,1 47,4 14,3 28,8 43,14l0 -67zm0 209c0,-22 -1,-40 -3,-53 -2,-13 -5,-24 -9,-33 -4,-9 -10,-17 -17,-23 -8,-6 -16,-11 -24,-14 -9,-2 -19,-4 -32,-4 -33,0 -58,15 -75,43 -18,29 -27,71 -27,125 0,53 8,94 22,122 14,29 36,43 65,43 11,0 21,-1 28,-4 8,-2 15,-5 23,-10 7,-4 14,-11 22,-19 7,-8 13,-15 16,-22 4,-7 6,-15 8,-23 2,-9 3,-20 3,-34l0 -94z"/>
   <path class="fil63" d="M3537 12403l-38 9 -35 -33c-22,11 -44,20 -67,25 -23,5 -50,8 -80,8 -82,0 -144,-24 -186,-73 -42,-49 -63,-121 -63,-217 0,-60 12,-113 35,-158 22,-45 55,-80 98,-104 43,-24 93,-37 151,-37 30,0 59,2 87,5 28,3 59,8 94,15l0 116 -49 0c-9,-25 -19,-45 -31,-59 -12,-14 -27,-24 -43,-30 -17,-6 -39,-10 -64,-10 -36,0 -67,10 -94,30 -26,20 -47,49 -62,87 -15,38 -22,85 -22,139 0,55 6,102 18,141 13,39 32,68 57,88 24,20 55,30 91,30 38,0 67,-7 86,-22 18,-14 27,-37 27,-67l0 -25c0,-25 -1,-43 -4,-55 -3,-11 -9,-20 -17,-26 -7,-6 -20,-11 -38,-15l0 -21 197 0 0 21c-11,3 -20,7 -26,12 -6,4 -10,9 -13,16 -4,6 -6,14 -7,24 -1,9 -2,23 -2,40l0 146z"/>
   <path class="fil63" d="M3969 12334c-16,18 -32,33 -46,44 -14,11 -29,19 -45,25 -17,6 -35,9 -55,9 -54,0 -94,-17 -121,-52 -28,-35 -41,-86 -41,-154 0,-42 7,-78 21,-110 14,-32 33,-57 59,-75 26,-17 55,-26 89,-26 26,0 48,5 67,14 18,9 33,21 44,37 11,15 20,35 26,59 6,23 9,54 10,93l-245 0 0 7c0,33 3,61 10,84 7,22 18,40 34,53 16,13 36,19 61,19 21,0 41,-4 58,-13 17,-9 33,-22 50,-42l24 28zm-65 -172c-2,-30 -5,-55 -11,-74 -5,-19 -13,-34 -24,-44 -11,-10 -25,-15 -43,-15 -27,0 -48,11 -64,34 -16,24 -26,57 -28,99l170 0z"/>
   <path class="fil63" d="M4225 12412c-54,0 -95,-17 -123,-52 -29,-34 -43,-85 -43,-152 0,-47 7,-86 22,-118 15,-32 36,-56 62,-71 26,-16 55,-24 88,-24 56,0 98,18 127,53 28,35 42,85 42,150 0,47 -7,86 -21,118 -14,32 -35,56 -61,72 -26,16 -57,24 -93,24zm-93 -213c0,58 9,102 26,133 17,31 41,47 73,47 17,0 32,-5 44,-14 13,-9 23,-21 30,-37 8,-15 13,-33 17,-54 3,-20 5,-41 5,-64 0,-41 -4,-75 -13,-102 -8,-28 -20,-47 -34,-60 -15,-13 -31,-19 -50,-19 -32,0 -56,14 -72,44 -17,29 -26,71 -26,126z"/>
   <path class="fil63" d="M4593 12072l5 2c15,-19 28,-34 40,-45 12,-11 26,-19 40,-25 14,-6 30,-9 48,-9 15,0 28,1 41,3l0 97 -44 0c-7,-16 -13,-26 -20,-33 -7,-7 -17,-11 -29,-11 -9,0 -19,3 -28,9 -9,6 -18,15 -27,26 -8,11 -14,22 -17,31 -3,10 -5,22 -5,35l0 148c0,25 1,43 4,53 3,9 8,17 14,21 7,4 17,8 30,10l0 21 -157 0 0 -21c10,-3 17,-6 22,-8 4,-3 7,-6 11,-11 3,-4 5,-11 7,-20 1,-10 2,-24 2,-44l0 -184c0,-18 0,-32 -1,-43 0,-11 -2,-20 -5,-26 -3,-7 -8,-12 -14,-15 -7,-3 -16,-6 -28,-8l0 -22 92 -4 23 0 -4 73z"/>
   <path class="fil63" d="M5170 12045l-72 -3 -3 5c8,8 14,20 19,35 4,15 7,32 7,49 0,46 -13,81 -39,106 -27,25 -63,37 -112,37 -21,0 -40,-3 -55,-9 -20,17 -30,33 -30,48 0,11 2,19 6,24 4,5 10,9 19,11 8,3 21,4 39,4l93 0c28,0 50,4 68,14 17,9 30,21 37,37 7,15 11,34 11,54 0,27 -7,50 -21,71 -14,21 -34,37 -61,48 -26,12 -57,18 -92,18 -26,0 -51,-2 -72,-6 -22,-3 -40,-9 -56,-17 -15,-8 -27,-18 -36,-31 -8,-13 -12,-30 -12,-49 0,-18 5,-34 16,-49 11,-14 26,-27 46,-38 -12,-5 -21,-13 -28,-23 -7,-11 -11,-23 -11,-37 0,-16 4,-31 13,-44 8,-13 22,-29 43,-46 -18,-11 -32,-27 -42,-48 -10,-20 -15,-43 -15,-69 0,-24 4,-45 11,-63 8,-18 18,-32 31,-44 13,-12 29,-20 47,-26 18,-6 37,-9 58,-9 18,0 37,3 55,7l138 0 0 43zm-270 86c0,35 7,62 20,81 13,19 32,28 57,28 13,0 25,-2 34,-8 9,-5 17,-13 23,-22 6,-10 10,-21 13,-33 2,-13 4,-26 4,-40 0,-24 -4,-45 -10,-62 -7,-16 -15,-28 -27,-36 -11,-8 -24,-12 -38,-12 -25,0 -44,9 -57,27 -13,18 -19,43 -19,77zm10 281c-13,11 -23,22 -30,34 -7,12 -10,25 -10,40 0,26 9,44 28,56 18,12 47,18 85,18 23,0 43,-3 60,-10 17,-7 30,-16 38,-29 9,-13 14,-27 14,-44 0,-8 -1,-16 -3,-23 -2,-8 -5,-14 -10,-20 -5,-6 -13,-11 -22,-14 -9,-4 -22,-6 -37,-6l-58 0c-21,0 -39,0 -55,-2z"/>
   <path class="fil63" d="M5335 11837l0 82 -72 0 0 -82 72 0zm-111 547c10,-3 17,-6 21,-8 5,-3 8,-6 11,-11 3,-4 6,-11 7,-20 2,-10 3,-24 3,-44l0 -184c0,-18 0,-32 -1,-43 0,-11 -2,-20 -5,-26 -4,-7 -8,-12 -15,-15 -6,-3 -15,-6 -27,-8l0 -23 91 -3 24 0 0 301c0,24 1,41 3,50 2,10 6,17 12,22 6,5 15,9 28,12l0 21 -152 0 0 -21z"/>
   <path class="fil63" d="M5679 12345l-6 -2c-22,25 -44,43 -63,53 -20,11 -41,16 -64,16 -19,0 -37,-4 -52,-13 -15,-8 -26,-19 -35,-35 -7,-14 -12,-32 -12,-52 0,-41 19,-72 57,-94 37,-23 93,-36 169,-39l0 -28c0,-29 -3,-52 -8,-69 -5,-17 -14,-29 -25,-37 -11,-8 -26,-12 -45,-12 -20,0 -36,6 -48,17 -13,12 -22,29 -28,52l-51 0 0 -54c25,-15 45,-25 62,-31 17,-7 33,-12 50,-16 16,-4 33,-6 50,-6 26,0 47,5 62,14 16,8 28,22 35,40 8,18 12,46 12,83l0 146c0,21 0,36 1,44 0,9 0,17 2,24 1,8 3,13 6,18 2,4 6,8 11,11 5,3 13,6 25,9l0 21 -107 0 2 -60zm-6 -132c-53,1 -93,8 -119,23 -26,14 -39,36 -39,66 0,16 3,29 9,38 6,9 13,16 22,19 9,4 20,5 33,5 17,0 33,-4 48,-14 14,-9 25,-21 33,-35 9,-14 13,-28 13,-43l0 -59z"/>
   <path class="fil9" d="M7492 11723c2,-3 3,-5 5,-8 4,-5 4,-5 3,-11 -5,-28 -38,-75 -55,-97 -43,-57 -93,-110 -138,-165 -51,-62 -91,-123 -122,-197 -35,-82 -57,-174 -66,-262 -9,-86 -5,-173 13,-258 15,-70 39,-137 67,-203 5,-13 11,-26 17,-39 -63,-1 -126,-1 -189,2 -53,3 -106,8 -159,13 -11,2 -22,3 -34,4 -27,2 -53,-14 -62,-40 -9,-26 -1,-54 22,-70 4,-3 9,-6 14,-10l0 0c1,0 1,-1 1,-1l0 0 1 0c0,0 0,0 0,0l0 -1c0,0 1,0 1,0l0 0c0,0 0,0 0,0l1 0c0,-1 0,-1 0,-1 0,0 0,0 0,0l1 -1c0,0 0,0 1,0l1 -1c0,0 0,0 0,0l0 0c0,0 0,0 1,0l0 -1c0,0 0,0 0,0l2 -1c0,0 0,0 0,0l2 -2c0,0 0,0 0,0l3 -2 3 -3c0,0 0,0 1,0l1 -1c1,0 1,0 1,-1l0 0c1,0 1,0 1,0l2 -2c0,0 0,-1 1,-1l0 0c0,0 1,-1 1,-1l3 -2c14,-13 28,-26 41,-40 45,-50 87,-107 129,-160 59,-76 113,-137 193,-194 89,-63 205,-120 307,-159 84,-31 162,-49 251,-53 77,-3 157,5 231,27 68,21 133,54 193,92 5,3 10,6 15,9 1,-18 9,-34 25,-45 16,-13 36,-16 56,-9 4,2 7,3 11,5 14,5 29,10 43,16 3,1 7,2 10,4 27,9 43,35 39,63 0,6 -1,12 -2,18 -1,14 -2,27 -4,40 75,16 150,33 222,56 90,28 170,63 246,119 78,58 151,136 200,220 49,86 73,178 81,276 6,78 3,157 -3,236 -1,15 -2,30 -3,46 0,16 -7,31 -19,43 -26,24 -59,19 -83,0 -6,-5 -11,-10 -17,-14 -10,-9 -20,-17 -31,-25 1,25 1,50 -1,76 -6,95 -31,189 -68,276 -42,98 -101,193 -171,274 -67,79 -150,152 -239,204 -83,49 -168,78 -263,92 -97,13 -196,10 -293,1 -91,-10 -181,-27 -272,-37 -18,-1 -36,-3 -54,-3l-5 0c0,0 0,0 0,0l-5 0 -1 0c-1,0 -1,0 -1,0l-4 0 -2 0c0,0 0,0 0,0l-4 0c0,0 0,0 -1,0l-1 0c0,0 0,0 0,0l-2 0c0,0 0,0 0,0l-2 0c0,0 0,0 0,0l-1 0c0,0 0,0 0,0l-2 1c0,0 -1,0 -1,0l0 0c0,0 -1,0 -1,0l-2 0c0,0 0,0 0,0l0 0c0,0 -1,0 -1,0l-1 0c0,0 -1,0 -1,0 0,0 0,0 0,0l0 0c0,0 -1,0 -1,0 0,0 0,0 0,0l-2 1c-1,0 -1,0 -1,0 0,0 0,0 -1,0l0 0c-5,1 -9,1 -14,2 -24,3 -48,-7 -61,-28 -12,-21 -12,-47 3,-67z"/>
   <path class="fil63" d="M5917 11802c3,10 5,20 7,31 2,11 3,21 3,30 0,18 -3,35 -8,49 -5,14 -14,29 -25,44 -11,14 -28,33 -51,54l-24 -25c12,-16 22,-33 28,-50 6,-17 9,-38 9,-62 0,-9 -1,-18 -1,-27 -1,-10 -3,-24 -6,-44l68 0z"/>
   <path class="fil63" d="M6275 12095l-38 0c-5,-17 -12,-30 -20,-40 -8,-10 -16,-17 -26,-21 -10,-4 -22,-5 -36,-5 -21,0 -38,5 -50,15 -12,11 -19,25 -19,44 0,12 3,23 8,32 5,8 12,16 23,23 10,8 28,17 55,29 26,13 47,24 61,34 14,11 26,23 34,37 8,13 12,30 12,49 0,22 -3,41 -10,56 -7,15 -17,27 -30,37 -13,10 -28,16 -45,21 -18,4 -37,6 -58,6 -22,0 -43,-2 -63,-5 -21,-4 -41,-8 -60,-14l0 -88 38 0c7,26 17,45 31,56 14,12 33,18 57,18 9,0 18,-1 27,-4 9,-2 17,-5 24,-10 7,-5 13,-12 17,-20 4,-9 6,-19 6,-32 0,-14 -2,-26 -7,-35 -6,-9 -14,-17 -25,-24 -10,-8 -30,-18 -57,-30 -24,-11 -43,-21 -57,-31 -14,-11 -26,-23 -34,-36 -8,-14 -12,-30 -12,-49 0,-23 6,-43 17,-60 12,-17 29,-30 50,-39 22,-9 48,-14 77,-14 17,0 34,1 50,3 16,2 36,5 60,11l0 86z"/>
   <path class="fil63" d="M3254 13275c-54,0 -96,-18 -124,-52 -28,-34 -43,-85 -43,-153 0,-46 8,-85 23,-117 15,-32 35,-56 61,-72 26,-15 56,-23 89,-23 55,0 98,17 126,52 29,35 43,85 43,151 0,47 -7,86 -21,118 -15,32 -35,56 -61,72 -26,16 -57,24 -93,24zm-93 -214c0,58 8,103 26,134 17,31 41,46 73,46 17,0 32,-4 44,-13 12,-9 22,-22 30,-37 7,-16 13,-34 16,-54 4,-20 5,-42 5,-64 0,-41 -4,-75 -12,-103 -9,-27 -20,-47 -35,-60 -14,-12 -31,-19 -50,-19 -31,0 -55,15 -72,44 -17,30 -25,72 -25,126z"/>
   <path id="1" class="fil63" d="M3908 13268l-154 0 0 -21c11,-3 18,-6 22,-9 5,-2 8,-6 11,-10 3,-5 6,-12 7,-21 2,-9 3,-24 3,-43l0 -110c0,-20 -1,-38 -2,-54 -1,-16 -2,-29 -5,-39 -2,-10 -5,-18 -9,-24 -3,-6 -8,-11 -12,-15 -5,-4 -11,-7 -17,-9 -6,-3 -14,-4 -24,-4 -10,0 -20,2 -29,6 -9,5 -19,12 -30,23 -11,11 -19,21 -24,32 -5,10 -7,22 -7,35l0 158c0,24 1,40 3,50 2,9 6,16 12,21 5,5 15,10 28,13l0 21 -152 0 0 -21c10,-3 17,-6 21,-9 5,-2 8,-6 11,-10 3,-5 6,-11 7,-21 2,-9 3,-24 3,-43l0 -184c0,-18 0,-32 -1,-43 -1,-11 -2,-20 -5,-27 -4,-6 -8,-11 -15,-14 -6,-4 -15,-6 -27,-9l0 -22 91 -4 24 0 -4 69 5 2c19,-21 35,-36 47,-45 12,-9 24,-16 36,-21 12,-5 24,-8 38,-8 14,0 26,2 37,6 12,3 21,9 30,16 8,7 15,16 21,27 5,11 9,24 12,39 2,15 4,34 4,58l0 159c0,19 0,33 1,42 1,8 3,15 6,20 3,5 6,9 11,12 5,3 14,7 26,10l0 21z"/>
   <path id="2" class="fil63" d="M4490 13302c-15,35 -29,63 -42,85 -14,22 -28,38 -45,49 -16,11 -35,16 -57,16 -15,0 -31,-2 -49,-5l0 -84 35 0c3,12 7,20 12,24 4,5 11,7 20,7 8,0 15,-1 21,-5 6,-3 12,-8 19,-16 6,-8 14,-20 23,-36 9,-17 19,-37 30,-62l-109 -318c-7,-20 -12,-34 -17,-43 -4,-8 -9,-14 -13,-18 -6,-4 -13,-8 -23,-10l0 -21 158 0 0 21c-12,3 -20,6 -25,9 -5,3 -9,7 -11,11 -3,5 -4,11 -4,18 0,8 1,16 3,24 1,8 4,17 8,28l69 211 78 -202c4,-11 8,-21 10,-31 3,-9 4,-18 4,-26 0,-12 -3,-21 -9,-28 -6,-6 -17,-11 -32,-14l0 -21 146 0 0 21c-10,2 -18,5 -24,10 -5,5 -11,12 -16,22 -6,10 -12,24 -19,42l-141 342z"/>
   <path id="3" class="fil63" d="M4902 13275c-55,0 -96,-18 -124,-52 -28,-34 -43,-85 -43,-153 0,-46 8,-85 23,-117 15,-32 35,-56 61,-72 26,-15 55,-23 89,-23 55,0 97,17 126,52 29,35 43,85 43,151 0,47 -7,86 -22,118 -14,32 -34,56 -60,72 -27,16 -58,24 -93,24zm-93 -214c0,58 8,103 25,134 17,31 42,46 73,46 18,0 33,-4 45,-13 12,-9 22,-22 30,-37 7,-16 13,-34 16,-54 4,-20 5,-42 5,-64 0,-41 -4,-75 -13,-103 -8,-27 -19,-47 -34,-60 -15,-12 -31,-19 -50,-19 -31,0 -55,15 -72,44 -17,30 -25,72 -25,126z"/>
   <path id="4" class="fil63" d="M5167 12865l111 0 0 214c0,33 1,58 4,76 2,17 5,30 10,38 5,9 11,16 20,22 9,6 20,9 35,9 10,0 20,-2 29,-6 9,-5 19,-12 30,-22 11,-11 19,-21 24,-32 5,-10 7,-22 7,-36l0 -158c0,-16 0,-28 -1,-36 -1,-8 -2,-15 -4,-20 -2,-5 -4,-9 -6,-12 -3,-3 -6,-6 -11,-8 -4,-3 -12,-6 -22,-8l0 -21 111 0 0 288c0,22 1,37 2,47 0,9 2,17 5,22 2,6 6,10 12,14 5,4 15,7 29,10l0 22 -89 4 -24 0 2 -69 -6 -2c-21,26 -42,44 -61,56 -20,12 -40,18 -59,18 -24,0 -43,-5 -59,-16 -15,-10 -26,-25 -34,-45 -8,-20 -11,-48 -11,-85l0 -159c0,-24 -1,-40 -3,-49 -2,-8 -5,-16 -9,-21 -5,-5 -16,-10 -32,-14l0 -21z"/>
   <path id="5" class="fil63" d="M5743 12935l5 1c15,-19 28,-33 40,-44 12,-11 26,-19 40,-25 14,-6 30,-9 48,-9 15,0 28,1 41,2l0 97 -44 0c-7,-15 -13,-26 -20,-33 -7,-7 -17,-10 -29,-10 -9,0 -19,3 -28,9 -9,6 -18,14 -27,25 -8,12 -14,22 -17,32 -3,10 -5,22 -5,35l0 148c0,25 1,43 4,52 3,10 8,17 14,22 7,4 17,8 30,10l0 21 -157 0 0 -21c10,-3 17,-6 21,-9 5,-2 8,-6 12,-10 3,-5 5,-11 7,-21 1,-9 2,-24 2,-43l0 -184c0,-18 0,-32 -1,-43 0,-11 -2,-20 -5,-27 -3,-6 -8,-11 -15,-14 -6,-4 -15,-6 -27,-9l0 -22 92 -4 23 0 -4 74z"/>
   <path id="6" class="fil63" d="M6424 12930l5 2c16,-17 29,-30 39,-38 10,-9 19,-16 29,-21 9,-5 18,-9 26,-11 8,-3 16,-4 25,-4 26,0 47,7 63,20 17,13 28,33 34,59 20,-21 36,-37 48,-47 12,-10 24,-18 37,-23 12,-6 26,-9 40,-9 18,0 33,3 45,9 13,5 24,13 32,25 9,11 15,25 19,43 4,17 6,40 6,69l0 159c0,21 1,36 2,44 2,8 3,14 6,19 2,4 6,8 11,11 5,4 13,7 25,10l0 21 -153 0 0 -21c10,-3 17,-6 22,-9 4,-2 8,-6 11,-10 3,-5 5,-12 7,-21 2,-9 2,-24 2,-43l0 -110c0,-24 0,-44 -1,-59 -2,-16 -3,-28 -6,-38 -2,-9 -5,-16 -9,-22 -3,-5 -7,-10 -12,-13 -4,-4 -9,-7 -15,-10 -6,-2 -14,-3 -24,-3 -10,0 -20,2 -29,7 -9,4 -19,12 -29,22 -11,11 -18,22 -23,33 -5,10 -7,23 -7,38l0 154c0,21 1,36 2,44 1,8 3,14 6,19 2,4 6,8 11,11 5,4 13,7 25,10l0 21 -153 0 0 -21c10,-3 17,-6 21,-9 5,-2 8,-6 12,-10 2,-5 5,-12 6,-21 2,-9 3,-24 3,-43l0 -110c0,-25 -1,-46 -2,-61 -1,-16 -3,-29 -6,-38 -3,-10 -6,-17 -10,-23 -5,-6 -9,-11 -14,-14 -4,-3 -9,-5 -15,-7 -6,-1 -13,-2 -20,-2 -11,0 -21,3 -30,8 -10,5 -19,12 -29,22 -10,10 -17,20 -22,31 -5,11 -7,22 -7,35l0 158c0,16 0,28 1,36 1,9 2,15 4,20 1,5 3,9 6,12 3,2 6,5 11,8 5,3 12,5 22,8l0 21 -153 0 0 -21c10,-3 17,-6 21,-9 5,-2 8,-6 11,-10 4,-5 6,-11 7,-21 2,-9 3,-24 3,-43l0 -184c0,-18 0,-32 -1,-43 -1,-11 -2,-20 -5,-27 -4,-6 -8,-11 -15,-14 -6,-4 -15,-6 -27,-9l0 -22 91 -4 24 0 -4 69z"/>
   <path id="7" class="fil63" d="M7115 12700l0 82 -72 0 0 -82 72 0zm-112 547c10,-3 18,-6 22,-9 4,-2 8,-6 11,-10 3,-5 5,-11 7,-21 1,-9 2,-24 2,-43l0 -184c0,-18 0,-32 -1,-43 0,-11 -2,-20 -5,-27 -3,-6 -8,-11 -14,-14 -7,-4 -16,-6 -27,-9l0 -22 90 -4 24 0 0 302c0,24 1,40 3,50 2,9 6,16 12,21 6,5 16,10 29,13l0 21 -153 0 0 -21z"/>
   <path id="8" class="fil63" d="M7625 13268l-153 0 0 -21c10,-3 17,-6 21,-9 5,-2 9,-6 11,-10 3,-5 6,-12 8,-21 1,-9 2,-24 2,-43l0 -110c0,-20 0,-38 -2,-54 -1,-16 -2,-29 -5,-39 -2,-10 -5,-18 -9,-24 -3,-6 -7,-11 -12,-15 -5,-4 -10,-7 -17,-9 -6,-3 -14,-4 -24,-4 -10,0 -20,2 -29,6 -9,5 -19,12 -30,23 -11,11 -19,21 -24,32 -5,10 -7,22 -7,35l0 158c0,24 1,40 3,50 2,9 6,16 12,21 6,5 15,10 28,13l0 21 -152 0 0 -21c10,-3 17,-6 21,-9 5,-2 8,-6 11,-10 3,-5 6,-11 7,-21 2,-9 3,-24 3,-43l0 -184c0,-18 0,-32 -1,-43 0,-11 -2,-20 -5,-27 -4,-6 -8,-11 -15,-14 -6,-4 -15,-6 -27,-9l0 -22 91 -4 24 0 -4 69 5 2c20,-21 35,-36 47,-45 12,-9 24,-16 36,-21 12,-5 25,-8 38,-8 14,0 27,2 38,6 11,3 20,9 29,16 8,7 15,16 21,27 5,11 9,24 12,39 3,15 4,34 4,58l0 159c0,19 1,33 2,42 1,8 2,15 5,20 3,5 6,9 11,12 5,3 14,7 26,10l0 21z"/>
   <path id="9" class="fil63" d="M7975 12810c0,-27 -1,-46 -1,-57 0,-10 -1,-19 -3,-27 -2,-7 -4,-13 -7,-17 -3,-4 -7,-8 -12,-10 -5,-3 -14,-5 -27,-8l0 -22 94 -4 23 0 0 488c0,22 0,37 1,47 1,9 2,17 5,22 3,6 7,10 12,14 6,4 16,7 30,10l0 22 -92 4 -24 0 5 -69 -6 -2c-16,19 -30,33 -43,43 -12,9 -24,17 -38,22 -14,6 -28,9 -44,9 -42,0 -75,-18 -98,-53 -23,-35 -35,-85 -35,-151 0,-46 8,-85 23,-118 15,-32 35,-56 61,-72 25,-15 54,-23 86,-23 17,0 32,1 47,4 14,3 28,8 43,15l0 -67zm0 208c0,-22 -1,-39 -3,-53 -2,-13 -5,-24 -9,-33 -4,-9 -10,-16 -17,-23 -8,-6 -16,-10 -24,-13 -9,-3 -20,-4 -32,-4 -33,0 -58,14 -76,43 -17,29 -26,70 -26,124 0,54 7,95 22,123 14,28 36,42 65,42 11,0 21,-1 28,-3 8,-2 15,-6 22,-10 8,-5 15,-11 23,-19 7,-9 13,-16 16,-23 4,-6 6,-14 8,-23 2,-9 3,-20 3,-34l0 -94z"/>
   <path class="fil64" d="M7322 10408c-25,43 -45,84 -68,138 -22,53 -48,118 -63,192 -15,73 -21,154 -12,239 9,85 31,173 61,244 30,71 68,126 114,183 46,57 100,115 139,166 39,51 61,93 67,123 5,30 -7,48 -13,56 -6,9 -6,9 -6,9 0,0 0,0 15,-2 14,-2 44,-6 111,1 67,8 173,26 272,36 100,10 193,12 278,0 86,-12 163,-38 241,-84 78,-46 157,-112 224,-191 68,-79 124,-169 162,-259 38,-89 58,-177 63,-256 5,-79 -4,-148 -22,-225 -18,-78 -45,-163 -103,-264 -58,-100 -147,-217 -223,-296 -75,-79 -136,-122 -199,-155 -63,-34 -127,-58 -211,-55 -85,3 -190,32 -318,81 -127,48 -277,116 -366,173 -89,57 -119,102 -143,146z"/>
   <path class="fil65" d="M7322 10408c-25,43 -45,84 -68,138 -22,53 -48,118 -63,192 -15,73 -21,154 -12,239 9,85 31,173 61,244 30,71 68,126 114,183 46,57 100,115 139,166 39,51 61,93 67,123 5,30 -7,48 -13,56 -6,9 -6,9 -6,9 0,0 0,0 15,-2 9,-1 25,-3 52,-3 39,-5 93,-13 150,-29 65,-18 134,-46 203,-89 70,-42 139,-100 202,-166 64,-67 121,-143 164,-230 44,-87 73,-184 90,-283 18,-100 23,-201 19,-292 -4,-92 -17,-173 -42,-250 -25,-78 -61,-151 -98,-215 -37,-64 -76,-119 -111,-158 -12,-13 -23,-24 -35,-33l-1 0c-85,3 -190,32 -318,81 -127,48 -277,116 -366,173 -89,57 -119,102 -143,146z"/>
   <path class="fil66" d="M7276 10412c48,6 98,14 176,12 77,-2 181,-14 274,-34 93,-20 174,-48 241,-78 68,-29 121,-60 168,-85 48,-24 89,-43 126,-48 38,-4 71,5 92,30 22,24 31,64 46,112 16,47 37,102 60,149 22,46 46,85 68,115 22,30 42,51 84,64 41,13 104,17 146,1 42,-15 63,-50 51,-110 -12,-60 -57,-145 -106,-217 -49,-72 -101,-131 -167,-176 -66,-46 -146,-78 -222,-103 -77,-25 -150,-44 -232,-43 -82,2 -173,23 -280,55 -108,32 -232,75 -345,133 -112,59 -214,134 -242,173 -29,40 15,44 62,50z"/>
   <path class="fil67" d="M8151 10127c-34,37 -74,80 -134,124 -60,45 -140,92 -227,122 -88,30 -182,43 -282,49 -99,5 -203,2 -284,1 -80,-1 -138,-1 -200,2 -62,3 -128,10 -162,13 -33,4 -33,4 -33,4 0,0 0,0 14,-10 14,-10 42,-30 79,-71 38,-41 84,-102 132,-164 48,-61 98,-122 181,-182 83,-59 201,-116 293,-151 93,-35 161,-47 232,-49 71,-3 144,4 212,24 68,21 131,56 178,85 47,29 79,53 95,65 16,12 16,12 16,12 0,0 0,0 0,-19 -1,-19 -2,-58 -3,-77 -1,-20 -1,-20 -1,-20 0,0 0,0 11,4 11,4 32,12 43,16 10,4 10,4 10,4 0,0 0,0 -2,19 -2,19 -6,56 -8,75 -2,18 -2,18 -2,18 0,0 0,0 47,10 47,10 140,30 223,56 84,26 157,58 228,110 71,52 139,124 183,203 45,78 66,162 74,250 7,88 0,180 -3,226 -3,47 -3,48 -3,49 0,1 0,1 -20,-16 -20,-17 -60,-50 -107,-78 -47,-28 -100,-51 -157,-75 -57,-25 -117,-52 -169,-94 -53,-43 -98,-102 -128,-166 -30,-65 -45,-136 -57,-195 -12,-60 -21,-108 -37,-148 -16,-41 -39,-74 -64,-94 -26,-19 -54,-24 -68,-27 -14,-3 -14,-3 -27,13 -13,15 -40,46 -73,82z"/>
   <path class="fil68" d="M8151 10127c-34,37 -74,80 -134,124 -60,45 -140,92 -227,122 -88,30 -182,43 -282,49 -99,5 -203,2 -284,1 -80,-1 -138,-1 -200,2 -62,3 -128,10 -162,13 -33,4 -33,4 -33,4 0,0 0,0 14,-10 7,-6 19,-14 33,-26 26,-13 58,-29 99,-50 79,-40 193,-97 302,-149 109,-51 215,-96 319,-130 104,-34 207,-57 289,-72 83,-14 146,-21 200,-19 55,2 102,13 131,22 19,6 31,12 39,25l-4 -1c-14,-3 -14,-3 -27,13 -13,15 -40,46 -73,82z"/>
  </g>
  <path class="fil69" d="M43953 17829c-2,0 -3,0 -3,0 0,0 1,0 3,0zm-533 -2484c-69,96 -101,236 -58,432 0,0 117,418 576,243 0,0 44,52 122,96 54,91 133,216 185,248 84,50 326,162 326,162 0,0 55,319 -19,712 -56,297 -439,413 -460,415 35,-3 937,-101 1314,28 0,0 -315,-236 -371,-421 -56,-185 -127,-571 -88,-762 0,0 292,-112 376,-207 70,-79 308,-519 388,-668 437,149 550,-252 550,-252 91,-421 -162,-584 -383,-604 -24,-364 -474,-480 -474,-480 99,-496 -423,-876 -925,-733 -501,142 -438,651 -438,651 0,0 -655,22 -737,554 -45,292 35,478 116,586zm723 808c87,30 199,41 331,-9 0,0 52,30 131,52 17,82 52,165 117,229 0,0 -322,-39 -418,-101 -43,-28 -106,-100 -161,-171zm561 61c145,15 331,-22 477,-239 12,-17 23,-35 33,-53l61 321c-49,36 -286,137 -384,137 -57,0 -132,-56 -187,-166zm540 -353c13,-30 23,-61 32,-92 233,27 384,-128 406,-152 -86,138 -274,439 -361,566l-77 -322z"/>
  <path class="fil70" d="M41715 13819c0,0 264,499 504,710 240,212 593,475 635,816 42,341 0,1582 -339,2344 0,0 565,-169 1030,0 0,0 -352,-1185 -310,-1820 42,-634 28,-1114 465,-1424 438,-311 1171,-452 1171,-452l0 -77c0,0 -536,84 -536,35 0,-50 35,-720 35,-720l-63 0c0,0 -49,586 -127,678 -78,91 -712,373 -875,670 0,0 -49,-551 -63,-868 -14,-317 21,-980 85,-1192 63,-212 373,-769 373,-769l-77 -35c0,0 -374,769 -473,790 -99,21 -529,-854 -529,-854l-70 36c0,0 373,797 437,1107 63,310 -7,1834 -49,1989 -43,155 -812,-582 -868,-1130l-56 0c0,0 150,568 147,614 -6,84 -391,-498 -391,-498l-56 50z"/>
  <path class="fil71" d="M42906 15023c0,0 167,204 160,663 -7,458 -50,1763 -50,1763 0,0 -240,51 -360,120 0,0 203,-712 250,-1192 47,-479 75,-1142 -45,-1319l45 -63 0 28z"/>
  <path class="fil72" d="M41302 12385c-404,24 -696,0 -1015,357 -320,358 -292,884 141,1119 432,236 1363,217 1862,0 498,-216 646,-401 611,-724 -38,-348 -188,-837 -1599,-752z"/>
  <path class="fil73" d="M40352 13617c-99,-88 -172,-436 38,-719 174,-236 484,-353 771,-377 287,-23 903,-37 936,80 33,118 -71,188 -480,188 -409,0 -761,-4 -982,315 -152,220 -52,715 -283,513z"/>
  <path class="fil74" d="M43197 10142c-632,100 -1392,292 -1796,621 -404,329 -395,1128 -75,1363 320,236 1020,58 1502,-121 482,-180 905,215 1526,197 621,-19 715,-282 724,-555 9,-273 141,-320 0,-546 -141,-225 -282,-498 -489,-649 -207,-150 -691,-421 -1392,-310z"/>
  <path class="fil75" d="M42130 10518c173,-53 818,-263 1312,-272 493,-10 1152,225 1260,573 108,348 -183,235 -259,141 -75,-94 -517,-451 -874,-470 -358,-19 -1260,208 -1402,160 -141,-47 -145,-99 -37,-132z"/>
  <path class="fil72" d="M43508 12989c-47,-176 -29,-555 357,-611 386,-57 705,-122 1025,-263 320,-142 856,28 1063,583 207,554 56,1467 -583,1617 -640,151 -668,-446 -762,-561 -94,-116 -954,-210 -1100,-765z"/>
  <path class="fil73" d="M44946 12239c189,-92 725,85 875,438 150,352 108,916 0,949 -108,33 -142,-630 -212,-794 -145,-344 -837,-508 -663,-593z"/>
 </g>
</svg>
