<?xml version="1.0" encoding="UTF-8"?>
<!DOCTYPE svg PUBLIC "-//W3C//DTD SVG 1.1//EN" "http://www.w3.org/Graphics/SVG/1.1/DTD/svg11.dtd">
<!-- Creator: CorelDRAW X8 -->
<svg xmlns="http://www.w3.org/2000/svg" xml:space="preserve" width="4920px" height="1956px" version="1.1" style="shape-rendering:geometricPrecision; text-rendering:geometricPrecision; image-rendering:optimizeQuality; fill-rule:evenodd; clip-rule:evenodd"
viewBox="0 0 49611 19724"
 xmlns:xlink="http://www.w3.org/1999/xlink">
 <defs>
  <style type="text/css">
   <![CDATA[
    .str0 {stroke:#373435;stroke-width:42.0061}
    .str2 {stroke:#313131;stroke-width:42.0061}
    .str1 {stroke:#424242;stroke-width:21.009}
    .str3 {stroke:black;stroke-width:9.07532}
    .str4 {stroke:#B5EEFF;stroke-width:9.07532}
    .str5 {stroke:#E6E6E6;stroke-width:9.07532}
    .fil18 {fill:none}
    .fil14 {fill:#373435}
    .fil20 {fill:#EFB783}
    .fil61 {fill:#0034BB}
    .fil60 {fill:#0051B4}
    .fil35 {fill:#0B3859}
    .fil46 {fill:#121710}
    .fil23 {fill:#1369B6}
    .fil53 {fill:#1B1B1C}
    .fil31 {fill:#1C1C1C}
    .fil27 {fill:#20547B}
    .fil8 {fill:#313131}
    .fil30 {fill:#33322E}
    .fil36 {fill:#333333}
    .fil26 {fill:#362D24}
    .fil28 {fill:#3689BB}
    .fil22 {fill:#3890D0}
    .fil11 {fill:#424242}
    .fil7 {fill:#464646}
    .fil15 {fill:#4A4A4A}
    .fil66 {fill:#4B2304}
    .fil39 {fill:#4D4D4D}
    .fil38 {fill:#525252}
    .fil16 {fill:#5C707B}
    .fil65 {fill:#5E6A4E}
    .fil17 {fill:#71848B}
    .fil9 {fill:#757575}
    .fil54 {fill:#767B7F}
    .fil32 {fill:#797977}
    .fil48 {fill:#7A838A}
    .fil40 {fill:gray}
    .fil55 {fill:#99A3AC}
    .fil49 {fill:#9CADB7}
    .fil56 {fill:#AAB5C5}
    .fil52 {fill:#ADBACA}
    .fil67 {fill:#B1BA9F}
    .fil63 {fill:#B52D2F}
    .fil37 {fill:#B5EEFF}
    .fil24 {fill:#B96F48}
    .fil58 {fill:#BABABA}
    .fil51 {fill:#BACADA}
    .fil45 {fill:#C1C2C9}
    .fil19 {fill:#C1CFCF}
    .fil33 {fill:#C77066}
    .fil5 {fill:#C8382F}
    .fil12 {fill:#CACACA}
    .fil2 {fill:#CCCCCC}
    .fil44 {fill:#CDCED3}
    .fil3 {fill:#CFB175}
    .fil50 {fill:#D2D7DD}
    .fil6 {fill:#DF7E77}
    .fil4 {fill:#DFE9EB}
    .fil34 {fill:#E09474}
    .fil43 {fill:#E0E7ED}
    .fil1 {fill:#E6E6E6}
    .fil41 {fill:#E6EEF1}
    .fil21 {fill:#EC9956}
    .fil29 {fill:#ECB31E}
    .fil25 {fill:#EDD89F}
    .fil13 {fill:#EFEFEF}
    .fil42 {fill:#F1FAFF}
    .fil0 {fill:#F2F2F2}
    .fil47 {fill:#F2FBFF}
    .fil62 {fill:#FFCC00}
    .fil10 {fill:white}
    .fil57 {fill:white}
    .fil64 {fill:white;fill-rule:nonzero}
    .fil59 {fill:#B3B3B3}
   ]]>
  </style>
    <mask id="id0">
  <linearGradient id="id1" gradientUnits="userSpaceOnUse" x1="25832.6" y1="16195.4" x2="30701.4" y2="16195.4">
   <stop offset="0" style="stop-opacity:0; stop-color:white"/>
   <stop offset="1" style="stop-opacity:1; stop-color:white"/>
  </linearGradient>
     <rect style="fill:url(#id1)" x="25822" y="14872" width="4890" height="2647"/>
    </mask>
 </defs>
 <g id="Слой_x0020_1">
  <metadata id="CorelCorpID_0Corel-Layer"/>
  <g id="_2210509875712">
   <polygon class="fil0" points="2,0 49202,0 49202,19724 2,19724 "/>
   <path class="fil1" d="M3895 8537c-48,-8 -103,-12 -152,-25 -116,-29 -32,9 -91,-37l-149 20c-191,336 -97,298 -108,755 -9,4 -22,7 -29,10l-54 21c-81,38 -11,-7 -67,37 -128,103 -22,195 -387,146 -72,60 -222,33 -344,42 -182,13 -206,44 -341,80 2,76 -20,474 -78,534 -65,70 -25,43 -136,41 -19,-177 65,-410 -52,-484 -75,-33 -98,-128 -284,-28 -267,143 -101,339 -177,624 -30,113 75,43 -55,98 -13,63 12,11 -33,56 -140,-23 -86,-38 -243,-55 -111,-3 -189,22 -267,42l-390 -42 -78 -280c-54,-20 -304,-56 -378,-70l0 9702 49200 0 409 0 0 -9662 -166 22c-44,68 -81,213 -124,265 -105,124 -171,35 -289,5l-58 -231 -602 9c-31,175 110,313 -493,274l-17 -263c-274,-129 -369,51 -635,31 -32,-142 -19,-527 -64,-587 -141,25 -51,1 -82,72 -82,188 59,111 -314,151 -94,-127 -66,-206 -430,-227 -99,-24 -45,31 -80,-130 -1,-4 -17,-162 -18,-177l27 -254c18,-93 48,53 5,-53l-155 -1 30 165c-232,-26 -190,-13 -398,0l-29 -390c-115,-14 -67,-23 -134,75 -7,-6 -14,-15 -19,-19 -4,-4 -13,-14 -18,-19l-71 -63c-97,-66 -267,-123 -399,-63 -404,185 -283,-7 -524,166l-1 1323c-207,74 -243,122 -330,124l-1 -1474c-378,-41 -150,-15 -349,-125 -6,-3 -15,-8 -22,-11 -109,-49 -126,-25 -217,4 -230,75 -363,129 -617,155l-10 1128 -194 119c-83,38 -148,23 -247,57 -7,-7 -12,-19 -16,-25 -55,-93 -43,-150 -184,-175 -142,-25 -216,9 -345,-25 -382,-101 -210,-26 -602,30l4 293c-211,24 -373,93 -589,36 -125,-615 33,-1412 -65,-1997 -54,-88 -265,-93 -412,-207 -115,-90 -140,-108 -231,-260 -4,-6 -10,-17 -13,-22l-480 -23 19 609c-498,226 -111,986 -274,1505l-528 61 -14 190c-376,-37 -350,-45 -536,14 -147,-145 44,-91 -225,-184 -217,-76 -722,-200 -903,-26 6,-248 4,-497 -22,-744 -11,-112 -28,-217 -39,-320 -10,-92 -8,-251 -101,-278 -322,5 -95,34 -257,107l-33 845c-154,40 -608,-18 -801,-23 -1,2 -1,686 -49,599 -3,-5 -10,21 -20,27l-61 16c-122,-194 -58,-359 -71,-638l-315 -35c-5,-101 -2,-215 4,-333l0 -3c6,-180 25,-1181 8,-1256 -395,-102 -925,-22 -1349,15 -60,285 -14,1704 -17,2036 -175,35 -193,69 -247,227 -368,2 -426,138 -661,-24 -65,76 -69,130 -180,124 -48,-400 -10,-1044 -10,-1469 0,-356 43,-1187 -18,-1477l-355 -25c-31,-57 -10,-37 -30,-80 -43,-91 28,3 -36,-60 -267,86 -394,-25 -536,15 -272,77 -399,73 -413,271 -203,-4 -236,-1 -241,195l3 1227 -173 66c-20,395 28,769 -31,1150 -170,-2 -314,-147 -408,-36 -145,158 229,430 -350,377 -72,-131 -27,-169 -133,-292 -124,-7 -183,-7 -260,59 -20,17 -80,87 -80,87 -193,162 -440,102 -568,136 -179,48 -18,137 -466,-7 -267,-85 -202,-106 -472,-74l-16 -209c-164,-102 -74,86 -156,-134 -83,-222 -19,-510 -51,-741 -192,-22 -74,49 -350,-10 -51,-11 -73,-11 -125,-12 -181,-2 -406,31 -530,109 -137,284 40,881 -68,1191 -253,26 -41,-17 -198,-113 -126,50 -132,86 -276,87 -40,-292 64,-169 -83,-447 -77,-146 -6,-302 -46,-493 -91,-24 -305,-30 -386,9 -25,11 -99,76 -131,90l-174 67c-2,147 11,288 11,432 -1,187 -1,189 -106,295l-246 -99 -10 -198c-89,-33 -104,-14 -159,-82 -93,-113 27,-93 -114,-135 -40,91 -57,156 -101,241l-367 2 -14 285c-238,55 -201,-32 -247,-205 -66,-247 -671,-91 -931,-78l-77 213c-197,-21 -64,-27 -260,-97l-1 -177c-8,-7 -19,-12 -25,-16l-103 -82c-74,-101 -70,-233 -156,-343 -274,13 -479,1 -744,65 -64,299 20,142 -112,318 -61,81 -41,-50 -54,155 -3,53 7,121 3,190 -72,3 -185,-19 -305,-15 19,-103 23,-76 33,-152 -154,-44 -235,-159 -392,-76 -201,106 -53,253 -248,312 -192,-151 -15,-270 -165,-448 -131,41 -1,0 -132,106 -323,-93 -333,-10 -498,263l-218 -26 -12 -292 -841 -2 -2 290c-86,-5 -36,-7 -150,-46 -87,-29 -72,-27 -147,-59 -279,-119 -21,77 -297,8 2,-178 -5,-350 -85,-491l-417 20c7,374 -29,181 -107,384 -195,-185 -205,-25 -399,-130 -98,-221 4,-985 -39,-1310 -224,-5 -436,-43 -657,-49 -397,-10 -341,96 -534,129 -254,42 -650,-92 -895,38 -84,44 -42,33 -74,84 -15,25 -19,36 -38,66l-101 43c-25,0 -48,-4 -79,-4 -63,1 -97,-1 -149,26 -150,78 -41,97 -181,203 -126,-41 -24,-8 -100,-133l-231 -2c-8,9 -144,165 -145,168 -130,247 -34,611 -61,867 -1,14 -23,104 -38,129 -5,8 -80,78 -86,81 -152,84 -120,16 -242,14 -170,-4 -21,-12 -105,31 -68,36 25,19 -117,49 -288,60 -199,63 -397,-65 -135,-88 -168,-101 -170,-369 -48,-83 7,-233 20,-385l-3 -10c-1,-4 -8,4 -12,3 3,-157 27,-130 10,-320l12 4 4 -122 -9 -5c-11,-321 14,-655 12,-980l0 -91c-3,-8 -6,-13 -9,-16l9 -4c-1,-153 -7,-115 -85,-265 -60,-114 -71,-245 -111,-345 -213,5 -451,42 -633,-37 -184,-80 -276,-6 -451,21 -46,-129 -4,-136 -105,-199 -169,55 -28,138 -229,215 -109,41 -210,5 -350,39 -46,591 27,2053 -39,2412 -132,10 -268,32 -379,89l-49 312c-194,28 -247,-115 -243,-297l-235 12c-2,-422 -242,-207 -427,-140 -6,-7 -13,-18 -17,-23l-62 -82c-78,-111 -49,-211 -87,-351l-260 34c-104,-52 -85,-150 -219,-108 -108,34 -71,115 -149,223 -48,-29 -12,6 -78,-63 -8,-9 -40,-58 -54,-77 -264,-22 -382,58 -576,-101l2 -707c-508,1 -299,-50 -522,-90 -48,-8 -466,44 -538,58 -42,239 -36,269 -8,507 -8,5 -20,9 -25,12l-49 23c-9,5 -35,21 -43,27 -159,137 30,389 -92,759l-200 26c-7,-6 -15,-16 -20,-21l-69 -79c-34,-43 -21,-25 -49,-67l-295 81c6,319 56,323 -295,318l-81 -174c-77,-186 -186,-238 -398,-222 -59,97 -41,65 -83,173 -86,-32 -207,-58 -300,-128 -4,-4 -13,-9 -17,-13 -4,-3 -12,-9 -15,-13 -33,-34 -14,-18 -32,-72 -230,-8 -309,24 -463,-100l-16 -1078c-444,-107 -410,-246 -675,-184 -188,43 8,17 -178,119z"/>
   <path class="fil2" d="M46454 12325c-7,-7 -16,-31 -19,-25l-74 -104c-107,-121 30,-73 -180,-98 -98,178 58,230 156,378 -144,19 -235,21 -299,128 155,148 221,-35 441,-26l-4 321c-117,-101 9,-97 -203,-211l-193 166c-83,71 -116,-42 -124,115 92,271 164,67 326,316 -323,28 -547,-184 -612,153 192,77 275,13 466,-27 6,12 9,18 11,37 22,197 165,239 308,340l25 374c-401,-77 -223,-112 -328,-393 -76,-205 -17,-94 -153,-127 -129,200 -23,252 69,411 -398,-27 -405,-336 -699,-213 4,319 137,149 349,269 -144,213 -291,51 -306,412 245,5 234,-108 359,-278 9,7 22,8 25,22l208 203c-262,99 -370,37 -385,383 316,-34 323,-324 852,-477l12 399c-164,-77 -188,-142 -356,-71 11,341 128,163 346,339l2 630 -302 -148c125,-235 240,-118 251,-417 -241,19 -213,13 -281,198 -154,-210 94,-439 -260,-531 -62,242 48,426 129,631 -356,-21 -523,-484 -761,-396 -39,226 202,253 273,308 71,54 28,13 67,70 -210,141 -371,60 -377,371 537,-58 174,-442 811,-206 -154,258 -301,53 -331,368 271,12 209,-98 368,-202 167,-109 261,16 407,112l4 275c-119,-129 -142,-208 -360,-237 -10,659 382,-76 366,781 -580,60 -367,-405 -617,-636 -290,134 18,324 88,527 -973,-106 -338,-598 -772,-651 -105,217 50,278 123,497 -414,-4 -766,-352 -707,93 268,50 689,-55 1074,140 -257,233 -448,40 -464,428 272,-56 308,-225 574,-331 217,-86 465,38 698,77 6,246 -107,916 71,1064 115,-71 67,32 87,-185 5,-50 -4,-214 -5,-277 -2,-197 -5,-396 5,-593 214,-56 486,-168 688,-95 341,125 286,312 586,322 -31,-357 -212,-184 -476,-410 129,-69 343,-94 496,-122 361,-67 313,7 584,-4 42,-466 -278,-131 -698,-100 70,-294 224,-198 132,-523 -159,36 -134,-58 -192,171 -99,389 49,414 -587,495 77,-245 214,-152 196,-371 -12,-142 -20,-93 -86,-151 -362,180 97,535 -642,661l-1 -412c229,-121 372,-34 359,-367 -273,-53 -230,66 -356,214l4 -299c578,-344 312,99 761,116 -6,-317 -188,-132 -309,-357 559,-332 341,233 801,165 -2,-264 -202,-229 -393,-334 119,-167 368,-145 360,-415 -187,-5 -385,270 -754,429 27,-298 248,-370 78,-632 -257,57 -127,317 -197,548 -150,-230 -172,-144 -357,-263 141,-232 330,-14 347,-365 -182,-74 -221,-3 -339,90l-12 -422c554,153 578,511 864,453 -14,-246 -153,-282 -375,-332l206 -228 137 167c124,136 35,91 231,101 -13,-354 -130,-221 -300,-422 200,-131 333,70 344,-277 -357,-116 -211,145 -686,227 65,-197 201,-207 46,-416 -100,42 -106,13 -153,171 -31,103 -18,187 -58,304l-251 46 -7 -353c229,-125 277,-184 317,-322l15 -72c220,36 241,136 459,8 -21,-336 -288,-93 -588,-150 152,-205 215,-59 325,-306 -104,-202 -112,3 -209,-183 109,-335 -141,280 54,-97 33,-64 14,56 75,-157l-293 -61c75,-157 294,-121 132,-379 -200,41 -136,141 -278,243 -11,-222 156,-626 -118,-545 -224,66 26,286 -61,535z"/>
   <polygon class="fil3" points="49200,17755 0,17755 0,17857 49200,17857 "/>
   <g>
    <path class="fil4" d="M22596 16021c48,2 131,4 188,3 57,-2 89,-8 107,-16 18,-7 23,-16 14,-33 -8,-16 -29,-40 -58,-71 -29,-30 -67,-68 -105,-100 -38,-32 -78,-58 -118,-82 -39,-25 -79,-49 -117,-69 -37,-21 -72,-39 -107,-54 -35,-15 -69,-27 -94,-35 -25,-8 -39,-11 -57,-13 -19,-2 -41,-2 -69,-1 -28,0 -61,1 -86,4 -24,4 -39,10 -50,19 -11,8 -19,18 -19,35 -1,17 5,41 23,71 18,30 48,67 83,101 35,35 74,69 119,103 44,35 93,70 138,92 46,23 87,32 115,37 29,5 44,7 93,9z"/>
    <path class="fil5" d="M16347 13610l405 0c35,0 63,28 63,62l0 441c0,34 -28,62 -63,62l-405 0c-34,0 -62,-28 -62,-62l0 -441c0,-34 28,-62 62,-62z"/>
    <polygon class="fil6" points="16356,13610 16743,13610 16743,13900 16356,13900 "/>
    <path class="fil7" d="M11522 15347c-16,-13 -21,-41 -24,-70 -3,-30 -3,-61 3,-90 5,-28 15,-53 28,-73 14,-19 29,-34 48,-44 19,-9 42,-15 192,-17 150,-2 429,0 574,-1 145,-1 157,-3 258,-43 101,-39 291,-115 526,-207 234,-92 512,-200 787,-296 274,-97 545,-182 781,-244 236,-61 439,-99 630,-129 192,-30 373,-51 548,-63 96,-7 189,-11 285,-13 0,-2 0,-4 0,-6l0 0c0,-36 30,-67 67,-67l622 0c37,0 67,31 67,67l0 0c0,8 -1,16 -4,23 31,3 61,5 91,8 195,20 378,53 555,95 177,42 349,93 524,161 175,67 352,151 532,252 180,100 362,217 526,324 164,107 310,204 383,253 73,49 73,49 73,49 0,0 0,0 0,0 0,0 0,0 350,38 351,39 1052,116 1493,174 441,58 623,96 713,115 91,19 91,19 91,19 0,0 0,0 -31,0 -31,0 -93,0 -125,10 -33,10 -37,30 -19,71 19,41 59,104 110,159 50,54 111,100 166,134 55,35 105,57 198,67 93,11 230,10 298,9 68,-1 68,-1 68,-1 0,0 0,0 0,0 0,0 0,0 11,20 10,20 31,59 39,121 8,61 3,145 0,187 -2,42 -2,42 -2,42 0,0 0,0 6,0 7,0 20,0 27,0 6,0 6,0 6,0 0,0 0,0 0,50 0,49 0,147 0,197 0,49 0,49 0,49 0,0 0,0 0,0 0,0 0,0 -6,-1 -6,-2 -18,-4 -23,-6 -6,-1 -6,-1 -6,-1 0,0 0,0 0,0 0,0 0,0 0,35 0,36 0,107 -4,163 -4,55 -12,96 -25,132 -13,35 -32,65 -54,90 -22,24 -49,42 -83,58 -34,16 -76,29 -188,42 -112,13 -295,26 -386,33 -91,6 -91,6 -91,6 0,0 0,0 -14,-6 -14,-7 -42,-20 -55,-26 -14,-7 -14,-7 -14,-7 0,0 0,0 -11,1 -10,0 -31,2 -42,2 -10,1 -10,1 -287,10 -276,9 -829,28 -1105,37 -276,9 -276,9 -276,9 0,0 0,0 -3,7 -3,7 -8,22 -11,29 -2,7 -2,7 -2,7 0,0 0,0 -942,-10 -942,-11 -2827,-32 -3806,-44 -979,-13 -1054,-17 -1092,-19 -37,-1 -37,-1 -281,-6 -245,-5 -733,-14 -1068,-27 -336,-13 -518,-30 -753,-56 -236,-25 -523,-60 -692,-83 -168,-24 -218,-37 -258,-55 -40,-17 -71,-40 -90,-63 -20,-23 -29,-46 -29,-182 0,-135 9,-382 18,-517 9,-136 19,-161 57,-207 39,-46 107,-113 210,-205 103,-92 241,-209 317,-283 75,-74 88,-106 88,-131 -1,-26 -15,-46 -48,-60 -32,-15 -82,-24 -142,-20 -60,3 -131,19 -181,27 -49,9 -76,10 -93,-3z"/>
    <path class="fil8" d="M22468 15991c21,5 45,9 72,12l13 2 0 0 -694 217 0 -40 609 -191z"/>
    <path class="fil8" d="M11420 15968c10,-10 22,-21 34,-33l1190 199 358 182 -20 35 -370 -185 -1192 -198z"/>
    <path class="fil9" d="M22062 15584c-11,12 -9,30 4,59 19,41 59,104 110,159 26,29 56,55 86,78l7 9c0,0 0,0 -93,-3 -94,-2 -280,-6 -374,-8 -93,-3 -93,-3 -93,-3 0,0 0,0 -27,-13 -27,-13 -80,-39 -135,-57 -55,-18 -111,-27 -180,-34 -69,-8 -151,-12 -224,-7 -74,5 -139,20 -189,34 -49,13 -83,25 -99,31 -17,5 -17,5 -17,5 0,0 0,0 -173,-4 -173,-4 -519,-12 -692,-16 -173,-4 -173,-4 -173,-4 0,0 0,0 0,0 0,0 0,0 -11,-35 -12,-36 -35,-107 -62,-173 -27,-67 -57,-128 -94,-185 -37,-56 -80,-107 -101,-132 -22,-26 -22,-26 -22,-26 0,0 0,0 66,4 67,4 199,11 348,20 149,9 313,20 484,35 172,16 350,37 521,59 172,22 338,45 492,70 155,25 298,52 416,79 95,22 174,43 225,58z"/>
    <path class="fil5" d="M11612 15280c56,-7 140,-12 203,-13 62,0 103,4 138,14 36,11 66,28 88,49 22,21 37,46 44,60 7,15 7,19 1,28 -6,10 -17,26 -54,58 -37,32 -99,81 -165,135 -66,54 -137,113 -196,160 -59,47 -107,83 -142,110 -35,26 -59,45 -71,54 -12,9 -12,9 -12,9 0,0 0,0 6,-98 6,-99 18,-296 26,-403 9,-107 14,-124 31,-136 17,-13 46,-21 103,-27z"/>
    <path class="fil10" d="M12080 15381c2,3 4,6 5,9 7,15 7,19 1,28 -5,9 -14,22 -40,46l-569 0 1 -21c2,-25 4,-46 6,-62l596 0zm-339 333c-24,20 -48,39 -70,57 -11,9 -22,17 -33,26l-183 0 5 -83 281 0z"/>
    <path class="fil11" d="M13756 15968c496,0 898,402 898,898 0,496 -402,898 -898,898 -496,0 -898,-402 -898,-898 0,-496 402,-898 898,-898z"/>
    <path class="fil12 str0" d="M13756 16236c348,0 630,282 630,630 0,348 -282,630 -630,630 -348,0 -630,-282 -630,-630 0,-348 282,-630 630,-630z"/>
    <path class="fil13" d="M16867 15246c14,60 40,166 64,299 24,133 47,291 59,473 13,181 15,384 13,516 0,28 -1,53 -1,76l-1716 0 3 23 1712 -3c-2,37 -4,67 -7,94l-1705 0 0 67 1696 0c-10,62 -23,125 -30,157 -6,32 -6,32 -6,32 0,0 0,0 0,0 0,0 0,0 -299,0 -300,0 -899,0 -1198,0 -299,0 -299,0 -299,0 0,0 0,0 0,0 0,0 0,0 -28,-70 -29,-70 -85,-211 -191,-412 -106,-201 -260,-462 -405,-686 -144,-225 -278,-413 -354,-518 -75,-106 -92,-130 -87,-142 5,-11 33,-11 492,-5 459,7 1349,20 1799,23 450,3 461,-3 467,0 6,3 7,17 21,76zm77 63c17,76 44,202 65,341 21,139 36,292 43,412 7,120 7,208 5,315 -1,73 -3,155 -8,233l2686 0c1,-21 2,-41 3,-63 9,-176 6,-388 -2,-546 -9,-158 -23,-263 -54,-355 -31,-92 -78,-171 -127,-234 -50,-63 -101,-110 -126,-134 -26,-23 -26,-23 -26,-23 0,0 0,0 0,0 0,0 0,0 0,0 0,0 0,0 -414,-12 -415,-12 -1243,-35 -1657,-47 -415,-12 -415,-12 -415,-12 0,0 0,0 3,12 3,13 8,38 24,113zm104 1321c-2,30 -4,59 -6,86l-1 8 2685 0c3,-31 5,-64 8,-99l-2686 5zm-15 161c-9,67 -19,119 -25,149 -8,40 -8,40 -8,40 0,0 0,0 0,0 0,0 0,0 449,5 448,4 1345,13 1793,18 448,5 448,5 448,5 0,0 0,0 0,0 0,0 0,0 10,-71 5,-34 12,-84 19,-146l-2686 0z"/>
    <polygon class="fil12" points="14463,15335 15054,15335 15054,15467 14463,15467 "/>
    <polygon class="fil14" points="14544,15379 14973,15379 14973,15422 14544,15422 "/>
    <polygon class="fil12" points="17119,15382 17710,15382 17710,15514 17119,15514 "/>
    <polygon class="fil14" points="17200,15427 17629,15427 17629,15470 17200,15470 "/>
    <polygon class="fil15" points="13614,17383 13912,17384 13768,16993 "/>
    <polygon class="fil15" points="13266,17033 13427,17284 13678,16952 "/>
    <polygon class="fil15" points="14256,17033 14096,17284 13845,16952 "/>
    <polygon class="fil15" points="14209,16565 14312,16845 13896,16844 "/>
    <polygon class="fil15" points="13309,16563 13206,16843 13623,16842 "/>
    <polygon class="fil15" points="14102,16440 13829,16321 13805,16737 "/>
    <polygon class="fil15" points="13402,16440 13675,16321 13699,16737 "/>
    <path class="fil16" d="M14218 15101c160,8 453,8 599,8 147,0 147,0 147,0 0,0 0,0 0,0 0,0 0,0 -22,-129 -22,-129 -65,-388 -87,-517 -21,-130 -21,-130 -21,-130 0,0 0,0 0,0 0,0 0,0 -76,21 -75,21 -226,63 -340,99 -113,36 -190,67 -253,100 -63,34 -113,70 -149,110 -37,40 -61,84 -72,130 -11,46 -10,94 2,140 12,45 34,87 59,116 25,29 53,44 213,52z"/>
    <path class="fil17" d="M14688 15109c49,0 94,0 129,0 147,0 147,0 147,0 0,0 0,0 0,0 0,0 0,0 -22,-129 -22,-129 -65,-388 -87,-517 -21,-130 -21,-130 -21,-130 0,0 0,0 0,0 0,0 0,0 -76,21 -75,21 -226,63 -340,99 -71,23 -127,43 -175,63l445 593z"/>
    <path class="fil16" d="M14951 14502c23,132 65,370 87,488 22,119 23,119 24,119 0,0 0,0 0,0 0,0 0,0 258,3 257,4 772,10 1029,14 257,3 257,3 257,3 0,0 0,0 0,0 0,0 0,0 -14,-165 -15,-165 -44,-494 -58,-659 -14,-165 -14,-165 -14,-165 0,0 0,0 0,0 0,0 0,0 -82,3 -83,4 -247,10 -420,21 -173,12 -356,27 -521,48 -166,21 -314,48 -408,66 -94,18 -133,29 -153,34 -20,5 -20,5 -20,5 0,0 0,0 3,14 3,13 8,39 32,171z"/>
    <path class="fil17" d="M14951 14502c23,132 65,370 87,488 22,119 23,119 24,119 0,0 0,0 0,0 0,0 0,0 258,3l323 5 -645 -820c-32,7 -50,12 -62,15 -20,5 -20,5 -20,5 0,0 0,0 3,14 3,13 8,39 32,171z"/>
    <path class="fil16" d="M16868 14491c61,157 156,398 203,518 47,120 47,120 47,120 0,0 0,0 0,0 0,0 0,0 0,0 0,0 0,0 293,4 293,4 879,12 1171,16 293,3 293,3 293,3 0,0 0,0 0,0 0,0 0,0 0,-36 0,-37 0,-111 -1,-149 0,-39 -2,-43 -2,-45 -1,-2 -1,-2 -1,-2 0,0 0,0 -33,-29 -34,-30 -101,-89 -204,-156 -103,-67 -242,-142 -402,-213 -159,-72 -339,-140 -491,-186 -151,-45 -275,-67 -399,-87 -124,-20 -249,-37 -348,-47 -99,-11 -172,-15 -209,-17 -37,-2 -37,-2 -22,36 14,37 43,112 105,270z"/>
    <path class="fil17" d="M18875 15067c0,-35 0,-75 -1,-100 0,-39 -2,-43 -2,-45 -1,-2 -1,-2 -1,-2 0,0 0,0 -33,-29 -34,-30 -101,-89 -204,-156 -62,-41 -138,-84 -223,-128l464 460z"/>
    <path class="fil17" d="M16868 14491l35 91 541 551 1031 14 -803 -830c-121,-33 -225,-51 -330,-68 -124,-20 -249,-37 -348,-47 -99,-11 -172,-15 -209,-17 -37,-2 -37,-2 -22,36 14,37 43,112 105,270z"/>
    <path class="fil9" d="M13606 15131l-2081 -10c-11,19 -20,41 -24,66 -5,25 -6,53 -4,80 57,-10 125,-20 182,-27 89,-10 151,-11 202,-6 51,5 92,17 123,31 30,13 51,29 69,48 18,18 32,39 42,60 9,21 13,42 12,58 -1,16 -6,26 -9,31l-2 6 93 21c93,22 280,65 427,88 148,23 257,26 536,30 278,5 726,12 949,15l224 3 -52 -82 -210 -328 -53 -82 -424 -2z"/>
    <path class="fil14" d="M13756 15889c-539,0 -977,437 -977,977 0,106 17,209 49,305 27,1 55,3 85,5 -36,-97 -55,-201 -55,-310 0,-496 402,-898 898,-898 496,0 898,402 898,898 0,126 -26,247 -73,356 23,1 50,1 84,2 44,-111 68,-232 68,-358 0,-540 -437,-977 -977,-977z"/>
    <path class="fil11" d="M21217 15976c496,0 898,402 898,898 0,496 -402,898 -898,898 -496,0 -899,-402 -899,-898 0,-496 403,-898 899,-898z"/>
    <path class="fil12 str0" d="M21217 16244c348,0 630,282 630,630 0,348 -282,630 -630,630 -349,0 -631,-282 -631,-630 0,-348 282,-630 631,-630z"/>
    <polygon class="fil15" points="21075,17391 21372,17392 21229,17001 "/>
    <polygon class="fil15" points="20727,17041 20887,17292 21138,16960 "/>
    <polygon class="fil15" points="21717,17041 21556,17292 21305,16960 "/>
    <polygon class="fil15" points="21670,16573 21773,16852 21356,16852 "/>
    <polygon class="fil15" points="20769,16571 20667,16850 21083,16850 "/>
    <polygon class="fil15" points="21562,16448 21289,16329 21265,16744 "/>
    <polygon class="fil15" points="20863,16448 21136,16329 21160,16745 "/>
    <path class="fil14" d="M21217 15897c-540,0 -977,437 -977,977 0,76 8,150 25,221 3,15 6,29 9,42 6,21 11,37 17,52 5,14 11,27 17,38 4,8 9,15 14,22l0 -1 76 -2c-5,-15 -15,-40 -24,-69 -12,-32 -24,-70 -33,-107 -5,-21 -9,-43 -13,-62 -6,-43 -10,-88 -10,-134 0,-496 403,-898 899,-898 496,0 898,402 898,898 0,126 -27,247 -74,356 23,1 51,1 85,2 43,-111 67,-232 67,-358 0,-540 -437,-977 -976,-977z"/>
    <path class="fil18 str1" d="M13757 16768c45,0 81,36 81,81 0,44 -36,81 -81,81 -44,0 -80,-37 -80,-81 0,-45 36,-81 80,-81z"/>
    <path class="fil18 str1" d="M21226 16784c44,0 80,36 80,80 0,45 -36,81 -80,81 -45,0 -81,-36 -81,-81 0,-44 36,-80 81,-80z"/>
    <path class="fil19" d="M22151 15645c-6,14 17,51 42,85 25,34 52,65 86,95 34,30 74,59 111,81 38,22 72,37 111,47 38,10 79,15 100,17 20,3 20,3 20,3 0,0 0,0 -66,-54 -66,-55 -198,-164 -281,-222 -83,-59 -117,-67 -123,-52z"/>
    <path class="fil4" d="M22748 16688c50,0 90,62 90,139 0,77 -40,139 -90,139 -49,0 -89,-62 -89,-139 0,-77 40,-139 89,-139z"/>
    <path class="fil8" d="M16846 14921c-39,-165 -113,-481 -156,-641 -16,-58 -27,-96 -35,-120 -4,0 -8,-1 -12,-2 -4,-1 -8,-3 -13,-5 4,24 12,63 26,128 35,165 107,496 143,661 36,166 36,166 36,166 0,0 0,0 9,0 9,1 28,2 37,3 9,1 9,1 9,1 0,0 0,0 -1,-7 -2,-6 -4,-19 -43,-184z"/>
    <path class="fil18 str2" d="M16777 15107c-798,-11 -1674,-15 -2139,-20 -465,-4 -518,-9 -557,-19 -39,-10 -63,-25 -82,-42 -19,-17 -33,-36 -44,-63 -11,-27 -19,-61 -18,-99 1,-37 12,-78 30,-117 19,-38 45,-75 80,-108 34,-33 78,-62 136,-89 57,-28 130,-54 241,-90 112,-35 263,-80 419,-119 156,-39 318,-74 473,-99 156,-24 306,-40 483,-55 177,-14 382,-27 541,-31 160,-4 274,1 415,14 141,12 310,32 470,58 161,26 315,59 453,97 139,37 262,79 396,132 133,53 276,118 404,188 128,70 241,146 309,198 68,51 92,77 120,110 29,34 61,75 82,109 21,35 31,64 33,79 3,14 -1,14 -363,5 -363,-9 -1084,-28 -1882,-39z"/>
    <path class="fil7" d="M15460 15725c42,0 82,10 121,28 39,19 69,46 91,82 23,35 34,78 34,129 0,51 -11,94 -34,130 -22,36 -52,63 -91,81 -39,18 -79,28 -121,28l-162 0 0 286 -162 0 0 -764 324 0zm-31 334c35,0 62,-8 81,-25 18,-16 27,-39 27,-70 0,-31 -9,-55 -27,-71 -19,-16 -46,-25 -81,-25l-131 0 0 191 131 0zm1014 51c0,-40 -8,-79 -25,-116 -17,-37 -43,-67 -76,-90 -35,-24 -78,-36 -129,-38 -51,0 -93,12 -126,36 -35,24 -61,54 -77,91 -17,36 -26,75 -26,117 0,43 9,82 26,118 16,37 42,67 77,91 33,24 75,35 126,35 51,-1 94,-14 129,-37 33,-24 59,-53 76,-90 17,-38 25,-77 25,-117zm-229 -399c110,0 204,39 282,117 78,78 117,172 117,283 0,110 -39,203 -117,281 -78,78 -172,117 -282,117 -110,0 -204,-39 -282,-117 -78,-78 -117,-171 -117,-281 0,-111 39,-205 117,-283 78,-78 172,-117 282,-117zm962 779l-452 0 0 -765 161 0 0 621 291 0 0 144zm324 -765l0 765 -161 0 0 -765 161 0zm301 426c4,34 13,65 27,92 20,37 47,65 80,84 34,20 72,30 114,30 46,0 85,-11 119,-32 34,-21 59,-50 75,-84l126 78c-23,60 -63,107 -121,141 -57,33 -123,49 -198,49 -72,0 -138,-16 -198,-47 -60,-32 -107,-78 -142,-137 -34,-59 -52,-130 -52,-213 0,-83 18,-154 52,-213 35,-60 82,-105 142,-137 60,-32 126,-47 198,-47 75,0 141,16 198,49 58,34 98,81 121,141l-126 78c-16,-35 -41,-63 -75,-84 -34,-21 -73,-32 -119,-32 -42,0 -80,10 -114,29 -33,20 -60,48 -80,85 -14,27 -23,58 -27,92 -1,21 -1,47 0,78zm1142 339l-479 0 0 -765 468 0 0 143 -307 0 0 164 274 0 0 141 -274 0 0 174 318 0 0 143z"/>
   </g>
   <g>
    <path class="fil20" d="M23412 13719l179 0c2,-7 3,-13 5,-20 3,-14 7,-28 11,-39 7,-23 15,-39 28,-55 12,-15 30,-28 46,-43 15,-14 28,-28 38,-44 10,-15 18,-31 15,-45 -2,-13 -14,-24 -24,-29 -9,-5 -17,-5 -21,-5 -4,0 -4,0 -5,-55 -1,-56 -3,-166 -6,-228 -4,-61 -8,-74 -15,-83 -8,-9 -18,-14 -28,-15 -11,-1 -23,1 -34,6 -11,6 -21,16 -26,44 -5,27 -6,73 -6,95 0,23 0,23 -14,26 -14,4 -42,10 -61,17 -19,6 -30,13 -54,17 -23,5 -58,8 -81,11 -23,3 -34,6 -39,38 -5,33 -5,94 -2,143 3,49 10,85 20,114 10,29 24,50 36,69 12,19 23,36 30,54 0,2 1,4 2,6 2,7 4,14 6,21z"/>
    <path class="fil21" d="M23412 13719l45 0c-3,-13 -7,-27 -12,-40 -5,-12 -10,-22 -17,-32 -6,-10 -13,-20 -22,-33 -9,-14 -18,-30 -27,-51 -9,-22 -17,-48 -22,-79 -5,-30 -7,-64 -8,-93 -1,-28 0,-50 3,-65 3,-15 9,-23 18,-28 10,-6 24,-8 35,-7 12,0 21,5 31,7 9,1 17,0 26,-4 9,-4 19,-11 28,-17 9,-5 18,-9 29,-8 11,1 24,5 34,5 10,-1 17,-7 22,-15 5,-8 6,-17 8,-36 1,-19 3,-46 5,-69 2,-24 5,-42 9,-56 5,-13 11,-21 18,-26 7,-5 17,-7 28,-7 5,1 10,2 15,3 -7,-6 -15,-9 -23,-10 -11,-1 -23,1 -34,6 -11,6 -21,16 -26,44 -5,27 -6,73 -6,95 0,23 0,23 -14,26 -14,4 -42,10 -61,17 -19,6 -30,13 -54,17 -23,5 -58,8 -81,11 -23,3 -34,6 -39,38 -5,33 -5,94 -2,143 3,49 10,85 20,114 10,29 24,50 36,69 12,19 23,36 30,54 0,2 1,4 2,6 2,7 4,14 6,21z"/>
    <path class="fil22" d="M23356 13698l0 132c0,132 0,396 5,542 4,146 13,174 29,195 15,22 37,36 131,43 93,7 259,7 341,7l83 0 0 148 -2 597 0 138 102 0c29,0 29,0 29,12 0,6 0,16 1,31 20,3 43,7 68,11 63,12 142,23 253,34 16,1 32,3 49,4l0 -13 64 0c7,29 18,54 35,67 26,18 64,5 94,-7 30,-13 52,-25 70,-52 1,-2 3,-5 4,-8l60 0 0 18c1,0 1,0 2,0l107 0c7,0 13,3 18,7 34,-2 68,-4 99,-6 3,-8 13,-8 47,-7l34 0c33,-3 62,-6 86,-10 24,-3 42,-7 56,-10 9,-4 17,-8 24,-12 1,-55 3,-56 15,-56 6,0 16,-1 25,0 1,-15 1,-47 1,-130l0 -538 0 -135 44 24 157 89 0 -486c-31,-15 -73,-35 -110,-51 -44,-19 -81,-33 -120,-46 -39,-13 -80,-25 -122,-36 -42,-10 -85,-18 -125,-25 -40,-8 -76,-15 -105,-21 -28,-6 -50,-10 -76,-18 -4,-1 -8,-2 -13,-4 -11,-3 -22,-6 -34,-10l0 -5 0 -50c-1,1 -1,1 -2,1 -5,3 -9,6 -14,9 -16,10 -30,15 -49,20 -20,4 -45,8 -71,10 -26,2 -52,2 -78,0 -27,-2 -53,-6 -72,-12 -20,-5 -33,-11 -42,-16 -5,-3 -9,-6 -13,-9 -1,0 -1,0 -1,0l0 51c-6,2 -11,5 -16,8 -9,4 -17,10 -25,16 -30,9 -66,20 -129,33 -84,17 -215,40 -312,55 -96,16 -157,23 -197,27 -40,4 -59,6 -72,6 -14,1 -22,1 -26,1 -5,0 -6,0 -7,-94 -1,-93 -1,-280 -1,-374l0 -93 -49 -1 -10 0 -190 -1 0 0 -50 0z"/>
    <path class="fil23" d="M25288 14701l42 23 157 89 0 -48 -16 -5c-36,-13 -110,-38 -147,-50 -36,-13 -36,-13 -36,-13l0 4z"/>
    <path class="fil23" d="M23356 13698l0 132c0,132 0,396 5,542 4,146 13,174 29,195 15,22 37,36 131,43 93,7 259,7 341,7l81 0c-2,-14 -8,-18 -15,-22 -8,-4 -19,-7 -44,-10 -24,-2 -63,-4 -124,-8 -61,-3 -145,-8 -202,-13 -57,-5 -87,-9 -106,-15 -20,-7 -30,-14 -37,-24 -7,-11 -11,-23 -17,-158 -5,-135 -12,-394 -19,-527 -4,-106 -9,-132 -14,-142l-9 0z"/>
    <polygon class="fil20" points="24440,14038 24782,14038 24782,14146 24639,14275 24591,14275 24440,14135 "/>
    <path class="fil24" d="M24415 14040c-2,3 8,11 16,17 7,6 14,10 23,16 9,5 22,11 42,16 19,6 45,10 72,12 26,2 52,2 78,0 26,-2 51,-6 71,-10 19,-5 33,-10 49,-20 16,-10 34,-25 43,-33 9,-7 9,-7 9,-7 0,0 0,0 -8,2 -8,2 -25,5 -57,9 -32,4 -80,8 -125,9 -45,0 -88,-3 -118,-6 -30,-2 -48,-3 -64,-5 -15,-2 -29,-3 -31,0z"/>
    <path class="fil20" d="M24036 13302c-3,24 -9,57 -11,73 -3,17 -3,17 -3,17 0,0 0,0 -2,0 -2,0 -7,0 -13,2 -6,1 -14,5 -21,12 -8,8 -15,19 -20,36 -4,16 -6,38 -5,57 1,19 3,35 8,50 4,15 9,28 17,38 8,9 17,15 27,20 10,4 21,7 33,8 11,1 24,0 30,0 7,0 7,0 7,0 0,0 0,0 0,25l1 20c2,16 4,33 7,50 5,27 11,50 19,73 7,23 15,45 24,65 9,19 18,35 27,49 10,14 20,26 33,40 13,13 30,28 45,41 16,12 31,22 49,32 17,9 37,19 59,27 22,9 46,16 68,22 23,5 43,9 63,11 20,2 38,2 64,3 25,0 56,1 89,0 33,-1 68,-3 101,-6 33,-3 64,-7 94,-13 29,-7 56,-16 82,-29 25,-13 50,-29 70,-44 20,-15 36,-28 51,-45 15,-17 28,-37 42,-58 13,-21 27,-43 39,-66 12,-24 23,-51 31,-76 8,-26 14,-51 19,-74 5,-24 8,-45 9,-56 2,-11 2,-11 2,-11 0,0 0,0 2,0 2,1 6,2 14,3 8,0 19,0 31,-4 2,0 5,-1 7,-2 4,-2 8,-5 12,-8 11,-10 18,-25 22,-44 5,-20 7,-44 8,-66 1,-22 0,-42 -4,-58 -5,-16 -14,-28 -20,-35 -7,-7 -11,-8 -13,-9 -3,-1 -3,-1 -3,-16 0,-15 -1,-46 -2,-61 0,-15 0,-15 -1,-35 -1,-21 -3,-61 -8,-91 -6,-30 -15,-49 -52,-66 -38,-16 -103,-29 -210,-36 -107,-7 -255,-8 -376,-6 -122,3 -217,8 -288,15 -71,8 -119,18 -151,34 -33,15 -50,35 -63,59 -14,25 -23,52 -29,73 -6,22 -7,36 -11,60z"/>
    <path class="fil21" d="M24002 13395c-5,2 -11,6 -16,11 -8,8 -15,19 -20,36 -4,16 -6,38 -5,57 1,19 3,35 8,50 4,15 9,28 17,38 8,9 17,15 27,20 10,4 21,7 33,8 11,1 24,0 30,0 7,0 7,0 7,0 0,0 0,0 0,25l1 20c2,16 4,33 7,50 5,27 11,50 19,73 7,23 15,45 24,65 9,19 18,35 27,49 10,14 20,26 33,40 13,13 30,28 45,41 16,12 31,22 49,32 17,9 37,19 59,27 22,9 46,16 68,22 23,5 43,9 63,11 20,2 38,2 64,3 25,0 56,1 89,0 33,-1 68,-3 101,-6 33,-3 64,-7 94,-13 29,-7 56,-16 82,-29 25,-13 50,-29 70,-44 20,-15 36,-28 51,-45 15,-17 28,-37 42,-58 13,-21 27,-43 39,-66 12,-24 23,-51 31,-76 8,-26 14,-51 19,-74 5,-24 8,-45 9,-56 2,-11 2,-11 2,-11 0,0 0,0 2,0 2,1 6,2 14,3 8,0 19,0 31,-4 2,0 5,-1 7,-2 4,-2 8,-5 12,-8 11,-10 18,-25 22,-44 5,-20 7,-44 8,-66 1,-22 0,-42 -4,-58 -5,-16 -14,-28 -20,-35 -2,-2 -4,-4 -6,-5 2,9 5,20 7,31 3,16 4,32 3,51 -1,19 -4,39 -10,56 -5,17 -13,31 -23,40 -10,9 -23,13 -34,15 -10,2 -18,2 -22,1 -4,0 -4,0 -4,0 0,0 0,0 -1,7 -2,6 -4,19 -9,39 -4,20 -9,46 -18,73 -8,27 -20,55 -32,78 -11,24 -24,44 -39,65 -14,20 -32,41 -50,59 -18,18 -37,34 -55,48 -19,15 -37,28 -57,40 -21,12 -44,23 -69,31 -25,8 -52,14 -81,18 -29,4 -61,5 -96,7 -35,1 -73,2 -105,2 -32,-1 -59,-2 -87,-7 -29,-5 -60,-13 -87,-23 -27,-9 -51,-20 -73,-33 -22,-13 -41,-27 -58,-42 -16,-15 -30,-30 -43,-49 -13,-19 -26,-42 -36,-64 -11,-23 -19,-45 -27,-70 -7,-25 -13,-53 -18,-81 -4,-28 -6,-56 -7,-70 -1,-15 -1,-15 -1,-15 0,0 0,0 -8,3 -8,3 -25,9 -38,10 -13,1 -23,-2 -32,-9 -9,-7 -17,-19 -23,-31 -6,-13 -11,-28 -14,-46 -3,-17 -5,-38 -4,-56 1,-19 3,-34 8,-45 3,-5 6,-9 8,-14z"/>
    <path class="fil25" d="M24532 13910c5,5 9,9 14,14 5,4 11,8 16,12 6,3 11,5 19,7 8,2 17,4 26,5 10,0 19,0 29,0 11,0 22,-1 30,-3 8,-1 14,-4 18,-7 5,-3 9,-6 13,-11 4,-4 7,-11 8,-14 2,-3 2,-3 -14,-4 -16,-1 -48,-3 -79,-5 -32,-2 -62,-5 -76,-4 -13,1 -8,5 -4,10z"/>
    <path class="fil25" d="M24782 13654c-8,1 -18,1 -27,0 -8,0 -15,-1 -20,-4 -6,-2 -10,-6 -14,-10 -4,-5 -8,-9 -13,-16 -4,-8 -10,-18 -16,-31 -5,-12 -10,-28 -13,-44 -4,-16 -6,-32 -7,-44 -1,-12 -1,-20 0,-30 0,-10 2,-21 5,-31 4,-11 10,-21 17,-30 6,-8 12,-15 19,-20 8,-6 16,-10 22,-12 6,-2 11,-3 17,-1 7,2 15,8 29,30 14,22 34,61 43,98 10,36 10,70 6,93 -4,22 -13,33 -19,39 -6,7 -9,9 -13,10 -4,1 -9,2 -16,3z"/>
    <path class="fil25" d="M24511 13649c9,-2 17,-4 24,-11 7,-7 14,-19 21,-33 8,-15 16,-33 21,-51 4,-18 5,-36 5,-53 0,-18 -1,-35 -3,-49 -2,-13 -5,-24 -9,-33 -5,-10 -11,-18 -17,-24 -7,-7 -14,-11 -21,-14 -8,-2 -16,-3 -29,-3 -13,0 -31,1 -47,4 -15,4 -27,10 -38,30 -11,21 -20,56 -17,89 2,34 17,66 32,91 15,24 31,42 44,50 13,9 24,8 34,7z"/>
    <path class="fil25" d="M24180 13228c0,46 0,130 0,171 0,42 0,42 -9,38 -9,-3 -27,-11 -43,-20 -15,-10 -29,-21 -40,-50 -10,-28 -18,-74 -17,-114 1,-40 10,-74 26,-90 15,-16 37,-15 52,-13 15,3 24,8 28,15 4,7 4,16 3,63z"/>
    <path class="fil25" d="M25108 13361c-1,-43 -1,-121 -1,-160 0,-39 0,-39 16,-39 16,0 48,0 65,11 17,11 19,32 20,57 1,25 0,52 -4,73 -4,22 -11,37 -27,56 -16,19 -42,41 -55,47 -13,7 -14,-2 -14,-45z"/>
    <path class="fil26" d="M24278 12982c-182,2 -199,-2 -230,-22 -2,0 -3,-1 -4,-1 -7,21 -17,57 -22,85 -3,14 -4,26 -4,36l0 0 0 1c-1,4 -1,11 -1,22 -1,16 -1,42 0,73 1,30 3,66 4,92 2,20 3,33 5,45 1,7 1,13 2,19 1,10 2,17 3,22 1,5 2,9 2,11 1,4 1,4 14,8l53 13 10 2 -1 -1 4 1 0 -33 0 -135 0 -34 35 10c35,10 106,30 184,43 79,14 165,21 242,23 77,3 144,1 207,-3 64,-4 125,-11 187,-23 63,-12 128,-29 160,-37l33 -9 0 30 0 118 0 29 16 -10 35 -23 28 -17 15 -11 0 -23c-1,-12 -1,-30 -2,-51l0 -6c-1,-17 0,-38 0,-59 0,-20 -1,-40 -1,-57 0,-2 0,-4 0,-6 -1,-16 -2,-49 -8,-81 -5,-27 -13,-54 -23,-76 -24,14 -57,15 -203,19 -185,4 -551,13 -740,16z"/>
    <path class="fil27" d="M25178 12894c12,1 25,18 38,42 12,24 22,55 28,87 6,32 7,65 8,81 1,17 1,17 -72,17 -72,0 -216,0 -422,-1 -206,0 -473,-1 -607,-1 -133,0 -133,0 -134,-11 0,-11 -1,-33 5,-64 6,-30 17,-70 23,-91 6,-20 6,-20 107,-22 100,-3 301,-8 484,-10 183,-3 349,-2 436,-9 87,-6 95,-20 106,-18z"/>
    <path class="fil24" d="M24886 13355c52,0 95,14 95,32 0,17 -43,31 -95,31 -52,0 -95,-14 -95,-31 0,-18 43,-32 95,-32z"/>
    <path class="fil28" d="M25222 12946c13,-4 20,-11 32,-21 31,-29 94,-87 124,-120 4,-3 7,-7 9,-10 11,-12 13,-15 13,-18 0,-5 -3,-9 -39,-31 -37,-21 -107,-61 -142,-80 -35,-20 -35,-20 -35,-20 0,0 0,0 -83,-25 -83,-25 -248,-75 -341,-102 -94,-27 -115,-31 -135,-30 -11,1 -22,3 -46,9 -15,3 -32,7 -52,11 -56,14 -136,36 -217,61l-208 55c-92,25 -92,25 -120,49 -22,19 -60,52 -89,78 -25,17 -36,28 -41,38 -7,8 -7,12 -3,17 2,11 12,25 38,46 34,27 96,68 126,88 18,12 26,17 35,19 31,20 48,24 230,22 189,-3 555,-12 740,-16 149,-4 181,-5 204,-20z"/>
    <path class="fil27" d="M25226 12945c11,-4 17,-11 28,-20 31,-29 94,-87 124,-120 4,-3 7,-7 9,-10 11,-12 13,-15 13,-18 0,-5 -3,-9 -39,-31 -37,-21 -107,-61 -142,-80 -35,-20 -35,-20 -35,-20l-33 -10c48,33 118,82 156,111 45,33 46,39 38,51 -7,13 -23,32 -45,59 -22,26 -50,59 -64,76 -5,6 -8,9 -10,12z"/>
    <path class="fil27" d="M24035 12644c-28,9 -35,14 -53,30 -22,19 -60,52 -89,78 -25,17 -36,28 -41,38 -7,8 -7,12 -3,17 2,11 12,25 38,46 34,27 96,68 126,88 17,12 25,17 34,19 -4,-3 -8,-7 -13,-11 -29,-24 -86,-73 -115,-101 -30,-28 -31,-35 -31,-43 1,-8 3,-16 23,-40 19,-23 57,-62 79,-84 23,-22 31,-28 44,-36l1 -1z"/>
    <path class="fil24" d="M24361 13356c52,0 94,15 94,32 0,17 -42,31 -94,31 -52,0 -95,-14 -95,-31 0,-17 43,-32 95,-32z"/>
    <path class="fil29" d="M24623 12611c63,0 115,62 115,138 0,76 -52,138 -115,138 -63,0 -114,-62 -114,-138 0,-76 51,-138 114,-138z"/>
    <path class="fil30" d="M25023 13377l-270 0c-12,0 -23,5 -31,13l0 0c-3,3 -4,7 -6,10 -1,4 -3,9 -3,14 -1,5 -1,11 -1,14 0,3 0,3 0,3 0,0 0,0 -5,-2 -6,-1 -16,-4 -29,-7 -13,-2 -28,-4 -44,-5 -15,-1 -30,-1 -43,0 -13,2 -23,5 -31,8 -8,3 -14,5 -17,6 -3,2 -3,2 -3,2 0,0 0,0 0,-6 -1,-5 -1,-16 -3,-25 0,-1 -1,-3 -1,-5 -8,-12 -21,-20 -37,-20l-270 0c-18,0 -34,12 -40,28l-156 -36 153 140 0 1 0 102c0,24 19,43 43,43l270 0c24,0 43,-19 43,-43l0 -125 168 0 0 125c0,24 19,43 43,43l270 0c24,0 43,-19 43,-43l0 -125 190 -181 -200 87c-8,-10 -19,-16 -33,-16z"/>
    <path class="fil31" d="M25019 13377l-266 0c-12,0 -23,5 -31,13l0 0c-3,3 -4,7 -6,10 -1,4 -3,9 -3,14 -1,5 -1,11 -1,14 0,3 0,3 0,3l-1 -1 0 15c-1,11 -1,27 -1,42l0 0 0 125c0,24 19,43 43,43l145 0 2 -1c11,-8 16,-20 19,-26 2,-6 2,-6 -25,-6 -28,0 -82,1 -112,-1 -30,-3 -36,-7 -39,-14 -3,-7 -4,-17 -4,-42 -1,-25 -1,-67 0,-96 0,-30 3,-47 7,-56 4,-10 10,-12 16,-13 7,-1 13,-1 43,-2 31,0 85,0 119,0 35,1 51,2 64,0 12,-1 22,-5 27,-13 2,-3 3,-5 4,-8z"/>
    <path class="fil31" d="M24486 13377l-257 0c-18,0 -34,12 -40,28l-156 -36 153 140 0 1 0 102c0,24 19,43 43,43l157 0c13,-8 20,-17 23,-23 5,-6 5,-6 -19,-6 -23,1 -71,2 -102,1 -31,0 -46,-2 -56,-5 -10,-4 -16,-8 -19,-14 -3,-5 -4,-11 -5,-41 0,-30 -1,-84 1,-115 2,-31 6,-39 11,-45 4,-5 10,-9 22,-10 13,-2 31,-2 57,-2 26,0 58,0 89,0 30,1 59,2 78,-4 10,-4 17,-9 20,-14z"/>
    <path class="fil32" d="M24524 13385c-7,-5 -16,-8 -25,-8l-68 0c1,23 1,58 0,85 -2,34 -7,58 -16,82 -8,24 -19,47 -33,67 -13,18 -29,33 -45,44l106 0c7,-7 15,-16 23,-27 10,-15 21,-35 30,-56 8,-22 13,-45 17,-70 4,-25 7,-50 9,-73 1,-17 1,-33 2,-44z"/>
    <path class="fil32" d="M25023 13377l-67 0c0,17 0,37 0,56 -1,29 -2,54 -7,79 -5,24 -13,49 -23,70 -10,21 -22,39 -34,54 -6,7 -12,14 -18,19l87 0c1,-1 3,-3 5,-5 10,-8 20,-19 30,-34 10,-14 19,-33 27,-53 7,-21 12,-44 16,-69 4,-24 6,-49 7,-72 0,-14 -1,-27 -1,-39 -6,-3 -14,-6 -22,-6z"/>
    <path class="fil33" d="M24625 13859c-67,0 -129,-11 -174,-29 5,55 81,98 174,98 93,0 169,-43 175,-98 -46,18 -107,29 -175,29z"/>
    <path class="fil34" d="M24560 13735c-13,0 -30,0 -40,-4 -10,-3 -13,-10 -12,-20 0,-10 4,-23 10,-32 7,-9 16,-14 29,-18 13,-4 29,-6 37,-7 8,-2 8,-2 8,-2 0,0 0,0 0,14 0,14 0,42 0,55 0,14 0,14 0,14 0,0 0,0 -5,0 -4,0 -13,0 -27,0z"/>
    <line class="fil18" x1="24300" y1="14598" x2="24300" y2= "14989" />
    <line class="fil18" x1="24124" y1="14726" x2="24482" y2= "14726" />
    <polygon class="fil35" points="25487,13998 26338,13998 26338,15160 25487,15160 "/>
    <polygon class="fil10" points="25564,14075 26261,14075 26261,15083 25564,15083 "/>
    <path class="fil20" d="M26162 13892c-26,-7 -54,-16 -81,-21 -27,-5 -53,-7 -71,-7 -18,0 -29,2 -37,7 -8,5 -13,14 -18,20 -5,7 -11,10 -22,16 -12,5 -28,11 -42,20 -14,9 -25,19 -31,30 -6,11 -7,22 0,31 7,9 23,15 34,23 12,9 19,18 29,29 10,10 23,22 44,30 20,8 48,13 76,15 29,2 58,0 83,-10 25,-9 44,-27 66,-39 21,-13 44,-22 67,-29 22,-7 45,-13 53,-22 8,-8 2,-19 -13,-32 -15,-13 -39,-27 -63,-37 -24,-11 -48,-17 -74,-24z"/>
    <path class="fil21" d="M25972 14072c20,7 45,11 71,13 29,2 58,0 83,-10 25,-9 44,-27 66,-39 21,-13 44,-22 67,-29 9,-3 19,-6 28,-9 -12,1 -25,3 -41,8 -22,6 -52,17 -79,28 -27,10 -52,20 -77,27 -26,6 -52,9 -75,10 -15,0 -29,1 -43,1z"/>
    <path class="fil21" d="M26162 13892c-26,-7 -54,-16 -81,-21 -27,-5 -53,-7 -71,-7 -18,0 -29,2 -37,7 -8,5 -13,14 -18,20 -5,7 -11,10 -22,16 -12,5 -28,11 -42,20 -14,9 -25,19 -31,30 -6,11 -7,22 0,31 7,9 23,15 34,23 5,4 9,7 13,11l0 -1c0,-11 5,-26 12,-38 7,-12 16,-22 27,-29 10,-6 22,-10 35,-14 13,-5 28,-11 50,-15 22,-4 50,-6 82,-6 31,0 66,2 97,7 31,5 59,14 96,37l6 4c-3,-5 -7,-9 -13,-14 -15,-13 -39,-27 -63,-37 -24,-11 -48,-17 -74,-24z"/>
    <polygon class="fil10" points="24494,15631 24723,15631 24723,15741 24494,15741 "/>
    <path class="fil18 str3" d="M24072 15756c0,14 -1,27 -2,38 -4,50 -12,63 -30,71 -17,8 -44,11 -66,9 -23,-3 -40,-13 -52,-26 -11,-14 -16,-31 -19,-90 -2,-59 -1,-159 -1,-208 0,-50 0,-50 29,-50 28,0 85,0 114,0 29,0 29,0 29,12 0,11 1,32 1,74 38,1 88,2 117,3 37,1 39,3 41,29 3,27 7,79 6,107 -2,29 -8,34 -44,36 -32,1 -87,-1 -123,-5z"/>
    <path class="fil18 str3" d="M24336 15597l107 0c16,0 29,13 29,30l0 115c0,16 -13,29 -29,29l-107 0c-17,0 -30,-13 -30,-29l0 -115c0,-17 13,-30 30,-30z"/>
    <path class="fil36" d="M24196 17521c151,0 272,72 272,160l22 0 0 75 -593 0 0 -75 28 0c0,-88 121,-160 271,-160z"/>
    <path class="fil36" d="M24959 17521c150,0 272,72 272,160l21 0 0 75 -593 0 0 -75 28 0c0,-88 122,-160 272,-160z"/>
    <polygon class="fil23" points="24569,14279 24655,14279 24655,15601 24569,15601 "/>
    <path class="fil23" d="M24412 14465c-11,-19 -31,-56 -44,-91 -13,-36 -19,-68 -22,-95 -2,-26 -2,-46 3,-65 3,-9 7,-19 11,-28 -7,12 -14,26 -19,41 -6,18 -9,37 -11,56 -1,19 -1,38 3,63 5,24 13,54 24,79 10,24 23,44 34,59 11,16 20,27 25,32l5 6 30 -36 118 -139 0 -41 -113 136 -34 42 -10 -19z"/>
    <path class="fil23" d="M24655 14294l0 45c4,4 9,10 15,18l104 130 26 32 6 -4c6,-4 17,-12 28,-27 12,-15 23,-37 33,-62 10,-25 18,-52 24,-81 5,-28 8,-58 6,-85 -1,-27 -7,-51 -20,-74 -12,-20 -28,-39 -42,-54 -2,-1 -4,-1 -6,-2l-13 -4c14,9 28,20 40,34 13,16 22,35 28,54 5,19 6,39 3,65 -3,27 -9,59 -22,95 -13,35 -33,72 -43,91l-10 19 -35 -42 -122 -148z"/>
    <path class="fil23" d="M24153 14597c-6,2 -12,5 -17,9 -5,5 -10,11 -13,19 -4,8 -6,16 -7,71 -1,54 -1,153 0,206 0,53 2,59 5,66 2,6 6,12 12,17 5,4 13,7 28,8 15,2 37,2 84,2 46,0 117,0 156,-1 39,0 46,-1 54,-3 7,-2 16,-7 23,-14 6,-6 10,-16 13,-23 2,-8 2,-15 1,-68 0,-54 -2,-154 -4,-207 -1,-53 -3,-59 -7,-64 -4,-5 -10,-9 -16,-12 -6,-3 -13,-5 -16,-6 -3,-1 -3,-1 -3,-1 0,0 0,0 2,1 2,2 5,4 9,7 4,3 7,8 10,14 4,6 6,15 7,66 2,52 2,146 1,198 -1,51 -3,59 -5,66 -3,8 -6,14 -12,18 -6,4 -15,5 -64,6 -49,0 -138,-1 -186,-2 -47,-1 -54,-3 -59,-7 -5,-3 -9,-9 -11,-60 -1,-51 -1,-147 1,-201 1,-54 2,-64 4,-73 2,-8 5,-13 10,-18 4,-6 10,-12 10,-14 0,-2 -5,-1 -10,0z"/>
    <polygon class="fil23" points="24129,14713 24482,14713 24482,14737 24129,14737 "/>
    <polygon class="fil23" points="24310,14982 24291,14982 24291,14596 24310,14596 "/>
    <line class="fil18" x1="24965" y1="14608" x2="24965" y2= "14999" />
    <line class="fil18" x1="24789" y1="14736" x2="25146" y2= "14736" />
    <path class="fil29" d="M24852 14739c59,-3 173,-3 232,-4 58,-1 61,-3 63,-7 1,-4 1,-10 1,-19 -1,-9 -2,-22 -3,-29 -1,-6 -1,-6 -59,-6 -59,1 -177,2 -236,2 -59,0 -59,0 -59,7 -1,6 -2,19 -3,31 0,13 0,26 2,29 1,4 4,-2 62,-4z"/>
    <path class="fil23" d="M24817 14608c-6,2 -11,4 -16,9 -6,4 -11,11 -14,19 -4,7 -6,16 -7,70 -1,54 -1,153 0,206 1,53 3,60 5,66 3,7 6,13 12,17 6,4 14,7 28,9 15,1 37,2 84,2 46,0 118,-1 157,-1 39,-1 45,-1 53,-4 8,-2 16,-6 23,-13 6,-7 11,-16 13,-24 2,-8 2,-14 2,-68 -1,-53 -2,-153 -4,-207 -2,-53 -4,-59 -8,-64 -4,-5 -10,-9 -16,-12 -6,-3 -12,-4 -16,-5 -3,-1 -3,-1 -3,-1 0,0 0,0 2,1 2,1 6,3 10,7 3,3 7,7 10,14 3,6 6,14 7,66 1,51 1,146 0,197 -1,51 -2,60 -5,67 -2,7 -5,13 -11,17 -6,4 -16,6 -65,6 -49,1 -138,0 -185,-1 -48,-2 -55,-3 -60,-7 -5,-4 -9,-10 -10,-61 -2,-51 -1,-147 0,-200 1,-54 2,-65 5,-73 2,-8 5,-13 9,-19 5,-5 10,-11 10,-13 1,-3 -5,-2 -10,0z"/>
    <polygon class="fil23" points="24794,14724 25147,14724 25147,14747 24794,14747 "/>
    <polygon class="fil23" points="24975,14993 24955,14993 24955,14725 24975,14725 "/>
    <path class="fil29" d="M24268 14173c-8,-1 -17,-1 -33,0 -16,1 -38,3 -54,6 -15,2 -25,6 -30,10 -4,5 -4,9 -1,12 3,4 8,6 24,4 16,-1 42,-6 62,-11 21,-6 35,-12 40,-15 4,-4 -1,-6 -8,-6z"/>
    <path class="fil29" d="M24105 14194c-9,-1 -21,0 -32,0 -11,1 -21,2 -31,4 -11,3 -21,6 -28,10 -7,4 -12,9 -12,13 -1,5 1,8 6,10 5,3 11,4 22,4 12,0 28,-1 42,-3 14,-2 26,-6 34,-9 9,-3 14,-7 17,-10 3,-4 3,-8 0,-12 -3,-3 -9,-6 -18,-7z"/>
    <path class="fil29" d="M24974 14164c7,0 17,0 32,1 16,1 38,4 54,7 15,3 25,8 29,12 5,4 4,9 1,12 -3,3 -8,5 -24,3 -15,-2 -42,-7 -62,-13 -20,-6 -34,-13 -39,-16 -4,-4 1,-5 9,-6z"/>
    <path class="fil29" d="M25136 14190c9,-1 20,0 31,1 11,1 22,2 32,5 10,2 20,6 27,10 7,5 12,10 12,14 1,4 -2,7 -6,10 -5,2 -12,3 -23,3 -11,0 -27,-2 -41,-5 -14,-2 -26,-6 -35,-9 -8,-4 -13,-7 -16,-11 -3,-4 -3,-8 0,-11 3,-4 10,-7 19,-7z"/>
    <path class="fil23" d="M24654 15392c21,0 37,17 37,37 0,20 -16,37 -37,37 -20,0 -36,-17 -36,-37 0,-20 16,-37 36,-37z"/>
    <path class="fil23" d="M24656 15217c21,0 37,16 37,36 0,21 -16,37 -37,37 -20,0 -36,-16 -36,-37 0,-20 16,-36 36,-36z"/>
    <path class="fil23" d="M24658 15041c21,0 37,17 37,37 0,20 -16,37 -37,37 -20,0 -36,-17 -36,-37 0,-20 16,-37 36,-37z"/>
    <path class="fil23" d="M24660 14866c21,0 37,17 37,37 0,20 -16,37 -37,37 -20,0 -36,-17 -36,-37 0,-20 16,-37 36,-37z"/>
    <path class="fil23" d="M24662 14691c21,0 37,16 37,36 0,21 -16,37 -37,37 -20,0 -36,-16 -36,-37 0,-20 16,-36 36,-36z"/>
    <path class="fil23" d="M24664 14515c21,0 37,17 37,37 0,20 -16,37 -37,37 -20,0 -36,-17 -36,-37 0,-20 16,-37 36,-37z"/>
    <polygon class="fil2" points="25698,14140 26115,14140 26115,14177 25698,14177 "/>
    <path class="fil37" d="M25701 14877c41,0 74,33 74,75 0,41 -33,75 -74,75 -42,0 -75,-34 -75,-75 0,-42 33,-75 75,-75z"/>
    <path class="fil18 str4" d="M26010 14962c1,0 34,-33 8,-1 -60,73 36,-9 60,-21 -85,73 -44,43 37,4 56,-27 -29,5 -53,22 -136,90 80,-6 75,-30 -40,1 -127,101 -22,20 11,-8 54,-72 13,-40 0,0 -129,110 -78,76 13,-9 75,-41 77,-43 -47,6 -121,106 -7,24 25,-19 -36,20 15,-4 29,-13 -27,-3 -25,8 39,0 55,-34 20,-12 -13,8 11,0 -5,5 -18,7 54,6 77,-2 1,-1 2,0 4,0"/>
    <path class="fil38" d="M24075 15540c-1,-13 -1,-22 -1,-28 0,-12 0,-12 -29,-12l-102 0 -12 0c-29,0 -29,0 -29,50 0,49 -1,149 1,208 3,59 8,76 19,90 4,5 9,9 15,13 0,59 0,133 1,229 2,349 7,978 10,1292l2 232c43,-55 137,-93 246,-93 111,0 207,39 249,95 1,-33 2,-80 4,-147 7,-228 20,-684 30,-926 10,-242 16,-271 27,-295 10,-23 25,-42 47,-51 22,-9 53,-9 77,-1 25,9 45,26 56,55 11,29 14,69 16,314 2,244 3,692 4,916l0 140c41,-58 138,-100 253,-100 109,0 204,38 247,93l7 -215 39 -1237 3 -100c5,2 9,3 15,3 8,0 18,-3 26,-8 8,-5 14,-12 20,-19 5,-8 9,-17 12,-33 3,-17 4,-41 5,-118 1,-76 0,-204 -1,-272 -1,-68 -2,-77 -5,-85 -2,-8 -6,-15 -12,-19 -6,-5 -13,-8 -21,-10 -8,-2 -17,-4 -25,-3 -6,0 -12,2 -17,6 -1,1 -1,1 -2,2l-1 1c-6,7 -10,16 -12,25 -2,9 -2,17 -3,22 0,4 0,4 -7,6 -7,2 -22,6 -62,11 -41,6 -107,12 -142,16 -20,3 -29,4 -33,8 -27,2 -58,5 -91,6 -36,0 -74,-2 -107,-3 -32,0 -59,1 -106,0 -47,-1 -114,-3 -160,-5 -45,-2 -71,-4 -108,-7 -36,-3 -85,-7 -139,-14 -55,-8 -116,-18 -154,-25 -24,-3 -38,-6 -50,-7zm1167 491l0 0 0 22 0 -22z"/>
    <path class="fil36" d="M25178 17587c11,8 20,18 28,27l7 -215 39 -1237 3 -100c5,2 9,3 15,3 8,0 18,-3 26,-8 4,-3 7,-5 10,-8 0,-34 -1,-65 -3,-93 -9,-188 -38,-229 -55,-235 -16,-7 -19,21 -29,353 -10,332 -27,967 -35,1285 -3,109 -5,180 -6,228zm64 -1556l0 0 0 22 0 -22z"/>
    <path class="fil36" d="M24425 17594c8,7 14,15 20,22 1,-33 2,-80 4,-147 7,-228 20,-684 30,-926 10,-242 16,-271 27,-295 10,-23 25,-42 47,-51 22,-9 53,-9 77,-1 25,9 45,26 56,55 11,29 14,69 16,314 2,244 3,692 4,916l0 140c7,-9 14,-18 23,-26l1 -138c2,-212 4,-636 4,-871 0,-236 -2,-283 -9,-320 -7,-36 -19,-63 -36,-82 -18,-20 -41,-33 -68,-39 -26,-6 -55,-6 -79,4 -24,10 -43,28 -57,56 -13,28 -21,66 -27,134 -6,68 -9,167 -13,320 -3,154 -7,361 -10,532 -4,171 -7,306 -9,381l-1 22z"/>
    <path class="fil36" d="M23916 15840c2,3 4,5 6,8 4,5 9,9 15,13 0,59 0,133 1,229 2,349 7,978 10,1292l2 232c5,-8 12,-15 20,-21l-2 -258c-1,-299 -5,-898 -8,-1208 -2,-310 -4,-331 -18,-326 -6,2 -15,9 -26,39z"/>
    <path class="fil31" d="M24081 15775c-3,8 -3,20 -6,35 -3,15 -8,32 -15,44 -7,13 -17,21 -26,25 -10,5 -21,7 -33,7 -12,0 -25,-3 -38,-5 -12,-3 -24,-6 -34,-11 -11,-5 -20,-13 -29,-53 -9,-40 -17,-113 -18,-172 -1,-59 4,-104 7,-128 3,-24 5,-25 36,-27 32,-1 93,-2 126,-1 33,1 36,3 37,17 0,14 -3,40 -4,52 -1,13 -1,13 19,14 20,1 61,3 87,6 26,3 37,7 43,16 6,8 8,20 10,44 1,24 2,59 1,81 -1,22 -4,31 -8,37 -4,6 -9,10 -32,10 -24,1 -66,-2 -90,-2 -24,0 -29,3 -33,11z"/>
    <path class="fil31" d="M24985 15604c1,-12 3,-14 37,-18 35,-4 101,-11 142,-16 40,-5 54,-9 62,-11 7,-2 7,-2 7,-6 0,-5 1,-14 3,-23 2,-9 6,-18 12,-24 5,-6 12,-9 20,-10 8,0 17,1 25,4 8,2 15,4 21,9 6,5 9,12 12,20 3,8 4,17 5,85 1,68 1,196 1,272 -1,76 -3,101 -6,117 -3,17 -6,26 -12,33 -5,8 -12,15 -20,19 -8,5 -17,8 -25,9 -8,0 -14,-3 -19,-6 -5,-3 -9,-7 -11,-49 -2,-42 -1,-121 -1,-160 0,-40 0,-40 -9,-40 -8,1 -26,2 -50,1 -24,-1 -55,-4 -79,-8 -25,-3 -43,-7 -58,-12 -15,-5 -27,-10 -36,-16 -9,-7 -14,-15 -17,-34 -3,-19 -4,-48 -4,-75 -1,-26 -1,-49 0,-61z"/>
    <path class="fil39" d="M25308 15505c2,2 4,3 6,4 6,5 9,12 12,20 3,8 4,17 5,85 1,68 1,196 1,272 -1,76 -3,101 -6,117 -3,17 -6,26 -12,33 -3,6 -7,10 -12,14 0,-14 0,-34 0,-62 0,-98 1,-295 3,-400 1,-38 2,-64 3,-83z"/>
    <path class="fil31" d="M24445 15771l0 -174c-1,0 -2,0 -2,0l-107 0c-17,0 -30,13 -30,30l0 115c0,16 13,29 30,29l107 0 2 0z"/>
    <path class="fil31" d="M24772 15595l0 176c1,0 1,0 2,0l107 0c16,0 30,-14 30,-31l0 -123c0,-41 -83,-22 -116,-22 -8,0 -16,0 -23,0z"/>
    <polygon class="fil1" points="24445,15579 24772,15579 24772,15792 24445,15792 "/>
    <polygon class="fil31" points="24498,15627 24724,15627 24724,15743 24498,15743 "/>
    <path class="fil40" d="M25027 17548c18,4 34,9 52,16 18,7 37,17 52,28 16,10 29,21 38,31 9,10 14,18 18,28 4,9 7,19 8,24 1,5 1,5 -19,5 -20,0 -60,0 -80,0 -21,0 -21,0 -21,0 0,0 0,0 0,-6 0,-7 0,-20 -3,-35 -3,-15 -7,-33 -15,-46 -7,-13 -17,-22 -27,-30 -9,-7 -17,-14 -27,-18 -9,-5 -19,-7 -25,-8 -5,-1 -5,-1 4,1 9,2 28,6 45,10z"/>
    <path class="fil40" d="M24263 17548c18,4 34,9 52,16 18,7 37,17 52,28 16,10 29,21 38,31 9,10 14,18 18,28 4,9 6,19 8,24 1,5 1,5 -19,5 -20,0 -60,0 -81,0 -20,0 -20,0 -20,0 0,0 0,0 0,-6 0,-7 -1,-20 -3,-35 -3,-15 -8,-33 -15,-46 -8,-13 -18,-22 -27,-30 -9,-7 -17,-14 -27,-18 -9,-5 -20,-7 -25,-8 -5,-1 -5,-1 4,1 9,2 28,6 45,10z"/>
    <path class="fil18 str5" d="M25656 14292l519 0m-519 246l519 0m-519 -31l519 0m-519 -31l519 0m-519 -30l519 0m-519 -31l519 0m-519 -31l519 0m-519 -31l519 0m-519 -31l519 0"/>
   </g>
   <g>
    <path class="fil41" d="M38235 17072c-23,43 -55,112 -81,156 -27,44 -48,63 -95,75 -46,12 -118,17 -1032,16 -914,-2 -2671,-10 -3556,-14 -886,-5 -901,-6 -911,-24 -11,-18 -18,-53 -28,-112 -11,-59 -25,-143 -31,-185 -6,-43 -4,-44 -313,-44 -309,0 -930,1 -1266,18 -337,16 -389,48 -414,90 -25,42 -24,94 -26,139 -2,45 -7,84 -20,106 -13,22 -32,27 -117,12 -84,-16 -233,-52 -330,-76 -97,-25 -143,-38 -180,-46 -37,-8 -66,-11 -91,-17 -25,-7 -44,-18 -58,-38 -14,-19 -22,-49 -17,-124 5,-75 24,-196 35,-291 11,-95 15,-164 24,-273 9,-108 22,-256 33,-351 12,-96 21,-140 34,-175 12,-35 28,-62 74,-105 46,-42 122,-101 226,-158 104,-57 237,-113 388,-164 150,-51 318,-98 474,-136 156,-38 301,-67 494,-95 194,-29 436,-57 752,-90 315,-33 705,-72 900,-91 195,-20 195,-20 195,-20 0,0 0,0 42,-35 43,-35 128,-105 266,-203 138,-98 330,-223 507,-327 177,-103 339,-186 476,-246 138,-59 251,-97 391,-133 141,-37 308,-73 500,-99 191,-27 407,-44 628,-56 221,-11 449,-16 659,-10 210,6 403,23 580,43 176,20 337,43 535,83 197,41 431,99 548,128 117,30 117,30 122,34 5,5 14,14 25,24 10,10 22,21 256,108 233,87 688,251 936,337 248,87 289,96 342,101 53,5 118,7 176,15 58,8 109,22 222,40 113,17 288,37 445,48 157,12 295,14 373,19 78,6 95,14 107,29 12,15 19,38 21,92 3,55 2,141 2,252 0,112 1,247 2,315 0,68 0,68 0,68 0,0 0,0 16,9 15,9 45,28 77,57 31,28 63,67 86,115 23,47 38,105 35,286 -4,182 -25,487 -39,644 -14,156 -20,163 -53,171 -33,8 -91,17 -341,18 -250,2 -692,-5 -1168,-4 -476,0 -986,8 -1290,12 -304,4 -401,4 -456,13 -55,8 -69,26 -91,69z"/>
    <polygon class="fil42" points="33244,16782 33236,17053 36308,16997 36388,16734 "/>
    <path class="fil43" d="M30520 17032c-5,5 -9,10 -12,16 -25,42 -24,94 -26,139 -2,45 -7,84 -20,106 -13,22 -32,27 -117,12 -84,-16 -233,-52 -330,-76 -97,-25 -143,-38 -180,-46 -37,-8 -66,-11 -91,-17 -25,-7 -44,-18 -58,-38 -14,-19 -22,-49 -17,-124 2,-36 8,-82 14,-130 68,1 143,5 222,11 171,11 364,26 470,32 107,6 127,3 137,51 4,16 6,38 8,64z"/>
    <path class="fil43" d="M41458 15543l1 71c0,68 0,68 0,68 0,0 0,0 16,9 15,9 45,28 77,57 31,28 63,67 86,115 23,47 38,105 35,286 -4,182 -25,487 -39,644 -14,156 -20,163 -53,171 -33,8 -91,17 -341,18 -228,1 -615,-4 -1043,-4 0,-18 1,-37 1,-58 2,-66 4,-150 -17,-245 -21,-94 -63,-199 -108,-288 -46,-89 -93,-162 -147,-228 -53,-65 -111,-122 -141,-151 -29,-28 -29,-28 70,-41 99,-12 297,-38 466,-70 168,-31 306,-70 401,-107 95,-37 147,-73 182,-110 36,-37 54,-74 63,-108 9,-34 7,-64 23,-78 15,-14 47,-11 138,-1 86,9 225,25 330,50z"/>
    <path class="fil5" d="M41664 16368c-2,37 -4,76 -7,114 -25,4 -51,4 -75,5 -46,2 -84,3 -115,-3 -32,-6 -56,-19 -72,-38 -15,-18 -23,-42 -27,-54 -4,-12 -4,-12 62,-15 56,-2 159,-6 234,-9z"/>
    <path class="fil44" d="M38235 17072c-23,43 -55,112 -81,156 -27,44 -48,63 -95,75 -46,12 -118,17 -1032,16 -914,-2 -2671,-10 -3556,-14 -886,-5 -901,-6 -911,-24 -11,-18 -18,-53 -28,-112l-1 -2 0 -1 0 0 0 -2 0 -1 0 -1 -1 -1 0 -1 0 -2 0 0 0 -1 -1 -2 0 0 0 -2 0 -1 0 -1 -1 -2 0 0 0 -2 0 -1 0 -1 -1 -1 0 -1 0 -1 0 -2 0 0 -1 -2 0 -1 0 -1 0 -2 -1 0 0 -2 0 -2 0 0 0 -2 -1 -1 0 -1 0 -2 0 0 -1 -2 0 -1 0 -1 0 -2 0 0 -1 -2 0 -1 0 -1 0 -1 0 -1 -1 -1 0 -2 0 -1 0 -1 -1 -2 0 0 0 -2 0 -1 0 -1 -1 -2 0 0 0 -2 0 -1 0 -1 -1 -2 0 -1 0 -1 0 -2 0 0 -1 -2 0 -1 0 -1 0 -2 0 0 -1 -2 0 -1 0 -1 0 -2 -1 -1 0 -1 0 -2 0 0 0 -2 -1 -1 0 -1 0 -2 0 0 0 -2 -1 -1 0 -1 0 -2 0 0 0 -2 -1 -1 0 -1 0 -2 0 -1 0 -1 -1 -2 0 0 0 -2 0 -1 0 0 -1 -2c90,-7 318,-13 897,-29 955,-25 2864,-75 3826,-85 961,-10 974,20 987,68 5,21 11,44 16,69l0 1 -1 2z"/>
    <path class="fil45" d="M38139 17250c-21,29 -42,43 -80,53 -46,12 -118,17 -1032,16 -914,-2 -2671,-10 -3556,-14 -886,-5 -901,-6 -911,-24 -10,-17 -16,-47 -26,-97 79,-6 250,-7 624,-11 689,-7 2067,-20 2979,-32 912,-12 1359,-22 1617,-8 258,15 327,55 368,97 6,7 12,13 17,20z"/>
    <path class="fil41 str3" d="M30531 17022c-15,11 -25,27 -37,50 -7,13 -14,28 -22,44 -13,-48 -22,-98 -28,-149 -4,-39 -6,-78 -6,-118 0,-14 0,-28 0,-42 3,-43 6,-75 10,-103 7,-49 18,-91 32,-127 13,-36 28,-66 34,-51 6,15 2,75 4,157 3,82 12,186 14,281 0,20 0,39 -1,58z"/>
    <path class="fil46" d="M29710 17151c-10,-5 -18,-13 -24,-23 -14,-19 -22,-49 -17,-124 5,-75 24,-196 35,-291l0 -1c21,-18 38,-30 57,-42 42,-25 91,-52 128,-66 37,-14 62,-15 86,-12 24,3 47,11 65,31 18,19 31,49 37,85 6,35 5,75 -2,111 -7,36 -18,68 -42,107 -23,39 -58,86 -91,119 -33,34 -65,56 -96,72 -28,16 -56,28 -136,34z"/>
    <path class="fil47" d="M29920 15766c44,-35 103,-75 175,-115 104,-57 237,-113 388,-164 150,-51 318,-98 474,-136 156,-38 301,-67 494,-95 194,-29 436,-57 752,-90 315,-33 705,-72 900,-91 195,-20 195,-20 195,-20 0,0 0,0 42,-35 43,-35 128,-105 266,-203 138,-98 330,-223 507,-327 177,-103 339,-186 476,-246 138,-59 251,-97 391,-133 141,-37 308,-73 500,-99 191,-27 407,-44 628,-56 221,-11 449,-16 659,-10 210,6 403,23 580,43 176,20 337,43 535,83 197,41 431,99 548,128 117,30 117,30 122,34 5,5 14,14 25,24 10,10 22,21 256,108 233,87 688,251 936,337 248,87 289,96 342,101 53,5 118,7 176,15 58,8 109,22 222,40 113,17 288,37 445,48 157,12 295,14 373,19 78,6 95,14 107,29 12,15 19,38 21,92 3,55 2,141 2,252 0,40 0,82 0,124 -119,-28 -246,-59 -363,-82 -178,-34 -332,-50 -944,-37 -612,14 -1681,56 -3577,144 -1896,88 -4619,221 -5981,287 -277,14 -498,24 -672,31z"/>
    <path class="fil48" d="M33323 15035l17 -15c43,-35 128,-105 266,-203 138,-98 330,-223 507,-327 177,-103 339,-186 476,-246 86,-37 161,-65 240,-90 13,8 20,19 21,32 1,16 -8,36 -59,73 -52,37 -146,90 -279,162 -132,71 -302,160 -460,251 -158,90 -304,182 -402,243 -98,61 -148,91 -189,107 -41,16 -72,18 -111,15 -9,0 -18,-1 -27,-2z"/>
    <path class="fil49" d="M29971 16068c-15,24 -33,47 -52,70 -18,23 -38,46 -54,61 -16,16 -30,24 -41,27 -11,2 -21,0 -27,-10 -6,-10 -10,-28 -7,-66 2,-38 10,-97 17,-136 6,-39 12,-58 20,-73 8,-15 20,-26 36,-33 16,-8 38,-12 58,-13 20,-1 39,1 53,5 14,3 23,9 28,24 6,16 8,43 2,69 -5,26 -18,51 -33,75z"/>
    <path class="fil50" d="M39366 15364c-707,41 -1840,108 -3204,166 -1364,59 -2960,109 -3758,135 -798,25 -798,25 -798,25 0,0 0,0 378,-21 378,-22 1133,-64 2046,-119 914,-54 1986,-121 2900,-169 915,-48 1673,-77 2265,-89 592,-12 1017,-6 1230,-4 213,3 213,3 213,3 0,0 0,0 -141,8 -141,8 -423,24 -1131,65z"/>
    <path class="fil51" d="M30264 16111c114,-78 289,-206 377,-270 88,-63 88,-63 88,-63 0,0 0,0 -35,-2 -34,-2 -104,-6 -180,-4 -77,3 -160,12 -239,30 -80,18 -154,45 -209,69 -55,25 -91,48 -117,72 -25,25 -39,51 -49,88 -9,36 -13,83 -11,118 2,35 10,59 37,73 27,14 74,18 123,6 49,-12 101,-40 215,-117z"/>
    <path class="fil46" d="M37988 15029c-370,15 -802,31 -1270,50 -469,20 -974,44 -1532,72 -557,27 -1166,57 -1465,66 -299,9 -288,-5 -237,-41 51,-37 143,-97 189,-126 45,-30 45,-30 48,-40 3,-9 8,-28 21,-49 14,-21 35,-45 62,-65 26,-20 58,-36 86,-47 28,-10 52,-16 76,-20 25,-5 50,-9 63,-11 13,-2 13,-2 13,-2 0,0 0,0 69,-45 70,-45 210,-136 345,-216 135,-81 265,-151 379,-207 115,-56 213,-97 312,-131 99,-34 199,-60 319,-78 121,-18 262,-28 408,-34 146,-6 298,-8 461,-6 162,2 337,8 473,15 136,7 235,13 370,30 136,17 309,43 466,71 158,28 300,57 460,98 159,40 336,92 489,142 153,49 282,95 378,134 95,38 158,69 201,97 43,28 67,53 79,78 12,24 12,48 4,75 -8,26 -24,56 -44,79 -21,23 -46,40 -87,51 -40,11 -96,15 -278,23 -181,9 -488,22 -858,37z"/>
    <path class="fil52 str3" d="M37162 14504c-33,125 -81,300 -105,388 -24,88 -24,88 -24,88 0,0 0,0 294,-9 293,-9 879,-26 1204,-42 324,-16 387,-30 424,-48 38,-17 52,-37 49,-63 -3,-26 -21,-58 -80,-96 -60,-37 -159,-81 -302,-135 -142,-53 -327,-115 -565,-176 -239,-60 -532,-119 -678,-148 -146,-29 -146,-29 -146,-29 0,0 0,0 -9,36 -10,37 -28,110 -62,234z"/>
    <path class="fil52 str3" d="M37014 14431c-35,129 -94,339 -123,444 -29,105 -29,105 -29,105 0,0 0,0 0,0 0,0 0,0 -180,10 -181,10 -541,30 -992,54 -450,25 -992,54 -1262,69 -271,14 -271,14 -271,14 0,0 0,0 5,-32 5,-31 14,-95 15,-141 2,-45 -5,-71 -19,-88 -14,-17 -35,-23 -46,-27 -11,-3 -11,-3 -11,-3 0,0 0,0 54,-34 54,-34 162,-101 275,-167 113,-65 231,-127 347,-184 116,-56 229,-107 344,-145 115,-39 232,-66 363,-86 132,-21 278,-35 448,-43 169,-8 362,-10 556,-3 194,7 390,21 488,29 97,7 97,7 97,7 0,0 0,0 -6,23 -6,23 -18,70 -53,198z"/>
    <path class="fil48" d="M39886 14698c232,84 242,91 246,98 2,3 3,7 1,10 -7,0 -15,-1 -22,-2 -53,-5 -94,-14 -342,-101 -248,-86 -703,-250 -936,-337 -234,-87 -246,-98 -256,-108 -3,-2 -5,-4 -8,-6 12,0 26,1 52,7 31,7 78,20 329,107 250,87 704,247 936,332z"/>
    <path class="fil5" d="M41457 15257l0 42c0,112 1,247 2,315 0,68 0,68 0,68l1 0c-21,10 -46,12 -75,13 -57,1 -125,0 -194,-14 -68,-14 -137,-40 -211,-91 -74,-50 -152,-125 -196,-173 -43,-49 -51,-72 -44,-94 7,-23 28,-45 70,-69 42,-24 104,-50 169,-66 64,-15 131,-22 190,-22 60,0 113,7 155,18 42,11 73,27 101,46 11,7 22,15 32,27z"/>
    <path class="fil46" d="M39221 15805c577,0 1044,467 1044,1043 0,44 -3,87 -8,130 -43,0 -86,-1 -129,0 6,-43 9,-86 9,-130 0,-505 -410,-915 -916,-915 -470,0 -858,355 -909,812 17,58 31,146 34,194 2,57 -11,59 -24,63l-3 1 0 1c-7,1 -13,3 -19,4 -5,2 -9,4 -13,6 -10,5 -18,11 -26,20 -7,8 -15,20 -25,39 -11,20 -24,48 -41,79 -17,32 -37,67 -47,84 -10,17 -10,17 -10,17 0,0 0,0 3,-37 3,-38 9,-114 16,-188 7,-74 14,-146 18,-193 2,-16 3,-30 5,-41 28,-551 484,-989 1041,-989z"/>
    <g>
     <path class="fil53 str3" d="M39221 15933c-505,0 -915,410 -915,915 0,506 410,916 915,916 506,0 916,-410 916,-916 0,-505 -410,-915 -916,-915zm609 1028c-62,8 -178,10 -360,16 -182,5 -431,13 -593,17 -162,4 -238,4 -276,4 -38,0 -38,0 -38,0 0,0 0,0 5,11 5,11 14,34 33,74 18,40 46,97 79,144 32,47 70,85 114,119 45,35 96,67 142,90 45,23 83,38 133,47 50,9 111,13 161,15 49,1 86,0 137,-11 50,-10 114,-30 173,-60 59,-29 114,-67 164,-125 49,-58 95,-135 128,-200 33,-66 54,-119 61,-139 7,-21 -1,-9 -63,-2z"/>
     <path class="fil54" d="M39212 16360c-264,0 -478,215 -478,479 0,264 214,479 478,479 265,0 479,-215 479,-479 0,-264 -214,-479 -479,-479z"/>
     <path class="fil19 str3" d="M39221 16741c-59,0 -107,48 -107,107 0,60 48,108 107,108 60,0 108,-48 108,-108 0,-59 -48,-107 -108,-107z"/>
     <path class="fil55" d="M39221 16144c-388,0 -704,316 -704,704 0,389 316,705 704,705 389,0 705,-316 705,-705 0,-388 -316,-704 -705,-704zm0 497c-13,0 -26,1 -39,4l-16 -430c19,-2 37,-3 55,-3 15,0 28,1 42,2l-3 431c-13,-3 -25,-4 -39,-4zm-69 12c-46,16 -84,48 -109,89l-369 -218c85,-143 224,-250 390,-292l88 421zm-123 118c-8,21 -13,43 -15,66l-420 -95c8,-47 21,-92 38,-135l397 164zm-13 105c5,43 25,82 53,113l-315 291c-105,-113 -169,-265 -169,-432 0,-9 0,-18 1,-27l430 55zm76 135c17,13 36,24 57,32l-230 366c-35,-19 -68,-42 -98,-66l271 -332zm85 40c14,3 29,5 44,5 24,0 47,-4 68,-11l191 385c-79,35 -166,55 -259,55 -83,0 -163,-16 -236,-46l192 -388zm137 -17c19,-9 37,-22 52,-37l284 322c-32,29 -67,55 -105,78l-231 -363zm75 -64c24,-32 39,-72 40,-115l428 -46c0,13 1,26 1,39 0,164 -62,313 -163,426l-306 -304zm38 -149c-3,-24 -11,-48 -22,-69l408 -137c14,34 24,69 32,106l-418 100zm-39 -97c-24,-32 -57,-56 -95,-70l65 -427c176,38 324,149 413,300l-383 197z"/>
     <path class="fil56" d="M39218 16738c-59,0 -107,48 -107,107 0,60 48,108 107,108 60,0 108,-48 108,-108 0,-59 -48,-107 -108,-107z"/>
    </g>
    <path class="fil46" d="M31481 15806c576,0 1043,467 1043,1043 0,34 -2,67 -5,100l-2 27c-1,25 -2,51 -3,64 -1,13 -1,13 -1,13l-2 -2 -1 6c0,0 0,0 -30,-3 -31,-3 -92,-8 -174,-15 -83,-7 -187,-17 -292,-23 -105,-6 -211,-8 -357,-3 -145,5 -330,19 -472,40 -143,22 -242,53 -325,80 -84,26 -150,49 -211,74 -61,25 -117,53 -150,72 -20,11 -31,19 -39,23 -5,4 -9,7 -13,9 -5,2 -9,3 -11,1 -1,0 -3,0 -6,1 0,-10 0,-22 1,-37 0,-82 2,-247 4,-357 1,-45 2,-81 3,-112 22,-557 480,-1001 1043,-1001zm905 905c-67,-440 -447,-778 -905,-778 -492,0 -893,388 -915,875 46,-62 126,-104 322,-130 213,-28 563,-36 844,-29 281,8 494,30 612,53 16,3 29,6 42,9z"/>
    <g>
     <path class="fil53" d="M31481 15924c-506,0 -916,410 -916,916 0,506 410,915 916,915 505,0 915,-409 915,-915 0,-506 -410,-916 -915,-916zm608 1029c-62,7 -177,10 -360,15 -182,5 -430,13 -593,17 -162,4 -238,4 -275,4 -38,0 -38,0 -38,0 0,0 0,0 4,12 5,11 14,33 33,73 18,40 46,97 79,145 33,47 70,84 114,119 45,34 97,66 142,89 45,24 84,38 134,48 49,9 111,13 160,14 49,2 86,0 137,-10 50,-11 114,-31 173,-60 59,-30 114,-68 164,-126 50,-58 95,-135 128,-200 33,-65 55,-118 61,-139 7,-21 -1,-9 -63,-1z"/>
     <path class="fil54" d="M31472 16352c-265,0 -479,214 -479,478 0,265 214,479 479,479 264,0 478,-214 478,-479 0,-264 -214,-478 -478,-478z"/>
     <path class="fil19" d="M31481 16732c-60,0 -108,48 -108,108 0,59 48,108 108,108 59,0 107,-49 107,-108 0,-60 -48,-108 -107,-108z"/>
     <path class="fil55" d="M31481 16136c-389,0 -704,315 -704,704 0,389 315,704 704,704 389,0 704,-315 704,-704 0,-389 -315,-704 -704,-704zm0 496c-14,0 -27,2 -40,4l-15 -430c18,-2 36,-2 55,-2 14,0 28,0 41,1l-3 431c-12,-2 -25,-4 -38,-4zm-70 12c-46,17 -84,49 -109,90l-369 -218c85,-143 225,-251 390,-293l88 421zm-123 118c-8,21 -13,43 -14,66l-421 -94c8,-47 21,-92 39,-135l396 163zm-13 105c6,43 25,83 53,113l-314 292c-105,-114 -170,-265 -170,-432 0,-9 1,-19 1,-28l430 55zm76 135c17,14 36,24 57,32l-229 366c-35,-19 -69,-41 -99,-66l271 -332zm85 41c15,3 29,4 45,4 23,0 46,-4 67,-11l192 385c-80,35 -167,55 -259,55 -84,0 -164,-16 -237,-45l192 -388zm137 -18c20,-9 37,-21 52,-36l284 321c-32,30 -67,56 -105,78l-231 -363zm76 -63c23,-33 38,-73 39,-116l428 -45c1,13 1,26 1,39 0,163 -62,313 -163,425l-305 -303zm37 -149c-3,-25 -10,-48 -22,-70l409 -137c13,34 24,70 31,106l-418 101zm-39 -97c-24,-32 -57,-57 -94,-71l64 -427c176,39 325,150 413,301l-383 197z"/>
     <path class="fil56" d="M31478 16729c-60,0 -108,48 -108,108 0,59 48,107 108,107 59,0 107,-48 107,-107 0,-60 -48,-108 -107,-108z"/>
    </g>
    <path class="fil45" d="M36177 15366c8,20 13,43 14,70 2,27 -1,59 -16,84 -14,24 -41,41 -86,51 -44,10 -107,13 -160,1 -53,-12 -97,-38 -123,-64 -27,-25 -36,-49 -32,-70 4,-20 21,-37 70,-59 49,-21 130,-46 186,-58 56,-12 87,-11 107,-2 21,10 32,27 40,47z"/>
    <path class="fil57" d="M36226 15479c-111,13 -330,19 -446,17 -117,-1 -130,-9 -135,-20 -6,-10 -3,-24 6,-35 10,-11 26,-20 129,-33 103,-13 293,-29 399,-34 107,-5 129,0 142,10 14,10 18,25 18,43 1,17 -2,39 -113,52z"/>
   </g>
   <polygon class="fil58" points="3922,13649 4079,13649 4079,17757 3922,17757 "/>
   <polygon class="fil58" points="8207,13666 8365,13666 8365,17757 8207,17757 "/>
   <polygon class="fil59" points="49202,19724 2,19724 2,17853 49202,17853 "/>
   <path class="fil57" style="mask:url(#id0)" d="M30641 15844c-110,75 -282,209 -405,287 -123,79 -197,103 -419,210 -221,107 -591,296 -1093,485 -502,189 -1137,378 -1641,492 -504,113 -877,152 -1064,171 -186,19 -186,19 -186,19 0,0 0,0 0,0 0,0 0,0 0,-437 0,-438 0,-1313 0,-1751 0,-438 0,-438 0,-438 0,0 0,0 835,142 836,142 2507,426 3319,576 811,151 764,168 654,244z"/>
   <g>
    <path class="fil60" d="M9174 10156l-6108 0c-75,0 -136,61 -136,136l0 3638c0,75 61,136 136,136l6108 0c75,0 137,-61 137,-136l0 -3638c0,-75 -62,-136 -137,-136z"/>
    <path class="fil57" d="M3141 10995l513 0 0 170 -47 0c-27,0 -45,3 -54,8 -9,6 -16,15 -20,27 -4,12 -6,35 -6,69l0 683c0,38 2,61 5,72 4,11 10,18 18,23 11,7 27,11 48,11l56 0 0 170 -513 0 0 -170 41 0c30,0 50,-3 59,-8 9,-5 16,-13 20,-24 4,-10 6,-32 6,-65l0 -686c0,-38 -2,-63 -6,-75 -4,-12 -12,-21 -22,-28 -7,-5 -24,-7 -51,-7l-47 0 0 -170z"/>
    <path class="fil57" d="M4097 11326l0 118c57,-46 105,-77 146,-93 41,-17 82,-25 124,-25 49,0 93,12 130,36 38,24 65,55 82,91 17,36 26,87 26,154l0 367c0,31 2,51 6,60 3,9 9,15 17,19 6,3 24,5 54,5l37 0 0 170 -442 0 0 -170c34,-1 52,-2 56,-3 13,-4 21,-11 25,-20 4,-10 6,-30 6,-61l0 -323c0,-41 -4,-68 -11,-80 -13,-21 -32,-31 -58,-31 -21,0 -45,5 -69,16 -25,12 -58,35 -100,69l0 349c0,38 4,62 11,71 7,8 24,13 51,13l25 0 0 170 -439 0 0 -170 22 0c34,0 56,-2 64,-5 8,-4 14,-10 19,-19 4,-9 6,-26 6,-52l0 -410 -111 0 0 -170c90,-13 174,-38 253,-76l70 0z"/>
    <path class="fil57" d="M7588 11326l0 118c57,-46 106,-77 146,-93 41,-17 82,-25 125,-25 49,0 92,12 129,36 38,24 65,55 82,91 18,36 26,87 26,154l0 367c0,31 2,51 6,60 3,9 9,15 17,19 6,3 24,5 55,5l36 0 0 170 -441 0 0 -170c33,-1 52,-2 55,-3 13,-4 21,-11 25,-20 4,-10 6,-30 6,-61l0 -323c0,-41 -4,-68 -11,-80 -12,-21 -31,-31 -58,-31 -21,0 -44,5 -69,16 -25,12 -58,35 -100,69l0 349c0,38 4,62 11,71 7,8 24,13 51,13l25 0 0 170 -439 0 0 -170 22 0c34,0 56,-2 64,-5 8,-4 15,-10 19,-19 4,-9 6,-26 6,-52l0 -410 -111 0 0 -170c90,-13 175,-38 253,-76l70 0z"/>
    <path class="fil57" d="M8764 11694l0 -65c0,-39 -3,-65 -9,-80 -5,-15 -15,-27 -30,-36 -15,-10 -33,-15 -55,-15 -16,0 -32,3 -45,10 -14,6 -25,14 -33,24 -8,10 -17,30 -28,58 -13,36 -30,62 -48,78 -19,16 -42,24 -67,24 -32,0 -59,-12 -79,-35 -21,-24 -31,-53 -31,-88 0,-39 10,-74 31,-104 29,-41 71,-74 127,-100 55,-26 118,-39 188,-39 70,0 130,13 179,40 49,26 83,58 102,94 19,37 29,93 29,169l0 315c0,39 2,64 6,75 3,10 11,20 22,28 12,8 25,13 39,13 14,0 33,-5 57,-15l0 174c-43,16 -84,24 -123,24 -47,0 -86,-9 -119,-27 -33,-18 -60,-44 -83,-80 -50,38 -96,66 -137,82 -41,16 -80,25 -119,25 -72,0 -130,-24 -174,-72 -45,-47 -67,-106 -67,-175 0,-40 8,-76 23,-109 16,-33 39,-62 69,-86 31,-25 78,-47 142,-66 64,-19 141,-33 233,-41zm0 146c-67,12 -113,23 -141,35 -27,11 -47,25 -58,43 -12,17 -18,35 -18,53 0,24 8,43 23,59 15,16 36,24 62,24 16,0 36,-5 58,-15 22,-10 46,-25 74,-44l0 -155z"/>
    <path class="fil57" d="M3648 10428l-6 18c-21,5 -35,10 -40,13 -6,4 -23,25 -51,62l-80 108 -114 161 -24 0 5 -59 12 -168 -1 -1 -162 228 -24 0c14,-175 21,-280 21,-316 0,-7 -1,-11 -3,-13 -2,-2 -10,-5 -24,-9 -15,-4 -23,-6 -23,-6l5 -18c34,2 63,3 87,3 24,0 52,-1 84,-3l-4 18c-3,0 -10,1 -20,5 -11,4 -18,8 -20,12 -3,4 -5,16 -8,36l-18 166 1 1 113 -160c1,-9 1,-18 1,-28 0,-11 -2,-18 -6,-21 -3,-3 -15,-7 -34,-11l4 -18c45,2 75,3 90,3 17,0 44,-1 82,-3l-5 17c-28,8 -44,14 -49,18 -4,5 -7,14 -9,29l-18 173 1 1 123 -179c10,-15 15,-24 15,-28 0,-4 -5,-8 -13,-10 -9,-2 -16,-3 -21,-3l6 -18c24,2 47,3 69,3 17,0 37,-1 58,-3zm92 307c-43,34 -81,52 -113,52 -17,0 -31,-7 -40,-19 -9,-13 -14,-31 -14,-53 0,-42 16,-81 48,-118 32,-36 70,-54 115,-54 27,0 41,10 41,31 0,24 -12,44 -34,63 -23,18 -58,32 -106,42 0,6 0,12 0,17 0,32 10,48 30,48 8,0 15,-2 24,-6 8,-3 20,-10 36,-20l13 17zm-99 -79c27,-7 47,-17 59,-30 13,-14 19,-28 19,-42 0,-11 -4,-17 -14,-17 -10,0 -21,7 -33,21 -12,14 -22,37 -31,68zm308 -237c-13,32 -28,72 -45,122 -16,50 -28,89 -36,117l-19 64c0,1 0,2 0,3 0,3 1,4 4,4 5,0 14,-5 26,-16 1,0 2,-2 5,-4l12 13c-45,43 -80,65 -105,65 -10,0 -14,-5 -14,-13 0,-4 4,-22 14,-54l34 -114c27,-88 41,-134 41,-138 0,-4 -1,-6 -3,-8 -1,-1 -4,-1 -9,-1 -5,0 -12,0 -22,1l5 -16c42,-10 76,-21 100,-35l12 10zm186 136c-8,19 -15,39 -21,62l-21 -1c0,-33 -10,-49 -31,-49 -19,0 -36,14 -51,43 -15,28 -23,57 -23,86 0,12 2,23 6,32 4,10 11,15 22,15 14,0 36,-12 64,-36l13 16c-42,42 -80,64 -113,64 -18,0 -32,-7 -41,-20 -10,-13 -14,-31 -14,-54 0,-26 7,-53 21,-80 14,-28 33,-49 57,-66 24,-16 50,-24 77,-24 18,0 37,4 55,12zm138 -12c21,0 37,6 49,19 12,13 17,32 17,56 0,29 -7,57 -21,83 -15,26 -34,47 -57,62 -24,16 -48,24 -73,24 -21,0 -37,-7 -49,-22 -13,-14 -19,-33 -19,-56 0,-27 7,-54 22,-80 14,-26 33,-47 57,-63 24,-15 48,-23 74,-23zm-64 220c17,0 32,-17 47,-51 14,-35 21,-68 21,-101 0,-30 -9,-44 -27,-44 -18,0 -33,18 -47,55 -13,37 -20,68 -20,94 0,14 2,26 7,34 5,9 11,13 19,13zm521 -40c-20,19 -40,35 -58,46 -19,12 -35,18 -47,18 -11,0 -17,-5 -17,-16 0,-5 3,-17 9,-36 6,-18 12,-36 18,-52 4,-12 9,-26 14,-43 6,-18 9,-29 9,-32 0,-6 -3,-9 -7,-9 -7,0 -19,9 -36,28 -18,19 -31,36 -39,53 -8,17 -19,50 -33,99 -30,0 -52,1 -64,3 35,-103 52,-161 52,-173 0,-5 -2,-8 -7,-8 -5,0 -16,9 -33,27 -16,19 -29,36 -38,52 -9,16 -20,47 -32,91 -1,5 -2,8 -2,8 -29,0 -50,1 -64,3 12,-32 24,-67 36,-107 11,-39 17,-60 17,-62 0,-5 -1,-7 -5,-7 -2,0 -5,1 -8,4l-18 15 -12 -13c24,-23 44,-40 61,-52 18,-11 31,-17 41,-17 8,0 13,4 13,13 0,16 -10,46 -28,88l1 1c53,-68 95,-102 126,-102 13,0 19,7 19,21 0,15 -8,41 -23,80l1 1c52,-68 95,-102 129,-102 16,0 24,7 24,22 0,7 -1,14 -3,19l-43 129c-2,5 -3,8 -3,12 0,4 2,6 6,6 5,0 15,-7 32,-22l12 14zm191 12c-43,34 -81,52 -113,52 -17,0 -31,-7 -40,-19 -9,-13 -14,-31 -14,-53 0,-42 16,-81 48,-118 32,-36 70,-54 115,-54 27,0 41,10 41,31 0,24 -12,44 -34,63 -23,18 -58,32 -106,42 0,6 0,12 0,17 0,32 10,48 30,48 8,0 15,-2 24,-6 8,-3 20,-10 36,-20l13 17zm-99 -79c27,-7 47,-17 59,-30 13,-14 19,-28 19,-42 0,-11 -4,-17 -13,-17 -11,0 -22,7 -34,21 -12,14 -22,37 -31,68zm443 -102c-5,7 -10,16 -15,26 -14,-1 -31,-2 -52,-3 -7,21 -15,49 -25,84 -10,36 -15,57 -15,63 0,5 2,8 6,8 9,0 23,-9 43,-27l12 13c-25,24 -48,42 -67,52 -19,11 -34,17 -45,17 -6,0 -11,-2 -15,-6 -4,-3 -6,-8 -6,-15 0,-6 2,-18 8,-35l46 -154c-13,0 -24,0 -33,0l5 -17c39,-13 72,-40 97,-82l23 0c-13,36 -22,60 -26,73 31,0 50,-1 56,-3l3 6zm133 -11c21,0 37,6 48,19 12,13 18,32 18,56 0,29 -7,57 -22,83 -14,26 -33,47 -57,62 -24,16 -48,24 -73,24 -20,0 -37,-7 -49,-22 -12,-14 -18,-33 -18,-56 0,-27 7,-54 21,-80 14,-26 33,-47 57,-63 24,-15 49,-23 75,-23zm-64 220c16,0 31,-17 46,-51 14,-35 22,-68 22,-101 0,-30 -9,-44 -27,-44 -18,0 -34,18 -47,55 -14,37 -21,68 -21,94 0,14 3,26 7,34 5,9 12,13 20,13z"/>
    <polygon class="fil61" points="9311,14066 2930,14066 2930,13282 9311,13282 "/>
    <path class="fil57" d="M7342 12908l-6 23c-35,-2 -69,-3 -102,-3 -36,0 -75,1 -117,3l6 -23c0,0 2,0 4,-1 31,-8 49,-16 54,-22 6,-6 10,-30 15,-72 0,-10 1,-17 2,-21l-109 0c-22,32 -38,55 -48,70 -10,15 -15,25 -15,30 0,4 2,7 5,8 3,2 12,4 27,6 1,0 2,1 4,1 2,1 3,1 4,1l-7 23c-26,-2 -51,-3 -73,-3 -21,0 -47,1 -78,3l6 -23 21 -5c11,-3 20,-7 25,-12 6,-4 24,-26 54,-65 30,-38 78,-103 145,-193 66,-91 105,-146 118,-166l27 0c-6,61 -11,138 -16,233 -6,94 -8,152 -8,172 0,7 1,11 3,14 2,3 7,7 15,10 8,3 23,7 44,12zm-126 -295l-2 -2c-62,92 -95,141 -101,148l88 0 8 -87c3,-31 5,-51 7,-59zm625 242c-24,26 -47,46 -70,60 -22,15 -41,22 -55,22 -14,0 -21,-6 -21,-19 0,-7 4,-22 11,-46 7,-24 14,-47 21,-67 5,-15 11,-34 18,-56 6,-22 10,-36 10,-41 0,-7 -3,-11 -8,-11 -8,0 -23,12 -44,36 -21,24 -37,47 -46,68 -10,22 -24,64 -40,127 -36,0 -62,1 -77,3 42,-132 63,-205 63,-221 0,-7 -3,-10 -8,-10 -7,0 -20,11 -40,35 -20,23 -35,45 -46,66 -11,21 -24,59 -38,116 -2,6 -3,10 -3,11 -35,0 -60,1 -76,3 14,-41 28,-86 42,-136 14,-51 21,-77 21,-80 0,-6 -2,-9 -6,-9 -3,0 -6,2 -9,5l-23 20 -13 -17c28,-29 52,-52 73,-66 21,-15 37,-23 49,-23 10,0 15,6 15,17 0,21 -11,58 -34,113l2 1c63,-87 114,-131 151,-131 16,0 24,10 24,28 0,18 -10,52 -29,102l1 1c63,-87 114,-131 155,-131 19,0 29,10 29,28 0,10 -1,18 -3,25l-52 165c-2,6 -3,11 -3,15 0,6 2,9 7,9 5,0 18,-10 38,-29l14 17zm249 15c-52,45 -98,67 -136,67 -21,0 -37,-8 -48,-24 -12,-16 -17,-39 -17,-67 0,-54 19,-105 57,-151 38,-46 84,-70 138,-70 33,0 49,14 49,41 0,29 -13,56 -41,80 -27,23 -69,41 -126,53 -1,9 -1,16 -1,22 0,41 12,62 37,62 9,0 18,-3 28,-8 10,-4 24,-13 44,-25l16 20zm-120 -100c33,-9 56,-22 71,-39 15,-17 23,-35 23,-54 0,-13 -5,-20 -16,-20 -13,0 -27,9 -40,26 -14,18 -27,47 -38,87zm436 -137c-11,26 -21,53 -30,82l-19 -1c-2,-6 -5,-9 -10,-9 -8,0 -17,7 -27,20 -10,13 -22,31 -36,55 -15,23 -24,41 -29,54 -4,12 -14,40 -27,85 -1,5 -2,8 -3,9 -32,0 -57,1 -75,3 42,-130 63,-202 63,-215 0,-6 -2,-9 -6,-9 -4,0 -15,7 -32,22l-13 -15c27,-28 50,-50 71,-65 21,-16 37,-24 47,-24 10,0 15,6 15,18 0,11 -2,20 -4,29l-41 117 1 2c34,-69 59,-114 75,-134 17,-21 35,-32 54,-32 6,0 15,3 26,8zm150 -155c10,0 17,4 23,11 6,7 10,15 10,25 0,15 -5,29 -14,42 -8,14 -19,20 -32,20 -9,0 -16,-3 -23,-9 -7,-7 -10,-16 -10,-29 0,-15 4,-29 13,-41 9,-13 20,-19 33,-19zm-140 231c60,-56 100,-84 122,-84 10,0 15,7 15,19 0,6 -3,20 -11,44l-49 157c-2,6 -2,11 -2,14 0,5 1,7 5,7 6,0 19,-9 39,-27l14 15c-25,26 -49,47 -72,61 -23,15 -40,22 -53,22 -12,0 -18,-6 -18,-17 0,-10 9,-42 27,-97l22 -65c8,-24 12,-39 12,-44 0,-6 -2,-9 -6,-9 -4,0 -14,8 -31,22l-14 -18zm437 -68c-10,24 -18,50 -25,80l-25 -2c0,-42 -12,-63 -37,-63 -23,0 -43,18 -61,55 -19,36 -28,73 -28,111 0,15 3,28 7,41 5,12 14,18 27,18 17,0 42,-15 76,-45l16 20c-51,54 -96,81 -136,81 -22,0 -38,-8 -50,-25 -11,-16 -16,-39 -16,-69 0,-34 8,-68 26,-103 17,-35 40,-63 68,-83 29,-21 60,-32 92,-32 22,0 44,6 66,16zm288 1c-18,37 -33,79 -46,128 -13,49 -20,77 -20,85 0,6 2,9 5,9 6,0 18,-8 37,-26l13 16c-25,27 -49,48 -70,62 -21,14 -37,21 -47,21 -12,0 -17,-5 -17,-16 0,-11 4,-31 13,-59 1,-2 3,-8 7,-19l-2 -1c-25,33 -46,57 -63,72 -18,15 -34,23 -48,23 -16,0 -28,-8 -37,-24 -8,-15 -13,-36 -13,-62 0,-56 21,-108 61,-155 41,-47 90,-71 149,-71 8,0 26,2 55,4 7,1 13,1 18,1l5 12zm-85 27c-11,-6 -21,-9 -29,-9 -24,0 -46,18 -67,56 -20,37 -31,75 -31,113 0,25 7,37 22,37 10,0 24,-10 41,-30 18,-19 36,-66 57,-140l7 -27z"/>
    <path class="fil57" d="M3413 13467l0 331 162 0 0 60 -226 0 0 -391 64 0zm214 108l62 0 0 283 -62 0 0 -283zm-1 -140l64 0 0 75 -64 0 0 -75zm188 179l1 0c3,-6 8,-12 13,-17 6,-6 12,-11 19,-15 7,-4 15,-8 24,-10 8,-3 17,-4 27,-4 9,0 18,1 26,3 9,2 17,6 24,11 7,5 13,11 18,19 6,8 10,18 13,28 2,7 3,13 4,20 0,7 1,16 1,25l0 184 -62 0 0 -173c0,-8 0,-14 -1,-20 0,-5 -1,-10 -2,-14 -3,-9 -8,-16 -14,-20 -7,-3 -14,-5 -23,-5 -12,0 -23,3 -34,9 -11,6 -21,16 -29,28l0 195 -62 0 0 -283 51 0 6 39zm417 237c-7,4 -17,7 -28,10 -11,3 -23,4 -36,4 -18,0 -34,-3 -50,-9 -16,-6 -30,-15 -41,-26 -12,-12 -21,-27 -28,-46 -7,-18 -10,-39 -10,-63 0,-28 4,-51 12,-71 7,-19 17,-35 30,-47 12,-12 26,-21 41,-27 16,-6 31,-8 46,-8 11,0 22,1 32,3 11,2 20,5 28,9l0 56c-7,-3 -15,-6 -24,-8 -8,-3 -17,-4 -27,-4 -10,0 -19,2 -28,5 -9,4 -17,9 -24,17 -7,7 -12,17 -17,29 -4,12 -6,27 -6,44 0,12 2,24 5,35 3,11 8,20 14,28 6,8 13,14 22,19 10,5 20,7 33,7 11,0 21,-1 30,-4 10,-2 18,-5 26,-9l0 56zm228 -135c0,-15 -1,-28 -4,-39 -3,-12 -8,-22 -13,-29 -6,-8 -12,-14 -20,-18 -8,-4 -16,-6 -25,-6 -9,0 -17,2 -25,6 -8,4 -14,10 -20,18 -5,7 -10,17 -13,29 -3,11 -4,24 -4,39 0,15 1,28 4,40 3,11 8,21 13,29 6,7 12,13 20,17 8,4 16,6 25,6 9,0 18,-2 25,-6 8,-4 14,-10 20,-17 5,-8 10,-18 13,-29 3,-12 4,-25 4,-40zm64 0c0,22 -3,43 -9,61 -6,18 -14,34 -25,47 -11,13 -24,23 -40,30 -15,7 -33,11 -52,11 -19,0 -37,-4 -53,-11 -15,-7 -28,-17 -39,-30 -11,-13 -19,-29 -25,-47 -6,-18 -9,-39 -9,-61 0,-22 3,-42 9,-61 6,-18 14,-34 25,-47 11,-13 24,-23 40,-30 15,-7 33,-10 52,-10 19,0 37,3 53,10 15,7 28,17 39,30 11,13 19,29 25,47 6,19 9,39 9,61zm56 142l0 -423 62 0 0 423 -62 0zm188 -244l1 0c3,-6 8,-12 13,-17 6,-6 12,-11 19,-15 7,-4 15,-8 24,-10 8,-3 17,-4 27,-4 9,0 18,1 26,3 9,2 17,6 24,11 7,5 13,11 18,19 6,8 10,18 13,28 2,7 3,13 4,20 0,7 1,16 1,25l0 184 -62 0 0 -173c0,-8 0,-14 -1,-20 0,-5 -1,-10 -2,-14 -3,-9 -8,-16 -14,-20 -7,-3 -14,-5 -23,-5 -12,0 -24,3 -34,9 -11,6 -21,16 -29,28l0 195 -62 0 0 -283 51 0 6 39zm258 -147l66 0 -50 161 -55 0 39 -161zm202 309c0,-7 -1,-12 -4,-15 -3,-4 -7,-8 -12,-10 -5,-3 -11,-5 -17,-7 -7,-2 -13,-4 -21,-6 -9,-3 -17,-6 -25,-9 -9,-4 -16,-9 -22,-15 -6,-5 -11,-13 -15,-22 -4,-9 -6,-19 -6,-32 0,-16 3,-30 8,-41 5,-12 12,-21 20,-29 9,-8 19,-13 30,-17 11,-4 23,-5 36,-5 15,0 29,1 43,4 13,3 25,6 36,11l0 56c-6,-2 -12,-4 -18,-6 -6,-2 -12,-3 -19,-5 -6,-1 -13,-2 -19,-3 -7,-1 -13,-1 -18,-1 -8,0 -14,1 -19,2 -5,2 -9,4 -12,6 -3,3 -5,6 -6,9 -2,4 -3,7 -3,11 0,6 2,12 5,16 3,4 7,7 12,10 6,2 11,4 17,6 6,2 12,3 17,5 9,2 17,5 26,8 9,4 16,8 23,14 7,6 13,14 17,23 5,10 7,22 7,36 0,16 -3,30 -8,42 -6,12 -13,22 -23,30 -9,7 -21,13 -34,17 -13,4 -28,6 -44,6 -16,0 -30,-2 -43,-4 -12,-3 -23,-7 -31,-11l0 -56c13,6 26,10 37,12 12,2 22,3 32,3 7,0 15,-1 21,-2 7,-2 12,-3 17,-6 5,-3 9,-6 11,-11 3,-4 4,-9 4,-14zm481 -205c0,17 -4,32 -11,47 -6,14 -17,25 -33,35l0 1c9,3 17,7 24,13 7,5 13,11 18,18 5,7 9,15 12,24 3,9 5,19 5,30 0,10 -1,20 -4,31 -3,11 -7,21 -14,31 -7,11 -16,20 -27,29 -11,8 -25,15 -43,20 -4,1 -9,2 -14,3 -5,1 -10,2 -17,3 -6,0 -13,1 -20,1 -8,1 -16,1 -26,1l-101 0 0 -391 120 0c26,0 47,3 62,9 12,4 22,10 31,17 8,7 16,14 21,23 6,8 10,17 13,27 2,9 4,18 4,28zm-187 117l0 110 41 0c11,0 21,0 29,-1 8,-1 14,-2 20,-4 9,-2 16,-5 22,-8 6,-4 11,-8 14,-12 4,-5 6,-10 8,-16 2,-5 2,-11 2,-17 0,-11 -2,-21 -8,-29 -5,-8 -13,-14 -25,-18 -5,-2 -11,-3 -17,-4 -7,-1 -16,-1 -26,-1l-60 0zm57 -60c17,0 30,-2 38,-6 10,-4 16,-11 20,-18 4,-8 6,-17 6,-27 0,-10 -2,-20 -6,-28 -5,-8 -13,-14 -24,-18 -5,-1 -10,-2 -16,-3 -7,-1 -14,-1 -23,-1l-52 0 0 101 57 0zm377 88c0,-15 -2,-28 -5,-39 -3,-12 -7,-22 -13,-29 -5,-8 -12,-14 -20,-18 -8,-4 -16,-6 -25,-6 -9,0 -17,2 -25,6 -8,4 -14,10 -20,18 -5,7 -10,17 -13,29 -3,11 -4,24 -4,39 0,15 1,28 4,40 3,11 8,21 13,29 6,7 13,13 20,17 8,4 16,6 25,6 9,0 18,-2 25,-6 8,-4 15,-10 20,-17 6,-8 10,-18 13,-29 3,-12 5,-25 5,-40zm63 0c0,22 -3,43 -9,61 -6,18 -14,34 -25,47 -11,13 -24,23 -40,30 -15,7 -32,11 -52,11 -19,0 -37,-4 -53,-11 -15,-7 -28,-17 -39,-30 -11,-13 -19,-29 -25,-47 -6,-18 -9,-39 -9,-61 0,-22 3,-42 9,-61 6,-18 14,-34 25,-47 11,-13 24,-23 40,-30 15,-7 33,-10 52,-10 20,0 37,3 53,10 15,7 29,17 39,30 11,13 20,29 25,47 6,19 9,39 9,61zm23 -141l66 0 37 102c14,39 24,68 30,87l1 0c4,-15 13,-42 27,-82l39 -107 67 0 -162 418 -60 0 57 -151 -102 -267zm366 -25c0,15 0,27 0,36 -1,10 -1,18 -2,26l1 0c3,-6 8,-11 13,-17 5,-5 11,-10 17,-14 6,-4 14,-7 22,-10 8,-2 16,-3 26,-3 8,0 16,0 24,2 8,2 15,5 22,9 7,4 13,9 19,15 5,6 10,14 14,22 3,8 6,16 7,25 2,10 2,21 2,35l0 182 -61 0 0 -173c0,-9 0,-16 -1,-22 -1,-5 -2,-10 -4,-14 -3,-9 -8,-15 -15,-18 -7,-4 -14,-5 -23,-5 -12,0 -23,3 -33,9 -10,6 -19,16 -28,28l0 195 -61 0 0 -423 61 0 0 115zm408 166c0,-15 -2,-28 -5,-39 -3,-12 -7,-22 -13,-29 -5,-8 -12,-14 -19,-18 -8,-4 -17,-6 -26,-6 -9,0 -17,2 -25,6 -7,4 -14,10 -19,18 -6,7 -10,17 -13,29 -3,11 -5,24 -5,39 0,15 2,28 5,40 3,11 7,21 13,29 5,7 12,13 20,17 7,4 16,6 25,6 9,0 17,-2 25,-6 7,-4 14,-10 19,-17 6,-8 10,-18 13,-29 3,-12 5,-25 5,-40zm63 0c0,22 -3,43 -8,61 -6,18 -15,34 -26,47 -11,13 -24,23 -39,30 -16,7 -33,11 -52,11 -20,0 -38,-4 -53,-11 -16,-7 -29,-17 -40,-30 -11,-13 -19,-29 -25,-47 -5,-18 -8,-39 -8,-61 0,-22 3,-42 8,-61 6,-18 15,-34 26,-47 11,-13 24,-23 39,-30 16,-7 33,-10 52,-10 20,0 37,3 53,10 16,7 29,17 40,30 11,13 19,29 25,47 5,19 8,39 8,61zm230 0c0,-15 -2,-28 -5,-39 -3,-12 -7,-22 -13,-29 -5,-8 -12,-14 -20,-18 -7,-4 -16,-6 -25,-6 -9,0 -17,2 -25,6 -7,4 -14,10 -20,18 -5,7 -9,17 -12,29 -4,11 -5,24 -5,39 0,15 1,28 5,40 3,11 7,21 13,29 5,7 12,13 19,17 8,4 16,6 26,6 9,0 17,-2 25,-6 7,-4 14,-10 19,-17 6,-8 10,-18 13,-29 3,-12 5,-25 5,-40zm63 0c0,22 -3,43 -9,61 -5,18 -14,34 -25,47 -11,13 -24,23 -40,30 -15,7 -32,11 -51,11 -20,0 -38,-4 -53,-11 -16,-7 -29,-17 -40,-30 -11,-13 -19,-29 -25,-47 -6,-18 -9,-39 -9,-61 0,-22 3,-42 9,-61 6,-18 14,-34 25,-47 11,-13 25,-23 40,-30 16,-7 33,-10 52,-10 20,0 37,3 53,10 16,7 29,17 40,30 10,13 19,29 25,47 5,19 8,39 8,61zm162 94c6,0 12,-1 17,-3 6,-2 11,-4 16,-7 4,-3 9,-6 12,-10 4,-3 7,-7 10,-10l0 -134c-7,-7 -16,-12 -24,-17 -9,-4 -19,-6 -29,-6 -6,0 -13,1 -20,4 -7,3 -13,8 -19,15 -6,7 -11,17 -14,29 -4,13 -6,29 -6,48 0,28 5,51 14,66 10,17 24,25 43,25zm-121 -88c0,-25 3,-47 9,-66 6,-20 15,-36 25,-49 10,-13 22,-23 36,-30 13,-6 27,-9 42,-9 6,0 13,0 19,2 6,1 12,3 17,5 5,3 10,5 15,8 5,3 9,6 13,9l0 0c0,-4 0,-9 0,-16 0,-8 0,-15 0,-24l0 -117 61 0 0 339c0,18 0,34 1,48 0,13 0,25 1,36l-56 0 -2 -31 -1 0c-4,5 -8,10 -13,15 -5,4 -11,8 -17,12 -6,3 -13,6 -20,8 -8,2 -16,3 -24,3 -14,0 -27,-3 -39,-8 -13,-6 -24,-14 -34,-26 -10,-11 -18,-26 -24,-44 -6,-19 -9,-40 -9,-65zm488 -94l160 0 0 -161 63 0 0 391 -63 0 0 -170 -160 0 0 170 -63 0 0 -391 63 0 0 161zm474 88c0,-15 -2,-28 -5,-39 -3,-12 -7,-22 -13,-29 -5,-8 -12,-14 -20,-18 -8,-4 -16,-6 -25,-6 -9,0 -17,2 -25,6 -8,4 -14,10 -20,18 -5,7 -9,17 -13,29 -3,11 -4,24 -4,39 0,15 1,28 4,40 4,11 8,21 13,29 6,7 13,13 20,17 8,4 16,6 25,6 10,0 18,-2 26,-6 7,-4 14,-10 19,-17 6,-8 10,-18 13,-29 3,-12 5,-25 5,-40zm63 0c0,22 -3,43 -9,61 -6,18 -14,34 -25,47 -11,13 -24,23 -40,30 -15,7 -32,11 -52,11 -19,0 -37,-4 -52,-11 -16,-7 -29,-17 -40,-30 -11,-13 -19,-29 -25,-47 -6,-18 -9,-39 -9,-61 0,-22 3,-42 9,-61 6,-18 14,-34 25,-47 11,-13 25,-23 40,-30 16,-7 33,-10 52,-10 20,0 37,3 53,10 15,7 29,17 39,30 11,13 20,29 25,47 6,19 9,39 9,61zm376 -31c0,-6 0,-11 0,-17 0,-5 -1,-10 -2,-14 -2,-8 -5,-15 -11,-20 -6,-6 -13,-8 -23,-8 -6,0 -11,0 -17,2 -5,2 -11,4 -17,8 -5,3 -11,7 -16,11 -5,5 -9,10 -14,16l0 195 -61 0 0 -173c0,-6 0,-11 0,-17 -1,-5 -1,-10 -2,-14 -2,-8 -6,-15 -11,-20 -6,-6 -13,-8 -24,-8 -5,0 -10,0 -16,2 -6,2 -11,4 -17,8 -6,3 -11,7 -16,11 -5,5 -10,10 -14,16l0 195 -61 0 0 -283 51 0 5 39 1 0c4,-6 9,-12 14,-17 6,-6 12,-11 19,-15 7,-4 14,-8 23,-10 8,-3 17,-4 26,-4 17,0 32,4 45,12 13,8 23,21 30,39l1 0c5,-8 10,-15 16,-21 6,-6 13,-12 20,-16 7,-5 15,-8 23,-11 9,-2 18,-3 27,-3 18,0 33,4 45,12 12,8 22,20 28,34 2,4 3,8 5,12 1,5 2,10 3,15 0,6 1,12 1,18 1,7 1,15 1,23l0 176 -62 0 0 -173zm258 124c12,0 24,-1 37,-4 13,-2 26,-6 39,-11l0 55c-8,3 -20,7 -36,11 -17,3 -34,5 -51,5 -18,0 -35,-3 -51,-8 -15,-5 -29,-13 -41,-25 -12,-11 -22,-26 -29,-45 -7,-18 -10,-40 -10,-66 0,-26 3,-48 10,-68 6,-19 15,-35 26,-47 11,-13 24,-23 38,-29 14,-6 29,-9 44,-9 16,0 30,2 44,8 13,5 25,14 34,25 10,12 18,27 23,45 6,19 8,40 8,66 0,9 0,17 0,24l-164 0c0,13 3,25 7,34 5,9 10,17 17,23 7,5 15,10 25,12 9,3 19,4 30,4zm-25 -188c-8,0 -14,2 -20,5 -6,3 -12,8 -16,13 -4,6 -8,12 -10,20 -3,7 -5,15 -6,23l99 0c0,-8 -1,-16 -3,-23 -2,-8 -5,-14 -9,-20 -4,-5 -9,-10 -14,-13 -6,-3 -13,-5 -21,-5z"/>
    <path class="fil62" d="M5582 10722c5,291 8,832 7,1109 0,277 -5,292 -17,307 -12,15 -31,31 -40,45 -9,14 -7,27 -2,42 5,15 12,33 9,50 -3,18 -17,35 -16,54 0,19 16,40 27,62 10,23 15,46 7,65 -8,18 -29,31 -42,51 -12,21 -17,50 -25,73 -8,23 -19,40 -38,62 -19,21 -46,47 -69,68 -23,21 -42,39 -64,73 -21,34 -45,85 -58,135 -13,50 -14,100 -10,133 4,33 13,51 28,61 15,10 36,14 45,3 9,-10 5,-34 9,-51 3,-16 12,-26 31,-30 18,-4 45,-2 64,6 19,8 30,22 43,34 13,12 27,21 38,24 11,2 19,-3 17,-16 -3,-14 -15,-36 -7,-49 8,-12 36,-15 75,-3 39,13 88,42 127,61 39,19 68,28 86,26 18,-2 26,-17 30,-30 4,-12 4,-23 27,-37 22,-13 66,-29 93,-24 26,4 34,30 54,43 19,14 51,15 74,1 22,-14 34,-44 47,-77 13,-33 26,-68 46,-91 21,-23 50,-34 66,-26 17,8 22,35 42,57 19,23 54,40 85,46 30,7 55,2 79,-12 24,-13 46,-35 59,-60 13,-25 16,-52 35,-75 19,-24 54,-45 77,-65 23,-20 34,-39 48,-73 15,-34 32,-83 47,-122 14,-39 25,-68 50,-77 24,-10 62,0 100,-1 37,-1 74,-12 113,-30 40,-19 83,-44 105,-67 21,-23 21,-44 10,-55 -11,-11 -33,-13 -41,-21 -7,-9 1,-25 2,-45 1,-20 -6,-44 -6,-77 0,-33 7,-76 12,-397 6,-320 11,-918 13,-1216 2,-299 2,-299 -45,-299 -48,0 -143,0 -323,-2 -180,-2 -443,-5 -577,-6 -134,-2 -137,-2 -167,12 -30,13 -87,40 -132,61 -44,21 -76,35 -108,34 -32,-1 -63,-17 -90,-25 -26,-9 -47,-11 -54,9 -7,20 -1,61 4,352z"/>
    <path class="fil63" d="M5601 12212c8,26 15,46 9,76 -3,17 -9,26 -13,39 5,11 13,24 18,34 18,38 25,83 8,123 -8,19 -20,32 -33,47 -4,3 -10,10 -13,14 -7,11 -14,45 -19,58 -11,34 -29,60 -52,87 -23,25 -49,49 -74,73 -21,19 -36,34 -52,58 -21,34 -39,76 -49,115 -3,11 -5,23 -7,36 8,-4 16,-6 24,-8 34,-8 76,-4 108,9 5,2 9,5 14,7 37,-38 99,-34 146,-18 48,15 92,42 137,64 6,3 16,8 26,12 10,-20 23,-35 47,-49 39,-24 99,-43 143,-34 21,3 39,12 55,25 9,9 16,18 24,26 6,-11 14,-32 17,-39 16,-40 31,-80 60,-113 36,-40 97,-68 150,-43 25,12 39,31 52,54 3,6 8,15 12,20 10,11 32,21 46,24 12,2 20,1 30,-4 11,-7 24,-19 30,-31 2,-4 4,-9 6,-14 10,-27 18,-50 37,-73 26,-33 56,-49 86,-74 15,-14 21,-28 29,-47 16,-39 30,-79 45,-119 18,-50 38,-99 92,-120 44,-17 81,-4 124,-5 30,-1 59,-12 85,-24 14,-6 35,-17 52,-28 -1,-1 -2,-2 -3,-4 -4,-4 -7,-9 -10,-15 -11,-20 -11,-40 -8,-62 1,-5 3,-11 3,-16 0,-6 -1,-16 -2,-22 -2,-17 -4,-34 -4,-52 0,-31 3,-63 4,-94 4,-101 6,-203 8,-304 7,-405 10,-811 13,-1216 0,-63 1,-127 0,-190 0,-8 0,-23 -1,-36 -98,0 -197,-1 -296,-2 -192,-2 -384,-4 -577,-6 -18,0 -111,-4 -127,1 -3,2 -6,3 -9,4 -44,20 -88,41 -131,61 -45,21 -90,42 -141,41 -28,-1 -50,-7 -73,-15 1,7 1,15 1,20 3,86 5,172 6,258 6,370 9,740 7,1110 0,84 2,173 -4,257 -3,35 -6,66 -29,94 -7,10 -18,20 -27,30z"/>
    <path class="fil62" d="M6065 10802c75,0 136,61 136,136 0,75 -61,136 -136,136 -75,0 -135,-61 -135,-136 0,-75 60,-136 135,-136z"/>
    <polygon class="fil62" points="6025,10550 6120,10755 5983,10764 "/>
    <polygon class="fil62" points="5872,11277 6038,11124 5915,11064 "/>
    <polygon class="fil62" points="6432,10780 6265,10933 6216,10804 "/>
    <polygon class="fil62" points="5689,10836 5878,10961 5906,10826 "/>
    <polygon class="fil62" points="6327,11241 6241,11032 6142,11127 "/>
    <path class="fil64" d="M6158 11326l0 652c0,31 1,51 4,58 3,7 9,12 17,16 7,4 25,6 52,6l41 0 0 170 -466 0 0 -170 39 0c26,0 43,-2 50,-5 8,-3 13,-9 17,-16 3,-8 5,-23 5,-46l0 -420 -111 0 0 -167c39,-2 77,-7 114,-15 36,-8 69,-17 97,-28 19,-7 42,-18 69,-35l72 0z"/>
    <path class="fil57" d="M6817 11694l0 -65c0,-39 -3,-65 -8,-80 -6,-15 -16,-27 -31,-36 -14,-10 -33,-15 -54,-15 -17,0 -32,3 -46,10 -13,6 -24,14 -32,24 -8,10 -18,30 -28,58 -14,36 -30,62 -49,78 -19,16 -41,24 -67,24 -32,0 -58,-12 -79,-35 -20,-24 -31,-53 -31,-88 0,-39 11,-74 32,-104 28,-41 70,-74 126,-100 56,-26 119,-39 189,-39 70,0 129,13 178,40 49,26 83,58 103,94 19,37 29,93 29,169l0 315c0,39 2,64 5,75 3,10 11,20 23,28 11,8 24,13 38,13 15,0 34,-5 57,-15l0 174c-42,16 -84,24 -123,24 -46,0 -86,-9 -119,-27 -32,-18 -60,-44 -82,-80 -51,38 -96,66 -137,82 -41,16 -81,25 -119,25 -72,0 -130,-24 -175,-72 -44,-47 -66,-106 -66,-175 0,-40 7,-76 23,-109 15,-33 38,-62 68,-86 31,-25 78,-47 142,-66 64,-19 142,-33 233,-41zm0 146c-66,12 -113,23 -140,35 -28,11 -47,25 -59,43 -11,17 -17,35 -17,53 0,24 7,43 22,59 16,16 36,24 62,24 17,0 36,-5 58,-15 22,-10 47,-25 74,-44l0 -155z"/>
    <path class="fil57" d="M5603 10929l0 1026c0,41 2,65 5,74 3,9 9,15 16,19 8,4 28,6 60,6l37 0 0 174 -344 13 0 -92c-50,37 -94,63 -131,77 -38,15 -76,22 -113,22 -61,0 -117,-18 -169,-55 -51,-37 -93,-91 -125,-164 -33,-72 -49,-152 -49,-240 0,-90 16,-170 50,-243 33,-73 76,-127 130,-164 53,-37 113,-56 178,-56 34,0 67,5 98,14 31,9 65,25 103,48l0 -212 -117 0 0 -170c66,-8 119,-17 161,-28 41,-11 85,-27 133,-49l77 0zm-254 1043l0 -293c0,-37 -2,-63 -7,-78 -6,-21 -21,-40 -43,-57 -23,-16 -48,-24 -76,-24 -28,0 -55,9 -80,28 -24,19 -43,48 -58,87 -14,39 -21,88 -21,147 0,80 16,145 48,195 25,38 59,57 100,57 18,0 36,-3 52,-10 16,-7 45,-24 85,-52z"/>
    <path class="fil57" d="M3555 12498c-20,57 -32,99 -37,124l-30 -2c0,-39 0,-61 -1,-66 -2,-14 -7,-25 -14,-32 -8,-7 -18,-12 -29,-15 -11,-3 -22,-5 -32,-5 -52,0 -97,27 -134,82 -38,54 -57,113 -57,178 0,36 9,65 26,87 18,21 42,32 74,32 20,0 40,-4 61,-12 20,-8 46,-23 78,-45l20 27c-70,60 -138,90 -205,90 -49,0 -87,-15 -114,-46 -27,-31 -40,-70 -40,-116 0,-53 13,-104 40,-153 26,-49 63,-87 108,-116 46,-28 96,-43 150,-43 43,0 88,11 136,31zm246 135c-11,26 -21,53 -31,82l-20 -1c-3,-6 -6,-9 -11,-9 -8,0 -18,7 -28,20 -12,13 -24,31 -39,55 -15,23 -25,41 -30,54 -5,12 -15,40 -29,85 -2,5 -3,8 -3,9 -34,0 -61,1 -80,3 45,-130 67,-202 67,-215 0,-6 -2,-9 -6,-9 -5,0 -16,7 -34,22l-14 -15c28,-28 53,-50 75,-65 23,-16 39,-24 50,-24 10,0 15,6 15,18 0,11 -1,20 -4,29l-43 117 1 2c36,-69 63,-114 80,-134 18,-21 37,-32 57,-32 7,0 16,3 27,8zm189 -8c27,0 48,9 62,25 15,16 22,40 22,71 0,38 -9,73 -27,107 -18,33 -42,60 -72,79 -31,20 -61,30 -93,30 -26,0 -47,-9 -63,-27 -15,-18 -23,-42 -23,-72 0,-35 9,-69 27,-103 18,-33 43,-60 73,-80 30,-20 62,-30 94,-30zm-81 282c21,0 40,-22 59,-66 18,-44 28,-87 28,-129 0,-37 -12,-56 -35,-56 -23,0 -42,24 -60,71 -17,47 -25,87 -25,120 0,18 3,33 9,44 5,11 14,16 24,16zm431 -262c-10,27 -18,49 -22,67l-22 0c-4,-40 -20,-60 -49,-60 -10,0 -18,3 -24,8 -7,5 -10,12 -10,19 0,7 2,14 7,22 5,8 16,20 33,36 37,36 56,68 56,96 0,27 -13,51 -38,72 -26,21 -59,32 -100,32 -32,0 -60,-9 -84,-26 13,-24 23,-47 33,-68l16 3c1,19 7,32 19,41 12,9 26,13 43,13 12,0 22,-3 29,-9 6,-7 10,-14 10,-22 0,-17 -13,-39 -38,-65 -25,-28 -41,-47 -46,-57 -5,-11 -8,-22 -8,-32 0,-25 11,-46 33,-63 22,-18 49,-27 82,-27 27,0 54,7 80,20zm247 0c-10,27 -17,49 -22,67l-21 0c-4,-40 -21,-60 -50,-60 -10,0 -17,3 -24,8 -7,5 -10,12 -10,19 0,7 3,14 7,22 5,8 16,20 33,36 37,36 56,68 56,96 0,27 -13,51 -38,72 -26,21 -59,32 -100,32 -32,0 -60,-9 -84,-26 13,-24 24,-47 33,-68l16 3c1,19 8,32 20,41 12,9 26,13 42,13 13,0 22,-3 29,-9 7,-7 10,-14 10,-22 0,-17 -13,-39 -37,-65 -26,-28 -41,-47 -47,-57 -5,-11 -8,-22 -8,-32 0,-25 11,-46 33,-63 22,-18 49,-27 82,-27 27,0 54,7 80,20zm293 -12c-12,26 -22,53 -32,82l-20 -1c-2,-6 -6,-9 -11,-9 -8,0 -17,7 -28,20 -11,13 -24,31 -39,55 -15,23 -25,41 -30,54 -5,12 -15,40 -29,85 -1,5 -2,8 -3,9 -34,0 -60,1 -80,3 45,-130 68,-202 68,-215 0,-6 -3,-9 -7,-9 -4,0 -16,7 -34,22l-14 -15c28,-28 53,-50 76,-65 22,-16 38,-24 49,-24 10,0 16,6 16,18 0,11 -2,20 -5,29l-43 117 1 2c36,-69 63,-114 80,-134 18,-21 37,-32 57,-32 7,0 16,3 28,8zm189 -8c26,0 47,9 62,25 14,16 22,40 22,71 0,38 -9,73 -28,107 -18,33 -42,60 -72,79 -30,20 -61,30 -93,30 -26,0 -47,-9 -62,-27 -16,-18 -24,-42 -24,-72 0,-35 9,-69 27,-103 19,-33 43,-60 73,-80 30,-20 62,-30 95,-30zm-82 282c21,0 41,-22 59,-66 19,-44 28,-87 28,-129 0,-37 -12,-56 -34,-56 -23,0 -43,24 -60,71 -18,47 -26,87 -26,120 0,18 3,33 9,44 6,11 14,16 24,16zm513 -265c-18,37 -34,79 -48,128 -14,49 -21,77 -21,85 0,6 2,9 6,9 6,0 19,-8 39,-26l14 16c-27,27 -52,48 -75,62 -23,14 -39,21 -50,21 -12,0 -18,-5 -18,-16 0,-11 5,-31 14,-59 1,-2 4,-8 7,-19l-1 -1c-27,33 -49,57 -68,72 -18,15 -35,23 -50,23 -17,0 -30,-8 -39,-24 -9,-15 -14,-36 -14,-62 0,-56 21,-108 64,-155 43,-47 96,-71 158,-71 8,0 28,2 58,4 8,1 15,1 20,1l4 12zm-89 27c-12,-6 -22,-9 -31,-9 -25,0 -48,18 -70,56 -22,37 -33,75 -33,113 0,25 7,37 22,37 11,0 26,-10 44,-30 19,-19 39,-66 60,-140l8 -27zm493 -202c-45,111 -78,202 -97,272 -19,71 -29,109 -29,115 0,6 3,10 8,10 6,0 18,-9 38,-26l13 15c-24,27 -49,48 -73,62 -25,15 -42,22 -52,22 -5,0 -9,-1 -13,-4 -3,-3 -5,-8 -5,-13 0,-6 7,-31 20,-75l-1 -2c-47,63 -86,94 -117,94 -16,0 -29,-7 -40,-23 -10,-15 -15,-37 -15,-66 0,-57 19,-108 57,-154 39,-46 83,-69 133,-69 11,0 23,4 37,10 21,-63 31,-99 31,-109 0,-7 -4,-10 -13,-10 -8,0 -18,2 -30,4l6 -24c40,-6 83,-20 128,-42l14 13zm-148 212c-15,-12 -29,-18 -42,-18 -25,0 -46,19 -64,56 -18,38 -27,74 -27,108 0,27 8,40 23,40 15,0 32,-12 51,-37 19,-25 39,-74 59,-149zm357 -34c-11,27 -18,49 -23,67l-21 0c-4,-40 -21,-60 -50,-60 -9,0 -17,3 -24,8 -7,5 -10,12 -10,19 0,7 3,14 8,22 5,8 15,20 32,36 38,36 56,68 56,96 0,27 -13,51 -38,72 -26,21 -59,32 -99,32 -33,0 -61,-9 -84,-26 12,-24 23,-47 32,-68l16 3c1,19 8,32 20,41 12,9 26,13 42,13 13,0 22,-3 29,-9 7,-7 10,-14 10,-22 0,-17 -12,-39 -37,-65 -26,-28 -41,-47 -46,-57 -6,-11 -9,-22 -9,-32 0,-25 11,-46 33,-63 22,-18 50,-27 82,-27 28,0 54,7 81,20z"/>
    <path class="fil57" d="M6507 12625c26,0 45,9 59,25 15,16 21,40 21,71 0,38 -8,73 -26,107 -17,33 -40,60 -69,79 -29,20 -58,30 -89,30 -24,0 -44,-9 -59,-27 -15,-18 -23,-42 -23,-72 0,-35 9,-69 26,-103 18,-33 41,-60 70,-80 29,-20 59,-30 90,-30zm-78 282c20,0 39,-22 57,-66 17,-44 26,-87 26,-129 0,-37 -11,-56 -33,-56 -21,0 -40,24 -57,71 -16,47 -24,87 -24,120 0,18 2,33 8,44 6,11 14,16 23,16zm512 -434c-7,13 -15,34 -23,64 0,1 -1,5 -3,10l-26 -3c0,-40 -11,-59 -35,-59 -13,0 -26,8 -36,25 -11,17 -25,59 -42,126 35,0 58,0 70,-2l3 7c-7,11 -13,22 -17,33 -12,-3 -34,-5 -64,-5l-58 230c-16,62 -39,106 -71,131 -32,25 -61,37 -89,37 -18,0 -37,-6 -58,-19 12,-17 22,-35 32,-56l10 0c6,12 13,21 21,27 8,5 16,8 23,8 13,0 24,-9 32,-26 9,-18 17,-44 25,-81l60 -251c-20,0 -34,1 -43,3l7 -24c15,-4 30,-10 44,-16 11,-46 21,-78 31,-96 10,-17 29,-36 55,-54 26,-19 54,-28 84,-28 24,0 47,6 68,19z"/>
   </g>
   <path class="fil65" d="M43239 16228c3,-497 56,-303 -160,-654 -96,-154 -200,-407 -141,-573 250,33 53,52 295,501 194,-293 -344,-912 -80,-1264 232,70 27,122 192,656l255 -987c163,14 137,70 249,65 101,-165 85,-267 268,-268 60,139 -123,358 -191,432 -191,207 -143,210 -155,589 259,-161 161,-384 417,-384 51,325 -408,524 -447,782 -44,300 11,923 33,1245 294,34 967,209 1244,-467 269,-656 -277,-794 -423,-1239 201,-357 847,-345 803,-825 -56,-613 -666,-601 -789,-880 -155,-349 369,-780 -92,-1335 -270,-325 -765,-556 -1150,-97 -373,446 108,1071 -308,1364 -190,135 -346,130 -501,342 -396,542 94,853 61,1301 -22,299 -358,801 66,1351 127,164 381,256 554,345z"/>
   <path class="fil66" d="M43239 16228c1,429 39,825 141,1227 26,106 51,212 81,303l589 0c-3,-270 -224,-904 -276,-1390 -22,-322 -77,-945 -33,-1245 39,-258 498,-457 447,-782 -256,0 -158,223 -417,384 12,-379 -36,-382 155,-589 68,-74 251,-293 191,-432 -183,1 -167,103 -268,268 -112,5 -86,-51 -249,-65l-255 987c-165,-534 40,-586 -192,-656 -264,352 274,971 80,1264 -242,-449 -45,-468 -295,-501 -59,166 45,419 141,573 216,351 163,157 160,654z"/>
   <path class="fil67" d="M45460 16211c-6,-131 2,-54 28,-81 166,60 163,132 357,166 -44,-329 -209,-432 -349,-550 26,-17 -10,-18 52,-22 0,0 63,9 64,10l2 -174c283,82 200,648 473,540 52,-63 35,-19 52,-110l-7 -423 87 104c43,-167 25,-283 156,-342 80,325 -104,454 -97,726 179,-8 65,-68 240,-146 2,136 -54,214 -90,319 615,-139 1108,-1213 632,-1765 -180,-10 -63,61 -150,25 -59,-157 12,-1036 -373,-1154 -17,133 20,184 -43,298 -86,-28 -25,32 -93,-87 -20,-34 -46,-107 -66,-153 -245,-563 -526,-1166 -946,-137 -98,239 -101,536 -184,703 -79,-27 -9,0 -59,-40 -89,-71 54,8 -62,-56 -75,149 -166,321 -190,535 -29,264 80,415 70,699 -148,-47 -69,-71 -234,-78 -39,519 405,1055 730,1193z"/>
   <path class="fil66" d="M45460 16211c123,202 284,116 468,232 72,234 -117,989 -102,1352l501 -36c-57,-200 -185,-1163 -141,-1278 14,-37 215,-229 242,-253 36,-105 92,-183 90,-319 -175,78 -61,138 -240,146 -7,-272 177,-401 97,-726 -131,59 -113,175 -156,342l-87 -104 7 423c-17,91 0,47 -52,110 -273,108 -190,-458 -473,-540l-2 174c-1,-1 -64,-10 -64,-10 -62,4 -26,5 -52,22 140,118 305,221 349,550 -194,-34 -191,-106 -357,-166 -26,27 -34,-50 -28,81z"/>
  </g>
 </g>
</svg>
