<?xml version="1.0" encoding="UTF-8"?>
<!DOCTYPE svg PUBLIC "-//W3C//DTD SVG 1.1//EN" "http://www.w3.org/Graphics/SVG/1.1/DTD/svg11.dtd">
<!-- Creator: CorelDRAW X8 -->
<svg xmlns="http://www.w3.org/2000/svg" xml:space="preserve" width="4879px" height="1956px" version="1.1" style="shape-rendering:geometricPrecision; text-rendering:geometricPrecision; image-rendering:optimizeQuality; fill-rule:evenodd; clip-rule:evenodd"
viewBox="0 0 48792 19559"
 xmlns:xlink="http://www.w3.org/1999/xlink">
 <defs>
  <style type="text/css">
   <![CDATA[
    .str0 {stroke:#373435;stroke-width:41.6561}
    .str2 {stroke:#313131;stroke-width:41.6561}
    .str1 {stroke:#424242;stroke-width:20.8339}
    .str3 {stroke:black;stroke-width:8.9997}
    .str4 {stroke:#B5EEFF;stroke-width:8.9997}
    .str5 {stroke:#E6E6E6;stroke-width:8.9997}
    .fil16 {fill:none}
    .fil12 {fill:#373435}
    .fil18 {fill:#EFB783}
    .fil33 {fill:#0B3859}
    .fil68 {fill:#0C5B24}
    .fil61 {fill:#1049B4}
    .fil63 {fill:#1049B4}
    .fil46 {fill:#121710}
    .fil21 {fill:#1369B6}
    .fil53 {fill:#1B1B1C}
    .fil29 {fill:#1C1C1C}
    .fil25 {fill:#20547B}
    .fil6 {fill:#313131}
    .fil28 {fill:#33322E}
    .fil34 {fill:#333333}
    .fil24 {fill:#362D24}
    .fil26 {fill:#3689BB}
    .fil20 {fill:#3890D0}
    .fil67 {fill:#402810}
    .fil9 {fill:#424242}
    .fil5 {fill:#464646}
    .fil13 {fill:#4A4A4A}
    .fil38 {fill:#4D4D4D}
    .fil37 {fill:#525252}
    .fil14 {fill:#5C707B}
    .fil69 {fill:#63795B}
    .fil65 {fill:#666666}
    .fil15 {fill:#71848B}
    .fil7 {fill:#757575}
    .fil54 {fill:#767B7F}
    .fil30 {fill:#797977}
    .fil48 {fill:#7A838A}
    .fil40 {fill:gray}
    .fil70 {fill:#82916A}
    .fil66 {fill:#85946D}
    .fil64 {fill:#94A980}
    .fil55 {fill:#99A3AC}
    .fil49 {fill:#9CADB7}
    .fil56 {fill:#AAB5C5}
    .fil52 {fill:#ADBACA}
    .fil36 {fill:#B5EEFF}
    .fil22 {fill:#B96F48}
    .fil58 {fill:#BABABA}
    .fil51 {fill:#BACADA}
    .fil45 {fill:#C1C2C9}
    .fil17 {fill:#C1CFCF}
    .fil31 {fill:#C77066}
    .fil3 {fill:#C8382F}
    .fil10 {fill:#CACACA}
    .fil35 {fill:#CCCCCC}
    .fil44 {fill:#CDCED3}
    .fil60 {fill:#CFB175}
    .fil50 {fill:#D2D7DD}
    .fil4 {fill:#DF7E77}
    .fil2 {fill:#DFE9EB}
    .fil32 {fill:#E09474}
    .fil43 {fill:#E0E7ED}
    .fil39 {fill:#E6E6E6}
    .fil41 {fill:#E6EEF1}
    .fil19 {fill:#EC9956}
    .fil27 {fill:#ECB31E}
    .fil23 {fill:#EDD89F}
    .fil11 {fill:#EFEFEF}
    .fil42 {fill:#F1FAFF}
    .fil0 {fill:#F2F2F2}
    .fil47 {fill:#F2FBFF}
    .fil8 {fill:white}
    .fil57 {fill:white}
    .fil62 {fill:white}
    .fil1 {fill:#E6E6E6;fill-rule:nonzero}
    .fil59 {fill:#BABABA}
   ]]>
  </style>
    <mask id="id0">
  <linearGradient id="id1" gradientUnits="userSpaceOnUse" x1="25617.3" y1="16060.5" x2="30445.5" y2="16060.5">
   <stop offset="0" style="stop-opacity:0; stop-color:white"/>
   <stop offset="1" style="stop-opacity:1; stop-color:white"/>
  </linearGradient>
     <rect style="fill:url(#id1)" x="25607" y="14748" width="4849" height="2625"/>
    </mask>
 </defs>
 <g id="Слой_x0020_1">
  <metadata id="CorelCorpID_0Corel-Layer"/>
  <g id="_2038595166848">
   <polygon class="fil0" points="2,0 48792,0 48792,19559 2,19559 "/>
   <polygon class="fil1" points="2,14554 2,13700 2,10885 253,10885 253,13058 788,13058 788,10570 1134,10570 1747,10013 1747,11085 1982,11085 1982,8597 2674,8597 2674,8025 3177,8025 3177,7282 4707,7282 4707,8158 5210,8616 5210,12315 5880,12315 5880,10275 6111,10065 6111,8673 6320,8673 6320,10065 6614,10332 6614,12391 7033,12391 7033,10217 7243,10217 7243,9893 7599,9893 8070,9464 8070,8921 8374,8921 8374,9436 8647,9436 8647,8902 9171,8902 9171,9474 9579,9846 9579,10713 9820,10713 9820,10408 10030,10408 10030,10751 10323,11018 10323,11438 10659,11438 10659,7491 12880,7491 12880,9874 13593,10522 13593,11476 13907,11476 13907,10808 14169,10570 15039,10570 15039,10828 15563,10828 16139,11352 16139,10713 16637,10260 19041,10260 19041,10427 18685,10427 18685,10999 19345,11600 19345,10828 19607,10828 19607,12181 19880,12181 19880,11419 20467,11419 20467,12448 20990,12448 20990,10522 21598,9970 22175,10494 22175,12086 22609,11690 22609,10503 22939,10503 22939,8749 23903,8749 23903,11094 24370,10670 25203,10670 25708,11130 25708,10198 26628,10198 26628,10389 27487,10389 27487,12315 27801,12315 27801,11114 28116,11114 28116,10237 28514,10237 28514,12124 28912,12124 28912,8826 29164,8826 29164,8578 31259,8902 31259,11152 31595,11152 31595,10275 32161,10275 32161,10008 32538,10008 32538,9741 33397,9741 33397,9169 34068,9169 34068,10217 34508,10217 34508,8959 35095,8959 35095,8502 35430,8502 35430,8940 35954,8940 37211,7796 37211,10980 37609,10980 37609,10256 38259,9665 38636,9665 38636,10408 39181,10408 39181,8254 39642,8254 39642,8063 40397,8063 40397,8311 40879,8311 40879,9417 41937,10380 41937,11256 42304,11256 42304,10351 42912,9798 42912,8120 43226,8120 43226,7453 43750,7453 43750,6900 43938,6900 43938,6462 44148,6462 44148,6900 44567,6900 44567,8197 45741,8197 45741,11094 46244,11094 46244,11838 47061,11094 47061,11876 47564,11876 47564,9455 48790,9455 48790,13700 48792,13700 48792,19559 48790,19559 2,19559 "/>
   <g>
    <path class="fil2" d="M22407 15887c49,2 131,5 187,3 57,-2 88,-7 106,-15 18,-7 23,-17 15,-33 -9,-16 -29,-40 -58,-70 -29,-31 -67,-68 -105,-100 -38,-32 -77,-57 -116,-81 -40,-25 -79,-48 -116,-69 -37,-20 -72,-38 -106,-53 -35,-15 -69,-27 -94,-35 -24,-8 -39,-11 -57,-13 -18,-1 -40,-1 -68,-1 -28,0 -61,1 -85,5 -24,3 -39,10 -50,18 -11,8 -18,18 -19,35 0,17 5,41 23,71 18,30 48,65 83,100 34,34 73,68 117,102 44,34 93,69 138,91 45,22 86,31 114,37 28,5 43,6 91,8z"/>
    <path class="fil3" d="M16211 13496l402 0c34,0 62,28 62,62l0 437c0,34 -28,62 -62,62l-402 0c-34,0 -62,-28 -62,-62l0 -437c0,-34 28,-62 62,-62z"/>
    <polygon class="fil4" points="16220,13496 16603,13496 16603,13784 16220,13784 "/>
    <path class="fil5" d="M11426 15219c-16,-13 -21,-40 -24,-70 -2,-29 -2,-60 3,-88 5,-28 15,-53 28,-73 13,-19 29,-33 48,-43 19,-10 41,-15 190,-17 149,-2 425,-1 569,-1 144,-1 156,-4 256,-43 100,-39 289,-114 521,-205 233,-92 509,-198 781,-294 272,-96 540,-180 775,-242 234,-61 434,-98 625,-128 190,-29 369,-50 543,-62 95,-7 187,-11 283,-13 -1,-2 -1,-4 -1,-6l0 0c0,-36 30,-66 67,-66l617 0c36,0 66,30 66,66l0 0c0,8 -1,16 -4,23 30,2 60,5 90,8 194,20 375,52 551,94 176,42 346,92 519,159 173,67 349,151 528,250 178,100 359,216 522,322 162,106 307,202 379,251 73,48 73,48 73,48 0,0 0,0 0,0 0,0 0,0 347,38 348,39 1043,115 1481,173 437,57 617,95 707,114 89,18 89,18 89,18 0,0 0,0 -30,0 -31,0 -92,0 -124,10 -33,10 -37,30 -19,71 19,41 59,103 109,157 50,54 110,100 165,134 54,33 104,56 196,66 93,10 228,9 296,8 68,0 68,0 68,0 0,0 0,0 0,0 0,0 0,0 10,19 10,20 31,59 39,120 8,61 3,145 0,186 -3,42 -3,42 -3,42 0,0 0,0 7,0 6,0 19,0 26,0 7,0 7,0 7,0 0,0 0,0 0,49 0,49 0,146 0,195 0,49 0,49 0,49 0,0 0,0 0,0 0,0 0,0 -6,-1 -6,-2 -18,-4 -24,-6 -6,-1 -6,-1 -6,-1 0,0 0,0 0,0 0,0 0,0 0,35 0,35 0,106 -4,161 -3,55 -11,96 -24,131 -13,35 -32,65 -54,89 -22,24 -48,42 -82,58 -34,16 -75,29 -187,42 -111,13 -292,26 -382,32 -91,7 -91,7 -91,7 0,0 0,0 -13,-7 -14,-6 -42,-19 -55,-26 -14,-6 -14,-6 -14,-6 0,0 0,0 -10,0 -11,1 -32,2 -42,3 -10,1 -10,1 -284,10 -275,9 -823,27 -1097,36 -274,9 -274,9 -274,9 0,0 0,0 -2,7 -3,8 -8,22 -11,29 -2,7 -2,7 -2,7 0,0 0,0 -935,-10 -934,-11 -2802,-31 -3774,-44 -971,-12 -1045,-16 -1082,-18 -37,-2 -37,-2 -280,-6 -242,-5 -726,-14 -1059,-27 -332,-13 -513,-30 -747,-56 -233,-25 -518,-59 -685,-82 -167,-24 -217,-37 -257,-54 -39,-18 -69,-40 -89,-63 -19,-23 -28,-46 -28,-180 0,-134 9,-379 18,-514 9,-134 18,-159 56,-205 39,-45 107,-112 209,-203 102,-91 239,-207 314,-281 74,-73 87,-104 87,-130 -1,-25 -15,-45 -47,-59 -32,-14 -81,-23 -141,-20 -60,3 -131,19 -179,27 -49,9 -77,10 -93,-3z"/>
    <path class="fil6" d="M22281 15858c21,5 44,9 71,12l13 1 0 1 -688 214 0 -39 604 -189z"/>
    <path class="fil6" d="M11325 15835c10,-10 21,-21 33,-33l1180 198 356 180 -20 35 -367 -184 -1182 -196z"/>
    <path class="fil7" d="M21879 15454c-11,12 -9,30 3,59 19,41 59,103 109,157 26,29 56,55 85,78l8 8c0,0 0,0 -93,-2 -93,-2 -278,-7 -370,-9 -93,-2 -93,-2 -93,-2 0,0 0,0 -27,-13 -26,-13 -79,-39 -133,-56 -55,-18 -111,-28 -179,-35 -69,-7 -150,-12 -223,-6 -72,5 -137,20 -186,33 -49,13 -83,25 -99,31 -17,5 -17,5 -17,5 0,0 0,0 -171,-4 -172,-4 -515,-12 -686,-16 -172,-4 -172,-4 -172,-4 0,0 0,0 0,0 0,0 0,0 -11,-35 -12,-35 -35,-106 -61,-171 -27,-66 -57,-127 -94,-183 -36,-56 -79,-106 -100,-131 -22,-26 -22,-26 -22,-26 0,0 0,0 66,4 66,4 198,11 345,20 147,9 310,19 480,35 170,15 347,36 517,58 170,22 335,45 488,70 153,24 295,51 412,78 94,21 172,43 224,57z"/>
    <path class="fil3" d="M11515 15153c56,-7 139,-12 201,-13 62,0 102,3 137,14 36,10 66,27 88,48 22,21 36,46 43,60 7,14 7,18 2,28 -6,10 -18,25 -54,57 -37,32 -98,80 -164,134 -66,53 -136,112 -194,159 -59,46 -106,82 -141,108 -35,27 -59,45 -70,54 -12,9 -12,9 -12,9 0,0 0,0 6,-97 6,-98 17,-293 26,-399 8,-106 13,-123 30,-136 17,-12 46,-20 102,-26z"/>
    <path class="fil8" d="M11980 15253c1,3 3,6 4,9 7,14 7,18 2,28 -5,8 -15,21 -41,45l-564 0 2 -20c2,-26 4,-46 5,-62l592 0zm-337 330c-24,20 -48,39 -69,57 -12,8 -22,17 -33,25l-181 0 5 -82 278 0z"/>
    <path class="fil9" d="M13642 15835c491,0 890,398 890,890 0,492 -399,891 -890,891 -492,0 -891,-399 -891,-891 0,-492 399,-890 891,-890z"/>
    <path class="fil10 str0" d="M13642 16100c345,0 625,280 625,625 0,345 -280,625 -625,625 -346,0 -625,-280 -625,-625 0,-345 279,-625 625,-625z"/>
    <path class="fil11" d="M16726 15119c14,59 40,165 64,296 24,132 46,290 59,469 12,180 15,382 13,513 -1,27 -1,52 -2,74l-1701 0 3 24 1697 -3c-2,37 -4,66 -7,92l-1690 0 0 67 1681 0c-10,61 -22,124 -29,156 -6,32 -6,32 -6,32 0,0 0,0 0,0 0,0 0,0 -297,0 -297,0 -891,0 -1188,0 -297,0 -297,0 -297,0 0,0 0,0 0,0 0,0 0,0 -28,-70 -28,-70 -83,-209 -188,-408 -105,-199 -259,-459 -402,-681 -143,-223 -276,-409 -351,-514 -75,-105 -92,-128 -86,-140 5,-12 32,-12 487,-5 455,6 1338,19 1785,23 446,3 457,-4 462,0 6,3 8,16 21,75zm77 63c16,75 44,200 65,338 20,138 35,289 42,408 7,119 7,206 5,313 -1,72 -3,153 -8,230l2663 0c2,-20 3,-40 4,-61 8,-176 6,-385 -3,-542 -8,-157 -22,-261 -53,-352 -31,-91 -78,-170 -126,-232 -49,-63 -100,-109 -125,-133 -26,-23 -26,-23 -26,-23 0,0 0,0 0,0 0,0 0,0 0,0 0,0 0,0 -411,-12 -410,-12 -1232,-35 -1643,-47 -411,-12 -411,-12 -411,-12 0,0 0,0 3,13 3,12 8,37 24,112zm103 1310c-2,29 -4,58 -7,85l0 7 2662 0c3,-30 6,-63 8,-97l-2663 5zm-15 159c-9,67 -19,118 -25,148 -8,40 -8,40 -8,40 0,0 0,0 0,0 0,0 0,0 445,4 445,5 1334,14 1779,18 444,5 444,5 444,5 0,0 0,0 0,0 0,0 0,0 10,-70 5,-34 12,-84 19,-145l-2664 0z"/>
    <polygon class="fil10" points="14343,15207 14929,15207 14929,15338 14343,15338 "/>
    <polygon class="fil12" points="14423,15251 14849,15251 14849,15294 14423,15294 "/>
    <polygon class="fil10" points="16976,15254 17562,15254 17562,15385 16976,15385 "/>
    <polygon class="fil12" points="17057,15298 17482,15298 17482,15341 17057,15341 "/>
    <polygon class="fil13" points="13501,17239 13796,17239 13654,16852 "/>
    <polygon class="fil13" points="13156,16891 13315,17140 13564,16810 "/>
    <polygon class="fil13" points="14137,16891 13978,17140 13729,16811 "/>
    <polygon class="fil13" points="14091,16427 14193,16704 13780,16703 "/>
    <polygon class="fil13" points="13198,16425 13096,16702 13509,16701 "/>
    <polygon class="fil13" points="13984,16303 13714,16185 13690,16597 "/>
    <polygon class="fil13" points="13291,16303 13561,16185 13585,16597 "/>
    <path class="fil14" d="M14099 14975c159,8 450,8 595,8 145,0 145,0 145,0 0,0 0,0 0,0 0,0 0,0 -21,-128 -22,-128 -65,-385 -86,-513 -22,-128 -22,-128 -22,-128 0,0 0,0 0,0 0,0 0,0 -75,21 -75,20 -224,62 -337,98 -113,36 -188,66 -251,99 -62,33 -112,69 -148,109 -37,40 -60,83 -71,128 -11,46 -10,94 2,139 12,45 34,87 59,115 24,29 52,45 210,52z"/>
    <path class="fil15" d="M14565 14983c49,0 93,0 129,0 145,0 145,0 145,0 0,0 0,0 0,0 0,0 0,0 -21,-128 -22,-128 -65,-385 -86,-513 -22,-128 -22,-128 -22,-128 0,0 0,0 0,0 0,0 0,0 -75,21 -75,20 -224,62 -337,98 -70,22 -126,42 -173,62l440 588z"/>
    <path class="fil14" d="M14826 14381c23,131 65,367 87,484 21,118 22,118 23,118 1,0 1,0 1,0 0,0 0,0 255,3 255,4 765,10 1021,14 255,3 255,3 255,3 0,0 0,0 0,0 0,0 0,0 -14,-164 -15,-163 -43,-490 -58,-653 -14,-164 -14,-164 -14,-164 0,0 0,0 0,0 0,0 0,0 -81,4 -82,3 -245,9 -416,20 -172,11 -353,27 -517,48 -164,21 -312,47 -405,65 -93,18 -132,29 -151,34 -20,5 -20,5 -20,5 0,0 0,0 3,13 2,13 8,39 31,170z"/>
    <path class="fil15" d="M14826 14381c23,131 65,367 87,484 21,118 22,118 23,118 1,0 1,0 1,0 0,0 0,0 255,3l321 5 -640 -813c-32,7 -50,12 -61,15 -20,5 -20,5 -20,5 0,0 0,0 3,13 2,13 8,39 31,170z"/>
    <path class="fil14" d="M16727 14370c61,156 155,394 202,514 47,119 47,119 47,119 0,0 0,0 0,0 0,0 0,0 0,0 0,0 0,0 290,4 290,4 871,11 1161,15 291,4 291,4 291,4 0,0 0,0 0,0 0,0 0,0 0,-36 0,-37 0,-110 -1,-148 -1,-38 -2,-42 -2,-44 -1,-2 -1,-2 -1,-2 0,0 0,0 -33,-30 -34,-29 -100,-87 -202,-154 -102,-66 -240,-140 -399,-211 -158,-71 -336,-139 -487,-184 -150,-45 -272,-67 -395,-87 -123,-19 -247,-36 -345,-46 -99,-11 -172,-15 -208,-17 -37,-2 -37,-2 -22,35 14,38 43,112 104,268z"/>
    <path class="fil15" d="M18718 14942c0,-35 0,-75 -1,-100 -1,-38 -2,-42 -2,-44 -1,-2 -1,-2 -1,-2 0,0 0,0 -33,-30 -34,-29 -100,-87 -202,-154 -62,-40 -137,-83 -221,-126l460 456z"/>
    <path class="fil15" d="M16727 14370l35 90 536 547 1023 14 -796 -824c-120,-32 -224,-50 -327,-67 -123,-19 -247,-36 -345,-46 -99,-11 -172,-15 -208,-17 -37,-2 -37,-2 -22,35 14,38 43,112 104,268z"/>
    <path class="fil7" d="M13493 15005l-2064 -10c-11,18 -20,41 -24,66 -5,25 -5,52 -4,78 57,-9 124,-19 180,-26 89,-10 150,-11 201,-6 51,5 91,17 122,30 30,14 51,30 69,48 17,18 31,39 41,60 9,21 13,42 12,57 -1,16 -6,26 -8,31l-3 6 92 21c93,22 278,65 424,87 147,23 255,26 531,30 276,5 720,11 942,15l222 3 -52 -82 -209 -325 -52 -81 -420 -2z"/>
    <path class="fil12" d="M13642 15757c-535,0 -969,433 -969,968 0,106 17,207 48,302 27,2 55,4 84,5 -35,-95 -54,-199 -54,-307 0,-492 399,-890 891,-890 491,0 890,398 890,890 0,126 -26,245 -73,354 23,0 50,1 84,1 43,-110 67,-229 67,-355 0,-535 -433,-968 -968,-968z"/>
    <path class="fil9" d="M21040 15843c492,0 890,398 890,890 0,492 -398,891 -890,891 -492,0 -891,-399 -891,-891 0,-492 399,-890 891,-890z"/>
    <path class="fil10 str0" d="M21040 16108c345,0 625,280 625,625 0,345 -280,625 -625,625 -345,0 -625,-280 -625,-625 0,-345 280,-625 625,-625z"/>
    <polygon class="fil13" points="20899,17246 21194,17247 21052,16859 "/>
    <polygon class="fil13" points="20554,16899 20713,17148 20962,16818 "/>
    <polygon class="fil13" points="21536,16899 21376,17148 21127,16818 "/>
    <polygon class="fil13" points="21489,16435 21591,16712 21178,16711 "/>
    <polygon class="fil13" points="20596,16433 20494,16710 20907,16709 "/>
    <polygon class="fil13" points="21383,16311 21112,16193 21088,16605 "/>
    <polygon class="fil13" points="20689,16311 20960,16193 20984,16605 "/>
    <path class="fil12" d="M21040 15764c-535,0 -969,434 -969,969 0,76 9,149 25,219 3,15 6,30 9,42 6,21 11,37 17,52 5,14 11,27 16,37 5,9 10,16 14,22l1 -1 75 -2c-5,-15 -14,-40 -24,-68 -11,-32 -23,-69 -32,-106 -5,-22 -10,-43 -13,-61 -6,-44 -10,-88 -10,-134 0,-492 399,-890 891,-890 492,0 890,398 890,890 0,126 -26,245 -73,353 23,1 51,2 84,2 44,-110 67,-230 67,-355 0,-535 -433,-969 -968,-969z"/>
    <path class="fil16 str1" d="M13643 16628c44,0 80,36 80,80 0,45 -36,80 -80,80 -44,0 -80,-35 -80,-80 0,-44 36,-80 80,-80z"/>
    <path class="fil16 str1" d="M21049 16644c44,0 80,36 80,80 0,44 -36,80 -80,80 -44,0 -80,-36 -80,-80 0,-44 36,-80 80,-80z"/>
    <path class="fil17" d="M21967 15514c-6,15 16,51 41,85 24,33 52,64 85,94 34,30 74,59 111,81 37,22 71,36 109,46 38,10 79,15 99,17 21,3 21,3 21,3 0,0 0,0 -66,-54 -65,-54 -196,-162 -278,-220 -83,-58 -116,-66 -122,-52z"/>
    <path class="fil2" d="M22559 16549c49,0 88,62 88,138 0,76 -39,138 -88,138 -49,0 -88,-62 -88,-138 0,-76 39,-138 88,-138z"/>
    <path class="fil6" d="M16706 14796c-39,-163 -113,-477 -155,-635 -16,-58 -27,-95 -35,-119 -4,0 -8,-1 -12,-2 -4,-1 -8,-3 -12,-5 4,24 12,63 25,127 34,164 106,492 142,656 36,164 36,164 36,164 0,0 0,0 9,1 9,0 27,2 36,2 9,1 9,1 9,1 0,0 0,0 -1,-7 -1,-6 -4,-19 -42,-183z"/>
    <path class="fil16 str2" d="M16637 14981c-791,-11 -1660,-15 -2121,-19 -461,-5 -514,-10 -553,-20 -38,-10 -61,-24 -80,-41 -19,-17 -33,-36 -45,-63 -11,-27 -18,-61 -17,-98 1,-37 12,-77 30,-116 18,-38 44,-74 79,-107 34,-33 77,-61 134,-89 58,-27 129,-53 240,-88 111,-35 260,-80 415,-119 155,-39 315,-72 470,-97 154,-25 302,-41 478,-55 176,-14 379,-27 537,-31 158,-4 272,1 412,14 140,12 306,31 466,57 159,26 312,59 449,96 137,37 260,79 392,132 132,52 274,116 401,186 127,70 239,145 307,196 67,51 91,77 119,110 28,33 60,73 81,108 21,34 30,63 33,77 2,15 -2,15 -361,6 -359,-10 -1074,-28 -1866,-39z"/>
    <path class="fil5" d="M15331 15594c42,0 82,10 121,28 37,19 68,46 90,81 22,35 33,77 33,128 0,50 -11,93 -33,128 -22,36 -53,63 -90,81 -39,19 -79,28 -121,28l-161 0 0 283 -160 0 0 -757 321 0zm-31 331c35,0 62,-8 81,-25 18,-15 27,-39 27,-69 0,-31 -9,-55 -27,-70 -19,-17 -46,-25 -81,-25l-130 0 0 189 130 0zm1006 51c0,-40 -8,-78 -24,-115 -18,-37 -43,-67 -77,-90 -34,-23 -77,-36 -127,-37 -51,0 -92,12 -125,35 -35,24 -60,54 -76,91 -17,35 -26,74 -26,116 0,42 9,81 26,117 16,36 41,66 76,90 33,23 74,35 125,35 50,-1 93,-14 127,-37 34,-23 59,-53 77,-90 16,-37 24,-75 24,-115zm-227 -396c109,0 203,39 280,116 77,78 116,171 116,281 0,108 -39,201 -116,279 -77,77 -171,116 -280,116 -109,0 -202,-39 -280,-116 -77,-78 -116,-171 -116,-279 0,-110 39,-203 116,-281 78,-77 171,-116 280,-116zm954 772l-449 0 0 -758 160 0 0 616 289 0 0 142zm321 -758l0 758 -160 0 0 -758 160 0zm299 422c3,34 12,64 27,92 19,36 46,64 79,83 33,20 71,29 113,29 45,0 84,-10 118,-31 34,-21 58,-49 74,-84l125 78c-22,59 -62,106 -119,139 -58,33 -123,50 -197,50 -72,0 -137,-16 -196,-48 -60,-31 -107,-76 -141,-135 -35,-59 -52,-129 -52,-211 0,-83 17,-153 52,-212 34,-59 81,-104 141,-135 59,-32 124,-47 196,-47 74,0 139,16 197,49 57,34 97,80 119,140l-125 77c-16,-34 -40,-62 -74,-84 -34,-21 -73,-31 -118,-31 -42,0 -80,10 -113,29 -33,19 -60,47 -79,84 -15,27 -24,57 -27,91 -2,21 -2,47 0,77zm1132 336l-475 0 0 -758 464 0 0 142 -304 0 0 162 272 0 0 140 -272 0 0 173 315 0 0 141z"/>
   </g>
   <g>
    <path class="fil18" d="M23216 13605l179 0c1,-7 3,-13 4,-20 4,-14 7,-28 11,-39 7,-23 15,-39 28,-54 12,-15 30,-29 45,-43 16,-14 29,-28 39,-43 10,-16 17,-32 15,-45 -3,-14 -14,-24 -24,-29 -10,-5 -18,-5 -22,-5 -4,0 -4,0 -5,-55 0,-55 -2,-164 -6,-225 -3,-61 -8,-74 -15,-83 -7,-9 -17,-14 -27,-15 -11,-1 -23,1 -34,7 -10,5 -20,15 -25,43 -5,27 -6,72 -6,94 -1,23 -1,23 -14,26 -14,3 -41,10 -61,16 -19,7 -30,13 -53,18 -23,4 -58,7 -81,10 -23,3 -33,6 -39,38 -5,33 -5,94 -1,142 3,49 9,85 19,113 10,28 24,49 36,68 12,19 23,36 30,54 0,2 1,4 2,6 2,7 4,14 5,21z"/>
    <path class="fil19" d="M23216 13605l46 0c-4,-13 -8,-28 -13,-40 -4,-12 -10,-22 -16,-32 -6,-10 -14,-20 -22,-33 -9,-13 -18,-29 -27,-50 -8,-21 -16,-48 -21,-78 -5,-30 -7,-64 -8,-92 -1,-28 -1,-50 2,-65 3,-15 9,-23 19,-28 9,-5 23,-8 34,-7 12,1 21,5 30,7 9,2 18,1 27,-3 9,-5 18,-12 27,-17 9,-6 18,-9 29,-9 11,1 24,6 34,5 10,-1 17,-7 21,-14 5,-8 7,-18 8,-36 2,-19 3,-46 5,-69 2,-23 5,-42 10,-55 4,-13 10,-21 17,-26 8,-5 17,-7 28,-6 5,0 10,1 15,2 -7,-6 -15,-9 -23,-10 -11,-1 -23,1 -34,7 -10,5 -20,15 -25,43 -5,27 -6,72 -6,94 -1,23 -1,23 -14,26 -14,3 -41,10 -61,16 -19,7 -30,13 -53,18 -23,4 -58,7 -81,10 -23,3 -33,6 -39,38 -5,33 -5,94 -1,142 3,49 9,85 19,113 10,28 24,49 36,68 12,19 23,36 30,54 0,2 1,4 2,6 2,7 4,14 5,21z"/>
    <path class="fil20" d="M23161 13584l0 130c0,131 0,393 5,538 5,145 14,173 29,194 15,21 37,35 130,42 92,8 256,8 338,8l82 0 0 146 -1 592 0 136 101 0c28,0 28,0 28,13 0,6 1,15 1,30 20,3 43,7 68,12 63,11 141,23 251,33 15,1 32,3 48,4l0 -12 63 0c7,28 19,53 36,65 25,18 63,6 93,-6 30,-13 51,-25 69,-52 1,-2 3,-5 4,-7l59 0 0 17c1,0 2,0 2,0l106 0c7,0 14,3 19,7 34,-2 67,-4 98,-6 3,-8 12,-8 46,-7l34 0c33,-3 62,-6 85,-10 24,-3 42,-7 56,-9 9,-5 17,-9 24,-12 0,-56 2,-56 14,-56 7,-1 16,-1 26,0 1,-16 1,-47 1,-129l0 -534 0 -133 42 24 156 87 0 -481c-30,-16 -72,-35 -109,-51 -43,-19 -80,-32 -118,-45 -39,-13 -80,-26 -121,-36 -42,-10 -85,-18 -124,-25 -40,-8 -75,-15 -104,-21 -29,-6 -50,-10 -76,-17 -4,-2 -8,-3 -13,-4 -11,-3 -22,-7 -33,-11l0 -5 0 -49c-1,0 -2,0 -3,1 -4,3 -9,6 -13,9 -16,10 -30,15 -49,19 -20,5 -45,9 -70,11 -26,2 -52,2 -78,0 -26,-3 -52,-7 -72,-12 -19,-5 -31,-11 -41,-17 -5,-2 -9,-5 -13,-8 0,0 -1,0 -1,0l0 51c-5,2 -11,4 -16,7 -8,5 -16,10 -24,16 -30,9 -66,20 -128,33 -84,17 -214,40 -309,55 -96,15 -156,22 -196,26 -40,5 -58,6 -72,6 -13,1 -21,1 -25,1 -5,0 -6,0 -7,-93 -1,-92 -1,-278 -1,-371l0 -92 -49 -1 -10 0 -188 -1 0 0 -50 0z"/>
    <path class="fil21" d="M25077 14579l41 23 156 87 0 -47 -15 -5c-36,-13 -109,-37 -146,-50 -36,-12 -36,-12 -36,-12l0 4z"/>
    <path class="fil21" d="M23161 13584l0 130c0,131 0,393 5,538 5,145 14,173 29,194 15,21 37,35 130,42 92,8 256,8 338,8l80 0c-2,-15 -7,-19 -15,-22 -8,-4 -18,-8 -43,-10 -24,-3 -62,-5 -123,-8 -61,-3 -144,-9 -200,-13 -57,-5 -86,-10 -106,-16 -19,-6 -29,-14 -36,-24 -7,-9 -11,-22 -17,-156 -5,-134 -12,-390 -18,-522 -5,-106 -10,-132 -15,-141l-9 0z"/>
    <polygon class="fil18" points="24236,13921 24576,13921 24576,14028 24434,14156 24386,14156 24236,14017 "/>
    <path class="fil22" d="M24212 13923c-2,3 7,11 15,17 8,6 14,10 23,15 10,6 22,12 41,17 20,5 46,9 72,12 26,2 52,2 78,0 25,-2 50,-6 70,-11 19,-4 33,-9 49,-19 16,-10 34,-25 43,-32 9,-8 9,-8 9,-8 0,0 0,0 -9,2 -8,2 -24,5 -56,9 -32,4 -80,8 -124,9 -45,0 -87,-3 -117,-6 -30,-2 -48,-3 -63,-5 -16,-1 -29,-3 -31,0z"/>
    <path class="fil18" d="M23836 13191c-4,24 -9,57 -11,73 -3,16 -3,16 -3,16 0,0 0,0 -2,0 -2,0 -7,0 -13,2 -6,2 -14,5 -21,13 -8,7 -15,18 -20,35 -4,16 -5,38 -5,57 1,19 4,35 8,49 4,15 10,28 17,37 8,10 17,16 27,20 10,5 21,7 32,8 12,1 24,1 31,1 6,0 6,0 6,0 0,0 0,0 1,24l0 21c2,15 5,32 8,49 4,26 10,50 18,72 7,23 15,45 24,64 8,19 18,35 27,49 10,14 20,26 33,39 13,14 29,29 44,41 16,13 31,22 49,32 17,9 36,19 58,27 22,9 46,16 68,22 22,5 42,9 62,11 19,2 38,2 63,2 25,1 56,1 89,0 33,0 67,-3 100,-5 33,-3 64,-7 93,-13 29,-7 56,-16 81,-29 26,-13 50,-29 70,-44 19,-14 36,-27 50,-44 15,-17 29,-37 42,-58 13,-21 27,-42 39,-66 12,-23 22,-49 30,-75 9,-25 15,-50 19,-73 5,-23 8,-45 9,-56 2,-11 2,-11 2,-11 0,0 0,0 2,1 2,1 7,2 14,2 8,1 19,0 31,-3 2,-1 5,-1 7,-2 4,-2 8,-5 12,-8 10,-10 17,-25 22,-44 4,-20 6,-43 7,-65 1,-22 1,-42 -4,-58 -4,-16 -13,-28 -20,-34 -6,-7 -10,-9 -13,-10 -2,-1 -2,-1 -2,-16 -1,-15 -1,-45 -2,-59 0,-15 0,-15 -1,-36 -1,-20 -3,-60 -8,-90 -6,-30 -15,-49 -52,-65 -37,-16 -102,-29 -208,-36 -106,-7 -253,-8 -373,-5 -120,2 -215,7 -285,14 -71,8 -118,18 -151,33 -32,15 -49,36 -62,60 -13,24 -23,51 -28,72 -6,21 -8,36 -11,59z"/>
    <path class="fil19" d="M23802 13284c-5,2 -11,5 -16,11 -8,7 -15,18 -20,35 -4,16 -5,38 -5,57 1,19 4,35 8,49 4,15 10,28 17,37 8,10 17,16 27,20 10,5 21,7 32,8 12,1 24,1 31,1 6,0 6,0 6,0 0,0 0,0 1,24l0 21c2,15 5,32 8,49 4,26 10,50 18,72 7,23 15,45 24,64 8,19 18,35 27,49 10,14 20,26 33,39 13,14 29,29 44,41 16,13 31,22 49,32 17,9 36,19 58,27 22,9 46,16 68,22 22,5 42,9 62,11 19,2 38,2 63,2 25,1 56,1 89,0 33,0 67,-3 100,-5 33,-3 64,-7 93,-13 29,-7 56,-16 81,-29 26,-13 50,-29 70,-44 19,-14 36,-27 50,-44 15,-17 29,-37 42,-58 13,-21 27,-42 39,-66 12,-23 22,-49 30,-75 9,-25 15,-50 19,-73 5,-23 8,-45 9,-56 2,-11 2,-11 2,-11 0,0 0,0 2,1 2,1 7,2 14,2 8,1 19,0 31,-3 2,-1 5,-1 7,-2 4,-2 8,-5 12,-8 10,-10 17,-25 22,-44 4,-20 6,-43 7,-65 1,-22 1,-42 -4,-58 -4,-16 -13,-28 -20,-34 -2,-3 -4,-5 -6,-6 3,9 6,20 8,32 3,15 4,31 3,50 -1,18 -5,39 -10,56 -5,17 -13,30 -23,39 -10,9 -23,13 -34,15 -10,2 -18,2 -22,1 -4,0 -4,0 -4,0 0,0 0,0 -1,7 -1,6 -4,19 -8,39 -4,19 -10,45 -18,72 -9,27 -20,54 -32,78 -11,23 -24,43 -38,63 -15,21 -32,41 -50,59 -19,18 -37,34 -55,48 -19,14 -36,27 -57,39 -20,12 -43,23 -68,31 -25,9 -51,14 -80,18 -29,4 -61,5 -96,7 -34,1 -71,2 -103,2 -32,-1 -59,-2 -87,-7 -28,-4 -59,-13 -86,-22 -27,-10 -51,-21 -72,-33 -22,-13 -41,-27 -58,-42 -16,-15 -30,-30 -43,-49 -13,-19 -25,-41 -36,-64 -10,-22 -19,-44 -26,-69 -7,-25 -13,-52 -18,-80 -4,-27 -6,-56 -7,-70 -1,-14 -1,-14 -1,-14 0,0 0,0 -8,3 -8,3 -24,8 -37,10 -13,1 -23,-2 -32,-9 -9,-7 -17,-19 -23,-31 -6,-13 -11,-28 -14,-45 -3,-18 -5,-39 -4,-57 1,-18 3,-33 8,-43 3,-6 6,-10 8,-14z"/>
    <path class="fil23" d="M24328 13794c4,5 9,9 14,14 5,4 10,8 15,12 6,3 12,5 19,7 8,2 17,4 26,4 10,1 19,1 29,1 10,0 21,-1 30,-3 8,-1 13,-4 18,-7 4,-3 8,-6 12,-11 4,-4 7,-10 9,-14 1,-3 1,-3 -15,-4 -15,-1 -47,-2 -78,-5 -31,-2 -62,-5 -75,-4 -13,1 -8,5 -4,10z"/>
    <path class="fil23" d="M24575 13540c-7,1 -17,1 -26,1 -8,-1 -15,-2 -20,-5 -6,-2 -10,-6 -14,-10 -4,-4 -8,-9 -13,-16 -4,-7 -10,-17 -15,-30 -6,-13 -11,-28 -14,-44 -4,-15 -6,-32 -6,-44 -1,-12 -1,-20 -1,-29 1,-10 2,-21 6,-31 4,-11 10,-21 16,-29 6,-9 12,-16 19,-21 8,-5 16,-9 22,-11 6,-3 10,-3 17,-1 6,2 15,7 29,29 14,22 33,61 43,97 9,36 9,70 5,92 -4,23 -13,33 -19,40 -6,6 -9,8 -13,9 -4,2 -8,3 -16,3z"/>
    <path class="fil23" d="M24306 13535c10,-1 18,-4 25,-11 7,-7 13,-18 21,-33 7,-14 15,-32 20,-50 5,-18 5,-35 5,-53 0,-17 0,-34 -2,-48 -2,-13 -5,-24 -10,-33 -4,-9 -11,-18 -17,-24 -7,-6 -14,-11 -21,-13 -7,-3 -15,-4 -28,-4 -13,0 -31,1 -47,5 -15,3 -27,9 -38,30 -10,20 -19,55 -17,88 3,33 17,65 32,89 15,25 31,42 44,51 13,8 24,8 33,6z"/>
    <path class="fil23" d="M23979 13117c0,46 0,129 0,171 0,41 0,41 -9,37 -9,-3 -27,-11 -43,-20 -15,-9 -29,-21 -39,-49 -11,-28 -19,-74 -18,-113 1,-40 11,-73 26,-90 15,-16 37,-15 52,-12 15,3 23,7 27,14 4,7 4,16 4,62z"/>
    <path class="fil23" d="M24899 13250c-1,-43 -1,-121 -1,-159 0,-39 0,-39 16,-39 16,0 47,0 64,11 17,11 19,32 20,57 1,24 0,51 -4,72 -4,22 -11,37 -27,56 -16,18 -41,40 -54,47 -13,6 -14,-3 -14,-45z"/>
    <path class="fil24" d="M24076 12874c-181,2 -198,-2 -229,-22 -1,0 -2,-1 -4,-1 -6,21 -16,57 -21,85 -3,14 -4,25 -5,35l0 0 0 1c0,4 0,11 0,22 -1,16 -1,41 0,72 1,30 2,66 4,91 2,20 3,34 5,45 1,7 1,13 2,19 1,9 2,17 3,22 1,5 2,8 2,10 1,5 1,5 14,8l52 13 10 3 -1 -2 4 1 0 -32 0 -134 0 -34 35 10c35,10 104,29 182,43 78,13 164,20 240,23 76,2 143,1 206,-4 63,-4 123,-10 185,-22 62,-12 127,-29 159,-37l32 -9 0 30 0 117 0 29 16 -10 35 -23 27 -17 16 -11 -1 -23c0,-12 -1,-30 -1,-50l-1 -6c0,-17 0,-38 0,-58 0,-20 0,-40 0,-57 0,-2 0,-4 0,-6 -1,-16 -2,-49 -8,-80 -5,-27 -14,-54 -23,-76 -24,14 -57,15 -201,19 -184,4 -547,13 -734,16z"/>
    <path class="fil25" d="M24969 12786c11,2 24,19 36,43 12,23 23,54 29,86 6,31 7,64 8,80 0,16 0,16 -71,16 -72,0 -215,0 -419,0 -204,0 -469,-1 -602,-1 -132,-1 -132,-1 -133,-11 0,-11 -1,-33 5,-63 5,-31 17,-71 23,-90 6,-20 6,-20 105,-23 100,-3 299,-8 481,-10 181,-2 346,-2 432,-8 86,-7 95,-20 106,-19z"/>
    <path class="fil22" d="M24679 13244c51,0 93,14 93,31 0,17 -42,31 -93,31 -52,0 -94,-14 -94,-31 0,-17 42,-31 94,-31z"/>
    <path class="fil26" d="M25012 12838c13,-4 20,-10 31,-21 31,-28 94,-86 124,-118 3,-4 6,-7 9,-11 11,-11 12,-15 12,-18 0,-4 -3,-8 -39,-30 -36,-21 -106,-60 -140,-80 -35,-19 -35,-19 -35,-19 0,0 0,0 -82,-25 -82,-25 -246,-74 -339,-101 -92,-27 -113,-31 -133,-30 -11,1 -22,3 -46,9 -15,3 -31,6 -51,11 -56,14 -136,36 -216,60l-205 55c-92,24 -92,24 -120,49 -21,18 -59,51 -88,77 -25,17 -36,28 -41,37 -7,9 -7,12 -3,17 2,12 12,25 38,46 34,27 95,67 125,88 18,11 25,16 34,18 31,20 48,24 229,22 187,-3 550,-12 734,-16 147,-4 179,-5 202,-20z"/>
    <path class="fil25" d="M25016 12837c10,-4 17,-11 27,-20 31,-28 94,-86 124,-118 3,-4 6,-7 9,-11 11,-11 12,-15 12,-18 0,-4 -3,-8 -39,-30 -36,-21 -106,-60 -140,-80 -35,-19 -35,-19 -35,-19l-32 -10c47,33 117,81 154,109 45,34 46,39 38,51 -8,13 -23,32 -45,59 -22,26 -49,59 -63,75 -5,6 -8,9 -10,12z"/>
    <path class="fil25" d="M23835 12538c-29,9 -35,15 -53,31 -21,18 -59,51 -88,77 -25,17 -36,28 -41,37 -7,9 -7,12 -3,17 2,12 12,25 38,46 34,27 95,67 125,88 17,11 25,16 33,18 -3,-3 -7,-7 -12,-11 -29,-24 -86,-72 -115,-100 -29,-28 -30,-35 -30,-43 1,-8 3,-16 23,-39 19,-23 56,-62 78,-84 23,-22 30,-28 43,-36l2 -1z"/>
    <path class="fil22" d="M24158 13245c52,0 94,14 94,31 0,18 -42,32 -94,32 -52,0 -94,-14 -94,-32 0,-17 42,-31 94,-31z"/>
    <path class="fil27" d="M24418 12506c63,0 113,61 113,137 0,75 -50,136 -113,136 -62,0 -113,-61 -113,-136 0,-76 51,-137 113,-137z"/>
    <path class="fil28" d="M24815 13266l-268 0c-12,0 -23,5 -31,13l0 0c-3,3 -4,6 -6,9 -1,4 -2,9 -3,14 -1,5 -1,11 -1,14 0,3 0,3 0,3 0,0 0,0 -5,-2 -5,-1 -16,-4 -28,-6 -13,-3 -29,-5 -44,-6 -15,-1 -30,-1 -43,0 -13,2 -23,5 -31,8 -8,3 -14,5 -17,6 -3,2 -3,2 -3,2 0,0 0,0 0,-6 0,-5 0,-16 -2,-24 -1,-2 -1,-4 -2,-5 -7,-12 -21,-20 -36,-20l-268 0c-18,0 -34,11 -40,27l-154 -35 151 139 0 0 0 102c0,23 20,42 43,42l268 0c24,0 43,-19 43,-42l0 -124 166 0 0 124c0,23 19,42 43,42l268 0c23,0 42,-19 42,-42l0 -125 188 -179 -197 86c-8,-9 -20,-15 -33,-15z"/>
    <path class="fil29" d="M24810 13266l-263 0c-12,0 -23,5 -31,13l0 0c-3,3 -4,6 -6,9 -1,4 -2,9 -3,14 -1,5 -1,11 -1,14 0,3 0,3 0,3l-1 -1 0 15c0,11 -1,27 -1,42l0 0 0 124c0,23 19,42 43,42l144 0 1 -1c12,-8 17,-20 19,-26 2,-6 2,-6 -25,-5 -27,0 -81,0 -111,-2 -30,-2 -35,-7 -38,-14 -3,-7 -4,-16 -4,-41 -1,-25 -2,-66 -1,-96 1,-29 3,-46 8,-55 4,-10 10,-12 16,-13 6,-1 13,-1 43,-1 30,0 83,-1 118,0 34,0 50,1 62,0 13,-2 22,-6 28,-14 1,-2 2,-5 3,-7z"/>
    <path class="fil29" d="M24282 13266l-255 0c-18,0 -34,11 -40,27l-154 -35 151 139 0 0 0 102c0,23 20,42 43,42l156 0c13,-8 19,-17 23,-22 5,-7 5,-7 -19,-6 -23,0 -71,1 -102,1 -30,-1 -45,-3 -55,-6 -10,-3 -15,-8 -19,-13 -3,-6 -4,-12 -4,-42 -1,-29 -1,-83 0,-113 2,-31 6,-39 11,-44 4,-6 10,-9 22,-11 12,-2 31,-2 56,-2 26,0 58,0 88,1 31,0 59,1 78,-5 10,-3 17,-8 20,-13z"/>
    <path class="fil30" d="M24319 13273c-7,-4 -15,-7 -24,-7l-67 0c0,23 1,57 -1,84 -2,33 -7,57 -15,81 -8,23 -19,47 -33,66 -13,19 -29,34 -44,44l104 0c8,-7 15,-16 23,-26 11,-16 21,-35 29,-56 8,-21 14,-45 18,-69 4,-25 7,-51 8,-72 2,-18 2,-33 2,-45z"/>
    <path class="fil30" d="M24815 13266l-67 0c0,16 0,36 0,55 -1,28 -2,54 -7,78 -4,25 -13,49 -23,70 -10,21 -21,39 -33,53 -7,8 -13,14 -18,19l86 0c1,-1 3,-3 5,-4 10,-9 20,-20 30,-34 9,-15 19,-33 26,-53 8,-21 13,-44 17,-68 3,-24 5,-49 6,-72 0,-14 0,-27 -1,-38 -6,-4 -13,-6 -21,-6z"/>
    <path class="fil31" d="M24420 13743c-67,0 -128,-11 -173,-29 6,55 81,98 173,98 92,0 167,-43 173,-98 -45,18 -106,29 -173,29z"/>
    <path class="fil32" d="M24356 13621c-13,-1 -31,-1 -41,-4 -10,-4 -12,-10 -12,-20 1,-10 4,-23 11,-32 6,-9 16,-14 29,-18 12,-4 28,-6 36,-7 8,-1 8,-1 8,-1 0,0 0,0 0,13 0,14 0,41 0,55 0,14 0,14 0,14 0,0 0,0 -4,0 -5,0 -14,0 -27,0z"/>
    <line class="fil16" x1="24098" y1="14476" x2="24098" y2= "14864" />
    <line class="fil16" x1="23923" y1="14603" x2="24278" y2= "14603" />
    <polygon class="fil33" points="25274,13881 26118,13881 26118,15034 25274,15034 "/>
    <polygon class="fil8" points="25351,13957 26042,13957 26042,14957 25351,14957 "/>
    <path class="fil18" d="M25944 13776c-26,-7 -54,-15 -80,-20 -27,-6 -52,-8 -71,-8 -18,0 -29,2 -37,8 -8,5 -12,13 -17,19 -6,7 -11,11 -23,16 -11,5 -27,12 -41,20 -13,8 -24,19 -30,30 -7,10 -8,21 -1,30 7,9 23,15 34,24 12,8 19,18 29,28 10,10 23,21 43,30 21,8 48,13 76,15 29,1 58,-1 82,-10 25,-10 44,-27 65,-39 21,-13 44,-21 67,-29 22,-7 44,-13 52,-21 9,-9 3,-20 -12,-32 -15,-13 -39,-27 -63,-37 -24,-11 -47,-16 -73,-24z"/>
    <path class="fil19" d="M25756 13955c19,7 44,11 70,13 29,1 58,-1 82,-10 25,-10 44,-27 65,-39 21,-13 44,-21 67,-29 9,-3 19,-6 28,-9 -12,1 -25,4 -41,8 -22,7 -51,17 -78,28 -27,10 -52,20 -77,26 -25,7 -51,9 -74,10 -15,1 -28,1 -42,2z"/>
    <path class="fil19" d="M25944 13776c-26,-7 -54,-15 -80,-20 -27,-6 -52,-8 -71,-8 -18,0 -29,2 -37,8 -8,5 -12,13 -17,19 -6,7 -11,11 -23,16 -11,5 -27,12 -41,20 -13,8 -24,19 -30,30 -7,10 -8,21 -1,30 7,9 23,15 34,24 5,3 9,7 13,10l0 0c0,-12 5,-26 12,-39 7,-12 16,-21 26,-28 11,-6 22,-10 35,-15 13,-4 28,-10 50,-14 21,-4 50,-6 81,-6 32,0 65,2 96,7 31,5 59,14 96,37l5 3c-2,-4 -7,-9 -12,-13 -15,-13 -39,-27 -63,-37 -24,-11 -47,-16 -73,-24z"/>
    <polygon class="fil8" points="24290,15500 24517,15500 24517,15610 24290,15610 "/>
    <path class="fil16 str3" d="M23872 15625c-1,14 -2,27 -3,38 -4,49 -12,62 -29,70 -17,8 -44,11 -66,8 -22,-3 -40,-12 -51,-25 -11,-13 -17,-31 -19,-89 -2,-59 -2,-158 -1,-207 0,-50 0,-50 28,-50 29,0 85,0 114,0 28,0 28,0 28,13 1,11 1,31 1,74 38,0 88,1 116,2 38,2 39,3 41,29 3,27 7,78 6,106 -2,29 -8,34 -43,35 -32,1 -87,-1 -122,-4z"/>
    <path class="fil16 str3" d="M24133 15467l106 0c16,0 29,13 29,30l0 113c0,17 -13,30 -29,30l-106 0c-16,0 -30,-13 -30,-30l0 -113c0,-17 14,-30 30,-30z"/>
    <path class="fil34" d="M23995 17375c149,0 269,71 269,158l22 0 0 75 -588 0 0 -75 27 0c0,-87 121,-158 270,-158z"/>
    <path class="fil34" d="M24751 17375c149,0 269,71 269,158l22 0 0 75 -588 0 0 -75 27 0c0,-87 121,-158 270,-158z"/>
    <polygon class="fil21" points="24364,14160 24450,14160 24450,15471 24364,15471 "/>
    <path class="fil21" d="M24208 14344c-10,-18 -30,-55 -43,-90 -13,-35 -19,-68 -22,-94 -2,-26 -2,-45 4,-64 2,-10 6,-19 10,-28 -7,12 -14,26 -19,41 -6,17 -9,36 -10,55 -2,19 -2,38 2,62 5,24 13,54 24,78 10,25 22,45 33,60 11,15 21,26 26,31l4 6 30 -35 117 -139 0 -41 -112 136 -34 41 -10 -19z"/>
    <path class="fil21" d="M24450 14175l0 44c4,5 8,11 14,18l104 129 26 32 5 -4c6,-4 17,-12 28,-27 12,-15 23,-37 33,-61 10,-25 18,-52 23,-80 6,-29 8,-58 7,-85 -2,-27 -7,-50 -21,-74 -11,-19 -27,-38 -41,-53 -2,0 -4,-1 -6,-1l-13 -4c14,8 28,19 39,33 13,16 23,34 28,54 6,19 6,38 4,64 -3,26 -9,59 -22,94 -13,35 -33,72 -43,90l-10 19 -34 -41 -121 -147z"/>
    <path class="fil21" d="M23951 14476c-5,1 -11,4 -16,9 -5,4 -10,11 -13,18 -4,8 -6,16 -7,70 -1,54 -1,152 0,205 1,52 2,59 5,65 2,6 6,12 12,17 5,4 13,7 28,8 15,2 36,2 82,2 47,0 117,0 156,-1 39,0 45,-1 53,-3 7,-2 16,-7 23,-13 6,-7 10,-16 13,-24 2,-8 2,-14 1,-67 -1,-53 -2,-153 -4,-205 -1,-53 -3,-59 -7,-64 -4,-5 -10,-9 -16,-12 -6,-3 -13,-5 -16,-5 -3,-1 -3,-1 -3,-1 0,0 0,0 2,1 2,1 6,3 9,6 4,4 8,8 11,14 3,7 5,15 7,66 1,51 1,145 0,196 -1,51 -3,59 -5,66 -2,7 -5,13 -12,17 -6,4 -15,6 -63,6 -49,1 -137,0 -184,-2 -48,-1 -54,-3 -59,-6 -6,-4 -9,-10 -11,-60 -2,-51 -1,-146 0,-199 2,-54 3,-64 5,-72 2,-8 5,-14 10,-19 4,-6 10,-11 10,-14 0,-2 -5,-1 -11,1z"/>
    <polygon class="fil21" points="23928,14591 24278,14591 24278,14614 23928,14614 "/>
    <polygon class="fil21" points="24108,14858 24088,14858 24088,14475 24108,14475 "/>
    <line class="fil16" x1="24757" y1="14487" x2="24757" y2= "14874" />
    <line class="fil16" x1="24582" y1="14613" x2="24936" y2= "14613" />
    <path class="fil27" d="M24645 14616c58,-3 171,-2 230,-4 58,-1 61,-3 62,-7 2,-4 2,-9 1,-18 -1,-9 -2,-23 -3,-29 0,-7 0,-7 -59,-6 -58,0 -175,1 -233,2 -58,0 -58,0 -59,6 -1,7 -2,19 -2,32 -1,12 0,25 1,28 2,4 4,-2 62,-4z"/>
    <path class="fil21" d="M24610 14486c-5,2 -11,4 -16,9 -5,5 -10,11 -14,19 -3,7 -5,16 -6,69 -1,54 -1,153 -1,205 1,53 3,59 6,65 2,7 6,13 11,17 6,4 14,7 29,9 14,1 36,2 82,2 47,0 117,-1 156,-1 39,-1 45,-1 53,-4 7,-2 16,-6 22,-13 7,-7 11,-16 13,-24 3,-7 3,-14 2,-67 -1,-53 -2,-152 -4,-205 -1,-53 -4,-59 -8,-64 -3,-5 -9,-9 -15,-12 -6,-2 -13,-4 -16,-5 -3,-1 -3,-1 -3,-1 0,0 0,0 2,1 2,1 6,4 9,7 4,3 7,7 10,14 3,6 6,14 7,65 2,51 2,145 1,196 -1,51 -3,59 -5,66 -3,8 -6,14 -12,17 -6,4 -15,6 -63,7 -49,0 -137,-1 -185,-2 -47,-1 -53,-3 -59,-7 -5,-4 -9,-9 -10,-60 -2,-50 -1,-146 0,-199 1,-53 3,-64 5,-72 2,-8 5,-13 9,-19 5,-5 10,-11 11,-13 0,-3 -5,-2 -11,0z"/>
    <polygon class="fil21" points="24587,14601 24937,14601 24937,14624 24587,14624 "/>
    <polygon class="fil21" points="24767,14868 24747,14868 24747,14602 24767,14602 "/>
    <path class="fil27" d="M24065 14055c-7,-1 -16,-1 -32,0 -16,1 -37,3 -53,5 -16,3 -25,7 -30,11 -4,4 -4,9 -1,12 3,3 8,5 24,4 15,-1 41,-6 61,-11 21,-6 35,-12 39,-16 5,-3 0,-5 -8,-5z"/>
    <path class="fil27" d="M23904 14076c-9,-2 -20,-1 -31,0 -11,1 -22,2 -32,4 -10,2 -20,6 -27,10 -7,4 -12,9 -12,13 -1,4 1,7 6,10 4,2 11,4 22,4 11,0 28,-2 41,-4 14,-2 26,-5 35,-8 8,-4 13,-7 16,-11 3,-3 3,-7 0,-11 -3,-3 -9,-6 -18,-7z"/>
    <path class="fil27" d="M24765 14046c8,0 17,0 33,1 16,1 37,4 53,7 15,3 25,7 29,12 5,4 4,8 1,11 -3,4 -8,6 -24,4 -15,-2 -41,-7 -61,-13 -20,-6 -34,-13 -39,-17 -4,-3 1,-5 8,-5z"/>
    <path class="fil27" d="M24927 14071c8,-1 20,1 31,2 10,1 21,2 31,5 10,2 20,6 27,10 7,4 11,9 12,13 1,5 -2,8 -7,10 -4,2 -11,4 -22,3 -11,0 -27,-2 -41,-4 -14,-3 -26,-6 -34,-10 -8,-3 -13,-7 -16,-11 -3,-3 -3,-7 0,-11 3,-3 10,-6 19,-7z"/>
    <path class="fil21" d="M24449 15264c20,0 36,16 36,36 0,20 -16,37 -36,37 -20,0 -37,-17 -37,-37 0,-20 17,-36 37,-36z"/>
    <path class="fil21" d="M24451 15090c20,0 36,16 36,36 0,21 -16,37 -36,37 -20,0 -37,-16 -37,-37 0,-20 17,-36 37,-36z"/>
    <path class="fil21" d="M24453 14916c20,0 36,16 36,37 0,20 -16,36 -36,36 -20,0 -37,-16 -37,-36 0,-21 17,-37 37,-37z"/>
    <path class="fil21" d="M24455 14742c20,0 36,16 36,37 0,20 -16,36 -36,36 -20,0 -37,-16 -37,-36 0,-21 17,-37 37,-37z"/>
    <path class="fil21" d="M24457 14568c20,0 36,17 36,37 0,20 -16,36 -36,36 -20,0 -37,-16 -37,-36 0,-20 17,-37 37,-37z"/>
    <path class="fil21" d="M24459 14394c20,0 36,17 36,37 0,20 -16,36 -36,36 -20,0 -37,-16 -37,-36 0,-20 17,-37 37,-37z"/>
    <polygon class="fil35" points="25484,14023 25898,14023 25898,14059 25484,14059 "/>
    <path class="fil36" d="M25486 14753c41,0 75,33 75,74 0,41 -34,74 -75,74 -41,0 -74,-33 -74,-74 0,-41 33,-74 74,-74z"/>
    <path class="fil16 str4" d="M25794 14838c0,-1 33,-33 7,-1 -59,72 36,-9 59,-21 -84,71 -43,43 37,4 56,-27 -28,5 -52,21 -135,90 79,-5 74,-30 -40,2 -126,100 -21,21 11,-9 53,-72 13,-40 -1,0 -128,108 -78,75 13,-9 74,-40 76,-43 -47,7 -119,106 -7,24 25,-18 -36,20 15,-4 29,-13 -26,-3 -25,8 39,0 55,-34 20,-11 -12,7 11,-1 -5,5 -18,6 54,6 76,-3 2,-1 3,0 5,0"/>
    <path class="fil37" d="M23874 15410c0,-13 -1,-21 -1,-27 0,-13 0,-13 -28,-13l-101 0 -13 0c-28,0 -28,0 -28,50 -1,49 -1,148 1,207 2,58 8,76 19,89 4,5 9,9 15,13 0,58 0,132 0,227 2,346 8,969 10,1281l2 230c43,-54 136,-92 245,-92 110,0 204,39 246,94 1,-33 3,-80 5,-146 6,-226 19,-678 29,-918 10,-240 16,-269 27,-292 10,-24 24,-42 46,-51 23,-9 52,-9 77,-1 25,9 45,26 56,54 11,29 13,69 15,312 2,242 3,686 4,908l1 139c39,-58 136,-99 250,-99 109,0 202,38 245,93l7 -214 39 -1226 3 -100c4,2 9,3 15,3 7,0 17,-3 25,-8 8,-5 14,-11 20,-19 5,-8 9,-16 12,-33 2,-16 4,-41 5,-116 0,-76 0,-202 -1,-270 -1,-68 -2,-76 -5,-84 -2,-8 -6,-15 -12,-20 -5,-4 -13,-7 -21,-9 -8,-2 -17,-4 -24,-4 -7,1 -12,3 -17,7 -1,0 -2,1 -3,2l-1 1c-5,6 -9,15 -11,24 -2,9 -3,18 -3,22 0,5 0,5 -7,7 -7,1 -22,5 -62,11 -40,5 -106,11 -140,15 -20,3 -29,5 -33,8 -27,2 -58,5 -91,6 -35,0 -73,-2 -105,-3 -33,0 -59,1 -106,0 -46,-1 -112,-3 -158,-5 -45,-2 -71,-3 -107,-6 -37,-4 -84,-8 -139,-15 -54,-8 -115,-18 -152,-24 -24,-4 -38,-6 -50,-8zm1157 488l0 0 0 21 0 -21z"/>
    <path class="fil34" d="M24968 17440c11,9 20,18 28,28l7 -214 39 -1226 3 -100c4,2 9,3 15,3 7,0 17,-3 25,-8 4,-2 7,-5 10,-8 0,-33 -1,-64 -3,-91 -9,-187 -38,-228 -54,-234 -16,-7 -19,21 -29,350 -10,329 -27,959 -35,1274 -3,108 -5,179 -6,226zm63 -1542l0 0 0 21 0 -21z"/>
    <path class="fil34" d="M24221 17448c8,7 15,14 20,21 1,-33 3,-80 5,-146 6,-226 19,-678 29,-918 10,-240 16,-269 27,-292 10,-24 24,-42 46,-51 23,-9 52,-9 77,-1 25,9 45,26 56,54 11,29 13,69 15,312 2,242 3,686 4,908l1 139c6,-9 13,-17 22,-26l1 -137c2,-210 4,-630 4,-863 0,-234 -2,-281 -9,-317 -7,-37 -19,-63 -36,-82 -17,-20 -41,-33 -67,-39 -26,-6 -55,-5 -78,4 -24,10 -43,28 -57,56 -13,28 -21,65 -27,133 -5,68 -9,166 -12,318 -4,151 -7,357 -11,527 -3,170 -7,303 -9,378l-1 22z"/>
    <path class="fil34" d="M23717 15708c2,3 4,5 6,8 4,5 9,9 15,13 0,58 0,132 0,227 2,346 8,969 10,1281l2 230c6,-7 13,-14 20,-21l-1 -255c-2,-297 -6,-891 -8,-1198 -3,-307 -5,-328 -18,-324 -6,2 -15,10 -26,39z"/>
    <path class="fil29" d="M23881 15644c-3,8 -4,20 -6,34 -3,15 -9,32 -16,44 -7,13 -16,20 -26,25 -9,5 -20,7 -32,6 -12,0 -25,-2 -38,-5 -12,-2 -23,-5 -34,-10 -10,-6 -20,-13 -28,-53 -9,-39 -17,-111 -18,-170 -1,-59 4,-104 7,-127 3,-24 5,-25 36,-27 31,-1 92,-2 125,-1 32,0 35,3 36,17 0,13 -2,39 -4,52 -1,13 -1,13 19,13 20,1 61,3 86,6 26,3 37,8 43,16 6,8 8,20 10,44 1,23 2,59 1,80 -1,22 -4,30 -8,36 -3,6 -9,10 -32,11 -24,0 -65,-3 -89,-3 -24,1 -29,4 -32,12z"/>
    <path class="fil29" d="M24777 15474c0,-12 3,-14 37,-18 34,-4 100,-10 140,-16 40,-5 54,-9 61,-11 8,-2 8,-2 8,-6 0,-4 0,-13 3,-22 2,-9 6,-18 11,-24 6,-6 13,-9 20,-10 8,0 17,1 25,3 8,3 15,5 21,10 6,5 9,12 12,19 3,8 4,17 5,85 1,67 1,194 0,270 0,75 -2,99 -5,116 -3,16 -6,25 -12,33 -5,7 -11,14 -19,19 -8,4 -18,7 -26,8 -8,0 -14,-3 -19,-6 -5,-3 -9,-7 -10,-48 -2,-42 -2,-120 -1,-159 0,-40 0,-40 -9,-39 -9,0 -26,1 -50,0 -24,-1 -54,-4 -78,-8 -25,-3 -43,-7 -58,-12 -15,-4 -27,-9 -35,-16 -9,-6 -15,-14 -18,-33 -3,-19 -3,-48 -3,-74 -1,-26 -1,-49 0,-61z"/>
    <path class="fil38" d="M25097 15376c2,1 4,3 6,4 6,5 9,12 12,19 3,8 4,17 5,85 1,67 1,194 0,270 0,75 -2,99 -5,116 -3,16 -6,25 -12,33 -3,5 -7,10 -12,13 0,-14 0,-34 0,-61 1,-98 1,-293 4,-397 0,-38 1,-64 2,-82z"/>
    <path class="fil29" d="M24241 15640l0 -173c-1,0 -1,0 -2,0l-106 0c-16,0 -30,13 -30,30l0 113c0,17 14,30 30,30l106 0 2 0z"/>
    <path class="fil29" d="M24565 15465l0 175c1,0 2,0 2,0l106 0c17,0 30,-14 30,-32l0 -121c0,-40 -82,-22 -115,-22 -8,0 -15,0 -23,0z"/>
    <polygon class="fil39" points="24241,15450 24565,15450 24565,15661 24241,15661 "/>
    <polygon class="fil29" points="24294,15497 24518,15497 24518,15611 24294,15611 "/>
    <path class="fil40" d="M24819 17402c17,4 34,8 51,15 18,8 36,18 52,28 16,10 28,21 37,31 9,10 14,18 18,28 4,9 7,19 8,24 1,5 1,5 -19,5 -20,0 -60,0 -80,0 -19,0 -19,0 -19,0 0,0 0,0 -1,-6 0,-7 0,-20 -3,-35 -3,-15 -7,-33 -15,-46 -7,-13 -17,-21 -26,-29 -9,-8 -18,-14 -27,-18 -9,-5 -20,-7 -25,-8 -5,-1 -5,-1 4,1 9,2 27,6 45,10z"/>
    <path class="fil40" d="M24061 17402c17,4 34,8 51,15 18,8 37,18 52,28 16,10 28,21 37,31 9,10 14,18 18,28 4,9 7,19 8,24 2,5 2,5 -18,5 -20,0 -60,0 -80,0 -20,0 -20,0 -20,0 0,0 0,0 -1,-6 0,-7 0,-20 -3,-35 -2,-15 -7,-33 -15,-46 -7,-13 -17,-21 -26,-29 -9,-8 -17,-14 -27,-18 -9,-5 -19,-7 -25,-8 -5,-1 -5,-1 4,1 9,2 28,6 45,10z"/>
    <path class="fil16 str5" d="M25442 14172l515 0m-515 245l515 0m-515 -31l515 0m-515 -30l515 0m-515 -31l515 0m-515 -30l515 0m-515 -31l515 0m-515 -30l515 0m-515 -31l515 0"/>
   </g>
   <g>
    <path class="fil41" d="M37916 16930c-22,43 -54,111 -80,155 -27,43 -48,62 -94,73 -46,12 -117,18 -1024,16 -906,-1 -2648,-9 -3526,-14 -879,-4 -893,-6 -904,-23 -10,-18 -17,-52 -27,-111 -11,-59 -25,-142 -31,-184 -6,-42 -4,-44 -310,-44 -307,0 -923,2 -1256,18 -334,17 -385,48 -410,90 -25,41 -24,93 -26,138 -2,45 -7,83 -20,105 -12,21 -32,27 -116,11 -84,-15 -231,-50 -327,-75 -97,-24 -142,-37 -178,-45 -37,-8 -66,-11 -91,-17 -24,-7 -44,-17 -58,-37 -14,-20 -22,-49 -16,-124 5,-74 23,-194 35,-288 11,-95 15,-163 23,-271 9,-107 22,-253 33,-348 12,-95 21,-139 33,-174 13,-35 29,-61 74,-103 46,-43 121,-101 224,-157 104,-57 236,-112 385,-163 149,-51 315,-97 470,-135 155,-37 298,-66 490,-95 192,-28 432,-56 745,-89 313,-33 700,-71 893,-90 193,-19 193,-19 193,-19 0,0 0,0 42,-35 43,-35 127,-105 264,-202 137,-97 327,-221 503,-323 175,-103 336,-185 472,-244 137,-60 249,-97 388,-133 139,-36 305,-72 495,-98 190,-26 404,-44 623,-55 220,-11 445,-16 653,-10 209,6 400,23 575,42 176,20 335,43 531,83 196,40 428,98 544,127 116,29 116,29 121,34 4,4 14,14 24,24 11,9 22,20 254,106 231,87 682,249 928,335 246,85 287,95 340,100 53,5 117,6 174,14 58,8 108,23 220,40 112,17 286,37 442,48 155,11 292,14 370,19 77,5 94,13 106,28 12,16 18,38 21,92 3,54 1,140 1,250 0,110 2,245 2,312 1,67 1,67 1,67 0,0 0,0 15,9 15,10 45,28 76,56 31,29 63,67 86,114 23,48 38,105 34,285 -3,180 -24,483 -38,638 -14,155 -20,161 -53,169 -32,8 -90,17 -338,19 -248,1 -685,-6 -1157,-5 -473,1 -979,9 -1280,13 -302,4 -398,4 -452,12 -55,9 -68,26 -91,69z"/>
    <polygon class="fil42" points="32967,16642 32959,16911 36005,16855 36084,16594 "/>
    <path class="fil43" d="M30266 16890c-5,5 -9,10 -12,16 -25,41 -24,93 -26,138 -2,45 -7,83 -20,105 -12,21 -32,27 -116,11 -84,-15 -231,-50 -327,-75 -97,-24 -142,-37 -178,-45 -37,-8 -66,-11 -91,-17 -24,-7 -44,-17 -58,-37 -14,-20 -22,-49 -16,-124 2,-35 8,-81 14,-129 67,1 141,6 220,11 170,11 361,26 466,32 106,6 125,3 136,50 4,17 6,39 8,64z"/>
    <path class="fil43" d="M41113 15413l0 71c1,67 1,67 1,67 0,0 0,0 15,9 15,10 45,28 76,56 31,29 63,67 86,114 23,48 38,105 34,285 -3,180 -24,483 -38,638 -14,155 -20,161 -53,169 -32,8 -90,17 -338,19 -226,1 -610,-4 -1034,-5 0,-17 1,-36 1,-57 2,-66 4,-149 -17,-243 -20,-93 -62,-197 -107,-286 -45,-88 -93,-161 -145,-225 -53,-65 -111,-122 -140,-150 -29,-28 -29,-28 69,-41 98,-12 295,-37 462,-69 166,-32 304,-70 398,-107 94,-37 146,-72 181,-109 35,-36 53,-73 62,-106 8,-34 7,-64 22,-78 15,-14 47,-11 138,-2 85,10 222,25 327,50z"/>
    <path class="fil3" d="M41317 16231c-2,37 -4,76 -7,113 -25,4 -51,5 -75,6 -45,2 -83,3 -114,-3 -31,-6 -55,-19 -70,-38 -16,-18 -24,-42 -28,-54 -4,-12 -4,-12 61,-14 56,-2 158,-6 233,-10z"/>
    <path class="fil44" d="M37916 16930c-22,43 -54,111 -80,155 -27,43 -48,62 -94,73 -46,12 -117,18 -1024,16 -906,-1 -2648,-9 -3526,-14 -879,-4 -893,-6 -904,-23 -10,-18 -17,-52 -27,-111l-1 -2 0 -1 0 -1 0 -1 0 -1 -1 -1 0 -1 0 -1 0 -2 0 0 -1 -1 0 -2 0 0 0 -2 0 -1 -1 -1 0 -2 0 0 0 -2 0 -1 0 0 -1 -2 0 -1 0 -1 0 -2 -1 0 0 -2 0 -1 0 -1 -1 -2 0 0 0 -2 0 -1 0 -1 -1 -1 0 -1 0 -1 0 -2 0 -1 -1 -1 0 -2 0 0 0 -2 0 -1 -1 -1 0 -2 0 0 0 -2 0 -1 -1 -1 0 -2 0 0 0 -2 -1 -1 0 -1 0 -2 0 -1 0 -1 -1 -2 0 0 0 -2 0 -1 0 -1 -1 -2 0 0 0 -2 0 -1 0 -1 -1 -2 0 0 0 -2 0 -2 0 0 -1 -2 0 -1 0 -1 0 -2 0 0 -1 -2 0 -1 0 -1 0 -2 -1 0 0 -1 0 -2 0 0 0 -2 -1 -1 0 -1 0 -2 0 -1 0 -1 -1 -2 0 0 0 -2 0 -1 0 -1 -1 -2 0 0 0 -2 0 -1 0 -1 -1 -1c89,-7 315,-13 890,-28 947,-26 2840,-76 3793,-86 954,-9 967,21 980,68 5,21 10,44 16,69l-1 1 -1 2z"/>
    <path class="fil45" d="M37821 17106c-20,29 -41,43 -79,52 -46,12 -117,18 -1024,16 -906,-1 -2648,-9 -3526,-14 -879,-4 -893,-6 -904,-23 -9,-17 -16,-47 -25,-97 79,-5 248,-6 619,-10 683,-7 2049,-20 2954,-32 904,-12 1347,-22 1603,-8 256,15 325,54 365,97 7,6 12,13 17,19z"/>
    <path class="fil41 str3" d="M30277 16880c-15,11 -25,26 -37,50 -7,13 -14,28 -22,43 -13,-48 -22,-97 -28,-147 -4,-39 -6,-78 -6,-118 0,-13 0,-27 1,-41 2,-43 5,-74 9,-103 7,-48 19,-90 32,-125 13,-36 28,-66 34,-51 5,15 1,74 4,156 3,81 12,185 13,278 0,20 0,39 0,58z"/>
    <path class="fil46" d="M29462 17009c-9,-6 -17,-14 -24,-23 -14,-20 -22,-49 -16,-124 5,-74 23,-194 35,-288l0 -2c20,-17 37,-29 56,-40 41,-26 90,-53 127,-66 37,-14 62,-16 86,-12 23,3 46,11 64,30 17,19 31,50 36,84 6,35 5,75 -2,111 -6,35 -18,67 -41,106 -23,39 -57,85 -90,118 -33,34 -65,55 -95,72 -29,15 -56,27 -136,34z"/>
    <path class="fil47" d="M29670 15635c44,-35 103,-75 174,-114 104,-57 236,-112 385,-163 149,-51 315,-97 470,-135 155,-37 298,-66 490,-95 192,-28 432,-56 745,-89 313,-33 700,-71 893,-90 193,-19 193,-19 193,-19 0,0 0,0 42,-35 43,-35 127,-105 264,-202 137,-97 327,-221 503,-323 175,-103 336,-185 472,-244 137,-60 249,-97 388,-133 139,-36 305,-72 495,-98 190,-26 404,-44 623,-55 220,-11 445,-16 653,-10 209,6 400,23 575,42 176,20 335,43 531,83 196,40 428,98 544,127 116,29 116,29 121,34 4,4 14,14 24,24 11,9 22,20 254,106 231,87 682,249 928,335 246,85 287,95 340,100 53,5 117,6 174,14 58,8 108,23 220,40 112,17 286,37 442,48 155,11 292,14 370,19 77,5 94,13 106,28 12,16 18,38 21,92 3,54 1,140 1,250 0,39 0,81 1,122 -119,-28 -245,-58 -360,-80 -177,-35 -330,-51 -936,-37 -607,13 -1667,55 -3547,142 -1881,87 -4581,219 -5932,285 -275,13 -494,24 -667,31z"/>
    <path class="fil48" d="M33045 14910l17 -15c43,-35 127,-105 264,-202 137,-97 327,-221 503,-323 175,-103 336,-185 472,-244 85,-37 160,-65 238,-90 13,8 20,18 21,32 0,16 -8,35 -59,72 -51,36 -145,90 -276,161 -132,71 -300,159 -457,249 -156,89 -301,180 -398,241 -97,60 -147,90 -188,105 -41,16 -72,18 -110,16 -9,-1 -18,-1 -27,-2z"/>
    <path class="fil49" d="M29721 15934c-15,24 -33,46 -51,69 -19,23 -38,46 -54,61 -16,16 -29,24 -40,26 -12,3 -21,0 -27,-9 -6,-10 -10,-27 -7,-65 2,-38 10,-97 16,-136 7,-38 12,-57 20,-71 9,-15 20,-26 36,-34 16,-8 37,-12 57,-13 21,-1 40,1 54,5 13,4 22,9 27,25 5,16 7,42 2,68 -5,25 -18,50 -33,74z"/>
    <path class="fil50" d="M39038 15236c-701,41 -1825,107 -3178,165 -1352,58 -2935,108 -3726,133 -791,25 -791,25 -791,25 0,0 0,0 374,-21 375,-21 1124,-63 2030,-117 906,-54 1968,-120 2876,-168 907,-47 1658,-76 2245,-88 587,-12 1009,-7 1220,-4 211,2 211,2 211,2 0,0 0,0 -140,8 -140,8 -419,24 -1121,65z"/>
    <path class="fil51" d="M30012 15976c113,-77 287,-203 374,-267 87,-63 87,-63 87,-63 0,0 0,0 -35,-2 -34,-2 -103,-6 -178,-3 -76,2 -159,12 -238,29 -78,18 -152,45 -207,69 -54,24 -90,47 -115,71 -25,25 -40,51 -49,87 -9,37 -13,83 -11,118 2,35 10,58 37,72 27,14 73,18 122,6 49,-12 100,-39 213,-117z"/>
    <path class="fil46" d="M37672 14904c-367,14 -796,30 -1260,50 -465,20 -966,43 -1519,70 -552,27 -1156,58 -1453,66 -297,9 -286,-4 -235,-41 50,-36 141,-95 187,-125 45,-30 45,-30 48,-39 3,-9 8,-27 21,-49 13,-21 34,-44 61,-64 26,-20 58,-36 86,-46 27,-11 51,-16 75,-21 25,-4 50,-8 62,-10 13,-2 13,-2 13,-2 0,0 0,0 69,-45 69,-45 208,-135 342,-214 133,-80 263,-150 376,-205 113,-56 211,-97 309,-130 99,-34 197,-60 317,-78 119,-18 259,-27 404,-33 145,-6 295,-9 457,-7 161,2 334,9 469,16 135,6 233,13 367,29 135,17 306,43 463,71 156,27 297,56 455,97 158,40 334,91 485,140 152,49 280,95 375,133 95,38 157,69 200,97 43,27 66,52 78,77 12,24 12,48 4,74 -8,27 -24,56 -44,79 -20,23 -46,40 -86,50 -40,11 -95,15 -275,23 -180,9 -485,22 -851,37z"/>
    <path class="fil52 str3" d="M36853 14384c-33,123 -81,297 -105,384 -23,87 -23,87 -23,87 0,0 0,0 290,-9 291,-8 873,-25 1195,-41 321,-16 383,-31 421,-48 37,-17 51,-37 48,-62 -3,-26 -21,-58 -80,-95 -59,-38 -157,-81 -299,-134 -141,-53 -324,-115 -561,-175 -236,-60 -526,-118 -671,-147 -145,-29 -145,-29 -145,-29 0,0 0,0 -10,36 -9,37 -27,109 -60,233z"/>
    <path class="fil52 str3" d="M36706 14311c-35,127 -93,336 -122,440 -29,104 -29,104 -29,104 0,0 0,0 0,0 0,0 0,0 -179,10 -179,10 -536,29 -983,54 -447,24 -984,53 -1252,68 -268,14 -268,14 -268,14 0,0 0,0 4,-31 5,-32 14,-95 15,-140 2,-45 -5,-71 -19,-88 -14,-16 -35,-23 -45,-26 -11,-3 -11,-3 -11,-3 0,0 0,0 54,-34 53,-34 160,-101 272,-166 112,-64 229,-126 344,-182 115,-56 227,-106 341,-145 114,-38 230,-64 361,-85 130,-20 275,-35 443,-43 168,-7 360,-9 552,-2 193,6 386,21 483,28 97,7 97,7 97,7 0,0 0,0 -6,24 -6,23 -17,69 -52,196z"/>
    <path class="fil48" d="M39553 14575c230,83 241,91 245,97 2,4 2,7 1,11 -8,-1 -15,-1 -22,-2 -53,-5 -94,-15 -340,-100 -246,-86 -697,-248 -928,-335 -232,-86 -243,-97 -254,-106 -2,-3 -5,-5 -7,-7 11,0 25,2 51,8 31,6 78,19 326,105 248,86 698,246 928,329z"/>
    <path class="fil3" d="M41111 15130l0 42c0,110 2,245 2,312 1,67 1,67 1,67l1 1c-21,9 -47,11 -75,12 -57,2 -124,0 -192,-14 -68,-13 -136,-40 -210,-90 -73,-50 -151,-124 -193,-172 -43,-48 -51,-70 -45,-93 7,-22 28,-45 70,-68 41,-24 103,-49 167,-65 64,-16 130,-23 189,-23 60,0 112,7 154,18 41,12 72,27 100,46 11,7 21,15 31,27z"/>
    <path class="fil46" d="M38895 15674c571,0 1034,463 1034,1034 0,43 -3,86 -8,128 -42,0 -85,0 -127,0 5,-42 9,-85 9,-128 0,-501 -407,-908 -908,-908 -467,0 -852,352 -902,806 17,57 31,144 33,192 3,56 -11,59 -24,62l-2 1 0 1c-7,2 -13,3 -19,5 -5,1 -9,3 -13,5 -10,5 -18,11 -26,20 -7,8 -15,20 -25,39 -10,19 -24,47 -40,78 -17,31 -37,66 -47,83 -10,18 -10,18 -10,18 0,0 0,0 3,-38 3,-38 9,-113 16,-186 7,-73 13,-144 18,-191 2,-16 3,-30 5,-41 28,-546 479,-980 1033,-980z"/>
    <g>
     <path class="fil53 str3" d="M38895 15800c-502,0 -908,407 -908,908 0,501 406,908 908,908 501,0 908,-407 908,-908 0,-501 -407,-908 -908,-908zm603 1020c-61,7 -176,10 -357,15 -180,5 -427,13 -588,17 -161,4 -236,4 -273,4 -38,0 -38,0 -38,0 0,0 0,0 5,11 4,12 13,34 32,74 18,39 46,96 78,143 33,46 70,83 114,118 44,34 95,66 140,89 45,23 83,37 133,46 49,10 110,14 159,15 48,1 85,0 135,-11 51,-10 114,-30 173,-59 58,-29 112,-67 162,-125 49,-57 94,-133 127,-198 33,-65 54,-117 61,-138 6,-20 -2,-8 -63,-1z"/>
     <path class="fil54" d="M38886 16224c-263,0 -475,213 -475,475 0,262 212,474 475,474 262,0 474,-212 474,-474 0,-262 -212,-475 -474,-475z"/>
     <path class="fil17 str3" d="M38895 16601c-59,0 -107,48 -107,107 0,59 48,107 107,107 59,0 106,-48 106,-107 0,-59 -47,-107 -106,-107z"/>
     <path class="fil55" d="M38895 16010c-386,0 -699,312 -699,698 0,386 313,698 699,698 385,0 698,-312 698,-698 0,-386 -313,-698 -698,-698zm0 492c-14,0 -27,2 -39,4l-16 -427c18,-1 36,-2 55,-2 14,0 27,1 41,2l-3 427c-13,-2 -25,-4 -38,-4zm-69 12c-46,16 -84,48 -108,89l-366 -216c84,-142 222,-249 387,-290l87 417zm-122 117c-8,21 -13,43 -15,66l-416 -94c7,-47 20,-92 38,-134l393 162zm-13 104c5,43 24,82 52,112l-312 289c-104,-112 -167,-263 -167,-428 0,-9 0,-18 0,-27l427 54zm75 134c17,13 36,24 57,32l-228 362c-35,-18 -68,-40 -98,-65l269 -329zm85 40c14,3 29,5 44,5 23,0 45,-4 66,-11l190 382c-78,35 -165,54 -256,54 -83,0 -162,-16 -235,-45l191 -385zm136 -17c19,-9 36,-22 51,-36l281 319c-31,29 -66,54 -104,77l-228 -360zm74 -63c24,-32 38,-72 39,-115l424 -45c1,13 2,26 2,39 0,162 -62,310 -162,422l-303 -301zm38 -148c-4,-24 -11,-48 -22,-69l405 -136c13,34 24,69 31,106l-414 99zm-40 -96c-23,-32 -56,-56 -93,-70l64 -423c174,38 322,148 409,298l-380 195z"/>
     <path class="fil56" d="M38892 16598c-59,0 -107,48 -107,107 0,59 48,107 107,107 59,0 106,-48 106,-107 0,-59 -47,-107 -106,-107z"/>
    </g>
    <path class="fil46" d="M31218 15674c572,0 1035,463 1035,1034 0,34 -2,67 -5,100l-2 27c-1,25 -2,50 -3,63 -1,12 -1,12 -1,12l-2 -1 -1 6c0,0 0,0 -30,-3 -30,-3 -91,-8 -173,-15 -81,-7 -184,-17 -288,-23 -105,-6 -210,-8 -354,-3 -145,5 -328,19 -469,40 -141,22 -240,52 -323,79 -82,26 -148,49 -209,74 -60,25 -116,52 -148,71 -20,11 -31,19 -38,22 -6,5 -10,8 -14,9 -5,3 -8,4 -10,1 -2,1 -4,1 -6,1 0,-9 0,-21 0,-36 1,-81 2,-245 4,-354 1,-45 2,-81 4,-111 21,-552 476,-993 1033,-993zm898 897c-66,-436 -443,-770 -898,-770 -487,0 -885,384 -907,867 46,-61 125,-104 320,-129 211,-28 558,-36 836,-29 279,8 490,30 608,53 15,2 29,5 41,8z"/>
    <g>
     <path class="fil53" d="M31218 15792c-501,0 -907,406 -907,908 0,501 406,907 907,907 502,0 908,-406 908,-907 0,-502 -406,-908 -908,-908zm604 1019c-62,8 -176,10 -357,16 -181,5 -427,13 -588,17 -161,4 -236,4 -274,4 -37,0 -37,0 -37,0 0,0 0,0 4,11 5,11 14,33 33,73 18,40 46,96 78,143 32,47 69,84 114,118 44,34 95,66 140,89 45,23 83,38 132,47 50,9 111,13 159,14 49,2 86,0 136,-10 50,-11 114,-30 172,-59 59,-29 113,-68 162,-125 50,-57 95,-134 128,-199 33,-64 54,-117 60,-137 7,-21 -1,-9 -62,-2z"/>
     <path class="fil54" d="M31209 16215c-262,0 -474,213 -474,475 0,262 212,475 474,475 263,0 475,-213 475,-475 0,-262 -212,-475 -475,-475z"/>
     <path class="fil17" d="M31218 16593c-59,0 -106,48 -106,107 0,59 47,106 106,106 59,0 107,-47 107,-106 0,-59 -48,-107 -107,-107z"/>
     <path class="fil55" d="M31218 16001c-385,0 -698,313 -698,699 0,385 313,698 698,698 386,0 699,-313 699,-698 0,-386 -313,-699 -699,-699zm0 493c-13,0 -26,1 -39,4l-15 -427c18,-2 36,-2 54,-2 14,0 28,0 42,1l-4 427c-12,-2 -25,-3 -38,-3zm-68 12c-46,16 -84,48 -108,88l-367 -216c85,-142 223,-248 387,-290l88 418zm-123 117c-8,20 -13,42 -14,65l-417 -94c8,-46 21,-91 38,-133l393 162zm-13 103c6,44 25,82 53,113l-312 289c-104,-113 -168,-263 -168,-428 0,-10 1,-19 1,-28l426 54zm76 134c17,14 36,25 56,32l-227 363c-35,-19 -68,-41 -98,-66l269 -329zm84 40c15,4 29,5 44,5 24,0 46,-4 67,-11l190 382c-78,35 -165,54 -257,54 -83,0 -162,-16 -234,-45l190 -385zm136 -16c19,-10 37,-22 52,-37l281 319c-32,29 -67,55 -104,77l-229 -359zm75 -64c23,-32 38,-72 39,-114l424 -45c1,13 1,25 1,39 0,162 -61,310 -161,421l-303 -301zm37 -147c-3,-25 -10,-48 -21,-69l404 -136c14,33 24,69 32,105l-415 100zm-39 -97c-23,-31 -56,-56 -93,-69l64 -424c174,38 321,148 409,298l-380 195z"/>
     <path class="fil56" d="M31215 16590c-59,0 -106,47 -106,106 0,59 47,107 106,107 59,0 107,-48 107,-107 0,-59 -48,-106 -107,-106z"/>
    </g>
    <path class="fil45" d="M35875 15238c8,20 13,42 15,69 1,27 -2,59 -16,83 -15,25 -41,42 -85,52 -44,10 -106,12 -159,0 -53,-12 -96,-38 -123,-63 -26,-25 -35,-49 -31,-69 3,-21 21,-38 69,-59 49,-21 130,-46 185,-58 55,-12 86,-10 106,-1 21,9 31,26 39,46z"/>
    <path class="fil57" d="M35925 15350c-111,13 -328,19 -444,17 -115,-1 -128,-9 -133,-20 -6,-10 -3,-23 6,-35 9,-11 25,-20 127,-32 103,-13 291,-29 397,-34 105,-5 128,0 141,10 13,10 17,24 18,42 0,18 -2,39 -112,52z"/>
   </g>
   <polygon class="fil58" points="3889,13758 4045,13758 4045,17609 3889,17609 "/>
   <polygon class="fil58" points="8139,13774 8295,13774 8295,17609 8139,17609 "/>
   <path class="fil57" d="M2846 11054l6662 0c109,0 198,92 198,204l0 2266 0 50 0 328c0,111 -89,203 -198,203l-6662 0c-109,0 -198,-92 -198,-203l0 -328 0 -50 0 -2266c0,-112 89,-204 198,-204z"/>
   <polygon class="fil59" points="48792,19559 2,19559 2,17704 48792,17704 "/>
   <path class="fil57" style="mask:url(#id0)" d="M30385 15712c-109,75 -279,207 -401,285 -122,78 -196,102 -415,208 -220,105 -586,293 -1084,480 -498,188 -1128,375 -1628,488 -500,113 -870,151 -1055,170 -185,20 -185,20 -185,20 0,0 0,0 0,0 0,0 0,0 0,-434 0,-435 0,-1303 0,-1737 0,-434 0,-434 0,-434 0,0 0,0 829,141 828,141 2486,422 3291,571 805,150 757,167 648,242z"/>
   <polygon class="fil60" points="48790,17607 0,17607 0,17709 48790,17709 "/>
   <g>
    <path class="fil61" d="M2937 11136l6495 0c106,0 193,86 193,192l0 2503c0,106 -87,192 -193,192l-6495 0c-106,0 -192,-86 -192,-192l0 -2503c0,-106 86,-192 192,-192z"/>
    <g>
     <path class="fil62" d="M4666 11845c4,52 155,84 -211,332l-98 68c4,-53 70,-214 108,-267 19,-26 49,-40 59,-75 -75,0 -150,1 -225,0 -100,0 -140,-9 -176,59l167 0c-67,100 -40,43 -84,174l-166 501c-6,11 -18,29 -29,40 -34,33 -27,13 -21,27 9,21 -26,18 84,17 129,-1 146,-44 173,-126 40,-120 49,-241 143,-266 5,55 76,245 101,300 96,216 167,192 350,192l0 -42c-92,-2 -160,-161 -190,-236 -22,-54 -36,-103 -55,-161l-47 -170c70,-47 392,-250 302,-361 -39,-47 -100,-8 -185,-6z"/>
     <path class="fil62" d="M7260 12204l0 0zm0 0c7,-88 102,-209 75,-326 -67,-15 -140,1 -192,25 22,60 60,-15 5,147l-111 315c-35,89 -23,99 -81,136 -39,25 -101,56 -154,36 -103,-37 -16,-243 21,-311 27,-49 60,-93 120,-81 0,52 -9,75 -25,109 41,3 51,10 106,-44 177,-172 -251,-231 -401,83 -107,223 -24,378 240,323 116,-24 234,-118 307,-202 59,-66 133,-161 205,-220 21,-18 31,-24 68,-24 -4,53 -78,90 -119,114 -71,42 -93,47 -69,150 23,97 65,183 163,187l91 -2c36,-12 32,-1 15,-23 -1,-1 -8,-8 -11,-11 -10,-10 -17,-14 -26,-25 -34,-41 -77,-150 -77,-223 51,-34 154,-88 172,-154 35,-129 -116,-122 -197,-80 -59,31 -80,71 -125,101z"/>
     <path class="fil62" d="M4882 12312l0 0zm0 0l0 0zm-208 150c0,136 67,167 192,167 170,0 282,-86 369,-173 62,-62 132,-165 183,-217 30,-29 37,-51 90,-52 -7,83 -165,303 -82,399 26,29 94,60 166,43 -24,-35 -34,-22 -34,-83 0,-131 234,-467 50,-467 -171,0 -151,59 -250,125 12,-54 23,-69 0,-117 -103,-24 -99,15 -184,17l0 25c54,14 26,61 6,122 -17,50 -31,85 -51,133 -10,24 -19,41 -30,62 -4,9 -7,16 -13,28 -9,17 -9,19 -20,30 -22,20 -225,119 -225,-33 0,-40 9,-61 16,-92 46,-1 154,-45 186,-65 166,-105 110,-235 31,-235 -82,0 -116,-2 -196,37 -117,59 -204,211 -204,346z"/>
     <path class="fil62" d="M5850 11987c-1,29 -23,87 -33,108l-84 0c-15,29 -26,38 -41,67l100 0c-19,39 -40,99 -56,145 -46,136 -110,287 66,329 42,10 43,9 73,-7 -20,-30 -33,-25 -33,-75 0,-75 26,-143 47,-203l61 -189c161,0 88,-38 133,-37 67,3 -19,168 -35,210 -31,77 -128,286 36,286 82,0 162,-52 214,-103 24,-24 20,-34 53,-56 -31,127 66,175 150,175 57,0 0,-40 0,-91 0,-76 33,-175 55,-237l78 -214c-39,-19 -135,-33 -163,12 -34,56 -77,208 -189,328 -9,10 -115,115 -115,61 0,-72 197,-417 75,-417 -56,0 -75,12 -121,20 -18,3 -99,-4 -137,-4 4,-55 33,-70 33,-142 -61,0 -115,22 -167,34z"/>
     <path class="fil62" d="M7869 12496l0 0zm0 0c-6,63 -80,189 -119,223 -98,84 -185,60 -273,60 -1,33 2,20 -9,42 105,24 233,27 327,-7 187,-68 230,-279 297,-446l98 -270c-10,-32 -128,-26 -151,-8 -17,13 -50,98 -62,122 -21,43 -195,349 -259,285 -38,-38 154,-299 101,-410 -62,-15 -127,-2 -184,25 14,39 44,23 15,98 -47,120 -176,347 -70,399 34,17 88,14 122,4 88,-25 108,-78 167,-117z"/>
     <path class="fil62" d="M8845 12137c0,-21 13,-1 5,0 0,0 -5,23 -5,0zm-492 -434l0 0zm0 0l-9 -8 9 8zm-9 -8l-8 -8 8 8zm-8 -8c-51,-14 -117,-94 -296,-37 -24,8 -22,6 -38,20 42,0 113,-5 151,7 34,11 25,4 33,26 -89,-42 -215,65 -338,5 -49,-24 -42,-42 -71,-63 2,90 94,145 171,162 51,11 111,-2 161,7 22,3 46,18 62,21 29,4 34,-7 73,-7 -8,-31 -4,-19 -33,-34 -79,-41 -86,-32 -184,-32l41 -18c81,-21 171,6 230,55 52,43 -1,7 96,29 -11,-42 -28,-28 -50,-58 34,3 109,33 136,47 34,18 96,49 106,86 -32,3 -52,14 -67,34 129,30 309,115 309,267 -45,-11 -86,-67 -234,-67 10,-8 -4,1 15,-10 9,-6 9,-4 16,-9 25,-15 19,3 28,-31 -81,39 -243,13 -270,-56 -18,-45 6,-68 20,-94 -40,0 -35,-6 -67,-9 -69,103 -31,96 17,167 -94,50 -191,128 -217,242 32,-22 31,-32 56,-60 104,-119 278,-172 428,-99 37,19 39,19 68,49 43,46 32,23 90,18 -13,-17 -60,-43 -83,-50l0 -16c40,0 98,19 108,58 93,-45 25,-11 83,-50 -4,-48 -12,-22 0,-75 -38,-10 -124,-91 -152,-123 -29,-32 -23,-56 -49,-84 -26,-26 -64,-35 -82,-60 37,-3 59,-18 75,-42 -69,0 -81,3 -133,-17 -100,-39 -125,-98 -177,-132 -41,-26 -77,-24 -116,-43 13,35 49,24 84,76z"/>
     <path class="fil62" d="M7844 11862l-9 -9 9 9zm-9 -9l0 0zm9 9c59,14 65,29 150,25 61,-3 91,-29 142,-34l0 -16c-185,-43 -120,24 -265,-36 -90,-37 -220,-36 -227,52 40,-19 80,-33 108,9 -19,28 -13,25 -58,26 -223,5 -313,-242 -627,-136 -46,16 -86,37 -131,52 -179,60 -228,0 -302,-17 9,31 34,44 59,58 227,129 441,-121 692,8 171,88 295,292 645,170 35,-12 34,-16 39,-28 -141,33 -393,40 -476,-83 68,15 206,27 285,9 39,-9 11,12 32,-18 -32,-7 -50,-17 -66,-41z"/>
     <path class="fil62" d="M7752 11962c74,52 325,-23 394,-40 27,-7 57,-15 83,-17 168,-18 71,-3 177,3 28,2 47,-14 80,-21 -32,-43 -148,-34 -209,-34 -88,0 -180,40 -253,64 -79,26 -170,45 -272,45z"/>
     <path class="fil62" d="M5325 12796l83 0 0 17 -83 0 0 -17zm16 -58l75 0 0 16 -75 0 0 -16zm-66 116c214,0 162,-7 184,-100 8,-36 9,-8 -1,-50 -61,-14 -77,-8 -150,-8 -1,55 -32,99 -33,158z"/>
     <path class="fil62" d="M6684 12754l-75 0 0 -16c11,0 31,-2 41,0 23,4 20,4 34,16zm0 0c31,-8 11,-8 42,-16 -10,-38 -48,-47 -99,-42 -57,7 -68,18 -68,83 43,10 52,17 109,17 -21,28 -38,30 -74,16 -40,-16 -40,-32 -68,9 19,27 44,34 92,34 64,0 56,-10 91,-34 0,-13 2,-27 -2,-40 -6,-18 -6,-12 -23,-27z"/>
     <path class="fil62" d="M7043 12738l75 0 0 16 -75 0 0 -16zm-75 116l50 0c3,-32 7,-21 8,-58l50 0c5,54 6,58 59,58 -3,-34 -9,-18 -9,-50 0,-41 34,0 34,-75 0,-49 -101,-33 -150,-33 -3,29 -32,137 -42,158z"/>
     <path class="fil62" d="M5600 12738l0 16 -75 0c19,-26 30,-16 75,-16zm-142 116c68,0 35,-10 58,-58l42 0 18 58 49 0c-8,-16 -15,-44 -17,-66 45,-12 43,-45 34,-84 -59,-13 -56,-8 -126,-8 -25,0 -18,6 -25,24l-33 134z"/>
     <path class="fil62" d="M5758 12813c6,-25 15,-48 17,-75 41,0 81,-5 71,36 -11,40 -41,39 -88,39zm134 -34c0,-99 -56,-83 -150,-83 -5,50 -31,110 -42,158 87,0 136,19 180,-53l12 -22z"/>
     <path class="fil62" d="M6042 12854c140,0 154,18 158,-41l-108 0c37,-50 73,27 75,-59l-58 0c39,-54 114,34 116,-58 -173,0 -140,-14 -164,69 -8,32 -18,53 -19,89z"/>
     <path class="fil62" d="M6334 12813l-67 0c7,-31 16,-38 17,-75l42 0c56,0 21,55 8,75zm-125 41c105,0 219,13 183,-141 -48,-23 -81,-17 -142,-17 0,26 -32,140 -41,158z"/>
     <path class="fil62" d="M5083 12854c25,0 50,22 58,-75 59,16 12,75 100,75l42 -158 -42 0c-7,15 -20,64 -25,83 -39,-28 -75,-172 -113,-13 -9,36 -20,51 -20,88z"/>
     <path class="fil62" d="M7010 11737c110,-26 69,-50 258,-50 85,0 109,36 167,50 -38,-142 -347,-118 -425,0z"/>
     <path class="fil62" d="M6784 12763l0 -25 75 0 0 16c-31,8 -33,9 -75,9zm-75 91l42 0c9,-18 15,-32 17,-58 84,0 133,13 133,-67 0,-49 -101,-33 -150,-33l-42 158z"/>
     <path class="fil62" d="M4916 12804c0,58 18,50 83,50 41,0 59,-21 71,-54 11,-30 23,-75 29,-104l-50 0c-1,69 -19,134 -91,117 1,-47 21,-70 25,-117 -45,0 -40,-4 -51,32 -7,22 -16,50 -16,76z"/>
     <path class="fil62" d="M5892 12779c-1,38 -10,44 -17,75 150,0 157,18 159,-41l-100 0c8,-35 24,-79 25,-117 -79,0 -28,26 -67,83z"/>
     <path class="fil62" d="M7243 12713l0 25 67 0c-9,19 -31,91 -34,116l42 0c8,-17 28,-94 34,-116 57,0 70,14 75,-42l-184 17z"/>
     <path class="fil62" d="M5633 12854l42 0c10,-21 41,-129 42,-158l-42 0 -42 158z"/>
     <path class="fil62" d="M7243 12713l0 -17c-59,0 -47,3 -60,56 -8,31 -22,62 -23,102 71,0 32,-13 72,-120l8 -16c0,-1 2,-4 3,-5z"/>
     <path class="fil62" d="M6893 12854c38,0 40,15 58,-58 9,-32 22,-64 25,-100 -44,0 -37,-14 -57,59 -8,30 -24,70 -26,99z"/>
     <path class="fil62" d="M7944 12829c31,-11 14,-18 42,-50l-10 50c21,-8 5,3 16,-10 1,-1 3,-3 4,-4l6 -11c4,40 -7,16 13,23l29 2c3,-40 13,-26 17,-66 -41,10 -10,14 -50,25l0 -25 -59 15c3,10 4,1 3,14 -1,16 -7,17 -11,37z"/>
    </g>
    <path class="fil57" d="M3564 11595l-63 -268 55 0 40 184 49 -184 64 0 47 187 41 -187 54 0 -64 268 -58 0 -53 -200 -53 200 -59 0zm316 0l0 -268 198 0 0 46 -144 0 0 59 134 0 0 45 -134 0 0 73 149 0 0 45 -203 0zm250 0l0 -265 54 0 0 220 135 0 0 45 -189 0zm398 -99l52 16c-8,30 -21,52 -40,66 -18,14 -42,21 -71,21 -35,0 -64,-12 -87,-36 -23,-24 -35,-57 -35,-100 0,-44 12,-79 35,-103 23,-25 53,-37 91,-37 32,0 59,9 79,29 13,11 22,28 28,49l-54 13c-3,-14 -9,-25 -19,-33 -11,-8 -23,-12 -37,-12 -20,0 -36,7 -48,21 -13,14 -19,38 -19,69 0,34 6,58 18,73 12,14 28,21 48,21 14,0 27,-4 37,-14 10,-9 18,-23 22,-43zm88 -33c0,-27 4,-50 12,-69 6,-14 14,-26 25,-37 10,-10 22,-19 34,-24 17,-7 36,-10 58,-10 40,0 71,12 95,36 24,25 35,59 35,103 0,43 -11,77 -35,101 -23,25 -55,37 -94,37 -40,0 -72,-12 -95,-37 -24,-24 -35,-57 -35,-100zm55 -2c0,30 7,53 21,69 14,16 32,24 54,24 21,0 39,-8 53,-24 14,-15 21,-39 21,-70 0,-30 -7,-53 -21,-68 -13,-16 -31,-23 -53,-23 -23,0 -41,8 -54,23 -14,15 -21,38 -21,69zm246 134l0 -268 81 0 48 183 47 -183 82 0 0 268 -50 0 -1 -211 -52 211 -52 0 -53 -211 0 211 -50 0zm312 0l0 -268 198 0 0 46 -144 0 0 59 134 0 0 45 -134 0 0 73 149 0 0 45 -203 0zm413 0l0 -222 -79 0 0 -46 212 0 0 46 -79 0 0 222 -54 0zm150 -132c0,-27 4,-50 12,-69 6,-14 15,-26 25,-37 11,-10 22,-19 35,-24 17,-7 36,-10 58,-10 39,0 71,12 94,36 24,25 36,59 36,103 0,43 -12,77 -35,101 -24,25 -55,37 -95,37 -39,0 -71,-12 -95,-37 -23,-24 -35,-57 -35,-100zm56 -2c0,30 7,53 21,69 14,16 32,24 53,24 22,0 39,-8 53,-24 14,-15 21,-39 21,-70 0,-30 -7,-53 -20,-68 -14,-16 -31,-23 -54,-23 -22,0 -40,8 -54,23 -13,15 -20,38 -20,69z"/>
    <path class="fil62" d="M3826 13266l48 -5c3,16 9,28 18,36 9,7 21,11 36,11 16,0 28,-3 36,-10 8,-7 12,-15 12,-24 0,-6 -1,-11 -5,-15 -3,-4 -9,-7 -18,-10 -5,-3 -19,-6 -39,-11 -27,-7 -46,-15 -56,-25 -16,-13 -23,-30 -23,-50 0,-12 3,-24 11,-35 7,-11 17,-20 30,-25 14,-6 30,-9 49,-9 31,0 54,7 70,21 15,13 23,32 24,55l-50 1c-2,-12 -7,-21 -13,-27 -7,-6 -18,-8 -32,-8 -14,0 -26,3 -34,9 -5,3 -7,8 -7,15 0,6 2,11 7,15 6,5 21,11 46,17 24,5 42,11 53,17 12,7 21,15 28,26 6,10 9,23 9,39 0,14 -3,27 -11,40 -8,12 -19,21 -34,27 -14,6 -32,9 -53,9 -32,0 -56,-7 -72,-21 -17,-15 -27,-36 -30,-63zm324 -99l0 37 -32 0 0 73c0,15 0,23 1,26 0,2 2,4 4,6 2,1 5,2 8,2 5,0 11,-2 19,-5l4 37c-11,5 -23,7 -37,7 -9,0 -16,-1 -23,-4 -7,-3 -12,-7 -15,-11 -3,-5 -6,-11 -7,-19 -1,-5 -1,-16 -1,-33l0 -79 -22 0 0 -37 22 0 0 -36 47 -28 0 64 32 0zm137 122l47 8c-6,17 -15,31 -28,40 -13,9 -30,13 -49,13 -32,0 -55,-10 -70,-30 -11,-17 -17,-37 -17,-62 0,-30 8,-53 23,-70 15,-17 35,-25 59,-25 26,0 47,9 63,26 15,18 23,45 22,81l-119 0c1,14 5,25 12,33 7,8 16,12 27,12 7,0 14,-2 19,-6 5,-4 9,-11 11,-20zm3 -48c0,-14 -4,-24 -11,-31 -6,-7 -15,-11 -24,-11 -11,0 -19,4 -26,11 -7,8 -10,18 -10,31l71 0zm135 105l-72 -179 49 0 34 91 10 31c2,-8 4,-13 5,-16 1,-5 3,-10 5,-15l34 -91 49 0 -72 179 -42 0zm246 -57l47 8c-6,17 -15,31 -28,40 -13,9 -30,13 -49,13 -32,0 -55,-10 -70,-30 -11,-17 -17,-37 -17,-62 0,-30 8,-53 23,-70 15,-17 35,-25 59,-25 26,0 47,9 63,26 15,18 23,45 22,81l-119 0c1,14 5,25 12,33 7,8 16,12 27,12 7,0 14,-2 19,-6 5,-4 9,-11 11,-20zm3 -48c0,-14 -4,-24 -11,-31 -6,-7 -15,-11 -24,-11 -11,0 -19,4 -26,11 -7,8 -10,18 -10,31l71 0zm249 105l-48 0 0 -92c0,-19 -1,-31 -3,-37 -2,-6 -5,-10 -10,-13 -4,-3 -10,-5 -16,-5 -9,0 -16,2 -23,7 -6,4 -11,10 -13,18 -3,7 -4,21 -4,41l0 81 -47 0 0 -179 44 0 0 26c15,-20 35,-30 59,-30 11,0 20,2 29,5 9,4 15,9 20,15 4,6 7,12 9,20 2,7 3,18 3,32l0 111zm145 0l0 -245 50 0 0 203 124 0 0 42 -174 0zm209 0l0 -48 47 0 0 48 -47 0zm192 -247l99 0c20,0 34,0 44,2 10,2 18,5 26,10 7,5 14,12 19,21 5,8 7,18 7,29 0,11 -3,22 -9,31 -6,10 -15,17 -25,22 15,5 26,12 34,23 9,10 13,23 13,37 0,11 -3,22 -8,33 -6,10 -13,19 -22,25 -9,7 -20,11 -33,12 -9,1 -29,2 -60,2l-85 0 0 -247zm50 41l0 57 33 0c20,0 32,-1 36,-1 9,-1 16,-4 20,-9 5,-5 8,-11 8,-19 0,-8 -2,-14 -7,-19 -4,-5 -10,-7 -18,-8 -5,-1 -19,-1 -43,-1l-29 0zm0 98l0 66 47 0c18,0 29,-1 34,-1 7,-2 13,-5 18,-10 5,-6 7,-13 7,-21 0,-8 -2,-14 -5,-19 -4,-6 -9,-9 -16,-12 -7,-2 -21,-3 -44,-3l-41 0zm303 51l47 8c-6,17 -15,31 -28,40 -14,9 -30,13 -50,13 -31,0 -54,-10 -69,-30 -12,-17 -17,-37 -17,-62 0,-30 7,-53 23,-70 15,-17 35,-25 59,-25 26,0 47,9 63,26 15,18 22,45 22,81l-119 0c1,14 4,25 12,33 7,8 16,12 27,12 7,0 13,-2 18,-6 6,-4 9,-11 12,-20zm3 -48c-1,-14 -4,-24 -11,-31 -7,-7 -15,-11 -24,-11 -11,0 -19,4 -26,11 -7,8 -10,18 -10,31l71 0zm68 54l48 -7c2,9 6,16 12,21 7,5 15,7 26,7 13,0 22,-2 28,-7 4,-3 6,-7 6,-12 0,-4 -1,-7 -3,-9 -3,-3 -8,-5 -16,-7 -38,-8 -62,-16 -73,-23 -14,-9 -21,-23 -21,-40 0,-16 6,-29 18,-39 13,-11 32,-16 57,-16 25,0 43,4 55,12 12,8 20,20 25,35l-45 9c-2,-7 -5,-13 -11,-16 -5,-4 -13,-6 -23,-6 -12,0 -21,2 -27,5 -3,3 -5,6 -5,10 0,3 1,6 5,8 4,4 19,8 44,14 25,6 43,13 53,21 10,8 15,20 15,35 0,17 -7,31 -21,43 -13,11 -34,17 -61,17 -24,0 -43,-5 -58,-15 -14,-9 -23,-23 -28,-40zm256 -196l0 91c15,-18 34,-27 55,-27 11,0 21,2 30,6 9,4 15,9 20,15 4,7 7,14 9,21 2,8 2,20 2,36l0 105 -47 0 0 -95c0,-18 -1,-30 -3,-35 -2,-5 -5,-10 -9,-12 -5,-3 -11,-5 -18,-5 -8,0 -15,2 -21,6 -6,4 -11,9 -14,17 -3,8 -4,19 -4,34l0 90 -47 0 0 -247 47 0zm268 190l47 8c-6,17 -16,31 -29,40 -13,9 -29,13 -49,13 -31,0 -54,-10 -69,-30 -12,-17 -18,-37 -18,-62 0,-30 8,-53 24,-70 15,-17 35,-25 58,-25 27,0 48,9 64,26 15,18 22,45 22,81l-119 0c0,14 4,25 12,33 7,8 16,12 27,12 7,0 13,-2 18,-6 5,-4 9,-11 12,-20zm3 -48c-1,-14 -4,-24 -11,-31 -7,-7 -15,-11 -25,-11 -10,0 -18,4 -25,11 -7,8 -10,18 -10,31l71 0zm120 -19l-42 -8c5,-17 13,-30 25,-39 11,-8 29,-12 52,-12 21,0 37,2 47,7 11,5 18,12 22,19 4,8 7,22 7,43l-1 55c0,16 1,27 2,35 2,7 4,15 9,24l-47 0c-2,-3 -3,-8 -5,-14 -1,-3 -1,-5 -2,-6 -8,8 -16,14 -25,18 -10,4 -19,6 -30,6 -18,0 -33,-5 -43,-15 -11,-10 -16,-22 -16,-38 0,-10 2,-19 7,-27 5,-8 12,-14 20,-18 9,-4 22,-8 38,-11 22,-4 37,-8 46,-12l0 -4c0,-10 -2,-16 -7,-20 -4,-4 -13,-6 -25,-6 -9,0 -15,2 -20,5 -5,3 -9,9 -12,18zm64 38c-6,2 -16,5 -29,7 -13,3 -22,6 -26,9 -6,4 -9,10 -9,16 0,7 3,13 8,18 4,4 11,7 18,7 9,0 17,-3 25,-9 6,-4 9,-9 11,-15 1,-4 2,-12 2,-23l0 -10zm138 86l-47 0 0 -179 44 0 0 25c8,-12 14,-20 20,-24 6,-3 13,-5 21,-5 11,0 21,3 31,9l-14 41c-8,-5 -16,-8 -23,-8 -6,0 -12,2 -17,6 -4,3 -8,10 -11,20 -2,9 -4,29 -4,60l0 55zm70 0l0 -48 48 0 0 48 -48 0zm308 -91l0 -42 107 0 0 99c-10,10 -25,19 -45,27 -20,7 -40,11 -61,11 -25,0 -48,-5 -67,-16 -19,-11 -34,-26 -43,-47 -10,-20 -15,-42 -15,-66 0,-25 6,-48 16,-68 11,-20 27,-36 48,-47 16,-8 35,-12 59,-12 30,0 54,7 72,19 17,13 28,31 33,54l-50 9c-3,-12 -10,-21 -19,-29 -10,-7 -22,-10 -36,-10 -22,0 -39,7 -52,21 -13,14 -19,34 -19,61 0,30 6,52 19,66 13,15 30,22 51,22 11,0 21,-2 32,-6 10,-4 19,-9 27,-15l0 -31 -57 0zm142 -1c0,-16 4,-31 12,-46 7,-15 18,-26 32,-34 15,-7 31,-11 48,-11 27,0 49,9 67,26 17,18 26,40 26,67 0,27 -9,50 -27,68 -17,17 -39,26 -66,26 -16,0 -32,-3 -47,-11 -14,-7 -26,-18 -33,-33 -8,-14 -12,-31 -12,-52zm49 3c0,17 4,31 12,40 9,10 19,15 31,15 13,0 23,-5 31,-15 9,-9 13,-23 13,-41 0,-17 -4,-31 -13,-40 -8,-10 -18,-15 -31,-15 -12,0 -22,5 -31,15 -8,9 -12,23 -12,41zm222 89l-72 -179 50 0 33 91 10 31c3,-8 4,-13 5,-16 2,-5 3,-10 5,-15l34 -91 49 0 -71 179 -43 0zm246 -57l48 8c-6,17 -16,31 -29,40 -13,9 -30,13 -49,13 -31,0 -54,-10 -69,-30 -12,-17 -18,-37 -18,-62 0,-30 8,-53 23,-70 16,-17 35,-25 59,-25 27,0 48,9 63,26 15,18 23,45 22,81l-118 0c0,14 4,25 11,33 7,8 16,12 27,12 8,0 14,-2 19,-6 5,-4 9,-11 11,-20zm3 -48c0,-14 -4,-24 -10,-31 -7,-7 -15,-11 -25,-11 -10,0 -19,4 -26,11 -6,8 -10,18 -9,31l70 0zm131 105l-47 0 0 -179 44 0 0 25c7,-12 14,-20 20,-24 6,-3 13,-5 20,-5 11,0 22,3 32,9l-15 41c-8,-5 -15,-8 -22,-8 -7,0 -13,2 -17,6 -5,3 -8,10 -11,20 -3,9 -4,29 -4,60l0 55zm252 0l-47 0 0 -92c0,-19 -1,-31 -3,-37 -2,-6 -6,-10 -10,-13 -5,-3 -10,-5 -17,-5 -8,0 -15,2 -22,7 -7,4 -11,10 -14,18 -2,7 -3,21 -3,41l0 81 -48 0 0 -179 44 0 0 26c16,-20 36,-30 60,-30 10,0 20,2 28,5 9,4 16,9 20,15 5,6 8,12 9,20 2,7 3,18 3,32l0 111zm37 -92c0,-16 4,-31 12,-46 7,-15 18,-26 33,-34 14,-7 30,-11 47,-11 27,0 49,9 67,26 17,18 26,40 26,67 0,27 -9,50 -26,68 -18,17 -40,26 -66,26 -17,0 -33,-3 -47,-11 -15,-7 -27,-18 -34,-33 -8,-14 -12,-31 -12,-52zm49 3c0,17 4,31 12,40 9,10 19,15 31,15 13,0 23,-5 31,-15 9,-9 13,-23 13,-41 0,-17 -4,-31 -13,-40 -8,-10 -18,-15 -31,-15 -12,0 -22,5 -31,15 -8,9 -12,23 -12,41zm218 89l-47 0 0 -179 44 0 0 25c7,-12 14,-20 20,-24 6,-3 13,-5 21,-5 10,0 21,3 31,9l-15 41c-8,-5 -15,-8 -22,-8 -7,0 -12,2 -17,6 -5,3 -8,10 -11,20 -3,9 -4,29 -4,60l0 55z"/>
    <path class="fil62" d="M3172 13636l96 0c19,0 33,1 42,3 10,1 18,4 25,9 8,5 14,12 19,20 5,9 7,18 7,28 0,12 -3,22 -9,31 -6,10 -14,16 -25,21 15,4 26,12 34,22 8,10 12,22 12,36 0,11 -3,22 -8,32 -5,10 -12,19 -21,25 -8,6 -19,10 -32,11 -8,1 -28,1 -58,2l-82 0 0 -240zm48 40l0 55 32 0c19,0 31,0 35,-1 8,-1 15,-3 20,-8 4,-5 7,-11 7,-19 0,-7 -2,-13 -6,-18 -4,-4 -10,-7 -19,-8 -4,-1 -18,-1 -41,-1l-28 0zm0 95l0 64 45 0c18,0 29,0 33,-1 8,-2 14,-5 18,-10 5,-5 7,-12 7,-20 0,-7 -2,-14 -5,-19 -4,-5 -9,-8 -16,-11 -6,-2 -20,-3 -42,-3l-40 0zm223 -92l0 -43 46 0 0 43 -46 0zm0 197l0 -174 46 0 0 174 -46 0zm166 0l-45 0 0 -174 42 0 0 25c7,-12 14,-20 20,-23 6,-4 12,-6 20,-6 10,0 20,3 30,9l-14 40c-8,-5 -15,-7 -22,-7 -6,0 -12,1 -16,5 -5,3 -8,10 -11,19 -2,9 -4,29 -4,58l0 54zm196 -174l0 37 -32 0 0 70c0,14 1,22 1,25 1,2 2,4 4,6 2,1 5,2 8,2 4,0 11,-2 19,-4l3 35c-10,5 -22,7 -36,7 -8,0 -15,-1 -22,-4 -7,-3 -12,-7 -15,-11 -3,-4 -5,-10 -6,-18 -1,-5 -1,-16 -1,-32l0 -76 -22 0 0 -37 22 0 0 -34 45 -27 0 61 32 0zm107 -66l0 89c15,-18 32,-27 53,-27 11,0 20,2 29,6 8,4 15,9 19,15 5,6 8,13 9,21 2,7 2,18 2,34l0 102 -45 0 0 -92c0,-18 -1,-30 -3,-34 -2,-5 -5,-9 -9,-12 -5,-3 -10,-4 -17,-4 -8,0 -15,1 -21,5 -6,4 -10,9 -13,17 -3,7 -4,18 -4,33l0 87 -46 0 0 -240 46 0zm187 66l43 0 0 26c6,-9 13,-16 23,-22 9,-5 20,-8 31,-8 20,0 37,8 51,24 15,16 22,38 22,66 0,29 -8,52 -22,68 -14,16 -31,24 -51,24 -10,0 -18,-2 -26,-6 -8,-3 -16,-10 -25,-19l0 87 -46 0 0 -240zm45 84c0,20 4,34 12,44 8,9 17,14 28,14 11,0 20,-5 27,-13 7,-9 10,-23 10,-42 0,-19 -3,-32 -11,-41 -7,-9 -16,-13 -27,-13 -11,0 -20,4 -27,13 -8,8 -12,21 -12,38zm191 90l0 -240 46 0 0 240 -46 0zm156 -120l-41 -8c5,-17 13,-29 24,-37 12,-8 29,-13 51,-13 21,0 36,3 46,8 10,5 17,11 21,18 4,8 6,21 6,41l-1 54c0,15 1,26 3,33 1,8 4,15 8,24l-46 0c-1,-3 -2,-8 -4,-14 -1,-2 -1,-4 -2,-5 -7,8 -16,13 -25,17 -9,4 -18,6 -28,6 -18,0 -32,-5 -42,-14 -11,-10 -16,-22 -16,-37 0,-10 3,-19 7,-26 5,-8 12,-14 20,-18 8,-4 21,-8 36,-11 22,-4 37,-8 45,-11l0 -5c0,-9 -2,-15 -7,-19 -4,-4 -12,-5 -24,-5 -8,0 -15,1 -19,4 -5,4 -9,9 -12,18zm62 37c-6,2 -15,4 -28,7 -13,3 -21,5 -25,8 -6,4 -9,9 -9,16 0,6 3,12 7,17 5,4 11,7 19,7 8,0 16,-3 23,-9 6,-4 10,-9 11,-15 1,-4 2,-11 2,-22l0 -9zm271 -39l-45 8c-1,-9 -5,-16 -10,-21 -6,-4 -13,-6 -21,-6 -12,0 -21,4 -28,11 -6,8 -10,22 -10,40 0,21 4,35 11,44 7,8 16,13 27,13 9,0 16,-3 22,-8 5,-5 9,-13 11,-26l46 8c-5,21 -14,37 -27,47 -14,11 -31,16 -54,16 -25,0 -45,-8 -60,-24 -15,-16 -23,-38 -23,-67 0,-28 8,-51 23,-67 15,-16 35,-24 61,-24 21,0 38,5 50,14 13,9 22,23 27,42zm165 67l46 8c-6,16 -15,29 -28,38 -12,9 -28,13 -47,13 -31,0 -53,-10 -67,-30 -12,-15 -18,-35 -18,-59 0,-29 8,-52 23,-68 15,-16 34,-25 57,-25 26,0 46,9 61,26 15,17 22,43 21,78l-114 0c0,14 4,25 11,32 7,8 16,12 26,12 7,0 13,-2 18,-6 5,-4 9,-10 11,-19zm3 -47c0,-13 -4,-23 -10,-30 -7,-7 -15,-10 -24,-10 -10,0 -18,3 -25,11 -6,7 -10,17 -10,29l69 0zm351 13c0,-15 4,-30 11,-45 8,-14 18,-25 32,-32 14,-8 29,-12 46,-12 27,0 48,9 65,26 17,17 25,39 25,65 0,26 -9,48 -25,65 -17,17 -39,26 -64,26 -16,0 -31,-4 -46,-11 -14,-7 -25,-17 -33,-31 -7,-14 -11,-31 -11,-51zm47 2c0,17 4,31 12,40 9,9 19,14 31,14 11,0 22,-5 30,-14 8,-9 12,-23 12,-40 0,-17 -4,-30 -12,-39 -8,-10 -19,-14 -30,-14 -12,0 -22,4 -31,14 -8,9 -12,22 -12,39zm178 -87l25 0 0 -13c0,-15 2,-26 5,-33 3,-7 9,-13 17,-17 8,-5 19,-7 32,-7 13,0 26,2 38,6l-5 32c-8,-2 -15,-3 -22,-3 -7,0 -12,2 -15,5 -3,3 -4,9 -4,18l0 12 34 0 0 36 -34 0 0 138 -46 0 0 -138 -25 0 0 -36zm613 174l-52 0 -20 -55 -96 0 -20 55 -52 0 93 -240 52 0 95 240zm-88 -95l-33 -89 -33 89 66 0zm142 95l0 -240 46 0 0 87c14,-16 30,-25 50,-25 21,0 38,8 52,23 14,16 21,38 21,66 0,30 -7,53 -21,69 -14,16 -31,24 -52,24 -10,0 -19,-3 -29,-8 -10,-5 -18,-12 -25,-22l0 26 -42 0zm45 -90c0,18 3,31 8,40 8,12 19,18 32,18 10,0 19,-4 26,-13 7,-9 11,-23 11,-41 0,-20 -4,-34 -11,-43 -7,-9 -16,-13 -28,-13 -11,0 -20,4 -27,12 -7,9 -11,22 -11,40zm235 90l-46 0 0 -174 42 0 0 25c8,-12 14,-20 20,-23 6,-4 12,-6 20,-6 10,0 20,3 30,9l-14 40c-8,-5 -15,-7 -22,-7 -6,0 -12,1 -16,5 -5,3 -8,10 -11,19 -2,9 -3,29 -3,58l0 54zm150 -120l-42 -8c5,-17 13,-29 24,-37 12,-8 29,-13 51,-13 21,0 36,3 46,8 10,5 17,11 21,18 4,8 6,21 6,41l0 54c0,15 1,26 2,33 1,8 4,15 8,24l-45 0c-2,-3 -3,-8 -5,-14 0,-2 -1,-4 -1,-5 -8,8 -17,13 -25,17 -9,4 -19,6 -29,6 -18,0 -32,-5 -42,-14 -10,-10 -15,-22 -15,-37 0,-10 2,-19 7,-26 4,-8 11,-14 19,-18 9,-4 21,-8 37,-11 21,-4 36,-8 44,-11l0 -5c0,-9 -2,-15 -6,-19 -5,-4 -13,-5 -25,-5 -8,0 -15,1 -19,4 -5,4 -8,9 -11,18zm61 37c-6,2 -15,4 -28,7 -12,3 -21,5 -25,8 -6,4 -9,9 -9,16 0,6 3,12 8,17 4,4 10,7 18,7 8,0 16,-3 24,-9 5,-4 9,-9 11,-15 1,-4 1,-11 1,-22l0 -9zm166 -157l0 89c14,-18 32,-27 53,-27 11,0 20,2 29,6 8,4 15,9 19,15 4,6 7,13 9,21 1,7 2,18 2,34l0 102 -46 0 0 -92c0,-18 0,-30 -2,-34 -2,-5 -5,-9 -10,-12 -4,-3 -10,-4 -16,-4 -8,0 -15,1 -21,5 -6,4 -10,9 -13,17 -3,7 -4,18 -4,33l0 87 -46 0 0 -240 46 0zm223 120l-42 -8c5,-17 13,-29 24,-37 12,-8 29,-13 51,-13 21,0 36,3 46,8 10,5 17,11 21,18 4,8 6,21 6,41l0 54c0,15 0,26 2,33 1,8 4,15 8,24l-46 0c-1,-3 -2,-8 -4,-14 -1,-2 -1,-4 -2,-5 -7,8 -16,13 -25,17 -9,4 -18,6 -28,6 -18,0 -32,-5 -42,-14 -10,-10 -16,-22 -16,-37 0,-10 3,-19 7,-26 5,-8 12,-14 20,-18 9,-4 21,-8 37,-11 21,-4 36,-8 44,-11l0 -5c0,-9 -2,-15 -6,-19 -5,-4 -13,-5 -25,-5 -8,0 -15,1 -19,4 -5,4 -9,9 -11,18zm61 37c-6,2 -15,4 -28,7 -13,3 -21,5 -25,8 -6,4 -9,9 -9,16 0,6 3,12 7,17 5,4 11,7 19,7 8,0 16,-3 23,-9 6,-4 10,-9 11,-15 1,-4 2,-11 2,-22l0 -9zm117 -91l42 0 0 24c15,-18 33,-28 54,-28 11,0 21,3 29,7 8,5 15,12 20,21 8,-9 16,-16 25,-21 8,-4 18,-7 28,-7 13,0 23,3 32,8 9,5 16,13 20,23 3,7 5,19 5,36l0 111 -46 0 0 -99c0,-18 -2,-29 -5,-34 -4,-6 -11,-9 -19,-9 -7,0 -13,2 -19,5 -5,4 -9,10 -12,18 -2,7 -4,19 -4,35l0 84 -45 0 0 -95c0,-17 -1,-28 -3,-33 -2,-5 -4,-8 -8,-11 -3,-2 -8,-3 -13,-3 -8,0 -14,1 -20,5 -5,4 -9,10 -12,17 -2,7 -3,19 -3,35l0 85 -46 0 0 -174zm581 174l0 -238 49 0 0 197 120 0 0 41 -169 0zm232 -197l0 -43 46 0 0 43 -46 0zm0 197l0 -174 46 0 0 174 -46 0zm281 0l-46 0 0 -89c0,-18 -1,-31 -3,-36 -2,-6 -5,-10 -9,-13 -5,-3 -10,-4 -17,-4 -8,0 -15,2 -21,6 -7,4 -11,10 -13,17 -3,8 -4,21 -4,40l0 79 -46 0 0 -174 43 0 0 26c15,-20 34,-30 57,-30 10,0 20,2 28,6 9,4 15,8 19,14 5,6 8,12 9,19 2,7 3,18 3,31l0 108zm227 -122l-45 8c-1,-9 -5,-16 -10,-21 -6,-4 -13,-6 -21,-6 -12,0 -21,4 -28,11 -6,8 -10,22 -10,40 0,21 4,35 11,44 7,8 16,13 27,13 9,0 16,-3 22,-8 5,-5 9,-13 11,-26l46 8c-5,21 -14,37 -27,47 -14,11 -31,16 -54,16 -25,0 -45,-8 -60,-24 -15,-16 -23,-38 -23,-67 0,-28 8,-51 23,-67 15,-16 35,-24 61,-24 21,0 38,5 50,14 13,9 22,23 27,42zm54 33c0,-15 4,-30 11,-45 8,-14 19,-25 32,-32 14,-8 29,-12 46,-12 27,0 48,9 65,26 17,17 25,39 25,65 0,26 -8,48 -25,65 -17,17 -39,26 -64,26 -16,0 -31,-4 -46,-11 -14,-7 -25,-17 -33,-31 -7,-14 -11,-31 -11,-51zm47 2c0,17 4,31 13,40 8,9 18,14 30,14 12,0 22,-5 30,-14 8,-9 12,-23 12,-40 0,-17 -4,-30 -12,-39 -8,-10 -18,-14 -30,-14 -12,0 -22,4 -30,14 -9,9 -13,22 -13,39zm198 87l0 -240 46 0 0 240 -46 0zm280 0l-45 0 0 -89c0,-18 -1,-31 -3,-36 -2,-6 -6,-10 -10,-13 -4,-3 -10,-4 -16,-4 -8,0 -15,2 -22,6 -6,4 -10,10 -13,17 -2,8 -3,21 -3,40l0 79 -46 0 0 -174 42 0 0 26c16,-20 35,-30 58,-30 10,0 19,2 28,6 8,4 15,8 19,14 4,6 7,12 9,19 2,7 2,18 2,31l0 108z"/>
    <polygon class="fil57" points="2745,13474 9625,13474 9625,13521 2745,13521 "/>
    <path class="fil63" d="M4894 12272c8,-15 21,-38 36,-57 14,-19 31,-35 47,-44 16,-9 30,-12 41,-9 10,4 18,13 17,26 -1,13 -9,30 -23,43 -14,14 -34,24 -56,36 -23,12 -49,25 -61,27 -12,3 -9,-6 -1,-22z"/>
   </g>
   <path class="fil64" d="M45979 15352c131,80 275,106 348,350 90,307 -117,477 -134,530 32,30 49,40 97,62 64,-177 112,-472 140,-671 -362,-69 -268,-507 20,-505 138,1 245,104 252,237 7,141 -86,249 -222,266l30 287c52,-54 63,-96 104,-129 -123,-84 -5,-258 121,-190 88,49 81,241 -107,205l-128 298 281 -112c-10,-144 2,-274 162,-327 150,-50 277,37 317,140 130,330 -349,478 -457,213 -76,51 -137,79 -208,133 -91,68 -122,82 -125,233 368,36 604,-66 753,-274 400,-557 -49,-1224 -640,-1176 -259,21 -561,220 -604,430z"/>
   <path class="fil65" d="M46430 15623c-28,199 -76,494 -140,671l-48 85c-82,11 -103,-29 -132,-80 -76,-69 -42,-266 -34,-380l6 -153c-27,42 -30,100 -40,149l-53 230 -132 -119 -100 -82c26,50 52,64 69,112 69,69 146,187 205,269 178,181 164,492 158,768 -11,470 -143,389 -411,516l1164 0c-189,-142 -401,-72 -442,-420 -25,-219 -49,-600 -30,-817 3,-151 34,-165 125,-233 71,-54 132,-82 208,-133l139 -86 -161 60 -281 112 128 -298 -14 -15c-41,33 -52,75 -104,129l-30 -287 -13 -180c-23,42 -28,127 -37,182z"/>
   <path class="fil66" d="M46031 16325c-59,-82 -136,-200 -205,-269 -17,-48 -43,-62 -69,-112l100 82 132 119 53 -230c10,-49 13,-107 40,-149l-6 153c-8,114 -42,311 34,380 9,-28 -8,-12 25,-39 39,-32 16,-14 58,-28 17,-53 224,-223 134,-530 -73,-244 -217,-270 -348,-350 -214,-17 -336,-12 -475,112 -175,156 -241,424 -100,654 155,254 381,257 627,207z"/>
   <path class="fil67" d="M44450 13077c226,590 288,740 262,1456 -138,-165 -176,-499 -370,-707 -42,-17 -32,-23 -26,23 91,248 220,444 307,764 60,220 117,730 32,926 -237,-395 -379,-817 -950,-803l-21 69c345,47 439,192 607,360 134,133 284,377 335,613 58,271 -55,1484 -81,1838l514 -11c-33,-673 -64,-1343 -82,-2019 -12,-473 -43,-545 226,-834 209,-226 228,-279 620,-401 12,-61 41,-25 -33,-40 -420,5 -545,203 -804,357 14,-291 31,-620 161,-852 123,-219 280,-413 422,-556l-42 -27c-170,160 -571,561 -643,764 -67,-80 -71,-171 -95,-272 -50,-208 -196,-566 -309,-706l-30 58z"/>
   <path class="fil68" d="M44450 13077l30 -58 14 -73c651,65 666,-842 -61,-706 -76,-462 -762,-435 -723,144 -707,15 -485,875 40,722 164,-48 68,-71 187,-7 97,53 135,86 275,70 108,-13 165,-68 238,-92z"/>
   <path class="fil69" d="M45790 14311c74,15 45,-21 33,40 301,25 216,41 472,-54 279,310 540,-23 572,-48 142,-111 188,9 351,-118 301,-233 158,-734 -364,-650 -106,-160 -161,-354 -458,-300 -233,42 -297,218 -297,452 -208,-4 -343,68 -409,225 -82,195 40,336 100,453z"/>
   <path class="fil68" d="M43684 14805l21 -69c15,-340 -192,-493 -536,-422 -102,-472 -753,-415 -727,145 -586,-1 -540,646 -155,731 171,38 179,-25 287,-46 102,-19 80,48 209,86 225,66 383,-54 449,-209 263,21 342,-54 452,-216z"/>
   <path class="fil69" d="M45527 13233l42 27c390,-202 399,186 685,-94 139,-135 24,-46 217,-92 379,-90 289,-657 -183,-578 -101,-124 -139,-278 -373,-243 -202,29 -228,177 -260,367 -202,7 -327,72 -342,268 -17,217 104,247 214,345z"/>
   <path class="fil70" d="M46781 15980l161 -60 -139 86c108,265 587,117 457,-213 -40,-103 -167,-190 -317,-140 -160,53 -172,183 -162,327z"/>
   <path class="fil70" d="M46430 15623c9,-55 14,-140 37,-182l13 180c136,-17 229,-125 222,-266 -7,-133 -114,-236 -252,-237 -288,-2 -382,436 -20,505z"/>
   <path class="fil68" d="M44316 13849c-6,-46 -16,-40 26,-23 58,-281 61,-487 -315,-438 -247,-366 -502,-249 -550,108 -450,26 -367,561 10,517 187,-21 31,-44 215,16 279,90 260,-73 397,-122 39,-14 167,-43 217,-58z"/>
   <path class="fil70" d="M46614 15779l14 15c188,36 195,-156 107,-205 -126,-68 -244,106 -121,190z"/>
  </g>
 </g>
</svg>
