<?xml version="1.0" encoding="UTF-8"?>
<!DOCTYPE svg PUBLIC "-//W3C//DTD SVG 1.1//EN" "http://www.w3.org/Graphics/SVG/1.1/DTD/svg11.dtd">
<!-- Creator: CorelDRAW X8 -->
<svg xmlns="http://www.w3.org/2000/svg" xml:space="preserve" width="4879px" height="1956px" version="1.1" style="shape-rendering:geometricPrecision; text-rendering:geometricPrecision; image-rendering:optimizeQuality; fill-rule:evenodd; clip-rule:evenodd"
viewBox="0 0 48792 19559"
 xmlns:xlink="http://www.w3.org/1999/xlink">
 <defs>
  <style type="text/css">
   <![CDATA[
    .str0 {stroke:#373435;stroke-width:41.6561}
    .str2 {stroke:#313131;stroke-width:41.6561}
    .str1 {stroke:#424242;stroke-width:20.8339}
    .str3 {stroke:black;stroke-width:8.9997}
    .str4 {stroke:#B5EEFF;stroke-width:8.9997}
    .str5 {stroke:#E6E6E6;stroke-width:8.9997}
    .str6 {stroke:#CCCCCC;stroke-width:20.8339;stroke-linecap:round;stroke-linejoin:round}
    .fil16 {fill:none}
    .fil12 {fill:#373435}
    .fil19 {fill:#EFB783}
    .fil71 {fill:black}
    .fil62 {fill:#005DBA}
    .fil61 {fill:#0080FF}
    .fil34 {fill:#0B3859}
    .fil63 {fill:#121212}
    .fil46 {fill:#121710}
    .fil22 {fill:#1369B6}
    .fil53 {fill:#1B1B1C}
    .fil30 {fill:#1C1C1C}
    .fil26 {fill:#20547B}
    .fil6 {fill:#313131}
    .fil29 {fill:#33322E}
    .fil35 {fill:#333333}
    .fil25 {fill:#362D24}
    .fil27 {fill:#3689BB}
    .fil67 {fill:#374047}
    .fil21 {fill:#3890D0}
    .fil76 {fill:#392211}
    .fil9 {fill:#424242}
    .fil5 {fill:#464646}
    .fil13 {fill:#4A4A4A}
    .fil72 {fill:#4CA82B}
    .fil39 {fill:#4D4D4D}
    .fil38 {fill:#525252}
    .fil14 {fill:#5C707B}
    .fil79 {fill:#63795B}
    .fil15 {fill:#71848B}
    .fil7 {fill:#757575}
    .fil54 {fill:#767B7F}
    .fil31 {fill:#797977}
    .fil48 {fill:#7A838A}
    .fil77 {fill:#7FA53D}
    .fil40 {fill:gray}
    .fil74 {fill:#80A43E}
    .fil78 {fill:#94A980}
    .fil73 {fill:#990000}
    .fil55 {fill:#99A3AC}
    .fil49 {fill:#9CADB7}
    .fil75 {fill:#9EC73B}
    .fil56 {fill:#AAB5C5}
    .fil52 {fill:#ADBACA}
    .fil37 {fill:#B5EEFF}
    .fil23 {fill:#B96F48}
    .fil58 {fill:#BABABA}
    .fil51 {fill:#BACADA}
    .fil45 {fill:#C1C2C9}
    .fil17 {fill:#C1CFCF}
    .fil32 {fill:#C77066}
    .fil3 {fill:#C8382F}
    .fil10 {fill:#CACACA}
    .fil36 {fill:#CCCCCC}
    .fil66 {fill:#CCD5DC}
    .fil44 {fill:#CDCED3}
    .fil60 {fill:#CFB175}
    .fil50 {fill:#D2D7DD}
    .fil4 {fill:#DF7E77}
    .fil2 {fill:#DFE9EB}
    .fil33 {fill:#E09474}
    .fil43 {fill:#E0E7ED}
    .fil1 {fill:#E6E6E6}
    .fil41 {fill:#E6EEF1}
    .fil20 {fill:#EC9956}
    .fil28 {fill:#ECB31E}
    .fil24 {fill:#EDD89F}
    .fil11 {fill:#EFEFEF}
    .fil42 {fill:#F1FAFF}
    .fil0 {fill:#F2F2F2}
    .fil47 {fill:#F2FBFF}
    .fil69 {fill:#F7AE21}
    .fil68 {fill:#F7AE21}
    .fil70 {fill:#FD711B}
    .fil64 {fill:#FFCC00}
    .fil8 {fill:white}
    .fil57 {fill:white}
    .fil18 {fill:#464646;fill-rule:nonzero}
    .fil65 {fill:white;fill-rule:nonzero}
    .fil59 {fill:#BABABA}
   ]]>
  </style>
   <mask id="id0">
  <linearGradient id="id1" gradientUnits="userSpaceOnUse" x1="25617.3" y1="16060.5" x2="30445.5" y2="16060.5">
   <stop offset="0" style="stop-opacity:0; stop-color:white"/>
   <stop offset="1" style="stop-opacity:1; stop-color:white"/>
  </linearGradient>
    <rect style="fill:url(#id1)" x="25607" y="14748" width="4849" height="2625"/>
   </mask>
 </defs>
 <g id="Слой_x0020_1">
  <metadata id="CorelCorpID_0Corel-Layer"/>
  <rect class="fil0" x="2" width="48790" height="19559"/>
  <path class="fil1" d="M16185 5788l36 272c53,105 631,-273 1026,-35 -9,150 -21,19 -51,152 -21,95 11,387 13,484 2,144 34,133 35,299l3 4322c-4,293 -24,268 59,297 89,-171 -43,-571 54,-741 1,207 45,305 40,468 -9,330 -30,231 262,261 78,117 26,83 207,124 98,22 167,40 274,42l27 -779 215 -43 12 -644c66,-6 107,-20 172,-13 387,43 223,-34 470,32 451,122 1562,369 1887,501l7 519 202 57c0,170 -20,440 17,597 137,8 978,-120 1137,-162l31 -410 395 -39c18,-202 -46,-242 123,-272 120,-22 233,-39 343,-40 48,51 140,68 228,93 656,183 421,30 507,382l378 56 24 2619c96,-12 242,-5 319,-22 187,-41 16,-92 208,-37 165,47 370,49 525,88l26 489c56,-12 101,29 223,-16 391,-144 212,128 499,41l-2 -1495c377,-45 736,-102 1124,-128 434,-29 558,61 1001,175l43 267c-2,61 -11,-29 -2,57l7 585c13,135 -33,-28 -9,144 17,124 30,20 -15,161l205 -15 46 -147 371 -12c113,-410 115,-1002 171,-1450 16,-131 47,-246 60,-349l66 -748c17,-139 43,-197 64,-312 41,-219 0,-836 49,-972 100,-280 187,-1492 242,-1872 95,113 43,49 60,222 8,84 54,148 93,478 36,303 177,833 191,1228l-128 48c59,145 123,-12 172,159l407 2954c101,667 -9,716 429,795 -84,150 -119,241 142,198l21 -77c231,-3 323,-24 379,-43l46 -22c67,-137 7,-955 22,-1194 253,-60 45,18 145,-123 58,-82 88,-46 196,-57l788 44c4,6 7,16 8,21l43 144c296,21 344,-14 392,128 11,33 -7,6 20,61 25,50 0,7 33,48 73,90 -17,-50 41,39 5,166 -34,226 73,327 94,-29 134,-84 206,-97 53,-9 188,16 272,20l30 -204c168,-16 434,29 553,-3l47 -153c2,-11 6,-14 10,-20 87,13 67,-8 113,93 2,4 6,23 7,19 1,-4 3,13 7,19l63 -72c3,-11 8,-13 13,-20l44 58 32 -49c84,40 21,1 75,80l27 -123c58,0 75,-8 134,20l70 59 81 -100c122,29 7,30 99,38 80,6 16,-7 124,-26l214 128c130,136 -70,-22 40,54 71,-39 24,-72 102,-91 29,80 -1,115 124,101 134,-16 33,-6 70,-41 62,-56 -29,-11 46,-51 123,-67 216,92 268,143 101,7 174,2 254,21 367,84 112,33 378,-133 148,-92 542,-56 639,-26 104,32 125,79 233,98l45 -201c77,-31 275,-2 332,0 93,2 -4,2 61,-5 322,-33 150,56 395,2 141,-31 103,-17 223,30l35 -1039 395 -14 10 -196 488 3c46,125 -28,159 97,181 53,9 176,-23 227,-24 26,342 -41,1050 16,1313l398 -4 43 -112 305 34c84,-133 58,-44 153,-113l41 -1505 594 -26c552,0 386,42 463,-137 176,1 353,-4 528,-1 457,8 259,93 374,133 198,28 522,15 744,18 166,3 214,-28 357,-38 259,-19 97,-5 227,-108 169,50 -34,54 176,75 177,17 488,-13 698,3 98,212 -43,1473 24,1829l428 6 81 146 100 -113c1,-8 6,-11 11,-15 90,16 45,63 255,32l34 -555c-81,2 -207,80 -278,-49 108,-75 113,6 284,-4l79 -5176c91,-72 -30,8 106,-40 5,-1 17,1 21,-7 3,-8 14,-4 20,-8 -74,-185 -41,-57 -15,-209 23,-133 -18,-115 -34,-220 255,-112 182,-33 285,-65 144,-45 -40,-43 139,-63 99,-11 197,52 289,-98 44,-74 12,-84 42,-154 41,78 0,92 57,168 17,22 92,77 120,93 0,0 467,-126 539,334 21,129 -78,94 27,332 67,150 63,242 61,416 -8,799 -55,5335 9,5489 136,-10 110,-6 110,-150l33 -2518c2,-296 -29,-319 31,-434 39,-76 20,9 38,-82 51,-257 -49,-107 127,-221l4 -225 147 -43c12,-308 268,-473 458,-516 146,-33 122,30 246,57l0 4848 2 0 0 4766 -48790 0 0 -3268 0 -1498 0 -5609c206,-20 288,-44 503,-4 165,30 336,58 513,83l40 -107c2,-6 18,-64 21,-75 14,-66 11,-132 11,-213 0,-429 -52,-436 266,-529l0 -224 -185 51c-4,-6 -6,-15 -8,-20l-71 -168c328,-81 -6,-63 546,-108 194,-16 423,-33 602,-26 220,10 434,16 654,22 223,6 328,92 545,94 -17,69 -27,187 -77,227 -83,65 -132,-5 -180,122 46,124 111,63 231,118 50,131 10,356 17,518 6,120 27,115 39,207 9,72 3,174 4,249 7,334 18,673 45,1006 24,294 4,700 1,1002 -1,177 6,356 1,534 -7,227 -51,291 196,306 6,-167 41,-236 43,-408l55 -1308c45,-70 187,-85 262,-105l-10 -263c-89,-27 -247,-59 -295,-127 103,-78 311,-83 470,-109l30 -230c199,6 199,31 269,44l1 -331c6,6 11,14 15,20l29 36c57,65 55,66 143,38 45,-99 18,-276 37,-401 23,77 6,110 92,114 107,4 58,-15 104,-91l47 73 46 -126c20,123 -7,110 124,99l99 -16c15,-1 24,5 75,-2l12 -215 127 -5c34,46 35,133 40,155 13,56 7,54 66,77 64,26 56,2 120,36 79,43 -8,17 70,61 46,-220 -14,-418 62,-513l4 521c40,20 71,38 124,50 33,7 44,6 69,11 7,1 17,3 23,5 6,1 18,12 22,5 4,-6 15,3 22,6 -1,194 -28,350 121,286 58,-25 34,-27 69,-76l5 253c6,5 35,24 40,28 6,5 143,184 220,29 17,100 -10,66 41,143 372,41 428,-41 556,-27 170,19 273,103 298,259 105,6 155,8 254,31l151 51 106 1543c10,213 -29,1265 17,1464 32,142 320,76 437,48 16,-380 3,-802 1,-1186 -1,-236 -73,-696 125,-778 82,-34 133,16 163,39l26 24c63,-23 77,-25 140,-60 84,-47 -3,-39 149,-54 56,-158 -18,-87 140,-134 156,-46 1,-64 179,-90 36,-6 137,0 180,0l25 90c21,-16 68,-56 132,19 4,5 8,11 12,16 32,51 17,69 34,119 12,-18 10,-1 22,-58 21,-100 -50,-1779 -9,-2070 74,-56 28,-7 108,-37 7,-298 14,-556 -106,-759l210 -46 -37 -185c81,-62 110,-34 107,-181 27,-29 11,-4 33,-49 40,-81 73,-345 133,-400 124,-82 403,-125 576,-120 128,175 59,118 317,133l400 5c30,111 74,228 111,347 13,43 42,148 55,176 42,97 0,23 52,73l57 46c-120,185 -4,190 164,196 -117,213 -55,452 -57,723 83,21 143,-68 124,245 -10,160 -2,276 8,434 16,255 -13,513 9,780l38 1669 391 -35 -22 -1704c164,-96 590,-77 748,-116 86,-22 34,-11 77,-30 204,-90 285,-24 476,-62 31,-424 180,-59 155,-555 -23,-489 63,-273 54,-558 4,-92 19,-123 40,-187 46,-140 175,-229 332,-256l-35 -1336c115,-93 79,20 69,-407l1 -813c1,-367 -64,-159 -126,-325 481,-34 1060,106 1154,87l5 -295c66,-33 385,-103 446,-85 102,30 254,115 371,156z"/>
  <g id="_2038595160160">
   <path class="fil2" d="M22407 15887c49,2 131,5 187,3 57,-2 88,-7 106,-15 18,-7 23,-17 15,-33 -9,-16 -29,-40 -58,-70 -29,-31 -67,-68 -105,-100 -38,-32 -77,-57 -116,-81 -40,-25 -79,-48 -116,-69 -37,-20 -72,-38 -106,-53 -35,-15 -69,-27 -94,-35 -24,-8 -39,-11 -57,-13 -18,-1 -40,-1 -68,-1 -28,0 -61,1 -85,5 -24,3 -39,10 -50,18 -11,8 -18,18 -19,35 0,17 5,41 23,71 18,30 48,65 83,100 34,34 73,68 117,102 44,34 93,69 138,91 45,22 86,31 114,37 28,5 43,6 91,8z"/>
   <rect class="fil3" x="16149" y="13496" width="526" height="561" rx="62" ry="59"/>
   <polygon class="fil4" points="16220,13496 16603,13496 16603,13784 16220,13784 "/>
   <path class="fil5" d="M11426 15219c-16,-13 -21,-40 -24,-70 -2,-29 -2,-60 3,-88 5,-28 15,-53 28,-73 13,-19 29,-33 48,-43 19,-10 41,-15 190,-17 149,-2 425,-1 569,-1 144,-1 156,-4 256,-43 100,-39 289,-114 521,-205 233,-92 509,-198 781,-294 272,-96 540,-180 775,-242 234,-61 434,-98 625,-128 190,-29 369,-50 543,-62 95,-7 187,-11 283,-13 -1,-2 -1,-4 -1,-6l0 0c0,-36 30,-66 67,-66l617 0c36,0 66,30 66,66l0 0c0,8 -1,16 -4,23 30,2 60,5 90,8 194,20 375,52 551,94 176,42 346,92 519,159 173,67 349,151 528,250 178,100 359,216 522,322 162,106 307,202 379,251 73,48 73,48 73,48 0,0 0,0 0,0 0,0 0,0 347,38 348,39 1043,115 1481,173 437,57 617,95 707,114 89,18 89,18 89,18 0,0 0,0 -30,0 -31,0 -92,0 -124,10 -33,10 -37,30 -19,71 19,41 59,103 109,157 50,54 110,100 165,134 54,33 104,56 196,66 93,10 228,9 296,8 68,0 68,0 68,0 0,0 0,0 0,0 0,0 0,0 10,19 10,20 31,59 39,120 8,61 3,145 0,186 -3,42 -3,42 -3,42 0,0 0,0 7,0 6,0 19,0 26,0 7,0 7,0 7,0 0,0 0,0 0,49 0,49 0,146 0,195 0,49 0,49 0,49 0,0 0,0 0,0 0,0 0,0 -6,-1 -6,-2 -18,-4 -24,-6 -6,-1 -6,-1 -6,-1 0,0 0,0 0,0 0,0 0,0 0,35 0,35 0,106 -4,161 -3,55 -11,96 -24,131 -13,35 -32,65 -54,89 -22,24 -48,42 -82,58 -34,16 -75,29 -187,42 -111,13 -292,26 -382,32 -91,7 -91,7 -91,7 0,0 0,0 -13,-7 -14,-6 -42,-19 -55,-26 -14,-6 -14,-6 -14,-6 0,0 0,0 -10,0 -11,1 -32,2 -42,3 -10,1 -10,1 -284,10 -275,9 -823,27 -1097,36 -274,9 -274,9 -274,9 0,0 0,0 -2,7 -3,8 -8,22 -11,29 -2,7 -2,7 -2,7 0,0 0,0 -935,-10 -934,-11 -2802,-31 -3774,-44 -971,-12 -1045,-16 -1082,-18 -37,-2 -37,-2 -280,-6 -242,-5 -726,-14 -1059,-27 -332,-13 -513,-30 -747,-56 -233,-25 -518,-59 -685,-82 -167,-24 -217,-37 -257,-54 -39,-18 -69,-40 -89,-63 -19,-23 -28,-46 -28,-180 0,-134 9,-379 18,-514 9,-134 18,-159 56,-205 39,-45 107,-112 209,-203 102,-91 239,-207 314,-281 74,-73 87,-104 87,-130 -1,-25 -15,-45 -47,-59 -32,-14 -81,-23 -141,-20 -60,3 -131,19 -179,27 -49,9 -77,10 -93,-3z"/>
   <path class="fil6" d="M22281 15858c21,5 44,9 71,12l13 1 0 1 -688 214 0 -39 604 -189z"/>
   <path class="fil6" d="M11325 15835c10,-10 21,-21 33,-33l1180 198 356 180 -20 35 -367 -184 -1182 -196z"/>
   <path class="fil7" d="M21879 15454c-11,12 -9,30 3,59 19,41 59,103 109,157 26,29 56,55 85,78l8 8c0,0 0,0 -93,-2 -93,-2 -278,-7 -370,-9 -93,-2 -93,-2 -93,-2 0,0 0,0 -27,-13 -26,-13 -79,-39 -133,-56 -55,-18 -111,-28 -179,-35 -69,-7 -150,-12 -223,-6 -72,5 -137,20 -186,33 -49,13 -83,25 -99,31 -17,5 -17,5 -17,5 0,0 0,0 -171,-4 -172,-4 -515,-12 -686,-16 -172,-4 -172,-4 -172,-4 0,0 0,0 0,0 0,0 0,0 -11,-35 -12,-35 -35,-106 -61,-171 -27,-66 -57,-127 -94,-183 -36,-56 -79,-106 -100,-131 -22,-26 -22,-26 -22,-26 0,0 0,0 66,4 66,4 198,11 345,20 147,9 310,19 480,35 170,15 347,36 517,58 170,22 335,45 488,70 153,24 295,51 412,78 94,21 172,43 224,57z"/>
   <path class="fil3" d="M11515 15153c56,-7 139,-12 201,-13 62,0 102,3 137,14 36,10 66,27 88,48 22,21 36,46 43,60 7,14 7,18 2,28 -6,10 -18,25 -54,57 -37,32 -98,80 -164,134 -66,53 -136,112 -194,159 -59,46 -106,82 -141,108 -35,27 -59,45 -70,54 -12,9 -12,9 -12,9 0,0 0,0 6,-97 6,-98 17,-293 26,-399 8,-106 13,-123 30,-136 17,-12 46,-20 102,-26z"/>
   <path class="fil8" d="M11980 15253c1,3 3,6 4,9 7,14 7,18 2,28 -5,8 -15,21 -41,45l-564 0 2 -20c2,-26 4,-46 5,-62l592 0zm-337 330c-24,20 -48,39 -69,57 -12,8 -22,17 -33,25l-181 0 5 -82 278 0z"/>
   <circle class="fil9" cx="13642" cy="16725" r="891"/>
   <circle class="fil10 str0" cx="13642" cy="16725" r="625"/>
   <path class="fil11" d="M16726 15119c14,59 40,165 64,296 24,132 46,290 59,469 12,180 15,382 13,513 -1,27 -1,52 -2,74l-1701 0 3 24 1697 -3c-2,37 -4,66 -7,92l-1690 0 0 67 1681 0c-10,61 -22,124 -29,156 -6,32 -6,32 -6,32 0,0 0,0 0,0 0,0 0,0 -297,0 -297,0 -891,0 -1188,0 -297,0 -297,0 -297,0 0,0 0,0 0,0 0,0 0,0 -28,-70 -28,-70 -83,-209 -188,-408 -105,-199 -259,-459 -402,-681 -143,-223 -276,-409 -351,-514 -75,-105 -92,-128 -86,-140 5,-12 32,-12 487,-5 455,6 1338,19 1785,23 446,3 457,-4 462,0 6,3 8,16 21,75zm77 63c16,75 44,200 65,338 20,138 35,289 42,408 7,119 7,206 5,313 -1,72 -3,153 -8,230l2663 0c2,-20 3,-40 4,-61 8,-176 6,-385 -3,-542 -8,-157 -22,-261 -53,-352 -31,-91 -78,-170 -126,-232 -49,-63 -100,-109 -125,-133 -26,-23 -26,-23 -26,-23 0,0 0,0 0,0 0,0 0,0 0,0 0,0 0,0 -411,-12 -410,-12 -1232,-35 -1643,-47 -411,-12 -411,-12 -411,-12 0,0 0,0 3,13 3,12 8,37 24,112zm103 1310c-2,29 -4,58 -7,85l0 7 2662 0c3,-30 6,-63 8,-97l-2663 5zm-15 159c-9,67 -19,118 -25,148 -8,40 -8,40 -8,40 0,0 0,0 0,0 0,0 0,0 445,4 445,5 1334,14 1779,18 444,5 444,5 444,5 0,0 0,0 0,0 0,0 0,0 10,-70 5,-34 12,-84 19,-145l-2664 0z"/>
   <rect class="fil10" x="14343" y="15207" width="586" height="131"/>
   <rect class="fil12" x="14423" y="15251" width="425.773" height="42.9671"/>
   <rect class="fil10" x="16976" y="15254" width="586" height="131"/>
   <rect class="fil12" x="17057" y="15298" width="425.773" height="42.9671"/>
   <polygon class="fil13" points="13501,17239 13796,17239 13654,16852 "/>
   <polygon class="fil13" points="13156,16891 13315,17140 13564,16810 "/>
   <polygon class="fil13" points="14137,16891 13978,17140 13729,16811 "/>
   <polygon class="fil13" points="14091,16427 14193,16704 13780,16703 "/>
   <polygon class="fil13" points="13198,16425 13096,16702 13509,16701 "/>
   <polygon class="fil13" points="13984,16303 13714,16185 13690,16597 "/>
   <polygon class="fil13" points="13291,16303 13561,16185 13585,16597 "/>
   <path class="fil14" d="M14099 14975c159,8 450,8 595,8 145,0 145,0 145,0 0,0 0,0 0,0 0,0 0,0 -21,-128 -22,-128 -65,-385 -86,-513 -22,-128 -22,-128 -22,-128 0,0 0,0 0,0 0,0 0,0 -75,21 -75,20 -224,62 -337,98 -113,36 -188,66 -251,99 -62,33 -112,69 -148,109 -37,40 -60,83 -71,128 -11,46 -10,94 2,139 12,45 34,87 59,115 24,29 52,45 210,52z"/>
   <path class="fil15" d="M14565 14983c49,0 93,0 129,0 145,0 145,0 145,0 0,0 0,0 0,0 0,0 0,0 -21,-128 -22,-128 -65,-385 -86,-513 -22,-128 -22,-128 -22,-128 0,0 0,0 0,0 0,0 0,0 -75,21 -75,20 -224,62 -337,98 -70,22 -126,42 -173,62l440 588z"/>
   <path class="fil14" d="M14826 14381c23,131 65,367 87,484 21,118 22,118 23,118 1,0 1,0 1,0 0,0 0,0 255,3 255,4 765,10 1021,14 255,3 255,3 255,3 0,0 0,0 0,0 0,0 0,0 -14,-164 -15,-163 -43,-490 -58,-653 -14,-164 -14,-164 -14,-164 0,0 0,0 0,0 0,0 0,0 -81,4 -82,3 -245,9 -416,20 -172,11 -353,27 -517,48 -164,21 -312,47 -405,65 -93,18 -132,29 -151,34 -20,5 -20,5 -20,5 0,0 0,0 3,13 2,13 8,39 31,170z"/>
   <path class="fil15" d="M14826 14381c23,131 65,367 87,484 21,118 22,118 23,118 1,0 1,0 1,0 0,0 0,0 255,3l321 5 -640 -813c-32,7 -50,12 -61,15 -20,5 -20,5 -20,5 0,0 0,0 3,13 2,13 8,39 31,170z"/>
   <path class="fil14" d="M16727 14370c61,156 155,394 202,514 47,119 47,119 47,119 0,0 0,0 0,0 0,0 0,0 0,0 0,0 0,0 290,4 290,4 871,11 1161,15 291,4 291,4 291,4 0,0 0,0 0,0 0,0 0,0 0,-36 0,-37 0,-110 -1,-148 -1,-38 -2,-42 -2,-44 -1,-2 -1,-2 -1,-2 0,0 0,0 -33,-30 -34,-29 -100,-87 -202,-154 -102,-66 -240,-140 -399,-211 -158,-71 -336,-139 -487,-184 -150,-45 -272,-67 -395,-87 -123,-19 -247,-36 -345,-46 -99,-11 -172,-15 -208,-17 -37,-2 -37,-2 -22,35 14,38 43,112 104,268z"/>
   <path class="fil15" d="M18718 14942c0,-35 0,-75 -1,-100 -1,-38 -2,-42 -2,-44 -1,-2 -1,-2 -1,-2 0,0 0,0 -33,-30 -34,-29 -100,-87 -202,-154 -62,-40 -137,-83 -221,-126l460 456z"/>
   <path class="fil15" d="M16727 14370l35 90 536 547 1023 14 -796 -824c-120,-32 -224,-50 -327,-67 -123,-19 -247,-36 -345,-46 -99,-11 -172,-15 -208,-17 -37,-2 -37,-2 -22,35 14,38 43,112 104,268z"/>
   <path class="fil7" d="M13493 15005l-2064 -10c-11,18 -20,41 -24,66 -5,25 -5,52 -4,78 57,-9 124,-19 180,-26 89,-10 150,-11 201,-6 51,5 91,17 122,30 30,14 51,30 69,48 17,18 31,39 41,60 9,21 13,42 12,57 -1,16 -6,26 -8,31l-3 6 92 21c93,22 278,65 424,87 147,23 255,26 531,30 276,5 720,11 942,15l222 3 -52 -82 -209 -325 -52 -81 -420 -2z"/>
   <path class="fil12" d="M13642 15757c-535,0 -969,433 -969,968 0,106 17,207 48,302 27,2 55,4 84,5 -35,-95 -54,-199 -54,-307 0,-492 399,-890 891,-890 491,0 890,398 890,890 0,126 -26,245 -73,354 23,0 50,1 84,1 43,-110 67,-229 67,-355 0,-535 -433,-968 -968,-968z"/>
   <circle class="fil9" cx="21040" cy="16733" r="891"/>
   <circle class="fil10 str0" cx="21040" cy="16733" r="625"/>
   <polygon class="fil13" points="20899,17246 21194,17247 21052,16859 "/>
   <polygon class="fil13" points="20554,16899 20713,17148 20962,16818 "/>
   <polygon class="fil13" points="21536,16899 21376,17148 21127,16818 "/>
   <polygon class="fil13" points="21489,16435 21591,16712 21178,16711 "/>
   <polygon class="fil13" points="20596,16433 20494,16710 20907,16709 "/>
   <polygon class="fil13" points="21383,16311 21112,16193 21088,16605 "/>
   <polygon class="fil13" points="20689,16311 20960,16193 20984,16605 "/>
   <path class="fil12" d="M21040 15764c-535,0 -969,434 -969,969 0,76 9,149 25,219 3,15 6,30 9,42 6,21 11,37 17,52 5,14 11,27 16,37 5,9 10,16 14,22l1 -1 75 -2c-5,-15 -14,-40 -24,-68 -11,-32 -23,-69 -32,-106 -5,-22 -10,-43 -13,-61 -6,-44 -10,-88 -10,-134 0,-492 399,-890 891,-890 492,0 890,398 890,890 0,126 -26,245 -73,353 23,1 51,2 84,2 44,-110 67,-230 67,-355 0,-535 -433,-969 -968,-969z"/>
   <circle class="fil16 str1" cx="13643" cy="16708" r="80"/>
   <circle class="fil16 str1" cx="21049" cy="16724" r="80"/>
   <path class="fil17" d="M21967 15514c-6,15 16,51 41,85 24,33 52,64 85,94 34,30 74,59 111,81 37,22 71,36 109,46 38,10 79,15 99,17 21,3 21,3 21,3 0,0 0,0 -66,-54 -65,-54 -196,-162 -278,-220 -83,-58 -116,-66 -122,-52z"/>
   <ellipse class="fil2" cx="22559" cy="16687" rx="88" ry="138"/>
   <path class="fil6" d="M16706 14796c-39,-163 -113,-477 -155,-635 -16,-58 -27,-95 -35,-119 -4,0 -8,-1 -12,-2 -4,-1 -8,-3 -12,-5 4,24 12,63 25,127 34,164 106,492 142,656 36,164 36,164 36,164 0,0 0,0 9,1 9,0 27,2 36,2 9,1 9,1 9,1 0,0 0,0 -1,-7 -1,-6 -4,-19 -42,-183z"/>
   <path class="fil16 str2" d="M16637 14981c-791,-11 -1660,-15 -2121,-19 -461,-5 -514,-10 -553,-20 -38,-10 -61,-24 -80,-41 -19,-17 -33,-36 -45,-63 -11,-27 -18,-61 -17,-98 1,-37 12,-77 30,-116 18,-38 44,-74 79,-107 34,-33 77,-61 134,-89 58,-27 129,-53 240,-88 111,-35 260,-80 415,-119 155,-39 315,-72 470,-97 154,-25 302,-41 478,-55 176,-14 379,-27 537,-31 158,-4 272,1 412,14 140,12 306,31 466,57 159,26 312,59 449,96 137,37 260,79 392,132 132,52 274,116 401,186 127,70 239,145 307,196 67,51 91,77 119,110 28,33 60,73 81,108 21,34 30,63 33,77 2,15 -2,15 -361,6 -359,-10 -1074,-28 -1866,-39z"/>
   <path class="fil18" d="M15331 15594c42,0 82,10 121,28 37,19 68,46 90,81 22,35 33,77 33,128 0,50 -11,93 -33,128 -22,36 -53,63 -90,81 -39,19 -79,28 -121,28l-161 0 0 283 -160 0 0 -757 321 0zm-31 331c35,0 62,-8 81,-25 18,-15 27,-39 27,-69 0,-31 -9,-55 -27,-70 -19,-17 -46,-25 -81,-25l-130 0 0 189 130 0z"/>
   <path id="1" class="fil18" d="M16306 15976c0,-40 -8,-78 -24,-115 -18,-37 -43,-67 -77,-90 -34,-23 -77,-36 -127,-37 -51,0 -92,12 -125,35 -35,24 -60,54 -76,91 -17,35 -26,74 -26,116 0,42 9,81 26,117 16,36 41,66 76,90 33,23 74,35 125,35 50,-1 93,-14 127,-37 34,-23 59,-53 77,-90 16,-37 24,-75 24,-115zm-227 -396c109,0 203,39 280,116 77,78 116,171 116,281 0,108 -39,201 -116,279 -77,77 -171,116 -280,116 -109,0 -202,-39 -280,-116 -77,-78 -116,-171 -116,-279 0,-110 39,-203 116,-281 78,-77 171,-116 280,-116z"/>
   <polygon id="2" class="fil18" points="17033,16352 16584,16352 16584,15594 16744,15594 16744,16210 17033,16210 "/>
   <polygon id="3" class="fil18" points="17354,15594 17354,16352 17194,16352 17194,15594 "/>
   <path id="4" class="fil18" d="M17653 16016c3,34 12,64 27,92 19,36 46,64 79,83 33,20 71,29 113,29 45,0 84,-10 118,-31 34,-21 58,-49 74,-84l125 78c-22,59 -62,106 -119,139 -58,33 -123,50 -197,50 -72,0 -137,-16 -196,-48 -60,-31 -107,-76 -141,-135 -35,-59 -52,-129 -52,-211 0,-83 17,-153 52,-212 34,-59 81,-104 141,-135 59,-32 124,-47 196,-47 74,0 139,16 197,49 57,34 97,80 119,140l-125 77c-16,-34 -40,-62 -74,-84 -34,-21 -73,-31 -118,-31 -42,0 -80,10 -113,29 -33,19 -60,47 -79,84 -15,27 -24,57 -27,91 -2,21 -2,47 0,77z"/>
   <polygon id="5" class="fil18" points="18785,16352 18310,16352 18310,15594 18774,15594 18774,15736 18470,15736 18470,15898 18742,15898 18742,16038 18470,16038 18470,16211 18785,16211 "/>
  </g>
  <g id="_2073775062624">
   <path class="fil19" d="M23216 13605l179 0c1,-7 3,-13 4,-20 4,-14 7,-28 11,-39 7,-23 15,-39 28,-54 12,-15 30,-29 45,-43 16,-14 29,-28 39,-43 10,-16 17,-32 15,-45 -3,-14 -14,-24 -24,-29 -10,-5 -18,-5 -22,-5 -4,0 -4,0 -5,-55 0,-55 -2,-164 -6,-225 -3,-61 -8,-74 -15,-83 -7,-9 -17,-14 -27,-15 -11,-1 -23,1 -34,7 -10,5 -20,15 -25,43 -5,27 -6,72 -6,94 -1,23 -1,23 -14,26 -14,3 -41,10 -61,16 -19,7 -30,13 -53,18 -23,4 -58,7 -81,10 -23,3 -33,6 -39,38 -5,33 -5,94 -1,142 3,49 9,85 19,113 10,28 24,49 36,68 12,19 23,36 30,54 0,2 1,4 2,6 2,7 4,14 5,21z"/>
   <path class="fil20" d="M23216 13605l46 0c-4,-13 -8,-28 -13,-40 -4,-12 -10,-22 -16,-32 -6,-10 -14,-20 -22,-33 -9,-13 -18,-29 -27,-50 -8,-21 -16,-48 -21,-78 -5,-30 -7,-64 -8,-92 -1,-28 -1,-50 2,-65 3,-15 9,-23 19,-28 9,-5 23,-8 34,-7 12,1 21,5 30,7 9,2 18,1 27,-3 9,-5 18,-12 27,-17 9,-6 18,-9 29,-9 11,1 24,6 34,5 10,-1 17,-7 21,-14 5,-8 7,-18 8,-36 2,-19 3,-46 5,-69 2,-23 5,-42 10,-55 4,-13 10,-21 17,-26 8,-5 17,-7 28,-6 5,0 10,1 15,2 -7,-6 -15,-9 -23,-10 -11,-1 -23,1 -34,7 -10,5 -20,15 -25,43 -5,27 -6,72 -6,94 -1,23 -1,23 -14,26 -14,3 -41,10 -61,16 -19,7 -30,13 -53,18 -23,4 -58,7 -81,10 -23,3 -33,6 -39,38 -5,33 -5,94 -1,142 3,49 9,85 19,113 10,28 24,49 36,68 12,19 23,36 30,54 0,2 1,4 2,6 2,7 4,14 5,21z"/>
   <path class="fil21" d="M23161 13584l0 130c0,131 0,393 5,538 5,145 14,173 29,194 15,21 37,35 130,42 92,8 256,8 338,8l82 0 0 146 -1 592 0 136 101 0c28,0 28,0 28,13 0,6 1,15 1,30 20,3 43,7 68,12 63,11 141,23 251,33 15,1 32,3 48,4l0 -12 63 0c7,28 19,53 36,65 25,18 63,6 93,-6 30,-13 51,-25 69,-52 1,-2 3,-5 4,-7l59 0 0 17c1,0 2,0 2,0l106 0c7,0 14,3 19,7 34,-2 67,-4 98,-6 3,-8 12,-8 46,-7l34 0c33,-3 62,-6 85,-10 24,-3 42,-7 56,-9 9,-5 17,-9 24,-12 0,-56 2,-56 14,-56 7,-1 16,-1 26,0 1,-16 1,-47 1,-129l0 -534 0 -133 42 24 156 87 0 -481c-30,-16 -72,-35 -109,-51 -43,-19 -80,-32 -118,-45 -39,-13 -80,-26 -121,-36 -42,-10 -85,-18 -124,-25 -40,-8 -75,-15 -104,-21 -29,-6 -50,-10 -76,-17 -4,-2 -8,-3 -13,-4 -11,-3 -22,-7 -33,-11l0 -5 0 -49c-1,0 -2,0 -3,1 -4,3 -9,6 -13,9 -16,10 -30,15 -49,19 -20,5 -45,9 -70,11 -26,2 -52,2 -78,0 -26,-3 -52,-7 -72,-12 -19,-5 -31,-11 -41,-17 -5,-2 -9,-5 -13,-8 0,0 -1,0 -1,0l0 51c-5,2 -11,4 -16,7 -8,5 -16,10 -24,16 -30,9 -66,20 -128,33 -84,17 -214,40 -309,55 -96,15 -156,22 -196,26 -40,5 -58,6 -72,6 -13,1 -21,1 -25,1 -5,0 -6,0 -7,-93 -1,-92 -1,-278 -1,-371l0 -92 -49 -1 -10 0 -188 -1 0 0 -50 0z"/>
   <path class="fil22" d="M25077 14579l41 23 156 87 0 -47 -15 -5c-36,-13 -109,-37 -146,-50 -36,-12 -36,-12 -36,-12l0 4z"/>
   <path class="fil22" d="M23161 13584l0 130c0,131 0,393 5,538 5,145 14,173 29,194 15,21 37,35 130,42 92,8 256,8 338,8l80 0c-2,-15 -7,-19 -15,-22 -8,-4 -18,-8 -43,-10 -24,-3 -62,-5 -123,-8 -61,-3 -144,-9 -200,-13 -57,-5 -86,-10 -106,-16 -19,-6 -29,-14 -36,-24 -7,-9 -11,-22 -17,-156 -5,-134 -12,-390 -18,-522 -5,-106 -10,-132 -15,-141l-9 0z"/>
   <polygon class="fil19" points="24236,13921 24576,13921 24576,14028 24434,14156 24386,14156 24236,14017 "/>
   <path class="fil23" d="M24212 13923c-2,3 7,11 15,17 8,6 14,10 23,15 10,6 22,12 41,17 20,5 46,9 72,12 26,2 52,2 78,0 25,-2 50,-6 70,-11 19,-4 33,-9 49,-19 16,-10 34,-25 43,-32 9,-8 9,-8 9,-8 0,0 0,0 -9,2 -8,2 -24,5 -56,9 -32,4 -80,8 -124,9 -45,0 -87,-3 -117,-6 -30,-2 -48,-3 -63,-5 -16,-1 -29,-3 -31,0z"/>
   <path class="fil19" d="M23836 13191c-4,24 -9,57 -11,73 -3,16 -3,16 -3,16 0,0 0,0 -2,0 -2,0 -7,0 -13,2 -6,2 -14,5 -21,13 -8,7 -15,18 -20,35 -4,16 -5,38 -5,57 1,19 4,35 8,49 4,15 10,28 17,37 8,10 17,16 27,20 10,5 21,7 32,8 12,1 24,1 31,1 6,0 6,0 6,0 0,0 0,0 1,24l0 21c2,15 5,32 8,49 4,26 10,50 18,72 7,23 15,45 24,64 8,19 18,35 27,49 10,14 20,26 33,39 13,14 29,29 44,41 16,13 31,22 49,32 17,9 36,19 58,27 22,9 46,16 68,22 22,5 42,9 62,11 19,2 38,2 63,2 25,1 56,1 89,0 33,0 67,-3 100,-5 33,-3 64,-7 93,-13 29,-7 56,-16 81,-29 26,-13 50,-29 70,-44 19,-14 36,-27 50,-44 15,-17 29,-37 42,-58 13,-21 27,-42 39,-66 12,-23 22,-49 30,-75 9,-25 15,-50 19,-73 5,-23 8,-45 9,-56 2,-11 2,-11 2,-11 0,0 0,0 2,1 2,1 7,2 14,2 8,1 19,0 31,-3 2,-1 5,-1 7,-2 4,-2 8,-5 12,-8 10,-10 17,-25 22,-44 4,-20 6,-43 7,-65 1,-22 1,-42 -4,-58 -4,-16 -13,-28 -20,-34 -6,-7 -10,-9 -13,-10 -2,-1 -2,-1 -2,-16 -1,-15 -1,-45 -2,-59 0,-15 0,-15 -1,-36 -1,-20 -3,-60 -8,-90 -6,-30 -15,-49 -52,-65 -37,-16 -102,-29 -208,-36 -106,-7 -253,-8 -373,-5 -120,2 -215,7 -285,14 -71,8 -118,18 -151,33 -32,15 -49,36 -62,60 -13,24 -23,51 -28,72 -6,21 -8,36 -11,59z"/>
   <path class="fil20" d="M23802 13284c-5,2 -11,5 -16,11 -8,7 -15,18 -20,35 -4,16 -5,38 -5,57 1,19 4,35 8,49 4,15 10,28 17,37 8,10 17,16 27,20 10,5 21,7 32,8 12,1 24,1 31,1 6,0 6,0 6,0 0,0 0,0 1,24l0 21c2,15 5,32 8,49 4,26 10,50 18,72 7,23 15,45 24,64 8,19 18,35 27,49 10,14 20,26 33,39 13,14 29,29 44,41 16,13 31,22 49,32 17,9 36,19 58,27 22,9 46,16 68,22 22,5 42,9 62,11 19,2 38,2 63,2 25,1 56,1 89,0 33,0 67,-3 100,-5 33,-3 64,-7 93,-13 29,-7 56,-16 81,-29 26,-13 50,-29 70,-44 19,-14 36,-27 50,-44 15,-17 29,-37 42,-58 13,-21 27,-42 39,-66 12,-23 22,-49 30,-75 9,-25 15,-50 19,-73 5,-23 8,-45 9,-56 2,-11 2,-11 2,-11 0,0 0,0 2,1 2,1 7,2 14,2 8,1 19,0 31,-3 2,-1 5,-1 7,-2 4,-2 8,-5 12,-8 10,-10 17,-25 22,-44 4,-20 6,-43 7,-65 1,-22 1,-42 -4,-58 -4,-16 -13,-28 -20,-34 -2,-3 -4,-5 -6,-6 3,9 6,20 8,32 3,15 4,31 3,50 -1,18 -5,39 -10,56 -5,17 -13,30 -23,39 -10,9 -23,13 -34,15 -10,2 -18,2 -22,1 -4,0 -4,0 -4,0 0,0 0,0 -1,7 -1,6 -4,19 -8,39 -4,19 -10,45 -18,72 -9,27 -20,54 -32,78 -11,23 -24,43 -38,63 -15,21 -32,41 -50,59 -19,18 -37,34 -55,48 -19,14 -36,27 -57,39 -20,12 -43,23 -68,31 -25,9 -51,14 -80,18 -29,4 -61,5 -96,7 -34,1 -71,2 -103,2 -32,-1 -59,-2 -87,-7 -28,-4 -59,-13 -86,-22 -27,-10 -51,-21 -72,-33 -22,-13 -41,-27 -58,-42 -16,-15 -30,-30 -43,-49 -13,-19 -25,-41 -36,-64 -10,-22 -19,-44 -26,-69 -7,-25 -13,-52 -18,-80 -4,-27 -6,-56 -7,-70 -1,-14 -1,-14 -1,-14 0,0 0,0 -8,3 -8,3 -24,8 -37,10 -13,1 -23,-2 -32,-9 -9,-7 -17,-19 -23,-31 -6,-13 -11,-28 -14,-45 -3,-18 -5,-39 -4,-57 1,-18 3,-33 8,-43 3,-6 6,-10 8,-14z"/>
   <path class="fil24" d="M24328 13794c4,5 9,9 14,14 5,4 10,8 15,12 6,3 12,5 19,7 8,2 17,4 26,4 10,1 19,1 29,1 10,0 21,-1 30,-3 8,-1 13,-4 18,-7 4,-3 8,-6 12,-11 4,-4 7,-10 9,-14 1,-3 1,-3 -15,-4 -15,-1 -47,-2 -78,-5 -31,-2 -62,-5 -75,-4 -13,1 -8,5 -4,10z"/>
   <path class="fil24" d="M24575 13540c-7,1 -17,1 -26,1 -8,-1 -15,-2 -20,-5 -6,-2 -10,-6 -14,-10 -4,-4 -8,-9 -13,-16 -4,-7 -10,-17 -15,-30 -6,-13 -11,-28 -14,-44 -4,-15 -6,-32 -6,-44 -1,-12 -1,-20 -1,-29 1,-10 2,-21 6,-31 4,-11 10,-21 16,-29 6,-9 12,-16 19,-21 8,-5 16,-9 22,-11 6,-3 10,-3 17,-1 6,2 15,7 29,29 14,22 33,61 43,97 9,36 9,70 5,92 -4,23 -13,33 -19,40 -6,6 -9,8 -13,9 -4,2 -8,3 -16,3z"/>
   <path class="fil24" d="M24306 13535c10,-1 18,-4 25,-11 7,-7 13,-18 21,-33 7,-14 15,-32 20,-50 5,-18 5,-35 5,-53 0,-17 0,-34 -2,-48 -2,-13 -5,-24 -10,-33 -4,-9 -11,-18 -17,-24 -7,-6 -14,-11 -21,-13 -7,-3 -15,-4 -28,-4 -13,0 -31,1 -47,5 -15,3 -27,9 -38,30 -10,20 -19,55 -17,88 3,33 17,65 32,89 15,25 31,42 44,51 13,8 24,8 33,6z"/>
   <path class="fil24" d="M23979 13117c0,46 0,129 0,171 0,41 0,41 -9,37 -9,-3 -27,-11 -43,-20 -15,-9 -29,-21 -39,-49 -11,-28 -19,-74 -18,-113 1,-40 11,-73 26,-90 15,-16 37,-15 52,-12 15,3 23,7 27,14 4,7 4,16 4,62z"/>
   <path class="fil24" d="M24899 13250c-1,-43 -1,-121 -1,-159 0,-39 0,-39 16,-39 16,0 47,0 64,11 17,11 19,32 20,57 1,24 0,51 -4,72 -4,22 -11,37 -27,56 -16,18 -41,40 -54,47 -13,6 -14,-3 -14,-45z"/>
   <path class="fil25" d="M24076 12874c-181,2 -198,-2 -229,-22 -1,0 -2,-1 -4,-1 -6,21 -16,57 -21,85 -3,14 -4,25 -5,35l0 0 0 1c0,4 0,11 0,22 -1,16 -1,41 0,72 1,30 2,66 4,91 2,20 3,34 5,45 1,7 1,13 2,19 1,9 2,17 3,22 1,5 2,8 2,10 1,5 1,5 14,8l52 13 10 3 -1 -2 4 1 0 -32 0 -134 0 -34 35 10c35,10 104,29 182,43 78,13 164,20 240,23 76,2 143,1 206,-4 63,-4 123,-10 185,-22 62,-12 127,-29 159,-37l32 -9 0 30 0 117 0 29 16 -10 35 -23 27 -17 16 -11 -1 -23c0,-12 -1,-30 -1,-50l-1 -6c0,-17 0,-38 0,-58 0,-20 0,-40 0,-57 0,-2 0,-4 0,-6 -1,-16 -2,-49 -8,-80 -5,-27 -14,-54 -23,-76 -24,14 -57,15 -201,19 -184,4 -547,13 -734,16z"/>
   <path class="fil26" d="M24969 12786c11,2 24,19 36,43 12,23 23,54 29,86 6,31 7,64 8,80 0,16 0,16 -71,16 -72,0 -215,0 -419,0 -204,0 -469,-1 -602,-1 -132,-1 -132,-1 -133,-11 0,-11 -1,-33 5,-63 5,-31 17,-71 23,-90 6,-20 6,-20 105,-23 100,-3 299,-8 481,-10 181,-2 346,-2 432,-8 86,-7 95,-20 106,-19z"/>
   <ellipse class="fil23" cx="24679" cy="13275" rx="94" ry="31"/>
   <path class="fil27" d="M25012 12838c13,-4 20,-10 31,-21 31,-28 94,-86 124,-118 3,-4 6,-7 9,-11 11,-11 12,-15 12,-18 0,-4 -3,-8 -39,-30 -36,-21 -106,-60 -140,-80 -35,-19 -35,-19 -35,-19 0,0 0,0 -82,-25 -82,-25 -246,-74 -339,-101 -92,-27 -113,-31 -133,-30 -11,1 -22,3 -46,9 -15,3 -31,6 -51,11 -56,14 -136,36 -216,60l-205 55c-92,24 -92,24 -120,49 -21,18 -59,51 -88,77 -25,17 -36,28 -41,37 -7,9 -7,12 -3,17 2,12 12,25 38,46 34,27 95,67 125,88 18,11 25,16 34,18 31,20 48,24 229,22 187,-3 550,-12 734,-16 147,-4 179,-5 202,-20z"/>
   <path class="fil26" d="M25016 12837c10,-4 17,-11 27,-20 31,-28 94,-86 124,-118 3,-4 6,-7 9,-11 11,-11 12,-15 12,-18 0,-4 -3,-8 -39,-30 -36,-21 -106,-60 -140,-80 -35,-19 -35,-19 -35,-19l-32 -10c47,33 117,81 154,109 45,34 46,39 38,51 -8,13 -23,32 -45,59 -22,26 -49,59 -63,75 -5,6 -8,9 -10,12z"/>
   <path class="fil26" d="M23835 12538c-29,9 -35,15 -53,31 -21,18 -59,51 -88,77 -25,17 -36,28 -41,37 -7,9 -7,12 -3,17 2,12 12,25 38,46 34,27 95,67 125,88 17,11 25,16 33,18 -3,-3 -7,-7 -12,-11 -29,-24 -86,-72 -115,-100 -29,-28 -30,-35 -30,-43 1,-8 3,-16 23,-39 19,-23 56,-62 78,-84 23,-22 30,-28 43,-36l2 -1z"/>
   <ellipse class="fil23" cx="24158" cy="13276" rx="94" ry="31"/>
   <ellipse class="fil28" cx="24418" cy="12643" rx="113" ry="137"/>
   <path class="fil29" d="M24815 13266l-268 0c-12,0 -23,5 -31,13l0 0c-3,3 -4,6 -6,9 -1,4 -2,9 -3,14 -1,5 -1,11 -1,14 0,3 0,3 0,3 0,0 0,0 -5,-2 -5,-1 -16,-4 -28,-6 -13,-3 -29,-5 -44,-6 -15,-1 -30,-1 -43,0 -13,2 -23,5 -31,8 -8,3 -14,5 -17,6 -3,2 -3,2 -3,2 0,0 0,0 0,-6 0,-5 0,-16 -2,-24 -1,-2 -1,-4 -2,-5 -7,-12 -21,-20 -36,-20l-268 0c-18,0 -34,11 -40,27l-154 -35 151 139 0 0 0 102c0,23 20,42 43,42l268 0c24,0 43,-19 43,-42l0 -124 166 0 0 124c0,23 19,42 43,42l268 0c23,0 42,-19 42,-42l0 -125 188 -179 -197 86c-8,-9 -20,-15 -33,-15z"/>
   <path class="fil30" d="M24810 13266l-263 0c-12,0 -23,5 -31,13l0 0c-3,3 -4,6 -6,9 -1,4 -2,9 -3,14 -1,5 -1,11 -1,14 0,3 0,3 0,3l-1 -1 0 15c0,11 -1,27 -1,42l0 0 0 124c0,23 19,42 43,42l144 0 1 -1c12,-8 17,-20 19,-26 2,-6 2,-6 -25,-5 -27,0 -81,0 -111,-2 -30,-2 -35,-7 -38,-14 -3,-7 -4,-16 -4,-41 -1,-25 -2,-66 -1,-96 1,-29 3,-46 8,-55 4,-10 10,-12 16,-13 6,-1 13,-1 43,-1 30,0 83,-1 118,0 34,0 50,1 62,0 13,-2 22,-6 28,-14 1,-2 2,-5 3,-7z"/>
   <path class="fil30" d="M24282 13266l-255 0c-18,0 -34,11 -40,27l-154 -35 151 139 0 0 0 102c0,23 20,42 43,42l156 0c13,-8 19,-17 23,-22 5,-7 5,-7 -19,-6 -23,0 -71,1 -102,1 -30,-1 -45,-3 -55,-6 -10,-3 -15,-8 -19,-13 -3,-6 -4,-12 -4,-42 -1,-29 -1,-83 0,-113 2,-31 6,-39 11,-44 4,-6 10,-9 22,-11 12,-2 31,-2 56,-2 26,0 58,0 88,1 31,0 59,1 78,-5 10,-3 17,-8 20,-13z"/>
   <path class="fil31" d="M24319 13273c-7,-4 -15,-7 -24,-7l-67 0c0,23 1,57 -1,84 -2,33 -7,57 -15,81 -8,23 -19,47 -33,66 -13,19 -29,34 -44,44l104 0c8,-7 15,-16 23,-26 11,-16 21,-35 29,-56 8,-21 14,-45 18,-69 4,-25 7,-51 8,-72 2,-18 2,-33 2,-45z"/>
   <path class="fil31" d="M24815 13266l-67 0c0,16 0,36 0,55 -1,28 -2,54 -7,78 -4,25 -13,49 -23,70 -10,21 -21,39 -33,53 -7,8 -13,14 -18,19l86 0c1,-1 3,-3 5,-4 10,-9 20,-20 30,-34 9,-15 19,-33 26,-53 8,-21 13,-44 17,-68 3,-24 5,-49 6,-72 0,-14 0,-27 -1,-38 -6,-4 -13,-6 -21,-6z"/>
   <path class="fil32" d="M24420 13743c-67,0 -128,-11 -173,-29 6,55 81,98 173,98 92,0 167,-43 173,-98 -45,18 -106,29 -173,29z"/>
   <path class="fil33" d="M24356 13621c-13,-1 -31,-1 -41,-4 -10,-4 -12,-10 -12,-20 1,-10 4,-23 11,-32 6,-9 16,-14 29,-18 12,-4 28,-6 36,-7 8,-1 8,-1 8,-1 0,0 0,0 0,13 0,14 0,41 0,55 0,14 0,14 0,14 0,0 0,0 -4,0 -5,0 -14,0 -27,0z"/>
   <line class="fil16" x1="24098" y1="14476" x2="24098" y2= "14864" />
   <line class="fil16" x1="23923" y1="14603" x2="24278" y2= "14603" />
   <rect class="fil34" x="25274" y="13881" width="844" height="1152"/>
   <rect class="fil8" x="25351" y="13957" width="691" height="1000"/>
   <path class="fil19" d="M25944 13776c-26,-7 -54,-15 -80,-20 -27,-6 -52,-8 -71,-8 -18,0 -29,2 -37,8 -8,5 -12,13 -17,19 -6,7 -11,11 -23,16 -11,5 -27,12 -41,20 -13,8 -24,19 -30,30 -7,10 -8,21 -1,30 7,9 23,15 34,24 12,8 19,18 29,28 10,10 23,21 43,30 21,8 48,13 76,15 29,1 58,-1 82,-10 25,-10 44,-27 65,-39 21,-13 44,-21 67,-29 22,-7 44,-13 52,-21 9,-9 3,-20 -12,-32 -15,-13 -39,-27 -63,-37 -24,-11 -47,-16 -73,-24z"/>
   <path class="fil20" d="M25756 13955c19,7 44,11 70,13 29,1 58,-1 82,-10 25,-10 44,-27 65,-39 21,-13 44,-21 67,-29 9,-3 19,-6 28,-9 -12,1 -25,4 -41,8 -22,7 -51,17 -78,28 -27,10 -52,20 -77,26 -25,7 -51,9 -74,10 -15,1 -28,1 -42,2z"/>
   <path class="fil20" d="M25944 13776c-26,-7 -54,-15 -80,-20 -27,-6 -52,-8 -71,-8 -18,0 -29,2 -37,8 -8,5 -12,13 -17,19 -6,7 -11,11 -23,16 -11,5 -27,12 -41,20 -13,8 -24,19 -30,30 -7,10 -8,21 -1,30 7,9 23,15 34,24 5,3 9,7 13,10l0 0c0,-12 5,-26 12,-39 7,-12 16,-21 26,-28 11,-6 22,-10 35,-15 13,-4 28,-10 50,-14 21,-4 50,-6 81,-6 32,0 65,2 96,7 31,5 59,14 96,37l5 3c-2,-4 -7,-9 -12,-13 -15,-13 -39,-27 -63,-37 -24,-11 -47,-16 -73,-24z"/>
   <rect class="fil8" x="24290" y="15500" width="227" height="109"/>
   <path class="fil16 str3" d="M23872 15625c-1,14 -2,27 -3,38 -4,49 -12,62 -29,70 -17,8 -44,11 -66,8 -22,-3 -40,-12 -51,-25 -11,-13 -17,-31 -19,-89 -2,-59 -2,-158 -1,-207 0,-50 0,-50 28,-50 29,0 85,0 114,0 28,0 28,0 28,13 1,11 1,31 1,74 38,0 88,1 116,2 38,2 39,3 41,29 3,27 7,78 6,106 -2,29 -8,34 -43,35 -32,1 -87,-1 -122,-4z"/>
   <rect class="fil16 str3" x="24103" y="15467" width="165" height="173" rx="30" ry="26"/>
   <path class="fil35" d="M23995 17375c149,0 269,71 269,158l22 0 0 75 -588 0 0 -75 27 0c0,-87 121,-158 270,-158z"/>
   <path class="fil35" d="M24751 17375c149,0 269,71 269,158l22 0 0 75 -588 0 0 -75 27 0c0,-87 121,-158 270,-158z"/>
   <rect class="fil22" x="24364" y="14160" width="85.9341" height="1310.51"/>
   <path class="fil22" d="M24208 14344c-10,-18 -30,-55 -43,-90 -13,-35 -19,-68 -22,-94 -2,-26 -2,-45 4,-64 2,-10 6,-19 10,-28 -7,12 -14,26 -19,41 -6,17 -9,36 -10,55 -2,19 -2,38 2,62 5,24 13,54 24,78 10,25 22,45 33,60 11,15 21,26 26,31l4 6 30 -35 117 -139 0 -41 -112 136 -34 41 -10 -19z"/>
   <path class="fil22" d="M24450 14175l0 44c4,5 8,11 14,18l104 129 26 32 5 -4c6,-4 17,-12 28,-27 12,-15 23,-37 33,-61 10,-25 18,-52 23,-80 6,-29 8,-58 7,-85 -2,-27 -7,-50 -21,-74 -11,-19 -27,-38 -41,-53 -2,0 -4,-1 -6,-1l-13 -4c14,8 28,19 39,33 13,16 23,34 28,54 6,19 6,38 4,64 -3,26 -9,59 -22,94 -13,35 -33,72 -43,90l-10 19 -34 -41 -121 -147z"/>
   <path class="fil22" d="M23951 14476c-5,1 -11,4 -16,9 -5,4 -10,11 -13,18 -4,8 -6,16 -7,70 -1,54 -1,152 0,205 1,52 2,59 5,65 2,6 6,12 12,17 5,4 13,7 28,8 15,2 36,2 82,2 47,0 117,0 156,-1 39,0 45,-1 53,-3 7,-2 16,-7 23,-13 6,-7 10,-16 13,-24 2,-8 2,-14 1,-67 -1,-53 -2,-153 -4,-205 -1,-53 -3,-59 -7,-64 -4,-5 -10,-9 -16,-12 -6,-3 -13,-5 -16,-5 -3,-1 -3,-1 -3,-1 0,0 0,0 2,1 2,1 6,3 9,6 4,4 8,8 11,14 3,7 5,15 7,66 1,51 1,145 0,196 -1,51 -3,59 -5,66 -2,7 -5,13 -12,17 -6,4 -15,6 -63,6 -49,1 -137,0 -184,-2 -48,-1 -54,-3 -59,-6 -6,-4 -9,-10 -11,-60 -2,-51 -1,-146 0,-199 2,-54 3,-64 5,-72 2,-8 5,-14 10,-19 4,-6 10,-11 10,-14 0,-2 -5,-1 -11,1z"/>
   <rect class="fil22" x="23928" y="14591" width="350.244" height="23.4441"/>
   <rect class="fil22" x="24088" y="14475" width="19.523" height="382.806"/>
   <line class="fil16" x1="24757" y1="14487" x2="24757" y2= "14874" />
   <line class="fil16" x1="24582" y1="14613" x2="24936" y2= "14613" />
   <path class="fil28" d="M24645 14616c58,-3 171,-2 230,-4 58,-1 61,-3 62,-7 2,-4 2,-9 1,-18 -1,-9 -2,-23 -3,-29 0,-7 0,-7 -59,-6 -58,0 -175,1 -233,2 -58,0 -58,0 -59,6 -1,7 -2,19 -2,32 -1,12 0,25 1,28 2,4 4,-2 62,-4z"/>
   <path class="fil22" d="M24610 14486c-5,2 -11,4 -16,9 -5,5 -10,11 -14,19 -3,7 -5,16 -6,69 -1,54 -1,153 -1,205 1,53 3,59 6,65 2,7 6,13 11,17 6,4 14,7 29,9 14,1 36,2 82,2 47,0 117,-1 156,-1 39,-1 45,-1 53,-4 7,-2 16,-6 22,-13 7,-7 11,-16 13,-24 3,-7 3,-14 2,-67 -1,-53 -2,-152 -4,-205 -1,-53 -4,-59 -8,-64 -3,-5 -9,-9 -15,-12 -6,-2 -13,-4 -16,-5 -3,-1 -3,-1 -3,-1 0,0 0,0 2,1 2,1 6,4 9,7 4,3 7,7 10,14 3,6 6,14 7,65 2,51 2,145 1,196 -1,51 -3,59 -5,66 -3,8 -6,14 -12,17 -6,4 -15,6 -63,7 -49,0 -137,-1 -185,-2 -47,-1 -53,-3 -59,-7 -5,-4 -9,-9 -10,-60 -2,-50 -1,-146 0,-199 1,-53 3,-64 5,-72 2,-8 5,-13 9,-19 5,-5 10,-11 11,-13 0,-3 -5,-2 -11,0z"/>
   <rect class="fil22" x="24587" y="14601" width="350.244" height="23.4441"/>
   <rect class="fil22" x="24747" y="14602" width="19.523" height="265.751"/>
   <path class="fil28" d="M24065 14055c-7,-1 -16,-1 -32,0 -16,1 -37,3 -53,5 -16,3 -25,7 -30,11 -4,4 -4,9 -1,12 3,3 8,5 24,4 15,-1 41,-6 61,-11 21,-6 35,-12 39,-16 5,-3 0,-5 -8,-5z"/>
   <path class="fil28" d="M23904 14076c-9,-2 -20,-1 -31,0 -11,1 -22,2 -32,4 -10,2 -20,6 -27,10 -7,4 -12,9 -12,13 -1,4 1,7 6,10 4,2 11,4 22,4 11,0 28,-2 41,-4 14,-2 26,-5 35,-8 8,-4 13,-7 16,-11 3,-3 3,-7 0,-11 -3,-3 -9,-6 -18,-7z"/>
   <path class="fil28" d="M24765 14046c8,0 17,0 33,1 16,1 37,4 53,7 15,3 25,7 29,12 5,4 4,8 1,11 -3,4 -8,6 -24,4 -15,-2 -41,-7 -61,-13 -20,-6 -34,-13 -39,-17 -4,-3 1,-5 8,-5z"/>
   <path class="fil28" d="M24927 14071c8,-1 20,1 31,2 10,1 21,2 31,5 10,2 20,6 27,10 7,4 11,9 12,13 1,5 -2,8 -7,10 -4,2 -11,4 -22,3 -11,0 -27,-2 -41,-4 -14,-3 -26,-6 -34,-10 -8,-3 -13,-7 -16,-11 -3,-3 -3,-7 0,-11 3,-3 10,-6 19,-7z"/>
   <circle class="fil22" cx="24449" cy="15300" r="36"/>
   <circle class="fil22" cx="24451" cy="15126" r="36"/>
   <circle class="fil22" cx="24453" cy="14953" r="36"/>
   <circle class="fil22" cx="24455" cy="14779" r="36"/>
   <circle class="fil22" cx="24457" cy="14605" r="36"/>
   <circle class="fil22" cx="24459" cy="14431" r="36"/>
   <rect class="fil36" x="25484" y="14023" width="414.045" height="36.4594"/>
   <circle class="fil37" cx="25486" cy="14827" r="74"/>
   <path class="fil16 str4" d="M25794 14838c0,-1 33,-33 7,-1 -59,72 36,-9 59,-21 -84,71 -43,43 37,4 56,-27 -28,5 -52,21 -135,90 79,-5 74,-30 -40,2 -126,100 -21,21 11,-9 53,-72 13,-40 -1,0 -128,108 -78,75 13,-9 74,-40 76,-43 -47,7 -119,106 -7,24 25,-18 -36,20 15,-4 29,-13 -26,-3 -25,8 39,0 55,-34 20,-11 -12,7 11,-1 -5,5 -18,6 54,6 76,-3 2,-1 3,0 5,0"/>
   <path class="fil38" d="M23874 15410c0,-13 -1,-21 -1,-27 0,-13 0,-13 -28,-13l-101 0 -13 0c-28,0 -28,0 -28,50 -1,49 -1,148 1,207 2,58 8,76 19,89 4,5 9,9 15,13 0,58 0,132 0,227 2,346 8,969 10,1281l2 230c43,-54 136,-92 245,-92 110,0 204,39 246,94 1,-33 3,-80 5,-146 6,-226 19,-678 29,-918 10,-240 16,-269 27,-292 10,-24 24,-42 46,-51 23,-9 52,-9 77,-1 25,9 45,26 56,54 11,29 13,69 15,312 2,242 3,686 4,908l1 139c39,-58 136,-99 250,-99 109,0 202,38 245,93l7 -214 39 -1226 3 -100c4,2 9,3 15,3 7,0 17,-3 25,-8 8,-5 14,-11 20,-19 5,-8 9,-16 12,-33 2,-16 4,-41 5,-116 0,-76 0,-202 -1,-270 -1,-68 -2,-76 -5,-84 -2,-8 -6,-15 -12,-20 -5,-4 -13,-7 -21,-9 -8,-2 -17,-4 -24,-4 -7,1 -12,3 -17,7 -1,0 -2,1 -3,2l-1 1c-5,6 -9,15 -11,24 -2,9 -3,18 -3,22 0,5 0,5 -7,7 -7,1 -22,5 -62,11 -40,5 -106,11 -140,15 -20,3 -29,5 -33,8 -27,2 -58,5 -91,6 -35,0 -73,-2 -105,-3 -33,0 -59,1 -106,0 -46,-1 -112,-3 -158,-5 -45,-2 -71,-3 -107,-6 -37,-4 -84,-8 -139,-15 -54,-8 -115,-18 -152,-24 -24,-4 -38,-6 -50,-8zm1157 488l0 0 0 21 0 -21z"/>
   <path class="fil35" d="M24968 17440c11,9 20,18 28,28l7 -214 39 -1226 3 -100c4,2 9,3 15,3 7,0 17,-3 25,-8 4,-2 7,-5 10,-8 0,-33 -1,-64 -3,-91 -9,-187 -38,-228 -54,-234 -16,-7 -19,21 -29,350 -10,329 -27,959 -35,1274 -3,108 -5,179 -6,226zm63 -1542l0 0 0 21 0 -21z"/>
   <path class="fil35" d="M24221 17448c8,7 15,14 20,21 1,-33 3,-80 5,-146 6,-226 19,-678 29,-918 10,-240 16,-269 27,-292 10,-24 24,-42 46,-51 23,-9 52,-9 77,-1 25,9 45,26 56,54 11,29 13,69 15,312 2,242 3,686 4,908l1 139c6,-9 13,-17 22,-26l1 -137c2,-210 4,-630 4,-863 0,-234 -2,-281 -9,-317 -7,-37 -19,-63 -36,-82 -17,-20 -41,-33 -67,-39 -26,-6 -55,-5 -78,4 -24,10 -43,28 -57,56 -13,28 -21,65 -27,133 -5,68 -9,166 -12,318 -4,151 -7,357 -11,527 -3,170 -7,303 -9,378l-1 22z"/>
   <path class="fil35" d="M23717 15708c2,3 4,5 6,8 4,5 9,9 15,13 0,58 0,132 0,227 2,346 8,969 10,1281l2 230c6,-7 13,-14 20,-21l-1 -255c-2,-297 -6,-891 -8,-1198 -3,-307 -5,-328 -18,-324 -6,2 -15,10 -26,39z"/>
   <path class="fil30" d="M23881 15644c-3,8 -4,20 -6,34 -3,15 -9,32 -16,44 -7,13 -16,20 -26,25 -9,5 -20,7 -32,6 -12,0 -25,-2 -38,-5 -12,-2 -23,-5 -34,-10 -10,-6 -20,-13 -28,-53 -9,-39 -17,-111 -18,-170 -1,-59 4,-104 7,-127 3,-24 5,-25 36,-27 31,-1 92,-2 125,-1 32,0 35,3 36,17 0,13 -2,39 -4,52 -1,13 -1,13 19,13 20,1 61,3 86,6 26,3 37,8 43,16 6,8 8,20 10,44 1,23 2,59 1,80 -1,22 -4,30 -8,36 -3,6 -9,10 -32,11 -24,0 -65,-3 -89,-3 -24,1 -29,4 -32,12z"/>
   <path class="fil30" d="M24777 15474c0,-12 3,-14 37,-18 34,-4 100,-10 140,-16 40,-5 54,-9 61,-11 8,-2 8,-2 8,-6 0,-4 0,-13 3,-22 2,-9 6,-18 11,-24 6,-6 13,-9 20,-10 8,0 17,1 25,3 8,3 15,5 21,10 6,5 9,12 12,19 3,8 4,17 5,85 1,67 1,194 0,270 0,75 -2,99 -5,116 -3,16 -6,25 -12,33 -5,7 -11,14 -19,19 -8,4 -18,7 -26,8 -8,0 -14,-3 -19,-6 -5,-3 -9,-7 -10,-48 -2,-42 -2,-120 -1,-159 0,-40 0,-40 -9,-39 -9,0 -26,1 -50,0 -24,-1 -54,-4 -78,-8 -25,-3 -43,-7 -58,-12 -15,-4 -27,-9 -35,-16 -9,-6 -15,-14 -18,-33 -3,-19 -3,-48 -3,-74 -1,-26 -1,-49 0,-61z"/>
   <path class="fil39" d="M25097 15376c2,1 4,3 6,4 6,5 9,12 12,19 3,8 4,17 5,85 1,67 1,194 0,270 0,75 -2,99 -5,116 -3,16 -6,25 -12,33 -3,5 -7,10 -12,13 0,-14 0,-34 0,-61 1,-98 1,-293 4,-397 0,-38 1,-64 2,-82z"/>
   <path class="fil30" d="M24241 15640l0 -173c-1,0 -1,0 -2,0l-106 0c-16,0 -30,13 -30,30l0 113c0,17 14,30 30,30l106 0 2 0z"/>
   <path class="fil30" d="M24565 15465l0 175c1,0 2,0 2,0l106 0c17,0 30,-14 30,-32l0 -121c0,-40 -82,-22 -115,-22 -8,0 -15,0 -23,0z"/>
   <rect class="fil1" x="24241" y="15450" width="324" height="211"/>
   <rect class="fil30" x="24294" y="15497" width="224" height="115"/>
   <path class="fil40" d="M24819 17402c17,4 34,8 51,15 18,8 36,18 52,28 16,10 28,21 37,31 9,10 14,18 18,28 4,9 7,19 8,24 1,5 1,5 -19,5 -20,0 -60,0 -80,0 -19,0 -19,0 -19,0 0,0 0,0 -1,-6 0,-7 0,-20 -3,-35 -3,-15 -7,-33 -15,-46 -7,-13 -17,-21 -26,-29 -9,-8 -18,-14 -27,-18 -9,-5 -20,-7 -25,-8 -5,-1 -5,-1 4,1 9,2 27,6 45,10z"/>
   <path class="fil40" d="M24061 17402c17,4 34,8 51,15 18,8 37,18 52,28 16,10 28,21 37,31 9,10 14,18 18,28 4,9 7,19 8,24 2,5 2,5 -18,5 -20,0 -60,0 -80,0 -20,0 -20,0 -20,0 0,0 0,0 -1,-6 0,-7 0,-20 -3,-35 -2,-15 -7,-33 -15,-46 -7,-13 -17,-21 -26,-29 -9,-8 -17,-14 -27,-18 -9,-5 -19,-7 -25,-8 -5,-1 -5,-1 4,1 9,2 28,6 45,10z"/>
   <path class="fil16 str5" d="M25442 14172l515 0m-515 245l515 0m-515 -31l515 0m-515 -30l515 0m-515 -31l515 0m-515 -30l515 0m-515 -31l515 0m-515 -30l515 0m-515 -31l515 0"/>
  </g>
  <g id="_2073774661968">
   <path class="fil41" d="M37916 16930c-22,43 -54,111 -80,155 -27,43 -48,62 -94,73 -46,12 -117,18 -1024,16 -906,-1 -2648,-9 -3526,-14 -879,-4 -893,-6 -904,-23 -10,-18 -17,-52 -27,-111 -11,-59 -25,-142 -31,-184 -6,-42 -4,-44 -310,-44 -307,0 -923,2 -1256,18 -334,17 -385,48 -410,90 -25,41 -24,93 -26,138 -2,45 -7,83 -20,105 -12,21 -32,27 -116,11 -84,-15 -231,-50 -327,-75 -97,-24 -142,-37 -178,-45 -37,-8 -66,-11 -91,-17 -24,-7 -44,-17 -58,-37 -14,-20 -22,-49 -16,-124 5,-74 23,-194 35,-288 11,-95 15,-163 23,-271 9,-107 22,-253 33,-348 12,-95 21,-139 33,-174 13,-35 29,-61 74,-103 46,-43 121,-101 224,-157 104,-57 236,-112 385,-163 149,-51 315,-97 470,-135 155,-37 298,-66 490,-95 192,-28 432,-56 745,-89 313,-33 700,-71 893,-90 193,-19 193,-19 193,-19 0,0 0,0 42,-35 43,-35 127,-105 264,-202 137,-97 327,-221 503,-323 175,-103 336,-185 472,-244 137,-60 249,-97 388,-133 139,-36 305,-72 495,-98 190,-26 404,-44 623,-55 220,-11 445,-16 653,-10 209,6 400,23 575,42 176,20 335,43 531,83 196,40 428,98 544,127 116,29 116,29 121,34 4,4 14,14 24,24 11,9 22,20 254,106 231,87 682,249 928,335 246,85 287,95 340,100 53,5 117,6 174,14 58,8 108,23 220,40 112,17 286,37 442,48 155,11 292,14 370,19 77,5 94,13 106,28 12,16 18,38 21,92 3,54 1,140 1,250 0,110 2,245 2,312 1,67 1,67 1,67 0,0 0,0 15,9 15,10 45,28 76,56 31,29 63,67 86,114 23,48 38,105 34,285 -3,180 -24,483 -38,638 -14,155 -20,161 -53,169 -32,8 -90,17 -338,19 -248,1 -685,-6 -1157,-5 -473,1 -979,9 -1280,13 -302,4 -398,4 -452,12 -55,9 -68,26 -91,69z"/>
   <polygon class="fil42" points="32967,16642 32959,16911 36005,16855 36084,16594 "/>
   <path class="fil43" d="M30266 16890c-5,5 -9,10 -12,16 -25,41 -24,93 -26,138 -2,45 -7,83 -20,105 -12,21 -32,27 -116,11 -84,-15 -231,-50 -327,-75 -97,-24 -142,-37 -178,-45 -37,-8 -66,-11 -91,-17 -24,-7 -44,-17 -58,-37 -14,-20 -22,-49 -16,-124 2,-35 8,-81 14,-129 67,1 141,6 220,11 170,11 361,26 466,32 106,6 125,3 136,50 4,17 6,39 8,64z"/>
   <path class="fil43" d="M41113 15413l0 71c1,67 1,67 1,67 0,0 0,0 15,9 15,10 45,28 76,56 31,29 63,67 86,114 23,48 38,105 34,285 -3,180 -24,483 -38,638 -14,155 -20,161 -53,169 -32,8 -90,17 -338,19 -226,1 -610,-4 -1034,-5 0,-17 1,-36 1,-57 2,-66 4,-149 -17,-243 -20,-93 -62,-197 -107,-286 -45,-88 -93,-161 -145,-225 -53,-65 -111,-122 -140,-150 -29,-28 -29,-28 69,-41 98,-12 295,-37 462,-69 166,-32 304,-70 398,-107 94,-37 146,-72 181,-109 35,-36 53,-73 62,-106 8,-34 7,-64 22,-78 15,-14 47,-11 138,-2 85,10 222,25 327,50z"/>
   <path class="fil3" d="M41317 16231c-2,37 -4,76 -7,113 -25,4 -51,5 -75,6 -45,2 -83,3 -114,-3 -31,-6 -55,-19 -70,-38 -16,-18 -24,-42 -28,-54 -4,-12 -4,-12 61,-14 56,-2 158,-6 233,-10z"/>
   <path class="fil44" d="M37916 16930c-22,43 -54,111 -80,155 -27,43 -48,62 -94,73 -46,12 -117,18 -1024,16 -906,-1 -2648,-9 -3526,-14 -879,-4 -893,-6 -904,-23 -10,-18 -17,-52 -27,-111l-1 -2 0 -1 0 -1 0 -1 0 -1 -1 -1 0 -1 0 -1 0 -2 0 0 -1 -1 0 -2 0 0 0 -2 0 -1 -1 -1 0 -2 0 0 0 -2 0 -1 0 0 -1 -2 0 -1 0 -1 0 -2 -1 0 0 -2 0 -1 0 -1 -1 -2 0 0 0 -2 0 -1 0 -1 -1 -1 0 -1 0 -1 0 -2 0 -1 -1 -1 0 -2 0 0 0 -2 0 -1 -1 -1 0 -2 0 0 0 -2 0 -1 -1 -1 0 -2 0 0 0 -2 -1 -1 0 -1 0 -2 0 -1 0 -1 -1 -2 0 0 0 -2 0 -1 0 -1 -1 -2 0 0 0 -2 0 -1 0 -1 -1 -2 0 0 0 -2 0 -2 0 0 -1 -2 0 -1 0 -1 0 -2 0 0 -1 -2 0 -1 0 -1 0 -2 -1 0 0 -1 0 -2 0 0 0 -2 -1 -1 0 -1 0 -2 0 -1 0 -1 -1 -2 0 0 0 -2 0 -1 0 -1 -1 -2 0 0 0 -2 0 -1 0 -1 -1 -1c89,-7 315,-13 890,-28 947,-26 2840,-76 3793,-86 954,-9 967,21 980,68 5,21 10,44 16,69l-1 1 -1 2z"/>
   <path class="fil45" d="M37821 17106c-20,29 -41,43 -79,52 -46,12 -117,18 -1024,16 -906,-1 -2648,-9 -3526,-14 -879,-4 -893,-6 -904,-23 -9,-17 -16,-47 -25,-97 79,-5 248,-6 619,-10 683,-7 2049,-20 2954,-32 904,-12 1347,-22 1603,-8 256,15 325,54 365,97 7,6 12,13 17,19z"/>
   <path class="fil41 str3" d="M30277 16880c-15,11 -25,26 -37,50 -7,13 -14,28 -22,43 -13,-48 -22,-97 -28,-147 -4,-39 -6,-78 -6,-118 0,-13 0,-27 1,-41 2,-43 5,-74 9,-103 7,-48 19,-90 32,-125 13,-36 28,-66 34,-51 5,15 1,74 4,156 3,81 12,185 13,278 0,20 0,39 0,58z"/>
   <path class="fil46" d="M29462 17009c-9,-6 -17,-14 -24,-23 -14,-20 -22,-49 -16,-124 5,-74 23,-194 35,-288l0 -2c20,-17 37,-29 56,-40 41,-26 90,-53 127,-66 37,-14 62,-16 86,-12 23,3 46,11 64,30 17,19 31,50 36,84 6,35 5,75 -2,111 -6,35 -18,67 -41,106 -23,39 -57,85 -90,118 -33,34 -65,55 -95,72 -29,15 -56,27 -136,34z"/>
   <path class="fil47" d="M29670 15635c44,-35 103,-75 174,-114 104,-57 236,-112 385,-163 149,-51 315,-97 470,-135 155,-37 298,-66 490,-95 192,-28 432,-56 745,-89 313,-33 700,-71 893,-90 193,-19 193,-19 193,-19 0,0 0,0 42,-35 43,-35 127,-105 264,-202 137,-97 327,-221 503,-323 175,-103 336,-185 472,-244 137,-60 249,-97 388,-133 139,-36 305,-72 495,-98 190,-26 404,-44 623,-55 220,-11 445,-16 653,-10 209,6 400,23 575,42 176,20 335,43 531,83 196,40 428,98 544,127 116,29 116,29 121,34 4,4 14,14 24,24 11,9 22,20 254,106 231,87 682,249 928,335 246,85 287,95 340,100 53,5 117,6 174,14 58,8 108,23 220,40 112,17 286,37 442,48 155,11 292,14 370,19 77,5 94,13 106,28 12,16 18,38 21,92 3,54 1,140 1,250 0,39 0,81 1,122 -119,-28 -245,-58 -360,-80 -177,-35 -330,-51 -936,-37 -607,13 -1667,55 -3547,142 -1881,87 -4581,219 -5932,285 -275,13 -494,24 -667,31z"/>
   <path class="fil48" d="M33045 14910l17 -15c43,-35 127,-105 264,-202 137,-97 327,-221 503,-323 175,-103 336,-185 472,-244 85,-37 160,-65 238,-90 13,8 20,18 21,32 0,16 -8,35 -59,72 -51,36 -145,90 -276,161 -132,71 -300,159 -457,249 -156,89 -301,180 -398,241 -97,60 -147,90 -188,105 -41,16 -72,18 -110,16 -9,-1 -18,-1 -27,-2z"/>
   <path class="fil49" d="M29721 15934c-15,24 -33,46 -51,69 -19,23 -38,46 -54,61 -16,16 -29,24 -40,26 -12,3 -21,0 -27,-9 -6,-10 -10,-27 -7,-65 2,-38 10,-97 16,-136 7,-38 12,-57 20,-71 9,-15 20,-26 36,-34 16,-8 37,-12 57,-13 21,-1 40,1 54,5 13,4 22,9 27,25 5,16 7,42 2,68 -5,25 -18,50 -33,74z"/>
   <path class="fil50" d="M39038 15236c-701,41 -1825,107 -3178,165 -1352,58 -2935,108 -3726,133 -791,25 -791,25 -791,25 0,0 0,0 374,-21 375,-21 1124,-63 2030,-117 906,-54 1968,-120 2876,-168 907,-47 1658,-76 2245,-88 587,-12 1009,-7 1220,-4 211,2 211,2 211,2 0,0 0,0 -140,8 -140,8 -419,24 -1121,65z"/>
   <path class="fil51" d="M30012 15976c113,-77 287,-203 374,-267 87,-63 87,-63 87,-63 0,0 0,0 -35,-2 -34,-2 -103,-6 -178,-3 -76,2 -159,12 -238,29 -78,18 -152,45 -207,69 -54,24 -90,47 -115,71 -25,25 -40,51 -49,87 -9,37 -13,83 -11,118 2,35 10,58 37,72 27,14 73,18 122,6 49,-12 100,-39 213,-117z"/>
   <path class="fil46" d="M37672 14904c-367,14 -796,30 -1260,50 -465,20 -966,43 -1519,70 -552,27 -1156,58 -1453,66 -297,9 -286,-4 -235,-41 50,-36 141,-95 187,-125 45,-30 45,-30 48,-39 3,-9 8,-27 21,-49 13,-21 34,-44 61,-64 26,-20 58,-36 86,-46 27,-11 51,-16 75,-21 25,-4 50,-8 62,-10 13,-2 13,-2 13,-2 0,0 0,0 69,-45 69,-45 208,-135 342,-214 133,-80 263,-150 376,-205 113,-56 211,-97 309,-130 99,-34 197,-60 317,-78 119,-18 259,-27 404,-33 145,-6 295,-9 457,-7 161,2 334,9 469,16 135,6 233,13 367,29 135,17 306,43 463,71 156,27 297,56 455,97 158,40 334,91 485,140 152,49 280,95 375,133 95,38 157,69 200,97 43,27 66,52 78,77 12,24 12,48 4,74 -8,27 -24,56 -44,79 -20,23 -46,40 -86,50 -40,11 -95,15 -275,23 -180,9 -485,22 -851,37z"/>
   <path class="fil52 str3" d="M36853 14384c-33,123 -81,297 -105,384 -23,87 -23,87 -23,87 0,0 0,0 290,-9 291,-8 873,-25 1195,-41 321,-16 383,-31 421,-48 37,-17 51,-37 48,-62 -3,-26 -21,-58 -80,-95 -59,-38 -157,-81 -299,-134 -141,-53 -324,-115 -561,-175 -236,-60 -526,-118 -671,-147 -145,-29 -145,-29 -145,-29 0,0 0,0 -10,36 -9,37 -27,109 -60,233z"/>
   <path class="fil52 str3" d="M36706 14311c-35,127 -93,336 -122,440 -29,104 -29,104 -29,104 0,0 0,0 0,0 0,0 0,0 -179,10 -179,10 -536,29 -983,54 -447,24 -984,53 -1252,68 -268,14 -268,14 -268,14 0,0 0,0 4,-31 5,-32 14,-95 15,-140 2,-45 -5,-71 -19,-88 -14,-16 -35,-23 -45,-26 -11,-3 -11,-3 -11,-3 0,0 0,0 54,-34 53,-34 160,-101 272,-166 112,-64 229,-126 344,-182 115,-56 227,-106 341,-145 114,-38 230,-64 361,-85 130,-20 275,-35 443,-43 168,-7 360,-9 552,-2 193,6 386,21 483,28 97,7 97,7 97,7 0,0 0,0 -6,24 -6,23 -17,69 -52,196z"/>
   <path class="fil48" d="M39553 14575c230,83 241,91 245,97 2,4 2,7 1,11 -8,-1 -15,-1 -22,-2 -53,-5 -94,-15 -340,-100 -246,-86 -697,-248 -928,-335 -232,-86 -243,-97 -254,-106 -2,-3 -5,-5 -7,-7 11,0 25,2 51,8 31,6 78,19 326,105 248,86 698,246 928,329z"/>
   <path class="fil3" d="M41111 15130l0 42c0,110 2,245 2,312 1,67 1,67 1,67l1 1c-21,9 -47,11 -75,12 -57,2 -124,0 -192,-14 -68,-13 -136,-40 -210,-90 -73,-50 -151,-124 -193,-172 -43,-48 -51,-70 -45,-93 7,-22 28,-45 70,-68 41,-24 103,-49 167,-65 64,-16 130,-23 189,-23 60,0 112,7 154,18 41,12 72,27 100,46 11,7 21,15 31,27z"/>
   <path class="fil46" d="M38895 15674c571,0 1034,463 1034,1034 0,43 -3,86 -8,128 -42,0 -85,0 -127,0 5,-42 9,-85 9,-128 0,-501 -407,-908 -908,-908 -467,0 -852,352 -902,806 17,57 31,144 33,192 3,56 -11,59 -24,62l-2 1 0 1c-7,2 -13,3 -19,5 -5,1 -9,3 -13,5 -10,5 -18,11 -26,20 -7,8 -15,20 -25,39 -10,19 -24,47 -40,78 -17,31 -37,66 -47,83 -10,18 -10,18 -10,18 0,0 0,0 3,-38 3,-38 9,-113 16,-186 7,-73 13,-144 18,-191 2,-16 3,-30 5,-41 28,-546 479,-980 1033,-980z"/>
   <g>
    <path class="fil53 str3" d="M38895 15800c-502,0 -908,407 -908,908 0,501 406,908 908,908 501,0 908,-407 908,-908 0,-501 -407,-908 -908,-908zm603 1020c-61,7 -176,10 -357,15 -180,5 -427,13 -588,17 -161,4 -236,4 -273,4 -38,0 -38,0 -38,0 0,0 0,0 5,11 4,12 13,34 32,74 18,39 46,96 78,143 33,46 70,83 114,118 44,34 95,66 140,89 45,23 83,37 133,46 49,10 110,14 159,15 48,1 85,0 135,-11 51,-10 114,-30 173,-59 58,-29 112,-67 162,-125 49,-57 94,-133 127,-198 33,-65 54,-117 61,-138 6,-20 -2,-8 -63,-1z"/>
    <circle class="fil54" cx="38886" cy="16699" r="475"/>
    <circle class="fil17 str3" cx="38895" cy="16708" r="107"/>
    <path class="fil55" d="M38895 16010c-386,0 -699,312 -699,698 0,386 313,698 699,698 385,0 698,-312 698,-698 0,-386 -313,-698 -698,-698zm0 492c-14,0 -27,2 -39,4l-16 -427c18,-1 36,-2 55,-2 14,0 27,1 41,2l-3 427c-13,-2 -25,-4 -38,-4zm-69 12c-46,16 -84,48 -108,89l-366 -216c84,-142 222,-249 387,-290l87 417zm-122 117c-8,21 -13,43 -15,66l-416 -94c7,-47 20,-92 38,-134l393 162zm-13 104c5,43 24,82 52,112l-312 289c-104,-112 -167,-263 -167,-428 0,-9 0,-18 0,-27l427 54zm75 134c17,13 36,24 57,32l-228 362c-35,-18 -68,-40 -98,-65l269 -329zm85 40c14,3 29,5 44,5 23,0 45,-4 66,-11l190 382c-78,35 -165,54 -256,54 -83,0 -162,-16 -235,-45l191 -385zm136 -17c19,-9 36,-22 51,-36l281 319c-31,29 -66,54 -104,77l-228 -360zm74 -63c24,-32 38,-72 39,-115l424 -45c1,13 2,26 2,39 0,162 -62,310 -162,422l-303 -301zm38 -148c-4,-24 -11,-48 -22,-69l405 -136c13,34 24,69 31,106l-414 99zm-40 -96c-23,-32 -56,-56 -93,-70l64 -423c174,38 322,148 409,298l-380 195z"/>
    <circle class="fil56" cx="38892" cy="16705" r="107"/>
   </g>
   <path class="fil46" d="M31218 15674c572,0 1035,463 1035,1034 0,34 -2,67 -5,100l-2 27c-1,25 -2,50 -3,63 -1,12 -1,12 -1,12l-2 -1 -1 6c0,0 0,0 -30,-3 -30,-3 -91,-8 -173,-15 -81,-7 -184,-17 -288,-23 -105,-6 -210,-8 -354,-3 -145,5 -328,19 -469,40 -141,22 -240,52 -323,79 -82,26 -148,49 -209,74 -60,25 -116,52 -148,71 -20,11 -31,19 -38,22 -6,5 -10,8 -14,9 -5,3 -8,4 -10,1 -2,1 -4,1 -6,1 0,-9 0,-21 0,-36 1,-81 2,-245 4,-354 1,-45 2,-81 4,-111 21,-552 476,-993 1033,-993zm898 897c-66,-436 -443,-770 -898,-770 -487,0 -885,384 -907,867 46,-61 125,-104 320,-129 211,-28 558,-36 836,-29 279,8 490,30 608,53 15,2 29,5 41,8z"/>
   <g>
    <path class="fil53" d="M31218 15792c-501,0 -907,406 -907,908 0,501 406,907 907,907 502,0 908,-406 908,-907 0,-502 -406,-908 -908,-908zm604 1019c-62,8 -176,10 -357,16 -181,5 -427,13 -588,17 -161,4 -236,4 -274,4 -37,0 -37,0 -37,0 0,0 0,0 4,11 5,11 14,33 33,73 18,40 46,96 78,143 32,47 69,84 114,118 44,34 95,66 140,89 45,23 83,38 132,47 50,9 111,13 159,14 49,2 86,0 136,-10 50,-11 114,-30 172,-59 59,-29 113,-68 162,-125 50,-57 95,-134 128,-199 33,-64 54,-117 60,-137 7,-21 -1,-9 -62,-2z"/>
    <circle class="fil54" cx="31209" cy="16690" r="475"/>
    <circle class="fil17" cx="31218" cy="16700" r="107"/>
    <path class="fil55" d="M31218 16001c-385,0 -698,313 -698,699 0,385 313,698 698,698 386,0 699,-313 699,-698 0,-386 -313,-699 -699,-699zm0 493c-13,0 -26,1 -39,4l-15 -427c18,-2 36,-2 54,-2 14,0 28,0 42,1l-4 427c-12,-2 -25,-3 -38,-3zm-68 12c-46,16 -84,48 -108,88l-367 -216c85,-142 223,-248 387,-290l88 418zm-123 117c-8,20 -13,42 -14,65l-417 -94c8,-46 21,-91 38,-133l393 162zm-13 103c6,44 25,82 53,113l-312 289c-104,-113 -168,-263 -168,-428 0,-10 1,-19 1,-28l426 54zm76 134c17,14 36,25 56,32l-227 363c-35,-19 -68,-41 -98,-66l269 -329zm84 40c15,4 29,5 44,5 24,0 46,-4 67,-11l190 382c-78,35 -165,54 -257,54 -83,0 -162,-16 -234,-45l190 -385zm136 -16c19,-10 37,-22 52,-37l281 319c-32,29 -67,55 -104,77l-229 -359zm75 -64c23,-32 38,-72 39,-114l424 -45c1,13 1,25 1,39 0,162 -61,310 -161,421l-303 -301zm37 -147c-3,-25 -10,-48 -21,-69l404 -136c14,33 24,69 32,105l-415 100zm-39 -97c-23,-31 -56,-56 -93,-69l64 -424c174,38 321,148 409,298l-380 195z"/>
    <circle class="fil56" cx="31215" cy="16696" r="107"/>
   </g>
   <path class="fil45" d="M35875 15238c8,20 13,42 15,69 1,27 -2,59 -16,83 -15,25 -41,42 -85,52 -44,10 -106,12 -159,0 -53,-12 -96,-38 -123,-63 -26,-25 -35,-49 -31,-69 3,-21 21,-38 69,-59 49,-21 130,-46 185,-58 55,-12 86,-10 106,-1 21,9 31,26 39,46z"/>
   <path class="fil57" d="M35925 15350c-111,13 -328,19 -444,17 -115,-1 -128,-9 -133,-20 -6,-10 -3,-23 6,-35 9,-11 25,-20 127,-32 103,-13 291,-29 397,-34 105,-5 128,0 141,10 13,10 17,24 18,42 0,18 -2,39 -112,52z"/>
  </g>
  <rect class="fil58" x="3889" y="13758" width="156" height="3851"/>
  <rect class="fil58" x="8139" y="13774" width="156" height="3835"/>
  <polygon class="fil59" points="48792,19559 2,19559 2,17704 48792,17704 "/>
  <path class="fil57" style="mask:url(#id0)" d="M30385 15712c-109,75 -279,207 -401,285 -122,78 -196,102 -415,208 -220,105 -586,293 -1084,480 -498,188 -1128,375 -1628,488 -500,113 -870,151 -1055,170 -185,20 -185,20 -185,20 0,0 0,0 0,0 0,0 0,0 0,-434 0,-435 0,-1303 0,-1737 0,-434 0,-434 0,-434 0,0 0,0 829,141 828,141 2486,422 3291,571 805,150 757,167 648,242z"/>
  <rect class="fil60" y="17607" width="48790" height="102"/>
  <rect class="fil61" x="2878" y="11037" width="6433" height="3234" rx="75" ry="75"/>
  <path class="fil62" d="M4049 11037l-1096 0c-42,0 -75,33 -75,74l0 192c16,9 29,14 37,31 11,24 9,72 20,101 11,30 35,40 65,41 31,0 69,-9 99,-28 30,-19 52,-47 66,-72 15,-25 21,-46 26,-63 5,-18 9,-32 20,-42 10,-11 27,-17 50,-26 23,-8 51,-19 88,-29 38,-11 83,-21 138,-26 54,-5 118,-5 181,-2 64,3 126,10 187,2 61,-7 121,-28 161,-49 40,-22 59,-44 61,-63 1,-14 -9,-26 -28,-41z"/>
  <g id="_2073774673360">
   <path class="fil63" d="M6286 12423c5,-3 10,-7 16,-10 28,-19 60,-32 93,-39 34,-7 69,-7 103,0 39,8 73,25 100,54 30,31 51,75 59,117 8,42 6,88 -10,128 -14,36 -38,65 -70,86 -26,17 -57,29 -89,34 -24,4 -53,4 -77,-2 -25,-7 -48,-22 -57,-48 -8,-23 -2,-46 12,-65 4,-5 12,-14 15,-18 0,-1 0,-2 0,-3 0,0 0,-1 -1,-1 -6,-3 -20,-3 -27,-2 -11,2 -22,6 -31,13 -10,9 -19,23 -25,34 -4,7 -7,15 -10,22 19,9 28,29 28,53 0,13 0,26 0,39 -1,4 -1,8 -2,12 8,-5 17,-8 27,-9 15,-2 31,0 46,6 21,9 38,23 50,44 15,25 21,57 17,85 -5,30 -22,58 -44,78 -22,21 -49,33 -80,34 -29,0 -58,-9 -83,-23 0,13 -2,26 -5,39 -3,12 -6,24 -11,36 0,1 -1,3 -1,4 -8,23 -19,52 -33,72 -15,22 -38,33 -61,30 -24,3 -46,-8 -61,-30 -14,-20 -26,-49 -33,-72 -1,-1 -1,-3 -2,-4 -4,-12 -8,-24 -10,-36 -3,-13 -5,-26 -6,-39 -24,14 -54,23 -82,23 -31,-1 -58,-13 -80,-34 -23,-20 -40,-48 -44,-78 -5,-28 2,-60 17,-85 11,-21 28,-35 50,-44 15,-6 30,-8 46,-6 10,1 19,4 26,9 0,-4 -1,-8 -1,-12 0,-13 0,-26 0,-39 0,-24 9,-44 28,-53 -3,-7 -6,-15 -10,-22 -7,-11 -15,-25 -26,-34 -9,-7 -19,-11 -30,-13 -7,-1 -21,-1 -28,2 0,0 0,1 0,1 0,1 0,2 0,3 2,4 11,13 14,18 14,19 20,42 12,65 -9,26 -31,41 -56,48 -25,6 -53,6 -78,2 -31,-5 -62,-17 -89,-34 -32,-21 -55,-50 -69,-86 -16,-40 -19,-86 -11,-128 9,-42 30,-86 59,-117 28,-29 62,-46 101,-54 34,-7 69,-7 102,0 34,7 65,20 94,39 5,3 10,7 15,10 -4,-15 -7,-31 -10,-48 -7,-46 -6,-89 6,-134 13,-47 36,-97 61,-138 20,-34 46,-77 90,-79 48,-3 78,43 100,79 24,41 48,91 60,138 12,45 14,88 6,134 -2,17 -6,33 -10,48zm-1 443c0,0 -1,0 -2,1 0,0 0,0 0,0 0,2 1,3 1,4 1,-2 1,-3 1,-5 0,0 0,0 0,0zm-301 0c0,0 0,0 0,0 1,2 1,3 1,5 1,-1 1,-2 2,-4 0,0 0,0 0,0 -1,-1 -2,-1 -3,-1z"/>
  </g>
  <path class="fil64" d="M6163 12722c2,-23 5,-58 15,-102 10,-44 26,-97 40,-140 14,-43 24,-77 29,-112 6,-35 6,-72 -5,-115 -11,-42 -35,-90 -55,-125 -47,-79 -64,-67 -104,0 -21,35 -44,83 -55,125 -12,43 -11,80 -6,115 6,35 16,69 30,112 13,43 30,96 40,140 10,44 13,79 15,102 2,23 4,34 4,39 1,6 1,6 1,6 0,0 0,0 -5,0 -5,1 -15,1 -21,2 -5,0 -5,0 -5,0 0,0 0,0 0,-12 0,-11 -1,-35 -6,-62 -5,-28 -13,-59 -25,-91 -12,-31 -27,-63 -45,-88 -18,-26 -40,-46 -64,-61 -24,-16 -49,-27 -76,-32 -28,-6 -56,-6 -83,0 -27,5 -53,16 -75,39 -21,23 -39,57 -46,93 -7,35 -3,72 8,100 11,28 29,48 51,62 22,15 46,23 69,27 23,4 43,2 57,-1 13,-4 20,-10 22,-16 2,-6 0,-13 -5,-20 -5,-7 -13,-14 -18,-24 -5,-10 -8,-22 -5,-36 3,-13 10,-27 25,-35 15,-8 38,-10 59,-7 20,3 39,11 55,24 16,13 28,32 38,48 9,17 15,33 18,47 3,14 4,27 4,34 1,7 1,7 -5,7 -6,0 -18,1 -24,1 -6,1 -6,1 -6,10 0,9 0,27 1,37 0,9 1,9 7,9 7,1 20,3 26,3 6,1 6,1 6,1 0,0 0,0 -1,11 -1,10 -3,32 -10,48 -6,17 -16,28 -27,37 -11,8 -23,13 -34,14 -11,1 -21,-3 -27,-9 -6,-6 -9,-14 -9,-23 0,-10 1,-21 0,-27 -2,-7 -6,-9 -12,-10 -6,-1 -13,0 -22,3 -8,4 -18,10 -25,23 -8,13 -14,33 -11,53 3,19 15,36 28,49 14,12 29,19 48,20 18,0 40,-6 59,-18 19,-12 34,-29 46,-49 12,-21 20,-45 26,-67 6,-21 11,-40 13,-50 2,-9 2,-9 2,-9 0,0 0,0 3,0 4,0 10,0 13,0 4,0 4,0 4,0 0,0 0,0 -1,10 0,10 -1,31 -5,51 -4,20 -11,40 -17,64 -2,8 -3,16 -5,24 -2,8 -3,16 -4,24 -4,25 -4,50 1,75 3,10 6,21 10,31 0,1 1,3 1,5 8,24 18,47 26,58 8,11 13,11 21,7 7,4 13,4 20,-7 8,-11 19,-34 26,-58 1,-2 1,-4 2,-5 4,-10 7,-21 9,-31 6,-25 6,-50 2,-75 -1,-8 -3,-16 -4,-24 -2,-8 -4,-16 -5,-24 -6,-24 -14,-44 -18,-64 -4,-20 -4,-41 -5,-51 0,-10 0,-10 0,-10 0,0 0,0 3,0 4,0 10,0 13,0 4,0 4,0 4,0 0,0 0,0 2,9 2,10 7,29 13,50 6,22 14,46 26,67 11,20 27,37 46,49 18,12 40,18 59,18 18,-1 34,-8 47,-20 14,-13 26,-30 29,-49 3,-20 -3,-40 -11,-53 -8,-13 -17,-19 -26,-23 -8,-3 -15,-4 -21,-3 -6,1 -10,3 -12,10 -1,6 0,17 0,27 -1,9 -3,17 -9,23 -6,6 -17,10 -28,9 -11,-1 -22,-6 -33,-14 -11,-9 -21,-20 -28,-37 -6,-16 -8,-38 -9,-48 -1,-11 -1,-11 -1,-11 0,0 0,0 6,-1 6,0 19,-2 25,-3 7,0 7,0 8,-9 0,-10 0,-28 0,-37 0,-9 0,-9 -6,-10 -6,0 -17,-1 -23,-1 -6,0 -6,0 -6,-7 1,-7 2,-20 5,-34 3,-14 9,-30 18,-47 9,-16 22,-35 37,-48 16,-13 35,-21 56,-24 21,-3 44,-1 59,7 15,8 22,22 25,35 2,14 0,26 -5,36 -5,10 -13,17 -18,24 -6,7 -8,14 -6,20 3,6 9,12 23,16 13,3 34,5 57,1 22,-4 47,-12 69,-27 21,-14 40,-34 51,-62 11,-28 14,-65 7,-100 -7,-36 -24,-70 -46,-93 -21,-23 -47,-34 -74,-39 -27,-6 -56,-6 -83,0 -27,5 -53,16 -76,32 -24,15 -46,35 -65,61 -18,25 -32,57 -44,88 -12,32 -21,63 -25,91 -5,27 -6,51 -6,62 -1,12 -1,12 -1,12 0,0 0,0 -5,0 -5,-1 -15,-1 -20,-2 -5,0 -5,0 -5,0 0,0 0,0 0,-6 1,-5 2,-16 5,-39z"/>
  <path class="fil65" d="M3702 11968c-2,-11 -5,-21 -8,-31 -3,-11 -6,-19 -9,-26 -5,-11 -11,-17 -18,-20 -6,-3 -14,-3 -23,0l-9 -20 103 -50 10 20c-6,5 -9,10 -11,17 -3,6 -4,13 -3,23 0,9 2,23 6,44l68 380 -59 28 -194 -261 71 320 -62 30 -239 -308c-12,-15 -20,-25 -26,-30 -6,-5 -12,-8 -17,-10 -5,-2 -10,-2 -17,-1l-9 -20 133 -64 10 20c-8,5 -13,11 -15,18 -2,7 -1,14 3,23 6,11 16,26 32,47l145 192 -79 -346 56 -27 208 284 -47 -232zm435 131c-8,30 -19,53 -32,69 -13,16 -31,29 -53,38 -40,16 -75,14 -106,-4 -30,-19 -56,-55 -77,-108 -14,-34 -21,-65 -20,-94 0,-29 7,-53 21,-74 13,-20 33,-35 58,-45 15,-6 30,-10 43,-10 14,0 26,2 38,7 11,4 22,11 32,20 11,10 22,24 32,39 11,16 21,37 31,62l-161 65c15,37 32,63 50,77 18,13 38,16 60,7 13,-5 23,-13 31,-23 8,-10 15,-25 21,-45l32 19zm-122 -104c-14,-32 -27,-55 -39,-68 -12,-13 -25,-17 -39,-12 -13,6 -20,18 -22,38 -1,19 4,45 15,76l85 -34zm256 17c7,21 13,35 17,42 3,7 8,13 13,16 4,4 12,5 22,5l7 21 -127 45 -7 -21c4,-3 8,-7 10,-10 2,-3 4,-6 4,-9 1,-3 1,-7 1,-12 0,-5 -2,-11 -4,-18 -2,-7 -6,-18 -11,-32l-89 -249c-6,-19 -11,-32 -15,-41 -3,-8 -6,-15 -9,-21 -3,-5 -6,-10 -9,-12 -3,-3 -7,-5 -11,-6 -4,-1 -10,-1 -17,0l-8 -21 70 -30 33 -12 130 365zm274 -77l29 24c-10,26 -22,46 -35,60 -14,14 -30,24 -49,30 -37,12 -71,7 -99,-14 -29,-21 -51,-58 -68,-111 -11,-35 -15,-68 -12,-97 2,-29 12,-54 28,-73 17,-20 38,-34 64,-42 15,-5 29,-8 44,-10 15,-2 29,-2 42,-2l24 79 -52 16c-9,-20 -17,-33 -26,-41 -8,-8 -17,-10 -27,-7 -6,2 -12,6 -16,12 -5,6 -8,14 -9,26 -2,11 -1,25 2,43 2,17 7,38 15,64 8,25 17,45 26,62 10,16 20,27 31,34 12,7 25,8 39,4 10,-4 19,-9 26,-18 7,-8 15,-21 23,-39zm205 40c-26,7 -50,7 -72,0 -22,-6 -41,-20 -59,-42 -17,-22 -30,-53 -40,-91 -8,-29 -11,-56 -10,-79 1,-23 6,-43 14,-60 8,-17 19,-31 34,-42 14,-11 31,-19 50,-24 43,-11 79,-5 108,17 29,22 50,60 64,114 10,38 13,72 9,100 -4,29 -15,52 -32,70 -16,17 -39,30 -66,37zm-92 -161c12,46 25,80 40,101 14,21 30,29 47,25 9,-3 16,-8 21,-15 5,-8 8,-18 9,-30 1,-12 0,-26 -3,-42 -2,-16 -6,-34 -11,-54 -12,-47 -25,-81 -40,-102 -14,-21 -30,-30 -46,-25 -12,3 -21,10 -26,21 -4,11 -6,27 -5,47 2,19 6,44 14,74zm318 -197l4 0c12,-22 25,-38 36,-48 12,-10 25,-17 38,-19 14,-3 25,-3 35,0 9,2 18,7 26,14 7,7 14,17 21,29 14,-24 27,-42 39,-53 11,-11 25,-18 39,-21 15,-2 27,-2 37,1 11,3 20,8 28,17 8,9 15,20 20,34 6,14 10,32 14,52l23 122c2,10 4,19 6,27 2,9 4,16 6,21 2,4 4,8 7,11 2,3 5,5 9,7 4,1 9,3 14,3l4 22 -130 25 -5 -22c8,-4 13,-9 15,-14 2,-5 3,-12 3,-21 -1,-8 -3,-23 -7,-44l-17 -89c-3,-21 -7,-37 -10,-49 -4,-12 -8,-22 -12,-28 -5,-7 -9,-11 -14,-14 -5,-2 -11,-3 -18,-1 -4,1 -8,2 -12,5 -4,2 -7,6 -11,10 -3,5 -6,9 -8,13 -2,5 -3,9 -4,14 -1,5 -1,11 -1,17 1,6 2,15 5,28l20 109c3,15 5,27 7,35 2,8 4,14 7,19 2,4 5,8 9,10 4,3 9,5 16,6l4 22 -128 24 -4 -22c7,-4 13,-8 15,-14 2,-5 3,-12 3,-20 -1,-9 -3,-23 -7,-45l-17 -89c-3,-15 -5,-27 -8,-37 -2,-10 -4,-18 -7,-24 -2,-6 -5,-11 -7,-16 -3,-4 -6,-8 -9,-10 -3,-2 -6,-4 -10,-5 -3,-1 -8,-1 -13,0 -7,1 -13,5 -19,12 -7,6 -11,14 -15,25 -3,10 -3,20 -1,30l24 129c4,21 7,36 10,44 2,8 6,14 10,18 4,5 10,7 19,8l4 22 -129 25 -5 -22c8,-5 14,-10 16,-15 3,-5 4,-12 3,-20 0,-9 -2,-23 -6,-45l-26 -137c-3,-16 -6,-28 -8,-36 -2,-8 -4,-14 -6,-19 -3,-4 -6,-7 -10,-10 -5,-2 -11,-4 -20,-4l-4 -23 73 -17 34 -6 5 49zm687 126c-16,27 -32,46 -49,58 -17,12 -38,20 -61,23 -43,5 -76,-6 -101,-32 -25,-26 -40,-67 -47,-124 -4,-36 -3,-68 5,-96 8,-28 21,-50 40,-66 18,-16 41,-25 68,-28 16,-2 31,-2 44,2 13,3 25,8 35,16 10,7 18,16 25,27 9,14 16,29 22,47 6,18 10,41 13,67l-173 21c5,40 15,70 29,88 13,17 32,25 56,22 14,-1 26,-6 36,-14 10,-8 21,-20 32,-38l26 27zm-91 -133c-4,-34 -11,-59 -20,-75 -8,-16 -20,-23 -34,-22 -14,2 -24,12 -31,31 -6,18 -8,44 -6,77l91 -11zm458 133c-15,18 -30,30 -42,38 -13,7 -27,12 -42,12 -27,1 -48,-7 -62,-24 -14,-18 -22,-45 -24,-82l-9 -190 -34 2 -1 -24c11,-2 19,-6 24,-11 5,-5 9,-11 12,-19 2,-7 4,-17 6,-30 1,-12 1,-27 1,-46l66 -3 4 85 78 -3 2 42 -78 4 7 153c1,25 3,44 5,56 3,12 6,21 11,27 5,5 11,8 18,8 5,-1 9,-1 13,-3 4,-1 8,-3 13,-6 4,-4 9,-8 13,-14l19 28zm145 46c-27,0 -50,-6 -70,-17 -19,-12 -34,-31 -45,-57 -11,-25 -17,-58 -16,-98 0,-30 3,-56 10,-78 7,-23 16,-41 29,-55 12,-15 26,-25 43,-32 17,-7 35,-11 55,-10 44,0 77,14 100,43 22,29 33,71 33,127 0,40 -6,73 -17,99 -11,27 -27,46 -48,59 -21,13 -45,19 -74,19zm-48 -179c0,48 4,84 13,108 8,24 22,36 39,36 10,0 18,-3 25,-9 6,-6 11,-15 15,-26 4,-12 7,-26 9,-42 2,-16 2,-34 3,-55 0,-48 -5,-85 -13,-109 -9,-24 -22,-36 -39,-36 -12,0 -22,5 -30,14 -7,10 -13,25 -16,44 -4,20 -6,45 -6,75zm535 -273l-1 22c-7,2 -12,4 -16,7 -4,2 -8,5 -10,10 -2,4 -4,10 -5,17 -1,7 -2,16 -3,27l-21 338 53 3c11,1 19,-1 26,-4 7,-4 13,-10 18,-18 5,-8 10,-19 14,-33 4,-13 8,-26 10,-38l38 3 -15 136 -261 -16 1 -23c7,-1 13,-4 17,-6 4,-2 7,-6 9,-10 2,-5 4,-11 5,-18 1,-7 2,-16 3,-27l18 -292c1,-10 1,-19 1,-26 0,-8 -1,-14 -2,-18 -2,-5 -5,-9 -8,-12 -4,-3 -10,-6 -16,-9l1 -22 144 9zm266 495c-27,-4 -50,-12 -68,-26 -18,-14 -30,-34 -38,-61 -8,-27 -10,-60 -5,-99 4,-30 10,-56 19,-77 10,-22 21,-39 35,-52 14,-13 29,-21 47,-26 17,-5 36,-6 55,-4 44,5 76,23 95,55 19,31 25,75 18,130 -4,39 -14,71 -28,96 -14,25 -33,43 -55,53 -22,11 -47,14 -75,11zm-27 -184c-6,48 -6,84 0,109 6,25 17,38 35,40 9,1 18,-1 25,-6 7,-5 14,-14 19,-24 5,-12 10,-25 13,-41 4,-16 7,-34 9,-54 6,-48 6,-85 0,-110 -6,-25 -17,-38 -34,-40 -12,-2 -23,2 -31,11 -9,8 -16,22 -22,41 -6,19 -11,44 -14,74zm272 -130l105 20 -36 185c-4,21 -7,38 -8,50 -2,13 -1,23 0,30 2,8 5,14 8,18 4,4 9,7 16,8 7,1 14,0 23,-4 8,-3 16,-9 23,-17 7,-9 11,-18 13,-28l26 -129c3,-16 5,-28 6,-36 1,-8 1,-15 1,-19 -1,-5 -3,-9 -5,-13 -3,-4 -8,-8 -15,-12l5 -22 105 21 -46 233c-3,17 -6,30 -7,37 -1,8 -1,15 0,20 0,5 2,9 5,13 3,3 9,7 17,11l-5 23 -74 -12 -32 -6 12 -48 -3 -2c-21,16 -38,27 -53,32 -15,5 -29,6 -42,3 -19,-4 -33,-11 -43,-22 -10,-11 -15,-26 -17,-44 -2,-18 0,-40 5,-67l24 -122c3,-12 5,-22 6,-29 1,-6 1,-12 2,-15 0,-4 0,-8 -1,-11 0,-3 -1,-6 -2,-9 -2,-3 -3,-5 -6,-8 -3,-2 -6,-5 -11,-8l4 -21zm489 -32l-21 81 -72 -19 20 -81 73 19zm-213 410c9,-1 16,-3 21,-7 4,-3 8,-9 11,-17 3,-7 7,-21 13,-42l39 -153c3,-11 5,-20 6,-27 1,-6 1,-12 -1,-16 -1,-5 -3,-9 -6,-12 -4,-3 -8,-6 -14,-9l6 -22 74 16 33 8 -60 234c-3,13 -6,22 -7,29 -2,7 -2,12 -3,16 0,3 0,7 0,10 0,3 1,6 2,9 1,3 2,5 5,8 2,3 6,6 11,9l-6 21 -130 -33 6 -22zm227 -11c-2,21 0,38 6,51 6,12 17,21 32,26 13,4 24,3 33,-2 9,-5 16,-15 20,-29 3,-9 4,-17 3,-24 -1,-7 -5,-15 -10,-23 -5,-8 -15,-19 -29,-34 -8,-8 -16,-16 -22,-25 -7,-9 -12,-19 -16,-28 -4,-10 -6,-21 -7,-32 0,-10 1,-22 5,-34 6,-19 16,-35 29,-46 14,-12 30,-18 49,-21 20,-2 40,0 62,7 12,4 25,8 37,13 12,5 26,13 45,24l-24 75 -34 -11c0,-15 -1,-27 -4,-36 -2,-9 -6,-16 -11,-20 -5,-5 -11,-9 -19,-11 -12,-4 -22,-3 -31,1 -9,4 -15,12 -19,24 -2,8 -3,16 -2,22 0,7 3,14 8,21 4,8 14,19 29,34 14,13 25,26 32,39 8,12 12,25 14,39 2,14 0,28 -5,44 -5,18 -13,32 -22,43 -9,11 -20,19 -31,25 -13,5 -26,8 -40,8 -15,-1 -30,-3 -46,-8 -29,-9 -59,-24 -92,-45l24 -78 36 11zm446 -251l-28 78 -71 -26 29 -78 70 26zm-254 386c10,0 17,-1 22,-4 5,-4 9,-9 13,-16 4,-7 10,-21 17,-41l55 -148c4,-11 6,-19 8,-26 2,-7 2,-12 1,-17 0,-5 -2,-9 -5,-12 -3,-3 -7,-7 -13,-10l8 -22 72 23 32 12 -83 227c-5,12 -8,21 -10,28 -2,6 -4,11 -4,15 -1,4 -2,7 -2,10 0,3 1,6 1,9 1,3 2,6 5,9 2,3 5,6 9,10l-7 21 -126 -47 7 -21zm326 105l-3 -3c-21,11 -40,17 -56,19 -16,2 -32,0 -46,-7 -15,-6 -26,-14 -34,-26 -8,-11 -12,-23 -12,-37 -1,-14 2,-29 9,-44 13,-31 35,-50 67,-57 32,-7 74,-2 125,15l13 -30c8,-20 13,-35 14,-47 1,-12 0,-22 -4,-28 -4,-7 -10,-12 -17,-15 -8,-4 -16,-5 -23,-4 -7,1 -15,5 -23,12 -9,8 -17,19 -27,35l-47 -21 24 -57c19,-1 35,-2 47,-3 12,0 24,1 35,2 12,1 22,3 30,5 8,2 17,5 25,8 20,9 35,20 44,31 10,12 14,27 14,45 -1,17 -7,39 -18,66l-52 121c-6,14 -10,25 -13,33 -3,7 -4,13 -5,17 0,4 0,8 1,11 0,3 2,5 4,8 1,2 5,6 11,11l-9 21 -94 -41 20 -40zm37 -110c-26,-10 -48,-12 -65,-7 -18,6 -31,20 -40,42 -6,13 -7,24 -4,33 2,9 9,16 19,20 8,4 16,4 25,2 9,-2 18,-7 25,-13 8,-7 14,-15 18,-25l22 -52zm340 341l-119 -60 10 -20c9,2 15,1 21,-2 5,-3 10,-7 14,-14 5,-7 12,-20 22,-39l41 -81c7,-15 13,-26 17,-36 4,-9 7,-17 9,-24 2,-6 3,-12 3,-17 0,-4 0,-9 -1,-12 -1,-4 -3,-7 -5,-10 -2,-3 -6,-5 -10,-8 -7,-3 -14,-4 -23,-2 -9,1 -18,5 -27,11 -9,6 -16,14 -21,23l-59 117c-9,19 -16,33 -19,41 -2,8 -3,15 -2,20 0,6 4,12 11,19l-10 20 -119 -60 10 -20c9,1 17,0 22,-2 5,-3 10,-8 15,-15 4,-6 11,-19 21,-39l63 -124c8,-15 13,-26 16,-34 4,-7 6,-13 6,-18 1,-6 0,-10 -2,-15 -1,-4 -6,-9 -13,-15l11 -21 68 32 31 15 -25 42 2 3c16,-6 29,-11 40,-13 11,-3 22,-4 32,-3 10,1 20,3 29,8 14,7 24,15 30,24 7,9 10,20 11,31 1,12 -1,26 -5,40 -4,14 -11,30 -20,47l-56 111c-4,9 -8,18 -12,26 -4,7 -6,14 -8,19 -1,5 -2,10 -1,13 0,4 1,8 3,12 2,3 5,7 9,11l-10 19zm198 64l-2 -3c-23,8 -42,12 -58,11 -17,0 -32,-4 -46,-12 -13,-8 -23,-18 -30,-30 -6,-12 -9,-25 -8,-39 2,-13 6,-28 15,-42 16,-29 41,-45 74,-48 32,-3 73,7 122,29l16 -27c11,-19 17,-34 20,-46 2,-11 2,-21 -1,-28 -3,-7 -8,-13 -15,-17 -8,-4 -15,-6 -22,-6 -7,0 -15,3 -25,9 -9,7 -19,17 -30,31l-45 -26 31 -53c19,0 35,1 47,2 12,1 24,3 35,6 11,3 21,6 29,9 8,3 16,7 23,11 19,11 33,23 41,36 8,13 10,28 8,46 -3,17 -11,38 -26,63l-66 115c-8,13 -13,23 -17,30 -4,7 -6,13 -7,17 -1,4 -1,8 -1,10 1,3 2,6 3,9 2,2 5,7 10,12l-11 20 -88 -52 24 -37zm51 -105c-25,-13 -47,-18 -65,-14 -18,3 -33,15 -45,36 -7,12 -9,23 -8,32 2,10 8,17 17,23 7,4 16,6 25,5 9,-2 18,-5 27,-11 8,-6 15,-13 20,-22l29 -49z"/>
  <path class="fil65" d="M3458 13737c24,9 43,21 55,36 13,16 19,35 19,57 0,19 -3,35 -8,49 -6,14 -15,25 -27,34 -11,9 -25,16 -41,20 -16,4 -37,6 -61,6l-160 0 0 -18c7,-2 12,-4 15,-6 4,-3 7,-6 9,-10 2,-3 3,-8 3,-14 1,-6 1,-14 1,-23l0 -243c0,-9 0,-16 -1,-22 0,-6 -1,-11 -3,-15 -2,-4 -5,-7 -8,-9 -4,-2 -9,-4 -16,-6l0 -19 170 0c19,0 35,1 47,3 16,3 30,8 42,15 11,6 19,15 25,26 6,12 10,25 10,41 0,43 -24,75 -71,96l0 2zm-80 -14c17,0 30,-3 40,-8 10,-6 18,-14 23,-24 5,-10 7,-24 7,-41 0,-16 -2,-28 -8,-37 -6,-10 -13,-16 -24,-20 -10,-4 -22,-6 -38,-6 -12,0 -23,1 -35,1l0 135 35 0zm-35 182c10,1 22,1 35,1 17,0 30,-2 41,-6 11,-5 19,-13 25,-24 5,-11 8,-26 8,-45 0,-13 -1,-25 -4,-35 -3,-9 -8,-17 -14,-23 -6,-6 -14,-10 -23,-13 -8,-3 -19,-4 -32,-4l-36 0 0 149z"/>
  <path id="1" class="fil65" d="M3676 13547l0 69 -71 0 0 -69 71 0zm-98 374c8,-3 14,-6 17,-10 3,-4 5,-9 7,-16 1,-7 1,-19 1,-37l0 -131c0,-10 0,-17 -1,-23 -1,-5 -2,-10 -4,-13 -2,-3 -5,-6 -9,-8 -4,-2 -9,-3 -14,-5l0 -19 71 -2 32 0 0 201c0,10 0,18 0,24 1,6 1,10 2,13 0,3 1,6 2,9 1,2 2,4 4,6 1,3 3,4 6,6 3,2 7,3 12,5l0 18 -126 0 0 -18z"/>
  <path id="2" class="fil65" d="M3979 13888c-18,20 -35,35 -52,43 -18,8 -38,13 -60,13 -40,0 -71,-12 -91,-36 -20,-24 -30,-60 -30,-107 0,-31 5,-57 16,-79 10,-22 25,-39 44,-50 19,-12 41,-17 67,-17 15,0 29,2 41,6 12,4 22,9 30,16 9,7 16,16 21,26 7,12 12,25 15,40 3,16 5,35 5,57l-164 0c1,34 6,59 17,75 11,16 28,24 50,24 13,0 25,-2 36,-8 10,-5 21,-14 34,-28l21 25zm-70 -118c-1,-29 -4,-51 -11,-65 -6,-14 -16,-21 -30,-21 -13,0 -23,7 -31,22 -8,15 -13,36 -14,64l86 0z"/>
  <path id="3" class="fil65" d="M4307 13939l-125 0 0 -18c8,-3 13,-6 16,-10 3,-4 5,-9 7,-16 1,-7 1,-19 1,-37l0 -75c0,-14 0,-25 -1,-33 0,-9 -1,-16 -2,-21 -1,-6 -3,-10 -5,-14 -2,-4 -4,-7 -6,-9 -3,-2 -5,-4 -9,-5 -3,-1 -7,-2 -11,-2 -7,0 -14,2 -21,7 -7,4 -13,10 -18,18 -5,8 -7,16 -7,25l0 109c0,18 1,30 2,37 1,7 3,12 6,16 3,4 9,7 17,10l0 18 -125 0 0 -18c8,-3 14,-6 17,-10 3,-4 5,-9 7,-16 1,-7 1,-19 1,-37l0 -116c0,-14 0,-24 0,-31 -1,-7 -2,-12 -3,-16 -2,-4 -5,-7 -8,-10 -3,-2 -9,-5 -18,-7l0 -19 71 -2 33 0 -4 41 3 1c11,-11 20,-19 28,-25 9,-6 17,-11 26,-14 9,-3 18,-5 28,-5 14,0 26,2 35,6 10,5 17,11 23,20 6,8 10,19 12,31 3,12 4,26 4,42l0 104c0,8 0,16 0,23 1,7 1,13 2,17 1,5 3,8 5,11 1,3 4,5 7,7 4,2 7,3 12,5l0 18z"/>
  <path id="4" class="fil65" d="M4441 13659l0 19c-8,2 -14,4 -18,8 -4,3 -6,8 -6,15 0,9 2,21 7,35l37 123 41 -108c4,-9 6,-17 8,-24 2,-6 3,-13 3,-20 0,-8 -2,-14 -7,-19 -4,-6 -10,-9 -17,-10l0 -19 100 0 0 19c-5,2 -9,4 -12,6 -3,3 -5,6 -8,10 -3,4 -6,10 -10,18 -4,7 -9,19 -15,35l-81 195 -49 0 -68 -215c-5,-15 -9,-25 -12,-30 -3,-6 -6,-10 -9,-13 -4,-3 -8,-5 -13,-6l0 -19 129 0z"/>
  <path id="5" class="fil65" d="M4829 13888c-17,20 -35,35 -52,43 -17,8 -37,13 -59,13 -41,0 -71,-12 -91,-36 -20,-24 -31,-60 -31,-107 0,-31 6,-57 16,-79 11,-22 25,-39 44,-50 20,-12 42,-17 67,-17 16,0 30,2 41,6 12,4 22,9 31,16 8,7 15,16 21,26 6,12 11,25 15,40 3,16 5,35 5,57l-164 0c0,34 6,59 17,75 11,16 27,24 50,24 13,0 25,-2 35,-8 11,-5 22,-14 34,-28l21 25zm-70 -118c0,-29 -4,-51 -10,-65 -6,-14 -16,-21 -30,-21 -13,0 -24,7 -32,22 -7,15 -12,36 -14,64l86 0z"/>
  <path id="6" class="fil65" d="M5158 13939l-126 0 0 -18c8,-3 14,-6 17,-10 3,-4 5,-9 6,-16 1,-7 2,-19 2,-37l0 -75c0,-14 0,-25 -1,-33 0,-9 -1,-16 -2,-21 -1,-6 -3,-10 -5,-14 -2,-4 -4,-7 -7,-9 -2,-2 -5,-4 -8,-5 -3,-1 -7,-2 -12,-2 -6,0 -13,2 -20,7 -7,4 -13,10 -18,18 -5,8 -7,16 -7,25l0 109c0,18 0,30 1,37 1,7 3,12 6,16 4,4 9,7 17,10l0 18 -125 0 0 -18c9,-3 15,-6 18,-10 3,-4 5,-9 6,-16 1,-7 2,-19 2,-37l0 -116c0,-14 0,-24 -1,-31 0,-7 -1,-12 -3,-16 -2,-4 -4,-7 -7,-10 -4,-2 -10,-5 -18,-7l0 -19 71 -2 33 0 -4 41 3 1c11,-11 20,-19 28,-25 8,-6 17,-11 26,-14 8,-3 18,-5 28,-5 14,0 26,2 35,6 9,5 17,11 22,20 6,8 10,19 13,31 2,12 4,26 4,42l0 104c0,8 0,16 0,23 0,7 1,13 2,17 1,5 2,8 4,11 2,3 5,5 8,7 3,2 7,3 12,5l0 18z"/>
  <path id="7" class="fil65" d="M5191 13659l100 0 0 157c0,18 1,32 2,42 1,10 3,18 6,24 3,6 6,11 11,13 4,3 9,4 16,4 6,0 13,-2 20,-6 7,-4 13,-10 18,-18 5,-8 7,-16 7,-25l0 -109c0,-14 0,-24 -1,-31 0,-6 -1,-12 -3,-15 -1,-4 -3,-7 -6,-10 -4,-2 -9,-5 -16,-7l0 -19 101 0 0 198c0,14 0,25 1,31 0,7 1,12 3,16 1,4 4,7 7,10 4,2 10,4 18,6l0 19 -71 3 -31 0 2 -41 -3 -1c-16,16 -30,28 -43,34 -12,7 -25,10 -38,10 -18,0 -33,-4 -44,-11 -11,-8 -18,-19 -23,-33 -5,-15 -8,-33 -8,-56l0 -103c0,-11 0,-19 0,-24 0,-6 -1,-10 -1,-14 -1,-3 -1,-5 -2,-8 -1,-3 -2,-5 -4,-7 -2,-2 -4,-4 -7,-6 -3,-1 -7,-3 -11,-4l0 -19z"/>
  <path id="8" class="fil65" d="M5747 13888c-18,20 -35,35 -52,43 -18,8 -37,13 -60,13 -40,0 -70,-12 -91,-36 -20,-24 -30,-60 -30,-107 0,-31 5,-57 16,-79 10,-22 25,-39 44,-50 19,-12 41,-17 67,-17 16,0 29,2 41,6 12,4 22,9 31,16 8,7 15,16 20,26 7,12 12,25 15,40 4,16 6,35 6,57l-164 0c0,34 5,59 16,75 11,16 28,24 50,24 13,0 25,-2 36,-8 10,-5 22,-14 34,-28l21 25zm-70 -118c-1,-29 -4,-51 -10,-65 -6,-14 -16,-21 -30,-21 -14,0 -24,7 -32,22 -8,15 -13,36 -14,64l86 0z"/>
  <path id="9" class="fil65" d="M6145 13888c-18,20 -35,35 -52,43 -18,8 -37,13 -60,13 -40,0 -70,-12 -91,-36 -20,-24 -30,-60 -30,-107 0,-31 5,-57 16,-79 10,-22 25,-39 44,-50 19,-12 41,-17 67,-17 16,0 29,2 41,6 12,4 22,9 30,16 9,7 16,16 21,26 7,12 12,25 15,40 4,16 5,35 6,57l-164 0c0,34 5,59 16,75 11,16 28,24 50,24 13,0 25,-2 36,-8 10,-5 22,-14 34,-28l21 25zm-70 -118c-1,-29 -4,-51 -10,-65 -7,-14 -16,-21 -30,-21 -14,0 -24,7 -32,22 -8,15 -13,36 -14,64l86 0z"/>
  <path id="10" class="fil65" d="M6473 13939l-125 0 0 -18c8,-3 13,-6 16,-10 3,-4 6,-9 7,-16 1,-7 1,-19 1,-37l0 -75c0,-14 0,-25 0,-33 -1,-9 -2,-16 -3,-21 -1,-6 -3,-10 -4,-14 -3,-4 -5,-7 -7,-9 -2,-2 -5,-4 -8,-5 -4,-1 -7,-2 -12,-2 -7,0 -14,2 -21,7 -7,4 -13,10 -18,18 -4,8 -7,16 -7,25l0 109c0,18 1,30 2,37 1,7 3,12 6,16 3,4 9,7 17,10l0 18 -125 0 0 -18c8,-3 14,-6 17,-10 3,-4 6,-9 7,-16 1,-7 1,-19 1,-37l0 -116c0,-14 0,-24 0,-31 -1,-7 -2,-12 -3,-16 -2,-4 -4,-7 -8,-10 -3,-2 -9,-5 -17,-7l0 -19 71 -2 32 0 -4 41 3 1c11,-11 21,-19 29,-25 8,-6 16,-11 25,-14 9,-3 18,-5 28,-5 14,0 26,2 35,6 10,5 17,11 23,20 6,8 10,19 12,31 3,12 4,26 4,42l0 104c0,8 0,16 1,23 0,7 0,13 1,17 2,5 3,8 5,11 2,3 4,5 7,7 4,2 8,3 12,5l0 18z"/>
  <path id="11" class="fil65" d="M6767 13554l0 19c-6,2 -11,4 -15,6 -3,2 -6,5 -8,9 -2,3 -3,8 -4,14 -1,6 -1,14 -1,23l0 281 50 0c10,0 18,-2 24,-5 6,-4 12,-9 16,-16 4,-7 8,-16 11,-28 3,-11 6,-22 8,-32l35 0 -5 114 -247 0 0 -18c7,-2 12,-4 15,-7 4,-2 7,-5 8,-9 2,-4 3,-9 4,-14 1,-6 1,-14 1,-23l0 -243c0,-9 0,-16 -1,-22 0,-6 -1,-11 -3,-15 -2,-4 -5,-7 -8,-9 -4,-2 -9,-4 -16,-6l0 -19 136 0z"/>
  <path id="12" class="fil65" d="M7046 13944c-25,0 -47,-5 -66,-15 -18,-10 -32,-25 -43,-46 -10,-22 -15,-49 -15,-82 0,-25 3,-47 9,-65 7,-19 16,-34 27,-46 11,-12 25,-21 41,-27 15,-5 33,-8 51,-8 42,0 73,12 94,36 22,24 32,59 32,105 0,33 -5,60 -15,82 -11,22 -26,39 -45,50 -20,10 -43,16 -70,16zm-46 -149c0,40 4,70 13,90 8,19 20,29 37,29 9,0 17,-2 23,-7 6,-5 11,-13 14,-22 4,-10 7,-21 8,-35 2,-13 3,-28 3,-45 0,-41 -4,-71 -13,-91 -8,-20 -20,-30 -36,-30 -12,0 -21,4 -28,12 -7,8 -12,20 -16,37 -3,16 -5,37 -5,62z"/>
  <path id="13" class="fil65" d="M7216 13659l101 0 0 157c0,18 1,32 2,42 1,10 3,18 6,24 2,6 6,11 10,13 5,3 10,4 17,4 6,0 13,-2 20,-6 7,-4 13,-10 18,-18 5,-8 7,-16 7,-25l0 -109c0,-14 0,-24 -1,-31 0,-6 -1,-12 -3,-15 -1,-4 -4,-7 -7,-10 -3,-2 -8,-5 -15,-7l0 -19 101 0 0 198c0,14 0,25 1,31 0,7 1,12 3,16 1,4 4,7 7,10 4,2 9,4 18,6l0 19 -71 3 -31 0 2 -41 -3 -1c-16,16 -30,28 -43,34 -12,7 -25,10 -38,10 -18,0 -33,-4 -44,-11 -11,-8 -19,-19 -23,-33 -5,-15 -8,-33 -8,-56l0 -103c0,-11 0,-19 0,-24 0,-6 -1,-10 -1,-14 -1,-3 -1,-5 -2,-8 -1,-3 -3,-5 -4,-7 -2,-2 -4,-4 -7,-6 -3,-1 -7,-3 -12,-4l0 -19z"/>
  <path id="14" class="fil65" d="M7637 13547l0 69 -71 0 0 -69 71 0zm-99 374c9,-3 15,-6 18,-10 3,-4 5,-9 6,-16 1,-7 2,-19 2,-37l0 -131c0,-10 0,-17 -1,-23 -1,-5 -2,-10 -5,-13 -2,-3 -5,-6 -8,-8 -4,-2 -9,-3 -15,-5l0 -19 71 -2 33 0 0 201c0,10 0,18 0,24 0,6 1,10 1,13 1,3 2,6 2,9 1,2 3,4 4,6 2,3 4,4 7,6 3,2 7,3 12,5l0 18 -127 0 0 -18z"/>
  <path id="15" class="fil65" d="M7739 13863c4,17 10,30 19,39 9,8 21,12 36,12 13,0 23,-3 30,-9 6,-7 10,-16 10,-28 0,-8 -2,-14 -5,-20 -3,-5 -8,-11 -15,-16 -7,-5 -19,-11 -36,-19 -9,-5 -18,-10 -27,-15 -8,-6 -15,-12 -21,-19 -7,-6 -12,-14 -15,-23 -4,-8 -6,-17 -6,-28 0,-17 5,-31 14,-44 9,-12 22,-22 38,-28 17,-7 36,-10 57,-10 13,0 25,0 37,1 12,2 28,4 47,8l0 66 -34 0c-4,-13 -8,-22 -13,-28 -5,-7 -10,-12 -16,-14 -5,-3 -12,-4 -20,-4 -12,0 -21,3 -27,9 -7,5 -10,13 -10,23 0,7 1,14 3,19 3,5 7,10 13,14 6,5 18,12 36,20 16,7 30,15 40,23 10,8 18,17 23,27 5,11 8,23 8,37 0,15 -3,28 -8,39 -5,11 -12,20 -21,28 -10,7 -21,12 -34,16 -13,3 -27,5 -43,5 -29,0 -60,-5 -95,-14l0 -67 35 0z"/>
  <path id="16" class="fil65" d="M8047 13547l0 69 -71 0 0 -69 71 0zm-99 374c9,-3 15,-6 18,-10 3,-4 5,-9 6,-16 1,-7 2,-19 2,-37l0 -131c0,-10 -1,-17 -1,-23 -1,-5 -3,-10 -5,-13 -2,-3 -5,-6 -8,-8 -4,-2 -9,-3 -15,-5l0 -19 71 -2 33 0 0 201c0,10 0,18 0,24 0,6 1,10 1,13 1,3 1,6 2,9 1,2 3,4 4,6 2,3 4,4 7,6 3,2 7,3 12,5l0 18 -127 0 0 -18z"/>
  <path id="17" class="fil65" d="M8268 13902l-4 -1c-14,15 -28,26 -41,33 -13,6 -28,10 -43,10 -15,0 -27,-3 -38,-9 -11,-6 -20,-14 -25,-25 -6,-10 -9,-23 -9,-36 0,-28 13,-50 38,-66 25,-15 63,-26 113,-30l0 -26c0,-18 -2,-31 -5,-41 -4,-9 -8,-16 -14,-20 -6,-4 -13,-6 -21,-6 -8,0 -14,2 -20,5 -6,3 -11,8 -16,17 -4,8 -8,20 -10,35l-49 0 0 -52c16,-7 29,-13 40,-18 10,-4 20,-7 31,-10 10,-3 19,-4 27,-6 8,-1 16,-1 25,-1 20,0 37,3 50,9 12,6 22,16 28,29 6,14 9,32 9,56l0 110c0,13 0,22 1,29 0,7 1,12 2,15 1,4 3,6 5,8 1,2 3,4 6,5 2,1 7,3 14,5l0 18 -96 0 2 -37zm-8 -96c-27,1 -47,6 -60,16 -13,11 -19,25 -19,45 0,12 3,20 9,27 6,6 14,9 24,9 8,0 15,-3 22,-7 8,-5 13,-11 17,-19 4,-7 7,-16 7,-24l0 -47z"/>
  <path id="18" class="fil65" d="M8680 13939l-125 0 0 -18c7,-3 13,-6 16,-10 3,-4 5,-9 6,-16 2,-7 2,-19 2,-37l0 -75c0,-14 0,-25 -1,-33 0,-9 -1,-16 -2,-21 -1,-6 -3,-10 -5,-14 -2,-4 -4,-7 -6,-9 -3,-2 -6,-4 -9,-5 -3,-1 -7,-2 -12,-2 -6,0 -13,2 -20,7 -7,4 -13,10 -18,18 -5,8 -7,16 -7,25l0 109c0,18 0,30 1,37 1,7 4,12 7,16 3,4 9,7 17,10l0 18 -125 0 0 -18c8,-3 14,-6 17,-10 3,-4 5,-9 6,-16 2,-7 2,-19 2,-37l0 -116c0,-14 0,-24 -1,-31 0,-7 -1,-12 -3,-16 -1,-4 -4,-7 -7,-10 -3,-2 -9,-5 -18,-7l0 -19 71 -2 33 0 -4 41 3 1c11,-11 20,-19 28,-25 8,-6 17,-11 26,-14 9,-3 18,-5 28,-5 14,0 26,2 35,6 9,5 17,11 23,20 5,8 10,19 12,31 3,12 4,26 4,42l0 104c0,8 0,16 0,23 1,7 1,13 2,17 1,5 3,8 4,11 2,3 5,5 8,7 3,2 7,3 12,5l0 18z"/>
  <path id="19" class="fil65" d="M8953 13888c-18,20 -35,35 -53,43 -17,8 -37,13 -59,13 -40,0 -71,-12 -91,-36 -20,-24 -30,-60 -30,-107 0,-31 5,-57 16,-79 10,-22 25,-39 44,-50 19,-12 41,-17 67,-17 15,0 29,2 41,6 12,4 22,9 30,16 9,7 16,16 21,26 7,12 12,25 15,40 3,16 5,35 5,57l-164 0c1,34 6,59 17,75 11,16 28,24 50,24 13,0 25,-2 36,-8 10,-5 21,-14 34,-28l21 25zm-70 -118c-1,-29 -4,-51 -11,-65 -6,-14 -16,-21 -30,-21 -13,0 -23,7 -31,22 -8,15 -13,36 -14,64l86 0z"/>
  <g id="_2073774676240">
   <path class="fil57 str6" d="M3952 9489c-10,21 -18,42 -22,73 -4,30 -4,70 2,105 6,35 16,66 35,96 20,29 47,57 84,85 37,28 83,56 122,80 38,24 68,45 95,66 26,22 49,44 64,75 15,31 21,72 17,103 -4,30 -19,52 -26,63 -7,10 -7,10 -7,10 0,0 0,0 -10,-12 -10,-12 -31,-36 -63,-55 -31,-19 -75,-32 -130,-40 -56,-7 -123,-9 -181,-5 -58,4 -107,14 -152,30 -44,16 -83,38 -135,84 -52,45 -116,115 -163,171 -47,56 -77,99 -103,139 -26,41 -48,79 -64,101 -17,23 -27,29 -38,35 -12,7 -26,14 -37,22 -11,7 -21,15 -27,24 -5,9 -7,19 -8,25 -1,5 -1,5 -7,5 -5,0 -16,-1 -28,1 -11,3 -24,8 -30,16 -6,8 -5,19 0,28 5,9 15,16 20,20 5,4 5,4 -7,20 -12,17 -37,49 -65,98 -27,48 -57,112 -72,162 -15,51 -14,88 -7,109 8,22 23,28 38,13 14,-15 29,-51 37,-68 7,-18 7,-18 5,-1 -2,18 -6,53 -5,82 1,30 7,54 17,61 9,8 23,-2 34,-34 10,-32 18,-87 22,-115 4,-27 4,-27 3,-5 -2,21 -5,65 -3,97 3,33 12,53 25,55 13,2 30,-14 43,-40 12,-26 18,-61 39,-92 21,-31 56,-59 97,-82 41,-23 88,-42 132,-55 44,-13 85,-21 105,-24 21,-4 21,-4 10,2 -10,7 -31,19 -46,34 -14,14 -23,29 -9,33 13,5 50,-2 78,-8 28,-6 48,-11 62,-11 13,0 20,5 23,8 3,2 3,2 9,2 6,0 19,0 42,-3 24,-3 58,-10 87,-17 28,-7 49,-13 70,-16 20,-2 40,0 58,5 18,6 35,15 46,21 11,6 16,9 19,11 3,1 3,1 2,-3 -1,-5 -3,-14 -4,-19 -1,-5 -1,-5 12,-3 14,2 40,6 57,10 16,3 21,6 24,7 2,1 2,1 -2,-5 -5,-6 -14,-19 -32,-32 -18,-13 -44,-25 -61,-32 -17,-6 -25,-5 -30,-5 -4,1 -4,1 -10,-3 -6,-3 -19,-10 -37,-13 -18,-4 -42,-5 -54,-5 -11,0 -11,0 13,-6 25,-5 74,-16 130,-36 57,-21 120,-51 181,-92 61,-42 119,-94 170,-152 52,-57 98,-121 133,-186 36,-65 61,-132 76,-188 16,-57 20,-102 23,-152 2,-50 2,-104 2,-131 -1,-27 -1,-28 -2,-28 -1,0 -3,0 5,2 8,3 26,8 64,6 38,-2 96,-12 158,-30 62,-19 128,-45 185,-66 56,-20 103,-36 135,-44 32,-8 50,-9 66,-4 17,5 32,15 42,28 10,13 15,29 17,37 3,8 3,8 5,0 2,-9 6,-27 6,-45 0,-18 -3,-37 -13,-55 -10,-19 -27,-37 -46,-47 -18,-10 -39,-12 -83,-26 -44,-14 -111,-40 -243,-92 -131,-52 -326,-129 -424,-168 -98,-38 -98,-38 -101,-48 -4,-9 -11,-28 -32,-53 -21,-25 -55,-57 -89,-76 -34,-20 -68,-28 -100,-29 -31,-1 -62,5 -87,13 -24,9 -44,21 -64,29 -21,8 -42,12 -57,15 -16,2 -24,2 -29,2 -4,0 -4,0 7,6 12,5 35,17 46,23 12,6 12,7 -7,10 -19,3 -57,9 -75,11 -18,2 -17,0 -4,4 14,4 38,13 51,18 12,5 12,5 7,15 -5,10 -16,30 -26,51z"/>
   <path class="fil66" d="M3383 10990c-24,6 -55,16 -90,22 -36,7 -76,10 -96,12 -20,2 -20,2 1,-13 21,-14 63,-43 111,-57 47,-14 100,-14 123,-7 24,7 17,20 5,28 -12,7 -30,9 -54,15z"/>
   <path class="fil66" d="M3121 11304c5,-6 9,-15 14,-28 10,-32 18,-87 22,-115 4,-27 4,-27 3,-5 -2,21 -5,65 -3,97 2,20 6,36 12,45l2 -1c11,-6 18,-15 29,-31 11,-16 25,-40 33,-60 8,-21 10,-38 5,-39 -4,-1 -14,15 -23,31 -9,16 -17,32 -24,43 -6,10 -10,14 -14,17 -3,2 -6,2 -8,-1 -2,-3 -3,-10 -3,-22 -1,-12 -1,-29 -1,-56 0,-27 1,-62 1,-80 1,-18 1,-18 -6,14 -7,33 -21,97 -29,131 -8,34 -11,38 -16,39 -4,0 -10,-2 -13,0 -3,1 -3,7 2,12 4,4 10,7 17,9z"/>
   <path class="fil66" d="M3150 10825c4,4 8,7 10,9 5,4 5,4 -7,20 -12,17 -37,49 -65,98 -27,48 -57,112 -72,162 -15,51 -14,88 -7,109 8,22 23,28 38,13 14,-15 29,-51 37,-68 7,-18 7,-18 5,-1 -2,18 -6,53 -5,82 1,30 7,54 17,61 8,7 20,0 30,-25 -5,5 -10,6 -15,0 -4,-6 -8,-22 -10,-54 -1,-32 0,-79 0,-102 0,-24 0,-24 -5,-14 -6,10 -16,30 -26,46 -9,17 -16,30 -25,37 -9,7 -19,9 -23,2 -5,-7 -4,-23 -1,-42 3,-19 8,-43 21,-77 13,-34 33,-79 51,-114 18,-35 33,-60 48,-82 15,-21 29,-39 35,-50 6,-10 4,-12 1,-14 -3,-2 -8,-4 -32,4z"/>
   <path class="fil66" d="M3160 11273c4,21 12,34 22,35 13,2 30,-14 43,-40 12,-26 18,-61 39,-92 21,-31 56,-59 97,-82 41,-23 88,-42 132,-55 44,-13 85,-21 105,-24l6 -1c8,-17 10,-30 6,-41 -9,-25 -54,-34 -95,-36 -41,-2 -78,3 -111,17 -34,14 -64,38 -90,67 -27,29 -49,63 -65,95 -17,33 -29,64 -38,86 -9,23 -15,37 -22,46 -7,8 -14,12 -21,17 -2,3 -5,5 -8,8zm439 -250c-11,7 -26,17 -37,28 -14,14 -23,29 -10,33 21,-24 37,-44 47,-61z"/>
   <path class="fil66" d="M3929 10966c25,-5 72,-16 126,-35 57,-21 120,-51 181,-92 61,-42 119,-94 170,-152 52,-57 98,-121 133,-186 36,-65 61,-132 76,-188 16,-57 20,-102 23,-152 2,-50 2,-104 2,-131 -1,-27 -1,-28 -2,-28 -1,0 -3,0 5,2 8,3 26,8 64,6 21,-1 49,-5 80,-11 -14,-14 -30,-28 -48,-45 -62,-57 -153,-145 -218,-214 -65,-68 -102,-116 -124,-140 -23,-25 -29,-25 -42,-22 -12,2 -30,8 -46,21 -16,12 -31,32 -40,55 -8,23 -11,48 -8,69 2,20 10,36 26,48 16,13 39,24 57,36 18,12 31,26 41,43 10,17 17,38 39,61 22,23 58,49 92,67 34,19 66,30 82,36 16,6 16,6 16,20 1,14 2,42 0,83 -1,42 -5,96 -19,155 -14,59 -39,122 -64,173 -24,51 -49,89 -83,132 -33,43 -76,91 -122,133 -45,41 -93,75 -139,103 -45,27 -88,47 -124,62 -36,15 -64,23 -79,28 -14,4 -14,4 7,-10 20,-14 62,-42 103,-76 41,-34 82,-74 118,-118 35,-43 65,-91 83,-135 18,-43 23,-82 26,-111 2,-29 2,-50 2,-60 0,-10 0,-10 -1,-6 -1,4 -3,12 -12,34 -10,21 -27,57 -50,94 -22,37 -49,75 -87,115 -38,39 -86,81 -126,111 -41,30 -73,49 -116,63 -43,14 -96,25 -133,27 -36,2 -55,-3 -64,-10 -8,-7 -5,-15 9,-25 13,-9 38,-21 65,-36 26,-15 54,-34 75,-52 22,-18 37,-37 44,-46 8,-9 8,-9 2,-3 -6,6 -18,17 -48,35 -30,18 -77,43 -118,58 -41,16 -75,23 -99,23 -23,0 -37,-6 -42,-20 -5,-14 -2,-35 15,-59 17,-24 48,-51 75,-74 27,-23 50,-42 62,-52 12,-9 12,-9 12,-9 0,0 0,0 -15,8 -15,8 -45,24 -84,44 -39,21 -87,46 -127,62 -41,17 -74,25 -101,29 -26,3 -45,2 -55,1 -10,0 -10,0 20,-22 30,-21 90,-64 120,-85 30,-21 30,-21 13,-11 -17,10 -51,31 -83,50 -31,19 -59,37 -82,48 -23,11 -40,16 -53,18 -14,2 -24,1 -32,3 -8,2 -13,7 3,39 16,32 53,92 114,134 61,43 147,69 245,81 82,10 172,11 260,6z"/>
   <path class="fil67" d="M3296 10680c-7,6 -13,10 -19,13 -12,7 -26,14 -37,22 -11,7 -21,15 -27,24 -5,9 -7,19 -8,25 -1,5 -1,5 -7,5 -5,0 -16,-1 -28,1 -11,3 -24,8 -30,16 -6,8 -5,19 0,28 5,9 15,16 20,20 4,2 5,3 2,8 17,8 38,16 57,20 19,5 35,5 43,5 8,0 8,0 0,1 -9,1 -25,3 -38,10 -14,8 -23,20 -23,33 -1,13 8,26 27,37 19,11 48,20 72,24 24,4 43,3 53,2 10,0 10,0 5,1 -5,1 -15,4 -17,10 -1,6 6,15 33,22 27,7 73,11 116,12 42,0 80,-2 99,-4 4,0 7,0 9,0l0 0c21,-4 21,-4 10,2 -10,7 -31,19 -46,34 -14,14 -23,29 -9,33 13,5 48,-2 76,-8 24,-7 54,-21 103,-50 65,-40 162,-108 211,-141 48,-34 48,-34 40,-33 -9,1 -27,4 -63,8 -35,3 -90,8 -136,7 -46,-2 -85,-9 -107,-18 -22,-10 -28,-21 -31,-27 -3,-6 -3,-6 -3,-6 0,0 0,0 -11,3 -11,3 -32,10 -57,11 -25,1 -54,-2 -69,-8 -14,-5 -14,-12 -10,-21 4,-9 12,-20 26,-36 14,-15 34,-35 44,-45 10,-10 10,-10 10,-10 0,0 0,0 -11,3 -11,4 -34,11 -72,16 -37,5 -90,7 -124,6 -34,-1 -50,-5 -62,-24 -4,-8 -8,-19 -11,-31z"/>
   <path class="fil68" d="M3723 11075l2 0c6,0 19,0 42,-3 24,-3 58,-10 87,-17 28,-7 49,-13 70,-16 20,-2 40,0 58,5 18,6 35,15 46,21 11,6 16,9 19,11 3,1 3,1 2,-3 -1,-5 -3,-14 -4,-19 -1,-5 -1,-5 12,-3 14,2 40,6 57,10 16,3 21,6 24,7 2,1 2,1 -2,-5 -5,-6 -14,-19 -32,-32 -18,-13 -44,-25 -61,-32 -17,-6 -25,-5 -30,-5 -4,1 -4,1 -10,-3 -6,-3 -19,-10 -37,-13 -11,-3 -24,-4 -35,-4 -36,6 -62,16 -94,29 -32,13 -70,29 -91,42 -19,13 -25,23 -23,30z"/>
   <path class="fil69" d="M4639 10006c0,-4 -1,-4 -1,-4 -1,0 -3,0 5,2 8,3 26,8 64,6 38,-2 96,-12 158,-30 62,-19 128,-45 185,-66 56,-20 103,-36 135,-44 32,-8 50,-9 66,-4 17,5 32,15 42,28 10,13 15,29 17,37 3,8 3,8 5,0 2,-9 6,-27 6,-45 0,-18 -3,-37 -13,-55 -10,-19 -27,-37 -46,-47 -18,-10 -39,-12 -83,-26 -44,-14 -111,-40 -243,-92 -131,-52 -326,-129 -424,-168 -88,-34 -97,-38 -100,-45 -1,3 -2,7 -3,11 -4,20 -5,46 -6,60 -1,13 -1,13 -8,18 -8,4 -24,13 -39,24 -16,11 -31,24 -43,40 -13,15 -22,31 -28,48 -6,17 -8,34 -5,51 3,17 10,34 33,50 22,15 60,29 78,35 19,7 19,7 23,18 4,11 12,32 27,55 14,23 34,47 62,71 27,23 63,46 125,68 3,2 7,3 11,4z"/>
   <path class="fil70" d="M4639 10006c0,-4 -1,-4 -1,-4 -1,0 -3,0 5,2 8,3 26,8 64,6 38,-2 96,-12 158,-30 62,-19 128,-45 185,-66 56,-20 103,-36 135,-44 32,-8 50,-9 66,-4l2 1c-1,-2 -2,-3 -3,-4 -11,-13 -29,-20 -48,-24 -19,-3 -40,-3 -74,4 -33,6 -79,18 -124,33 -46,16 -92,33 -139,47 -47,14 -95,24 -139,25 -44,2 -83,-5 -117,-19 -34,-13 -63,-34 -84,-54 -21,-21 -34,-41 -45,-61 -10,-19 -18,-37 -25,-48 -6,-11 -11,-15 -26,-19 -14,-5 -39,-9 -59,-16 -19,-7 -33,-17 -45,-30 -11,-12 -20,-27 -24,-42 -3,-15 -1,-29 4,-42l0 -1c-9,12 -15,25 -20,38 -6,17 -8,34 -5,51 3,17 10,34 33,50 22,15 60,29 78,35 19,7 19,7 23,18 4,11 12,32 27,55 14,23 34,47 62,71 27,23 63,46 125,68 3,2 7,3 11,4z"/>
   <path class="fil70" d="M5312 9935c1,4 1,2 3,-4 1,-6 3,-16 5,-27 -2,-5 -5,-10 -9,-16 -10,-14 -28,-28 -51,-41 -23,-13 -52,-25 -91,-36 -38,-12 -86,-23 -147,-35 -60,-13 -133,-27 -195,-39 -61,-13 -112,-23 -159,-33 -47,-9 -92,-18 -125,-26 -33,-7 -56,-14 -74,-22 -18,-7 -32,-16 -42,-25 -10,-8 -16,-18 -20,-23 -3,-4 -3,-4 -1,0 3,5 7,15 17,25 10,10 26,20 53,32 28,11 67,23 128,37 61,13 145,27 225,43 80,15 155,32 211,44 55,13 90,22 121,31 32,10 59,20 81,31 22,11 39,22 50,34 11,12 17,25 19,39 0,4 1,7 1,11z"/>
   <path class="fil71" d="M4188 9352c-12,1 -23,4 -34,8 -11,4 -22,10 -27,13 -6,3 -6,3 -3,-1 3,-4 8,-13 18,-21 10,-8 26,-17 40,-20 15,-4 30,-3 42,1 11,3 20,10 24,13 4,4 4,6 0,6 -5,-1 -14,-2 -25,-2 -11,-1 -24,1 -35,3z"/>
   <ellipse class="fil1" transform="matrix(0.515344 0.0187858 -0.0187858 0.515344 4214.91 9524.25)" rx="156" ry="207"/>
   <ellipse class="fil72" transform="matrix(0.403928 0.0147243 -0.0147243 0.403928 4207.59 9538.4)" rx="156" ry="207"/>
   <ellipse class="fil71" transform="matrix(0.272554 0.0099354 -0.0099354 0.272554 4205.58 9542.43)" rx="156" ry="207"/>
   <path class="fil73" d="M4513 9553c12,10 26,23 32,29 7,7 7,7 4,6 -2,-2 -8,-4 -18,-8 -10,-3 -25,-8 -36,-14 -10,-7 -18,-14 -20,-19 -2,-6 2,-10 9,-10 7,1 17,7 29,16z"/>
   <ellipse class="fil57" cx="4173" cy="9516" rx="15" ry="16"/>
  </g>
  <path class="fil74" d="M44166 15148c147,-30 31,-11 84,19l3 1268 118 -15c-108,-31 -60,30 -95,-74l10 -1214c335,-327 403,-498 534,-1062 110,-472 143,-970 141,-1469 -1,-434 -119,-2407 -835,-2408 91,434 22,1932 22,2477 0,416 0,833 0,1249 0,331 -34,932 18,1229z"/>
  <path class="fil75" d="M44010 16421l19 -1254c60,-33 -72,-42 137,-19 -52,-297 -18,-898 -18,-1229 0,-416 0,-833 0,-1249 0,-545 69,-2043 -22,-2477 -439,134 -595,847 -671,1266 -92,508 -137,1251 -79,1787 59,536 134,1116 362,1534 269,494 277,63 272,699 -2,313 -1,628 0,942z"/>
  <path class="fil76" d="M42605 15195c132,846 529,1443 1417,1486l3 751c2,79 16,137 37,175l163 0c26,-41 45,-103 47,-183 6,-176 -70,-610 50,-734 605,-155 618,-132 989,-501 239,-237 359,-644 439,-1058l-93 16 -159 -42c-88,671 -460,1250 -1127,1315l-118 15 -3 -1268c-53,-30 63,-49 -84,-19 -209,-23 -77,-14 -137,19l-19 1254c-685,15 -1076,-577 -1145,-1223l-65 -78 -195 75z"/>
  <path class="fil74" d="M45657 15147l93 -16c300,-429 371,-843 369,-1490 -2,-433 -64,-1338 -425,-1404l-71 6c24,477 11,961 11,1433 0,347 -48,1189 23,1471z"/>
  <path class="fil75" d="M42605 15195l195 -75 -98 -25c32,-346 37,-2739 -12,-2887 -375,119 -454,1009 -448,1468 5,394 45,876 207,1215 52,109 112,185 156,304z"/>
  <path class="fil77" d="M42800 15120l65 78c3,-207 61,-168 139,-344 360,-809 184,-2732 -314,-2646 49,148 44,2541 12,2887l98 25z"/>
  <path class="fil75" d="M45498 15105l159 42c-71,-282 -23,-1124 -23,-1471 0,-472 13,-956 -11,-1433l71 -6c-188,-191 -376,337 -412,457 -233,788 -150,1721 216,2411z"/>
  <path class="fil78" d="M47347 16851c34,13 14,0 36,26 0,0 16,29 17,31 85,56 135,112 286,115l2 -771c-169,5 -279,86 -337,189 -36,66 -54,126 -52,212 2,95 49,149 48,198z"/>
  <path class="fil78" d="M46137 16881c12,-74 12,-701 -2,-770 -216,8 -379,167 -379,383 0,217 164,382 381,387z"/>
  <path class="fil79" d="M46874 16547l77 -1c133,-40 165,-40 248,-131 68,-74 104,-161 98,-279 -9,-204 -176,-363 -391,-363 38,198 -20,564 10,753 -4,1 -17,5 -19,6 -19,9 -10,5 -23,15z"/>
  <path class="fil78" d="M46874 16547c13,-10 4,-6 23,-15 2,-1 15,-5 19,-6 -30,-189 28,-555 -10,-753 -211,10 -372,160 -379,373 -4,120 45,213 105,276 89,94 122,81 242,125z"/>
  <path class="fil79" d="M46137 16881c53,0 102,-9 148,-27 19,-8 37,-17 57,-28 18,-10 24,-19 48,-22 12,-36 20,-45 55,-56 15,-61 68,-97 79,-205 9,-86 -7,-161 -41,-225 -60,-115 -177,-208 -348,-207 14,69 14,696 2,770z"/>
  <path class="fil79" d="M47686 17023c213,3 385,-175 383,-391 -2,-218 -168,-369 -381,-380l-2 771z"/>
  <path class="fil40" d="M46445 16748c-35,11 -43,20 -55,56 78,63 159,126 241,190l177 140c23,18 43,28 48,46 35,20 20,57 20,139 0,42 -8,258 6,288l58 0c7,-17 10,-40 10,-59l1 -241 449 -399c-1,-2 -17,-31 -17,-31 -22,-26 -2,-13 -36,-26 -24,27 -68,69 -97,91l-300 263 1 -659 -77 1 -1 537c-74,-52 -144,-109 -217,-168 -75,-61 -139,-112 -211,-168z"/>
 </g>
</svg>
