<?xml version="1.0" encoding="UTF-8"?>
<!DOCTYPE svg PUBLIC "-//W3C//DTD SVG 1.1//EN" "http://www.w3.org/Graphics/SVG/1.1/DTD/svg11.dtd">
<!-- Creator: CorelDRAW X8 -->
<svg xmlns="http://www.w3.org/2000/svg" xml:space="preserve" width="4879px" height="1956px" version="1.1" style="shape-rendering:geometricPrecision; text-rendering:geometricPrecision; image-rendering:optimizeQuality; fill-rule:evenodd; clip-rule:evenodd"
viewBox="0 0 48792 19559"
 xmlns:xlink="http://www.w3.org/1999/xlink">
 <defs>
  <style type="text/css">
   <![CDATA[
    .str7 {stroke:black;stroke-width:31.2391}
    .str0 {stroke:#373435;stroke-width:41.6561}
    .str2 {stroke:#313131;stroke-width:41.6561}
    .str6 {stroke:black;stroke-width:20.8339}
    .str1 {stroke:#424242;stroke-width:20.8339}
    .str3 {stroke:black;stroke-width:8.9997}
    .str4 {stroke:#B5EEFF;stroke-width:8.9997}
    .str5 {stroke:#E6E6E6;stroke-width:8.9997}
    .fil17 {fill:none}
    .fil13 {fill:#373435}
    .fil20 {fill:#EFB783}
    .fil70 {fill:black}
    .fil66 {fill:black}
    .fil69 {fill:#00D9C4}
    .fil35 {fill:#0B3859}
    .fil65 {fill:#111820}
    .fil63 {fill:#121212}
    .fil48 {fill:#121710}
    .fil23 {fill:#1369B6}
    .fil55 {fill:#1B1B1C}
    .fil31 {fill:#1C1C1C}
    .fil27 {fill:#20547B}
    .fil7 {fill:#313131}
    .fil30 {fill:#33322E}
    .fil36 {fill:#333333}
    .fil26 {fill:#362D24}
    .fil28 {fill:#3689BB}
    .fil22 {fill:#3890D0}
    .fil10 {fill:#424242}
    .fil6 {fill:#464646}
    .fil14 {fill:#4A4A4A}
    .fil40 {fill:#4D4D4D}
    .fil39 {fill:#525252}
    .fil15 {fill:#5C707B}
    .fil16 {fill:#71848B}
    .fil8 {fill:#757575}
    .fil56 {fill:#767B7F}
    .fil32 {fill:#797977}
    .fil50 {fill:#7A838A}
    .fil42 {fill:gray}
    .fil57 {fill:#99A3AC}
    .fil51 {fill:#9CADB7}
    .fil58 {fill:#AAB5C5}
    .fil54 {fill:#ADBACA}
    .fil38 {fill:#B5EEFF}
    .fil24 {fill:#B96F48}
    .fil61 {fill:#BABABA}
    .fil53 {fill:#BACADA}
    .fil47 {fill:#C1C2C9}
    .fil18 {fill:#C1CFCF}
    .fil33 {fill:#C77066}
    .fil4 {fill:#C8382F}
    .fil11 {fill:#CACACA}
    .fil37 {fill:#CCCCCC}
    .fil46 {fill:#CDCED3}
    .fil2 {fill:#CFB175}
    .fil52 {fill:#D2D7DD}
    .fil67 {fill:#D61831}
    .fil5 {fill:#DF7E77}
    .fil3 {fill:#DFE9EB}
    .fil34 {fill:#E09474}
    .fil45 {fill:#E0E7ED}
    .fil41 {fill:#E6E6E6}
    .fil43 {fill:#E6EEF1}
    .fil21 {fill:#EC9956}
    .fil29 {fill:#ECB31E}
    .fil25 {fill:#EDD89F}
    .fil12 {fill:#EFEFEF}
    .fil44 {fill:#F1FAFF}
    .fil64 {fill:#F2C802}
    .fil62 {fill:#F2C802}
    .fil0 {fill:#F2F2F2}
    .fil49 {fill:#F2FBFF}
    .fil9 {fill:white}
    .fil59 {fill:white}
    .fil71 {fill:white}
    .fil68 {fill:black;fill-rule:nonzero}
    .fil19 {fill:#464646;fill-rule:nonzero}
    .fil74 {fill:#603D2A;fill-rule:nonzero}
    .fil72 {fill:#8CB346;fill-rule:nonzero}
    .fil1 {fill:#E6E6E6;fill-rule:nonzero}
    .fil60 {fill:#BABABA}
    .fil73 {fill:#8CB346;fill-rule:nonzero}
   ]]>
  </style>
   <mask id="id0">
  <linearGradient id="id1" gradientUnits="userSpaceOnUse" x1="25617.3" y1="16060.5" x2="30445.5" y2="16060.5">
   <stop offset="0" style="stop-opacity:0; stop-color:white"/>
   <stop offset="1" style="stop-opacity:1; stop-color:white"/>
  </linearGradient>
    <rect style="fill:url(#id1)" x="25607" y="14748" width="4849" height="2625"/>
   </mask>
 </defs>
 <g id="Слой_x0020_1">
  <metadata id="CorelCorpID_0Corel-Layer"/>
  <rect class="fil0" x="2" width="48790" height="19559"/>
  <polygon class="fil1" points="2,13374 2,12923 2,12471 1763,12471 1763,11749 3072,11749 3072,9581 4156,9581 4156,11749 5375,11749 5375,10710 5619,10710 5619,10460 7166,10460 7166,10710 7373,10710 7373,11726 7848,11726 7848,10202 8626,10202 8626,11794 8864,11794 8864,11286 9575,11286 9575,10405 10625,10405 10625,11624 11742,11624 11742,9152 12318,9152 12318,8813 15298,8813 15298,9254 15738,9254 15738,11760 16348,11760 16348,11150 16924,11150 16924,11760 17533,11760 17533,10845 18888,10845 18888,11794 18888,12065 19667,12065 20209,12065 20209,7865 20615,7865 20615,7628 21259,7628 21259,7899 21631,7899 21631,11252 22986,11252 22986,9355 24340,9355 24340,10541 27422,10541 27422,11794 28777,11794 28777,8746 30335,8746 30335,11150 31419,11150 31419,11861 32502,11861 32502,11252 33044,11252 33044,9626 33688,9626 33688,9186 36498,9186 36498,9626 37108,9626 37108,11455 37650,11455 37650,11997 38327,11997 38327,10710 41409,10710 41409,11421 44085,11421 44085,12336 45575,12336 45575,11828 46455,11828 46455,12336 47573,12336 47573,12923 48792,12923 48792,12945 48792,13374 48792,18631 2,18631 "/>
  <rect class="fil2" y="17607" width="48790" height="102"/>
  <g id="_2073886272080">
   <path class="fil3" d="M22407 15887c49,2 131,5 187,3 57,-2 88,-7 106,-15 18,-7 23,-17 15,-33 -9,-16 -29,-40 -58,-70 -29,-31 -67,-68 -105,-100 -38,-32 -77,-57 -116,-81 -40,-25 -79,-48 -116,-69 -37,-20 -72,-38 -106,-53 -35,-15 -69,-27 -94,-35 -24,-8 -39,-11 -57,-13 -18,-1 -40,-1 -68,-1 -28,0 -61,1 -85,5 -24,3 -39,10 -50,18 -11,8 -18,18 -19,35 0,17 5,41 23,71 18,30 48,65 83,100 34,34 73,68 117,102 44,34 93,69 138,91 45,22 86,31 114,37 28,5 43,6 91,8z"/>
   <rect class="fil4" x="16149" y="13496" width="526" height="561" rx="62" ry="59"/>
   <polygon class="fil5" points="16220,13496 16603,13496 16603,13784 16220,13784 "/>
   <path class="fil6" d="M11426 15219c-16,-13 -21,-40 -24,-70 -2,-29 -2,-60 3,-88 5,-28 15,-53 28,-73 13,-19 29,-33 48,-43 19,-10 41,-15 190,-17 149,-2 425,-1 569,-1 144,-1 156,-4 256,-43 100,-39 289,-114 521,-205 233,-92 509,-198 781,-294 272,-96 540,-180 775,-242 234,-61 434,-98 625,-128 190,-29 369,-50 543,-62 95,-7 187,-11 283,-13 -1,-2 -1,-4 -1,-6l0 0c0,-36 30,-66 67,-66l617 0c36,0 66,30 66,66l0 0c0,8 -1,16 -4,23 30,2 60,5 90,8 194,20 375,52 551,94 176,42 346,92 519,159 173,67 349,151 528,250 178,100 359,216 522,322 162,106 307,202 379,251 73,48 73,48 73,48 0,0 0,0 0,0 0,0 0,0 347,38 348,39 1043,115 1481,173 437,57 617,95 707,114 89,18 89,18 89,18 0,0 0,0 -30,0 -31,0 -92,0 -124,10 -33,10 -37,30 -19,71 19,41 59,103 109,157 50,54 110,100 165,134 54,33 104,56 196,66 93,10 228,9 296,8 68,0 68,0 68,0 0,0 0,0 0,0 0,0 0,0 10,19 10,20 31,59 39,120 8,61 3,145 0,186 -3,42 -3,42 -3,42 0,0 0,0 7,0 6,0 19,0 26,0 7,0 7,0 7,0 0,0 0,0 0,49 0,49 0,146 0,195 0,49 0,49 0,49 0,0 0,0 0,0 0,0 0,0 -6,-1 -6,-2 -18,-4 -24,-6 -6,-1 -6,-1 -6,-1 0,0 0,0 0,0 0,0 0,0 0,35 0,35 0,106 -4,161 -3,55 -11,96 -24,131 -13,35 -32,65 -54,89 -22,24 -48,42 -82,58 -34,16 -75,29 -187,42 -111,13 -292,26 -382,32 -91,7 -91,7 -91,7 0,0 0,0 -13,-7 -14,-6 -42,-19 -55,-26 -14,-6 -14,-6 -14,-6 0,0 0,0 -10,0 -11,1 -32,2 -42,3 -10,1 -10,1 -284,10 -275,9 -823,27 -1097,36 -274,9 -274,9 -274,9 0,0 0,0 -2,7 -3,8 -8,22 -11,29 -2,7 -2,7 -2,7 0,0 0,0 -935,-10 -934,-11 -2802,-31 -3774,-44 -971,-12 -1045,-16 -1082,-18 -37,-2 -37,-2 -280,-6 -242,-5 -726,-14 -1059,-27 -332,-13 -513,-30 -747,-56 -233,-25 -518,-59 -685,-82 -167,-24 -217,-37 -257,-54 -39,-18 -69,-40 -89,-63 -19,-23 -28,-46 -28,-180 0,-134 9,-379 18,-514 9,-134 18,-159 56,-205 39,-45 107,-112 209,-203 102,-91 239,-207 314,-281 74,-73 87,-104 87,-130 -1,-25 -15,-45 -47,-59 -32,-14 -81,-23 -141,-20 -60,3 -131,19 -179,27 -49,9 -77,10 -93,-3z"/>
   <path class="fil7" d="M22281 15858c21,5 44,9 71,12l13 1 0 1 -688 214 0 -39 604 -189z"/>
   <path class="fil7" d="M11325 15835c10,-10 21,-21 33,-33l1180 198 356 180 -20 35 -367 -184 -1182 -196z"/>
   <path class="fil8" d="M21879 15454c-11,12 -9,30 3,59 19,41 59,103 109,157 26,29 56,55 85,78l8 8c0,0 0,0 -93,-2 -93,-2 -278,-7 -370,-9 -93,-2 -93,-2 -93,-2 0,0 0,0 -27,-13 -26,-13 -79,-39 -133,-56 -55,-18 -111,-28 -179,-35 -69,-7 -150,-12 -223,-6 -72,5 -137,20 -186,33 -49,13 -83,25 -99,31 -17,5 -17,5 -17,5 0,0 0,0 -171,-4 -172,-4 -515,-12 -686,-16 -172,-4 -172,-4 -172,-4 0,0 0,0 0,0 0,0 0,0 -11,-35 -12,-35 -35,-106 -61,-171 -27,-66 -57,-127 -94,-183 -36,-56 -79,-106 -100,-131 -22,-26 -22,-26 -22,-26 0,0 0,0 66,4 66,4 198,11 345,20 147,9 310,19 480,35 170,15 347,36 517,58 170,22 335,45 488,70 153,24 295,51 412,78 94,21 172,43 224,57z"/>
   <path class="fil4" d="M11515 15153c56,-7 139,-12 201,-13 62,0 102,3 137,14 36,10 66,27 88,48 22,21 36,46 43,60 7,14 7,18 2,28 -6,10 -18,25 -54,57 -37,32 -98,80 -164,134 -66,53 -136,112 -194,159 -59,46 -106,82 -141,108 -35,27 -59,45 -70,54 -12,9 -12,9 -12,9 0,0 0,0 6,-97 6,-98 17,-293 26,-399 8,-106 13,-123 30,-136 17,-12 46,-20 102,-26z"/>
   <path class="fil9" d="M11980 15253c1,3 3,6 4,9 7,14 7,18 2,28 -5,8 -15,21 -41,45l-564 0 2 -20c2,-26 4,-46 5,-62l592 0zm-337 330c-24,20 -48,39 -69,57 -12,8 -22,17 -33,25l-181 0 5 -82 278 0z"/>
   <circle class="fil10" cx="13642" cy="16725" r="891"/>
   <circle class="fil11 str0" cx="13642" cy="16725" r="625"/>
   <path class="fil12" d="M16726 15119c14,59 40,165 64,296 24,132 46,290 59,469 12,180 15,382 13,513 -1,27 -1,52 -2,74l-1701 0 3 24 1697 -3c-2,37 -4,66 -7,92l-1690 0 0 67 1681 0c-10,61 -22,124 -29,156 -6,32 -6,32 -6,32 0,0 0,0 0,0 0,0 0,0 -297,0 -297,0 -891,0 -1188,0 -297,0 -297,0 -297,0 0,0 0,0 0,0 0,0 0,0 -28,-70 -28,-70 -83,-209 -188,-408 -105,-199 -259,-459 -402,-681 -143,-223 -276,-409 -351,-514 -75,-105 -92,-128 -86,-140 5,-12 32,-12 487,-5 455,6 1338,19 1785,23 446,3 457,-4 462,0 6,3 8,16 21,75zm77 63c16,75 44,200 65,338 20,138 35,289 42,408 7,119 7,206 5,313 -1,72 -3,153 -8,230l2663 0c2,-20 3,-40 4,-61 8,-176 6,-385 -3,-542 -8,-157 -22,-261 -53,-352 -31,-91 -78,-170 -126,-232 -49,-63 -100,-109 -125,-133 -26,-23 -26,-23 -26,-23 0,0 0,0 0,0 0,0 0,0 0,0 0,0 0,0 -411,-12 -410,-12 -1232,-35 -1643,-47 -411,-12 -411,-12 -411,-12 0,0 0,0 3,13 3,12 8,37 24,112zm103 1310c-2,29 -4,58 -7,85l0 7 2662 0c3,-30 6,-63 8,-97l-2663 5zm-15 159c-9,67 -19,118 -25,148 -8,40 -8,40 -8,40 0,0 0,0 0,0 0,0 0,0 445,4 445,5 1334,14 1779,18 444,5 444,5 444,5 0,0 0,0 0,0 0,0 0,0 10,-70 5,-34 12,-84 19,-145l-2664 0z"/>
   <rect class="fil11" x="14343" y="15207" width="586" height="131"/>
   <rect class="fil13" x="14423" y="15251" width="425.773" height="42.9671"/>
   <rect class="fil11" x="16976" y="15254" width="586" height="131"/>
   <rect class="fil13" x="17057" y="15298" width="425.773" height="42.9671"/>
   <polygon class="fil14" points="13501,17239 13796,17239 13654,16852 "/>
   <polygon class="fil14" points="13156,16891 13315,17140 13564,16810 "/>
   <polygon class="fil14" points="14137,16891 13978,17140 13729,16811 "/>
   <polygon class="fil14" points="14091,16427 14193,16704 13780,16703 "/>
   <polygon class="fil14" points="13198,16425 13096,16702 13509,16701 "/>
   <polygon class="fil14" points="13984,16303 13714,16185 13690,16597 "/>
   <polygon class="fil14" points="13291,16303 13561,16185 13585,16597 "/>
   <path class="fil15" d="M14099 14975c159,8 450,8 595,8 145,0 145,0 145,0 0,0 0,0 0,0 0,0 0,0 -21,-128 -22,-128 -65,-385 -86,-513 -22,-128 -22,-128 -22,-128 0,0 0,0 0,0 0,0 0,0 -75,21 -75,20 -224,62 -337,98 -113,36 -188,66 -251,99 -62,33 -112,69 -148,109 -37,40 -60,83 -71,128 -11,46 -10,94 2,139 12,45 34,87 59,115 24,29 52,45 210,52z"/>
   <path class="fil16" d="M14565 14983c49,0 93,0 129,0 145,0 145,0 145,0 0,0 0,0 0,0 0,0 0,0 -21,-128 -22,-128 -65,-385 -86,-513 -22,-128 -22,-128 -22,-128 0,0 0,0 0,0 0,0 0,0 -75,21 -75,20 -224,62 -337,98 -70,22 -126,42 -173,62l440 588z"/>
   <path class="fil15" d="M14826 14381c23,131 65,367 87,484 21,118 22,118 23,118 1,0 1,0 1,0 0,0 0,0 255,3 255,4 765,10 1021,14 255,3 255,3 255,3 0,0 0,0 0,0 0,0 0,0 -14,-164 -15,-163 -43,-490 -58,-653 -14,-164 -14,-164 -14,-164 0,0 0,0 0,0 0,0 0,0 -81,4 -82,3 -245,9 -416,20 -172,11 -353,27 -517,48 -164,21 -312,47 -405,65 -93,18 -132,29 -151,34 -20,5 -20,5 -20,5 0,0 0,0 3,13 2,13 8,39 31,170z"/>
   <path class="fil16" d="M14826 14381c23,131 65,367 87,484 21,118 22,118 23,118 1,0 1,0 1,0 0,0 0,0 255,3l321 5 -640 -813c-32,7 -50,12 -61,15 -20,5 -20,5 -20,5 0,0 0,0 3,13 2,13 8,39 31,170z"/>
   <path class="fil15" d="M16727 14370c61,156 155,394 202,514 47,119 47,119 47,119 0,0 0,0 0,0 0,0 0,0 0,0 0,0 0,0 290,4 290,4 871,11 1161,15 291,4 291,4 291,4 0,0 0,0 0,0 0,0 0,0 0,-36 0,-37 0,-110 -1,-148 -1,-38 -2,-42 -2,-44 -1,-2 -1,-2 -1,-2 0,0 0,0 -33,-30 -34,-29 -100,-87 -202,-154 -102,-66 -240,-140 -399,-211 -158,-71 -336,-139 -487,-184 -150,-45 -272,-67 -395,-87 -123,-19 -247,-36 -345,-46 -99,-11 -172,-15 -208,-17 -37,-2 -37,-2 -22,35 14,38 43,112 104,268z"/>
   <path class="fil16" d="M18718 14942c0,-35 0,-75 -1,-100 -1,-38 -2,-42 -2,-44 -1,-2 -1,-2 -1,-2 0,0 0,0 -33,-30 -34,-29 -100,-87 -202,-154 -62,-40 -137,-83 -221,-126l460 456z"/>
   <path class="fil16" d="M16727 14370l35 90 536 547 1023 14 -796 -824c-120,-32 -224,-50 -327,-67 -123,-19 -247,-36 -345,-46 -99,-11 -172,-15 -208,-17 -37,-2 -37,-2 -22,35 14,38 43,112 104,268z"/>
   <path class="fil8" d="M13493 15005l-2064 -10c-11,18 -20,41 -24,66 -5,25 -5,52 -4,78 57,-9 124,-19 180,-26 89,-10 150,-11 201,-6 51,5 91,17 122,30 30,14 51,30 69,48 17,18 31,39 41,60 9,21 13,42 12,57 -1,16 -6,26 -8,31l-3 6 92 21c93,22 278,65 424,87 147,23 255,26 531,30 276,5 720,11 942,15l222 3 -52 -82 -209 -325 -52 -81 -420 -2z"/>
   <path class="fil13" d="M13642 15757c-535,0 -969,433 -969,968 0,106 17,207 48,302 27,2 55,4 84,5 -35,-95 -54,-199 -54,-307 0,-492 399,-890 891,-890 491,0 890,398 890,890 0,126 -26,245 -73,354 23,0 50,1 84,1 43,-110 67,-229 67,-355 0,-535 -433,-968 -968,-968z"/>
   <circle class="fil10" cx="21040" cy="16733" r="891"/>
   <circle class="fil11 str0" cx="21040" cy="16733" r="625"/>
   <polygon class="fil14" points="20899,17246 21194,17247 21052,16859 "/>
   <polygon class="fil14" points="20554,16899 20713,17148 20962,16818 "/>
   <polygon class="fil14" points="21536,16899 21376,17148 21127,16818 "/>
   <polygon class="fil14" points="21489,16435 21591,16712 21178,16711 "/>
   <polygon class="fil14" points="20596,16433 20494,16710 20907,16709 "/>
   <polygon class="fil14" points="21383,16311 21112,16193 21088,16605 "/>
   <polygon class="fil14" points="20689,16311 20960,16193 20984,16605 "/>
   <path class="fil13" d="M21040 15764c-535,0 -969,434 -969,969 0,76 9,149 25,219 3,15 6,30 9,42 6,21 11,37 17,52 5,14 11,27 16,37 5,9 10,16 14,22l1 -1 75 -2c-5,-15 -14,-40 -24,-68 -11,-32 -23,-69 -32,-106 -5,-22 -10,-43 -13,-61 -6,-44 -10,-88 -10,-134 0,-492 399,-890 891,-890 492,0 890,398 890,890 0,126 -26,245 -73,353 23,1 51,2 84,2 44,-110 67,-230 67,-355 0,-535 -433,-969 -968,-969z"/>
   <circle class="fil17 str1" cx="13643" cy="16708" r="80"/>
   <circle class="fil17 str1" cx="21049" cy="16724" r="80"/>
   <path class="fil18" d="M21967 15514c-6,15 16,51 41,85 24,33 52,64 85,94 34,30 74,59 111,81 37,22 71,36 109,46 38,10 79,15 99,17 21,3 21,3 21,3 0,0 0,0 -66,-54 -65,-54 -196,-162 -278,-220 -83,-58 -116,-66 -122,-52z"/>
   <ellipse class="fil3" cx="22559" cy="16687" rx="88" ry="138"/>
   <path class="fil7" d="M16706 14796c-39,-163 -113,-477 -155,-635 -16,-58 -27,-95 -35,-119 -4,0 -8,-1 -12,-2 -4,-1 -8,-3 -12,-5 4,24 12,63 25,127 34,164 106,492 142,656 36,164 36,164 36,164 0,0 0,0 9,1 9,0 27,2 36,2 9,1 9,1 9,1 0,0 0,0 -1,-7 -1,-6 -4,-19 -42,-183z"/>
   <path class="fil17 str2" d="M16637 14981c-791,-11 -1660,-15 -2121,-19 -461,-5 -514,-10 -553,-20 -38,-10 -61,-24 -80,-41 -19,-17 -33,-36 -45,-63 -11,-27 -18,-61 -17,-98 1,-37 12,-77 30,-116 18,-38 44,-74 79,-107 34,-33 77,-61 134,-89 58,-27 129,-53 240,-88 111,-35 260,-80 415,-119 155,-39 315,-72 470,-97 154,-25 302,-41 478,-55 176,-14 379,-27 537,-31 158,-4 272,1 412,14 140,12 306,31 466,57 159,26 312,59 449,96 137,37 260,79 392,132 132,52 274,116 401,186 127,70 239,145 307,196 67,51 91,77 119,110 28,33 60,73 81,108 21,34 30,63 33,77 2,15 -2,15 -361,6 -359,-10 -1074,-28 -1866,-39z"/>
   <path class="fil19" d="M15331 15594c42,0 82,10 121,28 37,19 68,46 90,81 22,35 33,77 33,128 0,50 -11,93 -33,128 -22,36 -53,63 -90,81 -39,19 -79,28 -121,28l-161 0 0 283 -160 0 0 -757 321 0zm-31 331c35,0 62,-8 81,-25 18,-15 27,-39 27,-69 0,-31 -9,-55 -27,-70 -19,-17 -46,-25 -81,-25l-130 0 0 189 130 0z"/>
   <path id="1" class="fil19" d="M16306 15976c0,-40 -8,-78 -24,-115 -18,-37 -43,-67 -77,-90 -34,-23 -77,-36 -127,-37 -51,0 -92,12 -125,35 -35,24 -60,54 -76,91 -17,35 -26,74 -26,116 0,42 9,81 26,117 16,36 41,66 76,90 33,23 74,35 125,35 50,-1 93,-14 127,-37 34,-23 59,-53 77,-90 16,-37 24,-75 24,-115zm-227 -396c109,0 203,39 280,116 77,78 116,171 116,281 0,108 -39,201 -116,279 -77,77 -171,116 -280,116 -109,0 -202,-39 -280,-116 -77,-78 -116,-171 -116,-279 0,-110 39,-203 116,-281 78,-77 171,-116 280,-116z"/>
   <polygon id="2" class="fil19" points="17033,16352 16584,16352 16584,15594 16744,15594 16744,16210 17033,16210 "/>
   <polygon id="3" class="fil19" points="17354,15594 17354,16352 17194,16352 17194,15594 "/>
   <path id="4" class="fil19" d="M17653 16016c3,34 12,64 27,92 19,36 46,64 79,83 33,20 71,29 113,29 45,0 84,-10 118,-31 34,-21 58,-49 74,-84l125 78c-22,59 -62,106 -119,139 -58,33 -123,50 -197,50 -72,0 -137,-16 -196,-48 -60,-31 -107,-76 -141,-135 -35,-59 -52,-129 -52,-211 0,-83 17,-153 52,-212 34,-59 81,-104 141,-135 59,-32 124,-47 196,-47 74,0 139,16 197,49 57,34 97,80 119,140l-125 77c-16,-34 -40,-62 -74,-84 -34,-21 -73,-31 -118,-31 -42,0 -80,10 -113,29 -33,19 -60,47 -79,84 -15,27 -24,57 -27,91 -2,21 -2,47 0,77z"/>
   <polygon id="5" class="fil19" points="18785,16352 18310,16352 18310,15594 18774,15594 18774,15736 18470,15736 18470,15898 18742,15898 18742,16038 18470,16038 18470,16211 18785,16211 "/>
  </g>
  <g id="_2073886287472">
   <path class="fil20" d="M23216 13605l179 0c1,-7 3,-13 4,-20 4,-14 7,-28 11,-39 7,-23 15,-39 28,-54 12,-15 30,-29 45,-43 16,-14 29,-28 39,-43 10,-16 17,-32 15,-45 -3,-14 -14,-24 -24,-29 -10,-5 -18,-5 -22,-5 -4,0 -4,0 -5,-55 0,-55 -2,-164 -6,-225 -3,-61 -8,-74 -15,-83 -7,-9 -17,-14 -27,-15 -11,-1 -23,1 -34,7 -10,5 -20,15 -25,43 -5,27 -6,72 -6,94 -1,23 -1,23 -14,26 -14,3 -41,10 -61,16 -19,7 -30,13 -53,18 -23,4 -58,7 -81,10 -23,3 -33,6 -39,38 -5,33 -5,94 -1,142 3,49 9,85 19,113 10,28 24,49 36,68 12,19 23,36 30,54 0,2 1,4 2,6 2,7 4,14 5,21z"/>
   <path class="fil21" d="M23216 13605l46 0c-4,-13 -8,-28 -13,-40 -4,-12 -10,-22 -16,-32 -6,-10 -14,-20 -22,-33 -9,-13 -18,-29 -27,-50 -8,-21 -16,-48 -21,-78 -5,-30 -7,-64 -8,-92 -1,-28 -1,-50 2,-65 3,-15 9,-23 19,-28 9,-5 23,-8 34,-7 12,1 21,5 30,7 9,2 18,1 27,-3 9,-5 18,-12 27,-17 9,-6 18,-9 29,-9 11,1 24,6 34,5 10,-1 17,-7 21,-14 5,-8 7,-18 8,-36 2,-19 3,-46 5,-69 2,-23 5,-42 10,-55 4,-13 10,-21 17,-26 8,-5 17,-7 28,-6 5,0 10,1 15,2 -7,-6 -15,-9 -23,-10 -11,-1 -23,1 -34,7 -10,5 -20,15 -25,43 -5,27 -6,72 -6,94 -1,23 -1,23 -14,26 -14,3 -41,10 -61,16 -19,7 -30,13 -53,18 -23,4 -58,7 -81,10 -23,3 -33,6 -39,38 -5,33 -5,94 -1,142 3,49 9,85 19,113 10,28 24,49 36,68 12,19 23,36 30,54 0,2 1,4 2,6 2,7 4,14 5,21z"/>
   <path class="fil22" d="M23161 13584l0 130c0,131 0,393 5,538 5,145 14,173 29,194 15,21 37,35 130,42 92,8 256,8 338,8l82 0 0 146 -1 592 0 136 101 0c28,0 28,0 28,13 0,6 1,15 1,30 20,3 43,7 68,12 63,11 141,23 251,33 15,1 32,3 48,4l0 -12 63 0c7,28 19,53 36,65 25,18 63,6 93,-6 30,-13 51,-25 69,-52 1,-2 3,-5 4,-7l59 0 0 17c1,0 2,0 2,0l106 0c7,0 14,3 19,7 34,-2 67,-4 98,-6 3,-8 12,-8 46,-7l34 0c33,-3 62,-6 85,-10 24,-3 42,-7 56,-9 9,-5 17,-9 24,-12 0,-56 2,-56 14,-56 7,-1 16,-1 26,0 1,-16 1,-47 1,-129l0 -534 0 -133 42 24 156 87 0 -481c-30,-16 -72,-35 -109,-51 -43,-19 -80,-32 -118,-45 -39,-13 -80,-26 -121,-36 -42,-10 -85,-18 -124,-25 -40,-8 -75,-15 -104,-21 -29,-6 -50,-10 -76,-17 -4,-2 -8,-3 -13,-4 -11,-3 -22,-7 -33,-11l0 -5 0 -49c-1,0 -2,0 -3,1 -4,3 -9,6 -13,9 -16,10 -30,15 -49,19 -20,5 -45,9 -70,11 -26,2 -52,2 -78,0 -26,-3 -52,-7 -72,-12 -19,-5 -31,-11 -41,-17 -5,-2 -9,-5 -13,-8 0,0 -1,0 -1,0l0 51c-5,2 -11,4 -16,7 -8,5 -16,10 -24,16 -30,9 -66,20 -128,33 -84,17 -214,40 -309,55 -96,15 -156,22 -196,26 -40,5 -58,6 -72,6 -13,1 -21,1 -25,1 -5,0 -6,0 -7,-93 -1,-92 -1,-278 -1,-371l0 -92 -49 -1 -10 0 -188 -1 0 0 -50 0z"/>
   <path class="fil23" d="M25077 14579l41 23 156 87 0 -47 -15 -5c-36,-13 -109,-37 -146,-50 -36,-12 -36,-12 -36,-12l0 4z"/>
   <path class="fil23" d="M23161 13584l0 130c0,131 0,393 5,538 5,145 14,173 29,194 15,21 37,35 130,42 92,8 256,8 338,8l80 0c-2,-15 -7,-19 -15,-22 -8,-4 -18,-8 -43,-10 -24,-3 -62,-5 -123,-8 -61,-3 -144,-9 -200,-13 -57,-5 -86,-10 -106,-16 -19,-6 -29,-14 -36,-24 -7,-9 -11,-22 -17,-156 -5,-134 -12,-390 -18,-522 -5,-106 -10,-132 -15,-141l-9 0z"/>
   <polygon class="fil20" points="24236,13921 24576,13921 24576,14028 24434,14156 24386,14156 24236,14017 "/>
   <path class="fil24" d="M24212 13923c-2,3 7,11 15,17 8,6 14,10 23,15 10,6 22,12 41,17 20,5 46,9 72,12 26,2 52,2 78,0 25,-2 50,-6 70,-11 19,-4 33,-9 49,-19 16,-10 34,-25 43,-32 9,-8 9,-8 9,-8 0,0 0,0 -9,2 -8,2 -24,5 -56,9 -32,4 -80,8 -124,9 -45,0 -87,-3 -117,-6 -30,-2 -48,-3 -63,-5 -16,-1 -29,-3 -31,0z"/>
   <path class="fil20" d="M23836 13191c-4,24 -9,57 -11,73 -3,16 -3,16 -3,16 0,0 0,0 -2,0 -2,0 -7,0 -13,2 -6,2 -14,5 -21,13 -8,7 -15,18 -20,35 -4,16 -5,38 -5,57 1,19 4,35 8,49 4,15 10,28 17,37 8,10 17,16 27,20 10,5 21,7 32,8 12,1 24,1 31,1 6,0 6,0 6,0 0,0 0,0 1,24l0 21c2,15 5,32 8,49 4,26 10,50 18,72 7,23 15,45 24,64 8,19 18,35 27,49 10,14 20,26 33,39 13,14 29,29 44,41 16,13 31,22 49,32 17,9 36,19 58,27 22,9 46,16 68,22 22,5 42,9 62,11 19,2 38,2 63,2 25,1 56,1 89,0 33,0 67,-3 100,-5 33,-3 64,-7 93,-13 29,-7 56,-16 81,-29 26,-13 50,-29 70,-44 19,-14 36,-27 50,-44 15,-17 29,-37 42,-58 13,-21 27,-42 39,-66 12,-23 22,-49 30,-75 9,-25 15,-50 19,-73 5,-23 8,-45 9,-56 2,-11 2,-11 2,-11 0,0 0,0 2,1 2,1 7,2 14,2 8,1 19,0 31,-3 2,-1 5,-1 7,-2 4,-2 8,-5 12,-8 10,-10 17,-25 22,-44 4,-20 6,-43 7,-65 1,-22 1,-42 -4,-58 -4,-16 -13,-28 -20,-34 -6,-7 -10,-9 -13,-10 -2,-1 -2,-1 -2,-16 -1,-15 -1,-45 -2,-59 0,-15 0,-15 -1,-36 -1,-20 -3,-60 -8,-90 -6,-30 -15,-49 -52,-65 -37,-16 -102,-29 -208,-36 -106,-7 -253,-8 -373,-5 -120,2 -215,7 -285,14 -71,8 -118,18 -151,33 -32,15 -49,36 -62,60 -13,24 -23,51 -28,72 -6,21 -8,36 -11,59z"/>
   <path class="fil21" d="M23802 13284c-5,2 -11,5 -16,11 -8,7 -15,18 -20,35 -4,16 -5,38 -5,57 1,19 4,35 8,49 4,15 10,28 17,37 8,10 17,16 27,20 10,5 21,7 32,8 12,1 24,1 31,1 6,0 6,0 6,0 0,0 0,0 1,24l0 21c2,15 5,32 8,49 4,26 10,50 18,72 7,23 15,45 24,64 8,19 18,35 27,49 10,14 20,26 33,39 13,14 29,29 44,41 16,13 31,22 49,32 17,9 36,19 58,27 22,9 46,16 68,22 22,5 42,9 62,11 19,2 38,2 63,2 25,1 56,1 89,0 33,0 67,-3 100,-5 33,-3 64,-7 93,-13 29,-7 56,-16 81,-29 26,-13 50,-29 70,-44 19,-14 36,-27 50,-44 15,-17 29,-37 42,-58 13,-21 27,-42 39,-66 12,-23 22,-49 30,-75 9,-25 15,-50 19,-73 5,-23 8,-45 9,-56 2,-11 2,-11 2,-11 0,0 0,0 2,1 2,1 7,2 14,2 8,1 19,0 31,-3 2,-1 5,-1 7,-2 4,-2 8,-5 12,-8 10,-10 17,-25 22,-44 4,-20 6,-43 7,-65 1,-22 1,-42 -4,-58 -4,-16 -13,-28 -20,-34 -2,-3 -4,-5 -6,-6 3,9 6,20 8,32 3,15 4,31 3,50 -1,18 -5,39 -10,56 -5,17 -13,30 -23,39 -10,9 -23,13 -34,15 -10,2 -18,2 -22,1 -4,0 -4,0 -4,0 0,0 0,0 -1,7 -1,6 -4,19 -8,39 -4,19 -10,45 -18,72 -9,27 -20,54 -32,78 -11,23 -24,43 -38,63 -15,21 -32,41 -50,59 -19,18 -37,34 -55,48 -19,14 -36,27 -57,39 -20,12 -43,23 -68,31 -25,9 -51,14 -80,18 -29,4 -61,5 -96,7 -34,1 -71,2 -103,2 -32,-1 -59,-2 -87,-7 -28,-4 -59,-13 -86,-22 -27,-10 -51,-21 -72,-33 -22,-13 -41,-27 -58,-42 -16,-15 -30,-30 -43,-49 -13,-19 -25,-41 -36,-64 -10,-22 -19,-44 -26,-69 -7,-25 -13,-52 -18,-80 -4,-27 -6,-56 -7,-70 -1,-14 -1,-14 -1,-14 0,0 0,0 -8,3 -8,3 -24,8 -37,10 -13,1 -23,-2 -32,-9 -9,-7 -17,-19 -23,-31 -6,-13 -11,-28 -14,-45 -3,-18 -5,-39 -4,-57 1,-18 3,-33 8,-43 3,-6 6,-10 8,-14z"/>
   <path class="fil25" d="M24328 13794c4,5 9,9 14,14 5,4 10,8 15,12 6,3 12,5 19,7 8,2 17,4 26,4 10,1 19,1 29,1 10,0 21,-1 30,-3 8,-1 13,-4 18,-7 4,-3 8,-6 12,-11 4,-4 7,-10 9,-14 1,-3 1,-3 -15,-4 -15,-1 -47,-2 -78,-5 -31,-2 -62,-5 -75,-4 -13,1 -8,5 -4,10z"/>
   <path class="fil25" d="M24575 13540c-7,1 -17,1 -26,1 -8,-1 -15,-2 -20,-5 -6,-2 -10,-6 -14,-10 -4,-4 -8,-9 -13,-16 -4,-7 -10,-17 -15,-30 -6,-13 -11,-28 -14,-44 -4,-15 -6,-32 -6,-44 -1,-12 -1,-20 -1,-29 1,-10 2,-21 6,-31 4,-11 10,-21 16,-29 6,-9 12,-16 19,-21 8,-5 16,-9 22,-11 6,-3 10,-3 17,-1 6,2 15,7 29,29 14,22 33,61 43,97 9,36 9,70 5,92 -4,23 -13,33 -19,40 -6,6 -9,8 -13,9 -4,2 -8,3 -16,3z"/>
   <path class="fil25" d="M24306 13535c10,-1 18,-4 25,-11 7,-7 13,-18 21,-33 7,-14 15,-32 20,-50 5,-18 5,-35 5,-53 0,-17 0,-34 -2,-48 -2,-13 -5,-24 -10,-33 -4,-9 -11,-18 -17,-24 -7,-6 -14,-11 -21,-13 -7,-3 -15,-4 -28,-4 -13,0 -31,1 -47,5 -15,3 -27,9 -38,30 -10,20 -19,55 -17,88 3,33 17,65 32,89 15,25 31,42 44,51 13,8 24,8 33,6z"/>
   <path class="fil25" d="M23979 13117c0,46 0,129 0,171 0,41 0,41 -9,37 -9,-3 -27,-11 -43,-20 -15,-9 -29,-21 -39,-49 -11,-28 -19,-74 -18,-113 1,-40 11,-73 26,-90 15,-16 37,-15 52,-12 15,3 23,7 27,14 4,7 4,16 4,62z"/>
   <path class="fil25" d="M24899 13250c-1,-43 -1,-121 -1,-159 0,-39 0,-39 16,-39 16,0 47,0 64,11 17,11 19,32 20,57 1,24 0,51 -4,72 -4,22 -11,37 -27,56 -16,18 -41,40 -54,47 -13,6 -14,-3 -14,-45z"/>
   <path class="fil26" d="M24076 12874c-181,2 -198,-2 -229,-22 -1,0 -2,-1 -4,-1 -6,21 -16,57 -21,85 -3,14 -4,25 -5,35l0 0 0 1c0,4 0,11 0,22 -1,16 -1,41 0,72 1,30 2,66 4,91 2,20 3,34 5,45 1,7 1,13 2,19 1,9 2,17 3,22 1,5 2,8 2,10 1,5 1,5 14,8l52 13 10 3 -1 -2 4 1 0 -32 0 -134 0 -34 35 10c35,10 104,29 182,43 78,13 164,20 240,23 76,2 143,1 206,-4 63,-4 123,-10 185,-22 62,-12 127,-29 159,-37l32 -9 0 30 0 117 0 29 16 -10 35 -23 27 -17 16 -11 -1 -23c0,-12 -1,-30 -1,-50l-1 -6c0,-17 0,-38 0,-58 0,-20 0,-40 0,-57 0,-2 0,-4 0,-6 -1,-16 -2,-49 -8,-80 -5,-27 -14,-54 -23,-76 -24,14 -57,15 -201,19 -184,4 -547,13 -734,16z"/>
   <path class="fil27" d="M24969 12786c11,2 24,19 36,43 12,23 23,54 29,86 6,31 7,64 8,80 0,16 0,16 -71,16 -72,0 -215,0 -419,0 -204,0 -469,-1 -602,-1 -132,-1 -132,-1 -133,-11 0,-11 -1,-33 5,-63 5,-31 17,-71 23,-90 6,-20 6,-20 105,-23 100,-3 299,-8 481,-10 181,-2 346,-2 432,-8 86,-7 95,-20 106,-19z"/>
   <ellipse class="fil24" cx="24679" cy="13275" rx="94" ry="31"/>
   <path class="fil28" d="M25012 12838c13,-4 20,-10 31,-21 31,-28 94,-86 124,-118 3,-4 6,-7 9,-11 11,-11 12,-15 12,-18 0,-4 -3,-8 -39,-30 -36,-21 -106,-60 -140,-80 -35,-19 -35,-19 -35,-19 0,0 0,0 -82,-25 -82,-25 -246,-74 -339,-101 -92,-27 -113,-31 -133,-30 -11,1 -22,3 -46,9 -15,3 -31,6 -51,11 -56,14 -136,36 -216,60l-205 55c-92,24 -92,24 -120,49 -21,18 -59,51 -88,77 -25,17 -36,28 -41,37 -7,9 -7,12 -3,17 2,12 12,25 38,46 34,27 95,67 125,88 18,11 25,16 34,18 31,20 48,24 229,22 187,-3 550,-12 734,-16 147,-4 179,-5 202,-20z"/>
   <path class="fil27" d="M25016 12837c10,-4 17,-11 27,-20 31,-28 94,-86 124,-118 3,-4 6,-7 9,-11 11,-11 12,-15 12,-18 0,-4 -3,-8 -39,-30 -36,-21 -106,-60 -140,-80 -35,-19 -35,-19 -35,-19l-32 -10c47,33 117,81 154,109 45,34 46,39 38,51 -8,13 -23,32 -45,59 -22,26 -49,59 -63,75 -5,6 -8,9 -10,12z"/>
   <path class="fil27" d="M23835 12538c-29,9 -35,15 -53,31 -21,18 -59,51 -88,77 -25,17 -36,28 -41,37 -7,9 -7,12 -3,17 2,12 12,25 38,46 34,27 95,67 125,88 17,11 25,16 33,18 -3,-3 -7,-7 -12,-11 -29,-24 -86,-72 -115,-100 -29,-28 -30,-35 -30,-43 1,-8 3,-16 23,-39 19,-23 56,-62 78,-84 23,-22 30,-28 43,-36l2 -1z"/>
   <ellipse class="fil24" cx="24158" cy="13276" rx="94" ry="31"/>
   <ellipse class="fil29" cx="24418" cy="12643" rx="113" ry="137"/>
   <path class="fil30" d="M24815 13266l-268 0c-12,0 -23,5 -31,13l0 0c-3,3 -4,6 -6,9 -1,4 -2,9 -3,14 -1,5 -1,11 -1,14 0,3 0,3 0,3 0,0 0,0 -5,-2 -5,-1 -16,-4 -28,-6 -13,-3 -29,-5 -44,-6 -15,-1 -30,-1 -43,0 -13,2 -23,5 -31,8 -8,3 -14,5 -17,6 -3,2 -3,2 -3,2 0,0 0,0 0,-6 0,-5 0,-16 -2,-24 -1,-2 -1,-4 -2,-5 -7,-12 -21,-20 -36,-20l-268 0c-18,0 -34,11 -40,27l-154 -35 151 139 0 0 0 102c0,23 20,42 43,42l268 0c24,0 43,-19 43,-42l0 -124 166 0 0 124c0,23 19,42 43,42l268 0c23,0 42,-19 42,-42l0 -125 188 -179 -197 86c-8,-9 -20,-15 -33,-15z"/>
   <path class="fil31" d="M24810 13266l-263 0c-12,0 -23,5 -31,13l0 0c-3,3 -4,6 -6,9 -1,4 -2,9 -3,14 -1,5 -1,11 -1,14 0,3 0,3 0,3l-1 -1 0 15c0,11 -1,27 -1,42l0 0 0 124c0,23 19,42 43,42l144 0 1 -1c12,-8 17,-20 19,-26 2,-6 2,-6 -25,-5 -27,0 -81,0 -111,-2 -30,-2 -35,-7 -38,-14 -3,-7 -4,-16 -4,-41 -1,-25 -2,-66 -1,-96 1,-29 3,-46 8,-55 4,-10 10,-12 16,-13 6,-1 13,-1 43,-1 30,0 83,-1 118,0 34,0 50,1 62,0 13,-2 22,-6 28,-14 1,-2 2,-5 3,-7z"/>
   <path class="fil31" d="M24282 13266l-255 0c-18,0 -34,11 -40,27l-154 -35 151 139 0 0 0 102c0,23 20,42 43,42l156 0c13,-8 19,-17 23,-22 5,-7 5,-7 -19,-6 -23,0 -71,1 -102,1 -30,-1 -45,-3 -55,-6 -10,-3 -15,-8 -19,-13 -3,-6 -4,-12 -4,-42 -1,-29 -1,-83 0,-113 2,-31 6,-39 11,-44 4,-6 10,-9 22,-11 12,-2 31,-2 56,-2 26,0 58,0 88,1 31,0 59,1 78,-5 10,-3 17,-8 20,-13z"/>
   <path class="fil32" d="M24319 13273c-7,-4 -15,-7 -24,-7l-67 0c0,23 1,57 -1,84 -2,33 -7,57 -15,81 -8,23 -19,47 -33,66 -13,19 -29,34 -44,44l104 0c8,-7 15,-16 23,-26 11,-16 21,-35 29,-56 8,-21 14,-45 18,-69 4,-25 7,-51 8,-72 2,-18 2,-33 2,-45z"/>
   <path class="fil32" d="M24815 13266l-67 0c0,16 0,36 0,55 -1,28 -2,54 -7,78 -4,25 -13,49 -23,70 -10,21 -21,39 -33,53 -7,8 -13,14 -18,19l86 0c1,-1 3,-3 5,-4 10,-9 20,-20 30,-34 9,-15 19,-33 26,-53 8,-21 13,-44 17,-68 3,-24 5,-49 6,-72 0,-14 0,-27 -1,-38 -6,-4 -13,-6 -21,-6z"/>
   <path class="fil33" d="M24420 13743c-67,0 -128,-11 -173,-29 6,55 81,98 173,98 92,0 167,-43 173,-98 -45,18 -106,29 -173,29z"/>
   <path class="fil34" d="M24356 13621c-13,-1 -31,-1 -41,-4 -10,-4 -12,-10 -12,-20 1,-10 4,-23 11,-32 6,-9 16,-14 29,-18 12,-4 28,-6 36,-7 8,-1 8,-1 8,-1 0,0 0,0 0,13 0,14 0,41 0,55 0,14 0,14 0,14 0,0 0,0 -4,0 -5,0 -14,0 -27,0z"/>
   <line class="fil17" x1="24098" y1="14476" x2="24098" y2= "14864" />
   <line class="fil17" x1="23923" y1="14603" x2="24278" y2= "14603" />
   <rect class="fil35" x="25274" y="13881" width="844" height="1152"/>
   <rect class="fil9" x="25351" y="13957" width="691" height="1000"/>
   <path class="fil20" d="M25944 13776c-26,-7 -54,-15 -80,-20 -27,-6 -52,-8 -71,-8 -18,0 -29,2 -37,8 -8,5 -12,13 -17,19 -6,7 -11,11 -23,16 -11,5 -27,12 -41,20 -13,8 -24,19 -30,30 -7,10 -8,21 -1,30 7,9 23,15 34,24 12,8 19,18 29,28 10,10 23,21 43,30 21,8 48,13 76,15 29,1 58,-1 82,-10 25,-10 44,-27 65,-39 21,-13 44,-21 67,-29 22,-7 44,-13 52,-21 9,-9 3,-20 -12,-32 -15,-13 -39,-27 -63,-37 -24,-11 -47,-16 -73,-24z"/>
   <path class="fil21" d="M25756 13955c19,7 44,11 70,13 29,1 58,-1 82,-10 25,-10 44,-27 65,-39 21,-13 44,-21 67,-29 9,-3 19,-6 28,-9 -12,1 -25,4 -41,8 -22,7 -51,17 -78,28 -27,10 -52,20 -77,26 -25,7 -51,9 -74,10 -15,1 -28,1 -42,2z"/>
   <path class="fil21" d="M25944 13776c-26,-7 -54,-15 -80,-20 -27,-6 -52,-8 -71,-8 -18,0 -29,2 -37,8 -8,5 -12,13 -17,19 -6,7 -11,11 -23,16 -11,5 -27,12 -41,20 -13,8 -24,19 -30,30 -7,10 -8,21 -1,30 7,9 23,15 34,24 5,3 9,7 13,10l0 0c0,-12 5,-26 12,-39 7,-12 16,-21 26,-28 11,-6 22,-10 35,-15 13,-4 28,-10 50,-14 21,-4 50,-6 81,-6 32,0 65,2 96,7 31,5 59,14 96,37l5 3c-2,-4 -7,-9 -12,-13 -15,-13 -39,-27 -63,-37 -24,-11 -47,-16 -73,-24z"/>
   <rect class="fil9" x="24290" y="15500" width="227" height="109"/>
   <path class="fil17 str3" d="M23872 15625c-1,14 -2,27 -3,38 -4,49 -12,62 -29,70 -17,8 -44,11 -66,8 -22,-3 -40,-12 -51,-25 -11,-13 -17,-31 -19,-89 -2,-59 -2,-158 -1,-207 0,-50 0,-50 28,-50 29,0 85,0 114,0 28,0 28,0 28,13 1,11 1,31 1,74 38,0 88,1 116,2 38,2 39,3 41,29 3,27 7,78 6,106 -2,29 -8,34 -43,35 -32,1 -87,-1 -122,-4z"/>
   <rect class="fil17 str3" x="24103" y="15467" width="165" height="173" rx="30" ry="26"/>
   <path class="fil36" d="M23995 17375c149,0 269,71 269,158l22 0 0 75 -588 0 0 -75 27 0c0,-87 121,-158 270,-158z"/>
   <path class="fil36" d="M24751 17375c149,0 269,71 269,158l22 0 0 75 -588 0 0 -75 27 0c0,-87 121,-158 270,-158z"/>
   <rect class="fil23" x="24364" y="14160" width="85.9341" height="1310.51"/>
   <path class="fil23" d="M24208 14344c-10,-18 -30,-55 -43,-90 -13,-35 -19,-68 -22,-94 -2,-26 -2,-45 4,-64 2,-10 6,-19 10,-28 -7,12 -14,26 -19,41 -6,17 -9,36 -10,55 -2,19 -2,38 2,62 5,24 13,54 24,78 10,25 22,45 33,60 11,15 21,26 26,31l4 6 30 -35 117 -139 0 -41 -112 136 -34 41 -10 -19z"/>
   <path class="fil23" d="M24450 14175l0 44c4,5 8,11 14,18l104 129 26 32 5 -4c6,-4 17,-12 28,-27 12,-15 23,-37 33,-61 10,-25 18,-52 23,-80 6,-29 8,-58 7,-85 -2,-27 -7,-50 -21,-74 -11,-19 -27,-38 -41,-53 -2,0 -4,-1 -6,-1l-13 -4c14,8 28,19 39,33 13,16 23,34 28,54 6,19 6,38 4,64 -3,26 -9,59 -22,94 -13,35 -33,72 -43,90l-10 19 -34 -41 -121 -147z"/>
   <path class="fil23" d="M23951 14476c-5,1 -11,4 -16,9 -5,4 -10,11 -13,18 -4,8 -6,16 -7,70 -1,54 -1,152 0,205 1,52 2,59 5,65 2,6 6,12 12,17 5,4 13,7 28,8 15,2 36,2 82,2 47,0 117,0 156,-1 39,0 45,-1 53,-3 7,-2 16,-7 23,-13 6,-7 10,-16 13,-24 2,-8 2,-14 1,-67 -1,-53 -2,-153 -4,-205 -1,-53 -3,-59 -7,-64 -4,-5 -10,-9 -16,-12 -6,-3 -13,-5 -16,-5 -3,-1 -3,-1 -3,-1 0,0 0,0 2,1 2,1 6,3 9,6 4,4 8,8 11,14 3,7 5,15 7,66 1,51 1,145 0,196 -1,51 -3,59 -5,66 -2,7 -5,13 -12,17 -6,4 -15,6 -63,6 -49,1 -137,0 -184,-2 -48,-1 -54,-3 -59,-6 -6,-4 -9,-10 -11,-60 -2,-51 -1,-146 0,-199 2,-54 3,-64 5,-72 2,-8 5,-14 10,-19 4,-6 10,-11 10,-14 0,-2 -5,-1 -11,1z"/>
   <rect class="fil23" x="23928" y="14591" width="350.244" height="23.4441"/>
   <rect class="fil23" x="24088" y="14475" width="19.523" height="382.806"/>
   <line class="fil17" x1="24757" y1="14487" x2="24757" y2= "14874" />
   <line class="fil17" x1="24582" y1="14613" x2="24936" y2= "14613" />
   <path class="fil29" d="M24645 14616c58,-3 171,-2 230,-4 58,-1 61,-3 62,-7 2,-4 2,-9 1,-18 -1,-9 -2,-23 -3,-29 0,-7 0,-7 -59,-6 -58,0 -175,1 -233,2 -58,0 -58,0 -59,6 -1,7 -2,19 -2,32 -1,12 0,25 1,28 2,4 4,-2 62,-4z"/>
   <path class="fil23" d="M24610 14486c-5,2 -11,4 -16,9 -5,5 -10,11 -14,19 -3,7 -5,16 -6,69 -1,54 -1,153 -1,205 1,53 3,59 6,65 2,7 6,13 11,17 6,4 14,7 29,9 14,1 36,2 82,2 47,0 117,-1 156,-1 39,-1 45,-1 53,-4 7,-2 16,-6 22,-13 7,-7 11,-16 13,-24 3,-7 3,-14 2,-67 -1,-53 -2,-152 -4,-205 -1,-53 -4,-59 -8,-64 -3,-5 -9,-9 -15,-12 -6,-2 -13,-4 -16,-5 -3,-1 -3,-1 -3,-1 0,0 0,0 2,1 2,1 6,4 9,7 4,3 7,7 10,14 3,6 6,14 7,65 2,51 2,145 1,196 -1,51 -3,59 -5,66 -3,8 -6,14 -12,17 -6,4 -15,6 -63,7 -49,0 -137,-1 -185,-2 -47,-1 -53,-3 -59,-7 -5,-4 -9,-9 -10,-60 -2,-50 -1,-146 0,-199 1,-53 3,-64 5,-72 2,-8 5,-13 9,-19 5,-5 10,-11 11,-13 0,-3 -5,-2 -11,0z"/>
   <rect class="fil23" x="24587" y="14601" width="350.244" height="23.4441"/>
   <rect class="fil23" x="24747" y="14602" width="19.523" height="265.751"/>
   <path class="fil29" d="M24065 14055c-7,-1 -16,-1 -32,0 -16,1 -37,3 -53,5 -16,3 -25,7 -30,11 -4,4 -4,9 -1,12 3,3 8,5 24,4 15,-1 41,-6 61,-11 21,-6 35,-12 39,-16 5,-3 0,-5 -8,-5z"/>
   <path class="fil29" d="M23904 14076c-9,-2 -20,-1 -31,0 -11,1 -22,2 -32,4 -10,2 -20,6 -27,10 -7,4 -12,9 -12,13 -1,4 1,7 6,10 4,2 11,4 22,4 11,0 28,-2 41,-4 14,-2 26,-5 35,-8 8,-4 13,-7 16,-11 3,-3 3,-7 0,-11 -3,-3 -9,-6 -18,-7z"/>
   <path class="fil29" d="M24765 14046c8,0 17,0 33,1 16,1 37,4 53,7 15,3 25,7 29,12 5,4 4,8 1,11 -3,4 -8,6 -24,4 -15,-2 -41,-7 -61,-13 -20,-6 -34,-13 -39,-17 -4,-3 1,-5 8,-5z"/>
   <path class="fil29" d="M24927 14071c8,-1 20,1 31,2 10,1 21,2 31,5 10,2 20,6 27,10 7,4 11,9 12,13 1,5 -2,8 -7,10 -4,2 -11,4 -22,3 -11,0 -27,-2 -41,-4 -14,-3 -26,-6 -34,-10 -8,-3 -13,-7 -16,-11 -3,-3 -3,-7 0,-11 3,-3 10,-6 19,-7z"/>
   <circle class="fil23" cx="24449" cy="15300" r="36"/>
   <circle class="fil23" cx="24451" cy="15126" r="36"/>
   <circle class="fil23" cx="24453" cy="14953" r="36"/>
   <circle class="fil23" cx="24455" cy="14779" r="36"/>
   <circle class="fil23" cx="24457" cy="14605" r="36"/>
   <circle class="fil23" cx="24459" cy="14431" r="36"/>
   <rect class="fil37" x="25484" y="14023" width="414.045" height="36.4594"/>
   <circle class="fil38" cx="25486" cy="14827" r="74"/>
   <path class="fil17 str4" d="M25794 14838c0,-1 33,-33 7,-1 -59,72 36,-9 59,-21 -84,71 -43,43 37,4 56,-27 -28,5 -52,21 -135,90 79,-5 74,-30 -40,2 -126,100 -21,21 11,-9 53,-72 13,-40 -1,0 -128,108 -78,75 13,-9 74,-40 76,-43 -47,7 -119,106 -7,24 25,-18 -36,20 15,-4 29,-13 -26,-3 -25,8 39,0 55,-34 20,-11 -12,7 11,-1 -5,5 -18,6 54,6 76,-3 2,-1 3,0 5,0"/>
   <path class="fil39" d="M23874 15410c0,-13 -1,-21 -1,-27 0,-13 0,-13 -28,-13l-101 0 -13 0c-28,0 -28,0 -28,50 -1,49 -1,148 1,207 2,58 8,76 19,89 4,5 9,9 15,13 0,58 0,132 0,227 2,346 8,969 10,1281l2 230c43,-54 136,-92 245,-92 110,0 204,39 246,94 1,-33 3,-80 5,-146 6,-226 19,-678 29,-918 10,-240 16,-269 27,-292 10,-24 24,-42 46,-51 23,-9 52,-9 77,-1 25,9 45,26 56,54 11,29 13,69 15,312 2,242 3,686 4,908l1 139c39,-58 136,-99 250,-99 109,0 202,38 245,93l7 -214 39 -1226 3 -100c4,2 9,3 15,3 7,0 17,-3 25,-8 8,-5 14,-11 20,-19 5,-8 9,-16 12,-33 2,-16 4,-41 5,-116 0,-76 0,-202 -1,-270 -1,-68 -2,-76 -5,-84 -2,-8 -6,-15 -12,-20 -5,-4 -13,-7 -21,-9 -8,-2 -17,-4 -24,-4 -7,1 -12,3 -17,7 -1,0 -2,1 -3,2l-1 1c-5,6 -9,15 -11,24 -2,9 -3,18 -3,22 0,5 0,5 -7,7 -7,1 -22,5 -62,11 -40,5 -106,11 -140,15 -20,3 -29,5 -33,8 -27,2 -58,5 -91,6 -35,0 -73,-2 -105,-3 -33,0 -59,1 -106,0 -46,-1 -112,-3 -158,-5 -45,-2 -71,-3 -107,-6 -37,-4 -84,-8 -139,-15 -54,-8 -115,-18 -152,-24 -24,-4 -38,-6 -50,-8zm1157 488l0 0 0 21 0 -21z"/>
   <path class="fil36" d="M24968 17440c11,9 20,18 28,28l7 -214 39 -1226 3 -100c4,2 9,3 15,3 7,0 17,-3 25,-8 4,-2 7,-5 10,-8 0,-33 -1,-64 -3,-91 -9,-187 -38,-228 -54,-234 -16,-7 -19,21 -29,350 -10,329 -27,959 -35,1274 -3,108 -5,179 -6,226zm63 -1542l0 0 0 21 0 -21z"/>
   <path class="fil36" d="M24221 17448c8,7 15,14 20,21 1,-33 3,-80 5,-146 6,-226 19,-678 29,-918 10,-240 16,-269 27,-292 10,-24 24,-42 46,-51 23,-9 52,-9 77,-1 25,9 45,26 56,54 11,29 13,69 15,312 2,242 3,686 4,908l1 139c6,-9 13,-17 22,-26l1 -137c2,-210 4,-630 4,-863 0,-234 -2,-281 -9,-317 -7,-37 -19,-63 -36,-82 -17,-20 -41,-33 -67,-39 -26,-6 -55,-5 -78,4 -24,10 -43,28 -57,56 -13,28 -21,65 -27,133 -5,68 -9,166 -12,318 -4,151 -7,357 -11,527 -3,170 -7,303 -9,378l-1 22z"/>
   <path class="fil36" d="M23717 15708c2,3 4,5 6,8 4,5 9,9 15,13 0,58 0,132 0,227 2,346 8,969 10,1281l2 230c6,-7 13,-14 20,-21l-1 -255c-2,-297 -6,-891 -8,-1198 -3,-307 -5,-328 -18,-324 -6,2 -15,10 -26,39z"/>
   <path class="fil31" d="M23881 15644c-3,8 -4,20 -6,34 -3,15 -9,32 -16,44 -7,13 -16,20 -26,25 -9,5 -20,7 -32,6 -12,0 -25,-2 -38,-5 -12,-2 -23,-5 -34,-10 -10,-6 -20,-13 -28,-53 -9,-39 -17,-111 -18,-170 -1,-59 4,-104 7,-127 3,-24 5,-25 36,-27 31,-1 92,-2 125,-1 32,0 35,3 36,17 0,13 -2,39 -4,52 -1,13 -1,13 19,13 20,1 61,3 86,6 26,3 37,8 43,16 6,8 8,20 10,44 1,23 2,59 1,80 -1,22 -4,30 -8,36 -3,6 -9,10 -32,11 -24,0 -65,-3 -89,-3 -24,1 -29,4 -32,12z"/>
   <path class="fil31" d="M24777 15474c0,-12 3,-14 37,-18 34,-4 100,-10 140,-16 40,-5 54,-9 61,-11 8,-2 8,-2 8,-6 0,-4 0,-13 3,-22 2,-9 6,-18 11,-24 6,-6 13,-9 20,-10 8,0 17,1 25,3 8,3 15,5 21,10 6,5 9,12 12,19 3,8 4,17 5,85 1,67 1,194 0,270 0,75 -2,99 -5,116 -3,16 -6,25 -12,33 -5,7 -11,14 -19,19 -8,4 -18,7 -26,8 -8,0 -14,-3 -19,-6 -5,-3 -9,-7 -10,-48 -2,-42 -2,-120 -1,-159 0,-40 0,-40 -9,-39 -9,0 -26,1 -50,0 -24,-1 -54,-4 -78,-8 -25,-3 -43,-7 -58,-12 -15,-4 -27,-9 -35,-16 -9,-6 -15,-14 -18,-33 -3,-19 -3,-48 -3,-74 -1,-26 -1,-49 0,-61z"/>
   <path class="fil40" d="M25097 15376c2,1 4,3 6,4 6,5 9,12 12,19 3,8 4,17 5,85 1,67 1,194 0,270 0,75 -2,99 -5,116 -3,16 -6,25 -12,33 -3,5 -7,10 -12,13 0,-14 0,-34 0,-61 1,-98 1,-293 4,-397 0,-38 1,-64 2,-82z"/>
   <path class="fil31" d="M24241 15640l0 -173c-1,0 -1,0 -2,0l-106 0c-16,0 -30,13 -30,30l0 113c0,17 14,30 30,30l106 0 2 0z"/>
   <path class="fil31" d="M24565 15465l0 175c1,0 2,0 2,0l106 0c17,0 30,-14 30,-32l0 -121c0,-40 -82,-22 -115,-22 -8,0 -15,0 -23,0z"/>
   <rect class="fil41" x="24241" y="15450" width="324" height="211"/>
   <rect class="fil31" x="24294" y="15497" width="224" height="115"/>
   <path class="fil42" d="M24819 17402c17,4 34,8 51,15 18,8 36,18 52,28 16,10 28,21 37,31 9,10 14,18 18,28 4,9 7,19 8,24 1,5 1,5 -19,5 -20,0 -60,0 -80,0 -19,0 -19,0 -19,0 0,0 0,0 -1,-6 0,-7 0,-20 -3,-35 -3,-15 -7,-33 -15,-46 -7,-13 -17,-21 -26,-29 -9,-8 -18,-14 -27,-18 -9,-5 -20,-7 -25,-8 -5,-1 -5,-1 4,1 9,2 27,6 45,10z"/>
   <path class="fil42" d="M24061 17402c17,4 34,8 51,15 18,8 37,18 52,28 16,10 28,21 37,31 9,10 14,18 18,28 4,9 7,19 8,24 2,5 2,5 -18,5 -20,0 -60,0 -80,0 -20,0 -20,0 -20,0 0,0 0,0 -1,-6 0,-7 0,-20 -3,-35 -2,-15 -7,-33 -15,-46 -7,-13 -17,-21 -26,-29 -9,-8 -17,-14 -27,-18 -9,-5 -19,-7 -25,-8 -5,-1 -5,-1 4,1 9,2 28,6 45,10z"/>
   <path class="fil17 str5" d="M25442 14172l515 0m-515 245l515 0m-515 -31l515 0m-515 -30l515 0m-515 -31l515 0m-515 -30l515 0m-515 -31l515 0m-515 -30l515 0m-515 -31l515 0"/>
  </g>
  <g id="_2073886242928">
   <path class="fil43" d="M37916 16930c-22,43 -54,111 -80,155 -27,43 -48,62 -94,73 -46,12 -117,18 -1024,16 -906,-1 -2648,-9 -3526,-14 -879,-4 -893,-6 -904,-23 -10,-18 -17,-52 -27,-111 -11,-59 -25,-142 -31,-184 -6,-42 -4,-44 -310,-44 -307,0 -923,2 -1256,18 -334,17 -385,48 -410,90 -25,41 -24,93 -26,138 -2,45 -7,83 -20,105 -12,21 -32,27 -116,11 -84,-15 -231,-50 -327,-75 -97,-24 -142,-37 -178,-45 -37,-8 -66,-11 -91,-17 -24,-7 -44,-17 -58,-37 -14,-20 -22,-49 -16,-124 5,-74 23,-194 35,-288 11,-95 15,-163 23,-271 9,-107 22,-253 33,-348 12,-95 21,-139 33,-174 13,-35 29,-61 74,-103 46,-43 121,-101 224,-157 104,-57 236,-112 385,-163 149,-51 315,-97 470,-135 155,-37 298,-66 490,-95 192,-28 432,-56 745,-89 313,-33 700,-71 893,-90 193,-19 193,-19 193,-19 0,0 0,0 42,-35 43,-35 127,-105 264,-202 137,-97 327,-221 503,-323 175,-103 336,-185 472,-244 137,-60 249,-97 388,-133 139,-36 305,-72 495,-98 190,-26 404,-44 623,-55 220,-11 445,-16 653,-10 209,6 400,23 575,42 176,20 335,43 531,83 196,40 428,98 544,127 116,29 116,29 121,34 4,4 14,14 24,24 11,9 22,20 254,106 231,87 682,249 928,335 246,85 287,95 340,100 53,5 117,6 174,14 58,8 108,23 220,40 112,17 286,37 442,48 155,11 292,14 370,19 77,5 94,13 106,28 12,16 18,38 21,92 3,54 1,140 1,250 0,110 2,245 2,312 1,67 1,67 1,67 0,0 0,0 15,9 15,10 45,28 76,56 31,29 63,67 86,114 23,48 38,105 34,285 -3,180 -24,483 -38,638 -14,155 -20,161 -53,169 -32,8 -90,17 -338,19 -248,1 -685,-6 -1157,-5 -473,1 -979,9 -1280,13 -302,4 -398,4 -452,12 -55,9 -68,26 -91,69z"/>
   <polygon class="fil44" points="32967,16642 32959,16911 36005,16855 36084,16594 "/>
   <path class="fil45" d="M30266 16890c-5,5 -9,10 -12,16 -25,41 -24,93 -26,138 -2,45 -7,83 -20,105 -12,21 -32,27 -116,11 -84,-15 -231,-50 -327,-75 -97,-24 -142,-37 -178,-45 -37,-8 -66,-11 -91,-17 -24,-7 -44,-17 -58,-37 -14,-20 -22,-49 -16,-124 2,-35 8,-81 14,-129 67,1 141,6 220,11 170,11 361,26 466,32 106,6 125,3 136,50 4,17 6,39 8,64z"/>
   <path class="fil45" d="M41113 15413l0 71c1,67 1,67 1,67 0,0 0,0 15,9 15,10 45,28 76,56 31,29 63,67 86,114 23,48 38,105 34,285 -3,180 -24,483 -38,638 -14,155 -20,161 -53,169 -32,8 -90,17 -338,19 -226,1 -610,-4 -1034,-5 0,-17 1,-36 1,-57 2,-66 4,-149 -17,-243 -20,-93 -62,-197 -107,-286 -45,-88 -93,-161 -145,-225 -53,-65 -111,-122 -140,-150 -29,-28 -29,-28 69,-41 98,-12 295,-37 462,-69 166,-32 304,-70 398,-107 94,-37 146,-72 181,-109 35,-36 53,-73 62,-106 8,-34 7,-64 22,-78 15,-14 47,-11 138,-2 85,10 222,25 327,50z"/>
   <path class="fil4" d="M41317 16231c-2,37 -4,76 -7,113 -25,4 -51,5 -75,6 -45,2 -83,3 -114,-3 -31,-6 -55,-19 -70,-38 -16,-18 -24,-42 -28,-54 -4,-12 -4,-12 61,-14 56,-2 158,-6 233,-10z"/>
   <path class="fil46" d="M37916 16930c-22,43 -54,111 -80,155 -27,43 -48,62 -94,73 -46,12 -117,18 -1024,16 -906,-1 -2648,-9 -3526,-14 -879,-4 -893,-6 -904,-23 -10,-18 -17,-52 -27,-111l-1 -2 0 -1 0 -1 0 -1 0 -1 -1 -1 0 -1 0 -1 0 -2 0 0 -1 -1 0 -2 0 0 0 -2 0 -1 -1 -1 0 -2 0 0 0 -2 0 -1 0 0 -1 -2 0 -1 0 -1 0 -2 -1 0 0 -2 0 -1 0 -1 -1 -2 0 0 0 -2 0 -1 0 -1 -1 -1 0 -1 0 -1 0 -2 0 -1 -1 -1 0 -2 0 0 0 -2 0 -1 -1 -1 0 -2 0 0 0 -2 0 -1 -1 -1 0 -2 0 0 0 -2 -1 -1 0 -1 0 -2 0 -1 0 -1 -1 -2 0 0 0 -2 0 -1 0 -1 -1 -2 0 0 0 -2 0 -1 0 -1 -1 -2 0 0 0 -2 0 -2 0 0 -1 -2 0 -1 0 -1 0 -2 0 0 -1 -2 0 -1 0 -1 0 -2 -1 0 0 -1 0 -2 0 0 0 -2 -1 -1 0 -1 0 -2 0 -1 0 -1 -1 -2 0 0 0 -2 0 -1 0 -1 -1 -2 0 0 0 -2 0 -1 0 -1 -1 -1c89,-7 315,-13 890,-28 947,-26 2840,-76 3793,-86 954,-9 967,21 980,68 5,21 10,44 16,69l-1 1 -1 2z"/>
   <path class="fil47" d="M37821 17106c-20,29 -41,43 -79,52 -46,12 -117,18 -1024,16 -906,-1 -2648,-9 -3526,-14 -879,-4 -893,-6 -904,-23 -9,-17 -16,-47 -25,-97 79,-5 248,-6 619,-10 683,-7 2049,-20 2954,-32 904,-12 1347,-22 1603,-8 256,15 325,54 365,97 7,6 12,13 17,19z"/>
   <path class="fil43 str3" d="M30277 16880c-15,11 -25,26 -37,50 -7,13 -14,28 -22,43 -13,-48 -22,-97 -28,-147 -4,-39 -6,-78 -6,-118 0,-13 0,-27 1,-41 2,-43 5,-74 9,-103 7,-48 19,-90 32,-125 13,-36 28,-66 34,-51 5,15 1,74 4,156 3,81 12,185 13,278 0,20 0,39 0,58z"/>
   <path class="fil48" d="M29462 17009c-9,-6 -17,-14 -24,-23 -14,-20 -22,-49 -16,-124 5,-74 23,-194 35,-288l0 -2c20,-17 37,-29 56,-40 41,-26 90,-53 127,-66 37,-14 62,-16 86,-12 23,3 46,11 64,30 17,19 31,50 36,84 6,35 5,75 -2,111 -6,35 -18,67 -41,106 -23,39 -57,85 -90,118 -33,34 -65,55 -95,72 -29,15 -56,27 -136,34z"/>
   <path class="fil49" d="M29670 15635c44,-35 103,-75 174,-114 104,-57 236,-112 385,-163 149,-51 315,-97 470,-135 155,-37 298,-66 490,-95 192,-28 432,-56 745,-89 313,-33 700,-71 893,-90 193,-19 193,-19 193,-19 0,0 0,0 42,-35 43,-35 127,-105 264,-202 137,-97 327,-221 503,-323 175,-103 336,-185 472,-244 137,-60 249,-97 388,-133 139,-36 305,-72 495,-98 190,-26 404,-44 623,-55 220,-11 445,-16 653,-10 209,6 400,23 575,42 176,20 335,43 531,83 196,40 428,98 544,127 116,29 116,29 121,34 4,4 14,14 24,24 11,9 22,20 254,106 231,87 682,249 928,335 246,85 287,95 340,100 53,5 117,6 174,14 58,8 108,23 220,40 112,17 286,37 442,48 155,11 292,14 370,19 77,5 94,13 106,28 12,16 18,38 21,92 3,54 1,140 1,250 0,39 0,81 1,122 -119,-28 -245,-58 -360,-80 -177,-35 -330,-51 -936,-37 -607,13 -1667,55 -3547,142 -1881,87 -4581,219 -5932,285 -275,13 -494,24 -667,31z"/>
   <path class="fil50" d="M33045 14910l17 -15c43,-35 127,-105 264,-202 137,-97 327,-221 503,-323 175,-103 336,-185 472,-244 85,-37 160,-65 238,-90 13,8 20,18 21,32 0,16 -8,35 -59,72 -51,36 -145,90 -276,161 -132,71 -300,159 -457,249 -156,89 -301,180 -398,241 -97,60 -147,90 -188,105 -41,16 -72,18 -110,16 -9,-1 -18,-1 -27,-2z"/>
   <path class="fil51" d="M29721 15934c-15,24 -33,46 -51,69 -19,23 -38,46 -54,61 -16,16 -29,24 -40,26 -12,3 -21,0 -27,-9 -6,-10 -10,-27 -7,-65 2,-38 10,-97 16,-136 7,-38 12,-57 20,-71 9,-15 20,-26 36,-34 16,-8 37,-12 57,-13 21,-1 40,1 54,5 13,4 22,9 27,25 5,16 7,42 2,68 -5,25 -18,50 -33,74z"/>
   <path class="fil52" d="M39038 15236c-701,41 -1825,107 -3178,165 -1352,58 -2935,108 -3726,133 -791,25 -791,25 -791,25 0,0 0,0 374,-21 375,-21 1124,-63 2030,-117 906,-54 1968,-120 2876,-168 907,-47 1658,-76 2245,-88 587,-12 1009,-7 1220,-4 211,2 211,2 211,2 0,0 0,0 -140,8 -140,8 -419,24 -1121,65z"/>
   <path class="fil53" d="M30012 15976c113,-77 287,-203 374,-267 87,-63 87,-63 87,-63 0,0 0,0 -35,-2 -34,-2 -103,-6 -178,-3 -76,2 -159,12 -238,29 -78,18 -152,45 -207,69 -54,24 -90,47 -115,71 -25,25 -40,51 -49,87 -9,37 -13,83 -11,118 2,35 10,58 37,72 27,14 73,18 122,6 49,-12 100,-39 213,-117z"/>
   <path class="fil48" d="M37672 14904c-367,14 -796,30 -1260,50 -465,20 -966,43 -1519,70 -552,27 -1156,58 -1453,66 -297,9 -286,-4 -235,-41 50,-36 141,-95 187,-125 45,-30 45,-30 48,-39 3,-9 8,-27 21,-49 13,-21 34,-44 61,-64 26,-20 58,-36 86,-46 27,-11 51,-16 75,-21 25,-4 50,-8 62,-10 13,-2 13,-2 13,-2 0,0 0,0 69,-45 69,-45 208,-135 342,-214 133,-80 263,-150 376,-205 113,-56 211,-97 309,-130 99,-34 197,-60 317,-78 119,-18 259,-27 404,-33 145,-6 295,-9 457,-7 161,2 334,9 469,16 135,6 233,13 367,29 135,17 306,43 463,71 156,27 297,56 455,97 158,40 334,91 485,140 152,49 280,95 375,133 95,38 157,69 200,97 43,27 66,52 78,77 12,24 12,48 4,74 -8,27 -24,56 -44,79 -20,23 -46,40 -86,50 -40,11 -95,15 -275,23 -180,9 -485,22 -851,37z"/>
   <path class="fil54 str3" d="M36853 14384c-33,123 -81,297 -105,384 -23,87 -23,87 -23,87 0,0 0,0 290,-9 291,-8 873,-25 1195,-41 321,-16 383,-31 421,-48 37,-17 51,-37 48,-62 -3,-26 -21,-58 -80,-95 -59,-38 -157,-81 -299,-134 -141,-53 -324,-115 -561,-175 -236,-60 -526,-118 -671,-147 -145,-29 -145,-29 -145,-29 0,0 0,0 -10,36 -9,37 -27,109 -60,233z"/>
   <path class="fil54 str3" d="M36706 14311c-35,127 -93,336 -122,440 -29,104 -29,104 -29,104 0,0 0,0 0,0 0,0 0,0 -179,10 -179,10 -536,29 -983,54 -447,24 -984,53 -1252,68 -268,14 -268,14 -268,14 0,0 0,0 4,-31 5,-32 14,-95 15,-140 2,-45 -5,-71 -19,-88 -14,-16 -35,-23 -45,-26 -11,-3 -11,-3 -11,-3 0,0 0,0 54,-34 53,-34 160,-101 272,-166 112,-64 229,-126 344,-182 115,-56 227,-106 341,-145 114,-38 230,-64 361,-85 130,-20 275,-35 443,-43 168,-7 360,-9 552,-2 193,6 386,21 483,28 97,7 97,7 97,7 0,0 0,0 -6,24 -6,23 -17,69 -52,196z"/>
   <path class="fil50" d="M39553 14575c230,83 241,91 245,97 2,4 2,7 1,11 -8,-1 -15,-1 -22,-2 -53,-5 -94,-15 -340,-100 -246,-86 -697,-248 -928,-335 -232,-86 -243,-97 -254,-106 -2,-3 -5,-5 -7,-7 11,0 25,2 51,8 31,6 78,19 326,105 248,86 698,246 928,329z"/>
   <path class="fil4" d="M41111 15130l0 42c0,110 2,245 2,312 1,67 1,67 1,67l1 1c-21,9 -47,11 -75,12 -57,2 -124,0 -192,-14 -68,-13 -136,-40 -210,-90 -73,-50 -151,-124 -193,-172 -43,-48 -51,-70 -45,-93 7,-22 28,-45 70,-68 41,-24 103,-49 167,-65 64,-16 130,-23 189,-23 60,0 112,7 154,18 41,12 72,27 100,46 11,7 21,15 31,27z"/>
   <path class="fil48" d="M38895 15674c571,0 1034,463 1034,1034 0,43 -3,86 -8,128 -42,0 -85,0 -127,0 5,-42 9,-85 9,-128 0,-501 -407,-908 -908,-908 -467,0 -852,352 -902,806 17,57 31,144 33,192 3,56 -11,59 -24,62l-2 1 0 1c-7,2 -13,3 -19,5 -5,1 -9,3 -13,5 -10,5 -18,11 -26,20 -7,8 -15,20 -25,39 -10,19 -24,47 -40,78 -17,31 -37,66 -47,83 -10,18 -10,18 -10,18 0,0 0,0 3,-38 3,-38 9,-113 16,-186 7,-73 13,-144 18,-191 2,-16 3,-30 5,-41 28,-546 479,-980 1033,-980z"/>
   <g>
    <path class="fil55 str3" d="M38895 15800c-502,0 -908,407 -908,908 0,501 406,908 908,908 501,0 908,-407 908,-908 0,-501 -407,-908 -908,-908zm603 1020c-61,7 -176,10 -357,15 -180,5 -427,13 -588,17 -161,4 -236,4 -273,4 -38,0 -38,0 -38,0 0,0 0,0 5,11 4,12 13,34 32,74 18,39 46,96 78,143 33,46 70,83 114,118 44,34 95,66 140,89 45,23 83,37 133,46 49,10 110,14 159,15 48,1 85,0 135,-11 51,-10 114,-30 173,-59 58,-29 112,-67 162,-125 49,-57 94,-133 127,-198 33,-65 54,-117 61,-138 6,-20 -2,-8 -63,-1z"/>
    <circle class="fil56" cx="38886" cy="16699" r="475"/>
    <circle class="fil18 str3" cx="38895" cy="16708" r="107"/>
    <path class="fil57" d="M38895 16010c-386,0 -699,312 -699,698 0,386 313,698 699,698 385,0 698,-312 698,-698 0,-386 -313,-698 -698,-698zm0 492c-14,0 -27,2 -39,4l-16 -427c18,-1 36,-2 55,-2 14,0 27,1 41,2l-3 427c-13,-2 -25,-4 -38,-4zm-69 12c-46,16 -84,48 -108,89l-366 -216c84,-142 222,-249 387,-290l87 417zm-122 117c-8,21 -13,43 -15,66l-416 -94c7,-47 20,-92 38,-134l393 162zm-13 104c5,43 24,82 52,112l-312 289c-104,-112 -167,-263 -167,-428 0,-9 0,-18 0,-27l427 54zm75 134c17,13 36,24 57,32l-228 362c-35,-18 -68,-40 -98,-65l269 -329zm85 40c14,3 29,5 44,5 23,0 45,-4 66,-11l190 382c-78,35 -165,54 -256,54 -83,0 -162,-16 -235,-45l191 -385zm136 -17c19,-9 36,-22 51,-36l281 319c-31,29 -66,54 -104,77l-228 -360zm74 -63c24,-32 38,-72 39,-115l424 -45c1,13 2,26 2,39 0,162 -62,310 -162,422l-303 -301zm38 -148c-4,-24 -11,-48 -22,-69l405 -136c13,34 24,69 31,106l-414 99zm-40 -96c-23,-32 -56,-56 -93,-70l64 -423c174,38 322,148 409,298l-380 195z"/>
    <circle class="fil58" cx="38892" cy="16705" r="107"/>
   </g>
   <path class="fil48" d="M31218 15674c572,0 1035,463 1035,1034 0,34 -2,67 -5,100l-2 27c-1,25 -2,50 -3,63 -1,12 -1,12 -1,12l-2 -1 -1 6c0,0 0,0 -30,-3 -30,-3 -91,-8 -173,-15 -81,-7 -184,-17 -288,-23 -105,-6 -210,-8 -354,-3 -145,5 -328,19 -469,40 -141,22 -240,52 -323,79 -82,26 -148,49 -209,74 -60,25 -116,52 -148,71 -20,11 -31,19 -38,22 -6,5 -10,8 -14,9 -5,3 -8,4 -10,1 -2,1 -4,1 -6,1 0,-9 0,-21 0,-36 1,-81 2,-245 4,-354 1,-45 2,-81 4,-111 21,-552 476,-993 1033,-993zm898 897c-66,-436 -443,-770 -898,-770 -487,0 -885,384 -907,867 46,-61 125,-104 320,-129 211,-28 558,-36 836,-29 279,8 490,30 608,53 15,2 29,5 41,8z"/>
   <g>
    <path class="fil55" d="M31218 15792c-501,0 -907,406 -907,908 0,501 406,907 907,907 502,0 908,-406 908,-907 0,-502 -406,-908 -908,-908zm604 1019c-62,8 -176,10 -357,16 -181,5 -427,13 -588,17 -161,4 -236,4 -274,4 -37,0 -37,0 -37,0 0,0 0,0 4,11 5,11 14,33 33,73 18,40 46,96 78,143 32,47 69,84 114,118 44,34 95,66 140,89 45,23 83,38 132,47 50,9 111,13 159,14 49,2 86,0 136,-10 50,-11 114,-30 172,-59 59,-29 113,-68 162,-125 50,-57 95,-134 128,-199 33,-64 54,-117 60,-137 7,-21 -1,-9 -62,-2z"/>
    <circle class="fil56" cx="31209" cy="16690" r="475"/>
    <circle class="fil18" cx="31218" cy="16700" r="107"/>
    <path class="fil57" d="M31218 16001c-385,0 -698,313 -698,699 0,385 313,698 698,698 386,0 699,-313 699,-698 0,-386 -313,-699 -699,-699zm0 493c-13,0 -26,1 -39,4l-15 -427c18,-2 36,-2 54,-2 14,0 28,0 42,1l-4 427c-12,-2 -25,-3 -38,-3zm-68 12c-46,16 -84,48 -108,88l-367 -216c85,-142 223,-248 387,-290l88 418zm-123 117c-8,20 -13,42 -14,65l-417 -94c8,-46 21,-91 38,-133l393 162zm-13 103c6,44 25,82 53,113l-312 289c-104,-113 -168,-263 -168,-428 0,-10 1,-19 1,-28l426 54zm76 134c17,14 36,25 56,32l-227 363c-35,-19 -68,-41 -98,-66l269 -329zm84 40c15,4 29,5 44,5 24,0 46,-4 67,-11l190 382c-78,35 -165,54 -257,54 -83,0 -162,-16 -234,-45l190 -385zm136 -16c19,-10 37,-22 52,-37l281 319c-32,29 -67,55 -104,77l-229 -359zm75 -64c23,-32 38,-72 39,-114l424 -45c1,13 1,25 1,39 0,162 -61,310 -161,421l-303 -301zm37 -147c-3,-25 -10,-48 -21,-69l404 -136c14,33 24,69 32,105l-415 100zm-39 -97c-23,-31 -56,-56 -93,-69l64 -424c174,38 321,148 409,298l-380 195z"/>
    <circle class="fil58" cx="31215" cy="16696" r="107"/>
   </g>
   <path class="fil47" d="M35875 15238c8,20 13,42 15,69 1,27 -2,59 -16,83 -15,25 -41,42 -85,52 -44,10 -106,12 -159,0 -53,-12 -96,-38 -123,-63 -26,-25 -35,-49 -31,-69 3,-21 21,-38 69,-59 49,-21 130,-46 185,-58 55,-12 86,-10 106,-1 21,9 31,26 39,46z"/>
   <path class="fil59" d="M35925 15350c-111,13 -328,19 -444,17 -115,-1 -128,-9 -133,-20 -6,-10 -3,-23 6,-35 9,-11 25,-20 127,-32 103,-13 291,-29 397,-34 105,-5 128,0 141,10 13,10 17,24 18,42 0,18 -2,39 -112,52z"/>
  </g>
  <polygon class="fil60" points="48792,19559 2,19559 2,17704 48792,17704 "/>
  <path class="fil59" style="mask:url(#id0)" d="M30385 15712c-109,75 -279,207 -401,285 -122,78 -196,102 -415,208 -220,105 -586,293 -1084,480 -498,188 -1128,375 -1628,488 -500,113 -870,151 -1055,170 -185,20 -185,20 -185,20 0,0 0,0 0,0 0,0 0,0 0,-434 0,-435 0,-1303 0,-1737 0,-434 0,-434 0,-434 0,0 0,0 829,141 828,141 2486,422 3291,571 805,150 757,167 648,242z"/>
  <rect class="fil61" x="3889" y="13758" width="156" height="3851"/>
  <rect class="fil61" x="8139" y="13774" width="156" height="3835"/>
  <g id="_2073884912640">
   <g>
    <path class="fil62" d="M4346 11304c0,-134 0,-268 0,-403l0 -3 7 -88 0 -1c94,-882 835,-1544 1721,-1544 905,0 1728,759 1729,1677 4,121 3,242 1,362l612 0 0 3268 -4685 0 0 -3268 615 0z"/>
   </g>
   <path class="fil63" d="M4430 11388c0,-162 0,-324 0,-487l7 -84c88,-833 789,-1469 1637,-1469 859,0 1645,723 1645,1596 5,148 2,296 1,444l613 0 0 3100 -4518 0 0 -3100 615 0z"/>
   <path class="fil59 str6" d="M3899 11472l615 0c0,-190 0,-381 0,-571l0 0c48,-819 721,-1469 1560,-1469 810,0 1562,683 1562,1513 5,173 0,353 0,527l613 0 0 2932 -4350 0 0 -2932z"/>
   <polygon class="fil63" points="4067,12361 4067,11623 8075,11623 8075,12361 "/>
   <rect class="fil62" x="4099" y="11655" width="3943" height="674"/>
   <polygon class="fil64" points="3731,14558 8422,14558 8422,15796 3731,15796 "/>
   <polygon class="fil63" points="3815,14836 8332,14836 8332,15713 3815,15713 "/>
   <rect class="fil59" x="3898" y="14920" width="4351" height="709"/>
   <path class="fil64" d="M5319 9844c36,-6 96,-16 160,-22 65,-6 134,-7 182,-4 47,3 72,11 91,22 20,10 34,24 41,40 7,17 6,37 6,47 -1,10 -1,10 -1,10 0,0 0,0 4,0 4,-1 12,-1 31,-7 20,-5 51,-15 87,-26 35,-10 75,-22 117,-30 42,-7 86,-12 136,-10 50,2 106,10 155,24 48,13 88,33 119,43 31,10 52,10 102,5 49,-6 127,-17 186,-30 59,-12 99,-24 120,-31 20,-6 21,-6 21,-6 1,0 1,0 1,177 0,178 1,533 1,711 1,178 1,178 1,179 0,2 0,6 0,7 0,2 0,2 -8,2 -8,0 -25,0 -49,4 -24,5 -56,13 -85,24 -28,11 -53,25 -84,33 -31,7 -68,10 -103,7 -36,-3 -70,-11 -100,-21 -29,-10 -55,-22 -87,-30 -32,-8 -70,-11 -107,-8 -36,3 -70,12 -109,20 -40,9 -84,17 -138,14 -53,-3 -115,-17 -161,-28 -46,-11 -77,-21 -120,-28 -43,-7 -100,-12 -160,-13 -60,-1 -124,2 -176,8 -53,6 -94,15 -115,20 -20,5 -20,5 -20,5 0,0 0,0 0,-183 0,-182 1,-546 2,-729 0,-182 0,-182 6,-184 6,-1 18,-5 54,-12z"/>
   <polygon class="fil65" points="6878,10363 6878,10757 6879,10847 6750,10842 6746,10406 6842,10341 "/>
   <path class="fil66" d="M5319 9844c20,-3 47,-8 77,-13l0 158 -137 -56c0,-75 1,-75 6,-77 6,-1 18,-5 54,-12z"/>
   <path class="fil65" d="M5438 9826c14,-1 27,-3 41,-4 19,-2 38,-3 57,-4l0 64 -98 -56z"/>
   <path class="fil65" d="M5677 9819c37,4 58,11 75,21 20,10 34,24 41,40 7,17 6,37 6,47 -1,10 -1,10 -1,10l2 0 -3 182 -118 -135 -2 -165z"/>
   <path class="fil67" d="M6487 9939c17,1 35,0 62,-3 49,-6 127,-17 186,-30 59,-12 99,-24 120,-31 20,-6 21,-6 21,-6 1,0 1,0 1,177l0 81 -3 -2c-9,-5 -16,-9 -25,-12 -8,-3 -17,-5 -23,-4 -7,0 -12,2 -14,4 -3,1 -3,1 -7,-5 -4,-6 -11,-18 -21,-23 -10,-6 -23,-6 -33,0 -11,5 -19,16 -23,27 -4,11 -3,22 -3,27 0,6 0,6 -37,7 -38,1 -114,2 -152,3 -38,1 -38,1 -38,-10 0,-11 -1,-32 -1,-43 -1,-11 -1,-11 5,-11 5,1 16,2 26,-4 11,-5 22,-16 26,-27 5,-10 3,-21 -2,-31 -5,-10 -13,-19 -19,-23 -6,-5 -10,-6 -12,-11 -2,-5 -3,-15 -9,-23 -5,-8 -14,-14 -20,-20 -2,-2 -4,-4 -5,-7z"/>
   <path class="fil67" d="M5659 10924c-29,-3 -59,-4 -91,-5 -60,-1 -124,2 -176,8 -53,6 -94,15 -115,20 -20,5 -20,5 -20,5 0,0 0,0 0,-183l0 -103c10,1 18,5 26,8 16,7 30,11 37,13 7,2 7,2 8,6 0,3 1,9 5,16 5,7 13,15 27,16 13,1 32,-4 41,-15 10,-11 11,-28 11,-36 0,-8 0,-8 37,-8 36,-1 108,-1 145,-2 37,0 39,0 38,14 0,15 -2,44 -3,59 -1,14 -1,14 -5,14 -4,-1 -12,-3 -23,1 -10,3 -24,12 -31,23 -7,11 -8,25 -3,35 5,10 16,17 25,21 9,4 17,5 21,5 4,0 4,0 3,5 -1,5 -3,14 -1,24 2,10 8,20 16,29 7,8 14,14 18,16 4,3 4,3 10,14z"/>
   <path class="fil17" d="M6037 9847c5,396 10,791 15,1186"/>
   <path class="fil17" d="M5201 10423c39,-16 77,-31 147,-47 70,-16 172,-31 249,-32 78,-1 131,12 169,25 37,12 59,23 86,31 27,7 59,9 91,4 33,-5 66,-19 99,-31 34,-13 69,-25 111,-29 42,-4 92,0 132,9 40,10 70,24 104,39 34,15 72,30 110,40 37,10 74,14 114,14 40,0 83,-5 122,-13 39,-8 74,-19 107,-32 32,-14 61,-30 90,-46"/>
   <path class="fil17" d="M5687 10350c32,5 58,12 79,19 37,12 59,23 86,31 27,7 59,9 91,4 33,-5 66,-19 99,-31 16,-6 32,-12 49,-17"/>
   <path class="fil67" d="M5852 10400c-27,-8 -49,-19 -86,-31 -21,-7 -47,-14 -79,-19 8,4 17,9 23,15 10,8 16,18 18,28 1,10 -2,19 -3,24 -1,5 -1,5 1,6 3,0 8,2 14,5 7,3 14,9 18,18 5,9 7,21 5,32 -2,10 -9,19 -20,23 -11,5 -28,4 -36,4 -8,0 -8,0 -7,15l2 59c0,14 0,14 20,20 19,5 58,16 89,26 31,11 55,21 67,26 12,5 12,5 12,0 -1,-6 -1,-17 6,-27 6,-10 19,-19 32,-22 12,-3 24,0 33,7 9,7 14,17 16,25 3,7 2,13 2,15 -1,3 -1,3 3,2 3,-1 11,-3 20,-3 9,-1 20,1 27,5 8,4 12,10 16,19 1,1 2,2 2,4l0 0c-1,-81 -2,-217 -4,-304l-1 1c-33,12 -66,26 -99,31 -32,5 -64,3 -91,-4z"/>
   <path class="fil67" d="M5312 10644c27,-5 73,-13 118,-16 46,-4 90,-4 129,-5 39,0 72,0 89,-1 17,0 17,0 18,-46 1,-45 4,-137 5,-183 1,-46 1,-46 -3,-46 -5,-1 -15,-2 -24,2 -10,4 -19,13 -23,25 -4,12 -4,28 -3,36 0,8 0,8 -5,9 -4,1 -13,4 -22,11 -8,6 -16,18 -18,31 -2,13 2,27 14,35 12,9 31,10 41,11 10,1 10,1 9,15 0,13 -2,40 -3,54 -1,13 -1,13 -41,13 -40,0 -120,-1 -160,-2 -40,0 -40,0 -40,-5 0,-5 -1,-15 -6,-24 -5,-9 -14,-18 -27,-19 -13,0 -29,7 -38,19 -9,12 -11,29 -12,38 -1,8 -1,8 -6,10 -4,1 -13,5 -21,11 -7,6 -12,14 -13,21 -2,7 -1,12 4,13 4,0 11,-2 38,-7z"/>
   <path class="fil67" d="M5739 10636c28,9 73,25 112,37 39,11 71,19 102,22 30,3 58,0 72,-1 14,-1 14,-1 14,2 -1,3 -1,10 -5,18 -3,7 -9,16 -17,21 -9,6 -19,8 -25,9 -5,1 -5,1 -6,5 0,5 -1,14 -7,24 -6,9 -18,18 -33,17 -15,0 -32,-10 -40,-22 -9,-12 -10,-26 -10,-32 -1,-7 -1,-7 -11,-13 -11,-5 -32,-16 -65,-26 -33,-11 -77,-20 -99,-25 -22,-5 -22,-5 -24,12 -2,16 -6,49 0,66 6,16 21,16 32,20 12,4 19,11 23,23 3,12 2,29 -6,41 -8,12 -23,20 -31,23 -7,4 -7,4 -8,10 0,5 -2,17 -10,25 -8,8 -23,12 -31,15 -7,2 -7,2 -7,-10 0,-12 1,-35 3,-82 1,-47 4,-118 8,-155 5,-36 12,-38 21,-37 8,0 19,4 48,13z"/>
   <path class="fil67" d="M6150 10103c33,-3 68,-4 103,-3 35,1 72,3 94,8 23,5 32,13 41,23 9,11 18,22 30,31 12,8 27,12 35,15 8,2 9,2 9,-37 0,-40 -1,-118 -1,-158 -1,-39 -1,-39 -6,-39 -6,0 -17,1 -24,10 -6,9 -8,25 -9,33 -1,9 -1,9 -7,9 -6,1 -17,3 -23,14 -6,12 -6,33 1,44 7,12 22,14 30,15 7,1 7,1 7,13 0,11 0,34 0,45 0,11 0,11 -7,4 -8,-8 -23,-22 -42,-35 -18,-12 -39,-22 -70,-27 -31,-6 -71,-8 -91,-9 -20,-1 -21,-1 -22,-6 -1,-5 -3,-16 -6,-24 -4,-9 -10,-15 -19,-18 -10,-3 -23,-3 -33,1 -10,4 -18,11 -22,21 -4,9 -4,21 -4,27 0,6 0,6 -3,6 -3,0 -9,0 -18,2 -9,2 -21,6 -28,14 -7,9 -10,22 -12,29 -1,6 -1,6 15,3 16,-3 49,-8 82,-11z"/>
   <path class="fil67" d="M6053 10137c8,5 19,11 31,14 12,2 26,1 33,0 6,-1 6,-1 7,1 0,2 1,7 5,13 5,7 13,16 23,20 11,5 23,6 34,1 11,-4 19,-14 23,-23 5,-9 4,-17 4,-22 0,-4 0,-4 14,-4 14,-1 41,-2 68,0 26,3 51,10 73,22 23,13 43,32 53,41 10,10 10,10 10,23 0,12 0,38 0,51 0,13 0,13 -5,12 -5,-1 -15,-2 -25,2 -10,5 -21,15 -25,27 -5,12 -3,26 3,36 5,11 15,17 24,21 9,3 18,3 22,3 4,0 4,0 5,6 0,6 1,18 1,24 0,6 0,6 -10,1 -10,-5 -31,-16 -56,-27 -25,-10 -55,-21 -83,-27 -28,-6 -54,-7 -79,-7 -25,-1 -49,-1 -72,2 -23,3 -44,9 -59,14 -14,4 -22,8 -26,9 -4,2 -4,2 -4,-39 -1,-41 -3,-123 -1,-162 1,-39 5,-37 12,-32z"/>
   <path class="fil67" d="M6551 10216c29,1 78,1 111,0 34,-1 52,-4 62,-5 9,-1 9,-1 11,4 2,4 6,14 14,21 8,8 19,13 32,14 14,0 30,-5 38,-13 9,-8 10,-20 10,-26 1,-7 1,-7 7,-9 5,-2 17,-6 24,-15 7,-8 10,-22 11,-29 1,-8 1,-10 -3,-9 -5,1 -15,5 -52,11 -36,6 -99,14 -161,18 -61,4 -121,3 -152,4 -32,0 -35,1 -36,40 -1,38 -1,114 1,155 1,41 4,47 11,50 6,2 17,0 24,-9 7,-9 11,-24 13,-32 2,-8 2,-8 6,-7 5,0 15,1 24,-7 9,-7 18,-23 19,-38 1,-15 -6,-30 -16,-38 -10,-8 -24,-11 -32,-12 -9,-1 -13,-1 -15,-1 -3,0 -3,0 -2,-11 0,-12 0,-36 0,-47 1,-12 1,-12 6,-11 5,0 15,1 45,2z"/>
   <polygon class="fil65" points="5408,10362 5402,9998 5536,10077 5536,10346 "/>
   <polygon class="fil65" points="5679,10187 5681,10346 5795,10381 5796,10378 5796,10311 "/>
   <polygon class="fil65" points="5893,10407 5798,10312 5796,10133 5905,10252 5905,10408 "/>
   <polygon class="fil65" points="5903,9908 5908,10250 6040,10300 6038,9869 "/>
   <polygon class="fil65" points="5671,9989 5671,10176 5546,10077 5540,9888 "/>
   <polygon class="fil65" points="6047,10454 6192,10554 6189,10337 6129,10342 6125,10342 6065,10356 6061,10358 6037,10369 "/>
   <polygon class="fil65" points="6208,10343 6337,10469 6337,10461 6335,10364 "/>
   <polygon class="fil65" points="6336,10685 6339,10474 6473,10629 6470,10852 "/>
   <polygon class="fil65" points="6334,10953 6337,10946 6338,10685 6194,10562 6193,10964 6272,10949 "/>
   <polygon class="fil65" points="6477,10857 6478,11007 6561,11016 6614,11011 6612,10948 "/>
   <polygon class="fil65" points="6475,10625 6473,10428 6604,10449 6607,10789 "/>
   <polygon class="fil65" points="6615,10945 6613,10790 6752,10841 6749,10971 6704,10989 "/>
   <path class="fil17 str7" d="M5194 11269c65,-13 164,-34 271,-53 107,-19 222,-36 325,-48 104,-13 197,-20 292,-27 95,-7 193,-13 245,-13 52,-1 58,3 61,19 4,15 5,42 5,56 0,13 0,13 66,20 65,7 196,20 302,35 106,15 187,32 227,40 41,8 41,8 25,25 -16,18 -47,53 -63,70 -15,17 -15,17 -2,41 12,24 38,72 51,95 13,24 13,24 -5,19 -18,-5 -53,-15 -125,-29 -71,-15 -179,-34 -272,-49 -93,-16 -173,-27 -228,-35 -55,-8 -86,-12 -106,-23 -20,-11 -30,-29 -35,-37 -5,-9 -5,-9 -56,-5 -51,5 -152,14 -267,27 -115,13 -243,30 -367,52 -125,22 -247,48 -316,63 -70,16 -89,20 -98,22 -9,2 -9,2 -1,-22 9,-25 27,-74 36,-98 9,-25 9,-25 -7,-41 -17,-15 -50,-46 -66,-62 -16,-16 -16,-16 -1,-19 15,-3 44,-9 109,-23zm1055 130c-3,-58 -5,-116 -6,-151 -1,-34 1,-45 14,-57 12,-13 37,-26 60,-36 24,-10 47,-16 70,-23m-144 75c47,2 93,3 123,5 30,1 44,2 57,4 14,1 28,4 42,6"/>
   <path class="fil68" d="M5341 11316c-1,4 0,10 1,19 0,2 -1,3 -2,4 -2,0 -3,-1 -4,-2 -2,-4 -4,-7 -6,-8 -2,-2 -5,-3 -8,-3 -3,0 -12,1 -25,3 -3,0 -5,1 -5,2 -1,0 -1,1 -1,2l6 40c0,1 1,1 3,1 5,-1 12,-2 22,-4 2,-1 3,-1 3,-3 1,-1 1,-3 1,-8 0,-2 1,-3 4,-3 2,0 3,1 3,2 -1,8 0,19 3,31 0,2 -1,3 -3,3 -1,0 -3,0 -3,-2 -3,-7 -6,-10 -10,-10 -4,0 -11,0 -20,2 -1,0 -2,0 -2,1l6 39c1,3 2,5 4,6 2,0 6,0 11,0 3,0 5,1 5,3 0,2 -3,3 -8,4 -13,1 -25,2 -33,5 -3,1 -4,0 -5,-2 0,-2 1,-3 4,-4 5,-1 7,-6 6,-16l-11 -74c-1,-4 -2,-7 -3,-8 -2,-2 -5,-4 -9,-5 -2,-1 -3,-2 -3,-4 0,-1 1,-2 1,-2 1,0 2,0 5,0 4,0 12,-1 26,-3 16,-2 29,-5 41,-7 4,-1 6,-1 6,0 0,0 0,0 0,1z"/>
   <path id="1" class="fil68" d="M5493 11350c2,17 -2,32 -12,45 -11,14 -24,21 -41,24 -18,3 -34,-1 -47,-10 -14,-9 -22,-22 -25,-40 -2,-17 2,-32 12,-45 11,-13 25,-21 42,-24 18,-2 33,1 47,10 13,10 21,23 24,40zm-17 6c-3,-17 -9,-30 -20,-38 -10,-8 -22,-11 -37,-9 -12,2 -21,8 -27,18 -7,10 -9,22 -7,36 3,17 9,30 19,38 11,8 23,11 38,9 12,-2 21,-8 28,-18 6,-10 8,-22 6,-36z"/>
   <path id="2" class="fil68" d="M5634 11275c0,1 -1,2 -4,3 -4,2 -7,3 -8,5 -1,1 -2,4 -1,8l7 50c2,15 0,28 -7,38 -7,10 -19,16 -35,19 -34,5 -53,-9 -58,-41l-8 -52c0,-5 -4,-8 -11,-8 -2,0 -3,0 -4,-1 0,0 -1,-1 -1,-2 0,-1 0,-3 1,-3 0,0 2,-1 4,-1 16,-1 27,-3 35,-5 2,0 3,0 4,0 0,0 0,1 1,3 0,1 -1,2 -4,3 -4,2 -7,3 -8,3 -1,2 -2,4 -1,8l7 50c2,15 7,25 14,31 7,6 17,8 31,6 23,-3 33,-19 29,-45l-7 -50c-1,-4 -2,-7 -5,-8 -2,-1 -5,-2 -9,-2 -3,0 -5,-1 -5,-3 0,-2 0,-3 1,-3 0,0 2,0 4,-1 16,-2 27,-3 33,-5 2,0 4,0 4,1 0,1 0,1 1,2z"/>
   <path id="3" class="fil68" d="M5783 11252c1,1 -1,3 -4,4 -6,3 -9,8 -8,14l9 62c2,13 4,24 5,32 1,3 0,5 -1,5 -3,1 -5,0 -7,-3 -4,-5 -18,-17 -40,-35 -20,-16 -38,-30 -56,-44 0,0 -1,0 -1,0 -1,0 -1,1 -1,2l11 71c1,8 5,12 13,12 3,0 5,1 5,3 1,2 -1,3 -5,4 -13,1 -24,3 -32,4 -2,1 -4,0 -4,-2 0,-1 1,-3 3,-3 5,-2 8,-4 9,-6 1,-2 1,-5 1,-9l-12 -77c0,-3 -1,-6 -3,-7 -1,-2 -4,-3 -8,-4 -3,-1 -5,-2 -5,-4 0,-1 1,-2 4,-2 7,0 14,-1 19,-2 3,-1 6,0 8,2l84 67c1,1 2,1 3,1 0,0 0,-1 0,-3l-9 -62c-1,-8 -6,-11 -14,-11 -3,-1 -4,-1 -4,-2 -1,-3 1,-4 3,-4 10,0 20,-2 32,-5 2,-1 3,-1 3,-1 1,0 2,1 2,3z"/>
   <path id="4" class="fil68" d="M5931 11285c3,20 -1,36 -13,49 -11,11 -27,18 -50,22 -1,0 -6,0 -12,1 -7,1 -12,1 -15,2 -5,0 -10,1 -16,3 -2,0 -4,0 -4,-3 0,-1 1,-2 3,-3 6,-1 8,-5 7,-10l-12 -83c0,-3 -1,-5 -3,-6 -1,-1 -3,-2 -7,-2 -3,0 -5,0 -6,0 0,-1 -1,-2 -1,-3 0,-1 0,-2 1,-3 1,0 2,0 4,-1 12,-2 29,-5 49,-8 20,-3 37,-1 50,7 14,8 23,21 25,38zm-18 5c-4,-33 -24,-48 -59,-43 -8,2 -12,2 -12,2 -6,2 -9,4 -8,7l11 80c1,6 3,10 7,11 3,1 9,2 18,0 34,-5 48,-24 43,-57z"/>
   <path id="5" class="fil68" d="M6047 11307c-1,7 -1,14 0,21 0,1 -2,2 -5,2 -9,1 -21,2 -35,4 -15,3 -28,5 -39,7 -3,1 -4,0 -5,-2 0,-2 1,-3 4,-3 3,-1 5,-2 6,-3 1,-2 1,-4 1,-8l-12 -80c-1,-5 -2,-8 -3,-10 -1,-1 -4,-2 -9,-3 -2,0 -3,-1 -3,-4 0,-1 1,-1 1,-2 1,0 2,0 5,0 4,0 13,-1 29,-3 16,-3 29,-5 40,-7 4,-1 6,-1 6,0 0,0 0,0 0,1 -1,5 0,12 1,19 0,2 0,3 -2,3 -2,1 -3,0 -4,-1 -2,-4 -4,-7 -5,-8 -2,-2 -5,-3 -9,-3 -3,0 -13,1 -29,4 -2,0 -3,0 -4,1 0,0 0,1 0,3l5 36c1,1 2,2 3,1 6,0 13,-2 23,-4 2,0 3,-1 3,-3 1,-1 1,-4 1,-7 0,-3 2,-4 4,-4 2,0 3,1 3,3 -1,8 0,18 3,30 0,2 -1,3 -3,3 -1,1 -2,0 -3,-2 -1,-4 -3,-7 -4,-8 -1,-2 -3,-2 -5,-2 -5,0 -12,1 -22,2 -1,0 -1,1 -1,1l6 38c0,6 4,8 10,9 2,0 7,-1 17,-2 14,-2 22,-9 24,-19 1,-3 2,-4 4,-3 2,0 3,1 3,3z"/>
   <path id="6" class="fil68" d="M6183 11249c3,20 -1,36 -13,48 -11,12 -27,19 -49,22 -2,1 -6,1 -13,2 -7,0 -12,1 -15,1 -5,1 -10,2 -16,3 -2,1 -4,0 -4,-2 0,-2 1,-3 3,-3 6,-2 8,-5 8,-11l-13 -83c0,-3 -1,-5 -3,-6 -1,0 -3,-1 -7,-1 -3,0 -5,0 -5,-1 -1,0 -2,-1 -2,-2 0,-2 0,-3 2,-3 0,0 1,-1 3,-1 13,-3 29,-6 49,-9 20,-3 37,0 51,8 14,8 22,20 24,38zm-17 5c-5,-34 -25,-48 -59,-43 -8,1 -12,2 -12,2 -7,1 -10,4 -9,7l12 80c1,6 3,9 6,11 3,1 9,1 18,0 34,-5 49,-24 44,-57z"/>
   <path class="fil68" d="M6512 11379c0,2 -1,3 -2,3 -1,0 -2,0 -5,0 -9,-2 -18,-3 -28,-3 -3,0 -4,0 -5,0 0,-1 -1,-2 0,-4 0,-2 1,-3 5,-4 4,0 7,-4 7,-10l5 -39c0,-4 0,-7 0,-9 -1,-2 -3,-4 -7,-5 -2,-1 -4,-2 -4,-2 -1,-1 -2,-2 -1,-4 0,-1 1,-2 3,-2 0,-1 1,0 4,0 9,2 18,3 29,3 2,0 4,0 4,0 1,1 1,2 1,4 0,1 -2,3 -6,3 -5,1 -8,5 -8,10l-5 40c0,4 0,7 1,9 1,2 4,4 7,5 3,1 4,1 4,2 1,1 2,2 1,3z"/>
   <path id="1" class="fil68" d="M6614 11355c-2,12 -7,21 -15,28 -8,6 -18,9 -30,8 -12,-1 -21,-6 -27,-15 -7,-9 -10,-21 -8,-36 2,-19 11,-36 25,-49 13,-13 30,-21 49,-25 2,0 3,0 3,2 1,2 -1,4 -4,5 -27,11 -43,26 -50,47 6,-5 15,-8 25,-6 11,1 19,5 24,12 6,8 9,18 8,29zm-18 0c1,-9 0,-17 -4,-23 -3,-6 -8,-10 -15,-10 -8,-1 -14,1 -18,6 -5,5 -8,12 -9,21 -1,9 0,17 4,23 4,6 9,9 16,10 7,1 13,-1 18,-6 4,-5 7,-12 8,-21z"/>
   <path id="2" class="fil68" d="M6683 11391c-2,23 -23,36 -61,38 -2,1 -3,0 -3,-3 0,-1 0,-3 1,-3 0,-1 2,-1 5,-1 12,-2 22,-5 28,-8 7,-5 11,-12 12,-21 1,-5 -1,-10 -4,-14 -4,-4 -8,-6 -14,-6 -3,-1 -5,-1 -7,-1 -2,1 -3,0 -3,-3 -1,-2 0,-3 3,-4 19,-7 29,-15 30,-24 1,-8 -3,-13 -11,-14 -7,0 -14,1 -21,4 -2,0 -4,0 -5,-2 -1,-1 -1,-2 -1,-2 0,-1 1,-2 3,-3 9,-6 19,-8 29,-7 18,2 26,10 25,23 -2,11 -11,19 -29,25 7,0 14,3 18,8 4,4 6,10 5,18z"/>
   <path id="3" class="fil68" d="M6783 11408c-1,4 -3,5 -5,5 -2,0 -4,-1 -9,-1l-5 -1c0,6 -1,15 -2,28 0,1 -1,2 -4,3 -2,0 -3,1 -5,1 -3,0 -5,0 -6,0 -1,0 -2,-1 -2,-2 1,-4 2,-10 3,-18 1,-7 2,-12 2,-14 -1,0 -18,-3 -51,-7 -1,0 -2,-1 -2,-3 0,-1 1,-3 2,-4 37,-34 58,-56 65,-66 1,-1 2,-1 3,-1 1,0 3,1 6,2 2,1 2,3 1,6 -1,4 -2,8 -3,14l-5 50c3,1 6,1 9,1 2,-1 4,-1 5,-3 2,-1 3,-2 5,-2 1,1 1,2 1,4 0,1 -1,4 -3,8zm-33 -10l5 -46c-6,8 -20,22 -39,42l34 4z"/>
   <path class="fil68" d="M4238 11764l162 0 133 308 136 -308 146 0 0 30 -7 0c-22,2 -35,5 -39,11 -4,6 -7,23 -7,52l0 291c0,28 3,46 7,51 4,6 17,10 39,12l7 0 0 30 -190 0 0 -30 6 0c19,-2 29,-5 33,-11 4,-6 5,-24 5,-52l0 -284 -150 323 -33 0 -147 -343 0 304c0,28 2,45 5,52 4,6 15,9 33,11l6 0 0 30 -145 0 0 -30 6 0c22,-2 35,-6 40,-12 4,-5 6,-23 6,-51l0 -291c0,-29 -2,-46 -6,-52 -5,-6 -18,-9 -40,-11l-6 0 0 -30z"/>
   <path class="fil68" d="M5003 12124l-18 42c-9,20 -13,34 -13,42 0,6 5,9 15,9 2,0 5,0 10,0l4 1 0 24 -97 0 0 -24 5 -1c13,-1 21,-3 24,-6 4,-4 11,-19 22,-45l136 -315 25 0 136 315c12,26 20,41 23,44 4,4 12,6 26,7l3 1 0 24 -151 0 0 -24 4 -1c21,-1 31,-4 32,-10 0,-5 -5,-19 -14,-42l-19 -41 -153 0zm12 -26l130 0 -66 -150 -64 150z"/>
   <path class="fil68" d="M5505 12072l0 94c0,23 1,37 4,43 3,5 11,7 24,8l5 1 0 24 -146 0 0 -24 5 -1c17,-1 26,-4 30,-9 3,-4 5,-18 5,-42l0 -236c0,-23 -2,-37 -5,-42 -3,-5 -13,-8 -30,-9l-5 -1 0 -24 106 0 45 -1 23 0c75,0 112,32 112,98 0,26 -6,49 -17,67 -12,19 -29,33 -53,43l71 106c18,25 29,39 33,43 5,4 14,6 28,7l5 1 0 24 -109 0 -100 -170 -31 0zm0 -26l13 0c26,0 46,-8 61,-24 15,-16 22,-39 22,-67 0,-50 -23,-75 -69,-75l-27 0 0 166z"/>
   <path class="fil68" d="M5905 12074l-83 -142c-10,-17 -16,-27 -17,-30 -6,-11 -10,-18 -13,-19 -2,-2 -11,-3 -25,-4l-5 -1 0 -24 158 0 0 24 -4 0c-19,0 -28,3 -29,9 0,6 7,21 21,46l62 108 64 -108c14,-24 21,-39 21,-45 0,-6 -8,-10 -24,-10l-5 0 0 -24 99 0 0 24 -4 1c-15,1 -23,2 -25,4 -2,2 -12,19 -30,49l-85 142 0 92c0,24 2,38 5,42 3,5 13,8 30,9l4 1 0 24 -154 0 0 -24 4 -1c17,-1 27,-4 30,-9 3,-4 5,-18 5,-42l0 -92z"/>
   <path class="fil68" d="M6499 12242l-280 0 0 -24 4 -1c17,-1 27,-4 30,-9 3,-4 5,-18 5,-42l0 -236c0,-23 -2,-37 -5,-42 -3,-5 -13,-8 -30,-9l-4 -1 0 -24 154 0 0 24 -4 1c-17,1 -27,4 -30,9 -3,5 -5,19 -5,42l0 236c0,29 3,44 10,46 4,2 18,2 39,2l31 0c12,0 24,0 35,-2 6,0 10,-3 11,-6 2,-4 3,-21 3,-51l0 -5 36 0 0 92z"/>
   <path class="fil68" d="M6679 12124l-18 42c-9,20 -13,34 -13,42 0,6 5,9 15,9 2,0 5,0 9,0l5 1 0 24 -97 0 0 -24 4 -1c14,-1 22,-3 25,-6 3,-4 11,-19 22,-45l135 -315 25 0 137 315c12,26 20,41 23,44 3,4 12,6 26,7l3 1 0 24 -152 0 0 -24 5 -1c21,-1 31,-4 31,-10 1,-5 -4,-19 -14,-42l-18 -41 -153 0zm11 -26l131 0 -66 -150 -65 150z"/>
   <path class="fil68" d="M7339 12247l-202 -294 0 213c0,24 1,38 5,42 3,5 13,8 29,9l5 1 0 24 -114 0 0 -24 4 -1c17,-1 27,-4 30,-9 3,-4 5,-18 5,-42l0 -236c0,-23 -2,-37 -5,-42 -3,-5 -13,-8 -30,-9l-4 -1 0 -24 91 0 200 293 0 -217c0,-23 -1,-37 -5,-42 -3,-5 -13,-8 -30,-9l-4 -1 0 -24 114 0 0 24 -4 1c-17,1 -27,4 -30,9 -3,5 -5,19 -5,42l0 317 -50 0z"/>
   <path class="fil68" d="M7500 12241l0 -30 6 0c21,-2 34,-6 38,-12 4,-5 6,-23 6,-51l0 -291c0,-29 -2,-46 -6,-52 -4,-6 -17,-9 -38,-11l-6 0 0 -30 151 0 67 0 24 0c72,0 128,19 167,59 39,40 58,96 58,170 0,75 -20,135 -59,180 -40,45 -92,68 -159,68l-249 0zm147 -445l0 351c0,27 4,43 12,50 7,7 26,10 56,10 50,0 88,-18 113,-54 25,-36 37,-89 37,-161 0,-71 -14,-122 -42,-151 -27,-30 -74,-45 -141,-45l-35 0z"/>
   <path class="fil68" d="M4193 12779l-69 -240c-6,-20 -10,-31 -13,-34 -2,-3 -9,-5 -20,-6l-4 0 0 -18 118 0 0 18 -4 0c-16,0 -24,2 -24,7 0,6 2,17 6,33l39 136 62 -191 23 0 66 203 48 -147c1,-4 3,-10 5,-17 2,-8 3,-13 3,-16 0,-5 -7,-8 -22,-8l-4 0 0 -18 80 0 0 18 -4 0c-5,1 -8,1 -9,1 -7,0 -12,1 -13,3 -2,3 -6,15 -13,37l-78 239 -19 0 -67 -204 -66 204 -21 0z"/>
   <path id="1" class="fil68" d="M4774 12775l-227 0 0 -18 3 0c14,-1 22,-3 25,-7 2,-4 4,-14 4,-32l0 -180c0,-18 -2,-28 -4,-32 -3,-3 -11,-6 -25,-7l-3 0 0 -18 219 0 0 53 -30 0 0 -4c-1,-7 -1,-11 -1,-12 0,-8 -2,-12 -5,-15 -4,-2 -12,-3 -25,-3l-64 0 0 112 42 0c16,0 25,0 28,-1 2,-1 3,-7 3,-19l1 -3 21 0 0 63 -21 0 -1 -3c0,-11 -2,-17 -5,-18 -4,-1 -12,-2 -26,-2l-43 0 0 89c0,22 3,34 8,35 4,1 15,2 32,2l25 0c20,0 32,-1 34,-3 3,-2 4,-11 5,-28l1 -4 29 0 0 55z"/>
   <path id="2" class="fil68" d="M5081 12775l-230 0 0 -18 3 0c14,-1 22,-3 25,-7 3,-4 4,-14 4,-32l0 -180c0,-18 -1,-28 -4,-32 -3,-3 -11,-6 -25,-7l-3 0 0 -18 127 0 0 18 -4 0c-14,1 -22,4 -25,7 -2,4 -4,14 -4,32l0 180c0,22 3,34 8,35 4,1 15,2 33,2l25 0c10,0 20,-1 29,-2 5,0 8,-2 9,-5 1,-3 2,-16 2,-39l0 -4 30 0 0 70z"/>
   <path id="3" class="fil68" d="M5415 12764c-31,13 -64,19 -100,19 -50,0 -89,-14 -118,-41 -28,-27 -42,-65 -42,-114 0,-49 14,-87 41,-114 28,-27 67,-41 117,-41 30,0 62,5 96,13l0 61 -29 0 0 -4c0,-17 -3,-29 -9,-33 -14,-11 -33,-17 -58,-17 -29,0 -52,12 -68,35 -16,23 -24,56 -24,99 0,43 9,76 27,98 18,22 45,33 81,33 25,0 53,-7 86,-22l0 28z"/>
   <path id="4" class="fil68" d="M5657 12783c-47,0 -84,-14 -112,-42 -27,-27 -40,-65 -40,-113 0,-48 13,-86 40,-113 28,-28 65,-42 112,-42 46,0 83,14 111,42 27,27 40,65 40,113 0,48 -13,86 -40,113 -28,28 -65,42 -111,42zm-1 -20c29,0 51,-11 65,-34 14,-22 21,-56 21,-102 0,-45 -7,-78 -21,-100 -14,-23 -36,-34 -65,-34 -28,0 -49,11 -64,34 -14,22 -21,55 -21,100 0,46 7,80 21,102 15,23 36,34 64,34z"/>
   <path id="5" class="fil68" d="M5888 12481l100 0 82 190 85 -190 90 0 0 18 -4 0c-14,1 -22,4 -25,7 -2,4 -4,14 -4,32l0 180c0,18 2,28 4,32 3,4 11,6 25,7l4 0 0 18 -117 0 0 -18 3 0c12,-1 18,-3 21,-7 2,-3 3,-14 3,-32l0 -175 -93 199 -20 0 -92 -212 0 188c0,18 2,28 4,32 2,4 9,6 20,7l4 0 0 18 -90 0 0 -18 4 0c13,-1 22,-3 24,-7 3,-4 4,-14 4,-32l0 -180c0,-18 -1,-28 -4,-32 -2,-3 -11,-6 -24,-7l-4 0 0 -18z"/>
   <path id="6" class="fil68" d="M6545 12775l-228 0 0 -18 4 0c14,-1 22,-3 25,-7 2,-4 4,-14 4,-32l0 -180c0,-18 -2,-28 -4,-32 -3,-3 -11,-6 -25,-7l-4 0 0 -18 220 0 0 53 -30 0 -1 -4c0,-7 0,-11 0,-12 0,-8 -2,-12 -6,-15 -3,-2 -11,-3 -24,-3l-64 0 0 112 42 0c16,0 25,0 27,-1 3,-1 4,-7 4,-19l1 -3 21 0 0 63 -21 0 -1 -3c0,-11 -2,-17 -5,-18 -4,-1 -12,-2 -26,-2l-43 0 0 89c0,22 2,34 8,35 4,1 14,2 32,2l25 0c20,0 32,-1 34,-3 3,-2 4,-11 5,-28l1 -4 29 0 0 55z"/>
   <path id="7" class="fil68" d="M6633 12772l0 -62 30 0 0 5c1,18 4,29 10,33 13,10 27,15 44,15 16,0 29,-5 39,-14 9,-10 14,-23 14,-38 0,-13 -3,-23 -8,-30 -6,-8 -17,-16 -34,-25l-20 -11c-50,-27 -75,-56 -75,-88 0,-25 9,-46 28,-61 18,-15 42,-23 72,-23 23,0 50,5 80,13l0 60 -30 0 0 -4c-1,-18 -4,-30 -8,-34 -10,-10 -23,-15 -38,-15 -13,0 -24,4 -33,14 -9,9 -13,20 -13,33 0,10 3,19 9,26 6,7 17,15 33,24l20 12c30,16 50,31 61,44 11,13 16,29 16,48 0,27 -10,49 -31,65 -20,16 -47,24 -82,24 -24,0 -52,-4 -84,-11z"/>
   <path id="8" class="fil68" d="M7088 12648l-68 -108c-9,-13 -13,-21 -15,-23 -4,-9 -8,-13 -10,-15 -2,-1 -9,-2 -20,-3l-4 0 0 -18 129 0 0 18 -3 0c-15,0 -23,2 -24,7 0,4 6,15 18,34l51 82 52 -81c11,-19 17,-30 17,-34 0,-5 -6,-8 -19,-8l-5 0 0 -18 82 0 0 18 -4 0c-12,1 -18,2 -20,4 -1,1 -10,14 -25,37l-70 108 0 70c0,18 2,28 4,32 3,4 11,6 25,7l4 0 0 18 -127 0 0 -18 3 0c14,-1 22,-3 25,-7 2,-4 4,-14 4,-32l0 -70z"/>
   <path id="9" class="fil68" d="M7491 12783c-47,0 -84,-14 -111,-42 -27,-27 -40,-65 -40,-113 0,-48 13,-86 40,-113 27,-28 64,-42 111,-42 47,0 84,14 111,42 27,27 41,65 41,113 0,48 -14,86 -41,113 -27,28 -64,42 -111,42zm0 -20c29,0 51,-11 65,-34 14,-22 21,-56 21,-102 0,-45 -7,-78 -21,-100 -14,-23 -36,-34 -65,-34 -28,0 -50,11 -64,34 -14,22 -22,55 -22,100 0,46 8,80 22,102 14,23 36,34 64,34z"/>
   <path id="10" class="fil68" d="M7718 12481l127 0 0 18 -4 0c-14,1 -22,4 -25,7 -2,4 -3,14 -3,32l0 128c0,35 5,60 15,75 10,15 27,22 52,22 25,0 44,-8 56,-23 12,-16 18,-41 18,-76l0 -126c0,-18 -2,-28 -4,-32 -3,-3 -11,-6 -25,-7l-4 0 0 -18 94 0 0 18 -4 0c-13,1 -22,4 -24,7 -3,4 -4,14 -4,32l0 121c0,43 -9,74 -27,94 -18,20 -47,30 -85,30 -81,0 -121,-40 -121,-120l0 -123c0,-18 -1,-29 -4,-33 -3,-3 -11,-6 -24,-6l-4 -1 0 -19z"/>
   <path class="fil68" d="M4524 14195l-197 0 0 -16 4 0c11,-1 18,-3 21,-6 2,-3 3,-13 3,-28l0 -155c0,-15 -1,-24 -3,-28 -3,-3 -10,-5 -21,-6l-4 0 0 -16 189 0 0 46 -25 0 -1 -3c0,-6 0,-9 0,-10 0,-7 -2,-11 -5,-13 -3,-2 -10,-3 -21,-3l-55 0 0 97 36 0c14,0 22,-1 24,-1 2,-1 3,-6 3,-16l0 -3 19 0 0 55 -19 0 0 -4c0,-9 -2,-14 -5,-15 -3,-1 -10,-2 -22,-2l-37 0 0 77c0,19 2,29 7,30 3,1 12,2 28,2l21 0c18,0 27,-1 29,-3 3,-1 4,-9 5,-24l0 -3 26 0 0 48z"/>
   <path id="1" class="fil68" d="M4738 14198l-143 -193 0 140c0,15 1,25 3,28 3,3 10,5 22,6l3 0 0 16 -81 0 0 -16 3 0c12,-1 19,-3 21,-6 2,-3 4,-13 4,-28l0 -155c0,-15 -2,-24 -4,-28 -2,-3 -9,-5 -21,-6l-3 0 0 -16 64 0 142 192 0 -142c0,-15 -1,-24 -3,-28 -2,-3 -9,-5 -21,-6l-3 0 0 -16 81 0 0 16 -4 0c-11,1 -18,3 -21,6 -2,4 -3,13 -3,28l0 208 -36 0z"/>
   <path id="2" class="fil68" d="M4813 14240l0 -45 26 0 0 3c0,4 1,7 1,10 0,14 7,21 19,21 11,0 18,-4 22,-12 4,-8 6,-23 6,-44l0 -183c0,-15 -1,-24 -3,-28 -2,-3 -9,-5 -21,-6l-3 0 0 -16 109 0 0 16 -3 0c-12,1 -19,3 -21,6 -3,4 -4,13 -4,28l0 165c0,33 -6,56 -19,70 -13,14 -35,21 -66,21 -12,0 -27,-2 -43,-6z"/>
   <path id="3" class="fil68" d="M5121 14201c-40,0 -72,-12 -95,-36 -24,-24 -36,-56 -36,-97 0,-42 12,-74 36,-98 23,-24 55,-36 95,-36 41,0 73,12 96,36 23,24 35,56 35,98 0,41 -12,73 -35,97 -23,24 -55,36 -96,36zm0 -17c25,0 44,-10 56,-29 12,-20 18,-49 18,-88 0,-39 -6,-68 -18,-87 -12,-19 -31,-29 -56,-29 -24,0 -43,10 -55,29 -13,19 -19,48 -19,87 0,39 6,68 19,88 12,19 31,29 55,29z"/>
   <path id="4" class="fil68" d="M5366 14085l-59 -93c-7,-12 -11,-19 -12,-20 -4,-8 -7,-12 -9,-13 -2,-1 -8,-2 -18,-3l-3 0 0 -16 112 0 0 16 -3 0c-13,0 -20,2 -20,6 -1,4 4,14 14,30l44 71 46 -71c9,-16 14,-25 14,-29 0,-5 -5,-7 -16,-7l-4 0 0 -16 70 0 0 16 -3 0c-10,1 -16,2 -17,4 -2,1 -9,12 -22,32l-60 92 0 61c0,15 1,25 3,28 3,3 10,5 22,6l3 0 0 16 -110 0 0 -16 3 0c12,-1 19,-3 21,-6 3,-3 4,-13 4,-28l0 -60z"/>
   <path id="5" class="fil68" d="M5733 14085l-59 -93c-7,-12 -11,-19 -12,-20 -4,-8 -7,-12 -9,-13 -2,-1 -8,-2 -18,-3l-3 0 0 -16 112 0 0 16 -3 0c-13,0 -20,2 -20,6 -1,4 4,14 14,30l44 71 46 -71c10,-16 14,-25 14,-29 0,-5 -5,-7 -16,-7l-4 0 0 -16 70 0 0 16 -3 0c-10,1 -16,2 -17,4 -2,1 -9,12 -22,32l-60 92 0 61c0,15 1,25 3,28 3,3 10,5 22,6l3 0 0 16 -110 0 0 -16 3 0c12,-1 19,-3 22,-6 2,-3 3,-13 3,-28l0 -60z"/>
   <path id="6" class="fil68" d="M6033 14201c-40,0 -72,-12 -96,-36 -23,-24 -35,-56 -35,-97 0,-42 12,-74 35,-98 24,-24 56,-36 96,-36 41,0 73,12 96,36 23,24 35,56 35,98 0,41 -12,73 -35,97 -23,24 -55,36 -96,36zm0 -17c25,0 44,-10 56,-29 12,-20 18,-49 18,-88 0,-39 -6,-68 -18,-87 -12,-19 -31,-29 -56,-29 -24,0 -43,10 -55,29 -13,19 -19,48 -19,87 0,39 6,68 19,88 12,19 31,29 55,29z"/>
   <path id="7" class="fil68" d="M6181 13940l109 0 0 16 -3 0c-12,1 -19,3 -21,6 -2,4 -3,13 -3,28l0 110c0,31 4,52 13,65 9,13 23,19 44,19 23,0 39,-7 49,-20 10,-14 15,-35 15,-65l0 -109c0,-15 -1,-24 -3,-28 -2,-3 -9,-5 -21,-6l-4 0 0 -16 81 0 0 16 -3 0c-12,1 -19,3 -21,6 -2,4 -3,13 -3,28l0 105c0,36 -8,63 -24,80 -15,17 -40,26 -73,26 -70,0 -104,-34 -104,-103l0 -107c0,-15 -1,-24 -4,-27 -2,-4 -9,-6 -21,-6l-3 -1 0 -17z"/>
   <path id="8" class="fil68" d="M6531 14083l0 62c0,15 1,25 3,28 2,3 8,5 18,6l3 0 0 16 -103 0 0 -16 3 0c12,-1 19,-3 21,-6 2,-3 4,-13 4,-28l0 -155c0,-15 -2,-24 -4,-28 -2,-3 -9,-5 -21,-6l-3 0 0 -16 75 0 32 0 16 -1c53,0 79,22 79,65 0,17 -4,32 -12,44 -8,12 -21,22 -37,28l50 69c13,17 20,27 24,29 3,3 10,4 19,5l4 0 0 16 -77 0 -72 -112 -22 0zm0 -17l10 0c18,0 32,-5 43,-16 11,-10 16,-25 16,-43 0,-33 -16,-50 -49,-50l-20 0 0 109z"/>
   <path id="9" class="fil68" d="M6940 14198l-92 -208c-8,-19 -13,-29 -14,-30 -2,-2 -8,-3 -18,-4l-4 0 0 -16 112 0 0 16 -3 0c-5,1 -9,1 -14,1 -4,0 -6,2 -6,7 0,3 2,12 8,26l58 134 56 -134c1,-3 3,-8 5,-15 3,-6 4,-10 4,-12 0,-4 -4,-6 -11,-6l-10 -1 -3 0 0 -16 73 0 0 16 -3 0c-3,1 -6,1 -8,1 -5,0 -9,2 -11,4 -3,3 -7,13 -14,29l-88 208 -17 0z"/>
   <path id="10" class="fil68" d="M7198 14195l-109 0 0 -16 3 0c12,-1 19,-3 21,-6 2,-3 3,-13 3,-28l0 -155c0,-15 -1,-24 -3,-28 -2,-3 -9,-5 -21,-6l-3 0 0 -16 109 0 0 16 -3 0c-12,1 -19,3 -21,6 -3,4 -4,13 -4,28l0 155c0,15 1,25 4,28 2,3 9,5 21,6l3 0 0 16z"/>
   <path id="11" class="fil68" d="M7223 14192l0 -54 26 0 0 5c1,15 4,24 9,28 11,9 23,13 38,13 13,0 24,-4 33,-12 9,-9 13,-20 13,-33 0,-11 -3,-19 -8,-26 -5,-6 -14,-13 -28,-21l-18 -10c-43,-23 -64,-49 -64,-76 0,-22 8,-39 23,-52 16,-13 36,-20 62,-20 20,0 44,4 70,11l0 52 -26 0 0 -3c-1,-16 -4,-26 -7,-30 -9,-9 -20,-13 -33,-13 -11,0 -20,4 -28,12 -8,8 -12,17 -12,29 0,8 3,16 8,22 5,6 15,13 29,21l17 10c26,14 43,27 52,38 10,12 14,25 14,42 0,23 -9,41 -26,55 -18,14 -41,21 -71,21 -21,0 -45,-3 -73,-9z"/>
   <path id="12" class="fil68" d="M7521 14195l-109 0 0 -16 3 0c12,-1 19,-3 21,-6 2,-3 4,-13 4,-28l0 -155c0,-15 -2,-24 -4,-28 -2,-3 -9,-5 -21,-6l-3 0 0 -16 109 0 0 16 -3 0c-12,1 -19,3 -21,6 -2,4 -4,13 -4,28l0 155c0,15 2,25 4,28 2,3 9,5 21,6l3 0 0 16z"/>
   <path id="13" class="fil68" d="M7630 13957l-42 0c-11,0 -18,2 -21,5 -3,3 -5,12 -5,27l0 5 -26 0 0 -54 241 0 0 54 -26 0 0 -5c0,-15 -2,-24 -5,-27 -3,-3 -10,-5 -21,-5l-41 0 0 188c0,17 2,27 4,29 1,2 10,4 25,5l3 0 0 16 -118 0 0 -16 3 0c14,-1 22,-3 25,-6 2,-3 4,-12 4,-28l0 -188z"/>
   <path id="14" class="fil68" d="M7805 14195l0 -43 52 0 0 43 -52 0zm18 -72l-18 -132 0 -51 52 0 0 51 -18 132 -16 0z"/>
   <path class="fil69" d="M6736 13352c10,1 65,-1 32,-15 -11,-5 -121,-99 -128,-112 -11,-19 -28,-29 -43,-64 -27,-60 -36,-106 17,-156 43,-40 129,-41 177,-6 34,25 49,40 64,83 -12,-29 -100,-86 -137,-60 -17,12 -61,43 -30,64 29,18 22,87 13,116 -26,86 119,153 195,135 19,-5 74,-2 97,-13 17,-8 36,-5 70,-26 33,-21 83,-40 113,-70 7,-7 92,-69 106,-79 42,-28 98,-80 133,-118 6,-6 49,-31 27,3 -16,25 -23,41 -42,67 -10,14 -46,78 -42,76 93,-42 100,-126 137,-143 15,-7 -42,98 -71,118 -17,11 -22,29 -60,46 -79,36 -82,78 -128,111 -5,4 181,-49 247,-77 11,-5 91,-44 91,-16 0,55 -90,46 -102,55 -28,17 -230,71 -266,70 -59,-2 -33,90 -162,130 -43,13 -120,87 -143,131 -22,41 6,-54 6,-85 0,-21 21,-90 20,-89 -46,32 -118,5 -195,47 -15,9 -121,37 -121,42 0,141 -123,52 -123,252 -75,0 -32,-242 -9,-247 2,-6 -51,-10 -72,15 -99,114 -155,41 -260,125 -43,35 -34,5 -56,66 -4,8 3,-61 44,-109 10,-12 49,-76 60,-76 -87,0 -262,-44 -348,-44 -19,0 -64,-9 -80,-9 -38,36 -188,45 -225,75 -2,2 -53,30 -54,29 -59,62 -183,53 -250,84 -54,24 -104,37 -139,89 0,0 25,-100 101,-140 49,-27 8,-71 181,-86 99,-8 134,-2 236,-36 8,-2 154,-28 126,-32 -30,-4 -64,-60 -174,-30 -54,14 -76,0 -163,31 -115,42 -22,-9 18,-32 26,-15 144,-38 141,-40 -113,-75 -204,-63 -322,-15 -58,24 -121,31 -184,31 0,74 -171,64 -225,39 -57,-27 -261,30 -260,30 76,-69 311,-124 413,-118 101,5 221,34 300,-45 57,-57 35,-124 -47,-128 -35,-2 -19,27 -86,47 -111,34 -104,-28 -170,-28 -61,0 -187,-18 -231,-66 20,7 76,47 123,27 118,-48 316,-44 437,-14 20,6 160,148 209,181 137,94 205,103 373,139 8,0 130,25 158,25 35,0 78,9 118,9 63,-1 39,7 103,-24 10,-5 89,-31 100,-31 59,3 93,-35 145,-53 -52,8 -255,-13 -320,-23 -21,-3 -59,-5 -72,-21 -6,-7 -56,-90 -46,-85 54,32 107,52 168,67 62,14 116,22 180,25 13,0 49,2 48,2 -132,-54 -151,-92 -224,-210 -7,-10 17,0 26,20 9,23 91,88 117,98 6,2 102,44 94,33 -32,-45 -10,-131 -10,-130 36,68 29,66 92,108 24,16 35,17 59,43 11,11 140,14 143,12 -12,2 -25,3 -38,5z"/>
   <rect class="fil67" x="4008" y="14010" width="149" height="149"/>
   <rect class="fil67" x="8030" y="13986" width="145" height="145"/>
   <path class="fil64" d="M6301 13055c1,0 261,31 186,-29 -34,-26 -177,26 -77,-19 152,-69 126,-163 -25,-46 -58,46 -63,45 -8,-2 62,-52 34,-81 -19,-41 -16,12 -60,29 -74,51 15,-7 70,-122 -29,-46 -19,15 6,64 -19,4 -11,-27 -66,-49 -44,0 38,82 -10,-22 -87,-7 -51,11 101,99 22,53 -148,-86 -109,22 -37,31 1,0 -133,-73 -121,-17 7,34 196,57 89,53 -45,-2 -153,4 -43,35 0,0 -62,63 -68,82 0,-43 36,-85 -6,-98 -32,-9 5,157 -33,75 -23,-53 -80,-30 -44,-4 0,1 -66,-12 -79,-11 -22,1 173,-65 9,-56 -54,3 -14,25 35,-45 21,-30 12,-56 -37,-15 -1,0 -87,53 -54,28 75,-60 65,-209 0,-58 -42,98 25,-77 -19,-52 -35,20 -72,147 -53,70 12,-52 -30,-72 -50,9 -22,87 1,40 -24,-1 -32,-51 -40,26 -8,84 -9,-2 -121,-68 -101,-18 14,34 108,50 0,50 -61,0 -8,-24 -33,-38 -21,-13 -88,143 -53,23 11,-39 -9,-124 -31,-15 -22,106 -13,-93 -50,-13 -13,28 2,55 -21,117 -1,0 -2,-110 -26,-86 -7,7 -7,115 -11,108 -1,-3 -50,-65 -50,-20 0,38 55,73 -5,58 -112,-28 -69,38 7,38 -12,5 -62,7 -80,29 -10,10 -69,48 15,40 48,-5 133,-55 -23,26 -143,73 49,54 89,-14 11,-18 -66,94 -67,105 -9,64 46,34 75,-35 4,-9 38,-82 38,-70 0,25 -5,78 -9,103 57,55 35,-194 76,-87 24,7 -7,143 44,82 16,-20 -8,-88 14,-94 34,-9 112,-59 120,-14 22,124 61,73 42,-19 -3,-16 36,-38 35,13 -3,99 258,65 140,28 -25,-8 -179,-71 -48,-41 27,6 96,7 114,-15 13,1 -70,66 45,23 11,-3 33,-14 40,-15 -32,10 -158,104 -52,90 20,-3 117,-96 103,-47 -8,28 -45,79 50,24 81,-48 87,-76 35,-10 -103,133 57,59 94,-74 3,-11 25,21 -18,114 -33,73 103,-3 70,-110 -4,-14 -41,-39 -6,-53 2,0 44,46 60,45 58,-4 36,-9 4,-52 -28,-35 -61,-13 51,-76 42,-23 -7,-26 79,6 80,29 30,-27 -25,-52 -1,0 -24,-42 34,-10 55,31 122,-43 -48,-72z"/>
   <ellipse class="fil70" transform="matrix(0.484135 -0.251744 0.251744 0.484135 5300.81 13274.9)" rx="113" ry="82"/>
   <ellipse class="fil70" transform="matrix(0.484135 -0.251744 0.251744 0.484135 5631.2 13121.4)" rx="113" ry="82"/>
   <ellipse class="fil70" transform="matrix(0.484135 -0.251744 0.251744 0.484135 5917.89 13223.7)" rx="113" ry="82"/>
   <ellipse class="fil70" transform="matrix(0.484135 -0.251744 0.251744 0.484135 6232.28 13040.4)" rx="113" ry="82"/>
   <path class="fil70" d="M6150 13205c6,12 10,31 2,42 -14,19 -25,36 -52,38 -10,1 -26,3 -34,-4 -4,-2 -15,-6 -18,-15 0,0 40,13 69,-8 26,-19 11,-14 20,-32 3,0 -34,3 -50,3 -25,0 -22,1 -13,-9 22,-25 72,-24 76,-15z"/>
   <rect class="fil67" x="4055" y="12820" width="4045.54" height="34.1057"/>
   <rect class="fil67" x="4055" y="13856" width="4045.54" height="34.1057"/>
   <rect class="fil67" x="4059" y="14244" width="4045.54" height="34.1057"/>
   <path class="fil68" d="M4582 15010l85 0 71 165 72 -165 77 0 0 16 -3 0c-12,1 -19,3 -21,6 -2,4 -3,13 -3,28l0 155c0,15 1,25 3,28 2,3 9,5 21,6l3 0 0 16 -100 0 0 -16 3 0c10,-1 16,-3 17,-6 2,-3 3,-12 3,-28l0 -151 -79 172 -18 0 -78 -183 0 162c0,15 1,25 3,28 2,3 8,5 18,6l3 0 0 16 -77 0 0 -16 3 0c12,-1 19,-3 21,-6 2,-3 3,-13 3,-28l0 -155c0,-15 -1,-24 -3,-28 -2,-3 -9,-5 -21,-6l-3 0 0 -16z"/>
   <path id="1" class="fil68" d="M5035 15243c-9,9 -18,15 -28,19 -9,5 -19,7 -29,7 -17,0 -31,-5 -42,-16 -11,-10 -16,-23 -16,-39 0,-18 7,-33 21,-44 8,-6 18,-11 30,-14 11,-2 27,-3 49,-3l8 0 0 -23c0,-16 -2,-28 -6,-33 -4,-6 -12,-9 -23,-9 -13,0 -24,3 -30,11 -3,2 -4,10 -5,23l0 3 -28 0 0 -38c22,-10 45,-15 69,-15 24,0 42,5 55,15 13,10 20,24 20,42l0 83c0,14 1,24 3,30 2,5 6,8 12,8 1,0 3,-1 6,-1l2 16c-9,3 -18,4 -26,4 -10,0 -18,-2 -25,-7 -7,-4 -12,-10 -17,-19zm-7 -13l0 -62 -7 0c-17,0 -29,3 -38,10 -9,7 -13,17 -13,31 0,10 3,18 8,24 6,6 13,9 22,9 5,0 10,-1 15,-3 5,-2 9,-5 13,-9z"/>
   <path id="2" class="fil68" d="M5211 15130l0 85c0,15 2,25 4,28 3,3 11,5 25,6l4 0 0 16 -112 0 0 -16 4 0c11,-1 18,-3 21,-6 2,-3 3,-13 3,-28l0 -89c0,-15 -1,-25 -3,-28 -3,-3 -10,-5 -21,-6l-4 0 0 -16 79 0 0 36c16,-27 36,-40 61,-40 2,0 6,0 10,1l0 60 -24 0 0 -3c-1,-12 -1,-19 -2,-21 -1,-2 -4,-3 -9,-3 -15,0 -27,8 -36,24z"/>
   <path id="3" class="fil68" d="M5438 15263c-11,4 -22,6 -32,6 -21,0 -37,-5 -48,-16 -11,-10 -16,-26 -16,-47l0 -113 -24 0 0 -17 24 0 0 -31 51 -9 0 40 42 0 0 17 -42 0 0 114c0,17 2,28 5,33 4,6 10,9 21,9 6,0 12,-2 19,-4l0 18z"/>
   <path id="4" class="fil68" d="M5548 15076l0 139c0,15 1,25 4,28 2,3 9,5 21,6l3 0 0 16 -107 0 0 -16 4 0c11,-1 18,-3 20,-6 3,-3 4,-13 4,-28l0 -89c0,-15 -1,-25 -4,-28 -2,-3 -9,-5 -20,-6l-4 0 0 -16 79 0zm-51 -31l0 -51 51 0 0 51 -51 0z"/>
   <path id="5" class="fil68" d="M5681 15112c8,-13 17,-23 28,-30 11,-7 23,-10 37,-10 17,0 31,5 41,16 9,10 14,25 14,43l0 84c0,15 1,25 3,28 3,3 10,5 21,6l4 0 0 16 -107 0 0 -16 3 0c12,-1 19,-3 21,-6 2,-3 4,-13 4,-28l0 -78c0,-13 -2,-22 -5,-27 -3,-5 -9,-7 -19,-7 -7,0 -15,2 -22,7 -8,5 -15,12 -23,21l0 84c0,15 1,25 4,28 2,3 9,5 21,6l3 0 0 16 -107 0 0 -16 3 0c12,-1 19,-3 21,-6 3,-3 4,-13 4,-28l0 -89c0,-15 -1,-25 -4,-28 -2,-3 -9,-5 -21,-6l-3 0 0 -16 79 0 0 36z"/>
   <path id="6" class="fil68" d="M6083 15271c-41,0 -72,-12 -96,-36 -23,-24 -34,-56 -34,-97 0,-42 11,-74 34,-98 24,-24 55,-36 96,-36 40,0 71,12 95,36 23,24 34,56 34,98 0,41 -11,73 -34,97 -24,24 -55,36 -95,36zm0 -17c24,0 43,-10 55,-29 12,-20 18,-49 18,-88 0,-39 -6,-68 -18,-87 -12,-19 -31,-29 -55,-29 -25,0 -43,10 -56,29 -12,19 -18,48 -18,87 0,39 6,68 18,88 13,19 31,29 56,29z"/>
   <path id="7" class="fil68" d="M6263 15100l0 -16c14,-2 21,-12 21,-30l0 -5 -21 0 0 -55 55 0 0 42c0,39 -18,61 -55,64z"/>
   <path id="8" class="fil68" d="M6363 15010l85 0 71 165 72 -165 77 0 0 16 -3 0c-12,1 -19,3 -21,6 -2,4 -3,13 -3,28l0 155c0,15 1,25 3,28 2,3 9,5 21,6l3 0 0 16 -100 0 0 -16 3 0c10,-1 16,-3 17,-6 2,-3 3,-12 3,-28l0 -151 -79 172 -18 0 -78 -183 0 162c0,15 1,25 3,28 2,3 8,5 17,6l4 0 0 16 -77 0 0 -16 3 0c12,-1 19,-3 21,-6 2,-3 3,-13 3,-28l0 -155c0,-15 -1,-24 -3,-28 -2,-3 -9,-5 -21,-6l-3 0 0 -16z"/>
   <path id="9" class="fil68" d="M6816 15243c-9,9 -18,15 -28,19 -9,5 -19,7 -29,7 -17,0 -31,-5 -42,-16 -11,-10 -16,-23 -16,-39 0,-18 7,-33 21,-44 8,-6 18,-11 30,-14 11,-2 27,-3 48,-3l9 0 0 -23c0,-16 -2,-28 -6,-33 -4,-6 -12,-9 -23,-9 -13,0 -24,3 -30,11 -3,2 -4,10 -5,23l0 3 -28 0 0 -38c22,-10 45,-15 69,-15 24,0 42,5 55,15 13,10 19,24 19,42l0 83c0,14 2,24 4,30 2,5 6,8 12,8 1,0 3,-1 6,-1l2 16c-9,3 -18,4 -26,4 -10,0 -18,-2 -25,-7 -7,-4 -12,-10 -17,-19zm-7 -13l0 -62 -7 0c-17,0 -30,3 -38,10 -9,7 -13,17 -13,31 0,10 3,18 8,24 6,6 13,9 22,9 5,0 10,-1 15,-3 4,-2 9,-5 13,-9z"/>
   <path id="10" class="fil68" d="M6992 14994l0 221c0,15 1,25 4,28 2,3 9,5 21,6l3 0 0 16 -107 0 0 -16 4 0c11,-1 18,-3 20,-6 3,-3 4,-13 4,-28l0 -171c0,-16 -1,-25 -4,-28 -2,-4 -9,-6 -20,-6l-4 -1 0 -15 79 0z"/>
   <path id="11" class="fil68" d="M7125 14994l0 221c0,15 1,25 4,28 2,3 9,5 21,6l3 0 0 16 -107 0 0 -16 3 0c12,-1 19,-3 21,-6 3,-3 4,-13 4,-28l0 -171c0,-16 -1,-25 -4,-28 -2,-4 -9,-6 -21,-6l-3 -1 0 -15 79 0z"/>
   <path id="12" class="fil68" d="M7356 15257c-23,8 -45,12 -66,12 -33,0 -58,-9 -77,-27 -19,-18 -28,-43 -28,-74 0,-28 8,-52 25,-69 17,-18 39,-27 67,-27 52,0 79,32 79,96l0 4 -119 0c0,24 6,42 17,54 11,12 28,18 50,18 16,0 33,-4 52,-13l0 26zm-118 -101l68 0 0 -6c0,-22 -3,-39 -7,-48 -5,-9 -13,-14 -24,-14 -13,0 -22,6 -28,17 -6,11 -9,29 -9,51z"/>
   <path id="13" class="fil68" d="M7426 15333l65 -70 -64 -138c-8,-16 -13,-25 -16,-28 -2,-3 -8,-4 -17,-5l-3 0 0 -16 107 0 0 16 -3 0c-14,0 -21,2 -21,6 0,3 4,12 11,28l36 78 41 -78c9,-16 13,-25 13,-29 0,-3 -6,-5 -18,-5l-3 0 0 -16 68 0 0 16 -3 0c-10,1 -16,2 -19,5 -3,2 -8,12 -17,29l-111 207 -46 0z"/>
   <path class="fil68" d="M5619 15517c-24,5 -45,8 -60,8 -29,0 -51,-9 -68,-25 -16,-17 -25,-40 -25,-68 0,-30 9,-53 25,-69 16,-16 40,-24 70,-24 19,0 38,3 58,8l0 35 -17 0 0 -2c0,-10 -2,-16 -4,-19 -8,-7 -21,-10 -37,-10 -19,0 -32,6 -42,20 -9,13 -13,34 -13,61 0,27 4,47 14,61 10,13 25,20 44,20 6,0 12,-1 18,-3l0 -33c0,-11 -1,-17 -2,-19 -2,-3 -7,-4 -15,-5l-2 0 0 -11 76 0 0 11 -3 0c-8,1 -13,2 -14,4 -2,3 -3,9 -3,20l0 40z"/>
   <path id="1" class="fil68" d="M5731 15523c-21,0 -38,-6 -50,-18 -12,-12 -19,-29 -19,-50 0,-22 7,-38 19,-51 12,-12 29,-18 50,-18 21,0 38,6 50,18 13,13 19,29 19,51 0,21 -6,38 -19,50 -12,12 -29,18 -50,18zm0 -12c10,0 17,-5 22,-14 5,-10 7,-24 7,-42 0,-19 -2,-33 -7,-42 -5,-10 -12,-14 -22,-14 -10,0 -17,4 -22,14 -5,9 -7,23 -7,42 0,18 2,32 7,42 5,9 12,14 22,14z"/>
   <path id="2" class="fil68" d="M5894 15522l-47 -98c-6,-11 -10,-17 -12,-20 -3,-2 -7,-3 -13,-4l-2 0 0 -11 74 0 0 11 -2 0c-9,1 -13,2 -14,5 0,2 3,8 8,19l26 54 28 -54c5,-10 8,-17 8,-20 0,-2 -5,-3 -13,-4l-2 0 0 -11 48 0 0 11 -2 0c-6,1 -11,2 -13,4 -2,2 -6,8 -12,20l-49 98 -11 0z"/>
   <path id="3" class="fil68" d="M6121 15515c-16,6 -31,8 -46,8 -23,0 -41,-6 -54,-19 -13,-12 -20,-29 -20,-51 0,-20 6,-36 18,-48 12,-13 27,-19 46,-19 37,0 56,23 56,67l0 3 -83 0c0,16 4,29 12,37 7,8 19,13 35,13 10,0 22,-3 36,-9l0 18zm-82 -70l47 0 0 -4c0,-16 -2,-27 -5,-34 -4,-7 -9,-10 -17,-10 -8,0 -15,4 -19,12 -4,8 -6,20 -6,36z"/>
   <path id="4" class="fil68" d="M6203 15427l0 59c0,10 1,17 3,19 2,2 8,4 18,4l2 0 0 11 -78 0 0 -11 3 0c8,0 13,-2 14,-4 2,-2 3,-9 3,-19l0 -62c0,-11 -1,-17 -3,-20 -1,-2 -6,-3 -14,-4l-3 0 0 -11 55 0 0 25c11,-19 25,-28 43,-28 1,0 4,0 6,1l0 42 -16 0 0 -2c-1,-9 -1,-14 -2,-15 0,-1 -2,-2 -6,-2 -10,0 -18,6 -25,17z"/>
   <path id="5" class="fil68" d="M6330 15414c5,-9 12,-16 19,-21 8,-5 16,-7 26,-7 12,0 21,4 28,11 7,7 10,17 10,30l0 59c0,10 1,17 3,19 1,2 6,4 14,4l3 0 0 11 -75 0 0 -11 2 0c8,0 13,-2 15,-4 2,-2 2,-9 2,-19l0 -54c0,-10 -1,-16 -3,-19 -2,-4 -6,-5 -13,-5 -5,0 -10,1 -16,5 -5,3 -10,8 -15,14l0 59c0,10 1,17 2,19 2,2 7,4 15,4l2 0 0 11 -74 0 0 -11 2 0c8,0 13,-2 15,-4 1,-2 2,-9 2,-19l0 -62c0,-11 -1,-17 -2,-20 -2,-2 -7,-3 -15,-4l-2 0 0 -11 55 0 0 25z"/>
   <path id="6" class="fil68" d="M6521 15523c-21,0 -38,-6 -50,-18 -13,-12 -19,-29 -19,-50 0,-22 6,-38 19,-51 12,-12 29,-18 50,-18 21,0 38,6 50,18 13,13 19,29 19,51 0,21 -6,38 -19,50 -12,12 -29,18 -50,18zm0 -12c10,0 17,-5 22,-14 5,-10 7,-24 7,-42 0,-19 -2,-33 -7,-42 -5,-10 -12,-14 -22,-14 -10,0 -17,4 -22,14 -5,9 -7,23 -7,42 0,18 2,32 7,42 5,9 12,14 22,14z"/>
   <path id="7" class="fil68" d="M6668 15427l0 59c0,10 1,17 3,19 1,2 7,4 17,4l2 0 0 11 -77 0 0 -11 2 0c8,0 13,-2 15,-4 1,-2 2,-9 2,-19l0 -62c0,-11 -1,-17 -2,-20 -2,-2 -7,-3 -15,-4l-2 0 0 -11 55 0 0 25c11,-19 25,-28 42,-28 2,0 4,0 7,1l0 42 -16 0 0 -2c-1,-9 -2,-14 -2,-15 -1,-1 -3,-2 -6,-2 -10,0 -19,6 -25,17z"/>
   <path class="fil71" d="M6173 9864c-50,-2 -93,3 -135,10l1 105 2 184c1,-33 5,-30 12,-26 8,5 19,11 31,14 12,2 26,1 33,0 6,-1 6,-1 7,1 0,2 1,7 5,13 5,7 13,16 23,20 11,5 23,6 34,1 11,-4 19,-14 23,-23 5,-9 4,-17 4,-22 0,-4 0,-4 14,-4 14,-1 41,-2 68,0 26,3 51,10 73,22 23,13 43,32 53,41 10,10 10,10 10,23l0 51c0,13 0,13 -5,12 -5,-1 -15,-2 -25,2 -10,5 -21,15 -25,27 -5,12 -3,26 3,36 5,11 15,17 24,21 9,3 18,3 22,3 4,0 4,0 5,6l1 24c0,2 0,4 0,4 15,6 31,12 46,17 -5,-3 -8,-10 -9,-49 -2,-41 -2,-117 -1,-155 1,-39 4,-40 36,-40 31,-1 91,0 152,-4 62,-4 125,-12 161,-18 37,-6 47,-10 52,-11 4,-1 4,1 3,9 -1,7 -4,21 -11,29 -7,9 -19,13 -24,15 -6,2 -6,2 -7,9 0,6 -1,18 -10,26 -8,8 -24,13 -38,13 -13,-1 -24,-6 -32,-14 -8,-7 -12,-17 -14,-21 -2,-5 -2,-5 -11,-4 -10,1 -28,4 -62,5 -33,1 -82,1 -111,0 -30,-1 -40,-2 -45,-2 -5,-1 -5,-1 -6,11l0 47c-1,11 -1,11 2,11 2,0 6,0 15,1 8,1 22,4 32,12 10,8 17,23 16,38 -1,15 -10,31 -19,38 -9,8 -19,7 -24,7 -4,-1 -4,-1 -6,7 -2,8 -6,23 -13,32 -7,8 -16,10 -22,9 6,2 12,4 18,5l86 13c9,1 18,1 28,1 40,0 83,-5 122,-13 4,-1 8,-2 11,-3l132 -44 -1 -259 -3 -2c-9,-5 -16,-9 -25,-12 -8,-3 -17,-5 -23,-4 -7,0 -12,2 -14,4 -3,1 -3,1 -7,-5 -4,-6 -11,-18 -21,-23 -10,-6 -23,-6 -33,0 -11,5 -19,16 -23,27 -4,11 -3,22 -3,27 0,6 0,6 -37,7l-152 3c-38,1 -38,1 -38,-10l-1 -43c-1,-11 -1,-11 5,-11 5,1 16,2 26,-4 11,-5 22,-16 26,-27 5,-10 3,-21 -2,-31 -5,-10 -13,-19 -19,-23 -6,-5 -10,-6 -12,-11 -2,-5 -3,-15 -9,-23 -5,-8 -14,-14 -20,-20 -2,-2 -4,-4 -5,-7 -13,-1 -26,-3 -40,-8 -31,-10 -71,-30 -119,-43 -49,-14 -105,-22 -155,-24zm0 147c9,3 15,9 19,18 3,8 5,19 6,24 1,5 2,5 22,6 20,1 60,3 91,9 31,5 52,15 70,27 19,13 34,27 42,35 7,7 7,7 7,-4l0 -45c0,-12 0,-12 -7,-13 -8,-1 -23,-3 -30,-15 -7,-11 -7,-32 -1,-44 6,-11 17,-13 23,-14 6,0 6,0 7,-9 1,-8 3,-24 9,-33 7,-9 18,-10 24,-10 5,0 5,0 6,39 0,40 1,118 1,158 0,39 -1,39 -9,37 -8,-3 -23,-7 -35,-15 -12,-9 -21,-20 -30,-31 -9,-10 -18,-18 -41,-23 -22,-5 -59,-7 -94,-8 -35,-1 -70,0 -103,3 -33,3 -66,8 -82,11 -16,3 -16,3 -15,-3 2,-7 5,-20 12,-29 7,-8 19,-12 28,-14 9,-2 15,-2 18,-2 3,0 3,0 3,-6 0,-6 0,-18 4,-27 4,-10 12,-17 22,-21 10,-4 23,-4 33,-1z"/>
   <path class="fil71" d="M5896 10736c-1,-7 -1,-7 -11,-13 -11,-5 -32,-16 -65,-26 -33,-11 -77,-20 -99,-25 -22,-5 -22,-5 -24,12 -2,16 -6,49 0,66 6,16 21,16 32,20 12,4 19,11 23,23 3,12 2,29 -6,41 -8,12 -23,20 -31,23 -7,4 -7,4 -8,10 0,5 -2,17 -10,25 -8,8 -23,12 -31,15 -7,2 -7,2 -7,-10l3 -82c1,-47 4,-118 8,-155 5,-36 12,-38 21,-37 8,0 19,4 48,13 28,9 73,25 112,37 39,11 71,19 102,22 30,3 58,0 72,-1 14,-1 14,-1 14,2 -1,3 -1,10 -5,18 -3,7 -9,16 -17,21 -9,6 -19,8 -25,9 -5,1 -5,1 -6,5 0,5 -1,14 -7,24 -6,9 -18,18 -33,17 -15,0 -32,-10 -40,-22 -9,-12 -10,-26 -10,-32zm151 -60l0 0c0,0 0,0 0,0zm-119 -74c-13,3 -26,12 -32,22 -7,10 -7,21 -6,27 0,5 0,5 -12,0 -12,-5 -36,-15 -67,-26 -31,-10 -70,-21 -89,-26 -20,-6 -20,-6 -20,-20l-2 -59c-1,-15 -1,-15 7,-15 8,0 25,1 36,-4 11,-4 18,-13 20,-23 2,-11 0,-23 -5,-32 -4,-9 -11,-15 -18,-18 -6,-3 -11,-5 -14,-5 -2,-1 -2,-1 -1,-6 1,-5 4,-14 3,-24 -2,-10 -8,-20 -18,-28 -6,-6 -15,-11 -23,-15 -5,-1 -11,-2 -17,-3 2,2 2,9 1,46l-5 183c-1,46 -1,46 -18,46l-89 1c-39,1 -83,1 -129,5 -45,3 -91,11 -118,16 -27,5 -34,7 -38,7 -5,-1 -6,-6 -4,-13 1,-7 6,-15 13,-21 8,-6 17,-10 21,-11 5,-2 5,-2 6,-10 1,-9 3,-26 12,-38 9,-12 25,-19 38,-19 13,1 22,10 27,19 5,9 6,19 6,24 0,5 0,5 40,5l160 2c40,0 40,0 41,-13l3 -54c1,-14 1,-14 -9,-15 -10,-1 -29,-2 -41,-11 -12,-8 -16,-22 -14,-35 2,-13 10,-25 18,-31 9,-7 18,-10 22,-11 5,-1 5,-1 5,-9 -1,-8 -1,-24 3,-36 4,-12 13,-21 23,-25 5,-2 11,-3 16,-3 -19,-2 -40,-3 -63,-2 -27,0 -58,2 -88,6l-44 5c-42,6 -83,14 -117,21 -37,8 -66,17 -90,25l-1 265c10,1 18,5 26,8 16,7 30,11 37,13 7,2 7,2 8,6 0,3 1,9 5,16 5,7 13,15 27,16 13,1 32,-4 41,-15 10,-11 11,-28 11,-36 0,-8 0,-8 37,-8l145 -2c37,0 39,0 38,14 0,15 -2,44 -3,59 -1,14 -1,14 -5,14 -4,-1 -12,-3 -23,1 -10,3 -24,12 -31,23 -7,11 -8,25 -3,35 5,10 16,17 25,21 9,4 17,5 21,5 4,0 4,0 3,5 -1,5 -3,14 -1,24 2,10 8,20 16,29 7,8 14,14 18,16 4,3 4,3 10,14 25,2 48,5 69,8 43,7 74,17 120,28 46,11 108,25 161,28 15,1 29,1 42,0l-4 -312 0 0 -2 -4c-4,-9 -8,-15 -16,-19 -7,-4 -18,-6 -27,-5 -9,0 -17,2 -20,3 -4,1 -4,1 -3,-2 0,-2 1,-8 -2,-15 -2,-8 -7,-18 -16,-25 -9,-7 -21,-10 -33,-7z"/>
  </g>
  <g id="_2073888251936">
   <path class="fil72" d="M48132 13962c-33,-398 -160,-763 -382,-1095 -128,-145 -256,-291 -384,-436 -128,-112 -264,-207 -409,-286 -234,-146 -494,-250 -769,-303 -408,-78 -807,-49 -1198,86 -378,135 -700,352 -967,652 -406,462 -612,1081 -565,1694 33,403 162,772 387,1108 227,334 521,592 882,773 164,99 937,312 612,211 11,4 22,6 34,6 206,23 411,35 618,36 6,0 13,-1 19,-1 205,-25 407,-84 608,-128 374,-133 692,-347 955,-644 402,-456 605,-1067 559,-1673z"/>
   <path class="fil73" d="M45373 16372c42,5 84,9 126,13 -685,-484 -1140,-1282 -1140,-2170 0,-1056 644,-1985 1556,-2409 -314,-23 -622,17 -925,122 -378,135 -700,352 -967,652 -406,462 -612,1081 -565,1694 33,403 162,772 387,1108 227,334 521,592 882,773 164,99 937,312 612,211 11,4 22,6 34,6z"/>
   <polygon class="fil72" points="45807,17616 45807,14756 "/>
   <polygon class="fil74" points="45452,17616 45738,14756 45853,14756 46139,17616 "/>
   <polygon class="fil72" points="45841,15755 46290,15306 "/>
   <polygon class="fil74" points="45740,15654 46273,15289 46307,15322 45942,15856 "/>
   <polygon class="fil72" points="45841,16384 45391,15935 "/>
   <polygon class="fil74" points="45740,16485 45374,15951 45408,15918 45942,16283 "/>
  </g>
  <path class="fil72" d="M43800 14943c-81,-105 -207,-111 -287,-103 -79,-8 -206,-2 -287,103 -218,282 -1281,2216 287,2201 1569,15 506,-1919 287,-2201z"/>
  <path class="fil73" d="M43171 16864c-152,-351 -210,-721 -153,-1092 28,-180 52,-365 129,-536 60,-134 129,-269 226,-388 -52,14 -105,41 -147,95 -211,273 -1212,2090 140,2196 -90,-75 -148,-168 -195,-275z"/>
  <polygon class="fil72" points="43550,17616 43550,15601 "/>
  <polygon class="fil74" points="43371,17616 43521,15601 43581,15601 43732,17616 "/>
  <polygon class="fil72" points="43575,16638 43811,16401 "/>
  <polygon class="fil74" points="43522,16585 43802,16393 43820,16410 43628,16691 "/>
  <polygon class="fil72" points="43575,16969 43339,16732 "/>
  <polygon class="fil74" points="43522,17022 43330,16741 43347,16723 43628,16915 "/>
  <polygon class="fil72" points="43575,16292 43339,16056 "/>
  <polygon class="fil74" points="43522,16345 43330,16065 43347,16047 43628,16239 "/>
 </g>
</svg>
