<?xml version="1.0" encoding="UTF-8"?>
<!DOCTYPE svg PUBLIC "-//W3C//DTD SVG 1.1//EN" "http://www.w3.org/Graphics/SVG/1.1/DTD/svg11.dtd">
<!-- Creator: CorelDRAW X8 -->
<svg xmlns="http://www.w3.org/2000/svg" xml:space="preserve" width="4879px" height="1956px" version="1.1" style="shape-rendering:geometricPrecision; text-rendering:geometricPrecision; image-rendering:optimizeQuality; fill-rule:evenodd; clip-rule:evenodd"
viewBox="0 0 48792 19559"
 xmlns:xlink="http://www.w3.org/1999/xlink">
 <defs>
  <style type="text/css">
   <![CDATA[
    .str0 {stroke:#373435;stroke-width:41.6561}
    .str2 {stroke:#313131;stroke-width:41.6561}
    .str1 {stroke:#424242;stroke-width:20.8339}
    .str3 {stroke:black;stroke-width:8.9997}
    .str4 {stroke:#B5EEFF;stroke-width:8.9997}
    .str5 {stroke:#E6E6E6;stroke-width:8.9997}
    .fil17 {fill:none}
    .fil13 {fill:#373435}
    .fil20 {fill:#EFB783}
    .fil72 {fill:#0176AE}
    .fil69 {fill:#0176B6}
    .fil61 {fill:#0178B6}
    .fil65 {fill:#018295}
    .fil68 {fill:#028393}
    .fil71 {fill:#0374B4}
    .fil67 {fill:#0579B6}
    .fil35 {fill:#0B3859}
    .fil47 {fill:#121710}
    .fil23 {fill:#1369B6}
    .fil54 {fill:#1B1B1C}
    .fil31 {fill:#1C1C1C}
    .fil27 {fill:#20547B}
    .fil70 {fill:#251E1E}
    .fil7 {fill:#313131}
    .fil30 {fill:#33322E}
    .fil36 {fill:#333333}
    .fil26 {fill:#362D24}
    .fil28 {fill:#3689BB}
    .fil22 {fill:#3890D0}
    .fil10 {fill:#424242}
    .fil6 {fill:#464646}
    .fil14 {fill:#4A4A4A}
    .fil40 {fill:#4D4D4D}
    .fil39 {fill:#525252}
    .fil15 {fill:#5C707B}
    .fil16 {fill:#71848B}
    .fil8 {fill:#757575}
    .fil55 {fill:#767B7F}
    .fil32 {fill:#797977}
    .fil49 {fill:#7A838A}
    .fil41 {fill:gray}
    .fil56 {fill:#99A3AC}
    .fil50 {fill:#9CADB7}
    .fil57 {fill:#AAB5C5}
    .fil53 {fill:#ADBACA}
    .fil38 {fill:#B5EEFF}
    .fil24 {fill:#B96F48}
    .fil60 {fill:#BABABA}
    .fil52 {fill:#BACADA}
    .fil64 {fill:#BD715D}
    .fil46 {fill:#C1C2C9}
    .fil18 {fill:#C1CFCF}
    .fil33 {fill:#C77066}
    .fil4 {fill:#C8382F}
    .fil11 {fill:#CACACA}
    .fil37 {fill:#CCCCCC}
    .fil45 {fill:#CDCED3}
    .fil2 {fill:#CFB175}
    .fil51 {fill:#D2D7DD}
    .fil66 {fill:#D9ABA2}
    .fil5 {fill:#DF7E77}
    .fil3 {fill:#DFE9EB}
    .fil34 {fill:#E09474}
    .fil44 {fill:#E0E7ED}
    .fil1 {fill:#E6E6E6}
    .fil42 {fill:#E6EEF1}
    .fil21 {fill:#EC9956}
    .fil29 {fill:#ECB31E}
    .fil25 {fill:#EDD89F}
    .fil12 {fill:#EFEFEF}
    .fil43 {fill:#F1FAFF}
    .fil0 {fill:#F2F2F2}
    .fil48 {fill:#F2FBFF}
    .fil63 {fill:#FAFAFA}
    .fil62 {fill:#FDFDFD}
    .fil9 {fill:white}
    .fil58 {fill:white}
    .fil19 {fill:#464646;fill-rule:nonzero}
    .fil75 {fill:#6E5036;fill-rule:nonzero}
    .fil74 {fill:#759A67;fill-rule:nonzero}
    .fil77 {fill:#A0703F;fill-rule:nonzero}
    .fil76 {fill:#AAB33A;fill-rule:nonzero}
    .fil73 {fill:#CCCCCC;fill-rule:nonzero}
    .fil59 {fill:#BABABA}
   ]]>
  </style>
   <mask id="id0">
  <linearGradient id="id1" gradientUnits="userSpaceOnUse" x1="25617.3" y1="16060.5" x2="30445.5" y2="16060.5">
   <stop offset="0" style="stop-opacity:0; stop-color:white"/>
   <stop offset="1" style="stop-opacity:1; stop-color:white"/>
  </linearGradient>
    <rect style="fill:url(#id1)" x="25607" y="14748" width="4849" height="2625"/>
   </mask>
 </defs>
 <g id="Слой_x0020_1">
  <metadata id="CorelCorpID_0Corel-Layer"/>
  <rect class="fil0" x="2" width="48790" height="19559"/>
  <path class="fil1" d="M6924 13485c-18,-261 93,-408 344,-403 256,4 328,164 303,430 -252,4 -471,51 -647,-27zm41866 1413l2 0 0 4661 -48761 0 0 -3605 0 -1056 0 -1057 1313 -1 37 -952c346,-17 234,3 419,-184 217,-218 182,-51 185,-458l340 -5c18,-189 -67,-716 291,-764 71,-109 109,-71 185,-164 98,-122 -67,-60 155,-177 271,123 -24,73 240,233 542,327 317,322 401,893 142,-38 210,-35 359,-10l1 344c186,59 139,73 244,207 152,193 145,39 279,157l20 563 353 -11c13,-372 5,-745 17,-1115 11,-333 -68,-751 112,-992 1219,-54 81,-150 1159,-120l67 1052c109,12 147,-24 243,-41 175,-31 127,17 284,-58 873,-417 745,92 1675,105l35 -1062c81,-10 285,-29 364,-18 225,31 41,75 333,86 246,9 550,-19 780,7 -1,235 -12,1205 27,1432l59 190 243 0c2,-391 -88,-1812 129,-2009 185,-170 287,-197 549,-206l121 -1014 44 1010c384,-10 345,-1 643,135 170,79 102,27 165,213l19 54c35,100 -1,-43 30,83 19,73 18,136 19,214l5 1203c-1,143 -39,273 58,329 98,-137 55,-2388 55,-2729 1,-941 -18,-1925 25,-2861l288 0 -3 404 1360 -7 150 -371 283 -2 93 5263 667 2c9,-94 -2,-172 12,-253 37,-224 39,22 51,-218 18,-373 94,-118 84,-464l69 140c211,510 5,797 204,793 126,-3 86,-145 84,-477l190 -25 10 -204 458 5c54,-373 20,-1128 27,-1539 10,-529 34,-958 -37,-1463 9,-7 23,-25 28,-17 3,6 84,-14 128,-213 66,-301 191,-70 100,-986 -17,-173 34,-472 102,-620 149,-321 75,-369 235,-538 32,139 120,382 173,538 63,182 62,67 88,294 64,544 -109,1275 168,1510l45 32c-67,969 -77,2020 -54,3000l344 -4 0 -2256 8 -262 617 -39c520,2 1099,-98 1477,133l8 1162 411 -4c-2,-447 -50,-579 65,-890 88,-235 251,-1217 238,-1440 -12,-210 -17,9 -28,-159 -9,-119 -42,-36 29,-126 70,25 73,-29 63,121 -9,120 -61,21 -11,483 37,336 10,560 123,819 75,174 22,141 67,304 23,87 19,-30 40,138 23,177 -2,557 -2,759 192,-3 427,27 602,-26 83,-25 -30,-37 165,-49 -1,-777 111,210 118,-867l286 -9 4 -345 131 0c-127,-56 -127,3 -130,-184l439 -5c-22,186 -17,129 -137,190 247,-8 60,-4 136,44l0 281 315 16 2 490 197 67 4 271 191 75c0,178 -8,190 142,406 5,7 12,15 16,21 318,432 -68,1169 164,1439 49,-61 17,86 48,-123 41,-284 60,-5072 110,-5785l619 -4 4 -319 878 7 -4 315 621 8c73,332 22,2380 19,3022 -2,306 -51,346 121,510l480 420c21,19 77,67 78,68 74,61 18,33 122,89l-6 -4087c30,-19 20,-8 71,-29l82 -34c7,-3 20,-7 29,-12 -7,-7 -19,-26 -22,-19 -3,6 -17,-15 -21,-18 -116,-141 26,-71 -75,-382 371,-12 228,0 285,-79 4,-6 9,-17 14,-23 5,-7 10,-17 15,-23 70,-91 -61,-10 58,-63l479 2c27,-350 -14,-1089 6,-1310l40 -156c186,10 147,-5 144,229 -2,139 -4,277 -4,416 0,262 -14,564 6,820l291 -4 0 -557c28,-236 -33,-102 88,-150 86,41 81,-108 68,417 -5,195 24,301 50,476l337 0c-124,478 136,144 -112,424l76 34c88,35 16,-12 107,41l-14 4276 340 -7c6,-270 -9,-559 4,-821 11,-244 144,-392 214,-657 44,-167 89,-150 139,-272l237 -1040 654 11 178 848c32,175 29,108 96,230 242,623 347,556 346,1370 -1,585 -2,1169 0,1753 268,-20 251,-55 445,-95 156,-32 252,50 403,93 -13,-417 -75,-1390 97,-1724l325 -18 89 -191 947 9 39 96c4,8 9,20 12,27 3,8 9,22 12,28 2,7 7,20 12,29l138 19 184 14c-5,453 4,901 4,1348 0,284 -43,1037 87,1230 663,-30 476,83 860,89 -48,-269 -390,-483 -408,-754l16 -1194c25,-156 277,-347 397,-420 61,-1001 -26,-2396 15,-3380 6,-142 -20,-94 39,-170 102,-62 1108,-48 1307,-27l13 3538c100,119 340,293 371,423l23 1155c-4,373 -326,517 -388,838 303,9 711,41 875,-193 106,-149 37,-183 200,-328 248,-219 6,-186 216,-330 70,142 -4,133 86,253 88,118 126,55 194,180 0,1 137,482 300,317 94,-166 26,-1280 30,-1576l478 -5 17 -548c28,-236 -5,-56 71,-206l107 -148c35,-36 15,-3 55,-53l56 -98c101,-221 -149,-187 658,-190l28 66c12,27 28,69 39,89l283 652c4,715 87,174 89,1015 1,250 -6,500 4,750 264,-1 781,-82 970,-4l-2 -984 488 0 10 -400c72,-57 107,-43 192,-75 19,-191 -17,-314 45,-477 218,-22 53,23 260,50 102,13 254,1 362,2l25 -460c156,-36 677,22 899,-9 172,-24 106,-24 282,-9l78 1315c-8,288 -37,1142 74,1346 75,-137 39,-754 36,-976l812 13 2 699 207 -1c29,-268 12,-582 16,-855 5,-406 7,-407 106,-742 154,70 -32,56 134,128 116,-95 46,-45 113,-175 66,-128 281,-583 374,-632 139,50 165,181 309,437 320,568 118,250 346,440 247,206 125,1023 147,1396l530 3c276,-449 -45,-1577 218,-2194 3,-8 10,-21 13,-27 2,-6 7,-19 13,-27 241,352 117,744 198,887 79,-29 1,-2 59,-61 81,-83 -70,-7 80,-77 6,8 14,12 17,25l96 120c178,-202 38,-551 225,-884 267,510 93,1715 122,2386l1603 17 0 1743zm-36384 -2230l1401 0 -51 133c-3,9 -6,18 -10,27l-48 117c-2,-6 -8,21 -15,29l-1289 3 12 -309z"/>
  <rect class="fil2" y="17607" width="48790" height="102"/>
  <g id="_2073886273584">
   <path class="fil3" d="M22407 15887c49,2 131,5 187,3 57,-2 88,-7 106,-15 18,-7 23,-17 15,-33 -9,-16 -29,-40 -58,-70 -29,-31 -67,-68 -105,-100 -38,-32 -77,-57 -116,-81 -40,-25 -79,-48 -116,-69 -37,-20 -72,-38 -106,-53 -35,-15 -69,-27 -94,-35 -24,-8 -39,-11 -57,-13 -18,-1 -40,-1 -68,-1 -28,0 -61,1 -85,5 -24,3 -39,10 -50,18 -11,8 -18,18 -19,35 0,17 5,41 23,71 18,30 48,65 83,100 34,34 73,68 117,102 44,34 93,69 138,91 45,22 86,31 114,37 28,5 43,6 91,8z"/>
   <rect class="fil4" x="16149" y="13496" width="526" height="561" rx="62" ry="59"/>
   <polygon class="fil5" points="16220,13496 16603,13496 16603,13784 16220,13784 "/>
   <path class="fil6" d="M11426 15219c-16,-13 -21,-40 -24,-70 -2,-29 -2,-60 3,-88 5,-28 15,-53 28,-73 13,-19 29,-33 48,-43 19,-10 41,-15 190,-17 149,-2 425,-1 569,-1 144,-1 156,-4 256,-43 100,-39 289,-114 521,-205 233,-92 509,-198 781,-294 272,-96 540,-180 775,-242 234,-61 434,-98 625,-128 190,-29 369,-50 543,-62 95,-7 187,-11 283,-13 -1,-2 -1,-4 -1,-6l0 0c0,-36 30,-66 67,-66l617 0c36,0 66,30 66,66l0 0c0,8 -1,16 -4,23 30,2 60,5 90,8 194,20 375,52 551,94 176,42 346,92 519,159 173,67 349,151 528,250 178,100 359,216 522,322 162,106 307,202 379,251 73,48 73,48 73,48 0,0 0,0 0,0 0,0 0,0 347,38 348,39 1043,115 1481,173 437,57 617,95 707,114 89,18 89,18 89,18 0,0 0,0 -30,0 -31,0 -92,0 -124,10 -33,10 -37,30 -19,71 19,41 59,103 109,157 50,54 110,100 165,134 54,33 104,56 196,66 93,10 228,9 296,8 68,0 68,0 68,0 0,0 0,0 0,0 0,0 0,0 10,19 10,20 31,59 39,120 8,61 3,145 0,186 -3,42 -3,42 -3,42 0,0 0,0 7,0 6,0 19,0 26,0 7,0 7,0 7,0 0,0 0,0 0,49 0,49 0,146 0,195 0,49 0,49 0,49 0,0 0,0 0,0 0,0 0,0 -6,-1 -6,-2 -18,-4 -24,-6 -6,-1 -6,-1 -6,-1 0,0 0,0 0,0 0,0 0,0 0,35 0,35 0,106 -4,161 -3,55 -11,96 -24,131 -13,35 -32,65 -54,89 -22,24 -48,42 -82,58 -34,16 -75,29 -187,42 -111,13 -292,26 -382,32 -91,7 -91,7 -91,7 0,0 0,0 -13,-7 -14,-6 -42,-19 -55,-26 -14,-6 -14,-6 -14,-6 0,0 0,0 -10,0 -11,1 -32,2 -42,3 -10,1 -10,1 -284,10 -275,9 -823,27 -1097,36 -274,9 -274,9 -274,9 0,0 0,0 -2,7 -3,8 -8,22 -11,29 -2,7 -2,7 -2,7 0,0 0,0 -935,-10 -934,-11 -2802,-31 -3774,-44 -971,-12 -1045,-16 -1082,-18 -37,-2 -37,-2 -280,-6 -242,-5 -726,-14 -1059,-27 -332,-13 -513,-30 -747,-56 -233,-25 -518,-59 -685,-82 -167,-24 -217,-37 -257,-54 -39,-18 -69,-40 -89,-63 -19,-23 -28,-46 -28,-180 0,-134 9,-379 18,-514 9,-134 18,-159 56,-205 39,-45 107,-112 209,-203 102,-91 239,-207 314,-281 74,-73 87,-104 87,-130 -1,-25 -15,-45 -47,-59 -32,-14 -81,-23 -141,-20 -60,3 -131,19 -179,27 -49,9 -77,10 -93,-3z"/>
   <path class="fil7" d="M22281 15858c21,5 44,9 71,12l13 1 0 1 -688 214 0 -39 604 -189z"/>
   <path class="fil7" d="M11325 15835c10,-10 21,-21 33,-33l1180 198 356 180 -20 35 -367 -184 -1182 -196z"/>
   <path class="fil8" d="M21879 15454c-11,12 -9,30 3,59 19,41 59,103 109,157 26,29 56,55 85,78l8 8c0,0 0,0 -93,-2 -93,-2 -278,-7 -370,-9 -93,-2 -93,-2 -93,-2 0,0 0,0 -27,-13 -26,-13 -79,-39 -133,-56 -55,-18 -111,-28 -179,-35 -69,-7 -150,-12 -223,-6 -72,5 -137,20 -186,33 -49,13 -83,25 -99,31 -17,5 -17,5 -17,5 0,0 0,0 -171,-4 -172,-4 -515,-12 -686,-16 -172,-4 -172,-4 -172,-4 0,0 0,0 0,0 0,0 0,0 -11,-35 -12,-35 -35,-106 -61,-171 -27,-66 -57,-127 -94,-183 -36,-56 -79,-106 -100,-131 -22,-26 -22,-26 -22,-26 0,0 0,0 66,4 66,4 198,11 345,20 147,9 310,19 480,35 170,15 347,36 517,58 170,22 335,45 488,70 153,24 295,51 412,78 94,21 172,43 224,57z"/>
   <path class="fil4" d="M11515 15153c56,-7 139,-12 201,-13 62,0 102,3 137,14 36,10 66,27 88,48 22,21 36,46 43,60 7,14 7,18 2,28 -6,10 -18,25 -54,57 -37,32 -98,80 -164,134 -66,53 -136,112 -194,159 -59,46 -106,82 -141,108 -35,27 -59,45 -70,54 -12,9 -12,9 -12,9 0,0 0,0 6,-97 6,-98 17,-293 26,-399 8,-106 13,-123 30,-136 17,-12 46,-20 102,-26z"/>
   <path class="fil9" d="M11980 15253c1,3 3,6 4,9 7,14 7,18 2,28 -5,8 -15,21 -41,45l-564 0 2 -20c2,-26 4,-46 5,-62l592 0zm-337 330c-24,20 -48,39 -69,57 -12,8 -22,17 -33,25l-181 0 5 -82 278 0z"/>
   <circle class="fil10" cx="13642" cy="16725" r="891"/>
   <circle class="fil11 str0" cx="13642" cy="16725" r="625"/>
   <path class="fil12" d="M16726 15119c14,59 40,165 64,296 24,132 46,290 59,469 12,180 15,382 13,513 -1,27 -1,52 -2,74l-1701 0 3 24 1697 -3c-2,37 -4,66 -7,92l-1690 0 0 67 1681 0c-10,61 -22,124 -29,156 -6,32 -6,32 -6,32 0,0 0,0 0,0 0,0 0,0 -297,0 -297,0 -891,0 -1188,0 -297,0 -297,0 -297,0 0,0 0,0 0,0 0,0 0,0 -28,-70 -28,-70 -83,-209 -188,-408 -105,-199 -259,-459 -402,-681 -143,-223 -276,-409 -351,-514 -75,-105 -92,-128 -86,-140 5,-12 32,-12 487,-5 455,6 1338,19 1785,23 446,3 457,-4 462,0 6,3 8,16 21,75zm77 63c16,75 44,200 65,338 20,138 35,289 42,408 7,119 7,206 5,313 -1,72 -3,153 -8,230l2663 0c2,-20 3,-40 4,-61 8,-176 6,-385 -3,-542 -8,-157 -22,-261 -53,-352 -31,-91 -78,-170 -126,-232 -49,-63 -100,-109 -125,-133 -26,-23 -26,-23 -26,-23 0,0 0,0 0,0 0,0 0,0 0,0 0,0 0,0 -411,-12 -410,-12 -1232,-35 -1643,-47 -411,-12 -411,-12 -411,-12 0,0 0,0 3,13 3,12 8,37 24,112zm103 1310c-2,29 -4,58 -7,85l0 7 2662 0c3,-30 6,-63 8,-97l-2663 5zm-15 159c-9,67 -19,118 -25,148 -8,40 -8,40 -8,40 0,0 0,0 0,0 0,0 0,0 445,4 445,5 1334,14 1779,18 444,5 444,5 444,5 0,0 0,0 0,0 0,0 0,0 10,-70 5,-34 12,-84 19,-145l-2664 0z"/>
   <rect class="fil11" x="14343" y="15207" width="586" height="131"/>
   <rect class="fil13" x="14423" y="15251" width="425.773" height="42.9671"/>
   <rect class="fil11" x="16976" y="15254" width="586" height="131"/>
   <rect class="fil13" x="17057" y="15298" width="425.773" height="42.9671"/>
   <polygon class="fil14" points="13501,17239 13796,17239 13654,16852 "/>
   <polygon class="fil14" points="13156,16891 13315,17140 13564,16810 "/>
   <polygon class="fil14" points="14137,16891 13978,17140 13729,16811 "/>
   <polygon class="fil14" points="14091,16427 14193,16704 13780,16703 "/>
   <polygon class="fil14" points="13198,16425 13096,16702 13509,16701 "/>
   <polygon class="fil14" points="13984,16303 13714,16185 13690,16597 "/>
   <polygon class="fil14" points="13291,16303 13561,16185 13585,16597 "/>
   <path class="fil15" d="M14099 14975c159,8 450,8 595,8 145,0 145,0 145,0 0,0 0,0 0,0 0,0 0,0 -21,-128 -22,-128 -65,-385 -86,-513 -22,-128 -22,-128 -22,-128 0,0 0,0 0,0 0,0 0,0 -75,21 -75,20 -224,62 -337,98 -113,36 -188,66 -251,99 -62,33 -112,69 -148,109 -37,40 -60,83 -71,128 -11,46 -10,94 2,139 12,45 34,87 59,115 24,29 52,45 210,52z"/>
   <path class="fil16" d="M14565 14983c49,0 93,0 129,0 145,0 145,0 145,0 0,0 0,0 0,0 0,0 0,0 -21,-128 -22,-128 -65,-385 -86,-513 -22,-128 -22,-128 -22,-128 0,0 0,0 0,0 0,0 0,0 -75,21 -75,20 -224,62 -337,98 -70,22 -126,42 -173,62l440 588z"/>
   <path class="fil15" d="M14826 14381c23,131 65,367 87,484 21,118 22,118 23,118 1,0 1,0 1,0 0,0 0,0 255,3 255,4 765,10 1021,14 255,3 255,3 255,3 0,0 0,0 0,0 0,0 0,0 -14,-164 -15,-163 -43,-490 -58,-653 -14,-164 -14,-164 -14,-164 0,0 0,0 0,0 0,0 0,0 -81,4 -82,3 -245,9 -416,20 -172,11 -353,27 -517,48 -164,21 -312,47 -405,65 -93,18 -132,29 -151,34 -20,5 -20,5 -20,5 0,0 0,0 3,13 2,13 8,39 31,170z"/>
   <path class="fil16" d="M14826 14381c23,131 65,367 87,484 21,118 22,118 23,118 1,0 1,0 1,0 0,0 0,0 255,3l321 5 -640 -813c-32,7 -50,12 -61,15 -20,5 -20,5 -20,5 0,0 0,0 3,13 2,13 8,39 31,170z"/>
   <path class="fil15" d="M16727 14370c61,156 155,394 202,514 47,119 47,119 47,119 0,0 0,0 0,0 0,0 0,0 0,0 0,0 0,0 290,4 290,4 871,11 1161,15 291,4 291,4 291,4 0,0 0,0 0,0 0,0 0,0 0,-36 0,-37 0,-110 -1,-148 -1,-38 -2,-42 -2,-44 -1,-2 -1,-2 -1,-2 0,0 0,0 -33,-30 -34,-29 -100,-87 -202,-154 -102,-66 -240,-140 -399,-211 -158,-71 -336,-139 -487,-184 -150,-45 -272,-67 -395,-87 -123,-19 -247,-36 -345,-46 -99,-11 -172,-15 -208,-17 -37,-2 -37,-2 -22,35 14,38 43,112 104,268z"/>
   <path class="fil16" d="M18718 14942c0,-35 0,-75 -1,-100 -1,-38 -2,-42 -2,-44 -1,-2 -1,-2 -1,-2 0,0 0,0 -33,-30 -34,-29 -100,-87 -202,-154 -62,-40 -137,-83 -221,-126l460 456z"/>
   <path class="fil16" d="M16727 14370l35 90 536 547 1023 14 -796 -824c-120,-32 -224,-50 -327,-67 -123,-19 -247,-36 -345,-46 -99,-11 -172,-15 -208,-17 -37,-2 -37,-2 -22,35 14,38 43,112 104,268z"/>
   <path class="fil8" d="M13493 15005l-2064 -10c-11,18 -20,41 -24,66 -5,25 -5,52 -4,78 57,-9 124,-19 180,-26 89,-10 150,-11 201,-6 51,5 91,17 122,30 30,14 51,30 69,48 17,18 31,39 41,60 9,21 13,42 12,57 -1,16 -6,26 -8,31l-3 6 92 21c93,22 278,65 424,87 147,23 255,26 531,30 276,5 720,11 942,15l222 3 -52 -82 -209 -325 -52 -81 -420 -2z"/>
   <path class="fil13" d="M13642 15757c-535,0 -969,433 -969,968 0,106 17,207 48,302 27,2 55,4 84,5 -35,-95 -54,-199 -54,-307 0,-492 399,-890 891,-890 491,0 890,398 890,890 0,126 -26,245 -73,354 23,0 50,1 84,1 43,-110 67,-229 67,-355 0,-535 -433,-968 -968,-968z"/>
   <circle class="fil10" cx="21040" cy="16733" r="891"/>
   <circle class="fil11 str0" cx="21040" cy="16733" r="625"/>
   <polygon class="fil14" points="20899,17246 21194,17247 21052,16859 "/>
   <polygon class="fil14" points="20554,16899 20713,17148 20962,16818 "/>
   <polygon class="fil14" points="21536,16899 21376,17148 21127,16818 "/>
   <polygon class="fil14" points="21489,16435 21591,16712 21178,16711 "/>
   <polygon class="fil14" points="20596,16433 20494,16710 20907,16709 "/>
   <polygon class="fil14" points="21383,16311 21112,16193 21088,16605 "/>
   <polygon class="fil14" points="20689,16311 20960,16193 20984,16605 "/>
   <path class="fil13" d="M21040 15764c-535,0 -969,434 -969,969 0,76 9,149 25,219 3,15 6,30 9,42 6,21 11,37 17,52 5,14 11,27 16,37 5,9 10,16 14,22l1 -1 75 -2c-5,-15 -14,-40 -24,-68 -11,-32 -23,-69 -32,-106 -5,-22 -10,-43 -13,-61 -6,-44 -10,-88 -10,-134 0,-492 399,-890 891,-890 492,0 890,398 890,890 0,126 -26,245 -73,353 23,1 51,2 84,2 44,-110 67,-230 67,-355 0,-535 -433,-969 -968,-969z"/>
   <circle class="fil17 str1" cx="13643" cy="16708" r="80"/>
   <circle class="fil17 str1" cx="21049" cy="16724" r="80"/>
   <path class="fil18" d="M21967 15514c-6,15 16,51 41,85 24,33 52,64 85,94 34,30 74,59 111,81 37,22 71,36 109,46 38,10 79,15 99,17 21,3 21,3 21,3 0,0 0,0 -66,-54 -65,-54 -196,-162 -278,-220 -83,-58 -116,-66 -122,-52z"/>
   <ellipse class="fil3" cx="22559" cy="16687" rx="88" ry="138"/>
   <path class="fil7" d="M16706 14796c-39,-163 -113,-477 -155,-635 -16,-58 -27,-95 -35,-119 -4,0 -8,-1 -12,-2 -4,-1 -8,-3 -12,-5 4,24 12,63 25,127 34,164 106,492 142,656 36,164 36,164 36,164 0,0 0,0 9,1 9,0 27,2 36,2 9,1 9,1 9,1 0,0 0,0 -1,-7 -1,-6 -4,-19 -42,-183z"/>
   <path class="fil17 str2" d="M16637 14981c-791,-11 -1660,-15 -2121,-19 -461,-5 -514,-10 -553,-20 -38,-10 -61,-24 -80,-41 -19,-17 -33,-36 -45,-63 -11,-27 -18,-61 -17,-98 1,-37 12,-77 30,-116 18,-38 44,-74 79,-107 34,-33 77,-61 134,-89 58,-27 129,-53 240,-88 111,-35 260,-80 415,-119 155,-39 315,-72 470,-97 154,-25 302,-41 478,-55 176,-14 379,-27 537,-31 158,-4 272,1 412,14 140,12 306,31 466,57 159,26 312,59 449,96 137,37 260,79 392,132 132,52 274,116 401,186 127,70 239,145 307,196 67,51 91,77 119,110 28,33 60,73 81,108 21,34 30,63 33,77 2,15 -2,15 -361,6 -359,-10 -1074,-28 -1866,-39z"/>
   <path class="fil19" d="M15331 15594c42,0 82,10 121,28 37,19 68,46 90,81 22,35 33,77 33,128 0,50 -11,93 -33,128 -22,36 -53,63 -90,81 -39,19 -79,28 -121,28l-161 0 0 283 -160 0 0 -757 321 0zm-31 331c35,0 62,-8 81,-25 18,-15 27,-39 27,-69 0,-31 -9,-55 -27,-70 -19,-17 -46,-25 -81,-25l-130 0 0 189 130 0z"/>
   <path id="1" class="fil19" d="M16306 15976c0,-40 -8,-78 -24,-115 -18,-37 -43,-67 -77,-90 -34,-23 -77,-36 -127,-37 -51,0 -92,12 -125,35 -35,24 -60,54 -76,91 -17,35 -26,74 -26,116 0,42 9,81 26,117 16,36 41,66 76,90 33,23 74,35 125,35 50,-1 93,-14 127,-37 34,-23 59,-53 77,-90 16,-37 24,-75 24,-115zm-227 -396c109,0 203,39 280,116 77,78 116,171 116,281 0,108 -39,201 -116,279 -77,77 -171,116 -280,116 -109,0 -202,-39 -280,-116 -77,-78 -116,-171 -116,-279 0,-110 39,-203 116,-281 78,-77 171,-116 280,-116z"/>
   <polygon id="2" class="fil19" points="17033,16352 16584,16352 16584,15594 16744,15594 16744,16210 17033,16210 "/>
   <polygon id="3" class="fil19" points="17354,15594 17354,16352 17194,16352 17194,15594 "/>
   <path id="4" class="fil19" d="M17653 16016c3,34 12,64 27,92 19,36 46,64 79,83 33,20 71,29 113,29 45,0 84,-10 118,-31 34,-21 58,-49 74,-84l125 78c-22,59 -62,106 -119,139 -58,33 -123,50 -197,50 -72,0 -137,-16 -196,-48 -60,-31 -107,-76 -141,-135 -35,-59 -52,-129 -52,-211 0,-83 17,-153 52,-212 34,-59 81,-104 141,-135 59,-32 124,-47 196,-47 74,0 139,16 197,49 57,34 97,80 119,140l-125 77c-16,-34 -40,-62 -74,-84 -34,-21 -73,-31 -118,-31 -42,0 -80,10 -113,29 -33,19 -60,47 -79,84 -15,27 -24,57 -27,91 -2,21 -2,47 0,77z"/>
   <polygon id="5" class="fil19" points="18785,16352 18310,16352 18310,15594 18774,15594 18774,15736 18470,15736 18470,15898 18742,15898 18742,16038 18470,16038 18470,16211 18785,16211 "/>
  </g>
  <g id="_2073886284720">
   <path class="fil20" d="M23216 13605l179 0c1,-7 3,-13 4,-20 4,-14 7,-28 11,-39 7,-23 15,-39 28,-54 12,-15 30,-29 45,-43 16,-14 29,-28 39,-43 10,-16 17,-32 15,-45 -3,-14 -14,-24 -24,-29 -10,-5 -18,-5 -22,-5 -4,0 -4,0 -5,-55 0,-55 -2,-164 -6,-225 -3,-61 -8,-74 -15,-83 -7,-9 -17,-14 -27,-15 -11,-1 -23,1 -34,7 -10,5 -20,15 -25,43 -5,27 -6,72 -6,94 -1,23 -1,23 -14,26 -14,3 -41,10 -61,16 -19,7 -30,13 -53,18 -23,4 -58,7 -81,10 -23,3 -33,6 -39,38 -5,33 -5,94 -1,142 3,49 9,85 19,113 10,28 24,49 36,68 12,19 23,36 30,54 0,2 1,4 2,6 2,7 4,14 5,21z"/>
   <path class="fil21" d="M23216 13605l46 0c-4,-13 -8,-28 -13,-40 -4,-12 -10,-22 -16,-32 -6,-10 -14,-20 -22,-33 -9,-13 -18,-29 -27,-50 -8,-21 -16,-48 -21,-78 -5,-30 -7,-64 -8,-92 -1,-28 -1,-50 2,-65 3,-15 9,-23 19,-28 9,-5 23,-8 34,-7 12,1 21,5 30,7 9,2 18,1 27,-3 9,-5 18,-12 27,-17 9,-6 18,-9 29,-9 11,1 24,6 34,5 10,-1 17,-7 21,-14 5,-8 7,-18 8,-36 2,-19 3,-46 5,-69 2,-23 5,-42 10,-55 4,-13 10,-21 17,-26 8,-5 17,-7 28,-6 5,0 10,1 15,2 -7,-6 -15,-9 -23,-10 -11,-1 -23,1 -34,7 -10,5 -20,15 -25,43 -5,27 -6,72 -6,94 -1,23 -1,23 -14,26 -14,3 -41,10 -61,16 -19,7 -30,13 -53,18 -23,4 -58,7 -81,10 -23,3 -33,6 -39,38 -5,33 -5,94 -1,142 3,49 9,85 19,113 10,28 24,49 36,68 12,19 23,36 30,54 0,2 1,4 2,6 2,7 4,14 5,21z"/>
   <path class="fil22" d="M23161 13584l0 130c0,131 0,393 5,538 5,145 14,173 29,194 15,21 37,35 130,42 92,8 256,8 338,8l82 0 0 146 -1 592 0 136 101 0c28,0 28,0 28,13 0,6 1,15 1,30 20,3 43,7 68,12 63,11 141,23 251,33 15,1 32,3 48,4l0 -12 63 0c7,28 19,53 36,65 25,18 63,6 93,-6 30,-13 51,-25 69,-52 1,-2 3,-5 4,-7l59 0 0 17c1,0 2,0 2,0l106 0c7,0 14,3 19,7 34,-2 67,-4 98,-6 3,-8 12,-8 46,-7l34 0c33,-3 62,-6 85,-10 24,-3 42,-7 56,-9 9,-5 17,-9 24,-12 0,-56 2,-56 14,-56 7,-1 16,-1 26,0 1,-16 1,-47 1,-129l0 -534 0 -133 42 24 156 87 0 -481c-30,-16 -72,-35 -109,-51 -43,-19 -80,-32 -118,-45 -39,-13 -80,-26 -121,-36 -42,-10 -85,-18 -124,-25 -40,-8 -75,-15 -104,-21 -29,-6 -50,-10 -76,-17 -4,-2 -8,-3 -13,-4 -11,-3 -22,-7 -33,-11l0 -5 0 -49c-1,0 -2,0 -3,1 -4,3 -9,6 -13,9 -16,10 -30,15 -49,19 -20,5 -45,9 -70,11 -26,2 -52,2 -78,0 -26,-3 -52,-7 -72,-12 -19,-5 -31,-11 -41,-17 -5,-2 -9,-5 -13,-8 0,0 -1,0 -1,0l0 51c-5,2 -11,4 -16,7 -8,5 -16,10 -24,16 -30,9 -66,20 -128,33 -84,17 -214,40 -309,55 -96,15 -156,22 -196,26 -40,5 -58,6 -72,6 -13,1 -21,1 -25,1 -5,0 -6,0 -7,-93 -1,-92 -1,-278 -1,-371l0 -92 -49 -1 -10 0 -188 -1 0 0 -50 0z"/>
   <path class="fil23" d="M25077 14579l41 23 156 87 0 -47 -15 -5c-36,-13 -109,-37 -146,-50 -36,-12 -36,-12 -36,-12l0 4z"/>
   <path class="fil23" d="M23161 13584l0 130c0,131 0,393 5,538 5,145 14,173 29,194 15,21 37,35 130,42 92,8 256,8 338,8l80 0c-2,-15 -7,-19 -15,-22 -8,-4 -18,-8 -43,-10 -24,-3 -62,-5 -123,-8 -61,-3 -144,-9 -200,-13 -57,-5 -86,-10 -106,-16 -19,-6 -29,-14 -36,-24 -7,-9 -11,-22 -17,-156 -5,-134 -12,-390 -18,-522 -5,-106 -10,-132 -15,-141l-9 0z"/>
   <polygon class="fil20" points="24236,13921 24576,13921 24576,14028 24434,14156 24386,14156 24236,14017 "/>
   <path class="fil24" d="M24212 13923c-2,3 7,11 15,17 8,6 14,10 23,15 10,6 22,12 41,17 20,5 46,9 72,12 26,2 52,2 78,0 25,-2 50,-6 70,-11 19,-4 33,-9 49,-19 16,-10 34,-25 43,-32 9,-8 9,-8 9,-8 0,0 0,0 -9,2 -8,2 -24,5 -56,9 -32,4 -80,8 -124,9 -45,0 -87,-3 -117,-6 -30,-2 -48,-3 -63,-5 -16,-1 -29,-3 -31,0z"/>
   <path class="fil20" d="M23836 13191c-4,24 -9,57 -11,73 -3,16 -3,16 -3,16 0,0 0,0 -2,0 -2,0 -7,0 -13,2 -6,2 -14,5 -21,13 -8,7 -15,18 -20,35 -4,16 -5,38 -5,57 1,19 4,35 8,49 4,15 10,28 17,37 8,10 17,16 27,20 10,5 21,7 32,8 12,1 24,1 31,1 6,0 6,0 6,0 0,0 0,0 1,24l0 21c2,15 5,32 8,49 4,26 10,50 18,72 7,23 15,45 24,64 8,19 18,35 27,49 10,14 20,26 33,39 13,14 29,29 44,41 16,13 31,22 49,32 17,9 36,19 58,27 22,9 46,16 68,22 22,5 42,9 62,11 19,2 38,2 63,2 25,1 56,1 89,0 33,0 67,-3 100,-5 33,-3 64,-7 93,-13 29,-7 56,-16 81,-29 26,-13 50,-29 70,-44 19,-14 36,-27 50,-44 15,-17 29,-37 42,-58 13,-21 27,-42 39,-66 12,-23 22,-49 30,-75 9,-25 15,-50 19,-73 5,-23 8,-45 9,-56 2,-11 2,-11 2,-11 0,0 0,0 2,1 2,1 7,2 14,2 8,1 19,0 31,-3 2,-1 5,-1 7,-2 4,-2 8,-5 12,-8 10,-10 17,-25 22,-44 4,-20 6,-43 7,-65 1,-22 1,-42 -4,-58 -4,-16 -13,-28 -20,-34 -6,-7 -10,-9 -13,-10 -2,-1 -2,-1 -2,-16 -1,-15 -1,-45 -2,-59 0,-15 0,-15 -1,-36 -1,-20 -3,-60 -8,-90 -6,-30 -15,-49 -52,-65 -37,-16 -102,-29 -208,-36 -106,-7 -253,-8 -373,-5 -120,2 -215,7 -285,14 -71,8 -118,18 -151,33 -32,15 -49,36 -62,60 -13,24 -23,51 -28,72 -6,21 -8,36 -11,59z"/>
   <path class="fil21" d="M23802 13284c-5,2 -11,5 -16,11 -8,7 -15,18 -20,35 -4,16 -5,38 -5,57 1,19 4,35 8,49 4,15 10,28 17,37 8,10 17,16 27,20 10,5 21,7 32,8 12,1 24,1 31,1 6,0 6,0 6,0 0,0 0,0 1,24l0 21c2,15 5,32 8,49 4,26 10,50 18,72 7,23 15,45 24,64 8,19 18,35 27,49 10,14 20,26 33,39 13,14 29,29 44,41 16,13 31,22 49,32 17,9 36,19 58,27 22,9 46,16 68,22 22,5 42,9 62,11 19,2 38,2 63,2 25,1 56,1 89,0 33,0 67,-3 100,-5 33,-3 64,-7 93,-13 29,-7 56,-16 81,-29 26,-13 50,-29 70,-44 19,-14 36,-27 50,-44 15,-17 29,-37 42,-58 13,-21 27,-42 39,-66 12,-23 22,-49 30,-75 9,-25 15,-50 19,-73 5,-23 8,-45 9,-56 2,-11 2,-11 2,-11 0,0 0,0 2,1 2,1 7,2 14,2 8,1 19,0 31,-3 2,-1 5,-1 7,-2 4,-2 8,-5 12,-8 10,-10 17,-25 22,-44 4,-20 6,-43 7,-65 1,-22 1,-42 -4,-58 -4,-16 -13,-28 -20,-34 -2,-3 -4,-5 -6,-6 3,9 6,20 8,32 3,15 4,31 3,50 -1,18 -5,39 -10,56 -5,17 -13,30 -23,39 -10,9 -23,13 -34,15 -10,2 -18,2 -22,1 -4,0 -4,0 -4,0 0,0 0,0 -1,7 -1,6 -4,19 -8,39 -4,19 -10,45 -18,72 -9,27 -20,54 -32,78 -11,23 -24,43 -38,63 -15,21 -32,41 -50,59 -19,18 -37,34 -55,48 -19,14 -36,27 -57,39 -20,12 -43,23 -68,31 -25,9 -51,14 -80,18 -29,4 -61,5 -96,7 -34,1 -71,2 -103,2 -32,-1 -59,-2 -87,-7 -28,-4 -59,-13 -86,-22 -27,-10 -51,-21 -72,-33 -22,-13 -41,-27 -58,-42 -16,-15 -30,-30 -43,-49 -13,-19 -25,-41 -36,-64 -10,-22 -19,-44 -26,-69 -7,-25 -13,-52 -18,-80 -4,-27 -6,-56 -7,-70 -1,-14 -1,-14 -1,-14 0,0 0,0 -8,3 -8,3 -24,8 -37,10 -13,1 -23,-2 -32,-9 -9,-7 -17,-19 -23,-31 -6,-13 -11,-28 -14,-45 -3,-18 -5,-39 -4,-57 1,-18 3,-33 8,-43 3,-6 6,-10 8,-14z"/>
   <path class="fil25" d="M24328 13794c4,5 9,9 14,14 5,4 10,8 15,12 6,3 12,5 19,7 8,2 17,4 26,4 10,1 19,1 29,1 10,0 21,-1 30,-3 8,-1 13,-4 18,-7 4,-3 8,-6 12,-11 4,-4 7,-10 9,-14 1,-3 1,-3 -15,-4 -15,-1 -47,-2 -78,-5 -31,-2 -62,-5 -75,-4 -13,1 -8,5 -4,10z"/>
   <path class="fil25" d="M24575 13540c-7,1 -17,1 -26,1 -8,-1 -15,-2 -20,-5 -6,-2 -10,-6 -14,-10 -4,-4 -8,-9 -13,-16 -4,-7 -10,-17 -15,-30 -6,-13 -11,-28 -14,-44 -4,-15 -6,-32 -6,-44 -1,-12 -1,-20 -1,-29 1,-10 2,-21 6,-31 4,-11 10,-21 16,-29 6,-9 12,-16 19,-21 8,-5 16,-9 22,-11 6,-3 10,-3 17,-1 6,2 15,7 29,29 14,22 33,61 43,97 9,36 9,70 5,92 -4,23 -13,33 -19,40 -6,6 -9,8 -13,9 -4,2 -8,3 -16,3z"/>
   <path class="fil25" d="M24306 13535c10,-1 18,-4 25,-11 7,-7 13,-18 21,-33 7,-14 15,-32 20,-50 5,-18 5,-35 5,-53 0,-17 0,-34 -2,-48 -2,-13 -5,-24 -10,-33 -4,-9 -11,-18 -17,-24 -7,-6 -14,-11 -21,-13 -7,-3 -15,-4 -28,-4 -13,0 -31,1 -47,5 -15,3 -27,9 -38,30 -10,20 -19,55 -17,88 3,33 17,65 32,89 15,25 31,42 44,51 13,8 24,8 33,6z"/>
   <path class="fil25" d="M23979 13117c0,46 0,129 0,171 0,41 0,41 -9,37 -9,-3 -27,-11 -43,-20 -15,-9 -29,-21 -39,-49 -11,-28 -19,-74 -18,-113 1,-40 11,-73 26,-90 15,-16 37,-15 52,-12 15,3 23,7 27,14 4,7 4,16 4,62z"/>
   <path class="fil25" d="M24899 13250c-1,-43 -1,-121 -1,-159 0,-39 0,-39 16,-39 16,0 47,0 64,11 17,11 19,32 20,57 1,24 0,51 -4,72 -4,22 -11,37 -27,56 -16,18 -41,40 -54,47 -13,6 -14,-3 -14,-45z"/>
   <path class="fil26" d="M24076 12874c-181,2 -198,-2 -229,-22 -1,0 -2,-1 -4,-1 -6,21 -16,57 -21,85 -3,14 -4,25 -5,35l0 0 0 1c0,4 0,11 0,22 -1,16 -1,41 0,72 1,30 2,66 4,91 2,20 3,34 5,45 1,7 1,13 2,19 1,9 2,17 3,22 1,5 2,8 2,10 1,5 1,5 14,8l52 13 10 3 -1 -2 4 1 0 -32 0 -134 0 -34 35 10c35,10 104,29 182,43 78,13 164,20 240,23 76,2 143,1 206,-4 63,-4 123,-10 185,-22 62,-12 127,-29 159,-37l32 -9 0 30 0 117 0 29 16 -10 35 -23 27 -17 16 -11 -1 -23c0,-12 -1,-30 -1,-50l-1 -6c0,-17 0,-38 0,-58 0,-20 0,-40 0,-57 0,-2 0,-4 0,-6 -1,-16 -2,-49 -8,-80 -5,-27 -14,-54 -23,-76 -24,14 -57,15 -201,19 -184,4 -547,13 -734,16z"/>
   <path class="fil27" d="M24969 12786c11,2 24,19 36,43 12,23 23,54 29,86 6,31 7,64 8,80 0,16 0,16 -71,16 -72,0 -215,0 -419,0 -204,0 -469,-1 -602,-1 -132,-1 -132,-1 -133,-11 0,-11 -1,-33 5,-63 5,-31 17,-71 23,-90 6,-20 6,-20 105,-23 100,-3 299,-8 481,-10 181,-2 346,-2 432,-8 86,-7 95,-20 106,-19z"/>
   <ellipse class="fil24" cx="24679" cy="13275" rx="94" ry="31"/>
   <path class="fil28" d="M25012 12838c13,-4 20,-10 31,-21 31,-28 94,-86 124,-118 3,-4 6,-7 9,-11 11,-11 12,-15 12,-18 0,-4 -3,-8 -39,-30 -36,-21 -106,-60 -140,-80 -35,-19 -35,-19 -35,-19 0,0 0,0 -82,-25 -82,-25 -246,-74 -339,-101 -92,-27 -113,-31 -133,-30 -11,1 -22,3 -46,9 -15,3 -31,6 -51,11 -56,14 -136,36 -216,60l-205 55c-92,24 -92,24 -120,49 -21,18 -59,51 -88,77 -25,17 -36,28 -41,37 -7,9 -7,12 -3,17 2,12 12,25 38,46 34,27 95,67 125,88 18,11 25,16 34,18 31,20 48,24 229,22 187,-3 550,-12 734,-16 147,-4 179,-5 202,-20z"/>
   <path class="fil27" d="M25016 12837c10,-4 17,-11 27,-20 31,-28 94,-86 124,-118 3,-4 6,-7 9,-11 11,-11 12,-15 12,-18 0,-4 -3,-8 -39,-30 -36,-21 -106,-60 -140,-80 -35,-19 -35,-19 -35,-19l-32 -10c47,33 117,81 154,109 45,34 46,39 38,51 -8,13 -23,32 -45,59 -22,26 -49,59 -63,75 -5,6 -8,9 -10,12z"/>
   <path class="fil27" d="M23835 12538c-29,9 -35,15 -53,31 -21,18 -59,51 -88,77 -25,17 -36,28 -41,37 -7,9 -7,12 -3,17 2,12 12,25 38,46 34,27 95,67 125,88 17,11 25,16 33,18 -3,-3 -7,-7 -12,-11 -29,-24 -86,-72 -115,-100 -29,-28 -30,-35 -30,-43 1,-8 3,-16 23,-39 19,-23 56,-62 78,-84 23,-22 30,-28 43,-36l2 -1z"/>
   <ellipse class="fil24" cx="24158" cy="13276" rx="94" ry="31"/>
   <ellipse class="fil29" cx="24418" cy="12643" rx="113" ry="137"/>
   <path class="fil30" d="M24815 13266l-268 0c-12,0 -23,5 -31,13l0 0c-3,3 -4,6 -6,9 -1,4 -2,9 -3,14 -1,5 -1,11 -1,14 0,3 0,3 0,3 0,0 0,0 -5,-2 -5,-1 -16,-4 -28,-6 -13,-3 -29,-5 -44,-6 -15,-1 -30,-1 -43,0 -13,2 -23,5 -31,8 -8,3 -14,5 -17,6 -3,2 -3,2 -3,2 0,0 0,0 0,-6 0,-5 0,-16 -2,-24 -1,-2 -1,-4 -2,-5 -7,-12 -21,-20 -36,-20l-268 0c-18,0 -34,11 -40,27l-154 -35 151 139 0 0 0 102c0,23 20,42 43,42l268 0c24,0 43,-19 43,-42l0 -124 166 0 0 124c0,23 19,42 43,42l268 0c23,0 42,-19 42,-42l0 -125 188 -179 -197 86c-8,-9 -20,-15 -33,-15z"/>
   <path class="fil31" d="M24810 13266l-263 0c-12,0 -23,5 -31,13l0 0c-3,3 -4,6 -6,9 -1,4 -2,9 -3,14 -1,5 -1,11 -1,14 0,3 0,3 0,3l-1 -1 0 15c0,11 -1,27 -1,42l0 0 0 124c0,23 19,42 43,42l144 0 1 -1c12,-8 17,-20 19,-26 2,-6 2,-6 -25,-5 -27,0 -81,0 -111,-2 -30,-2 -35,-7 -38,-14 -3,-7 -4,-16 -4,-41 -1,-25 -2,-66 -1,-96 1,-29 3,-46 8,-55 4,-10 10,-12 16,-13 6,-1 13,-1 43,-1 30,0 83,-1 118,0 34,0 50,1 62,0 13,-2 22,-6 28,-14 1,-2 2,-5 3,-7z"/>
   <path class="fil31" d="M24282 13266l-255 0c-18,0 -34,11 -40,27l-154 -35 151 139 0 0 0 102c0,23 20,42 43,42l156 0c13,-8 19,-17 23,-22 5,-7 5,-7 -19,-6 -23,0 -71,1 -102,1 -30,-1 -45,-3 -55,-6 -10,-3 -15,-8 -19,-13 -3,-6 -4,-12 -4,-42 -1,-29 -1,-83 0,-113 2,-31 6,-39 11,-44 4,-6 10,-9 22,-11 12,-2 31,-2 56,-2 26,0 58,0 88,1 31,0 59,1 78,-5 10,-3 17,-8 20,-13z"/>
   <path class="fil32" d="M24319 13273c-7,-4 -15,-7 -24,-7l-67 0c0,23 1,57 -1,84 -2,33 -7,57 -15,81 -8,23 -19,47 -33,66 -13,19 -29,34 -44,44l104 0c8,-7 15,-16 23,-26 11,-16 21,-35 29,-56 8,-21 14,-45 18,-69 4,-25 7,-51 8,-72 2,-18 2,-33 2,-45z"/>
   <path class="fil32" d="M24815 13266l-67 0c0,16 0,36 0,55 -1,28 -2,54 -7,78 -4,25 -13,49 -23,70 -10,21 -21,39 -33,53 -7,8 -13,14 -18,19l86 0c1,-1 3,-3 5,-4 10,-9 20,-20 30,-34 9,-15 19,-33 26,-53 8,-21 13,-44 17,-68 3,-24 5,-49 6,-72 0,-14 0,-27 -1,-38 -6,-4 -13,-6 -21,-6z"/>
   <path class="fil33" d="M24420 13743c-67,0 -128,-11 -173,-29 6,55 81,98 173,98 92,0 167,-43 173,-98 -45,18 -106,29 -173,29z"/>
   <path class="fil34" d="M24356 13621c-13,-1 -31,-1 -41,-4 -10,-4 -12,-10 -12,-20 1,-10 4,-23 11,-32 6,-9 16,-14 29,-18 12,-4 28,-6 36,-7 8,-1 8,-1 8,-1 0,0 0,0 0,13 0,14 0,41 0,55 0,14 0,14 0,14 0,0 0,0 -4,0 -5,0 -14,0 -27,0z"/>
   <line class="fil17" x1="24098" y1="14476" x2="24098" y2= "14864" />
   <line class="fil17" x1="23923" y1="14603" x2="24278" y2= "14603" />
   <rect class="fil35" x="25274" y="13881" width="844" height="1152"/>
   <rect class="fil9" x="25351" y="13957" width="691" height="1000"/>
   <path class="fil20" d="M25944 13776c-26,-7 -54,-15 -80,-20 -27,-6 -52,-8 -71,-8 -18,0 -29,2 -37,8 -8,5 -12,13 -17,19 -6,7 -11,11 -23,16 -11,5 -27,12 -41,20 -13,8 -24,19 -30,30 -7,10 -8,21 -1,30 7,9 23,15 34,24 12,8 19,18 29,28 10,10 23,21 43,30 21,8 48,13 76,15 29,1 58,-1 82,-10 25,-10 44,-27 65,-39 21,-13 44,-21 67,-29 22,-7 44,-13 52,-21 9,-9 3,-20 -12,-32 -15,-13 -39,-27 -63,-37 -24,-11 -47,-16 -73,-24z"/>
   <path class="fil21" d="M25756 13955c19,7 44,11 70,13 29,1 58,-1 82,-10 25,-10 44,-27 65,-39 21,-13 44,-21 67,-29 9,-3 19,-6 28,-9 -12,1 -25,4 -41,8 -22,7 -51,17 -78,28 -27,10 -52,20 -77,26 -25,7 -51,9 -74,10 -15,1 -28,1 -42,2z"/>
   <path class="fil21" d="M25944 13776c-26,-7 -54,-15 -80,-20 -27,-6 -52,-8 -71,-8 -18,0 -29,2 -37,8 -8,5 -12,13 -17,19 -6,7 -11,11 -23,16 -11,5 -27,12 -41,20 -13,8 -24,19 -30,30 -7,10 -8,21 -1,30 7,9 23,15 34,24 5,3 9,7 13,10l0 0c0,-12 5,-26 12,-39 7,-12 16,-21 26,-28 11,-6 22,-10 35,-15 13,-4 28,-10 50,-14 21,-4 50,-6 81,-6 32,0 65,2 96,7 31,5 59,14 96,37l5 3c-2,-4 -7,-9 -12,-13 -15,-13 -39,-27 -63,-37 -24,-11 -47,-16 -73,-24z"/>
   <rect class="fil9" x="24290" y="15500" width="227" height="109"/>
   <path class="fil17 str3" d="M23872 15625c-1,14 -2,27 -3,38 -4,49 -12,62 -29,70 -17,8 -44,11 -66,8 -22,-3 -40,-12 -51,-25 -11,-13 -17,-31 -19,-89 -2,-59 -2,-158 -1,-207 0,-50 0,-50 28,-50 29,0 85,0 114,0 28,0 28,0 28,13 1,11 1,31 1,74 38,0 88,1 116,2 38,2 39,3 41,29 3,27 7,78 6,106 -2,29 -8,34 -43,35 -32,1 -87,-1 -122,-4z"/>
   <rect class="fil17 str3" x="24103" y="15467" width="165" height="173" rx="30" ry="26"/>
   <path class="fil36" d="M23995 17375c149,0 269,71 269,158l22 0 0 75 -588 0 0 -75 27 0c0,-87 121,-158 270,-158z"/>
   <path class="fil36" d="M24751 17375c149,0 269,71 269,158l22 0 0 75 -588 0 0 -75 27 0c0,-87 121,-158 270,-158z"/>
   <rect class="fil23" x="24364" y="14160" width="85.9341" height="1310.51"/>
   <path class="fil23" d="M24208 14344c-10,-18 -30,-55 -43,-90 -13,-35 -19,-68 -22,-94 -2,-26 -2,-45 4,-64 2,-10 6,-19 10,-28 -7,12 -14,26 -19,41 -6,17 -9,36 -10,55 -2,19 -2,38 2,62 5,24 13,54 24,78 10,25 22,45 33,60 11,15 21,26 26,31l4 6 30 -35 117 -139 0 -41 -112 136 -34 41 -10 -19z"/>
   <path class="fil23" d="M24450 14175l0 44c4,5 8,11 14,18l104 129 26 32 5 -4c6,-4 17,-12 28,-27 12,-15 23,-37 33,-61 10,-25 18,-52 23,-80 6,-29 8,-58 7,-85 -2,-27 -7,-50 -21,-74 -11,-19 -27,-38 -41,-53 -2,0 -4,-1 -6,-1l-13 -4c14,8 28,19 39,33 13,16 23,34 28,54 6,19 6,38 4,64 -3,26 -9,59 -22,94 -13,35 -33,72 -43,90l-10 19 -34 -41 -121 -147z"/>
   <path class="fil23" d="M23951 14476c-5,1 -11,4 -16,9 -5,4 -10,11 -13,18 -4,8 -6,16 -7,70 -1,54 -1,152 0,205 1,52 2,59 5,65 2,6 6,12 12,17 5,4 13,7 28,8 15,2 36,2 82,2 47,0 117,0 156,-1 39,0 45,-1 53,-3 7,-2 16,-7 23,-13 6,-7 10,-16 13,-24 2,-8 2,-14 1,-67 -1,-53 -2,-153 -4,-205 -1,-53 -3,-59 -7,-64 -4,-5 -10,-9 -16,-12 -6,-3 -13,-5 -16,-5 -3,-1 -3,-1 -3,-1 0,0 0,0 2,1 2,1 6,3 9,6 4,4 8,8 11,14 3,7 5,15 7,66 1,51 1,145 0,196 -1,51 -3,59 -5,66 -2,7 -5,13 -12,17 -6,4 -15,6 -63,6 -49,1 -137,0 -184,-2 -48,-1 -54,-3 -59,-6 -6,-4 -9,-10 -11,-60 -2,-51 -1,-146 0,-199 2,-54 3,-64 5,-72 2,-8 5,-14 10,-19 4,-6 10,-11 10,-14 0,-2 -5,-1 -11,1z"/>
   <rect class="fil23" x="23928" y="14591" width="350.244" height="23.4441"/>
   <rect class="fil23" x="24088" y="14475" width="19.523" height="382.806"/>
   <line class="fil17" x1="24757" y1="14487" x2="24757" y2= "14874" />
   <line class="fil17" x1="24582" y1="14613" x2="24936" y2= "14613" />
   <path class="fil29" d="M24645 14616c58,-3 171,-2 230,-4 58,-1 61,-3 62,-7 2,-4 2,-9 1,-18 -1,-9 -2,-23 -3,-29 0,-7 0,-7 -59,-6 -58,0 -175,1 -233,2 -58,0 -58,0 -59,6 -1,7 -2,19 -2,32 -1,12 0,25 1,28 2,4 4,-2 62,-4z"/>
   <path class="fil23" d="M24610 14486c-5,2 -11,4 -16,9 -5,5 -10,11 -14,19 -3,7 -5,16 -6,69 -1,54 -1,153 -1,205 1,53 3,59 6,65 2,7 6,13 11,17 6,4 14,7 29,9 14,1 36,2 82,2 47,0 117,-1 156,-1 39,-1 45,-1 53,-4 7,-2 16,-6 22,-13 7,-7 11,-16 13,-24 3,-7 3,-14 2,-67 -1,-53 -2,-152 -4,-205 -1,-53 -4,-59 -8,-64 -3,-5 -9,-9 -15,-12 -6,-2 -13,-4 -16,-5 -3,-1 -3,-1 -3,-1 0,0 0,0 2,1 2,1 6,4 9,7 4,3 7,7 10,14 3,6 6,14 7,65 2,51 2,145 1,196 -1,51 -3,59 -5,66 -3,8 -6,14 -12,17 -6,4 -15,6 -63,7 -49,0 -137,-1 -185,-2 -47,-1 -53,-3 -59,-7 -5,-4 -9,-9 -10,-60 -2,-50 -1,-146 0,-199 1,-53 3,-64 5,-72 2,-8 5,-13 9,-19 5,-5 10,-11 11,-13 0,-3 -5,-2 -11,0z"/>
   <rect class="fil23" x="24587" y="14601" width="350.244" height="23.4441"/>
   <rect class="fil23" x="24747" y="14602" width="19.523" height="265.751"/>
   <path class="fil29" d="M24065 14055c-7,-1 -16,-1 -32,0 -16,1 -37,3 -53,5 -16,3 -25,7 -30,11 -4,4 -4,9 -1,12 3,3 8,5 24,4 15,-1 41,-6 61,-11 21,-6 35,-12 39,-16 5,-3 0,-5 -8,-5z"/>
   <path class="fil29" d="M23904 14076c-9,-2 -20,-1 -31,0 -11,1 -22,2 -32,4 -10,2 -20,6 -27,10 -7,4 -12,9 -12,13 -1,4 1,7 6,10 4,2 11,4 22,4 11,0 28,-2 41,-4 14,-2 26,-5 35,-8 8,-4 13,-7 16,-11 3,-3 3,-7 0,-11 -3,-3 -9,-6 -18,-7z"/>
   <path class="fil29" d="M24765 14046c8,0 17,0 33,1 16,1 37,4 53,7 15,3 25,7 29,12 5,4 4,8 1,11 -3,4 -8,6 -24,4 -15,-2 -41,-7 -61,-13 -20,-6 -34,-13 -39,-17 -4,-3 1,-5 8,-5z"/>
   <path class="fil29" d="M24927 14071c8,-1 20,1 31,2 10,1 21,2 31,5 10,2 20,6 27,10 7,4 11,9 12,13 1,5 -2,8 -7,10 -4,2 -11,4 -22,3 -11,0 -27,-2 -41,-4 -14,-3 -26,-6 -34,-10 -8,-3 -13,-7 -16,-11 -3,-3 -3,-7 0,-11 3,-3 10,-6 19,-7z"/>
   <circle class="fil23" cx="24449" cy="15300" r="36"/>
   <circle class="fil23" cx="24451" cy="15126" r="36"/>
   <circle class="fil23" cx="24453" cy="14953" r="36"/>
   <circle class="fil23" cx="24455" cy="14779" r="36"/>
   <circle class="fil23" cx="24457" cy="14605" r="36"/>
   <circle class="fil23" cx="24459" cy="14431" r="36"/>
   <rect class="fil37" x="25484" y="14023" width="414.045" height="36.4594"/>
   <circle class="fil38" cx="25486" cy="14827" r="74"/>
   <path class="fil17 str4" d="M25794 14838c0,-1 33,-33 7,-1 -59,72 36,-9 59,-21 -84,71 -43,43 37,4 56,-27 -28,5 -52,21 -135,90 79,-5 74,-30 -40,2 -126,100 -21,21 11,-9 53,-72 13,-40 -1,0 -128,108 -78,75 13,-9 74,-40 76,-43 -47,7 -119,106 -7,24 25,-18 -36,20 15,-4 29,-13 -26,-3 -25,8 39,0 55,-34 20,-11 -12,7 11,-1 -5,5 -18,6 54,6 76,-3 2,-1 3,0 5,0"/>
   <path class="fil39" d="M23874 15410c0,-13 -1,-21 -1,-27 0,-13 0,-13 -28,-13l-101 0 -13 0c-28,0 -28,0 -28,50 -1,49 -1,148 1,207 2,58 8,76 19,89 4,5 9,9 15,13 0,58 0,132 0,227 2,346 8,969 10,1281l2 230c43,-54 136,-92 245,-92 110,0 204,39 246,94 1,-33 3,-80 5,-146 6,-226 19,-678 29,-918 10,-240 16,-269 27,-292 10,-24 24,-42 46,-51 23,-9 52,-9 77,-1 25,9 45,26 56,54 11,29 13,69 15,312 2,242 3,686 4,908l1 139c39,-58 136,-99 250,-99 109,0 202,38 245,93l7 -214 39 -1226 3 -100c4,2 9,3 15,3 7,0 17,-3 25,-8 8,-5 14,-11 20,-19 5,-8 9,-16 12,-33 2,-16 4,-41 5,-116 0,-76 0,-202 -1,-270 -1,-68 -2,-76 -5,-84 -2,-8 -6,-15 -12,-20 -5,-4 -13,-7 -21,-9 -8,-2 -17,-4 -24,-4 -7,1 -12,3 -17,7 -1,0 -2,1 -3,2l-1 1c-5,6 -9,15 -11,24 -2,9 -3,18 -3,22 0,5 0,5 -7,7 -7,1 -22,5 -62,11 -40,5 -106,11 -140,15 -20,3 -29,5 -33,8 -27,2 -58,5 -91,6 -35,0 -73,-2 -105,-3 -33,0 -59,1 -106,0 -46,-1 -112,-3 -158,-5 -45,-2 -71,-3 -107,-6 -37,-4 -84,-8 -139,-15 -54,-8 -115,-18 -152,-24 -24,-4 -38,-6 -50,-8zm1157 488l0 0 0 21 0 -21z"/>
   <path class="fil36" d="M24968 17440c11,9 20,18 28,28l7 -214 39 -1226 3 -100c4,2 9,3 15,3 7,0 17,-3 25,-8 4,-2 7,-5 10,-8 0,-33 -1,-64 -3,-91 -9,-187 -38,-228 -54,-234 -16,-7 -19,21 -29,350 -10,329 -27,959 -35,1274 -3,108 -5,179 -6,226zm63 -1542l0 0 0 21 0 -21z"/>
   <path class="fil36" d="M24221 17448c8,7 15,14 20,21 1,-33 3,-80 5,-146 6,-226 19,-678 29,-918 10,-240 16,-269 27,-292 10,-24 24,-42 46,-51 23,-9 52,-9 77,-1 25,9 45,26 56,54 11,29 13,69 15,312 2,242 3,686 4,908l1 139c6,-9 13,-17 22,-26l1 -137c2,-210 4,-630 4,-863 0,-234 -2,-281 -9,-317 -7,-37 -19,-63 -36,-82 -17,-20 -41,-33 -67,-39 -26,-6 -55,-5 -78,4 -24,10 -43,28 -57,56 -13,28 -21,65 -27,133 -5,68 -9,166 -12,318 -4,151 -7,357 -11,527 -3,170 -7,303 -9,378l-1 22z"/>
   <path class="fil36" d="M23717 15708c2,3 4,5 6,8 4,5 9,9 15,13 0,58 0,132 0,227 2,346 8,969 10,1281l2 230c6,-7 13,-14 20,-21l-1 -255c-2,-297 -6,-891 -8,-1198 -3,-307 -5,-328 -18,-324 -6,2 -15,10 -26,39z"/>
   <path class="fil31" d="M23881 15644c-3,8 -4,20 -6,34 -3,15 -9,32 -16,44 -7,13 -16,20 -26,25 -9,5 -20,7 -32,6 -12,0 -25,-2 -38,-5 -12,-2 -23,-5 -34,-10 -10,-6 -20,-13 -28,-53 -9,-39 -17,-111 -18,-170 -1,-59 4,-104 7,-127 3,-24 5,-25 36,-27 31,-1 92,-2 125,-1 32,0 35,3 36,17 0,13 -2,39 -4,52 -1,13 -1,13 19,13 20,1 61,3 86,6 26,3 37,8 43,16 6,8 8,20 10,44 1,23 2,59 1,80 -1,22 -4,30 -8,36 -3,6 -9,10 -32,11 -24,0 -65,-3 -89,-3 -24,1 -29,4 -32,12z"/>
   <path class="fil31" d="M24777 15474c0,-12 3,-14 37,-18 34,-4 100,-10 140,-16 40,-5 54,-9 61,-11 8,-2 8,-2 8,-6 0,-4 0,-13 3,-22 2,-9 6,-18 11,-24 6,-6 13,-9 20,-10 8,0 17,1 25,3 8,3 15,5 21,10 6,5 9,12 12,19 3,8 4,17 5,85 1,67 1,194 0,270 0,75 -2,99 -5,116 -3,16 -6,25 -12,33 -5,7 -11,14 -19,19 -8,4 -18,7 -26,8 -8,0 -14,-3 -19,-6 -5,-3 -9,-7 -10,-48 -2,-42 -2,-120 -1,-159 0,-40 0,-40 -9,-39 -9,0 -26,1 -50,0 -24,-1 -54,-4 -78,-8 -25,-3 -43,-7 -58,-12 -15,-4 -27,-9 -35,-16 -9,-6 -15,-14 -18,-33 -3,-19 -3,-48 -3,-74 -1,-26 -1,-49 0,-61z"/>
   <path class="fil40" d="M25097 15376c2,1 4,3 6,4 6,5 9,12 12,19 3,8 4,17 5,85 1,67 1,194 0,270 0,75 -2,99 -5,116 -3,16 -6,25 -12,33 -3,5 -7,10 -12,13 0,-14 0,-34 0,-61 1,-98 1,-293 4,-397 0,-38 1,-64 2,-82z"/>
   <path class="fil31" d="M24241 15640l0 -173c-1,0 -1,0 -2,0l-106 0c-16,0 -30,13 -30,30l0 113c0,17 14,30 30,30l106 0 2 0z"/>
   <path class="fil31" d="M24565 15465l0 175c1,0 2,0 2,0l106 0c17,0 30,-14 30,-32l0 -121c0,-40 -82,-22 -115,-22 -8,0 -15,0 -23,0z"/>
   <rect class="fil1" x="24241" y="15450" width="324" height="211"/>
   <rect class="fil31" x="24294" y="15497" width="224" height="115"/>
   <path class="fil41" d="M24819 17402c17,4 34,8 51,15 18,8 36,18 52,28 16,10 28,21 37,31 9,10 14,18 18,28 4,9 7,19 8,24 1,5 1,5 -19,5 -20,0 -60,0 -80,0 -19,0 -19,0 -19,0 0,0 0,0 -1,-6 0,-7 0,-20 -3,-35 -3,-15 -7,-33 -15,-46 -7,-13 -17,-21 -26,-29 -9,-8 -18,-14 -27,-18 -9,-5 -20,-7 -25,-8 -5,-1 -5,-1 4,1 9,2 27,6 45,10z"/>
   <path class="fil41" d="M24061 17402c17,4 34,8 51,15 18,8 37,18 52,28 16,10 28,21 37,31 9,10 14,18 18,28 4,9 7,19 8,24 2,5 2,5 -18,5 -20,0 -60,0 -80,0 -20,0 -20,0 -20,0 0,0 0,0 -1,-6 0,-7 0,-20 -3,-35 -2,-15 -7,-33 -15,-46 -7,-13 -17,-21 -26,-29 -9,-8 -17,-14 -27,-18 -9,-5 -19,-7 -25,-8 -5,-1 -5,-1 4,1 9,2 28,6 45,10z"/>
   <path class="fil17 str5" d="M25442 14172l515 0m-515 245l515 0m-515 -31l515 0m-515 -30l515 0m-515 -31l515 0m-515 -30l515 0m-515 -31l515 0m-515 -30l515 0m-515 -31l515 0"/>
  </g>
  <g id="_2073886239152">
   <path class="fil42" d="M37916 16930c-22,43 -54,111 -80,155 -27,43 -48,62 -94,73 -46,12 -117,18 -1024,16 -906,-1 -2648,-9 -3526,-14 -879,-4 -893,-6 -904,-23 -10,-18 -17,-52 -27,-111 -11,-59 -25,-142 -31,-184 -6,-42 -4,-44 -310,-44 -307,0 -923,2 -1256,18 -334,17 -385,48 -410,90 -25,41 -24,93 -26,138 -2,45 -7,83 -20,105 -12,21 -32,27 -116,11 -84,-15 -231,-50 -327,-75 -97,-24 -142,-37 -178,-45 -37,-8 -66,-11 -91,-17 -24,-7 -44,-17 -58,-37 -14,-20 -22,-49 -16,-124 5,-74 23,-194 35,-288 11,-95 15,-163 23,-271 9,-107 22,-253 33,-348 12,-95 21,-139 33,-174 13,-35 29,-61 74,-103 46,-43 121,-101 224,-157 104,-57 236,-112 385,-163 149,-51 315,-97 470,-135 155,-37 298,-66 490,-95 192,-28 432,-56 745,-89 313,-33 700,-71 893,-90 193,-19 193,-19 193,-19 0,0 0,0 42,-35 43,-35 127,-105 264,-202 137,-97 327,-221 503,-323 175,-103 336,-185 472,-244 137,-60 249,-97 388,-133 139,-36 305,-72 495,-98 190,-26 404,-44 623,-55 220,-11 445,-16 653,-10 209,6 400,23 575,42 176,20 335,43 531,83 196,40 428,98 544,127 116,29 116,29 121,34 4,4 14,14 24,24 11,9 22,20 254,106 231,87 682,249 928,335 246,85 287,95 340,100 53,5 117,6 174,14 58,8 108,23 220,40 112,17 286,37 442,48 155,11 292,14 370,19 77,5 94,13 106,28 12,16 18,38 21,92 3,54 1,140 1,250 0,110 2,245 2,312 1,67 1,67 1,67 0,0 0,0 15,9 15,10 45,28 76,56 31,29 63,67 86,114 23,48 38,105 34,285 -3,180 -24,483 -38,638 -14,155 -20,161 -53,169 -32,8 -90,17 -338,19 -248,1 -685,-6 -1157,-5 -473,1 -979,9 -1280,13 -302,4 -398,4 -452,12 -55,9 -68,26 -91,69z"/>
   <polygon class="fil43" points="32967,16642 32959,16911 36005,16855 36084,16594 "/>
   <path class="fil44" d="M30266 16890c-5,5 -9,10 -12,16 -25,41 -24,93 -26,138 -2,45 -7,83 -20,105 -12,21 -32,27 -116,11 -84,-15 -231,-50 -327,-75 -97,-24 -142,-37 -178,-45 -37,-8 -66,-11 -91,-17 -24,-7 -44,-17 -58,-37 -14,-20 -22,-49 -16,-124 2,-35 8,-81 14,-129 67,1 141,6 220,11 170,11 361,26 466,32 106,6 125,3 136,50 4,17 6,39 8,64z"/>
   <path class="fil44" d="M41113 15413l0 71c1,67 1,67 1,67 0,0 0,0 15,9 15,10 45,28 76,56 31,29 63,67 86,114 23,48 38,105 34,285 -3,180 -24,483 -38,638 -14,155 -20,161 -53,169 -32,8 -90,17 -338,19 -226,1 -610,-4 -1034,-5 0,-17 1,-36 1,-57 2,-66 4,-149 -17,-243 -20,-93 -62,-197 -107,-286 -45,-88 -93,-161 -145,-225 -53,-65 -111,-122 -140,-150 -29,-28 -29,-28 69,-41 98,-12 295,-37 462,-69 166,-32 304,-70 398,-107 94,-37 146,-72 181,-109 35,-36 53,-73 62,-106 8,-34 7,-64 22,-78 15,-14 47,-11 138,-2 85,10 222,25 327,50z"/>
   <path class="fil4" d="M41317 16231c-2,37 -4,76 -7,113 -25,4 -51,5 -75,6 -45,2 -83,3 -114,-3 -31,-6 -55,-19 -70,-38 -16,-18 -24,-42 -28,-54 -4,-12 -4,-12 61,-14 56,-2 158,-6 233,-10z"/>
   <path class="fil45" d="M37916 16930c-22,43 -54,111 -80,155 -27,43 -48,62 -94,73 -46,12 -117,18 -1024,16 -906,-1 -2648,-9 -3526,-14 -879,-4 -893,-6 -904,-23 -10,-18 -17,-52 -27,-111l-1 -2 0 -1 0 -1 0 -1 0 -1 -1 -1 0 -1 0 -1 0 -2 0 0 -1 -1 0 -2 0 0 0 -2 0 -1 -1 -1 0 -2 0 0 0 -2 0 -1 0 0 -1 -2 0 -1 0 -1 0 -2 -1 0 0 -2 0 -1 0 -1 -1 -2 0 0 0 -2 0 -1 0 -1 -1 -1 0 -1 0 -1 0 -2 0 -1 -1 -1 0 -2 0 0 0 -2 0 -1 -1 -1 0 -2 0 0 0 -2 0 -1 -1 -1 0 -2 0 0 0 -2 -1 -1 0 -1 0 -2 0 -1 0 -1 -1 -2 0 0 0 -2 0 -1 0 -1 -1 -2 0 0 0 -2 0 -1 0 -1 -1 -2 0 0 0 -2 0 -2 0 0 -1 -2 0 -1 0 -1 0 -2 0 0 -1 -2 0 -1 0 -1 0 -2 -1 0 0 -1 0 -2 0 0 0 -2 -1 -1 0 -1 0 -2 0 -1 0 -1 -1 -2 0 0 0 -2 0 -1 0 -1 -1 -2 0 0 0 -2 0 -1 0 -1 -1 -1c89,-7 315,-13 890,-28 947,-26 2840,-76 3793,-86 954,-9 967,21 980,68 5,21 10,44 16,69l-1 1 -1 2z"/>
   <path class="fil46" d="M37821 17106c-20,29 -41,43 -79,52 -46,12 -117,18 -1024,16 -906,-1 -2648,-9 -3526,-14 -879,-4 -893,-6 -904,-23 -9,-17 -16,-47 -25,-97 79,-5 248,-6 619,-10 683,-7 2049,-20 2954,-32 904,-12 1347,-22 1603,-8 256,15 325,54 365,97 7,6 12,13 17,19z"/>
   <path class="fil42 str3" d="M30277 16880c-15,11 -25,26 -37,50 -7,13 -14,28 -22,43 -13,-48 -22,-97 -28,-147 -4,-39 -6,-78 -6,-118 0,-13 0,-27 1,-41 2,-43 5,-74 9,-103 7,-48 19,-90 32,-125 13,-36 28,-66 34,-51 5,15 1,74 4,156 3,81 12,185 13,278 0,20 0,39 0,58z"/>
   <path class="fil47" d="M29462 17009c-9,-6 -17,-14 -24,-23 -14,-20 -22,-49 -16,-124 5,-74 23,-194 35,-288l0 -2c20,-17 37,-29 56,-40 41,-26 90,-53 127,-66 37,-14 62,-16 86,-12 23,3 46,11 64,30 17,19 31,50 36,84 6,35 5,75 -2,111 -6,35 -18,67 -41,106 -23,39 -57,85 -90,118 -33,34 -65,55 -95,72 -29,15 -56,27 -136,34z"/>
   <path class="fil48" d="M29670 15635c44,-35 103,-75 174,-114 104,-57 236,-112 385,-163 149,-51 315,-97 470,-135 155,-37 298,-66 490,-95 192,-28 432,-56 745,-89 313,-33 700,-71 893,-90 193,-19 193,-19 193,-19 0,0 0,0 42,-35 43,-35 127,-105 264,-202 137,-97 327,-221 503,-323 175,-103 336,-185 472,-244 137,-60 249,-97 388,-133 139,-36 305,-72 495,-98 190,-26 404,-44 623,-55 220,-11 445,-16 653,-10 209,6 400,23 575,42 176,20 335,43 531,83 196,40 428,98 544,127 116,29 116,29 121,34 4,4 14,14 24,24 11,9 22,20 254,106 231,87 682,249 928,335 246,85 287,95 340,100 53,5 117,6 174,14 58,8 108,23 220,40 112,17 286,37 442,48 155,11 292,14 370,19 77,5 94,13 106,28 12,16 18,38 21,92 3,54 1,140 1,250 0,39 0,81 1,122 -119,-28 -245,-58 -360,-80 -177,-35 -330,-51 -936,-37 -607,13 -1667,55 -3547,142 -1881,87 -4581,219 -5932,285 -275,13 -494,24 -667,31z"/>
   <path class="fil49" d="M33045 14910l17 -15c43,-35 127,-105 264,-202 137,-97 327,-221 503,-323 175,-103 336,-185 472,-244 85,-37 160,-65 238,-90 13,8 20,18 21,32 0,16 -8,35 -59,72 -51,36 -145,90 -276,161 -132,71 -300,159 -457,249 -156,89 -301,180 -398,241 -97,60 -147,90 -188,105 -41,16 -72,18 -110,16 -9,-1 -18,-1 -27,-2z"/>
   <path class="fil50" d="M29721 15934c-15,24 -33,46 -51,69 -19,23 -38,46 -54,61 -16,16 -29,24 -40,26 -12,3 -21,0 -27,-9 -6,-10 -10,-27 -7,-65 2,-38 10,-97 16,-136 7,-38 12,-57 20,-71 9,-15 20,-26 36,-34 16,-8 37,-12 57,-13 21,-1 40,1 54,5 13,4 22,9 27,25 5,16 7,42 2,68 -5,25 -18,50 -33,74z"/>
   <path class="fil51" d="M39038 15236c-701,41 -1825,107 -3178,165 -1352,58 -2935,108 -3726,133 -791,25 -791,25 -791,25 0,0 0,0 374,-21 375,-21 1124,-63 2030,-117 906,-54 1968,-120 2876,-168 907,-47 1658,-76 2245,-88 587,-12 1009,-7 1220,-4 211,2 211,2 211,2 0,0 0,0 -140,8 -140,8 -419,24 -1121,65z"/>
   <path class="fil52" d="M30012 15976c113,-77 287,-203 374,-267 87,-63 87,-63 87,-63 0,0 0,0 -35,-2 -34,-2 -103,-6 -178,-3 -76,2 -159,12 -238,29 -78,18 -152,45 -207,69 -54,24 -90,47 -115,71 -25,25 -40,51 -49,87 -9,37 -13,83 -11,118 2,35 10,58 37,72 27,14 73,18 122,6 49,-12 100,-39 213,-117z"/>
   <path class="fil47" d="M37672 14904c-367,14 -796,30 -1260,50 -465,20 -966,43 -1519,70 -552,27 -1156,58 -1453,66 -297,9 -286,-4 -235,-41 50,-36 141,-95 187,-125 45,-30 45,-30 48,-39 3,-9 8,-27 21,-49 13,-21 34,-44 61,-64 26,-20 58,-36 86,-46 27,-11 51,-16 75,-21 25,-4 50,-8 62,-10 13,-2 13,-2 13,-2 0,0 0,0 69,-45 69,-45 208,-135 342,-214 133,-80 263,-150 376,-205 113,-56 211,-97 309,-130 99,-34 197,-60 317,-78 119,-18 259,-27 404,-33 145,-6 295,-9 457,-7 161,2 334,9 469,16 135,6 233,13 367,29 135,17 306,43 463,71 156,27 297,56 455,97 158,40 334,91 485,140 152,49 280,95 375,133 95,38 157,69 200,97 43,27 66,52 78,77 12,24 12,48 4,74 -8,27 -24,56 -44,79 -20,23 -46,40 -86,50 -40,11 -95,15 -275,23 -180,9 -485,22 -851,37z"/>
   <path class="fil53 str3" d="M36853 14384c-33,123 -81,297 -105,384 -23,87 -23,87 -23,87 0,0 0,0 290,-9 291,-8 873,-25 1195,-41 321,-16 383,-31 421,-48 37,-17 51,-37 48,-62 -3,-26 -21,-58 -80,-95 -59,-38 -157,-81 -299,-134 -141,-53 -324,-115 -561,-175 -236,-60 -526,-118 -671,-147 -145,-29 -145,-29 -145,-29 0,0 0,0 -10,36 -9,37 -27,109 -60,233z"/>
   <path class="fil53 str3" d="M36706 14311c-35,127 -93,336 -122,440 -29,104 -29,104 -29,104 0,0 0,0 0,0 0,0 0,0 -179,10 -179,10 -536,29 -983,54 -447,24 -984,53 -1252,68 -268,14 -268,14 -268,14 0,0 0,0 4,-31 5,-32 14,-95 15,-140 2,-45 -5,-71 -19,-88 -14,-16 -35,-23 -45,-26 -11,-3 -11,-3 -11,-3 0,0 0,0 54,-34 53,-34 160,-101 272,-166 112,-64 229,-126 344,-182 115,-56 227,-106 341,-145 114,-38 230,-64 361,-85 130,-20 275,-35 443,-43 168,-7 360,-9 552,-2 193,6 386,21 483,28 97,7 97,7 97,7 0,0 0,0 -6,24 -6,23 -17,69 -52,196z"/>
   <path class="fil49" d="M39553 14575c230,83 241,91 245,97 2,4 2,7 1,11 -8,-1 -15,-1 -22,-2 -53,-5 -94,-15 -340,-100 -246,-86 -697,-248 -928,-335 -232,-86 -243,-97 -254,-106 -2,-3 -5,-5 -7,-7 11,0 25,2 51,8 31,6 78,19 326,105 248,86 698,246 928,329z"/>
   <path class="fil4" d="M41111 15130l0 42c0,110 2,245 2,312 1,67 1,67 1,67l1 1c-21,9 -47,11 -75,12 -57,2 -124,0 -192,-14 -68,-13 -136,-40 -210,-90 -73,-50 -151,-124 -193,-172 -43,-48 -51,-70 -45,-93 7,-22 28,-45 70,-68 41,-24 103,-49 167,-65 64,-16 130,-23 189,-23 60,0 112,7 154,18 41,12 72,27 100,46 11,7 21,15 31,27z"/>
   <path class="fil47" d="M38895 15674c571,0 1034,463 1034,1034 0,43 -3,86 -8,128 -42,0 -85,0 -127,0 5,-42 9,-85 9,-128 0,-501 -407,-908 -908,-908 -467,0 -852,352 -902,806 17,57 31,144 33,192 3,56 -11,59 -24,62l-2 1 0 1c-7,2 -13,3 -19,5 -5,1 -9,3 -13,5 -10,5 -18,11 -26,20 -7,8 -15,20 -25,39 -10,19 -24,47 -40,78 -17,31 -37,66 -47,83 -10,18 -10,18 -10,18 0,0 0,0 3,-38 3,-38 9,-113 16,-186 7,-73 13,-144 18,-191 2,-16 3,-30 5,-41 28,-546 479,-980 1033,-980z"/>
   <g>
    <path class="fil54 str3" d="M38895 15800c-502,0 -908,407 -908,908 0,501 406,908 908,908 501,0 908,-407 908,-908 0,-501 -407,-908 -908,-908zm603 1020c-61,7 -176,10 -357,15 -180,5 -427,13 -588,17 -161,4 -236,4 -273,4 -38,0 -38,0 -38,0 0,0 0,0 5,11 4,12 13,34 32,74 18,39 46,96 78,143 33,46 70,83 114,118 44,34 95,66 140,89 45,23 83,37 133,46 49,10 110,14 159,15 48,1 85,0 135,-11 51,-10 114,-30 173,-59 58,-29 112,-67 162,-125 49,-57 94,-133 127,-198 33,-65 54,-117 61,-138 6,-20 -2,-8 -63,-1z"/>
    <circle class="fil55" cx="38886" cy="16699" r="475"/>
    <circle class="fil18 str3" cx="38895" cy="16708" r="107"/>
    <path class="fil56" d="M38895 16010c-386,0 -699,312 -699,698 0,386 313,698 699,698 385,0 698,-312 698,-698 0,-386 -313,-698 -698,-698zm0 492c-14,0 -27,2 -39,4l-16 -427c18,-1 36,-2 55,-2 14,0 27,1 41,2l-3 427c-13,-2 -25,-4 -38,-4zm-69 12c-46,16 -84,48 -108,89l-366 -216c84,-142 222,-249 387,-290l87 417zm-122 117c-8,21 -13,43 -15,66l-416 -94c7,-47 20,-92 38,-134l393 162zm-13 104c5,43 24,82 52,112l-312 289c-104,-112 -167,-263 -167,-428 0,-9 0,-18 0,-27l427 54zm75 134c17,13 36,24 57,32l-228 362c-35,-18 -68,-40 -98,-65l269 -329zm85 40c14,3 29,5 44,5 23,0 45,-4 66,-11l190 382c-78,35 -165,54 -256,54 -83,0 -162,-16 -235,-45l191 -385zm136 -17c19,-9 36,-22 51,-36l281 319c-31,29 -66,54 -104,77l-228 -360zm74 -63c24,-32 38,-72 39,-115l424 -45c1,13 2,26 2,39 0,162 -62,310 -162,422l-303 -301zm38 -148c-4,-24 -11,-48 -22,-69l405 -136c13,34 24,69 31,106l-414 99zm-40 -96c-23,-32 -56,-56 -93,-70l64 -423c174,38 322,148 409,298l-380 195z"/>
    <circle class="fil57" cx="38892" cy="16705" r="107"/>
   </g>
   <path class="fil47" d="M31218 15674c572,0 1035,463 1035,1034 0,34 -2,67 -5,100l-2 27c-1,25 -2,50 -3,63 -1,12 -1,12 -1,12l-2 -1 -1 6c0,0 0,0 -30,-3 -30,-3 -91,-8 -173,-15 -81,-7 -184,-17 -288,-23 -105,-6 -210,-8 -354,-3 -145,5 -328,19 -469,40 -141,22 -240,52 -323,79 -82,26 -148,49 -209,74 -60,25 -116,52 -148,71 -20,11 -31,19 -38,22 -6,5 -10,8 -14,9 -5,3 -8,4 -10,1 -2,1 -4,1 -6,1 0,-9 0,-21 0,-36 1,-81 2,-245 4,-354 1,-45 2,-81 4,-111 21,-552 476,-993 1033,-993zm898 897c-66,-436 -443,-770 -898,-770 -487,0 -885,384 -907,867 46,-61 125,-104 320,-129 211,-28 558,-36 836,-29 279,8 490,30 608,53 15,2 29,5 41,8z"/>
   <g>
    <path class="fil54" d="M31218 15792c-501,0 -907,406 -907,908 0,501 406,907 907,907 502,0 908,-406 908,-907 0,-502 -406,-908 -908,-908zm604 1019c-62,8 -176,10 -357,16 -181,5 -427,13 -588,17 -161,4 -236,4 -274,4 -37,0 -37,0 -37,0 0,0 0,0 4,11 5,11 14,33 33,73 18,40 46,96 78,143 32,47 69,84 114,118 44,34 95,66 140,89 45,23 83,38 132,47 50,9 111,13 159,14 49,2 86,0 136,-10 50,-11 114,-30 172,-59 59,-29 113,-68 162,-125 50,-57 95,-134 128,-199 33,-64 54,-117 60,-137 7,-21 -1,-9 -62,-2z"/>
    <circle class="fil55" cx="31209" cy="16690" r="475"/>
    <circle class="fil18" cx="31218" cy="16700" r="107"/>
    <path class="fil56" d="M31218 16001c-385,0 -698,313 -698,699 0,385 313,698 698,698 386,0 699,-313 699,-698 0,-386 -313,-699 -699,-699zm0 493c-13,0 -26,1 -39,4l-15 -427c18,-2 36,-2 54,-2 14,0 28,0 42,1l-4 427c-12,-2 -25,-3 -38,-3zm-68 12c-46,16 -84,48 -108,88l-367 -216c85,-142 223,-248 387,-290l88 418zm-123 117c-8,20 -13,42 -14,65l-417 -94c8,-46 21,-91 38,-133l393 162zm-13 103c6,44 25,82 53,113l-312 289c-104,-113 -168,-263 -168,-428 0,-10 1,-19 1,-28l426 54zm76 134c17,14 36,25 56,32l-227 363c-35,-19 -68,-41 -98,-66l269 -329zm84 40c15,4 29,5 44,5 24,0 46,-4 67,-11l190 382c-78,35 -165,54 -257,54 -83,0 -162,-16 -234,-45l190 -385zm136 -16c19,-10 37,-22 52,-37l281 319c-32,29 -67,55 -104,77l-229 -359zm75 -64c23,-32 38,-72 39,-114l424 -45c1,13 1,25 1,39 0,162 -61,310 -161,421l-303 -301zm37 -147c-3,-25 -10,-48 -21,-69l404 -136c14,33 24,69 32,105l-415 100zm-39 -97c-23,-31 -56,-56 -93,-69l64 -424c174,38 321,148 409,298l-380 195z"/>
    <circle class="fil57" cx="31215" cy="16696" r="107"/>
   </g>
   <path class="fil46" d="M35875 15238c8,20 13,42 15,69 1,27 -2,59 -16,83 -15,25 -41,42 -85,52 -44,10 -106,12 -159,0 -53,-12 -96,-38 -123,-63 -26,-25 -35,-49 -31,-69 3,-21 21,-38 69,-59 49,-21 130,-46 185,-58 55,-12 86,-10 106,-1 21,9 31,26 39,46z"/>
   <path class="fil58" d="M35925 15350c-111,13 -328,19 -444,17 -115,-1 -128,-9 -133,-20 -6,-10 -3,-23 6,-35 9,-11 25,-20 127,-32 103,-13 291,-29 397,-34 105,-5 128,0 141,10 13,10 17,24 18,42 0,18 -2,39 -112,52z"/>
  </g>
  <polygon class="fil59" points="48792,19559 2,19559 2,17704 48792,17704 "/>
  <path class="fil58" style="mask:url(#id0)" d="M30385 15712c-109,75 -279,207 -401,285 -122,78 -196,102 -415,208 -220,105 -586,293 -1084,480 -498,188 -1128,375 -1628,488 -500,113 -870,151 -1055,170 -185,20 -185,20 -185,20 0,0 0,0 0,0 0,0 0,0 0,-434 0,-435 0,-1303 0,-1737 0,-434 0,-434 0,-434 0,0 0,0 829,141 828,141 2486,422 3291,571 805,150 757,167 648,242z"/>
  <rect class="fil60" x="3889" y="13758" width="156" height="3851"/>
  <rect class="fil60" x="8139" y="13774" width="156" height="3835"/>
  <g id="_2073886268816">
   <path class="fil58" d="M3085 10502c20,-4 57,-3 78,-4 55,-1 109,-1 164,-1 187,-2 375,-2 562,-3 561,-1 1122,-1 1683,0 564,0 1129,1 1694,2 260,0 519,1 779,1 201,0 403,-3 604,-4 137,0 274,-1 411,2 48,1 97,2 145,5 26,1 67,3 91,12 117,47 144,153 144,269l0 3101 0 0c-2,112 -66,214 -179,237 -15,3 -34,3 -48,4 -29,0 -57,1 -85,1 -95,1 -189,2 -284,2 -278,1 -557,1 -835,1 -413,-1 -826,-3 -1239,-3 -213,0 -427,1 -640,2 -402,1 -803,1 -1205,2 -420,0 -839,0 -1259,-3 -141,0 -283,-1 -424,-4 -42,-1 -84,-2 -125,-4 -21,-1 -54,-1 -73,-9 -117,-47 -144,-152 -144,-268l0 -3101 0 0c2,-120 66,-211 185,-237z"/>
   <path class="fil61" d="M8909 13364l149 106c-19,34 -57,71 -75,105 -23,-11 -137,-97 -149,-109l-211 -155c-78,-61 -172,50 -292,19 3,38 6,61 -9,92 146,4 126,51 200,112 64,-18 71,-17 115,17 -1,-56 7,-100 49,-122 51,50 48,54 36,136 61,-31 88,-7 120,28 -14,31 -18,27 -40,50 37,29 130,33 118,86 -33,24 -87,5 -129,-4l-8 53c-76,3 -97,-18 -118,-74 -30,41 -44,52 -105,60 -5,-51 0,-83 26,-113 -49,-39 -53,-23 -111,-40 -2,-1 -4,-6 -5,-5 -6,13 -31,-92 -58,-109l-86 -31 -16 22c-56,-14 6,-21 -65,-28 -56,-6 -41,9 -77,9l-19 -20c-78,-21 -165,-54 -242,-80 -39,-13 -112,-19 -134,-30l-99 -68 -3 69c136,-23 79,65 39,105l40 20c78,-51 175,-127 252,39 13,27 45,149 50,156 7,10 91,45 65,136 -20,67 -96,45 -122,3 -42,-64 -4,-84 -82,-123 -47,-24 -99,-28 -148,-57 -40,-24 -25,-33 -52,-47 -35,-20 -41,-17 -74,-39 -1,39 -11,65 -38,86 0,0 -14,9 -14,9l-22 2c-16,1 -11,-6 -42,25 -67,66 -162,96 -225,3 -11,-17 -18,-43 -34,-57 -54,57 -134,122 -223,84 -30,-13 -30,-33 -56,-52 -47,-34 -90,-45 -83,-130 5,-63 41,-104 64,-146 -81,24 -80,9 -115,78 -24,47 -68,93 -130,61 -33,22 -44,61 -156,59 -94,-2 -107,-36 -156,-66 -41,12 -96,101 -199,64 -79,-28 -87,-107 -47,-190 -23,-30 -35,-46 -36,-102 58,-22 77,-18 127,4 -16,-78 -6,-86 13,-151 38,11 53,22 68,52 8,16 10,22 12,43l7 36c1,2 2,5 3,7 1,1 2,4 4,6 31,-40 -11,-42 14,-95 60,-34 84,-8 120,16 -4,-46 -11,-90 24,-134 11,-14 5,-6 13,-14 57,30 69,74 58,152 92,-35 69,-23 140,13 -4,18 -6,26 -14,39l-30 32 132 17c-32,-36 -54,-27 -71,-96 -21,-86 11,-190 111,-214 62,-15 96,3 147,0 -23,-77 -8,-139 40,-184 70,-66 118,-33 193,-2 12,-123 97,-184 232,-150 140,35 106,166 67,275 57,49 124,103 48,221 -19,29 -38,36 -50,63 258,-22 233,124 616,189 1,-2 27,-29 28,-30 14,-22 2,-23 17,-43 -67,-42 -110,-58 -154,-144 -13,-25 -31,-58 -15,-77 -13,-10 -6,0 -15,-17 0,-1 -9,-23 -9,-23 -10,-28 -12,-39 -12,-69l-51 -46c27,-27 30,-5 51,-39 10,-16 14,-39 26,-58 11,-35 -6,-12 27,-30 3,-1 31,-11 36,-12 32,-6 64,3 91,12 -24,-70 -18,-164 40,-202 85,-56 134,-22 205,9 35,-90 170,-218 252,-50 16,32 23,85 43,110 129,-63 253,32 269,96 24,98 -5,209 -129,222 -8,1 -17,1 -24,2l-21 3c-2,0 -4,0 -6,1 2,1 5,0 6,3l51 16c15,5 38,18 49,24 99,60 74,235 3,320zm-4809 -2238c9,35 26,44 72,42 44,-3 65,-13 49,-59 -50,-22 -99,-24 -121,17zm1281 27l1 -46c-34,-6 -119,-36 -125,21 -6,59 88,36 124,25zm2039 -124c-7,-27 -40,-55 -70,-55 -9,0 -30,1 -35,9 -15,1 -33,41 -35,56 1,0 128,-3 142,-4 0,-1 -1,-5 -2,-6zm-785 1397c17,-15 30,-31 30,-40 0,0 41,20 70,20 124,0 79,-4 180,-35 36,-16 65,-31 76,-42 10,-9 29,-21 49,-35 18,-20 50,-57 64,-78 43,-66 76,-90 109,-178 14,20 17,55 19,83 2,31 2,66 -8,92 -27,64 -82,27 -130,57 1,29 7,54 30,65 48,25 93,-13 135,-29 71,-28 117,-61 170,-110 54,-49 28,-52 17,-133 -48,41 -73,98 -127,126 14,-72 11,-115 -4,-184 -6,-28 -14,-53 -20,-80 -13,-51 -1,-36 8,-77 16,-78 -49,-110 -89,-65 -36,40 -8,98 -30,151 -37,88 -85,145 -139,215 -40,52 -68,82 -123,124 -49,38 -83,57 -144,22 10,-36 42,-30 108,-75 156,-107 183,-316 2,-294 -98,12 -176,85 -214,148 -94,156 14,211 -76,262 -15,-57 66,-306 25,-339 -98,-80 -216,225 -274,251 8,-58 23,-128 6,-179 -80,-21 -129,52 -162,100 -35,50 -83,114 -106,168 -24,-52 22,-144 23,-206l-101 28c-7,85 -47,159 -95,227 -23,33 -40,49 -59,68 -6,8 -13,16 -22,22 -3,4 -6,7 -9,10 0,0 -2,-3 -4,-8 -2,-2 1,1 -5,-11 -19,-38 -28,-56 -28,-82 -5,-13 -9,-24 -12,-29 -27,-42 -56,-88 -103,-106 -19,0 -43,3 -74,14 -26,9 -46,20 -61,30 -8,9 -16,18 -31,32 -18,17 -37,59 -49,82 -35,69 -20,133 -80,174 -28,20 -41,9 -30,-17 19,-45 14,-181 -34,-206 -94,-50 -66,-25 -157,-9 -11,5 -23,12 -36,20 -56,37 -99,75 -130,142 -37,81 -9,121 -86,186 -51,43 -89,95 -151,124 3,-51 82,-198 109,-249 66,-124 49,-102 128,-226 40,-63 246,-422 148,-509 -109,-37 -182,198 -222,287 -53,117 -107,236 -154,356 -18,45 -29,49 -55,77l-62 69c-38,41 -82,98 -123,132 -27,24 -303,228 -337,94 35,-17 81,-26 117,-43 280,-127 228,-391 -43,-298 -251,86 -326,493 -54,499 213,4 313,-184 399,-196 -88,131 5,208 138,123 92,-60 157,-128 230,-189 34,35 28,71 90,93 137,50 310,-78 373,-172 36,29 42,77 84,102 39,23 88,26 137,11 145,-43 119,-146 162,-185 1,0 2,-1 3,-2 15,-20 27,-19 75,-74 9,-11 31,-34 45,-34 1,-1 2,-2 3,-2 -1,5 -2,10 -3,15 -2,16 -6,48 -14,82 0,24 6,45 24,61 64,31 121,-110 142,-148l20 -33c2,-3 3,-7 4,-10 5,-17 66,-126 87,-133 37,-13 23,-10 23,46 0,70 -53,193 27,195 23,-4 36,-24 54,-55 72,-118 107,-198 197,-316 0,2 0,4 0,6 3,-3 4,-4 4,-3 -2,41 3,275 32,281 38,8 70,-40 94,-48zm-988 243c45,2 77,-67 77,-110 0,-61 6,-114 -15,-168 -18,-48 -128,-70 -142,1 -21,108 -36,137 31,252 15,25 36,24 49,25zm-1865 151c0,-151 19,-225 44,-362l-279 436c-67,93 -160,224 -234,309 -17,20 -89,76 -125,33 -35,-36 51,-156 72,-193l328 -561c102,-198 -68,-327 -238,-180 -42,37 -113,100 -97,195 21,134 156,69 187,93 23,27 13,54 -7,75 -39,40 -200,44 -268,-46 -134,-178 135,-577 391,-507 155,42 165,200 186,266l12 26c16,-52 172,-309 220,-398 29,-54 46,-101 107,-108 89,55 18,165 -9,239 -23,63 -64,198 -65,271 27,-33 73,-140 101,-187 39,-64 73,-119 114,-173 86,-110 174,-211 314,-262 134,-48 366,-15 310,62 -18,24 -73,31 -106,43 -63,24 -141,67 -190,99 -93,60 -172,121 -240,195 -206,226 -443,597 -351,921 10,34 35,79 33,108 -2,39 -38,68 -81,63 -88,-12 -129,-358 -129,-457zm5029 -1014c40,2 42,-23 74,-87l104 -224c34,-74 14,-53 102,-71l-56 345c45,-9 75,-71 112,-98 10,19 20,62 11,82 -8,16 -151,164 -200,112 -22,-29 -5,-72 2,-110l-32 41c-30,45 -106,172 -169,146 -42,-16 -34,-58 -32,-100 -55,48 -32,20 -99,49 -30,76 -62,126 -151,145 -139,29 -164,-86 -182,-108l-86 103c-43,48 -97,113 -171,149 -51,25 -31,11 -58,67 -14,29 -30,55 -46,84 -51,96 -138,255 -267,243 -155,-16 -78,-187 40,-289 21,-18 48,-41 72,-59l80 -57c-246,-16 -56,-254 14,-344 19,-24 31,-29 16,-58 -57,23 -120,198 -189,139 -59,-49 59,-147 87,-182l72 -76c33,-30 68,-39 115,-29 66,128 -100,298 -97,424 29,2 43,-30 81,-83 25,-35 43,-66 67,-105 70,-115 69,-213 106,-240 42,-32 98,-3 101,46 2,30 -30,99 -42,129l-109 237c21,-23 51,-48 76,-73 54,-55 120,-112 139,-183 11,-44 26,-83 50,-113 121,-156 289,-84 289,12 -1,61 -28,-1 4,86l14 31c99,-49 138,-184 163,-284 12,-47 1,-43 93,-59l-98 362zm-2397 -894l93 0c-1,70 -33,249 57,247 82,-3 60,-124 59,-246l92 -1 -1 331c-149,-1 -40,-25 -131,-1 -222,58 -166,-236 -169,-330zm1052 279c-109,139 -333,0 -253,-189 72,-172 311,-104 281,105l-203 -1c24,61 69,79 110,29 38,19 38,26 65,56zm-3760 49l-123 -227 1 226 -90 4 0 -454 93 0 118 244 122 -243 90 -2 0 455 -90 -1 0 -234 -18 26c-4,7 -9,19 -14,28l-89 178zm4325 -457l1 128 84 4 -2 77 -83 -1c2,91 -31,211 83,151 -9,40 -11,84 -45,98 -31,13 -76,8 -99,-15 -40,-39 -29,-166 -26,-234l-63 1 -1 -78 62 -4 2 -95 87 -32zm-315 -1l1 130 84 -1 -3 81 -82 0c2,95 -30,212 83,148 -6,35 -11,87 -43,100 -30,13 -78,7 -100,-12 -44,-37 -30,-169 -28,-236 -29,0 -39,3 -62,-5l-1 -66c19,-9 17,-8 62,-7l-1 -95 90 -37zm-1645 460l-91 0 0 -428 90 -32 2 144c71,-34 161,-29 196,37 21,41 10,219 12,279l-92 -1c2,-113 24,-256 -57,-251 -84,5 -60,120 -60,252zm-198 -58c-147,142 -295,21 -296,-107 -2,-174 220,-231 296,-107 -16,26 -34,49 -57,69 -1,-1 -2,-4 -3,-5 -1,-1 -3,-4 -4,-5l-12 -15c-21,-24 -45,-28 -77,-19 -76,22 -69,146 9,162 51,11 67,-20 87,-37l57 64zm2576 -166c-43,-14 -101,-47 -152,-15 16,41 47,11 137,55 93,46 92,183 -77,189 -75,2 -102,-13 -161,-27l35 -85c47,18 129,44 170,8 -31,-49 -228,-28 -194,-167 31,-121 225,-55 276,-40l-34 82zm-1374 0c-42,-13 -111,-49 -154,-13 18,40 256,33 190,182 -37,81 -210,69 -289,28l33 -79c47,14 129,45 172,7 -30,-49 -229,-29 -193,-167 33,-125 235,-51 274,-41l-33 83zm-1606 222c-39,4 -56,0 -91,-2 -23,-1 -48,8 -79,9 -189,1 -183,-279 82,-219 -14,-68 -100,-41 -152,-18l-32 -75c80,-25 183,-64 244,15 45,58 25,209 28,290zm-425 -221c-47,-15 -104,-49 -155,-17 15,44 52,12 134,54 39,20 86,64 56,130 -39,84 -207,69 -289,30l33 -80c36,12 97,30 138,23 38,-6 27,-9 34,-28 -48,-23 -235,-35 -191,-162 39,-113 227,-46 273,-33l-33 83zm-376 -1c-39,-15 -106,-45 -150,-15 9,27 -13,6 20,21 8,4 29,7 40,9 74,15 163,57 129,151 -36,97 -204,58 -290,35l32 -83c48,14 130,43 173,8 -30,-54 -232,-24 -193,-171 25,-96 202,-80 274,-33l-35 78zm-629 -81c302,-91 275,34 274,306 -32,0 -62,-3 -88,-4 -29,-2 -162,38 -201,-55 -41,-95 29,-194 201,-156 -23,-75 -105,-34 -154,-17l-32 -74zm-940 -371c-82,17 -132,77 -134,174l0 3100c0,107 24,175 103,208 61,25 3467,11 3702,11 53,0 2419,8 2478,-4 75,-15 126,-84 127,-174l0 -3100c0,-107 -24,-176 -103,-208 -64,-26 -1069,-11 -1227,-11 -3,0 -4882,-10 -4946,4z"/>
   <path class="fil62" d="M3782 12820c0,99 41,445 129,457 43,5 79,-24 81,-63 2,-29 -23,-74 -33,-108 -92,-324 145,-695 351,-921 68,-74 147,-135 240,-195 49,-32 127,-75 190,-99 33,-12 88,-19 106,-43 56,-77 -176,-110 -310,-62 -140,51 -228,152 -314,262 -41,54 -75,109 -114,173 -28,47 -74,154 -101,187 1,-73 42,-208 65,-271 27,-74 98,-184 9,-239 -61,7 -78,54 -107,108 -48,89 -204,346 -220,398l-12 -26c-21,-66 -31,-224 -186,-266 -256,-70 -525,329 -391,507 68,90 229,86 268,46 20,-21 30,-48 7,-75 -31,-24 -166,41 -187,-93 -16,-95 55,-158 97,-195 170,-147 340,-18 238,180l-328 561c-21,37 -107,157 -72,193 36,43 108,-13 125,-33 74,-85 167,-216 234,-309l279 -436c-25,137 -44,211 -44,362z"/>
   <path class="fil63" d="M8029 13659c-10,7 -18,12 -29,21 -22,17 -4,9 -31,23 -40,-62 -104,-56 -176,-88 -79,-34 -79,-102 -10,-152 155,-113 227,40 246,196zm-756 -131c34,-16 50,-25 63,-60 1,1 3,2 4,5 0,2 16,30 37,40 21,11 46,11 74,10 8,-11 6,-13 16,-26 20,23 38,24 78,20 -9,47 -2,44 7,84 -26,32 -97,109 -172,98 -60,-9 -102,-100 -107,-171zm-116 -184c50,15 26,8 49,44 16,26 31,23 56,40 -55,98 42,111 -30,182 -36,35 -106,91 -185,59 -129,-51 81,-302 110,-325zm-946 167c60,-5 81,-43 105,-88 26,46 21,33 56,63 -32,46 -116,78 -176,41 -24,-16 -43,-40 -42,-82 1,-32 13,-77 49,-70 9,17 5,-1 3,24 -2,32 -15,52 5,112zm519 -178l80 14c-3,61 -13,89 -75,93l-5 -107zm259 282c-137,-52 -32,-227 29,-283l16 69c104,-60 56,-64 100,-90 11,35 -9,40 -33,70 -54,67 -98,143 -112,234zm-542 -119c0,-4 11,-8 15,-28 4,-17 -1,-37 -2,-54 20,-8 34,-14 47,-26l27 -32c2,-2 4,-5 5,-6 1,-1 2,-4 4,-5 17,64 64,77 137,75 15,-112 -29,-95 4,-108 52,-20 33,145 21,167 -43,84 -196,70 -258,17zm928 -165c5,-51 -12,-39 149,-63 -11,59 2,98 20,140 -90,-24 -66,31 -120,15 16,-27 10,-13 37,-35 21,-17 20,-13 28,-41 -36,-47 -73,-33 -114,-16zm-440 -164c-8,81 26,82 76,106 -6,3 -3,3 -19,7l-65 6c-87,-2 -169,-37 -168,-145 0,-137 127,-195 250,-142 35,27 17,80 40,162 -43,-20 -76,-19 -114,6zm513 -138c31,-11 61,-68 80,-100 182,100 -29,293 -83,311 -16,-35 -40,-76 -60,-108 125,-30 72,-77 63,-103zm-312 114c1,-42 -6,-72 -32,-98 -51,-50 -45,4 -70,-37 -34,-56 -30,-145 11,-193 62,-73 155,-40 180,-14 30,33 26,196 29,225 -34,-22 -62,-55 -117,-20 -19,60 3,78 37,110 -5,7 0,5 -18,17 -13,9 -1,2 -20,10zm130 -225c-11,-90 -28,-190 37,-239 57,-44 172,-40 223,10 62,61 16,171 -15,230 -16,32 -39,70 -58,91 -34,36 -42,2 -111,27 18,-87 2,-103 -40,-148 -25,15 -9,18 -36,29zm883 531c-7,-38 -9,-26 2,-63 -383,-65 -358,-211 -616,-189 12,-27 31,-34 50,-63 76,-118 9,-172 -48,-221 39,-109 73,-240 -67,-275 -135,-34 -220,27 -232,150 -75,-31 -123,-64 -193,2 -48,45 -63,107 -40,184 -51,3 -85,-15 -147,0 -100,24 -132,128 -111,214 17,69 39,60 71,96l-132 -17 30 -32c8,-13 10,-21 14,-39 -71,-36 -48,-48 -140,-13 11,-78 -1,-122 -58,-152 -8,8 -2,0 -13,14 -35,44 -28,88 -24,134 -36,-24 -60,-50 -120,-16 -25,53 17,55 -14,95 -2,-2 -3,-5 -4,-6 -1,-2 -2,-5 -3,-7l-7 -36c-2,-21 -4,-27 -12,-43 -15,-30 -30,-41 -68,-52 -19,65 -29,73 -13,151 -50,-22 -69,-26 -127,-4 1,56 13,72 36,102 -40,83 -32,162 47,190 103,37 158,-52 199,-64 49,30 62,64 156,66 112,2 123,-37 156,-59 62,32 106,-14 130,-61 35,-69 34,-54 115,-78 -23,42 -59,83 -64,146 -7,85 36,96 83,130 26,19 26,39 56,52 89,38 169,-27 223,-84 16,14 23,40 34,57 63,93 158,63 225,-3 31,-31 26,-24 42,-25l22 -2c0,0 14,-9 14,-9 27,-21 37,-47 38,-86 33,22 39,19 74,39 27,14 12,23 52,47 49,29 101,33 148,57 78,39 40,59 82,123 26,42 102,64 122,-3 26,-91 -58,-126 -65,-136 -5,-7 -37,-129 -50,-156 -77,-166 -174,-90 -252,-39l-40 -20c40,-40 97,-128 -39,-105l3 -69 99 68c22,11 95,17 134,30 77,26 164,59 242,80z"/>
   <path class="fil62" d="M7647 12493c-20,-74 68,-114 139,-170 14,-10 40,-35 58,-42 -4,85 -120,223 -197,212zm892 -618c-64,112 -159,68 -147,-73 7,-77 78,-209 160,-92 -20,24 -44,27 -48,75 -4,48 21,62 35,90zm370 -431c-92,16 -81,12 -93,59 -25,100 -64,235 -163,284l-14 -31c-32,-87 -5,-25 -4,-86 0,-96 -168,-168 -289,-12 -24,30 -39,69 -50,113 -19,71 -85,128 -139,183 -25,25 -55,50 -76,73l109 -237c12,-30 44,-99 42,-129 -3,-49 -59,-78 -101,-46 -37,27 -36,125 -106,240 -24,39 -42,70 -67,105 -38,53 -52,85 -81,83 -3,-126 163,-296 97,-424 -47,-10 -82,-1 -115,29l-72 76c-28,35 -146,133 -87,182 69,59 132,-116 189,-139 15,29 3,34 -16,58 -70,90 -260,328 -14,344l-80 57c-24,18 -51,41 -72,59 -118,102 -195,273 -40,289 129,12 216,-147 267,-243 16,-29 32,-55 46,-84 27,-56 7,-42 58,-67 74,-36 128,-101 171,-149l86 -103c18,22 43,137 182,108 89,-19 121,-69 151,-145 67,-29 44,-1 99,-49 -2,42 -10,84 32,100 63,26 139,-101 169,-146l32 -41c-7,38 -24,81 -2,110 49,52 192,-96 200,-112 9,-20 -1,-63 -11,-82 -37,27 -67,89 -112,98l56 -345c-88,18 -68,-3 -102,71l-104 224c-32,64 -34,89 -74,87l98 -362z"/>
   <path class="fil63" d="M8640 12781c110,-72 6,-85 131,-106 136,-23 248,108 178,243 -31,60 -89,65 -174,61 22,-40 33,-22 37,-78 -54,-12 -67,-13 -101,15 -19,-53 -31,-84 -71,-135zm-440 49c-24,-54 -45,-142 5,-195 111,-119 293,54 264,131 -14,35 -23,53 -32,86 0,2 -1,8 -2,9 0,2 -1,4 -2,5 -9,22 -13,15 -27,61 -79,-11 -148,-42 -206,-97zm225 -197c16,-44 91,-145 159,-131 57,13 110,148 99,191 -41,8 -48,-11 -84,16 -5,-67 -1,-86 -52,-108 -24,28 -29,59 -21,105 -128,-51 -35,-13 -101,-73zm-254 177l29 20c-12,23 -47,53 -90,55 -47,3 -63,-27 -93,-45 -12,19 -16,42 -26,58 -21,34 -24,12 -51,39l51 46 103 16 -67 93c-16,19 2,52 15,77 44,86 87,102 154,144 37,8 77,23 116,16l19 1c120,31 214,-80 292,-19l211 155 -36 -42c-16,-12 -29,-19 -43,-31 -253,-222 -139,-108 -285,-133 -42,-8 -74,-24 -105,-44 -15,-10 -29,-20 -44,-31l-113 -117c-23,-32 -40,-72 -20,-112 71,-80 186,4 243,4 -5,28 -14,42 16,67 30,24 2,5 26,16 36,-39 26,-41 44,-61 26,65 171,151 195,259 33,30 15,3 19,0 -22,-67 -57,-97 -69,-125 31,-35 26,-25 47,-70 30,35 92,59 112,-1l5 -17c73,27 117,41 127,129 9,76 -23,165 -60,198l16 9c71,-85 96,-260 -3,-320 -11,-6 -34,-19 -49,-24l-51 -16c-1,-3 -4,-2 -6,-3 2,-1 4,-1 6,-1l21 -3c7,-1 16,-1 24,-2 124,-13 153,-124 129,-222 -16,-64 -140,-159 -269,-96 -20,-25 -27,-78 -43,-110 -82,-168 -217,-40 -252,50 -71,-31 -120,-65 -205,-9 -58,38 -64,132 -40,202z"/>
   <path class="fil64" d="M8834 13466c12,12 126,98 149,109 18,-34 56,-71 75,-105l-149 -106 -16 -9c-25,-9 -151,-88 -162,-114 -4,3 14,30 -19,0 -14,-10 -21,-12 -32,-20l-59 -48c-26,-26 -102,-79 -148,-130 -24,-11 4,8 -26,-16 -30,-25 -21,-39 -16,-67 -57,0 -172,-84 -243,-4 -20,40 -3,80 20,112l113 117c15,11 29,21 44,31 31,20 63,36 105,44 146,25 32,-89 285,133 14,12 27,19 43,31l36 42z"/>
   <path class="fil63" d="M8326 13466l86 31c27,17 52,122 58,109 1,-1 3,4 5,5 58,17 62,1 111,40 -26,30 -31,62 -26,113 61,-8 75,-19 105,-60 21,56 42,77 118,74l8 -53c42,9 96,28 129,4 12,-53 -81,-57 -118,-86 22,-23 26,-19 40,-50 -32,-35 -59,-59 -120,-28 12,-82 15,-86 -36,-136 -42,22 -50,66 -49,122 -44,-34 -51,-35 -115,-17 -74,-61 -54,-108 -200,-112 -14,20 -3,14 4,44z"/>
   <path class="fil65" d="M7266 12918c27,-11 11,-14 36,-29 42,45 58,61 40,148 69,-25 77,9 111,-27 19,-21 42,-59 58,-91 31,-59 77,-169 15,-230 -51,-50 -166,-54 -223,-10 -65,49 -48,149 -37,239z"/>
   <path class="fil65" d="M8200 12830c58,55 127,86 206,97 14,-46 18,-39 27,-61 1,-1 2,-3 2,-5 1,-1 2,-7 2,-9 9,-33 18,-51 32,-86 29,-77 -153,-250 -264,-131 -50,53 -29,141 -5,195z"/>
   <path class="fil65" d="M8640 12781c40,51 52,82 71,135 34,-28 47,-27 101,-15 -4,56 -15,38 -37,78 85,4 143,-1 174,-61 70,-135 -42,-266 -178,-243 -125,21 -21,34 -131,106z"/>
   <path class="fil61" d="M5433 12462c-95,0 -46,-4 -76,43l-108 21c45,-280 -265,61 -132,188 62,58 166,-26 202,-54 23,-19 94,-92 102,-120 5,-16 9,-59 12,-78z"/>
   <path class="fil65" d="M6935 13167c38,-25 71,-26 114,-6 -23,-82 -5,-135 -40,-162 -123,-53 -250,5 -250,142 -1,108 81,143 168,145l65 -6c16,-4 13,-4 19,-7 -50,-24 -84,-25 -76,-106z"/>
   <path class="fil65" d="M8731 13241c11,26 137,105 162,114 37,-33 69,-122 60,-198 -10,-88 -54,-102 -127,-129l-5 17c-20,60 -82,36 -112,1 -21,45 -16,35 -47,70 12,28 47,58 69,125z"/>
   <path class="fil65" d="M7157 13344c-29,23 -239,274 -110,325 79,32 149,-24 185,-59 72,-71 -25,-84 30,-182 -25,-17 -40,-14 -56,-40 -23,-36 1,-29 -49,-44z"/>
   <path class="fil65" d="M7136 13143c19,-8 7,-1 20,-10 18,-12 13,-10 18,-17 -34,-32 -56,-50 -37,-110 55,-35 83,-2 117,20 -3,-29 1,-192 -29,-225 -25,-26 -118,-59 -180,14 -41,48 -45,137 -11,193 25,41 19,-13 70,37 26,26 33,56 32,98z"/>
   <path class="fil65" d="M8029 13659c-19,-156 -91,-309 -246,-196 -69,50 -69,118 10,152 72,32 136,26 176,88 27,-14 9,-6 31,-23 11,-9 19,-14 29,-21z"/>
   <path class="fil65" d="M7545 13517c-40,4 -58,3 -78,-20 -10,13 -8,15 -16,26 -28,1 -53,1 -74,-10 -21,-10 -37,-38 -37,-40 -1,-3 -3,-4 -4,-5 -13,35 -29,44 -63,60 5,71 47,162 107,171 75,11 146,-66 172,-98 -9,-40 -16,-37 -7,-84z"/>
   <path class="fil65" d="M6447 13496c62,53 215,67 258,-17 12,-22 31,-187 -21,-167 -33,13 11,-4 -4,108 -73,2 -120,-11 -137,-75 -2,1 -3,4 -4,5 -1,1 -3,4 -5,6l-27 32c-13,12 -27,18 -47,26 1,17 6,37 2,54 -4,20 -15,24 -15,28z"/>
   <path class="fil65" d="M7448 13029c9,26 62,73 -63,103 20,32 44,73 60,108 54,-18 265,-211 83,-311 -19,32 -49,89 -80,100z"/>
   <path class="fil65" d="M8425 12633c66,60 -27,22 101,73 -8,-46 -3,-77 21,-105 51,22 47,41 52,108 36,-27 43,-8 84,-16 11,-43 -42,-178 -99,-191 -68,-14 -143,87 -159,131z"/>
   <path class="fil61" d="M8539 11875c-14,-28 -39,-42 -35,-90 4,-48 28,-51 48,-75 -82,-117 -153,15 -160,92 -12,141 83,185 147,73z"/>
   <path class="fil61" d="M5711 12590c-1,-2 -4,-6 -4,-4 -1,1 -4,-4 -5,-5l-31 -35c-13,-25 -12,-53 -8,-82 -89,-2 -59,-25 -103,-52 -18,80 -41,138 1,219 44,84 123,36 150,-41z"/>
   <path class="fil65" d="M6989 13615c14,-91 58,-167 112,-234 24,-30 44,-35 33,-70 -44,26 4,30 -100,90l-16 -69c-61,56 -166,231 -29,283z"/>
   <path class="fil66" d="M8151 13386c-11,37 -9,25 -2,63l19 20c36,0 21,-15 77,-9 71,7 9,14 65,28l16 -22c-7,-30 -18,-24 -4,-44 15,-31 12,-54 9,-92l-19 -1c3,36 4,33 -12,50l-25 29 -69 -10c4,-35 3,-61 -10,-85 -15,20 -3,21 -17,43 -1,1 -27,28 -28,30z"/>
   <path class="fil61" d="M7647 12493c77,11 193,-127 197,-212 -18,7 -44,32 -58,42 -71,56 -159,96 -139,170z"/>
   <path class="fil67" d="M8473 13043c46,51 122,104 148,130l59 48c11,8 18,10 32,20 -24,-108 -169,-194 -195,-259 -18,20 -8,22 -44,61z"/>
   <path class="fil68" d="M6211 13511c-20,-60 -7,-80 -5,-112 2,-25 6,-7 -3,-24 -36,-7 -48,38 -49,70 -1,42 18,66 42,82 60,37 144,5 176,-41 -35,-30 -30,-17 -56,-63 -24,45 -45,83 -105,88z"/>
   <path class="fil61" d="M4173 12752c52,-10 234,-86 180,-146 -35,-37 -107,24 -120,37 -16,17 -56,75 -60,109z"/>
   <path class="fil69" d="M6750 12192c30,-8 77,-38 99,-58 26,-24 57,-52 46,-104 -78,-19 -139,82 -145,162z"/>
   <path class="fil70" d="M8017 12840c30,18 46,48 93,45 43,-2 78,-32 90,-55l-29 -20c-27,-9 -59,-18 -91,-12 -5,1 -33,11 -36,12 -33,18 -16,-5 -27,30z"/>
   <path class="fil71" d="M7375 13331c41,-17 78,-31 114,16 -8,28 -7,24 -28,41 -27,22 -21,8 -37,35 54,16 30,-39 120,-15 -18,-42 -31,-81 -20,-140 -161,24 -144,12 -149,63z"/>
   <path class="fil61" d="M8312 13329c-39,7 -79,-8 -116,-16 13,24 14,50 10,85l69 10 25 -29c16,-17 15,-14 12,-50z"/>
   <path class="fil72" d="M5668 12451c16,-19 27,-25 27,-64 -16,-8 -84,-48 -101,-1 -19,52 28,68 74,65z"/>
   <path class="fil71" d="M6151 12437c19,10 24,14 52,15 17,-27 20,-83 21,-121 -54,0 -37,-2 -61,38 -21,34 -21,27 -12,68z"/>
   <path class="fil69" d="M6735 13440c62,-4 72,-32 75,-93l-80 -14 5 107z"/>
   <path class="fil70" d="M8027 13092l67 -93 -103 -16c0,30 2,41 12,69 0,0 9,22 9,23 9,17 2,7 15,17z"/>
  </g>
  <path class="fil73" d="M46595 14687c299,-10 1361,1954 150,2220l31 708 -224 0 28 -704c-1200,-201 -283,-2214 15,-2224z"/>
  <path class="fil74" d="M45331 10896c637,-21 2936,4251 159,4671l-16 2c-2771,-251 -780,-4652 -143,-4673z"/>
  <polygon class="fil75" points="45491,11966 45735,17607 45219,17607 45385,13354 45423,12010 "/>
  <path class="fil75" d="M45390 15048c0,0 -745,-641 -806,-726 -60,-85 -145,-15 -145,-15l932 1031 19 -290z"/>
  <polygon class="fil75" points="45527,14256 46232,13360 46250,13438 45564,14488 "/>
  <polygon class="fil75" points="45560,14936 46458,14366 46460,14442 45534,15104 "/>
  <polygon class="fil75" points="45386,13745 44720,12870 44705,12986 45395,14035 "/>
  <path class="fil76" d="M43638 11484c637,-21 2936,4251 160,4671l-17 3c-2770,-252 -779,-4653 -143,-4674z"/>
  <polygon class="fil77" points="43799,12554 44016,17607 43549,17607 43692,13943 43730,12598 "/>
  <path class="fil77" d="M43697 15636c0,0 -745,-641 -805,-726 -61,-85 -146,-15 -146,-15l932 1031 19 -290z"/>
  <polygon class="fil77" points="43834,14844 44539,13948 44557,14026 43872,15076 "/>
  <polygon class="fil77" points="43867,15524 44766,14954 44767,15030 43842,15692 "/>
  <polygon class="fil77" points="43693,14333 43027,13458 43012,13574 43703,14623 "/>
 </g>
</svg>
