<?xml version="1.0" encoding="UTF-8"?>
<!DOCTYPE svg PUBLIC "-//W3C//DTD SVG 1.1//EN" "http://www.w3.org/Graphics/SVG/1.1/DTD/svg11.dtd">
<!-- Creator: CorelDRAW X8 -->
<svg xmlns="http://www.w3.org/2000/svg" xml:space="preserve" width="4881px" height="1956px" version="1.1" style="shape-rendering:geometricPrecision; text-rendering:geometricPrecision; image-rendering:optimizeQuality; fill-rule:evenodd; clip-rule:evenodd"
viewBox="0 0 48801 19558"
 xmlns:xlink="http://www.w3.org/1999/xlink">
 <defs>
  <style type="text/css">
   <![CDATA[
    .str0 {stroke:#373435;stroke-width:41.6537}
    .str2 {stroke:#313131;stroke-width:41.6537}
    .str6 {stroke:black;stroke-width:20.8327}
    .str1 {stroke:#424242;stroke-width:20.8327}
    .str3 {stroke:black;stroke-width:8.99917}
    .str4 {stroke:#B5EEFF;stroke-width:8.99917}
    .str5 {stroke:#E6E6E6;stroke-width:8.99917}
    .fil21 {fill:none}
    .fil17 {fill:#373435}
    .fil24 {fill:#EFB783}
    .fil68 {fill:#003D2E}
    .fil69 {fill:#003D2E}
    .fil67 {fill:#00482C}
    .fil39 {fill:#0B3859}
    .fil79 {fill:#0C5B24}
    .fil52 {fill:#121710}
    .fil27 {fill:#1369B6}
    .fil59 {fill:#1B1B1C}
    .fil35 {fill:#1C1C1C}
    .fil31 {fill:#20547B}
    .fil11 {fill:#313131}
    .fil34 {fill:#33322E}
    .fil40 {fill:#333333}
    .fil73 {fill:#333333}
    .fil30 {fill:#362D24}
    .fil32 {fill:#3689BB}
    .fil26 {fill:#3890D0}
    .fil14 {fill:#424242}
    .fil10 {fill:#464646}
    .fil18 {fill:#4A4A4A}
    .fil44 {fill:#4D4D4D}
    .fil43 {fill:#525252}
    .fil19 {fill:#5C707B}
    .fil20 {fill:#71848B}
    .fil12 {fill:#757575}
    .fil60 {fill:#767B7F}
    .fil36 {fill:#797977}
    .fil54 {fill:#7A838A}
    .fil46 {fill:gray}
    .fil61 {fill:#99A3AC}
    .fil78 {fill:#9BA948}
    .fil55 {fill:#9CADB7}
    .fil62 {fill:#AAB5C5}
    .fil58 {fill:#ADBACA}
    .fil76 {fill:#AFAC27}
    .fil77 {fill:#B17130}
    .fil42 {fill:#B5EEFF}
    .fil28 {fill:#B96F48}
    .fil65 {fill:#BABABA}
    .fil57 {fill:#BACADA}
    .fil51 {fill:#C1C2C9}
    .fil22 {fill:#C1CFCF}
    .fil75 {fill:#C5C02E}
    .fil37 {fill:#C77066}
    .fil8 {fill:#C8382F}
    .fil15 {fill:#CACACA}
    .fil41 {fill:#CCCCCC}
    .fil50 {fill:#CDCED3}
    .fil6 {fill:#CFB175}
    .fil56 {fill:#D2D7DD}
    .fil74 {fill:#D8CE9E}
    .fil9 {fill:#DF7E77}
    .fil7 {fill:#DFE9EB}
    .fil38 {fill:#E09474}
    .fil49 {fill:#E0E7ED}
    .fil45 {fill:#E6E6E6}
    .fil47 {fill:#E6EEF1}
    .fil25 {fill:#EC9956}
    .fil33 {fill:#ECB31E}
    .fil29 {fill:#EDD89F}
    .fil16 {fill:#EFEFEF}
    .fil48 {fill:#F1FAFF}
    .fil0 {fill:#F2F2F2}
    .fil53 {fill:#F2FBFF}
    .fil66 {fill:#FAFAFB}
    .fil70 {fill:#FF6600}
    .fil13 {fill:white}
    .fil63 {fill:white}
    .fil72 {fill:white}
    .fil23 {fill:#464646;fill-rule:nonzero}
    .fil5 {fill:#E3E3E3;fill-rule:nonzero}
    .fil3 {fill:#E6E6E6;fill-rule:nonzero}
    .fil71 {fill:white;fill-rule:nonzero}
    .fil2 {fill:#E3E3E3;fill-rule:nonzero;fill-opacity:0.141176}
    .fil64 {fill:#BC8D59}
    .fil1 {fill:#E6E6E6;fill-rule:nonzero}
    .fil4 {fill:url(#id2);fill-rule:nonzero;fill-opacity:0.321569}
   ]]>
  </style>
   <mask id="id0">
  <linearGradient id="id1" gradientUnits="userSpaceOnUse" x1="25627.2" y1="16059.5" x2="30455.2" y2="16059.5">
   <stop offset="0" style="stop-opacity:0; stop-color:white"/>
   <stop offset="1" style="stop-opacity:1; stop-color:white"/>
  </linearGradient>
    <rect style="fill:url(#id1)" x="25617" y="14747" width="4849" height="2625"/>
   </mask>
  <linearGradient id="id2" gradientUnits="userSpaceOnUse" x1="20560.5" y1="16252.2" x2="21913" y2="16252.2">
   <stop offset="0" style="stop-opacity:1; stop-color:#64691F"/>
   <stop offset="1" style="stop-opacity:1; stop-color:#9E8926"/>
  </linearGradient>
 </defs>
 <g id="Слой_x0020_1">
  <metadata id="CorelCorpID_0Corel-Layer"/>
  <rect class="fil0" x="13" width="48787" height="19558"/>
  <path class="fil1" d="M34562 19558c3527,-2057 6995,-4316 8860,-6181 -11727,-3240 -36070,-4138 -43422,-4341l0 10522 34562 0z"/>
  <path class="fil2" d="M29330 11730c-1786,-616 -5852,-1231 -10509,-1757 -7993,-587 -15326,-841 -18821,-937l0 7694 22009 -2804 -14824 -2196c0,0 19582,-183 22145,0z"/>
  <path class="fil1" d="M48799 10513c-1550,68 -3540,296 -5769,645 156,-110 677,-493 677,-734 0,-127 -150,-668 -332,-1277l-283 318 247 -436c-77,-255 -158,-519 -235,-765l-230 259 200 -355c-185,-590 -339,-1064 -339,-1064 0,0 -407,1255 -694,2229l420 743 -468 -611c-127,438 -229,860 -229,959 0,283 728,810 728,810l12 8c-1146,186 -2350,402 -3586,645l130 -70c0,0 494,-329 494,-524 0,-87 -103,-458 -228,-876l-194 218 170 -299c-53,-175 -109,-356 -162,-525l-158 178 138 -243c-127,-406 -233,-731 -233,-731 0,0 -279,861 -476,1529l289 510 -322 -419c-87,301 -157,590 -157,658 0,195 500,556 500,556l77 51 0 13c-2368,467 -4848,1027 -7260,1647 -9253,2380 -13909,3478 -13909,3478l4859 2520 26323 0 0 -9045z"/>
  <path class="fil3" d="M0 18477c6743,132 14913,278 18116,278 -1701,-3033 -6634,-6875 -10253,-9428 -3332,-153 -6091,-242 -7863,-291l0 9441z"/>
  <path class="fil3" d="M2551 11294l588 -1040c-402,-1362 -971,-3117 -971,-3117 0,0 -215,662 -474,1489l280 495 -322 -362c-107,345 -221,713 -328,1070l345 611 -395 -445c-255,852 -465,1608 -465,1786 0,396 1008,1068 1008,1068l353 190 -3 303 197 0 -15 -323 159 -105c0,0 1019,-737 1019,-1133 0,-139 -143,-729 -320,-1341l-656 854zm-2538 2079l0 6185 37595 0c-9606,-3284 -19586,-4849 -27459,-5585l-5 -123 141 -95c0,0 909,-656 909,-1010 0,-124 -127,-650 -285,-1197l-585 763 524 -928c-358,-1215 -866,-2781 -866,-2781 0,0 -192,591 -423,1328l250 443 -287 -323c-96,307 -197,635 -293,954l308 544 -353 -396c-227,760 -415,1434 -415,1593 0,354 899,953 899,953l316 169 -1 90c-3978,-368 -7410,-524 -9970,-584zm5757 -316l-5 378 247 0 -18 -403 198 -132c0,0 1275,-921 1275,-1417 0,-174 -179,-912 -401,-1678l-820 1069 736 -1301c-503,-1704 -1215,-3900 -1215,-3900 0,0 -269,828 -593,1862l351 621 -403 -454c-135,432 -277,892 -411,1339l431 764 -494 -556c-319,1065 -582,2011 -582,2234 0,496 1261,1336 1261,1336l443 238z"/>
  <path class="fil4" d="M21361 15467c0,0 -480,29 -538,73 -58,44 -276,1250 -262,1497 58,-29 1236,-1148 1352,-1293 -29,-117 -552,-277 -552,-277z"/>
  <path class="fil5" d="M17147 9372l139 -245c-95,-322 -230,-737 -230,-737 0,0 -51,157 -112,352l67 117 -77 -85c-25,81 -52,168 -77,252l81 144 -93 -105c-60,202 -110,380 -110,422 0,94 238,253 238,253l84 44 -1 72 46 0 -3 -76 37 -25c0,0 241,-174 241,-268 0,-33 -34,-172 -75,-317l-155 202zm-2539 -1363c0,0 -400,1019 -385,1019 16,0 131,47 131,47l64 -163 46 311 124 834 193 5 0 1 907 28 1 -8 224 5 452 -280 51 -726 214 -100 -211 -541 0 0 -21 -54 0 0 -122 -314 0 0 -21 -55 0 0 -62 -159 -452 -296 -562 62 -571 384zm1060 136l62 156 0 5 -7 -18 -56 -144 1 1zm120 302l31 77 -6 -4 -25 -65 0 -8zm2121 1584l0 44 29 0 -2 -47 23 -16c0,0 151,-108 151,-167 0,-20 -22,-108 -48,-198l-97 126 87 -153c-59,-201 -143,-461 -143,-461 0,0 -32,98 -70,220l41 73 -47 -53c-16,51 -33,105 -49,158l51 90 -58 -66c-38,126 -69,238 -69,264 0,59 149,158 149,158l52 28zm-4024 -247l-1 72 47 0 -4 -76 38 -25c0,0 240,-174 240,-268 0,-33 -34,-172 -75,-317l-155 202 139 -245c-95,-322 -230,-737 -230,-737 0,0 -50,157 -112,352l67 117 -76 -85c-26,81 -53,168 -78,252l81 144 -93 -105c-60,202 -110,380 -110,422 0,94 238,253 238,253l84 44z"/>
  <rect class="fil6" x="11" y="17606" width="48787" height="102"/>
  <g id="_2996785327984">
   <path class="fil7" d="M22417 15886c49,2 131,5 188,3 56,-1 87,-7 105,-15 18,-7 23,-16 15,-33 -9,-16 -29,-39 -58,-70 -29,-31 -66,-68 -104,-100 -39,-32 -78,-57 -117,-81 -39,-25 -79,-48 -116,-69 -37,-20 -72,-38 -106,-53 -35,-15 -69,-27 -94,-35 -24,-8 -38,-11 -57,-13 -18,-1 -40,-1 -68,-1 -27,0 -61,1 -85,5 -24,3 -39,10 -50,18 -11,8 -18,18 -19,35 0,17 6,41 23,71 18,30 48,65 83,100 34,34 73,68 117,102 44,34 93,69 138,91 45,22 86,32 114,37 28,5 43,6 91,8z"/>
   <rect class="fil8" x="16160" y="13495" width="526" height="561" rx="62" ry="59"/>
   <polygon class="fil9" points="16231,13495 16614,13495 16614,13783 16231,13783 "/>
   <path class="fil10" d="M11437 15218c-16,-13 -22,-40 -24,-70 -3,-29 -3,-60 2,-88 6,-28 16,-53 29,-72 13,-20 29,-34 48,-44 19,-10 41,-15 190,-17 149,-2 425,-1 569,-1 144,-1 155,-3 256,-43 100,-39 289,-114 521,-205 232,-91 508,-198 780,-294 273,-96 541,-180 775,-241 235,-62 435,-99 625,-129 190,-29 370,-50 544,-62 94,-7 187,-11 282,-13 0,-2 0,-4 0,-6l0 0c0,-36 30,-66 66,-66l617 0c37,0 67,30 67,66l0 0c0,8 -2,16 -4,23 30,3 60,5 89,8 194,20 375,52 551,94 176,42 346,92 520,159 173,68 349,151 527,250 178,100 359,216 522,322 163,106 307,203 380,251 72,48 72,48 72,48 0,0 0,0 0,0 0,0 0,0 347,38 348,39 1043,116 1481,173 437,57 617,95 707,114 90,19 90,19 90,19 0,0 0,0 -31,0 -31,0 -92,0 -124,9 -33,10 -37,30 -19,71 19,41 59,103 109,157 50,54 110,100 165,134 55,34 104,56 196,66 93,10 228,9 296,9 68,-1 68,-1 68,-1 0,0 0,0 0,0 0,0 0,0 10,19 11,20 31,59 39,120 8,61 3,145 0,186 -2,42 -2,42 -2,42 0,0 0,0 6,0 7,0 20,0 26,0 7,0 7,0 7,0 0,0 0,0 0,49 0,49 0,146 0,195 0,49 0,49 0,49 0,0 0,0 0,0 0,0 0,0 -6,-1 -6,-2 -18,-4 -24,-6 -6,-1 -6,-1 -6,-1 0,0 0,0 0,0 0,0 0,0 0,35 0,35 0,106 -3,161 -4,55 -12,96 -25,131 -13,35 -31,65 -54,89 -22,24 -48,42 -82,58 -33,16 -75,29 -186,42 -112,13 -293,26 -383,32 -91,7 -91,7 -91,7 0,0 0,0 -13,-7 -14,-6 -41,-19 -55,-26 -14,-6 -14,-6 -14,-6 0,0 0,0 -10,0 -11,1 -31,2 -42,3 -10,1 -10,1 -284,10 -274,9 -822,27 -1097,36 -274,9 -274,9 -274,9 0,0 0,0 -2,7 -3,8 -8,22 -11,29 -2,7 -2,7 -2,7 0,0 0,0 -934,-10 -935,-11 -2803,-31 -3774,-44 -971,-12 -1046,-16 -1083,-18 -37,-2 -37,-2 -279,-6 -242,-5 -726,-14 -1059,-27 -333,-13 -514,-30 -747,-56 -233,-25 -518,-59 -685,-82 -168,-24 -217,-37 -257,-54 -39,-18 -69,-40 -89,-63 -20,-22 -29,-46 -29,-180 0,-134 9,-379 19,-514 9,-134 18,-159 56,-205 39,-45 106,-112 209,-203 102,-91 238,-207 313,-280 75,-74 88,-105 88,-131 -1,-25 -15,-45 -47,-59 -32,-14 -82,-23 -142,-20 -59,3 -130,19 -179,27 -48,9 -76,10 -92,-3z"/>
   <path class="fil11" d="M22291 15857c21,5 44,9 71,12l13 1 0 1 -688 214 0 -39 604 -189z"/>
   <path class="fil11" d="M11336 15834c10,-10 21,-21 33,-33l1180 198 355 180 -19 35 -367 -184 -1182 -196z"/>
   <path class="fil12" d="M21889 15453c-11,12 -9,30 3,59 19,41 59,103 109,157 27,29 56,55 85,78l8 8c0,0 0,0 -93,-2 -93,-2 -278,-6 -370,-9 -93,-2 -93,-2 -93,-2 0,0 0,0 -26,-13 -27,-13 -80,-39 -134,-56 -55,-18 -111,-28 -179,-35 -69,-7 -150,-11 -222,-6 -73,5 -138,20 -187,33 -49,13 -82,25 -99,31 -17,6 -17,6 -17,6 0,0 0,0 -171,-4 -172,-4 -515,-12 -686,-16 -171,-4 -171,-4 -171,-4 0,0 0,0 0,0 0,0 0,0 -12,-36 -11,-35 -35,-106 -61,-171 -27,-66 -57,-127 -93,-183 -37,-56 -80,-106 -101,-131 -21,-26 -21,-26 -21,-26 0,0 0,0 66,4 65,4 197,11 344,20 148,9 311,19 480,35 170,16 347,36 517,58 171,22 335,45 488,70 153,25 295,51 413,78 93,21 171,43 223,57z"/>
   <path class="fil8" d="M11526 15152c56,-7 139,-12 201,-13 62,0 102,4 137,14 35,10 65,27 87,48 23,21 37,46 44,60 7,14 7,18 1,28 -6,10 -17,25 -54,57 -36,32 -97,80 -163,134 -66,53 -136,112 -195,159 -58,46 -105,82 -140,108 -35,27 -59,45 -71,54 -11,9 -11,9 -11,9 0,0 0,0 6,-97 5,-98 17,-293 26,-399 8,-106 13,-123 30,-136 17,-12 46,-20 102,-26z"/>
   <path class="fil13" d="M11990 15252c2,3 4,6 5,9 7,14 7,18 1,28 -5,8 -14,21 -40,45l-564 0 2 -20c2,-26 3,-46 5,-62l591 0zm-336 330c-24,20 -48,39 -70,57 -11,8 -21,17 -32,25l-182 0 5 -82 279 0z"/>
   <circle class="fil14" cx="13652" cy="16724" r="891"/>
   <circle class="fil15 str0" cx="13652" cy="16724" r="625"/>
   <path class="fil16" d="M16737 15118c13,60 39,165 64,297 24,131 46,289 58,468 12,180 15,382 13,513 0,27 -1,52 -2,74l-1701 0 3 24 1697 -3c-1,37 -4,66 -6,92l-1691 0 0 67 1682 0c-10,61 -23,124 -29,156 -7,32 -7,32 -7,32 0,0 0,0 0,0 0,0 0,0 -297,0 -297,0 -890,0 -1187,0 -297,0 -297,0 -297,0 0,0 0,0 0,0 0,0 0,0 -28,-70 -28,-70 -84,-209 -189,-408 -105,-199 -258,-459 -401,-681 -144,-223 -276,-409 -351,-514 -75,-105 -92,-128 -87,-140 5,-11 33,-11 488,-5 455,7 1337,20 1784,23 447,3 457,-3 463,0 6,3 7,16 21,75zm77 63c16,75 43,200 64,338 21,138 35,289 42,408 8,119 8,206 6,313 -2,72 -4,153 -8,230l2663 0c1,-20 2,-40 3,-61 9,-176 6,-385 -2,-542 -9,-157 -23,-261 -54,-352 -30,-91 -77,-169 -126,-232 -49,-62 -100,-109 -125,-133 -25,-23 -25,-23 -25,-23 0,0 0,0 0,0 0,0 0,0 0,0 0,0 0,0 -411,-12 -411,-12 -1233,-35 -1643,-47 -411,-11 -411,-11 -411,-11 0,0 0,0 3,12 2,12 7,37 24,112zm102 1310c-1,29 -3,58 -6,85l-1 7 2663 0c2,-30 5,-63 8,-97l-2664 5zm-14 159c-9,67 -19,118 -25,148 -8,40 -8,40 -8,40 0,0 0,0 0,0 0,0 0,0 445,4 444,5 1333,14 1778,18 445,5 445,5 445,5 0,0 0,0 0,0 0,0 0,0 9,-70 5,-34 12,-83 19,-145l-2663 0z"/>
   <rect class="fil15" x="14353" y="15206" width="586" height="131"/>
   <rect class="fil17" x="14433" y="15250" width="425.748" height="42.9646"/>
   <rect class="fil15" x="16987" y="15253" width="586" height="131"/>
   <rect class="fil17" x="17067" y="15297" width="425.748" height="42.9646"/>
   <polygon class="fil18" points="13511,17238 13807,17238 13664,16851 "/>
   <polygon class="fil18" points="13166,16890 13326,17139 13574,16809 "/>
   <polygon class="fil18" points="14148,16890 13989,17139 13740,16810 "/>
   <polygon class="fil18" points="14102,16426 14203,16703 13791,16702 "/>
   <polygon class="fil18" points="13209,16424 13107,16701 13520,16700 "/>
   <polygon class="fil18" points="13995,16302 13724,16184 13700,16596 "/>
   <polygon class="fil18" points="13301,16303 13572,16184 13596,16596 "/>
   <path class="fil19" d="M14110 14975c159,7 449,7 594,7 146,0 146,0 146,0 0,0 0,0 0,0 0,0 0,0 -22,-128 -21,-128 -64,-385 -86,-513 -21,-128 -21,-128 -21,-128 0,0 0,0 0,0 0,0 0,0 -75,21 -75,21 -225,62 -337,98 -113,36 -189,66 -251,99 -63,33 -112,70 -148,109 -37,40 -60,83 -71,129 -11,45 -10,93 2,138 11,45 33,87 58,115 25,29 52,45 211,53z"/>
   <path class="fil20" d="M14576 14982c49,0 93,0 128,0 146,0 146,0 146,0 0,0 0,0 0,0 0,0 0,0 -22,-128 -21,-128 -64,-385 -86,-513 -21,-128 -21,-128 -21,-128 0,0 0,0 0,0 0,0 0,0 -75,21 -75,21 -225,62 -337,98 -71,22 -127,42 -174,62l441 588z"/>
   <path class="fil19" d="M14837 14380c23,131 65,367 86,485 22,117 23,117 24,117 0,0 0,0 0,0 0,0 0,0 255,4 256,3 766,9 1021,13 255,3 255,3 255,3 0,0 0,0 0,0 0,0 0,0 -14,-164 -14,-163 -43,-490 -57,-653 -15,-163 -15,-163 -15,-163 0,0 0,0 0,0 0,0 0,0 -81,3 -81,3 -244,10 -416,21 -172,11 -353,26 -517,47 -164,21 -311,47 -404,65 -93,18 -132,29 -152,34 -19,5 -19,5 -19,5 0,0 0,0 2,13 3,13 8,39 32,170z"/>
   <path class="fil20" d="M14837 14380c23,131 65,367 86,485 22,117 23,117 24,117 0,0 0,0 0,0 0,0 0,0 255,4l321 4 -639 -813c-32,7 -50,12 -62,15 -19,5 -19,5 -19,5 0,0 0,0 2,13 3,13 8,39 32,170z"/>
   <path class="fil19" d="M16737 14369c62,156 155,395 202,514 47,119 47,119 47,119 0,0 0,0 0,0 0,0 0,0 0,0 0,0 0,0 290,4 291,4 871,12 1162,15 290,4 290,4 290,4 0,0 0,0 0,0 0,0 0,0 0,-36 0,-37 0,-109 -1,-148 0,-38 -1,-42 -2,-44 -1,-2 -1,-2 -1,-2 0,0 0,0 -33,-29 -33,-30 -100,-88 -202,-155 -102,-66 -240,-140 -398,-211 -158,-71 -337,-139 -487,-184 -150,-45 -273,-67 -396,-86 -123,-20 -247,-37 -345,-47 -98,-11 -171,-15 -208,-17 -36,-2 -36,-2 -22,36 15,37 43,111 104,267z"/>
   <path class="fil20" d="M18728 14941c0,-35 0,-75 -1,-100 0,-38 -1,-42 -2,-44 -1,-2 -1,-2 -1,-2 0,0 0,0 -33,-29 -33,-30 -100,-88 -202,-155 -62,-40 -136,-83 -221,-126l460 456z"/>
   <path class="fil20" d="M16737 14369l36 91 536 546 1022 14 -796 -823c-120,-33 -223,-51 -327,-67 -123,-20 -247,-37 -345,-47 -98,-11 -171,-15 -208,-17 -36,-2 -36,-2 -22,36 15,37 43,111 104,267z"/>
   <path class="fil12" d="M13503 15004l-2063 -10c-11,19 -20,41 -25,66 -4,25 -5,52 -3,79 57,-10 124,-20 180,-27 89,-10 150,-11 201,-6 50,5 91,17 121,31 31,13 52,29 69,47 18,18 32,39 41,60 9,21 13,42 13,57 -1,16 -6,26 -9,32l-2 5 92 21c92,22 277,65 424,87 146,23 254,26 530,30 276,5 720,11 942,15l222 3 -52 -81 -208 -326 -52 -81 -421 -2z"/>
   <path class="fil17" d="M13652 15756c-535,0 -969,433 -969,968 0,106 17,207 49,302 27,2 55,4 84,5 -35,-95 -54,-199 -54,-307 0,-491 398,-890 890,-890 492,0 891,399 891,890 0,126 -26,245 -73,354 23,0 50,1 84,1 43,-110 67,-229 67,-355 0,-535 -434,-968 -969,-968z"/>
   <circle class="fil14" cx="21050" cy="16732" r="891"/>
   <circle class="fil15 str0" cx="21050" cy="16732" r="625"/>
   <polygon class="fil18" points="20909,17245 21205,17246 21062,16858 "/>
   <polygon class="fil18" points="20564,16898 20723,17147 20972,16817 "/>
   <polygon class="fil18" points="21546,16898 21386,17147 21138,16817 "/>
   <polygon class="fil18" points="21499,16434 21601,16711 21188,16710 "/>
   <polygon class="fil18" points="20606,16432 20505,16709 20917,16708 "/>
   <polygon class="fil18" points="21393,16310 21122,16192 21098,16604 "/>
   <polygon class="fil18" points="20699,16310 20970,16192 20994,16604 "/>
   <path class="fil17" d="M21050 15764c-535,0 -969,433 -969,968 0,76 9,149 25,219 3,15 6,30 9,42 6,21 11,37 17,52 5,14 11,27 17,37 4,9 9,16 14,22l0 -1 76 -2c-6,-15 -15,-40 -25,-68 -11,-32 -23,-69 -32,-106 -5,-22 -9,-43 -13,-61 -6,-44 -10,-88 -10,-134 0,-492 399,-890 891,-890 492,0 890,398 890,890 0,126 -26,245 -72,353 22,1 50,2 83,2 44,-110 68,-230 68,-355 0,-535 -434,-968 -969,-968z"/>
   <circle class="fil21 str1" cx="13653" cy="16707" r="80"/>
   <circle class="fil21 str1" cx="21059" cy="16723" r="80"/>
   <path class="fil22" d="M21977 15514c-6,14 16,50 41,84 25,33 52,64 85,94 34,30 74,59 111,81 37,22 71,36 109,46 38,10 79,15 99,17 21,3 21,3 21,3 0,0 0,0 -65,-54 -66,-54 -197,-162 -279,-220 -82,-58 -116,-66 -122,-51z"/>
   <ellipse class="fil7" cx="22569" cy="16686" rx="88" ry="138"/>
   <path class="fil11" d="M16716 14796c-38,-164 -112,-478 -155,-636 -15,-58 -26,-95 -35,-118 -3,-1 -7,-2 -12,-3 -3,-1 -7,-3 -12,-5 4,24 12,63 25,127 35,164 107,492 142,656 36,164 36,164 36,164 0,0 0,0 9,1 9,0 28,2 37,2 9,1 9,1 9,1 0,0 0,0 -2,-7 -1,-6 -3,-19 -42,-182z"/>
   <path class="fil21 str2" d="M16648 14980c-792,-11 -1660,-15 -2121,-19 -461,-5 -515,-10 -553,-20 -38,-10 -62,-24 -81,-41 -19,-17 -33,-36 -44,-63 -11,-27 -19,-60 -17,-98 1,-37 11,-77 29,-115 19,-39 45,-75 79,-108 35,-32 78,-61 135,-88 57,-28 129,-54 240,-89 110,-35 260,-79 415,-118 155,-39 315,-73 469,-98 155,-25 303,-40 479,-55 175,-14 379,-27 537,-31 158,-4 271,1 411,14 140,12 307,32 466,58 160,26 312,58 449,95 138,37 260,79 392,132 132,53 274,116 401,186 127,70 239,145 307,196 68,51 91,77 119,110 28,33 61,74 81,108 21,35 30,63 33,78 3,14 -1,14 -361,5 -359,-9 -1074,-28 -1865,-39z"/>
   <path class="fil23" d="M15342 15593c41,0 81,10 120,28 38,19 68,46 90,81 22,35 34,77 34,128 0,50 -12,93 -34,128 -22,36 -52,63 -90,81 -39,19 -79,28 -120,28l-161 0 0 283 -160 0 0 -757 321 0zm-31 331c35,0 62,-8 80,-25 18,-15 27,-39 27,-69 0,-31 -9,-54 -27,-70 -18,-17 -45,-25 -80,-25l-130 0 0 189 130 0z"/>
   <path id="1" class="fil23" d="M16317 15975c0,-40 -8,-78 -25,-115 -17,-37 -43,-67 -76,-89 -35,-24 -77,-37 -128,-38 -50,0 -92,12 -124,35 -36,24 -61,54 -77,91 -17,35 -25,74 -25,116 0,42 8,81 25,117 16,36 41,66 77,90 32,23 74,35 124,35 51,-1 93,-14 128,-37 33,-23 59,-53 76,-89 17,-38 25,-76 25,-116zm-228 -396c110,0 203,39 280,116 78,78 116,171 116,281 0,108 -38,202 -116,279 -77,77 -170,116 -280,116 -109,0 -202,-39 -279,-116 -77,-77 -116,-171 -116,-279 0,-110 39,-203 116,-281 77,-77 170,-116 279,-116z"/>
   <polygon id="2" class="fil23" points="17044,16351 16595,16351 16595,15593 16755,15593 16755,16209 17044,16209 "/>
   <polygon id="3" class="fil23" points="17365,15593 17365,16351 17205,16351 17205,15593 "/>
   <path id="4" class="fil23" d="M17663 16015c4,34 13,64 27,92 19,36 46,64 80,83 33,20 70,29 112,29 45,0 85,-10 118,-31 34,-21 59,-49 75,-84l124 78c-22,59 -62,106 -119,139 -57,33 -123,50 -197,50 -71,0 -137,-16 -196,-47 -59,-32 -106,-77 -141,-136 -34,-58 -51,-129 -51,-211 0,-83 17,-153 51,-212 35,-59 82,-104 141,-135 59,-32 125,-47 196,-47 74,0 140,16 197,49 57,34 97,80 119,140l-124 77c-16,-34 -41,-62 -75,-84 -33,-21 -73,-31 -118,-31 -42,0 -79,10 -112,29 -34,19 -61,47 -80,84 -14,27 -23,57 -27,91 -1,21 -1,47 0,77z"/>
   <polygon id="5" class="fil23" points="18795,16351 18320,16351 18320,15593 18784,15593 18784,15735 18480,15735 18480,15897 18752,15897 18752,16037 18480,16037 18480,16210 18795,16210 "/>
  </g>
  <g id="_2996789970128">
   <path class="fil24" d="M23227 13604l178 0c1,-7 3,-13 4,-20 4,-14 7,-27 11,-39 7,-23 15,-39 28,-54 12,-15 30,-28 45,-42 16,-14 29,-29 39,-44 10,-15 17,-32 15,-45 -3,-13 -14,-24 -24,-29 -10,-5 -18,-5 -22,-5 -3,0 -3,0 -4,-55 -1,-54 -3,-164 -7,-225 -3,-61 -7,-74 -15,-83 -7,-9 -17,-13 -27,-15 -11,-1 -23,1 -33,7 -11,6 -21,15 -26,43 -5,27 -6,72 -6,95 -1,22 -1,22 -14,25 -14,3 -41,10 -61,17 -19,6 -30,13 -53,17 -23,5 -58,7 -81,10 -23,3 -33,6 -38,39 -6,32 -6,93 -2,141 3,49 9,85 19,113 11,28 24,49 36,68 12,19 23,36 30,54 0,2 1,4 2,6 2,7 4,14 6,21z"/>
   <path class="fil25" d="M23227 13604l45 0c-3,-13 -8,-27 -13,-40 -4,-12 -10,-22 -16,-32 -6,-10 -14,-20 -22,-33 -8,-13 -18,-29 -27,-50 -8,-21 -16,-48 -21,-78 -5,-30 -7,-64 -8,-92 -1,-28 -1,-50 2,-65 3,-15 9,-23 19,-28 9,-5 23,-8 34,-7 12,1 21,5 30,7 9,2 18,1 27,-3 9,-4 18,-12 27,-17 9,-6 18,-9 29,-8 11,0 24,5 34,4 10,0 17,-6 22,-14 4,-8 6,-18 7,-36 2,-18 3,-46 5,-69 3,-23 6,-41 10,-55 4,-13 10,-21 17,-26 8,-5 17,-7 28,-6 5,0 10,1 15,2 -7,-5 -15,-9 -23,-10 -11,-1 -23,1 -33,7 -11,6 -21,15 -26,43 -5,27 -6,72 -6,95 -1,22 -1,22 -14,25 -14,3 -41,10 -61,17 -19,6 -30,13 -53,17 -23,5 -58,7 -81,10 -23,3 -33,6 -38,39 -6,32 -6,93 -2,141 3,49 9,85 19,113 11,28 24,49 36,68 12,19 23,36 30,54 0,2 1,4 2,6 2,7 4,14 6,21z"/>
   <path class="fil26" d="M23172 13583l0 131c0,130 0,392 4,537 5,145 14,173 29,194 15,21 37,35 130,43 92,7 256,7 338,7l83 0 -1 146 -1 592 0 137 101 0c28,0 28,0 28,12 0,6 1,15 1,30 20,3 43,7 68,12 63,11 141,23 251,33 15,2 32,3 48,4l0 -12 63 0c7,28 19,53 36,65 25,19 63,6 93,-6 30,-13 51,-25 69,-52 1,-2 3,-5 4,-7l59 0 0 17c1,0 2,0 2,0l106 0c7,0 14,3 19,7 34,-2 67,-4 98,-6 3,-8 12,-7 46,-7l34 1c33,-4 62,-7 85,-10 24,-4 42,-8 56,-10 9,-5 17,-9 24,-12 0,-56 2,-56 14,-56 6,0 16,-1 25,0 1,-15 1,-47 1,-129l0 -534 0 -133 43 24 156 87 0 -481c-30,-15 -72,-35 -109,-51 -43,-19 -80,-32 -119,-45 -38,-13 -79,-26 -120,-36 -42,-10 -85,-18 -124,-25 -40,-8 -75,-15 -104,-21 -29,-6 -50,-10 -76,-17 -4,-1 -8,-3 -13,-4 -11,-3 -22,-7 -33,-11l0 -5 0 -49c-1,1 -2,1 -3,1 -4,3 -9,6 -13,9 -16,10 -30,15 -49,20 -20,4 -45,8 -70,10 -26,2 -52,2 -78,0 -26,-2 -52,-7 -72,-12 -19,-5 -31,-11 -41,-16 -5,-3 -9,-6 -13,-9 0,0 -1,0 -1,0l0 51c-5,2 -11,4 -16,7 -8,5 -16,10 -24,16 -30,10 -66,20 -128,33 -84,17 -214,40 -309,55 -96,15 -156,22 -196,26 -39,5 -58,6 -72,7 -13,0 -21,0 -25,0 -5,0 -6,0 -7,-92 -1,-93 -1,-279 -1,-372l0 -92 -49 -1 -10 0 -188 -1 0 0 -49 0z"/>
   <path class="fil27" d="M25087 14578l41 23 156 87 0 -47 -15 -5c-36,-12 -109,-37 -146,-50 -36,-12 -36,-12 -36,-12l0 4z"/>
   <path class="fil27" d="M23172 13583l0 131c0,130 0,392 4,537 5,145 14,173 29,194 15,21 37,35 130,43 92,7 256,7 338,7l81 0c-3,-15 -8,-19 -16,-22 -8,-4 -18,-7 -43,-10 -24,-3 -62,-4 -123,-8 -61,-3 -144,-9 -200,-13 -57,-5 -86,-9 -106,-15 -19,-7 -29,-14 -36,-24 -7,-10 -11,-22 -17,-157 -5,-134 -12,-390 -18,-522 -5,-105 -10,-131 -15,-141l-8 0z"/>
   <polygon class="fil24" points="24246,13921 24586,13921 24586,14027 24444,14155 24396,14155 24246,14016 "/>
   <path class="fil28" d="M24222 13922c-2,3 7,11 15,17 8,6 14,10 23,16 10,5 22,11 41,16 20,5 46,10 72,12 26,2 52,2 78,0 25,-2 50,-6 70,-10 19,-5 33,-10 49,-20 16,-10 34,-25 43,-32 8,-8 8,-8 8,-8 0,0 0,0 -8,2 -8,2 -24,5 -56,9 -32,4 -80,8 -124,9 -45,0 -87,-3 -117,-6 -30,-2 -48,-3 -63,-5 -16,-1 -29,-3 -31,0z"/>
   <path class="fil24" d="M23846 13191c-4,23 -9,56 -11,72 -3,16 -3,16 -3,16 0,0 0,0 -2,0 -2,0 -7,0 -13,2 -6,2 -14,5 -21,13 -8,7 -15,18 -20,35 -4,16 -5,38 -5,57 1,19 4,35 8,49 4,15 10,28 17,38 8,9 17,15 27,20 10,4 21,6 32,8 12,1 24,0 31,0 6,0 6,0 6,0 0,0 0,0 1,24l0 21c2,15 5,32 8,49 4,26 11,50 18,72 7,23 15,45 24,65 8,19 18,35 27,49 10,13 20,25 33,39 13,13 29,28 44,41 16,12 31,22 49,31 17,10 36,19 58,28 22,8 46,15 68,21 22,5 42,9 62,11 19,2 38,2 63,3 25,0 56,0 89,0 33,-1 67,-3 100,-6 33,-3 64,-7 93,-13 29,-7 56,-16 81,-29 26,-13 50,-29 69,-43 20,-15 37,-28 51,-45 15,-16 28,-37 42,-58 13,-20 27,-42 39,-65 12,-24 22,-50 30,-75 9,-26 15,-51 19,-74 5,-23 8,-45 9,-56 2,-10 2,-10 2,-10 0,0 0,0 2,0 2,1 7,2 14,3 8,0 19,0 31,-4 2,0 4,-1 7,-2 4,-2 8,-5 12,-8 10,-10 17,-25 22,-44 4,-19 6,-43 7,-65 1,-22 1,-42 -4,-58 -4,-16 -13,-27 -20,-34 -6,-7 -10,-9 -13,-10 -2,0 -2,0 -2,-15 -1,-15 -2,-45 -2,-60 0,-15 0,-15 -1,-35 -1,-21 -3,-61 -8,-91 -6,-29 -15,-49 -52,-65 -37,-16 -102,-29 -208,-36 -106,-7 -253,-7 -373,-5 -120,2 -215,7 -285,15 -71,7 -118,17 -151,33 -32,15 -49,35 -62,59 -13,24 -23,51 -28,72 -6,21 -8,36 -11,60z"/>
   <path class="fil25" d="M23812 13283c-5,2 -11,5 -16,11 -8,7 -15,18 -20,35 -4,16 -5,38 -5,57 1,19 4,35 8,49 4,15 10,28 17,38 8,9 17,15 27,20 10,4 21,6 32,8 12,1 24,0 31,0 6,0 6,0 6,0 0,0 0,0 1,24l0 21c2,15 5,32 8,49 4,26 11,50 18,72 7,23 15,45 24,65 8,19 18,35 27,49 10,13 20,25 33,39 13,13 29,28 44,41 16,12 31,22 49,31 17,10 36,19 58,28 22,8 46,15 68,21 22,5 42,9 62,11 19,2 38,2 63,3 25,0 56,0 89,0 33,-1 67,-3 100,-6 33,-3 64,-7 93,-13 29,-7 56,-16 81,-29 26,-13 50,-29 69,-43 20,-15 37,-28 51,-45 15,-16 28,-37 42,-58 13,-20 27,-42 39,-65 12,-24 22,-50 30,-75 9,-26 15,-51 19,-74 5,-23 8,-45 9,-56 2,-10 2,-10 2,-10 0,0 0,0 2,0 2,1 7,2 14,3 8,0 19,0 31,-4 2,0 4,-1 7,-2 4,-2 8,-5 12,-8 10,-10 17,-25 22,-44 4,-19 6,-43 7,-65 1,-22 1,-42 -4,-58 -4,-16 -13,-27 -20,-34 -2,-3 -4,-4 -6,-6 3,9 6,20 8,32 3,15 4,32 3,50 -1,18 -5,39 -10,56 -5,17 -13,30 -23,39 -10,9 -23,13 -34,15 -10,2 -18,2 -22,2 -4,-1 -4,-1 -4,-1 0,0 0,0 -1,7 -1,6 -4,19 -8,39 -4,19 -10,45 -18,72 -9,27 -20,54 -32,78 -11,24 -24,43 -38,64 -15,20 -33,40 -51,58 -18,18 -36,34 -54,48 -19,15 -36,28 -57,39 -20,12 -43,23 -68,32 -25,8 -51,13 -80,17 -29,4 -61,6 -96,7 -34,1 -71,2 -103,2 -32,0 -59,-2 -87,-7 -28,-4 -59,-13 -86,-22 -27,-10 -51,-20 -72,-33 -22,-13 -41,-27 -58,-42 -16,-14 -30,-30 -43,-49 -13,-18 -25,-41 -36,-63 -10,-23 -19,-45 -26,-70 -7,-24 -13,-52 -18,-79 -4,-28 -6,-56 -7,-71 -1,-14 -1,-14 -1,-14 0,0 0,0 -8,3 -8,3 -24,9 -37,10 -13,1 -23,-2 -32,-9 -9,-7 -17,-18 -23,-31 -6,-13 -11,-27 -14,-45 -3,-17 -5,-38 -4,-56 1,-18 3,-34 8,-44 3,-6 6,-10 8,-14z"/>
   <path class="fil29" d="M24338 13793c4,5 9,10 14,14 5,4 10,9 15,12 6,3 12,5 19,7 8,2 17,4 26,5 10,0 19,0 29,0 10,0 21,-1 30,-3 8,-1 13,-4 18,-7 4,-3 8,-6 12,-11 4,-4 7,-10 9,-13 1,-3 1,-3 -15,-4 -15,-1 -47,-3 -78,-6 -31,-2 -62,-4 -75,-4 -13,1 -8,6 -4,10z"/>
   <path class="fil29" d="M24585 13540c-7,0 -17,0 -26,0 -8,-1 -15,-2 -20,-4 -6,-3 -10,-7 -14,-11 -4,-4 -8,-8 -13,-16 -4,-7 -10,-17 -15,-30 -6,-12 -11,-28 -14,-44 -4,-15 -6,-31 -7,-43 0,-12 0,-20 0,-30 1,-10 2,-21 6,-31 4,-11 10,-21 16,-29 6,-9 12,-16 19,-21 8,-5 16,-9 22,-11 6,-2 10,-3 17,-1 6,2 15,7 29,29 14,22 33,61 43,97 9,37 9,70 5,93 -4,22 -13,33 -19,39 -6,6 -9,8 -13,9 -4,2 -9,3 -16,4z"/>
   <path class="fil29" d="M24316 13534c10,-1 18,-4 25,-11 7,-7 13,-18 21,-32 7,-15 15,-33 20,-51 5,-17 5,-35 5,-53 0,-17 0,-34 -2,-48 -2,-13 -5,-24 -10,-33 -4,-9 -11,-18 -17,-24 -7,-6 -14,-10 -21,-13 -7,-3 -15,-4 -28,-4 -13,0 -31,1 -47,5 -15,3 -27,9 -38,30 -10,20 -19,55 -17,88 3,33 17,65 32,89 15,25 31,42 44,51 13,8 24,8 33,6z"/>
   <path class="fil29" d="M23989 13117c0,46 0,129 0,170 0,41 0,41 -9,38 -9,-4 -27,-11 -43,-21 -15,-9 -29,-20 -39,-49 -11,-28 -19,-74 -18,-113 1,-40 11,-73 26,-89 15,-17 37,-16 52,-13 15,3 23,8 27,15 5,7 4,16 4,62z"/>
   <path class="fil29" d="M24909 13249c-1,-43 -1,-120 -1,-159 0,-39 0,-39 16,-39 15,0 47,0 64,11 17,11 19,33 20,57 1,24 0,51 -4,72 -4,22 -11,37 -27,56 -16,19 -41,40 -54,47 -13,6 -14,-2 -14,-45z"/>
   <path class="fil30" d="M24086 12873c-181,2 -197,-2 -229,-22 -1,0 -2,0 -4,-1 -6,21 -16,57 -21,85 -3,14 -4,26 -4,36l0 0 0 0c-1,4 -1,11 -1,22 -1,16 -1,42 0,72 1,31 2,66 4,91 2,20 3,34 5,45 1,7 1,13 2,19 1,10 2,17 3,22 1,5 2,8 2,11 1,4 1,4 14,7l52 13 10 3 -1 -2 4 1 0 -32 0 -134 0 -33 35 9c35,10 105,30 182,43 78,13 164,21 240,23 76,3 143,1 206,-3 63,-5 123,-11 185,-23 62,-12 127,-29 159,-37l32 -9 0 30 0 117 0 29 16 -10 35 -22 27 -18 16 -10 -1 -24c0,-12 -1,-30 -2,-50l0 -6c0,-17 0,-38 0,-58 0,-20 0,-40 0,-57 0,-2 0,-4 -1,-6 0,-16 -1,-49 -7,-80 -5,-27 -14,-53 -23,-75 -24,13 -57,14 -201,18 -184,4 -547,13 -734,16z"/>
   <path class="fil31" d="M24979 12786c11,1 24,18 36,42 12,24 23,54 29,86 6,31 7,64 7,80 1,16 1,16 -70,16 -72,0 -215,0 -419,0 -204,0 -469,-1 -602,-1 -132,0 -132,0 -133,-11 0,-11 -1,-32 5,-63 5,-31 17,-70 23,-90 6,-20 6,-20 105,-23 100,-2 299,-7 481,-10 181,-2 346,-1 432,-8 86,-6 94,-20 106,-18z"/>
   <ellipse class="fil28" cx="24689" cy="13274" rx="94" ry="31"/>
   <path class="fil32" d="M25022 12838c13,-5 20,-11 31,-22 31,-28 94,-85 124,-118 3,-4 6,-7 9,-10 11,-12 12,-16 12,-19 0,-4 -3,-8 -39,-30 -36,-21 -106,-60 -140,-80 -35,-19 -35,-19 -35,-19 0,0 0,0 -82,-25 -82,-25 -246,-74 -339,-101 -92,-27 -113,-30 -133,-29 -11,0 -22,2 -46,8 -15,3 -31,7 -51,11 -56,14 -136,36 -216,61l-205 54c-92,25 -92,25 -120,49 -21,18 -59,52 -88,77 -24,17 -36,28 -41,38 -7,8 -7,11 -3,17 2,11 12,24 38,45 34,27 95,68 125,88 18,11 25,16 34,18 32,20 48,24 229,22 187,-3 550,-12 734,-16 147,-4 179,-5 202,-19z"/>
   <path class="fil31" d="M25026 12836c10,-4 17,-10 27,-20 31,-28 94,-85 124,-118 3,-4 6,-7 9,-10 11,-12 12,-16 12,-19 0,-4 -3,-8 -39,-30 -36,-21 -106,-60 -140,-80 -35,-19 -35,-19 -35,-19l-32 -10c47,33 117,81 154,110 45,33 46,38 38,51 -8,12 -23,32 -45,58 -22,26 -49,59 -63,76 -5,5 -8,9 -10,11z"/>
   <path class="fil31" d="M23845 12538c-29,9 -35,14 -53,30 -21,18 -59,52 -88,77 -24,17 -36,28 -41,38 -7,8 -7,11 -3,17 2,11 12,24 38,45 34,27 95,68 125,88 17,11 25,16 33,18 -3,-3 -7,-6 -12,-11 -29,-24 -86,-72 -115,-100 -29,-27 -30,-35 -30,-43 1,-7 3,-16 23,-39 19,-23 56,-61 78,-83 23,-23 31,-29 43,-36l2 -1z"/>
   <ellipse class="fil28" cx="24168" cy="13276" rx="94" ry="31"/>
   <ellipse class="fil33" cx="24428" cy="12642" rx="113" ry="137"/>
   <path class="fil34" d="M24825 13265l-268 0c-12,0 -23,5 -31,13l0 0c-3,3 -4,6 -6,10 -1,4 -2,8 -3,13 -1,5 -1,11 -1,14 0,3 0,3 0,3 0,0 0,0 -5,-1 -5,-2 -16,-5 -28,-7 -13,-3 -29,-5 -44,-6 -15,-1 -30,-1 -43,1 -13,1 -23,4 -31,7 -8,3 -14,6 -17,7 -3,1 -3,1 -3,1 0,0 0,0 0,-6 0,-5 0,-16 -2,-24 -1,-2 -1,-3 -2,-5 -7,-12 -21,-20 -36,-20l-268 0c-18,0 -34,11 -40,27l-154 -35 151 139 0 1 0 101c0,23 20,42 43,42l268 0c24,0 43,-19 43,-42l0 -124 166 0 0 124c0,23 19,42 43,42l268 0c23,0 42,-19 42,-42l0 -124 188 -180 -197 87c-8,-10 -20,-16 -33,-16z"/>
   <path class="fil35" d="M24820 13265l-263 0c-12,0 -23,5 -31,13l0 0c-3,3 -4,6 -6,10 -1,4 -2,8 -3,13 -1,5 -1,11 -1,14 0,3 0,3 0,3l-1 0 0 14c0,11 -1,27 -1,42l0 0 0 124c0,23 19,42 43,42l144 0 1 -1c12,-8 17,-20 19,-26 2,-5 2,-5 -25,-5 -27,0 -81,0 -111,-2 -30,-2 -35,-7 -38,-14 -3,-7 -4,-16 -4,-41 -1,-25 -2,-66 -1,-95 1,-29 3,-46 8,-56 4,-9 10,-12 16,-13 6,-1 13,-1 43,-1 30,0 83,-1 118,0 34,0 50,2 62,0 13,-1 22,-6 28,-14 1,-2 2,-4 3,-7z"/>
   <path class="fil35" d="M24292 13265l-255 0c-18,0 -34,11 -40,27l-154 -35 151 139 0 1 0 101c0,23 20,42 43,42l156 0c13,-8 19,-17 23,-22 5,-6 5,-6 -19,-6 -23,0 -71,1 -102,1 -30,-1 -45,-2 -55,-6 -10,-3 -15,-8 -19,-13 -3,-6 -4,-12 -4,-41 -1,-30 -1,-83 0,-114 2,-31 6,-38 11,-44 4,-6 10,-9 22,-11 12,-2 31,-2 56,-2 26,0 58,0 88,1 31,0 59,1 78,-5 10,-3 17,-8 20,-13z"/>
   <path class="fil36" d="M24329 13272c-7,-4 -15,-7 -24,-7l-67 0c0,23 1,57 -1,84 -2,34 -7,57 -15,81 -8,24 -19,47 -33,66 -13,19 -29,34 -44,44l104 0c8,-7 15,-15 23,-26 11,-16 21,-35 29,-56 8,-21 14,-45 18,-69 4,-25 7,-50 8,-72 2,-18 2,-33 2,-45z"/>
   <path class="fil36" d="M24825 13265l-67 0c0,16 0,36 0,55 -1,29 -2,54 -7,78 -4,25 -13,49 -23,70 -10,21 -21,39 -34,54 -6,7 -12,13 -17,18l86 0c1,-1 3,-2 5,-4 10,-9 20,-19 30,-34 9,-14 19,-33 26,-53 8,-21 13,-44 17,-68 3,-24 5,-48 6,-72 0,-13 0,-26 -1,-38 -6,-4 -13,-6 -21,-6z"/>
   <path class="fil37" d="M24430 13742c-67,0 -128,-11 -173,-28 6,54 81,97 173,97 92,0 167,-43 173,-97 -45,17 -106,28 -173,28z"/>
   <path class="fil38" d="M24366 13620c-13,0 -31,-1 -41,-4 -10,-4 -12,-10 -12,-20 1,-10 4,-23 11,-32 6,-9 16,-14 29,-18 12,-4 28,-6 36,-7 8,-1 8,-1 8,-1 0,0 0,0 0,14 0,13 0,41 0,54 0,14 0,14 0,14 0,0 0,0 -4,0 -5,0 -14,0 -27,0z"/>
   <line class="fil21" x1="24108" y1="14475" x2="24108" y2= "14863" />
   <line class="fil21" x1="23933" y1="14602" x2="24288" y2= "14602" />
   <rect class="fil39" x="25284" y="13881" width="844" height="1152"/>
   <rect class="fil13" x="25361" y="13957" width="691" height="1000"/>
   <path class="fil24" d="M25954 13776c-26,-7 -54,-16 -80,-21 -27,-5 -53,-7 -71,-7 -18,0 -29,2 -37,7 -8,5 -12,14 -17,20 -6,6 -12,10 -23,15 -11,5 -27,12 -41,20 -13,9 -24,19 -31,30 -6,11 -7,22 0,30 7,9 23,16 34,24 12,8 19,18 29,28 10,11 23,22 43,30 20,8 48,13 76,15 28,1 58,-1 82,-10 25,-9 44,-26 65,-39 21,-13 44,-21 67,-28 22,-8 44,-13 52,-22 8,-8 3,-19 -12,-32 -15,-13 -39,-27 -63,-37 -24,-10 -47,-16 -73,-23z"/>
   <path class="fil25" d="M25766 13954c19,7 44,11 70,13 28,1 58,-1 82,-10 25,-9 44,-26 65,-39 21,-13 44,-21 67,-28 9,-4 19,-6 28,-9 -12,1 -25,3 -41,7 -22,7 -51,18 -78,28 -27,10 -52,20 -77,27 -25,6 -51,9 -74,10 -15,0 -28,0 -42,1z"/>
   <path class="fil25" d="M25954 13776c-26,-7 -54,-16 -80,-21 -27,-5 -53,-7 -71,-7 -18,0 -29,2 -37,7 -8,5 -12,14 -17,20 -6,6 -12,10 -23,15 -11,5 -27,12 -41,20 -13,9 -24,19 -31,30 -6,11 -7,22 0,30 7,9 23,16 34,24 5,3 9,7 13,11l0 -1c0,-12 5,-26 12,-38 6,-13 16,-22 26,-29 11,-6 22,-10 35,-14 13,-5 28,-11 50,-15 21,-4 50,-6 81,-6 31,0 65,2 96,7 31,5 59,14 96,37l5 3c-2,-4 -7,-8 -12,-13 -15,-13 -39,-27 -63,-37 -24,-10 -47,-16 -73,-23z"/>
   <rect class="fil13" x="24300" y="15499" width="227" height="109"/>
   <path class="fil21 str3" d="M23882 15624c-1,14 -2,27 -3,38 -4,49 -12,62 -29,70 -17,8 -44,11 -66,8 -22,-3 -40,-12 -51,-25 -11,-13 -17,-31 -19,-89 -2,-59 -2,-157 -1,-207 0,-49 0,-49 28,-49 29,0 85,0 114,0 28,0 28,0 28,12 1,11 1,31 1,74 38,0 88,1 116,2 38,2 39,3 41,29 3,27 7,78 6,106 -2,29 -8,34 -43,35 -32,1 -87,-1 -122,-4z"/>
   <rect class="fil21 str3" x="24113" y="15466" width="165" height="173" rx="30" ry="26"/>
   <path class="fil40" d="M24005 17374c149,0 269,71 269,158l22 0 0 75 -588 0 0 -75 27 0c0,-87 121,-158 270,-158z"/>
   <path class="fil40" d="M24761 17374c149,0 269,71 269,158l22 0 0 75 -588 0 0 -75 27 0c0,-87 121,-158 270,-158z"/>
   <rect class="fil27" x="24374" y="14160" width="85.9291" height="1310.43"/>
   <path class="fil27" d="M24218 14343c-10,-18 -30,-55 -43,-90 -13,-35 -19,-67 -22,-93 -2,-27 -2,-46 4,-65 2,-10 6,-19 10,-28 -7,12 -14,26 -19,41 -6,17 -9,36 -10,55 -2,19 -2,38 2,62 5,25 14,54 24,79 10,24 22,44 33,59 11,15 21,26 26,31l4 6 30 -35 117 -139 0 -40 -112 135 -34 41 -10 -19z"/>
   <path class="fil27" d="M24460 14174l0 44c4,5 8,11 14,18l104 129 26 32 5 -4c6,-4 17,-11 28,-26 12,-15 23,-38 33,-62 9,-25 18,-52 23,-80 6,-28 8,-58 7,-85 -2,-27 -7,-50 -21,-73 -11,-20 -27,-39 -41,-54 -2,0 -4,-1 -6,-1l-13 -4c14,8 28,19 39,33 13,16 23,35 28,54 6,19 6,38 4,65 -3,26 -9,58 -22,93 -13,35 -33,72 -43,90l-10 19 -34 -41 -121 -147z"/>
   <path class="fil27" d="M23961 14475c-5,2 -11,4 -16,9 -5,4 -10,11 -13,18 -4,8 -6,17 -7,70 -1,54 -1,152 0,205 1,52 2,59 5,65 2,6 6,13 12,17 5,4 13,7 28,8 15,2 36,2 82,2 47,0 117,0 156,-1 39,0 45,0 53,-3 7,-2 16,-7 23,-13 6,-7 10,-16 13,-24 2,-8 2,-14 1,-67 -1,-53 -2,-153 -4,-205 -1,-53 -3,-59 -7,-64 -4,-5 -10,-9 -16,-12 -6,-3 -13,-4 -16,-5 -3,-1 -3,-1 -3,-1 0,0 0,0 2,1 2,1 6,3 9,7 4,3 8,7 11,13 3,7 5,15 7,66 1,51 1,145 0,196 -1,51 -3,59 -5,66 -2,7 -5,13 -12,17 -6,4 -15,6 -63,6 -49,1 -137,0 -184,-1 -48,-2 -54,-3 -59,-7 -6,-4 -9,-10 -11,-60 -1,-51 -1,-146 0,-199 2,-53 3,-64 5,-72 2,-8 5,-14 10,-19 4,-5 10,-11 10,-13 0,-3 -5,-2 -11,0z"/>
   <rect class="fil27" x="23938" y="14590" width="350.224" height="23.4427"/>
   <rect class="fil27" x="24098" y="14474" width="19.5218" height="382.784"/>
   <line class="fil21" x1="24767" y1="14486" x2="24767" y2= "14873" />
   <line class="fil21" x1="24592" y1="14613" x2="24946" y2= "14613" />
   <path class="fil33" d="M24655 14615c58,-3 171,-2 229,-3 59,-1 62,-4 63,-8 2,-4 2,-9 1,-18 -1,-9 -2,-22 -3,-29 0,-6 0,-6 -59,-6 -58,0 -175,1 -233,2 -58,0 -58,0 -59,7 -1,6 -2,18 -2,31 -1,13 0,25 1,29 2,3 4,-3 62,-5z"/>
   <path class="fil27" d="M24620 14485c-5,2 -11,5 -16,9 -5,5 -10,11 -14,19 -3,7 -5,16 -6,70 -1,53 -1,152 -1,204 1,53 3,59 6,66 2,6 6,12 11,16 6,5 14,7 29,9 14,1 36,2 82,2 47,0 117,-1 156,-1 38,-1 45,-1 53,-3 7,-3 16,-7 22,-14 7,-7 11,-16 13,-24 3,-7 3,-14 2,-67 -1,-53 -2,-152 -4,-205 -2,-53 -4,-59 -8,-64 -3,-5 -9,-9 -15,-11 -6,-3 -13,-5 -16,-6 -3,-1 -3,-1 -3,-1 0,0 0,0 2,1 2,2 6,4 9,7 4,3 7,8 10,14 3,6 6,14 7,65 2,51 2,145 1,196 -1,51 -3,59 -5,66 -3,8 -6,14 -12,18 -6,4 -15,5 -64,6 -48,0 -136,-1 -184,-2 -47,-1 -53,-3 -59,-7 -5,-3 -9,-9 -10,-60 -2,-50 -1,-146 0,-199 1,-53 3,-64 5,-72 2,-8 5,-13 9,-19 5,-5 10,-11 11,-13 0,-2 -5,-2 -11,0z"/>
   <rect class="fil27" x="24597" y="14600" width="350.224" height="23.4427"/>
   <rect class="fil27" x="24757" y="14601" width="19.5218" height="265.735"/>
   <path class="fil33" d="M24075 14054c-7,-1 -16,-1 -32,0 -16,1 -37,3 -53,6 -16,2 -25,6 -30,10 -4,5 -4,9 -1,12 3,3 8,6 24,4 15,-1 41,-6 61,-11 21,-6 35,-12 40,-15 4,-4 -1,-5 -9,-6z"/>
   <path class="fil33" d="M23914 14075c-9,-1 -20,0 -31,0 -11,1 -21,2 -32,4 -10,2 -20,6 -27,10 -7,4 -12,9 -12,13 -1,4 1,8 6,10 4,2 11,4 22,4 12,0 28,-2 41,-4 14,-2 26,-5 35,-8 8,-3 13,-7 16,-11 3,-3 3,-7 0,-11 -3,-3 -9,-6 -18,-7z"/>
   <path class="fil33" d="M24775 14045c8,0 17,0 33,1 16,2 37,4 53,7 15,3 25,8 29,12 5,4 4,8 1,12 -3,3 -8,5 -24,3 -15,-2 -41,-7 -61,-13 -20,-6 -34,-13 -39,-16 -4,-4 1,-5 8,-6z"/>
   <path class="fil33" d="M24937 14070c8,0 20,1 31,2 10,1 21,2 31,5 10,2 20,6 27,10 7,5 11,9 12,14 1,4 -2,7 -7,9 -4,3 -11,4 -22,3 -11,0 -27,-2 -41,-4 -14,-3 -26,-6 -34,-10 -8,-3 -14,-7 -16,-10 -3,-4 -3,-8 0,-11 3,-4 10,-7 19,-8z"/>
   <circle class="fil27" cx="24459" cy="15299" r="36"/>
   <circle class="fil27" cx="24461" cy="15126" r="36"/>
   <circle class="fil27" cx="24463" cy="14952" r="36"/>
   <circle class="fil27" cx="24465" cy="14778" r="36"/>
   <circle class="fil27" cx="24467" cy="14604" r="36"/>
   <circle class="fil27" cx="24469" cy="14430" r="36"/>
   <rect class="fil41" x="25494" y="14022" width="414.021" height="36.4573"/>
   <circle class="fil42" cx="25496" cy="14826" r="74"/>
   <path class="fil21 str4" d="M25804 14837c0,-1 33,-33 7,-1 -59,72 36,-9 59,-21 -84,72 -43,43 37,4 56,-27 -28,5 -52,21 -135,90 79,-5 74,-29 -40,1 -126,99 -22,20 12,-9 53,-72 14,-40 -1,0 -128,108 -78,75 13,-9 74,-40 76,-42 -47,6 -120,105 -7,23 25,-18 -36,20 15,-3 29,-14 -26,-4 -25,7 39,0 55,-34 20,-11 -12,7 11,-1 -5,5 -18,6 54,6 76,-3 2,0 3,0 5,0"/>
   <path class="fil43" d="M23884 15409c0,-13 -1,-21 -1,-27 0,-12 0,-12 -28,-12l-101 0 -13 0c-28,0 -28,0 -28,49 -1,50 -1,148 1,207 2,58 8,76 19,89 4,5 9,9 15,13 0,58 0,132 0,227 2,346 8,969 10,1281l2 230c43,-54 136,-92 245,-92 110,0 204,39 246,94 1,-33 3,-80 5,-146 6,-226 19,-678 29,-918 10,-240 16,-269 27,-292 10,-23 24,-42 46,-51 23,-9 52,-9 77,-1 25,9 44,26 56,55 11,28 13,69 15,311 2,242 3,686 4,908l1 139c39,-58 136,-99 250,-99 109,0 202,38 245,93l7 -214 39 -1226 3 -100c4,2 9,3 14,3 8,0 18,-3 26,-8 8,-5 14,-11 20,-19 5,-7 9,-16 12,-33 2,-16 4,-40 5,-116 0,-75 0,-202 -1,-270 -1,-68 -2,-76 -5,-84 -2,-8 -6,-15 -12,-20 -5,-4 -13,-7 -21,-9 -8,-2 -17,-4 -24,-3 -7,0 -12,2 -17,6 -1,1 -2,1 -3,2l-1 1c-5,6 -9,16 -11,24 -2,9 -3,18 -3,22 0,5 0,5 -7,7 -7,2 -22,5 -62,11 -40,5 -106,11 -140,16 -20,2 -29,4 -33,7 -27,2 -58,5 -91,6 -35,0 -73,-2 -105,-2 -33,-1 -59,0 -106,-1 -46,-1 -112,-3 -158,-5 -45,-2 -71,-3 -107,-6 -37,-3 -84,-8 -139,-15 -54,-8 -115,-18 -152,-24 -23,-4 -38,-6 -50,-8zm1157 488l0 0 0 21 0 -21z"/>
   <path class="fil40" d="M24978 17439c11,9 20,18 28,28l7 -214 39 -1226 3 -100c4,2 9,3 14,3 8,0 18,-3 26,-8 4,-2 7,-5 10,-8 0,-33 -1,-64 -3,-91 -9,-187 -38,-228 -54,-234 -16,-7 -20,21 -30,350 -9,329 -26,959 -34,1274 -3,108 -5,179 -6,226zm63 -1542l0 0 0 21 0 -21z"/>
   <path class="fil40" d="M24232 17447c7,7 14,14 19,21 1,-33 3,-80 5,-146 6,-226 19,-678 29,-918 10,-240 16,-269 27,-292 10,-23 24,-42 46,-51 23,-9 52,-9 77,-1 25,9 44,26 56,55 11,28 13,69 15,311 2,242 3,686 4,908l1 139c6,-9 13,-17 22,-26l1 -137c2,-210 4,-630 4,-863 0,-234 -2,-281 -9,-317 -7,-37 -19,-63 -36,-82 -17,-20 -41,-33 -67,-39 -26,-6 -55,-5 -78,5 -24,9 -43,27 -57,55 -13,28 -21,65 -27,133 -5,68 -9,166 -12,318 -4,152 -7,357 -11,527 -3,170 -7,303 -9,378l0 22z"/>
   <path class="fil40" d="M23727 15707c2,3 4,5 6,8 4,5 9,9 15,13 0,58 0,132 0,227 2,346 8,969 10,1281l2 230c6,-7 13,-14 20,-21l-1 -255c-2,-297 -6,-891 -8,-1198 -3,-307 -5,-328 -18,-324 -6,2 -15,10 -26,39z"/>
   <path class="fil35" d="M23891 15643c-3,8 -4,20 -6,34 -3,15 -8,32 -16,44 -7,13 -16,20 -26,25 -9,5 -20,7 -32,7 -12,-1 -25,-3 -38,-5 -12,-3 -23,-6 -34,-11 -10,-6 -20,-13 -28,-53 -9,-39 -17,-111 -18,-170 -1,-59 4,-104 7,-127 3,-24 5,-25 36,-27 31,-1 92,-2 125,-1 32,1 35,3 36,17 0,14 -2,39 -4,52 -1,13 -1,13 19,14 20,0 61,2 86,5 26,3 37,8 43,16 7,8 8,20 10,44 1,24 2,59 1,80 -1,22 -4,30 -8,36 -3,7 -9,10 -32,11 -24,0 -65,-3 -89,-3 -24,1 -29,4 -32,12z"/>
   <path class="fil35" d="M24787 15473c0,-12 3,-14 37,-18 34,-4 100,-10 140,-16 40,-5 54,-9 61,-11 8,-2 8,-2 8,-6 0,-4 0,-13 3,-22 2,-9 6,-18 11,-24 6,-6 12,-9 20,-10 8,0 17,1 25,4 8,2 15,4 21,9 6,5 9,12 12,20 3,7 4,16 5,84 1,68 1,194 0,270 0,75 -2,100 -5,116 -3,17 -6,25 -12,33 -5,7 -11,14 -19,19 -8,4 -18,8 -26,8 -8,0 -14,-3 -19,-6 -5,-3 -9,-7 -10,-48 -2,-42 -2,-120 -1,-159 0,-40 0,-40 -9,-39 -9,0 -26,1 -50,0 -24,-1 -54,-4 -78,-8 -25,-3 -43,-7 -58,-12 -15,-4 -27,-9 -35,-16 -9,-6 -15,-14 -18,-33 -3,-18 -3,-48 -3,-74 -1,-26 -1,-49 0,-61z"/>
   <path class="fil44" d="M25107 15375c2,1 4,3 6,4 6,5 9,12 12,20 3,7 4,16 5,84 1,68 1,194 0,270 0,75 -2,100 -5,116 -3,17 -6,25 -12,33 -3,5 -7,10 -12,14 0,-15 0,-35 0,-62 1,-98 1,-293 4,-397 0,-38 1,-64 2,-82z"/>
   <path class="fil35" d="M24251 15639l0 -173c-1,0 -1,0 -2,0l-106 0c-16,0 -30,14 -30,30l0 114c0,16 14,29 30,29l106 0 2 0z"/>
   <path class="fil35" d="M24575 15464l0 175c1,0 2,0 2,0l106 0c17,0 30,-14 30,-31l0 -122c0,-40 -82,-22 -115,-22 -8,0 -15,0 -23,0z"/>
   <rect class="fil45" x="24251" y="15449" width="324" height="211"/>
   <rect class="fil35" x="24304" y="15496" width="224" height="115"/>
   <path class="fil46" d="M24829 17401c17,4 34,8 51,15 18,8 36,18 52,28 16,10 28,21 37,31 9,10 14,18 18,28 4,9 7,19 8,24 1,5 1,5 -19,5 -20,0 -60,0 -80,0 -20,0 -20,0 -20,0 0,0 0,0 0,-6 0,-7 0,-20 -3,-35 -3,-15 -7,-33 -15,-46 -7,-13 -17,-21 -26,-29 -9,-8 -18,-14 -27,-19 -9,-4 -20,-6 -25,-7 -5,-1 -5,-1 4,1 9,2 27,6 45,10z"/>
   <path class="fil46" d="M24071 17401c17,4 34,8 51,15 18,8 37,18 52,28 16,10 28,21 37,31 9,10 14,18 18,28 4,9 7,19 8,24 2,5 2,5 -18,5 -20,0 -60,0 -80,0 -20,0 -20,0 -20,0 0,0 0,0 0,-6 -1,-7 -1,-20 -4,-35 -2,-15 -7,-33 -15,-46 -7,-13 -17,-21 -26,-29 -9,-8 -17,-14 -27,-19 -9,-4 -19,-6 -25,-7 -5,-1 -5,-1 4,1 9,2 28,6 45,10z"/>
   <path class="fil21 str5" d="M25452 14172l515 0m-515 244l515 0m-515 -31l515 0m-515 -30l515 0m-515 -31l515 0m-515 -30l515 0m-515 -31l515 0m-515 -30l515 0m-515 -31l515 0"/>
  </g>
  <g id="_2996790051824">
   <path class="fil47" d="M37925 16929c-22,43 -54,111 -80,155 -26,43 -47,62 -94,73 -46,12 -117,18 -1023,16 -907,-1 -2649,-9 -3527,-14 -878,-4 -893,-6 -903,-23 -11,-18 -17,-52 -28,-111 -10,-59 -25,-142 -31,-184 -6,-42 -3,-43 -310,-43 -306,0 -922,1 -1256,17 -333,17 -385,48 -410,90 -25,42 -23,93 -25,138 -2,45 -8,83 -20,105 -13,21 -32,27 -116,11 -84,-15 -232,-50 -328,-75 -96,-24 -141,-37 -178,-45 -37,-8 -66,-11 -90,-17 -24,-7 -44,-17 -58,-37 -14,-20 -22,-49 -17,-124 6,-74 24,-194 35,-288 12,-95 16,-163 24,-271 9,-107 22,-253 33,-348 11,-95 20,-139 33,-174 13,-35 28,-61 74,-103 45,-42 120,-100 224,-157 104,-57 235,-112 384,-163 149,-51 315,-97 470,-134 155,-38 299,-67 491,-95 192,-29 432,-56 745,-89 313,-33 699,-72 893,-91 193,-19 193,-19 193,-19 0,0 0,0 42,-35 42,-35 126,-105 264,-202 137,-96 327,-220 502,-323 175,-103 336,-185 473,-244 136,-60 248,-96 387,-133 139,-36 306,-72 495,-98 190,-26 404,-43 623,-55 220,-11 445,-16 654,-10 208,6 399,23 575,43 175,19 335,42 530,82 196,40 428,98 544,127 116,29 116,29 121,34 4,5 14,14 24,24 11,10 23,20 254,106 231,87 682,249 928,335 246,85 287,95 340,100 53,5 117,7 175,14 57,8 107,23 219,40 112,17 286,37 442,48 155,11 293,14 370,19 77,6 94,13 106,29 12,15 18,37 21,91 3,54 1,140 1,250 0,110 2,245 2,312 1,67 1,67 1,67 0,0 0,0 15,9 15,10 46,28 76,56 31,29 63,67 86,114 23,48 38,105 34,285 -3,180 -24,483 -38,638 -14,155 -20,161 -53,169 -32,8 -90,17 -338,19 -248,1 -685,-6 -1157,-5 -472,1 -979,9 -1280,13 -301,4 -398,4 -452,12 -55,9 -68,26 -91,69z"/>
   <polygon class="fil48" points="32977,16641 32969,16910 36015,16854 36094,16593 "/>
   <path class="fil49" d="M30275 16889c-4,5 -8,10 -12,16 -25,42 -23,93 -25,138 -2,45 -8,83 -20,105 -13,21 -32,27 -116,11 -84,-15 -232,-50 -328,-75 -96,-24 -141,-37 -178,-45 -37,-8 -66,-11 -90,-17 -24,-7 -44,-17 -58,-37 -14,-20 -22,-49 -17,-124 3,-35 8,-81 15,-129 67,1 141,6 220,11 169,11 360,26 466,32 105,6 125,3 136,50 3,17 6,39 7,64z"/>
   <path class="fil49" d="M41122 15412l0 71c1,67 1,67 1,67 0,0 0,0 15,9 15,10 46,28 76,56 31,29 63,67 86,114 23,48 38,105 34,285 -3,180 -24,483 -38,638 -14,155 -20,161 -53,169 -32,8 -90,17 -338,19 -226,1 -610,-4 -1034,-5 0,-17 1,-36 1,-57 2,-66 4,-149 -17,-243 -20,-93 -62,-197 -107,-286 -45,-88 -92,-161 -145,-225 -53,-65 -111,-121 -140,-150 -29,-28 -29,-28 69,-41 99,-12 295,-37 462,-69 167,-32 304,-70 398,-107 94,-37 146,-72 181,-109 35,-36 53,-73 62,-106 8,-34 7,-64 22,-78 15,-14 47,-11 138,-1 85,9 222,24 327,49z"/>
   <path class="fil8" d="M41326 16230c-2,38 -4,76 -7,113 -25,4 -51,5 -75,6 -45,2 -83,3 -114,-3 -31,-6 -55,-19 -70,-38 -16,-18 -24,-42 -28,-54 -4,-12 -4,-12 62,-14 55,-2 157,-6 232,-10z"/>
   <path class="fil50" d="M37925 16929c-22,43 -54,111 -80,155 -26,43 -47,62 -94,73 -46,12 -117,18 -1023,16 -907,-1 -2649,-9 -3527,-14 -878,-4 -893,-6 -903,-23 -11,-18 -17,-52 -28,-111l0 -2 0 -1 0 -1 -1 -1 0 -1 0 -1 0 -1 0 -1 -1 -2 0 0 0 -1 0 -2 0 0 -1 -2 0 -1 0 -1 0 -2 0 0 -1 -2 0 -1 0 0 0 -2 0 -1 -1 -1 0 -2 0 0 0 -2 0 -1 -1 -1 0 -2 0 0 0 -2 -1 -1 0 -1 0 -1 0 -1 0 -1 -1 -2 0 0 0 -2 0 -2 0 0 -1 -2 0 -1 0 -1 0 -2 0 0 -1 -2 0 -1 0 -1 0 -2 0 0 -1 -2 0 -1 0 -1 0 -2 -1 -1 0 -1 0 -2 0 0 0 -2 -1 -1 0 -1 0 -2 0 0 -1 -2 0 -1 0 -1 0 -2 0 0 -1 -2 0 -2 0 0 0 -2 0 -1 -1 -1 0 -2 0 0 0 -2 0 -1 -1 -1 0 -2 0 0 0 -1 -1 -2 0 0 0 -2 0 -1 0 -1 -1 -2 0 -1 0 -1 0 -2 0 0 0 -2 -1 -1 0 -1 0 -2 0 0 0 -2 -1 -1 0 0 0 -2c89,-7 315,-13 889,-28 947,-26 2840,-76 3794,-86 953,-9 966,21 979,68 5,21 10,44 16,69l-1 1 -1 2z"/>
   <path class="fil51" d="M37831 17105c-21,29 -42,43 -80,52 -46,12 -117,18 -1023,16 -907,-1 -2649,-9 -3527,-14 -878,-4 -893,-6 -903,-23 -10,-17 -16,-47 -25,-97 78,-5 248,-6 619,-10 683,-7 2049,-20 2953,-32 905,-12 1348,-22 1603,-8 256,15 325,54 366,97 6,6 12,13 17,19z"/>
   <path class="fil47 str3" d="M30287 16879c-16,11 -25,27 -37,50 -7,13 -14,28 -22,43 -13,-48 -22,-97 -28,-147 -4,-39 -6,-78 -6,-117 0,-14 0,-28 0,-42 3,-43 6,-74 10,-103 7,-48 18,-90 31,-125 14,-36 29,-65 34,-51 6,15 2,75 5,156 2,81 12,185 13,279 0,19 0,38 0,57z"/>
   <path class="fil52" d="M29472 17008c-9,-6 -17,-14 -24,-23 -14,-20 -22,-49 -17,-124 6,-74 24,-194 35,-288l1 -2c20,-17 37,-29 56,-40 41,-26 90,-53 127,-66 37,-14 62,-16 85,-12 24,3 46,11 64,30 18,19 31,50 37,85 6,34 5,74 -2,110 -6,35 -18,67 -41,106 -23,39 -58,85 -91,118 -33,34 -64,55 -95,72 -28,15 -56,27 -135,34z"/>
   <path class="fil53" d="M29680 15634c44,-35 102,-75 174,-114 104,-57 235,-112 384,-163 149,-51 315,-97 470,-134 155,-38 299,-67 491,-95 192,-29 432,-56 745,-89 313,-33 699,-72 893,-91 193,-19 193,-19 193,-19 0,0 0,0 42,-35 42,-35 126,-105 264,-202 137,-96 327,-220 502,-323 175,-103 336,-185 473,-244 136,-60 248,-96 387,-133 139,-36 306,-72 495,-98 190,-26 404,-43 623,-55 220,-11 445,-16 654,-10 208,6 399,23 575,43 175,19 335,42 530,82 196,40 428,98 544,127 116,29 116,29 121,34 4,5 14,14 24,24 11,10 23,20 254,106 231,87 682,249 928,335 246,85 287,95 340,100 53,5 117,7 175,14 57,8 107,23 219,40 112,17 286,37 442,48 155,11 293,14 370,19 77,6 94,13 106,29 12,15 18,37 21,91 3,54 1,140 1,250 0,39 0,81 1,122 -119,-27 -245,-58 -360,-80 -177,-35 -330,-50 -936,-37 -607,13 -1667,55 -3547,142 -1880,87 -4581,219 -5931,285 -275,13 -494,24 -667,31z"/>
   <path class="fil54" d="M33054 14909l18 -15c42,-35 126,-105 264,-202 137,-96 327,-220 502,-323 175,-103 336,-185 473,-244 84,-37 159,-65 237,-90 13,8 20,19 21,32 1,16 -8,35 -59,72 -51,37 -145,90 -276,161 -131,71 -300,159 -456,249 -157,89 -301,180 -399,241 -97,60 -147,90 -188,106 -40,15 -71,17 -109,15 -9,0 -18,-1 -28,-2z"/>
   <path class="fil55" d="M29731 15933c-15,24 -33,46 -52,69 -18,23 -37,46 -53,61 -16,16 -30,24 -41,27 -11,2 -20,0 -26,-10 -7,-10 -10,-27 -8,-65 3,-38 10,-97 17,-135 7,-39 12,-57 20,-72 8,-15 20,-26 36,-34 16,-8 37,-11 57,-12 20,-1 39,1 53,4 14,4 23,9 28,25 5,16 7,42 2,68 -5,25 -18,51 -33,74z"/>
   <path class="fil56" d="M39047 15235c-701,41 -1824,107 -3177,165 -1353,58 -2935,108 -3726,133 -791,25 -791,25 -791,25 0,0 0,0 374,-21 374,-21 1123,-63 2029,-117 906,-54 1969,-120 2876,-168 907,-47 1659,-76 2245,-88 587,-12 1009,-7 1220,-4 211,3 211,3 211,3 0,0 0,0 -140,7 -140,8 -419,24 -1121,65z"/>
   <path class="fil57" d="M30021 15975c113,-77 287,-203 374,-267 87,-63 87,-63 87,-63 0,0 0,0 -34,-2 -34,-2 -103,-6 -179,-3 -75,3 -159,12 -237,30 -78,17 -152,44 -207,68 -55,25 -90,47 -115,71 -25,25 -40,51 -49,87 -9,37 -13,83 -11,118 2,35 10,58 37,72 27,14 73,18 121,6 49,-12 101,-39 213,-117z"/>
   <path class="fil52" d="M37681 14903c-367,14 -795,30 -1260,50 -465,20 -966,43 -1518,71 -553,27 -1157,57 -1453,65 -297,9 -287,-4 -236,-40 51,-37 142,-96 187,-126 46,-29 46,-29 49,-39 2,-9 7,-27 21,-48 13,-21 34,-45 60,-65 27,-20 58,-36 86,-46 28,-11 51,-16 76,-21 24,-4 49,-8 62,-10 12,-2 12,-2 12,-2 0,0 0,0 70,-45 69,-45 207,-134 341,-214 134,-80 263,-150 376,-205 114,-56 211,-96 310,-130 98,-34 197,-60 316,-78 119,-18 259,-27 404,-33 145,-6 296,-8 457,-6 162,2 334,8 470,15 135,6 232,13 367,29 134,17 306,43 462,71 156,28 297,57 455,97 159,40 334,91 486,140 151,49 279,95 374,133 95,39 157,69 200,97 43,27 66,52 78,77 12,24 12,48 4,74 -8,27 -23,56 -44,79 -20,23 -45,40 -86,51 -40,10 -95,14 -275,23 -180,8 -485,21 -851,36z"/>
   <path class="fil58 str3" d="M36862 14383c-33,123 -81,297 -104,384 -24,87 -24,87 -24,87 0,0 0,0 291,-9 290,-8 872,-25 1194,-41 321,-16 383,-30 421,-48 38,-17 51,-36 48,-62 -3,-26 -21,-57 -80,-95 -58,-38 -157,-81 -298,-134 -141,-53 -325,-115 -561,-175 -237,-60 -527,-118 -672,-147 -145,-29 -145,-29 -145,-29 0,0 0,0 -9,37 -10,36 -28,108 -61,232z"/>
   <path class="fil58 str3" d="M36715 14310c-35,127 -93,336 -122,440 -29,104 -29,104 -29,104 0,0 0,0 0,0 0,0 0,0 -179,10 -178,10 -536,30 -983,54 -447,24 -983,53 -1252,68 -268,14 -268,14 -268,14 0,0 0,0 5,-31 4,-32 13,-95 15,-140 1,-45 -5,-71 -19,-88 -14,-16 -35,-23 -46,-26 -10,-3 -10,-3 -10,-3 0,0 0,0 53,-34 53,-34 160,-101 272,-165 112,-65 230,-127 344,-183 115,-56 227,-106 341,-144 114,-39 230,-65 361,-85 130,-21 276,-35 444,-43 168,-8 359,-10 551,-3 193,7 387,21 484,28 97,8 97,8 97,8 0,0 0,0 -6,23 -6,23 -18,69 -53,196z"/>
   <path class="fil54" d="M39562 14574c230,84 241,91 245,97 2,4 2,8 1,11 -8,-1 -15,-1 -22,-2 -53,-5 -94,-15 -340,-100 -246,-86 -697,-248 -928,-335 -231,-86 -243,-96 -254,-106 -2,-3 -5,-5 -7,-7 11,0 26,2 52,8 30,7 77,19 325,105 249,86 698,246 928,329z"/>
   <path class="fil8" d="M41120 15129l0 42c0,110 2,245 2,312 1,67 1,67 1,67l1 1c-21,9 -47,11 -75,12 -57,2 -124,0 -192,-13 -68,-14 -136,-41 -210,-91 -73,-50 -150,-124 -193,-172 -43,-48 -51,-70 -45,-93 7,-22 28,-45 70,-68 41,-24 103,-49 167,-65 64,-16 130,-22 189,-22 60,0 112,6 154,17 42,12 72,27 100,46 11,7 21,15 31,27z"/>
   <path class="fil52" d="M38904 15673c571,0 1034,463 1034,1034 0,43 -2,86 -8,128 -42,0 -84,0 -127,0 6,-42 9,-84 9,-128 0,-501 -407,-908 -908,-908 -467,0 -851,353 -902,806 17,57 31,144 33,192 3,56 -10,59 -23,62l-3 1 0 1c-7,2 -13,3 -19,5 -5,1 -9,3 -13,5 -10,5 -18,11 -25,20 -8,8 -15,20 -26,39 -10,19 -23,47 -40,78 -17,31 -37,66 -47,83 -10,18 -10,18 -10,18 0,0 0,0 3,-38 3,-38 10,-113 16,-186 7,-73 14,-144 18,-191 2,-16 4,-30 5,-41 28,-546 480,-980 1033,-980z"/>
   <g>
    <path class="fil59 str3" d="M38904 15799c-502,0 -908,407 -908,908 0,501 406,908 908,908 501,0 908,-407 908,-908 0,-501 -407,-908 -908,-908zm603 1020c-61,7 -176,10 -357,15 -180,5 -427,13 -588,17 -160,4 -236,4 -273,4 -38,0 -38,0 -38,0 0,0 0,0 5,11 4,12 14,34 32,74 19,39 46,96 79,143 32,46 69,83 113,118 44,34 96,66 140,89 45,23 83,37 133,46 49,10 110,14 159,15 49,1 86,0 136,-11 50,-10 113,-30 172,-59 58,-29 112,-67 162,-125 49,-57 94,-133 127,-198 33,-65 54,-117 61,-138 6,-20 -2,-8 -63,-1z"/>
    <circle class="fil60" cx="38895" cy="16698" r="475"/>
    <circle class="fil22 str3" cx="38904" cy="16707" r="107"/>
    <path class="fil61" d="M38904 16009c-386,0 -698,312 -698,698 0,386 312,698 698,698 385,0 698,-312 698,-698 0,-386 -313,-698 -698,-698zm0 492c-14,0 -27,2 -39,4l-16 -426c18,-2 36,-3 55,-3 14,0 28,1 41,2l-3 427c-13,-2 -25,-4 -38,-4zm-69 12c-46,16 -84,48 -108,89l-366 -216c84,-142 222,-249 387,-290l87 417zm-122 117c-8,21 -13,43 -15,66l-416 -94c8,-47 20,-91 38,-134l393 162zm-13 104c5,43 24,82 52,112l-311 289c-104,-112 -168,-263 -168,-428 0,-9 0,-18 1,-27l426 54zm76 134c16,13 35,24 56,32l-228 362c-35,-18 -67,-40 -98,-65l270 -329zm84 40c14,3 29,5 44,5 23,0 45,-4 66,-11l190 382c-78,35 -165,54 -256,54 -83,0 -162,-16 -235,-45l191 -385zm136 -17c19,-9 36,-22 51,-36l282 319c-32,29 -67,54 -105,77l-228 -360zm74 -63c24,-32 38,-72 39,-115l424 -45c1,13 2,26 2,39 0,162 -61,310 -162,422l-303 -301zm38 -148c-3,-24 -11,-48 -22,-69l405 -136c13,34 24,69 31,106l-414 99zm-39 -96c-24,-32 -56,-56 -94,-70l64 -423c175,38 322,148 409,298l-379 195z"/>
    <circle class="fil62" cx="38901" cy="16704" r="107"/>
   </g>
   <path class="fil52" d="M31228 15673c571,0 1034,463 1034,1035 0,33 -1,66 -4,99l-2 27c-1,25 -3,50 -3,63 -1,13 -1,13 -1,13l-2 -2 -1 6c0,0 0,0 -30,-3 -31,-3 -91,-8 -173,-15 -82,-7 -185,-17 -289,-23 -104,-6 -209,-8 -354,-3 -144,5 -327,19 -469,40 -141,22 -240,52 -322,79 -82,26 -148,49 -209,74 -61,25 -116,52 -148,71 -20,11 -32,19 -39,22 -5,5 -9,8 -13,9 -5,3 -9,4 -11,1 -1,1 -3,1 -6,1 0,-9 1,-21 1,-36 0,-81 2,-245 4,-354 1,-45 2,-81 3,-111 22,-552 476,-993 1034,-993zm897 897c-66,-436 -442,-770 -897,-770 -488,0 -886,384 -907,867 46,-61 125,-104 319,-129 211,-28 558,-36 837,-28 279,7 490,29 607,52 15,3 29,5 41,8z"/>
   <g>
    <path class="fil59" d="M31228 15791c-501,0 -908,406 -908,908 0,501 407,907 908,907 501,0 908,-406 908,-907 0,-502 -407,-908 -908,-908zm603 1019c-61,8 -176,10 -356,16 -181,5 -428,13 -588,17 -161,4 -236,4 -274,4 -38,0 -38,0 -38,0 0,0 0,0 5,11 5,11 14,33 32,73 19,40 46,96 79,143 32,47 69,84 113,118 44,34 96,66 141,89 44,23 83,38 132,47 50,9 110,13 159,14 49,2 86,0 136,-10 50,-11 113,-30 172,-59 59,-29 113,-68 162,-125 49,-57 94,-134 127,-198 33,-65 54,-118 61,-138 7,-21 -1,-9 -63,-2z"/>
    <circle class="fil60" cx="31219" cy="16689" r="475"/>
    <circle class="fil22" cx="31228" cy="16699" r="107"/>
    <path class="fil61" d="M31228 16000c-386,0 -698,313 -698,699 0,385 312,698 698,698 386,0 698,-313 698,-698 0,-386 -312,-699 -698,-699zm0 493c-13,0 -26,1 -39,4l-16 -427c18,-2 37,-2 55,-2 14,0 28,0 41,1l-3 427c-12,-2 -25,-3 -38,-3zm-69 12c-45,16 -84,48 -108,88l-366 -216c84,-142 223,-248 387,-290l87 418zm-122 117c-8,20 -13,42 -14,65l-417 -94c8,-46 21,-91 38,-133l393 162zm-13 103c6,44 25,82 53,113l-312 289c-104,-113 -168,-263 -168,-428 0,-10 0,-19 1,-28l426 54zm76 134c17,14 35,25 56,32l-228 363c-34,-19 -67,-41 -98,-66l270 -329zm84 41c14,3 29,4 44,4 23,0 46,-4 67,-11l190 382c-79,35 -166,54 -257,54 -83,0 -162,-16 -235,-45l191 -384zm136 -17c19,-10 36,-22 51,-37l282 319c-32,29 -67,55 -104,77l-229 -359zm74 -64c24,-32 38,-72 40,-114l424 -45c0,13 1,25 1,39 0,162 -61,310 -162,421l-303 -301zm38 -147c-3,-25 -11,-48 -22,-69l405 -136c13,34 24,69 31,105l-414 100zm-39 -97c-24,-31 -56,-56 -94,-69l64 -424c175,38 322,149 410,298l-380 195z"/>
    <circle class="fil62" cx="31225" cy="16696" r="107"/>
   </g>
   <path class="fil51" d="M35884 15237c8,20 14,42 15,69 1,27 -1,59 -16,83 -14,25 -41,42 -85,52 -44,10 -106,12 -159,0 -53,-11 -96,-38 -122,-63 -27,-25 -36,-49 -32,-69 4,-20 21,-38 70,-59 49,-21 129,-46 184,-58 56,-12 86,-10 107,-1 20,9 31,26 38,46z"/>
   <path class="fil63" d="M35934 15349c-110,13 -328,19 -443,17 -116,-1 -129,-9 -134,-19 -5,-11 -3,-24 7,-35 9,-12 25,-21 127,-33 102,-13 291,-29 396,-34 106,-5 128,0 141,10 13,10 17,24 18,42 1,18 -2,39 -112,52z"/>
  </g>
  <polygon class="fil64" points="48801,19558 13,19558 13,17703 48801,17703 "/>
  <path class="fil63" style="mask:url(#id0)" d="M30395 15711c-109,75 -280,207 -402,285 -122,78 -195,102 -415,208 -219,106 -585,293 -1083,480 -498,188 -1128,375 -1628,488 -500,113 -870,151 -1055,170 -185,20 -185,20 -185,20 0,0 0,0 0,0 0,0 0,0 0,-434 0,-434 0,-1302 0,-1736 0,-434 0,-434 0,-434 0,0 0,0 829,140 828,141 2485,422 3290,571 805,150 758,167 649,242z"/>
  <rect class="fil65" x="3900" y="13757" width="156" height="3851"/>
  <rect class="fil65" x="8150" y="13773" width="156" height="3835"/>
  <g id="_2996789997136">
   <rect class="fil66" x="3181" y="10912" width="5895" height="3294" rx="333" ry="333"/>
   <rect class="fil67" x="3239" y="10970" width="5779" height="3179" rx="350" ry="350"/>
   <path class="fil63" d="M3529 11684c0,-69 1,-181 5,-248 4,-68 10,-91 24,-111 13,-19 33,-36 52,-44 20,-8 40,-7 61,0 21,7 42,22 64,51 22,29 44,72 74,131 29,60 66,135 84,173 19,37 19,37 19,-28 1,-64 3,-194 4,-258 0,-65 0,-65 19,-65 18,0 55,0 74,0 18,0 18,0 18,19 0,19 -1,58 -1,116 0,58 1,134 0,188 -1,54 -3,84 -10,108 -6,24 -16,41 -31,55 -16,14 -37,24 -62,26 -24,2 -52,-6 -75,-24 -23,-17 -41,-46 -74,-111 -34,-66 -83,-168 -108,-219 -24,-51 -24,-51 -23,19 1,69 3,208 4,277 1,69 1,69 -19,69 -19,0 -58,0 -78,0 -20,0 -21,0 -21,-13 -1,-14 -1,-41 0,-111z"/>
   <path class="fil63" d="M4248 11481c0,64 -1,166 2,224 2,58 8,73 19,82 10,8 25,11 83,13 57,1 157,2 207,2 51,0 51,0 51,-17 1,-17 1,-52 1,-69 1,-18 1,-18 -43,-18 -44,-1 -131,-1 -174,-2 -44,0 -44,0 -44,-15 1,-15 2,-45 2,-60 0,-15 0,-15 44,-15 43,0 130,-1 173,-1 44,0 44,0 44,-18 0,-19 1,-55 1,-74 0,-18 0,-19 -43,-20 -43,-1 -129,-3 -172,-4 -43,-1 -43,-1 -43,-17 -1,-15 -2,-46 -2,-62 0,-15 0,-15 0,-15 0,0 0,0 43,-1 43,0 130,-1 174,-1 43,-1 43,-1 43,-1 0,0 0,0 0,-17 0,-18 0,-53 0,-70 0,-18 0,-18 -37,-19 -38,0 -113,-2 -167,-2 -55,0 -89,2 -112,6 -23,4 -34,10 -41,23 -7,12 -9,32 -10,55 -1,22 1,49 1,113z"/>
   <path class="fil63" d="M4827 11445c0,65 0,179 3,243 3,64 8,78 16,88 8,10 19,16 37,21 18,5 44,8 88,9 44,1 107,0 151,-4 44,-4 69,-11 93,-26 24,-15 46,-39 60,-65 14,-27 18,-57 18,-83 0,-26 -5,-48 -12,-61 -7,-14 -16,-20 -21,-22 -4,-3 -4,-3 -1,-9 4,-5 12,-17 19,-32 6,-16 11,-37 10,-63 -1,-25 -7,-55 -20,-79 -13,-23 -32,-40 -57,-53 -25,-13 -55,-22 -104,-26 -49,-4 -116,-2 -161,2 -45,4 -67,10 -83,21 -16,11 -25,26 -30,42 -5,15 -6,32 -6,97z"/>
   <path class="fil68" d="M4996 11387c33,0 83,1 116,4 33,2 48,7 58,14 11,7 19,16 21,28 2,11 -1,25 -10,35 -8,10 -23,16 -66,19 -42,4 -113,4 -148,4 -35,1 -35,1 -35,1 0,0 0,0 0,-17 0,-17 0,-51 0,-68 0,-17 0,-17 8,-18 7,0 23,-1 56,-2z"/>
   <path class="fil68" d="M4992 11591c33,-1 84,0 117,3 32,2 47,7 58,14 11,7 18,16 20,28 2,11 0,25 -9,35 -9,10 -24,16 -66,19 -43,4 -113,4 -149,4 -35,1 -35,1 -35,1 0,0 0,0 0,-17 0,-17 0,-51 0,-68 0,-17 0,-17 8,-17 8,-1 23,-2 56,-2z"/>
   <path class="fil63" d="M5524 11416c-3,84 -4,231 -4,305 0,74 0,74 0,74 0,0 0,0 18,0 18,-1 55,-2 73,-2 18,0 18,0 17,-20 -1,-20 -3,-60 -5,-81 -1,-20 -1,-22 31,-23 32,-1 96,-2 133,-2 37,1 47,2 55,6 8,3 14,9 18,32 3,22 4,62 4,82 1,20 1,20 1,20 0,0 0,0 19,0 19,0 58,0 77,0 20,0 20,0 20,0 0,0 0,0 -1,-23 -1,-23 -3,-69 -7,-100 -5,-31 -12,-47 -18,-60 -7,-13 -11,-23 -14,-28 -2,-5 -2,-5 2,-8 3,-3 11,-9 20,-25 8,-16 18,-41 23,-74 5,-32 6,-72 -1,-103 -7,-31 -22,-52 -39,-69 -18,-17 -38,-30 -79,-38 -41,-8 -102,-10 -154,-11 -52,-1 -94,0 -122,5 -28,5 -41,14 -50,28 -10,13 -14,32 -17,115z"/>
   <path class="fil68" d="M5690 11380c33,1 83,1 116,5 33,5 49,13 60,26 10,12 16,30 17,50 2,19 -1,39 -9,54 -9,14 -23,24 -45,29 -22,6 -53,8 -88,7 -35,0 -75,-3 -94,-4 -20,-2 -20,-2 -20,-29 0,-28 0,-83 0,-111 0,-28 0,-28 8,-28 7,1 22,1 55,1z"/>
   <path class="fil63" d="M6666 11586c0,-69 0,-134 -2,-174 -2,-41 -6,-57 -13,-73 -6,-15 -16,-30 -36,-41 -20,-11 -51,-19 -99,-22 -48,-3 -112,-2 -156,1 -44,3 -68,7 -88,14 -20,7 -36,17 -49,31 -12,14 -21,33 -24,59 -3,26 0,59 0,130 1,72 -1,181 -1,235 -1,55 -1,55 -1,55 0,0 0,0 19,0 18,1 56,2 74,2 19,0 19,0 19,0 0,0 0,0 0,-23 -1,-24 -1,-71 -2,-94 0,-24 0,-24 41,-23 41,1 123,2 164,2 41,1 41,1 41,1 0,0 0,0 0,23 0,23 1,69 1,92 0,24 0,24 0,24 0,0 0,0 18,-1 18,0 55,-1 73,-1 18,-1 18,-1 18,-1 0,0 0,0 0,-37 1,-37 2,-110 3,-179z"/>
   <path class="fil68" d="M6483 11547c-43,0 -109,1 -142,1 -33,1 -33,1 -33,-15 0,-16 0,-49 2,-73 2,-24 6,-40 13,-52 7,-13 18,-22 49,-26 32,-5 86,-4 120,0 35,4 51,12 62,29 10,17 16,43 17,67 1,25 -2,48 -3,59 -2,12 -2,12 -12,11 -10,0 -30,-1 -73,-1z"/>
   <path class="fil63" d="M7323 11557c10,18 18,41 19,68 1,27 -4,59 -15,84 -11,24 -28,41 -46,54 -18,12 -38,20 -63,26 -26,5 -59,8 -94,9 -35,1 -72,1 -103,-5 -30,-7 -55,-19 -76,-37 -21,-17 -37,-40 -48,-63 -11,-24 -16,-48 -18,-60 -2,-12 -2,-12 15,-12 18,0 54,0 71,1 18,0 18,0 20,4 2,5 5,14 15,24 10,11 27,22 55,29 28,7 67,9 98,8 31,-1 54,-5 68,-16 14,-11 20,-30 16,-45 -4,-15 -16,-26 -45,-33 -28,-6 -73,-7 -113,-9 -40,-3 -75,-6 -104,-16 -29,-10 -52,-25 -69,-47 -17,-21 -28,-49 -31,-77 -3,-29 2,-59 12,-86 11,-27 28,-51 51,-67 23,-15 52,-21 102,-24 50,-2 121,0 171,10 50,11 79,31 99,55 20,24 30,52 35,72 6,19 6,30 7,36 0,5 0,5 0,5 0,0 0,0 -20,0 -19,0 -59,0 -78,0 -20,0 -20,0 -20,0 0,0 0,0 -3,-6 -2,-6 -7,-17 -16,-28 -9,-11 -21,-21 -42,-27 -22,-6 -51,-9 -79,-10 -28,0 -54,2 -71,9 -18,7 -26,19 -28,33 -1,15 5,32 18,44 13,12 33,20 68,23 35,3 85,3 122,8 37,4 61,14 79,25 18,11 31,24 41,41z"/>
   <path class="fil63" d="M8740 11571c0,-69 0,-133 -2,-174 -2,-40 -6,-56 -13,-72 -6,-15 -16,-30 -36,-41 -20,-11 -51,-19 -99,-22 -48,-3 -113,-2 -157,1 -44,2 -67,7 -87,14 -20,7 -36,16 -49,30 -12,15 -21,33 -24,59 -3,26 0,60 0,131 1,71 -1,181 -1,235 -1,55 -1,55 -1,55 0,0 0,0 19,0 18,0 56,1 74,2 19,0 19,0 19,0 0,0 0,0 0,-23 -1,-24 -1,-71 -2,-94 0,-24 0,-24 41,-23 41,0 123,1 164,2 41,1 41,1 41,1 0,0 0,0 0,23 0,23 1,69 1,92 0,23 0,23 0,23 0,0 0,0 18,0 18,-1 54,-1 73,-2 18,0 18,0 18,0 0,0 0,0 0,-37 1,-37 2,-111 3,-180z"/>
   <path class="fil68" d="M8552 11532c-43,0 -109,1 -142,2 -33,1 -33,1 -33,-16 0,-16 0,-48 2,-72 2,-24 6,-40 13,-53 7,-12 18,-21 50,-26 31,-4 85,-4 120,1 34,4 50,12 61,29 11,17 16,42 17,67 2,24 -2,47 -3,59 -2,12 -2,12 -12,11 -10,-1 -30,-2 -73,-2z"/>
   <polygon class="fil63" points="7580,11793 7582,11272 7690,11272 7692,11432 7884,11271 8046,11269 7767,11530 8046,11802 7881,11802 7692,11623 7692,11793 "/>
   <path class="fil63" d="M5029 12194c0,23 0,61 1,80 0,19 0,20 9,22 10,1 29,2 39,3 9,0 9,0 9,11 0,10 0,31 0,42 0,10 0,10 -9,10 -9,-1 -27,-2 -38,-3 -10,0 -12,0 -12,16 -1,15 1,47 8,68 7,22 21,34 30,49 8,14 12,31 13,43 1,12 1,18 -6,21 -6,4 -18,4 -34,-5 -16,-9 -37,-26 -49,-44 -13,-18 -18,-37 -20,-95 -3,-59 -2,-158 -1,-208 0,-49 0,-49 10,-49 10,0 31,0 40,0 10,0 10,0 10,5 0,4 0,12 0,34z"/>
   <path class="fil63" d="M5183 12235c0,65 -1,188 -2,250 -1,61 -1,61 9,61 10,0 30,0 40,1 10,0 10,0 10,-21 -1,-21 -1,-63 1,-92 3,-29 10,-44 22,-54 11,-10 27,-15 39,-12 13,3 22,14 28,30 6,17 8,39 9,65 2,26 2,55 2,70 1,15 1,15 10,15 9,0 27,0 36,1 10,0 10,0 10,0 0,0 0,0 -1,-28 -1,-29 -2,-85 -9,-125 -7,-40 -19,-62 -35,-77 -15,-15 -33,-22 -52,-23 -18,0 -38,6 -48,10 -9,3 -9,3 -9,3 0,0 0,0 -1,-26 0,-25 -1,-75 -1,-101 -1,-25 -1,-25 -1,-25 0,0 0,0 -10,0 -9,0 -29,1 -39,1 -9,0 -9,0 -9,0 0,0 0,0 0,3 0,3 1,9 1,74z"/>
   <path class="fil63" d="M5744 12370c-8,-22 -22,-39 -40,-53 -18,-13 -41,-22 -63,-25 -22,-3 -43,0 -62,6 -20,7 -37,17 -50,30 -13,13 -22,29 -27,50 -5,20 -6,45 -4,65 3,21 9,39 18,52 10,14 22,25 38,34 16,8 36,15 55,17 19,2 36,1 54,-4 18,-6 36,-14 49,-26 12,-12 19,-26 22,-34 3,-7 3,-7 3,-7 0,0 0,0 -20,0 -20,0 -60,1 -87,-1 -28,-2 -43,-5 -53,-10 -10,-5 -14,-11 -17,-14 -2,-3 -2,-3 -2,-3 0,0 0,0 32,0 32,0 95,0 129,0 33,0 36,0 36,-13 0,-14 -2,-42 -11,-64z"/>
   <path class="fil69" d="M5623 12390c24,1 48,0 60,0 12,0 12,0 11,-4 -1,-4 -3,-13 -11,-22 -9,-8 -24,-17 -40,-22 -17,-5 -34,-5 -48,-1 -15,4 -26,11 -33,19 -6,8 -9,18 -10,23 -1,5 -1,5 11,5 12,1 36,2 60,2z"/>
   <path class="fil63" d="M4022 13037c-10,17 -15,33 -15,52 0,19 5,42 13,60 7,19 17,34 33,46 16,11 37,20 57,25 21,5 40,7 56,7 15,0 27,-1 33,-1 5,-1 5,-1 6,6 0,6 0,19 -5,32 -5,12 -15,24 -29,32 -14,8 -32,11 -48,9 -17,-3 -31,-12 -42,-21 -11,-9 -19,-17 -23,-21 -4,-5 -4,-5 -13,-5 -8,0 -25,-1 -35,-1 -9,1 -11,2 -10,9 0,6 3,18 12,32 8,13 22,29 40,43 19,13 42,25 66,28 25,4 50,0 72,-10 23,-9 42,-24 57,-50 16,-27 28,-65 33,-107 5,-42 4,-88 -5,-124 -8,-36 -22,-63 -44,-83 -22,-20 -51,-33 -81,-34 -30,-2 -60,9 -82,24 -23,15 -37,34 -46,52z"/>
   <circle class="fil69" cx="4133" cy="13092" r="69"/>
   <circle class="fil63" cx="4504" cy="13080" r="129"/>
   <circle class="fil69" cx="4504" cy="13080" r="72"/>
   <circle class="fil63" cx="4858" cy="13085" r="129"/>
   <circle class="fil69" cx="4858" cy="13085" r="72"/>
   <path class="fil63" d="M5219 12956c24,0 47,7 67,19l0 -157 60 0c0,77 28,238 -12,329 -19,45 -62,67 -115,67 -72,0 -129,-57 -129,-129 0,-71 57,-129 129,-129z"/>
   <circle class="fil69" cx="5219" cy="13085" r="72"/>
   <rect class="fil63" x="5742" y="12818" width="63.3136" height="397.827"/>
   <rect class="fil63" x="5888" y="12956" width="58.5456" height="258.051"/>
   <path class="fil63" d="M6047 13120c1,-52 1,-132 4,-181 3,-49 9,-67 20,-82 11,-16 27,-30 42,-38 15,-7 28,-8 35,-9 8,0 9,0 9,11 1,12 0,35 0,47 0,11 0,11 0,11 0,0 0,0 -4,0 -4,0 -11,0 -20,5 -8,4 -18,13 -24,25 -6,12 -8,28 -9,43 -1,15 -1,29 -1,38 1,8 1,11 10,12 10,1 30,1 39,0 10,0 10,0 10,9 0,10 -1,28 -1,38 0,10 -1,12 -9,13 -9,1 -26,1 -35,1 -9,0 -10,0 -10,25 0,26 1,76 1,102 0,25 0,25 -9,25 -9,0 -27,-1 -37,-1 -10,0 -12,0 -12,-11 0,-11 0,-32 1,-83z"/>
   <path class="fil63" d="M6495 13044c-8,-22 -22,-40 -41,-53 -18,-13 -41,-22 -63,-25 -22,-3 -43,-1 -62,6 -19,6 -37,17 -50,30 -13,13 -22,29 -27,49 -5,21 -6,45 -3,66 2,21 9,38 18,52 9,14 21,25 37,34 16,8 36,14 55,17 19,2 36,1 54,-5 18,-5 37,-13 49,-25 13,-12 19,-27 22,-34 3,-7 3,-7 3,-7 0,0 0,0 -20,0 -19,0 -59,0 -87,-1 -27,-2 -42,-5 -52,-10 -10,-5 -15,-11 -17,-14 -3,-3 -3,-3 -3,-3 0,0 0,0 32,0 32,0 96,0 129,0 33,0 36,0 36,-14 0,-13 -2,-41 -10,-63z"/>
   <path class="fil69" d="M6374 13064c24,1 48,0 60,0 12,0 12,0 11,-4 -1,-5 -3,-13 -12,-22 -9,-9 -24,-18 -40,-22 -16,-5 -34,-5 -48,-1 -15,3 -26,10 -32,19 -7,8 -10,18 -11,23 -1,4 -1,4 11,5 12,1 37,2 61,2z"/>
   <circle class="fil70" cx="7835" cy="12564" r="454"/>
   <circle class="fil63" cx="5919" cy="12879" r="35"/>
   <path class="fil71" d="M4202 13862l0 63c0,13 0,24 0,33 0,3 2,5 4,6l20 6 1 9c-14,-1 -31,-1 -50,-1 -19,0 -37,0 -53,1l-1 -9 23 -6c3,-1 5,-3 5,-5 0,-10 0,-21 0,-34l0 -135c0,-12 0,-21 0,-28 0,-3 -2,-5 -4,-6l-23 -7 -1 -8c16,0 33,0 53,0 19,0 36,0 50,0l1 8 -21 6c-2,1 -4,3 -4,5 0,8 0,18 0,29l0 55 101 0 0 -55c0,-11 0,-21 0,-29 0,-2 -2,-4 -5,-5l-19 -6 -1 -8c14,0 31,0 51,0 19,0 36,0 52,0l0 8 -23 7c-2,1 -4,3 -4,6 0,7 0,16 0,28l0 135c0,13 0,24 0,34 0,2 2,4 5,5l22 6 0 9c-16,-1 -34,-1 -53,-1 -19,0 -36,0 -49,1l-1 -9 20 -6c3,-1 5,-3 5,-6 0,-9 0,-20 0,-33l0 -63 -101 0z"/>
   <path id="1" class="fil71" d="M4455 13898c0,20 3,37 9,50 6,13 16,19 29,19 13,0 22,-6 28,-17 6,-11 9,-28 9,-50 0,-21 -3,-38 -9,-50 -7,-12 -16,-18 -30,-18 -12,0 -21,6 -27,17 -6,10 -9,27 -9,49zm127 -2c0,26 -8,47 -25,63 -17,16 -40,24 -67,24 -27,0 -48,-7 -64,-23 -16,-15 -24,-34 -24,-59 0,-25 8,-45 25,-61 17,-16 39,-24 68,-24 27,0 48,8 64,22 16,15 23,34 23,58z"/>
   <path id="2" class="fil71" d="M4891 13927c0,15 0,25 0,32 0,3 1,5 4,6l21 6 0 8c-16,-1 -32,-1 -49,-1 -17,0 -31,0 -44,1l-1 -8 16 -6c3,0 4,-2 4,-5 0,-1 0,-5 0,-10l0 -71c0,-14 -2,-24 -7,-30 -5,-6 -13,-9 -23,-9 -10,0 -19,3 -30,10 2,5 3,11 3,18l0 59c0,15 0,25 0,33 0,3 1,4 4,5l17 6 0 8c-13,-1 -28,-1 -44,-1 -17,0 -32,0 -45,1l-1 -8 16 -6c3,0 4,-2 4,-5 0,-1 0,-5 0,-10l0 -71c0,-14 -2,-24 -7,-30 -5,-6 -13,-9 -23,-9 -9,0 -18,2 -28,8l0 73c0,14 1,27 1,39 0,3 1,4 4,5l17 6 0 8c-14,-1 -29,-1 -45,-1 -17,0 -34,0 -50,1l-1 -8 22 -6c3,-1 4,-3 4,-6 0,-7 0,-14 0,-20l0 -56c0,-15 0,-29 0,-41l-25 -7 -1 -6c26,-4 50,-9 72,-13l2 1 0 18c19,-12 37,-19 55,-19 21,0 36,8 45,23 21,-15 41,-23 61,-23 16,0 29,5 38,14 9,9 14,22 14,38l0 59z"/>
   <path id="3" class="fil71" d="M5095 13967c-21,11 -43,16 -67,16 -27,0 -50,-7 -67,-20 -18,-14 -26,-34 -26,-61 0,-25 8,-46 25,-62 17,-16 38,-24 64,-24 23,0 40,7 53,19 12,12 18,29 18,50 0,4 0,7 0,11l-109 0c0,22 6,39 17,49 11,10 29,15 55,15 12,0 24,-1 35,-3l2 10zm-51 -88l0 -4c0,-15 -2,-26 -6,-33 -4,-7 -10,-10 -18,-10 -10,0 -17,5 -23,14 -6,9 -9,20 -10,33l57 0z"/>
   <path class="fil71" d="M5327 13898c0,20 3,37 9,50 7,13 16,19 30,19 12,0 22,-6 28,-17 6,-11 9,-28 9,-50 0,-21 -4,-38 -10,-50 -6,-12 -16,-18 -29,-18 -13,0 -22,6 -28,17 -6,10 -9,27 -9,49zm128 -2c0,26 -9,47 -26,63 -17,16 -39,24 -67,24 -26,0 -48,-7 -64,-23 -16,-15 -24,-34 -24,-59 0,-25 9,-45 25,-61 17,-16 40,-24 68,-24 27,0 48,8 64,22 16,15 24,34 24,58z"/>
   <path id="1" class="fil71" d="M5551 13841l0 89c0,11 0,20 0,28 0,3 2,5 4,6l24 7 0 8c-18,-1 -35,-1 -52,-1 -17,0 -33,0 -50,1l-1 -8 21 -6c3,-1 5,-3 5,-6 1,-7 1,-14 1,-22l0 -97 -25 -6 -2 -9 27 -2c0,-32 7,-57 21,-74 15,-18 34,-26 60,-26 13,0 26,1 37,4 -4,16 -7,32 -9,48l-10 2 -10 -38c-2,0 -4,0 -6,0 -12,0 -21,5 -27,17 -5,11 -8,32 -8,62l0 4 41 0 0 19 -41 0z"/>
   <path class="fil71" d="M6465 13903l-12 32c-3,6 -5,11 -6,15 -1,3 -2,6 -2,8 0,2 1,4 2,5 1,1 2,2 4,2l17 5 0 9c-16,-1 -30,-1 -40,-1 -11,0 -23,0 -37,1l0 -9 18 -5c4,-1 7,-4 9,-6 2,-3 4,-8 7,-14l84 -205 19 -3 73 206c3,8 5,13 7,16 3,3 6,5 10,6l17 5 0 9c-15,-1 -30,-1 -46,-1 -20,0 -40,0 -60,1l0 -9 16 -5c3,0 4,-1 5,-2 1,-1 2,-3 2,-5 0,-2 -1,-5 -2,-9 -1,-3 -3,-8 -5,-14l-11 -32 -69 0zm36 -98c-2,6 -4,12 -6,19l-24 61 57 0 -21 -61c-2,-7 -4,-13 -6,-19z"/>
   <path id="1" class="fil71" d="M6641 13829c26,-4 50,-9 71,-13l3 1 0 18c20,-12 41,-19 63,-19l0 1c-3,18 -7,38 -10,58l-10 2c-3,-11 -6,-20 -8,-26 -3,-6 -8,-9 -14,-9 -5,0 -13,2 -21,6l0 72c0,18 0,31 0,38 0,3 2,5 4,6l25 7 0 8c-19,-1 -36,-1 -54,-1 -16,0 -32,0 -49,1l0 -8 21 -6c3,-1 4,-3 4,-6 1,-4 1,-11 1,-20l0 -57c0,-18 -1,-32 -1,-40l-24 -7 -1 -6z"/>
   <path id="2" class="fil71" d="M6858 13963c7,2 15,3 22,3 15,0 27,-6 35,-17 7,-11 11,-28 11,-49 0,-19 -4,-34 -11,-45 -7,-10 -17,-16 -31,-16 -9,0 -18,2 -26,6l0 118zm1 -239c-1,17 -1,42 -1,76l0 32c17,-10 34,-16 50,-16 22,0 39,8 51,22 13,14 19,33 19,56 0,28 -9,50 -27,65 -18,16 -42,24 -74,24 -20,0 -42,-4 -68,-11 0,-14 0,-32 0,-54l0 -101c0,-25 0,-47 0,-67l-25 -7 -1 -7c28,-4 53,-9 74,-13l2 1z"/>
   <path id="3" class="fil71" d="M7058 13898c0,20 3,37 9,50 6,13 16,19 29,19 13,0 22,-6 28,-17 6,-11 9,-28 9,-50 0,-21 -3,-38 -10,-50 -6,-12 -16,-18 -29,-18 -12,0 -21,6 -27,17 -6,10 -9,27 -9,49zm127 -2c0,26 -8,47 -25,63 -18,16 -40,24 -67,24 -27,0 -48,-7 -64,-23 -16,-15 -24,-34 -24,-59 0,-25 8,-45 25,-61 16,-16 39,-24 67,-24 27,0 49,8 65,22 15,15 23,34 23,58z"/>
   <path id="4" class="fil71" d="M7207 13829c26,-4 50,-9 72,-13l2 1 0 18c20,-12 41,-19 63,-19l1 1c-4,18 -7,38 -10,58l-10 2c-3,-11 -6,-20 -9,-26 -3,-6 -7,-9 -13,-9 -6,0 -13,2 -22,6l0 72c0,18 0,31 1,38 0,3 1,5 4,6l24 7 1 8c-19,-1 -37,-1 -54,-1 -16,0 -33,0 -49,1l-1 -8 22 -6c2,-1 4,-3 4,-6 0,-4 0,-11 0,-20l0 -57c0,-18 0,-32 -1,-40l-24 -7 -1 -6z"/>
   <path class="fil71" d="M7568 13978c-14,0 -29,0 -45,1l-1 -9 23 -6c3,-1 5,-3 5,-5 0,-5 0,-10 0,-16 0,-5 0,-11 0,-18l0 -135c0,-6 0,-11 0,-16 0,-4 0,-9 0,-12 0,-3 -2,-5 -4,-6l-23 -7 -1 -8c16,0 31,0 46,0 12,0 24,0 35,0 11,-1 23,-1 35,-1 42,0 73,9 95,27 21,18 32,45 32,80 0,42 -12,74 -36,97 -23,24 -56,35 -99,35 -12,0 -22,0 -32,0 -9,-1 -19,-1 -30,-1zm33 -17c5,1 10,2 16,2 5,0 10,0 15,0 25,0 44,-8 56,-26 13,-17 20,-43 20,-79 0,-34 -7,-60 -19,-77 -12,-16 -31,-25 -57,-25 -10,0 -20,1 -31,2l0 203z"/>
   <path id="1" class="fil71" d="M7885 13903c-18,0 -30,2 -38,7 -7,4 -11,12 -11,23 0,10 2,17 8,21 5,4 12,6 19,6 8,0 16,-2 22,-6l0 -51zm-83 -70c24,-11 47,-17 70,-17 20,0 35,5 45,14 11,9 16,22 15,39l0 71c-1,6 -1,10 0,14 0,3 1,6 3,8 2,2 4,3 7,4 4,0 8,1 14,1l1 8c-15,5 -29,8 -41,8 -15,0 -25,-6 -30,-18 -14,12 -29,18 -45,18 -16,0 -29,-4 -39,-12 -10,-8 -16,-19 -16,-33 0,-18 9,-31 25,-39 17,-8 41,-12 74,-12l0 -13c0,-12 -3,-21 -8,-27 -6,-5 -16,-8 -28,-8 -12,0 -26,2 -42,7l-5 -13z"/>
   <path id="2" class="fil71" d="M7950 13820c15,1 29,1 41,1 16,0 33,0 51,-1l1 8 -22 6c5,11 9,21 13,31 4,10 9,23 16,39 3,6 6,14 9,22 4,-9 7,-17 11,-26 9,-24 17,-46 25,-67l-18 -5 -1 -8c9,1 19,1 31,1 11,0 21,0 30,-1l1 8 -16 5c-4,1 -6,3 -8,7 -4,9 -8,19 -13,31 -15,35 -26,64 -34,87 -6,15 -10,31 -14,46 -5,16 -8,30 -10,42 -2,6 -4,11 -7,13 -4,2 -11,4 -23,4 -13,0 -25,-1 -36,-2l-1 -8c13,-1 23,-5 28,-10 7,-8 19,-29 34,-64l1 -3 -9 -2c-20,-51 -38,-95 -55,-134 -1,-4 -4,-6 -8,-7l-16 -5 -1 -8z"/>
   <path class="fil72" d="M6097 13804l-230 0c10,-54 57,-96 115,-96 57,0 105,42 115,96zm-232 36l233 0c-7,58 -57,102 -116,102 -60,0 -110,-44 -117,-102zm117 -177c-90,0 -163,73 -163,162 0,90 73,163 163,163 89,0 162,-73 162,-163 0,-89 -73,-162 -162,-162z"/>
   <path class="fil21 str6" d="M8429 13314c-63,-78 -115,-111 -169,-208 -32,-55 -192,-181 -249,-284 -38,-68 -54,-105 -103,-162 -9,-11 -53,-201 -53,-225 0,-52 -42,-183 -57,-110 -11,54 -25,111 -29,167 -7,89 -82,317 -137,382 -44,52 -36,101 -128,164 -22,16 -199,224 -215,257 -30,65 -113,154 -173,190 -9,6 -183,84 -104,71 23,-4 176,-93 191,-126 16,-33 91,-74 131,-130 81,-112 179,-79 296,-230 16,-21 116,-130 131,-70 31,122 -114,134 -188,197 -38,33 -158,122 -158,177 9,1 78,-146 175,-181 29,-11 47,37 25,71 -64,97 -33,69 -139,132 -5,3 -142,67 -56,36 19,-7 64,-3 100,-38 5,-4 156,-106 156,-89 0,118 160,-36 96,41 -17,21 -102,72 -22,66 15,-1 57,-82 101,-96 112,-35 11,-154 11,-141 0,140 -259,228 -107,44 25,-31 50,-151 59,-115 0,1 38,91 38,48 0,-164 -61,-142 -64,-213 -3,-55 119,9 146,45 1,0 -19,-64 23,-26 33,28 12,112 29,5 8,-51 8,52 25,2 16,-50 88,-5 114,27 64,79 198,216 245,296 2,3 30,36 30,38 0,0 44,30 36,-5 -1,-2 -5,-5 -7,-7z"/>
   <path class="fil45" d="M7783 12794c0,97 -134,187 -136,163 -7,-78 59,-149 121,-187 17,-10 15,14 15,24z"/>
   <path class="fil45" d="M7618 12993c-4,14 -100,99 -16,-13 10,-14 21,-33 16,4 0,6 1,7 0,9z"/>
   <path class="fil45" d="M7887 12816c-3,5 -34,26 -19,6 14,-20 13,-90 -39,-28 -31,37 -63,116 21,105 98,-12 98,17 177,17 6,0 -51,-119 -54,-132 -9,-36 -42,-2 -86,32z"/>
   <path class="fil45" d="M7860 12649c-55,11 -78,108 -31,96 44,-12 29,-22 84,-27 21,-2 1,-8 -17,-34 -5,-6 -31,-36 -36,-35z"/>
   <path class="fil45" d="M8367 13329c2,1 4,1 6,2 -2,0 -4,-1 -6,-2zm-80 7c7,2 17,6 41,20 0,0 -14,1 -41,-20zm-165 83c150,-98 -19,-237 -19,-260 0,-20 130,74 144,85 90,74 -21,-62 -54,-79 -196,-102 -166,-175 -154,-155 25,43 66,80 110,104 48,24 131,131 154,140 13,6 34,39 38,52 5,2 16,17 26,23 -56,-18 -159,-88 -158,-87 32,50 59,78 78,94 -11,-5 -11,-3 -57,-43 -10,-8 -18,-16 -25,-22 4,15 5,34 -3,57 -51,144 -90,97 -80,91zm-615 -167c-52,55 -86,122 -92,122 0,-35 47,-83 92,-122zm55 -45c-15,11 -35,28 -55,45 16,-17 35,-33 55,-45zm563 -215c-26,-32 -98,-77 -114,-27 -17,50 -17,-53 -25,-2 -17,107 4,23 -29,-5 -42,-38 -22,26 -23,26 -27,-36 -149,-100 -146,-45 3,71 64,49 64,213 0,43 -38,-47 -38,-48 -9,-36 -34,84 -59,115 -152,184 107,96 107,-44 0,-13 101,106 -11,141 -44,14 -86,95 -101,96 -80,6 5,-45 22,-66 64,-77 -96,77 -96,-41 0,-17 -151,85 -156,89 -36,35 -81,31 -100,38 -86,31 51,-33 56,-36 106,-63 75,-35 139,-132 22,-34 4,-82 -25,-71 -10,3 -19,8 -28,14 4,-4 8,-7 11,-10 74,-63 219,-75 188,-197 -15,-60 -115,49 -131,70 -117,151 -215,118 -296,230 -40,56 -115,97 -131,130 -15,33 -168,122 -191,126 -79,13 95,-65 104,-71 60,-36 143,-125 173,-190 16,-33 193,-241 215,-257 92,-63 84,-112 128,-164 55,-65 130,-293 137,-382 4,-56 18,-113 29,-167 15,-73 57,58 57,110 0,24 44,214 53,225 49,57 65,94 103,162 57,103 217,229 249,284 54,97 106,130 169,208 2,2 6,5 7,7 8,35 -36,5 -36,5 0,-2 -28,-35 -30,-38 -47,-80 -181,-217 -245,-296zm-389 451c93,0 202,3 293,21 70,14 215,5 272,-40 47,-37 126,-34 179,-53 -3,-14 44,-25 0,-76 -46,-53 -110,-91 -141,-160 -28,-66 -182,-180 -231,-294 -35,-81 -165,-124 -180,-335 -1,-9 -36,-97 -41,-151 -7,-84 -116,-126 -129,-49 -13,80 -30,240 -57,306 -31,75 -34,142 -84,221 -37,59 -68,131 -123,176 -72,58 -173,176 -230,252 -35,45 -125,128 -176,158 -18,11 -141,97 -143,110 -5,63 -22,77 80,65 111,-14 239,-116 383,-122 110,-4 197,-29 328,-29z"/>
   <path class="fil21" d="M7866 12613c-40,0 -24,-49 -59,-49 0,-35 23,-59 23,-112 -1,0 12,67 13,76 2,13 13,66 20,77 0,0 4,14 5,15"/>
   <path class="fil73" d="M7763 13012c19,111 -119,124 -190,185 -3,3 -7,6 -11,10 9,-6 18,-11 28,-14 29,-11 47,37 25,71 -64,97 -33,69 -139,132 -5,3 -142,67 -56,36 19,-7 64,-3 100,-38 5,-4 156,-106 156,-89 0,118 160,-36 96,41 -17,21 -102,72 -22,66 15,-1 57,-82 101,-96 112,-35 11,-154 11,-141 0,140 -259,228 -107,44 25,-31 50,-151 59,-115 0,1 38,91 38,48 0,-74 -12,-111 -26,-134 -17,-30 -36,-40 -38,-79 -3,-55 119,9 146,45 1,0 -19,-64 23,-26 11,9 16,25 18,37 2,0 4,-1 6,-2 1,-7 3,-17 5,-30 8,-51 8,52 25,2 9,-28 35,-26 61,-14 20,10 41,26 53,41 64,79 198,216 245,296 2,3 30,36 30,38 0,0 44,30 36,-5 -1,-2 -5,-5 -7,-7 -63,-78 -115,-111 -169,-208 -21,-36 -96,-102 -162,-173 -35,-37 -67,-75 -87,-111 -38,-68 -54,-105 -103,-162 -9,-11 -53,-201 -53,-225 0,-52 -42,-183 -57,-110 -11,54 -25,111 -29,167 -7,89 -82,317 -137,382 -20,24 -29,48 -42,72 -16,29 -36,58 -86,92 -22,16 -199,224 -215,257 -30,65 -113,154 -173,190 -9,6 -183,84 -104,71 23,-4 176,-93 191,-126 16,-33 91,-74 131,-130 81,-112 179,-79 296,-230 9,-11 43,-49 74,-71 26,-18 50,-26 57,1 1,4 2,8 2,12zm-145 -19c-4,14 -100,99 -16,-13 10,-14 21,-33 16,4 0,6 1,7 0,9zm165 -199c0,97 -134,187 -136,163 -7,-78 59,-149 121,-187 17,-10 15,14 15,24zm82 -181c-39,0 -23,-49 -58,-49 0,-35 23,-59 23,-112 -1,0 12,67 13,76 2,13 13,66 20,77 0,0 1,4 2,8zm-15 286c-84,11 -52,-68 -21,-105 52,-62 53,8 39,28 -15,20 16,-1 19,-6 44,-34 77,-68 86,-32 3,13 60,132 54,132 -79,0 -79,-29 -177,-17zm-21 -154c-47,12 -24,-85 31,-96 5,-1 31,29 36,35 18,26 38,32 17,34 -55,5 -40,15 -84,27z"/>
   <circle class="fil63" cx="4477" cy="12510" r="45"/>
   <circle class="fil63" cx="4181" cy="12506" r="45"/>
   <circle class="fil63" cx="3884" cy="12508" r="45"/>
  </g>
  <path class="fil41" d="M2041 16017c-8,-9 1,2 -8,-13 -10,-15 -12,-28 -27,-38l-13 69c-27,-15 -9,-18 -41,-31l1 61c-15,-8 -14,-12 -31,-13 -11,87 -46,71 2,155 -18,18 -24,25 -24,61l76 -21c-13,66 16,126 63,142 -44,133 -28,205 20,329 41,105 114,302 226,355l131 68c96,57 14,66 69,123 35,37 16,44 64,81 6,5 9,7 15,12 1,2 5,6 6,7l6 8c-31,62 -123,155 -134,193 -42,3 -79,13 -121,16 -51,4 -94,-8 -102,44 37,-33 18,-7 65,-9 207,-12 113,22 182,17 17,-2 24,-8 34,-16l15 -13c23,-21 22,-3 50,6 29,9 19,-4 43,5 -4,-25 -41,-39 -66,-51 14,-85 105,-210 177,-255 38,-23 47,-15 90,-4 32,7 38,11 62,26 34,21 39,10 82,15 21,48 34,167 34,226 -32,10 -83,20 -118,23 -44,3 -102,-14 -99,41 46,-36 0,-4 63,-7 33,-1 67,-3 100,-4 46,0 46,26 87,15 5,-2 35,-23 35,-23 10,-12 10,-28 10,-45 44,5 46,23 75,-9 -74,-19 -89,-28 -106,-101 -14,-62 -21,-125 -28,-189 48,-18 151,-99 182,-145 7,-10 1,-4 7,-10 1,-1 3,-2 3,-2l10 -5c0,-51 19,-84 17,-135 -1,-55 70,-34 24,-83 80,-46 56,-43 34,-131 40,-20 39,-6 48,-54l12 -43c10,-31 -3,-12 21,-33l55 -56c18,-17 19,-5 24,-29 5,-29 -5,-11 -11,-40l30 -32c-18,-9 -8,-2 -20,-6 -13,-5 -4,-1 -13,-6 -10,-6 -9,-6 -14,-10l32 -41c19,-32 5,-21 10,-47 3,-22 18,-23 14,-47 -2,-16 -18,-26 -26,-47 -10,-24 -3,-27 -29,-41 -52,-27 -124,3 -169,31l-150 131c-64,56 -117,66 -219,70 -137,5 -365,78 -455,-61 -82,-128 -109,-262 -263,-304 18,-21 32,-26 45,-40l-25 -50c-1,-2 -2,-3 -3,-4 -1,-1 -3,-2 -3,-3 -6,-7 -10,-11 -16,-18 -18,7 1,-1 -17,9 -18,10 0,3 -17,9 -4,-19 -2,-24 -14,-40 -14,16 -15,31 -30,45 -4,-22 -4,-35 -18,-49l-21 61z"/>
  <path class="fil74" d="M48565 17229c1,4 2,9 2,14 -7,-14 -9,-1 -2,-14zm-4177 158c0,3 -1,6 -1,9 4,-8 6,-1 1,-9zm517 -984c0,1 1,1 1,1 0,0 -1,0 -1,-1zm-384 -749c1,0 0,0 0,0zm713 765c1,2 1,3 0,5 1,-1 1,-3 0,-5zm339 -324c-26,21 -30,86 -31,118 -1,21 -7,24 -8,44 -23,14 -11,16 -31,31 -23,17 -22,2 -40,21l-11 3c-13,82 -32,157 -43,237 -11,81 -39,167 21,219 16,-11 22,-27 36,-48 36,-54 43,-112 59,-176l78 -242 38 -72c25,3 -15,73 -14,130 28,13 44,10 62,40 11,20 20,46 23,69 10,69 -2,127 -3,189 28,-23 124,-288 134,-354 -19,-24 -36,-43 -49,-54 -17,-13 -78,-32 -78,-146 61,1 59,19 90,11 9,-2 5,-2 14,-6 2,-1 6,-3 8,-4 1,-1 5,-3 7,-4 10,18 26,35 44,51 9,-48 16,-93 18,-109l6 -17c3,48 5,98 -2,143 8,6 15,11 22,16 26,20 12,13 53,18l-26 -139c-19,-47 -8,-21 -24,-37 4,-59 -60,-210 -92,-305l-156 212c-17,11 -28,31 -39,44 -6,7 -14,16 -16,20 -17,27 8,14 -24,27 -22,12 -23,43 -26,70zm291 237c-6,16 -9,34 -15,53 -8,24 -14,43 -22,67l-95 273c-14,40 -7,48 -14,83 -6,25 -17,34 -21,67 31,-27 123,-177 148,-221l2 -3c-8,-21 -17,-43 -20,-64l23 0c6,15 10,25 14,32 45,-83 48,-104 71,-181 -20,-34 -46,-72 -71,-106zm90 137c-11,49 -40,113 -72,175 7,9 16,19 30,37 4,6 8,11 11,16 4,-13 7,-25 11,-37l44 -138 -6 -18c-4,-10 -11,-21 -18,-35zm-95 220c-26,48 -53,93 -71,125 -31,56 -58,109 -86,166 27,-9 -14,3 46,-56 8,12 6,26 22,40 20,-40 44,-74 71,-94 0,11 -13,49 -30,97l18 -1c8,-23 22,-54 43,-100 10,-21 18,-46 26,-72l-18 -50c-11,-16 -6,-10 -18,-22 1,-11 0,-22 -3,-33zm-128 513c-5,23 -8,41 -6,52l35 1c18,-25 33,-54 42,-89 4,-15 13,-38 19,-60 -9,7 1,-5 -17,15 -29,20 -52,50 -73,81zm301 -908c3,-8 7,-16 9,-22 9,-21 19,-40 16,-63 6,-7 4,-3 9,-13 1,-1 2,-3 3,-4 1,-1 1,-3 2,-5 7,-17 4,-28 21,-56l14 -16 5 -4c-82,-148 -178,-333 -199,-452l-3 -93c7,-24 2,-11 12,-26 71,224 54,225 178,447 42,75 199,329 251,373 -7,-55 -27,-70 -36,-112 -13,-60 0,-73 -24,-141l-160 -462c-14,-41 -24,-73 -37,-114 -15,-46 -18,-89 -47,-121 2,-21 -31,-176 -39,-222 -14,-81 -12,-175 -6,-264l11 29c5,65 67,408 90,439 15,107 179,562 227,602 -1,-105 -22,-203 -6,-320 6,-39 21,-84 41,-117 30,-51 57,-46 104,-68 1,-97 -66,-215 -24,-220l64 122 132 410c27,108 39,205 101,299 22,34 33,61 61,79 102,-88 54,-232 36,-369 -19,-137 -52,-263 -74,-402l-19 -5c-31,-32 -29,-7 -67,-36 -34,-25 -14,-29 -52,-52 -1,-33 -12,-40 -14,-74 -2,-55 -8,-164 -53,-201 -5,-44 -7,-98 -44,-118 -53,-22 -11,0 -40,-45 -4,-7 -18,-22 -28,-34 -17,-22 -36,-56 -66,-75l-293 -400c-32,-63 -85,-48 -89,-102 24,20 65,44 95,69 28,22 73,68 107,80 -52,-70 -156,-144 -195,-205 74,27 112,108 184,131 -4,-81 -90,-126 -166,-204 -67,-68 -24,-47 -74,-65l-12 -26c19,6 24,5 34,8 17,38 86,92 131,132 44,40 84,92 165,102 -44,-82 -208,-197 -236,-247 29,14 55,40 81,61 61,49 216,210 262,229 -9,-50 -77,-112 -127,-163l2 -20c32,34 29,23 69,48l114 101c36,29 -7,-5 34,19 89,52 172,179 228,257l14 73c-7,50 8,95 37,124 45,44 7,15 58,126 24,53 12,93 33,139 16,34 15,1 19,66 3,49 -10,52 18,77 30,66 28,166 -68,217l93 523c51,-70 28,-162 89,-216 -14,106 -122,320 -67,425 13,-16 3,-1 12,-25l48 -176c14,-74 39,-129 49,-200 9,-91 56,-164 60,-247 3,-50 9,-189 -33,-222 -3,-2 -12,-8 -15,-9l-16 -9c-33,-6 -38,-9 -55,-42 -29,-18 -26,-34 -25,-69 1,-57 -4,-20 -12,-73 -6,-43 11,-124 -19,-168l-9 -519c26,-80 19,30 60,-137l41 0 23 31 4 36c46,43 40,-17 80,139 24,96 -4,214 59,422l43 151c13,47 -8,53 14,98 39,-5 23,4 47,-37 20,-33 17,-33 42,-59 16,20 10,-26 13,36 -53,47 -195,435 -199,541 3,-21 29,-61 44,-79 31,-37 51,-38 99,-53l5 -65c7,-21 8,-20 16,-31 8,-52 18,-31 36,-62l24 -109c25,-107 47,-52 59,-122 3,-18 2,-36 2,-53l8 -12c56,-111 57,-24 111,-212 33,6 10,7 48,9 10,-87 20,-108 51,-168 39,12 5,16 59,18l6 -31c6,-20 -1,-18 17,-11 -1,-28 8,-64 23,-85 67,-92 27,88 153,-159l63 29 13 -23c29,-66 74,-96 113,-136l14 27c15,23 -4,4 14,20 11,15 1,18 47,4 52,-15 117,-36 183,-35 2,2 4,3 4,7l7 27c-8,7 -11,9 -12,10 1,0 1,2 -6,12 -2,3 -11,17 -13,22 -7,14 -12,33 -17,46 -23,57 -20,27 -49,71 12,44 10,10 28,60 -34,23 -61,60 -115,72l-26 27 -74 59c-50,44 1,74 -150,155 12,20 1,-5 13,16 10,18 8,5 14,32 -36,30 -79,63 -97,94 13,11 2,-4 10,23l-36 58c-22,14 -40,33 -55,58 25,42 -36,106 -69,132 6,72 26,-6 11,57 -5,20 -23,31 -24,61 -66,46 -10,44 -39,121 -9,25 -38,67 -63,89 -32,26 -36,43 -89,46 -15,21 5,0 -24,25 -23,19 -33,17 -54,53 -31,54 -87,266 -102,327 -39,159 -78,302 -117,461 -22,68 17,233 -37,280l-42 13c-11,45 -22,76 -16,127 38,-4 29,-1 49,-21 38,15 -9,24 -15,74 -5,32 10,65 32,86 32,-15 51,-36 83,-61 28,-22 49,-40 59,-89l14 -64c10,-15 46,-174 53,-206 15,-74 48,-147 62,-213 10,-55 58,-151 50,-198l-5 -18c-69,-15 -73,-88 -63,-149 19,-108 39,-28 64,-139 30,-133 36,-43 65,-151 6,-23 16,-60 31,-77 21,-27 30,-4 34,-56 35,-23 33,-69 71,-49 3,1 4,1 4,2 35,-91 4,-34 55,-129l57 3c2,-33 18,-72 30,-91 44,-67 24,-20 70,-16 13,-42 38,-74 63,-101l9 -17c61,21 -20,18 55,22l17 -28c26,-42 36,-58 85,-67l10 47 58 -5c15,-20 -8,-6 27,-21l112 -11 -36 95 -6 17 -2 8 -6 18c-19,2 -4,-13 -32,8 11,52 6,6 24,57l-65 36c-31,17 -52,37 -90,52 -11,28 2,5 -24,32 -64,31 -7,20 -63,69 -19,17 -51,37 -70,48l20 28c-34,41 -42,43 -81,71l-11 13c1,1 4,1 5,6 0,6 0,27 1,30 -81,46 -54,78 -91,126 -26,35 -31,11 -38,65 -3,21 16,3 -31,71 -15,22 -33,170 -125,200 -47,16 -59,-7 -94,32 -40,34 -162,485 -160,572 56,-95 247,-537 408,-420 -16,14 -52,14 -77,30l2 1c-140,50 -209,268 -281,389l-20 32c-5,9 -10,23 -13,32 -9,26 -14,44 -14,71 31,3 33,-3 31,-8 5,4 15,12 35,27l66 27c45,-68 21,-56 37,-93 9,-20 5,-14 19,-26 45,74 -38,40 -16,186 91,45 16,51 80,60 12,-27 -21,-111 -34,-157l14 -14c1,0 10,-3 14,-3 23,35 22,17 38,44 8,67 83,153 102,212 10,-18 20,-54 28,-78 12,13 13,-17 15,43 2,33 -19,66 -3,150l187 -233c15,-15 21,-31 31,-51 21,-40 23,-29 29,-75 15,-33 15,-52 26,-75 5,-12 40,-52 51,-68 20,-33 68,-115 72,-161 45,6 9,8 33,45 37,-57 5,-4 38,-23 29,-16 4,16 29,-32l98 1c-5,34 -5,24 -13,52 -27,95 -135,88 -159,223l-8 0c-42,14 -18,-8 -41,48 -9,24 -13,38 -17,72 -13,19 -8,6 -16,36 -10,35 -2,14 -1,27 0,4 17,21 -28,68 -39,-9 -15,-8 -36,-24 -18,-14 -5,-17 -40,-17 -13,104 -111,96 -73,401 30,-44 43,-81 44,-149 52,-20 22,16 64,-62 37,-67 -2,-41 -12,-118 84,36 -2,23 79,29 0,0 4,0 5,1 -18,45 -20,55 12,85l107 -150 -28 91c-33,98 -18,18 2,92 -41,56 -38,61 -8,131 16,36 47,116 67,142 81,-85 64,-112 61,-263 -2,-75 2,-38 -33,-85 20,-46 9,-9 20,-27 15,-25 5,20 12,-29 8,-58 -74,-128 -114,-153l-19 -45c84,19 40,18 89,54 34,25 63,16 113,20 22,28 10,31 40,49 26,-58 9,-91 32,-159l28 -101c-2,-51 47,-205 63,-263 47,-202 144,-369 149,-395 33,-18 22,-2 16,-6 0,77 -60,268 -80,354l-28 139c-19,22 0,-16 -19,30 -4,10 -7,24 -9,35 -7,26 -15,52 -16,79 -13,32 -11,106 -29,134 -52,153 -16,139 1,248 1,-2 2,-3 3,-5l20 -24c2,-2 4,-3 6,-5l40 -37c10,-9 13,-12 18,-16 34,-29 29,-28 61,-29 3,0 6,0 9,0 3,0 6,1 10,1l26 2 22 4c40,10 3,87 -7,105 -47,11 -20,10 -71,56 -149,137 -139,239 -58,175 -3,38 -47,58 33,158l-1174 0 8 -18c8,-34 6,-36 -9,-85 -23,-77 -11,-34 -65,-63 -1,-75 39,-56 6,-120l-31 -42c-15,24 -65,141 -81,183 -14,34 -28,75 -15,118 4,12 8,21 14,27l-1087 0 0 1 -330 0 1 -1 -105 0 0 1 -691 0c3,-4 6,-9 8,-16 8,-25 -1,-50 -8,-70 -10,-24 -40,-94 -49,-108l-18 25c-19,38 4,26 4,71 -32,17 -25,-8 -39,37 -8,29 -10,31 -5,51l5 10 -694 0c47,-59 22,-71 20,-93 48,38 53,-23 -35,-104 -30,-27 -13,-26 -41,-33 -7,-11 -28,-56 -5,-62l14 -2 15 -1c2,-1 4,-1 5,-1 2,0 4,0 6,0 19,0 16,0 36,17 3,3 5,4 10,10l24 21c1,1 3,3 4,4l12 13c0,2 1,3 1,3 11,-64 32,-55 1,-146 -10,-16 -9,-60 -17,-79 -1,-16 -6,-31 -9,-47 -2,-6 -4,-15 -6,-20 -11,-28 0,-5 -11,-18l-17 -82c-11,-51 -47,-164 -47,-209 -3,2 -10,-8 9,3 4,15 61,114 88,234 10,34 39,125 37,155l17 60c14,40 4,60 19,94 18,-11 11,-13 24,-30 30,-2 46,4 66,-11 29,-21 4,-21 53,-32l-11 27c-24,14 -72,55 -67,90 4,29 -2,2 7,17 6,10 -1,-11 12,16 -21,27 -19,6 -20,50 -2,89 -12,105 36,155 12,-15 30,-62 39,-83 18,-42 20,-45 -4,-78 11,-44 21,4 1,-54l-17 -54 64 89c19,-18 18,-24 7,-51 1,0 3,0 3,0 48,-4 -3,4 46,-17 -6,45 -28,30 -7,69 25,46 7,25 38,37 1,40 9,62 26,88 23,-180 -35,-175 -43,-237 -20,0 -13,2 -24,10 -12,9 2,9 -21,14 -27,-28 -17,-38 -16,-40 0,-8 5,5 -1,-16 -5,-18 -2,-10 -9,-21 -3,-20 -5,-28 -11,-42 -13,-34 1,-21 -23,-29l-5 0c-15,-80 -78,-76 -94,-131 -5,-17 -5,-11 -8,-31l58 -1c14,29 0,9 17,19 20,11 1,-20 22,14 15,-22 -7,-23 20,-27 2,27 31,75 43,95 6,10 26,34 30,40 6,14 6,25 15,45 3,27 4,20 17,44 6,12 10,21 19,30l110 138c9,-50 -3,-69 -2,-89 1,-35 2,-18 9,-25 4,14 10,35 17,46 11,-35 55,-86 59,-125 10,-16 10,-6 23,-27 2,1 8,2 9,3l8 7c-8,28 -28,78 -21,94 39,-6 -6,-10 48,-36 13,-87 -36,-67 -9,-110 7,7 5,3 10,15 10,23 -4,15 22,55l39 -16c12,-8 18,-13 21,-16 -1,3 0,7 18,5 0,-16 -3,-26 -8,-42 -2,-5 -5,-14 -7,-19l-12 -18c-43,-72 -84,-201 -166,-231l1 0c-15,-9 -36,-10 -46,-18 95,-69 208,192 242,249 0,-52 -72,-318 -95,-339 -21,-23 -28,-9 -56,-18 -54,-18 -65,-105 -74,-119 -27,-40 -16,-29 -18,-42 -4,-31 -7,-17 -22,-38 -22,-28 -6,-47 -54,-74 0,-2 1,-15 1,-18 0,-3 2,-3 3,-4l-7 -7c-23,-17 -28,-18 -48,-42l12 -17c-11,-6 -30,-18 -41,-28 -33,-29 0,-22 -38,-41 -15,-16 -7,-2 -14,-19 -22,-8 -35,-20 -53,-30l-38 -21c10,-31 8,-3 14,-34 -17,-13 -8,-4 -19,-5l-3 -11 -2 -5 -4 -9 -21 -57 66 7c21,9 8,1 17,12l34 3 6 -27c28,5 34,14 50,39l10 17c44,-3 -4,-1 33,-13l5 10c15,16 30,34 37,59 27,-2 15,-30 41,10 8,11 17,34 18,53l34 -1c30,56 11,22 32,76 0,-1 1,-1 3,-1 22,-12 21,15 41,29 3,31 8,17 21,33 8,10 14,32 18,45 17,64 21,11 38,89 15,66 27,19 38,82 6,36 4,80 -37,89l-3 10c-5,28 23,85 30,117 8,39 27,83 36,126 4,19 26,113 31,122l9 38c5,29 18,39 35,52 18,15 29,27 48,36 13,-13 22,-32 20,-51 -4,-30 -32,-35 -9,-44 11,12 6,11 28,13 4,-30 -2,-48 -9,-75l-25 -8c-31,-27 -9,-125 -22,-165 -22,-94 -46,-178 -69,-273 -9,-35 -42,-160 -60,-193 -12,-21 -18,-20 -32,-31 -17,-15 -5,-2 -14,-14 -31,-2 -34,-12 -53,-28 -15,-13 -31,-38 -37,-52 -17,-46 16,-45 -23,-72 -1,-18 -11,-24 -14,-36 -9,-37 3,9 7,-34 -20,-15 -56,-53 -41,-78 -9,-14 -19,-26 -33,-34l-21 -34c5,-16 -2,-7 6,-14 -11,-18 -36,-37 -57,-55 3,-16 2,-8 8,-19 7,-13 1,2 8,-9 -90,-48 -60,-66 -89,-92l-44 -35 -15 -16c-32,-7 -48,-29 -68,-42 11,-30 9,-10 17,-36 -18,-26 -16,-8 -29,-42 -3,-7 -6,-19 -11,-27 -1,-3 -6,-11 -7,-13 -4,-6 -4,-7 -4,-7 0,0 -2,-2 -7,-6l4 -16c1,-2 2,-3 2,-4 40,0 78,12 109,21 27,8 21,6 28,-3 10,-9 -1,2 8,-11l8 -16c23,23 49,41 67,80l8 14 37 -17c74,145 50,39 90,93 9,13 14,34 14,50 10,-3 6,-5 10,7l3 18c32,-1 12,-3 35,-10 18,35 24,48 30,99 22,-2 9,-2 29,-5 32,111 32,59 65,124l5 8c0,10 -1,21 1,31 7,41 20,9 35,73l14 63c11,19 17,7 22,37 4,7 5,6 9,19l3 38c28,9 40,9 58,31 9,11 24,34 26,47 -2,-63 -86,-292 -117,-320 2,-36 -2,-9 7,-21 15,15 13,16 25,35 14,24 5,19 28,22 13,-27 1,-30 8,-58l26 -89c37,-123 20,-193 35,-250 23,-92 19,-56 47,-82l2 -21 14 -18 24 0c24,99 20,34 35,81l-5 306c-18,26 -8,74 -11,100 -5,31 -8,9 -7,42 0,21 2,31 -15,41 -10,20 -13,21 -32,25l-10 5c-2,1 -7,4 -9,6 -25,20 -21,102 -20,131 3,49 31,92 36,146 6,42 20,74 29,118l28 104c6,14 0,5 8,15 32,-62 -32,-189 -40,-252 36,33 22,87 52,128l56 -309c-57,-30 -59,-89 -40,-128 16,-15 8,-16 10,-45 2,-39 2,-19 11,-40 12,-26 5,-50 20,-81 30,-66 8,-49 34,-75 17,-17 26,-44 22,-73l8 -43c33,-46 82,-121 135,-152 24,-14 -2,6 19,-11l46 -41c-10,-27 -21,-67 -41,-128 -16,-49 -12,-55 -40,-81 -1,-47 -44,-180 -58,-201 -4,-50 3,-141 21,-178 36,2 25,1 82,47l24 28c28,47 23,66 36,95 1,3 2,5 3,8 1,2 3,5 4,7 10,16 6,11 16,21 -5,39 12,73 27,108 6,13 16,38 24,52 24,47 5,29 33,37 8,65 9,32 30,82l4 10c9,-7 17,-13 27,-17 -4,7 -13,16 -24,26 5,13 9,24 12,33 20,-18 41,-37 47,-52 6,-1 9,-1 20,-4l-7 15c-30,10 -4,-2 -43,38 -5,5 -10,9 -15,14 5,21 4,34 0,43 7,-5 16,-10 25,-14 -12,19 -34,40 -58,61l5 14 1 -1c17,-14 42,-29 56,-41 -2,32 -33,24 -52,59l96 301c28,90 51,206 84,297zm130 -93c-10,25 -29,86 -29,110 -16,15 -14,19 -23,46 154,115 228,503 294,573 113,-78 20,-212 -38,-337 -55,-118 -108,-223 -171,-335 -10,-17 -21,-36 -33,-57zm-55 165c-8,25 -14,43 -18,57 101,227 37,166 35,249 -1,47 35,136 47,181 17,60 41,110 72,152l60 -2c15,-106 -176,-542 -196,-637zm-122 177c-18,51 -40,108 -38,135 -9,9 -3,-6 -14,21l-2 10c13,18 23,35 33,51 15,-11 29,-24 37,-39 1,1 3,2 4,3 1,0 3,2 5,2 5,3 3,2 8,4 3,1 6,1 8,1 -17,-23 -34,-39 -42,-58 2,-1 5,-2 5,-1 1,2 5,0 6,0 1,-1 4,-1 6,-1l26 -9 -42 -119zm70 241c-11,16 -24,21 -30,26 -6,4 -13,12 -21,22 30,60 46,101 73,116 3,-76 -7,-127 -22,-164zm-104 122c-14,21 -25,41 -31,53l-32 91 5 5 10 3c1,0 3,0 3,0 1,0 3,2 4,1 0,-1 2,0 3,0 -2,3 -3,7 -6,10 8,9 15,19 23,33 7,-12 16,-25 26,-38 21,-28 24,-27 32,-46 -10,-28 -19,-53 -25,-74 -6,-20 -9,-31 -12,-38zm-59 182c-6,9 -13,19 -19,32 19,-8 26,16 19,-32zm-33 89c-1,13 -2,28 -1,45 6,-3 11,-9 15,-16 -3,-6 -6,-14 -11,-23 -1,-2 -2,-4 -3,-6zm30 0c6,-11 12,-24 20,-38 -3,-3 -7,-6 -11,-9 -1,3 -3,4 -4,9 0,11 -8,9 -5,38zm108 -138c-7,17 -13,33 -12,49 -7,7 -4,3 -10,13l-21 56c9,27 5,46 -14,66 -4,-9 -7,-17 -8,-24 -2,4 -4,11 -7,20 -4,15 -11,33 -18,53 0,4 0,9 0,14l-3 -5c-18,47 -36,104 -22,152 14,-5 21,-17 31,-25 0,2 1,4 1,5l11 35c7,-7 8,-22 27,-75l12 -42 0 -2c-29,20 -11,26 -25,55 -16,-17 -14,-31 1,-63 12,-24 20,-32 37,-46 -4,-28 -10,-12 -9,-45l68 4c4,-3 7,-6 8,-9 -3,-63 -26,-129 -47,-186zm-24 490l1 1 -1 1 0 2c-3,18 -3,35 1,52 6,10 15,16 28,16l57 -131c-15,-12 -31,-21 -32,-11 -18,3 -40,-4 -54,70zm4 -239l-7 -2c-4,27 -5,33 -3,34l10 -32zm-84 234c-2,0 -4,-1 -6,-1 0,-8 -18,7 -28,16 -14,12 -24,23 -32,36l7 16c34,-1 56,-30 59,-67zm-190 -1887c-11,13 -19,27 -21,39 7,-3 19,-12 32,-24 -4,-4 -8,-9 -11,-15zm89 37c0,2 -1,5 -1,7 6,-1 11,-4 16,-7l-15 0zm30 10c-14,14 -27,28 -37,41 12,-4 27,-16 41,-28 -2,-4 -3,-8 -4,-13zm-202 703c-6,12 -72,291 -100,423 36,30 57,81 74,133 57,-170 165,-540 26,-556zm-391 427c16,-30 14,-25 13,-66 -2,-87 7,-349 -92,-378l-24 22 -2 0c-13,38 -35,34 -11,126l61 230c10,37 22,93 33,121l12 -29c5,-17 2,-11 10,-26zm254 176l-11 49c-1,26 0,50 2,73 12,29 20,64 25,91 8,-3 3,2 13,-17l17 -59c-6,-13 -14,-28 -22,-45 15,-10 19,-11 24,-10 -11,-28 -29,-68 -36,-82l-12 0zm-157 -107c-20,8 -9,0 -21,14 -22,25 -20,101 10,122 28,-46 28,-88 11,-136zm109 111c2,-19 2,-34 -2,-51 -6,-30 2,-20 -16,-35 -19,14 -13,11 -20,37 -10,26 4,130 15,151 16,-22 14,-72 23,-102zm2255 -1432c0,1 0,1 -1,2 0,0 1,-1 1,-2zm650 -1268c-1,1 0,0 0,0zm-1207 1295c0,3 0,6 0,9 -1,-3 -1,-6 0,-9zm-654 -54c14,25 183,748 189,826 7,76 -63,204 -101,236 -54,-146 -368,-1030 -88,-1062zm663 722c-27,-50 -24,-42 -23,-111 4,-146 -11,-591 157,-640l40 37 4 0c21,64 58,57 19,213l-104 391c-16,62 -37,157 -55,204l-21 -48c-9,-29 -4,-20 -17,-46zm-430 299l18 83c5,105 -11,194 -33,285 -32,-20 -13,3 -34,-37l-44 -150c0,-25 57,-148 72,-182l21 1zm266 -181c34,14 15,0 36,24 37,42 32,170 -18,206 -47,-77 -48,-150 -18,-230zm-185 188c-3,-33 -2,-58 3,-87 10,-50 -2,-34 28,-58 31,23 22,18 33,61 18,44 -7,220 -24,256 -29,-37 -25,-122 -40,-172z"/>
  <path class="fil75" d="M41434 12211c6,118 11,80 64,167 68,113 -2,47 34,183 33,130 171,130 278,87 39,76 107,399 460,232 48,44 -4,1 37,46 132,147 256,-19 291,-41 74,86 135,166 285,166 72,0 136,-29 183,-62 75,-52 53,-61 102,-103 103,58 112,53 229,23 -14,263 146,304 340,212 43,50 210,295 397,127l85 -110c92,54 185,82 298,11 101,-63 108,-154 140,-211 276,175 346,-138 372,-193 107,21 198,30 254,-102l31 -96c121,49 245,32 303,-66 33,24 40,-40 22,42 44,-59 36,-81 38,-168l-99 -50c33,-71 124,-132 44,-242l-40 -39c-3,-3 -10,-8 -14,-12 184,-92 269,-345 70,-496 21,-32 158,-173 22,-303 -97,-92 -241,-41 -343,-7 -121,-257 -376,-185 -439,-34 -121,-67 -120,-79 -273,-40 -7,-171 -81,-236 -249,-252 46,-219 -62,-232 -193,-306 159,-217 38,-464 -209,-509 17,-257 -75,-254 -262,-345 29,-105 71,-197 -19,-286 -65,-66 -82,-18 -195,-112 -160,-136 -171,61 -259,117 -94,59 -170,-2 -72,257 -151,53 -218,179 -191,375 -170,148 -183,221 -76,438 -229,36 -200,177 -131,334 -129,39 -177,91 -220,232 -57,-69 -105,-166 -253,-145 -129,18 -182,129 -191,245 -86,-32 -169,-47 -248,-5 -77,41 -84,90 -112,129 -55,75 -234,131 -96,414 -122,93 -157,175 -21,304 -90,51 -102,85 -111,203l-63 -9z"/>
  <path class="fil76" d="M42457 13648c30,-35 1,-10 40,-40 31,-24 32,-21 57,-35l16 29c50,103 37,101 121,186l22 21c2,2 8,8 11,11 118,13 182,30 290,-17 49,72 44,169 179,182 116,12 164,-66 211,-139 111,71 92,65 239,115l185 0c163,-82 108,54 302,34 137,-14 157,-107 220,-201 196,28 306,40 510,31 89,-425 363,34 439,-391 306,-15 217,-159 224,-211 12,-95 152,-100 91,-371 41,-32 106,-72 115,-136 15,-105 -35,-97 -101,-127l11 -66c18,-82 11,-18 -22,-42 -58,98 -182,115 -303,66l-31 96c-56,132 -147,123 -254,102 -26,55 -96,368 -372,193 -32,57 -39,148 -140,211 -113,71 -206,43 -298,-11l-85 110c-187,168 -354,-77 -397,-127 -194,92 -354,51 -340,-212 -117,30 -126,35 -229,-23 -49,42 -27,51 -102,103 -47,33 -111,62 -183,62 -150,0 -211,-80 -285,-166 -35,22 -159,188 -291,41 -41,-45 11,-2 -37,-46 -353,167 -421,-156 -460,-232 -107,43 -245,43 -278,-87 -36,-136 34,-70 -34,-183 -53,-87 -58,-49 -64,-167 -256,-26 -190,98 -367,157 -257,85 -104,238 -125,344 -12,61 -70,76 -44,197 33,150 134,98 177,221 28,80 14,164 244,165 4,237 172,297 391,226 22,61 44,98 126,120 143,39 144,-20 221,-31 50,-7 111,37 175,45 92,12 144,-13 225,-7z"/>
  <path class="fil77" d="M42457 13648c114,298 229,510 403,716 206,244 279,375 311,809 28,369 42,1836 -83,2101 -54,163 -174,199 -197,371 116,22 146,-54 249,-34 83,16 90,95 191,114 108,21 108,-56 227,-52 104,3 160,68 265,19 -9,-161 -215,-253 -258,-438 -99,-219 -75,-1438 -67,-1752 6,-241 -6,-661 44,-875 57,-251 185,-455 286,-666l-185 0 -322 395c-208,-27 -507,-378 -597,-536 -3,-3 -9,-9 -11,-11l-22 -21c-84,-85 -71,-83 -121,-186l-16 -29c-25,14 -26,11 -57,35 -39,30 -10,5 -40,40z"/>
  <path class="fil78" d="M44613 15273c-19,-51 -62,-47 -84,-105 -25,-65 8,-99 45,-127 -48,-117 11,-195 139,-199 -53,-121 -8,-227 113,-244 -39,-170 112,-175 254,-164 18,-84 107,-135 197,-41 24,-10 -5,3 17,-10 18,-12 38,-29 79,-21 50,8 50,27 68,67 57,18 47,2 92,40 102,-48 91,-16 146,30 36,-17 74,-15 110,1 48,21 47,35 75,71 72,3 122,10 149,72 21,49 -14,17 32,41 71,40 105,86 83,194 66,39 149,88 80,181 43,44 110,89 30,156 12,44 67,140 31,188 1,76 -52,85 -108,113 22,107 -35,154 -135,150 -8,115 -72,162 -195,138 -6,125 -116,91 -189,160 -46,44 -66,62 -146,3 -55,70 -119,93 -188,20 -24,-26 14,14 -8,-10 -2,-2 -4,-4 -5,-5 -1,-1 -3,-4 -4,-5 -1,-1 -3,-3 -5,-5 -36,16 -56,14 -99,11 -48,115 -93,173 -152,333 -33,90 -99,309 -63,399 53,8 67,-5 114,-23l-1 -84c-49,-90 -62,-102 18,-160 -31,-78 -7,-153 89,-159 -5,-150 87,-103 125,-114 29,-8 27,-20 69,-18 26,0 44,14 61,17 19,4 117,-71 176,36 65,-35 132,-51 147,49 92,1 141,46 142,138 88,1 128,85 92,133 3,45 -4,43 19,76 68,95 -33,111 -121,109 68,89 -20,143 -122,126 0,97 -68,124 -140,77 -24,24 -59,57 -117,62 -90,7 -90,-40 -154,-41 -92,-1 -77,-9 -126,-64 -33,-36 -58,-54 -82,-107 -99,49 -192,148 -231,283 -28,94 -53,359 -18,447 22,86 82,123 89,173 -62,-6 -45,-42 -99,-60 -42,35 -21,74 -91,80 -43,-27 -40,-75 -119,-56 -50,12 -102,30 -153,18 16,-49 54,-38 71,-135 13,-23 27,-519 54,-633 29,-119 6,-164 -45,-262 -40,-76 -95,-157 -139,-218 -31,18 -34,44 -83,59 -54,16 -93,2 -134,-18 -182,117 -186,17 -265,0 -25,-6 -117,0 -157,-87 -26,-57 7,-37 -49,-69 -23,-14 -50,-34 -58,-63 -12,-47 11,-63 39,-92 -28,-10 -59,-35 -69,-68 -16,-56 15,-74 33,-103 -48,-18 -67,-57 -71,-116 10,-87 44,-97 110,-130 -48,-108 -8,-186 124,-177 8,-94 83,-85 117,-54 18,-22 83,-171 228,-88 89,50 137,-62 228,110 114,6 165,49 144,174 48,14 88,54 103,98 51,51 10,163 6,229 -6,97 -4,156 -101,163 3,113 -49,105 -79,138 39,39 130,158 195,164 66,-75 202,-412 243,-542 -37,-95 -140,-14 -157,-194 -68,-27 -108,-57 -79,-141 -28,-11 -54,-35 -71,-57 -24,-32 -27,-68 -19,-116 -73,-25 -125,-128 -45,-142z"/>
  <path class="fil41" d="M7825 12430c-10,36 -54,128 -12,151 60,32 66,107 54,-41 0,-6 -30,-109 -39,-110l-3 0z"/>
  <path class="fil79" d="M5867 13804c12,-5 18,-19 28,-24 4,-2 35,-27 38,-30 6,-9 8,-11 19,-16 4,-2 6,7 21,-3 14,-9 28,23 55,19 1,-1 35,15 38,17 12,16 16,16 27,34 3,4 -2,3 -10,2 -32,-3 -52,-4 -83,-1 -39,5 -78,1 -116,0 -6,0 -12,0 -17,2z"/>
  <path class="fil79" d="M5866 13842c3,-4 33,47 56,30 19,-14 28,-6 47,5 12,8 12,15 20,26 2,3 -1,-15 6,-19 5,-2 5,35 17,0 4,-13 4,-2 11,-14 3,1 -5,30 13,-3 15,-29 15,17 30,-4 16,-22 23,-12 28,-20 3,-5 -180,-3 -206,-1 -7,0 -19,-4 -22,0z"/>
 </g>
</svg>
