<?xml version="1.0" encoding="UTF-8"?>
<!DOCTYPE svg PUBLIC "-//W3C//DTD SVG 1.1//EN" "http://www.w3.org/Graphics/SVG/1.1/DTD/svg11.dtd">
<!-- Creator: CorelDRAW X8 -->
<svg xmlns="http://www.w3.org/2000/svg" xml:space="preserve" width="4883px" height="1956px" version="1.1" style="shape-rendering:geometricPrecision; text-rendering:geometricPrecision; image-rendering:optimizeQuality; fill-rule:evenodd; clip-rule:evenodd"
viewBox="0 0 48794 19545"
 xmlns:xlink="http://www.w3.org/1999/xlink"
 xmlns:svg="http://www.w3.org/2000/svg">
 <defs>
  <style type="text/css">
   <![CDATA[
    .str0 {stroke:#373435;stroke-width:41.6263}
    .str2 {stroke:#313131;stroke-width:41.6263}
    .str1 {stroke:#424242;stroke-width:20.819}
    .str3 {stroke:black;stroke-width:8.99326}
    .str4 {stroke:#B5EEFF;stroke-width:8.99326}
    .str5 {stroke:#E6E6E6;stroke-width:8.99326}
    .fil17 {fill:none}
    .fil13 {fill:#373435}
    .fil20 {fill:#EFB783}
    .fil68 {fill:#00A29F}
    .fil35 {fill:#0B3859}
    .fil47 {fill:#121710}
    .fil23 {fill:#1369B6}
    .fil54 {fill:#1B1B1C}
    .fil31 {fill:#1C1C1C}
    .fil27 {fill:#20547B}
    .fil7 {fill:#313131}
    .fil30 {fill:#33322E}
    .fil36 {fill:#333333}
    .fil26 {fill:#362D24}
    .fil28 {fill:#3689BB}
    .fil22 {fill:#3890D0}
    .fil10 {fill:#424242}
    .fil6 {fill:#464646}
    .fil14 {fill:#4A4A4A}
    .fil40 {fill:#4D4D4D}
    .fil39 {fill:#525252}
    .fil15 {fill:#5C707B}
    .fil16 {fill:#71848B}
    .fil8 {fill:#757575}
    .fil55 {fill:#767B7F}
    .fil32 {fill:#797977}
    .fil49 {fill:#7A838A}
    .fil41 {fill:gray}
    .fil56 {fill:#99A3AC}
    .fil50 {fill:#9CADB7}
    .fil57 {fill:#AAB5C5}
    .fil53 {fill:#ADBACA}
    .fil38 {fill:#B5EEFF}
    .fil24 {fill:#B96F48}
    .fil59 {fill:#BABABA}
    .fil52 {fill:#BACADA}
    .fil46 {fill:#C1C2C9}
    .fil18 {fill:#C1CFCF}
    .fil33 {fill:#C77066}
    .fil4 {fill:#C8382F}
    .fil11 {fill:#CACACA}
    .fil37 {fill:#CCCCCC}
    .fil45 {fill:#CDCED3}
    .fil2 {fill:#CFB175}
    .fil51 {fill:#D2D7DD}
    .fil5 {fill:#DF7E77}
    .fil3 {fill:#DFE9EB}
    .fil34 {fill:#E09474}
    .fil44 {fill:#E0E7ED}
    .fil1 {fill:#E6E6E6}
    .fil42 {fill:#E6EEF1}
    .fil21 {fill:#EC9956}
    .fil29 {fill:#ECB31E}
    .fil25 {fill:#EDD89F}
    .fil12 {fill:#EFEFEF}
    .fil43 {fill:#F1FAFF}
    .fil0 {fill:#F2F2F2}
    .fil48 {fill:#F2FBFF}
    .fil9 {fill:white}
    .fil58 {fill:white}
    .fil69 {fill:white}
    .fil72 {fill:#231F20;fill-rule:nonzero}
    .fil19 {fill:#464646;fill-rule:nonzero}
    .fil62 {fill:#6E462A;fill-rule:nonzero}
    .fil63 {fill:#7E543D;fill-rule:nonzero}
    .fil66 {fill:#95C638;fill-rule:nonzero}
    .fil67 {fill:#A8D146;fill-rule:nonzero}
    .fil64 {fill:#A8DB52;fill-rule:nonzero}
    .fil61 {fill:#B3B3B3;fill-rule:nonzero}
    .fil65 {fill:#B6E45B;fill-rule:nonzero}
    .fil71 {fill:#EE2722;fill-rule:nonzero}
    .fil70 {fill:white;fill-rule:nonzero}
    .fil60 {fill:#B3B3B3}
   ]]>
  </style>
   <mask id="id0">
  <linearGradient id="id1" gradientUnits="userSpaceOnUse" x1="25636.4" y1="16049" x2="30461.2" y2="16049">
   <stop offset="0" style="stop-opacity:0; stop-color:white"/>
   <stop offset="1" style="stop-opacity:1; stop-color:white"/>
  </linearGradient>
    <rect style="fill:url(#id1)" x="25626" y="14737" width="4846" height="2623"/>
   </mask>
      <clipPath id="id2">
       <path d="M33909 16648l1660 70 53 -1253 -1660 -71 -53 1254z"/>
      </clipPath>
 </defs>
 <g id="Слой_x0020_1">
  <metadata id="CorelCorpID_0Corel-Layer"/>
  <rect class="fil0" x="39" width="48755" height="19545"/>
  <path class="fil1" d="M30848 14321c66,126 -34,57 98,121l-149 128c68,59 239,135 235,-143 -2,-104 -59,-1 13,-125 -47,-95 7,-21 -91,-83l70 -127 -355 -10c70,174 127,149 179,239zm-2705 -4506c-147,105 -389,266 -825,593 -551,414 -1411,1093 -2115,1660 -612,493 -1105,901 -1454,1187 -46,68 -175,164 -302,244 -121,97 -211,168 -279,220l15 436c340,-141 635,-396 982,-545l-493 333c-178,105 -357,178 -501,308 -12,444 21,361 362,297l-176 121c194,112 233,67 409,-30 -4,-76 -40,-183 -40,-184l72 -521c690,-120 815,34 1206,-175l-29 100c0,-5 12,12 16,19 471,10 346,-64 697,-182l-140 100c-92,73 -12,-21 -86,93l435 -38c157,117 1080,25 1366,59 -6,122 -69,55 64,107 141,55 161,-135 161,-135 0,-2 -2,-114 -2,-132l269 -3c85,78 39,280 54,422 84,81 47,59 262,69l34 332c147,-30 109,-5 122,-230l46 -2193c-140,67 -133,94 -264,107 363,-241 226,-1 269,-738l-47 -1c-8,0 -37,1 -46,0 -130,-6 40,89 -88,-14 101,-36 101,-39 180,-89 12,-579 48,-518 -7,-1050 -1,-5 -2,-17 -2,-21 0,-5 1,-16 2,-21l9 -44c5,-42 12,-4 6,-81 -6,-97 -50,-263 -142,-380zm-4881 3739c135,-116 330,-277 610,-502 907,-729 2709,-2131 3616,-2833 273,-211 465,-359 600,-461 -33,-29 -71,-50 -114,-62 -146,102 -348,244 -631,457 -551,414 -1411,1093 -2115,1660 -704,567 -1251,1022 -1602,1307 -218,177 -360,288 -454,361l-1 114c29,-12 60,-26 91,-41zm-89 -157c132,-117 353,-302 724,-600 907,-729 2709,-2131 3616,-2833 318,-246 525,-405 661,-507l60 -158c3,-9 8,-20 12,-30l122 -342c2,-8 5,-20 7,-28 27,-126 -69,-85 66,-232 213,25 157,51 130,195 -22,120 -44,43 72,262 102,194 292,212 514,272 6,-17 52,-213 61,-251l30 -145c24,-91 -12,-32 35,-96 223,53 97,60 148,234l59 155c13,47 14,97 17,145l744 230 40 -93c4,-9 9,-21 12,-31l45 -154c29,-124 -31,-105 71,-221 207,45 78,38 112,226 13,69 53,160 76,292 121,14 235,85 359,131 87,-84 -14,47 43,-81l44 -121c52,-155 5,-202 123,-277 165,116 58,87 83,236 59,351 281,397 583,517 362,144 716,253 1092,380 926,315 6390,1797 7083,1800 14,-505 156,-116 216,-750 40,-428 -78,-411 -69,-806 7,-317 -93,-423 -72,-841 15,-297 33,-588 66,-883 -198,-279 -313,-223 -290,-758 -425,-242 -287,-404 -379,-856 142,-54 287,-158 433,-226 91,119 98,120 155,259 245,-128 212,-192 281,-468 109,-435 431,-321 440,-982 6,-451 -60,-243 -326,-386l320 -52c-55,-71 -181,-142 -264,-213 468,53 367,137 231,-251 133,75 167,171 338,174l105 -312 60 296c170,66 190,-22 350,-116 -52,118 -69,111 -131,230l90 312c-1,6 -6,18 -8,24 -18,61 -69,173 5,284 121,-55 22,30 87,-112l174 -415c118,-449 152,-1192 194,-1366 141,-580 -87,-105 -102,-536 44,-141 34,-91 201,-117 -59,-136 -227,-475 17,-459 212,14 184,267 172,470 117,20 245,1 216,184 -41,251 -104,-53 -153,262 -22,139 17,218 -21,404 -21,104 -70,220 -92,327 -47,230 -27,479 -83,754 -102,499 30,359 103,665 56,237 -23,322 -103,520 -332,825 43,497 -168,798 -93,133 -133,58 -83,290 21,96 82,217 115,311 132,388 26,329 -102,556 121,375 110,493 21,852 -58,234 -3,1538 -11,1925 -10,495 -112,529 264,757 0,512 93,8 133,417 14,148 -26,317 -6,493l354 10 -5 384c234,155 108,16 224,299l1098 123 -3 1361 450 -16 3 -1130 1167 -25 13 -1444 2575 -1 17 1442c123,81 395,35 559,39 -67,897 -11,2008 -11,2928 0,251 -27,1996 -35,2644l-9 0 -9 -296c-4024,-47 -8127,-2 -12210,-2 -2006,0 -4114,-54 -6056,0 -1349,38 -3169,8 -4589,1 -126,-1 -232,-14 -350,-19 -131,-5 -161,14 -321,18 -263,6 -536,0 -801,0l-18343 0c-2042,0 -4021,0 -6059,0l0 -4122 325 -93 5 -537c267,-127 442,-230 836,-146 467,99 373,273 384,362l48 195 1005 91 91 182c23,76 25,139 42,206 59,229 26,152 265,199 31,221 78,427 253,468 290,68 235,-177 200,-371 92,-111 167,-66 197,-257 62,-397 -173,-306 210,-1057 107,-211 237,-385 556,-376 503,15 338,174 574,296l126 -3934 3605 -29 3 1722c275,77 665,77 870,143 442,144 270,391 364,625 113,-130 46,-645 56,-835 204,-97 196,143 192,-530 -27,-19 -116,-76 -122,-82 -79,-75 -37,20 -46,-73l392 -30c1,-323 0,-646 0,-968 -1,-538 92,-1183 236,-1707 57,-210 136,-535 243,-720 305,-527 467,-2747 422,-3364 47,1212 -8,2473 436,3447 66,145 64,246 105,399 30,115 85,218 114,351 60,273 83,571 135,829 31,149 94,175 106,389 7,144 -1,313 -1,460 0,303 -26,629 18,926 54,17 96,17 127,28l136 70c-209,50 -194,-42 -180,533 86,34 139,20 229,84 -9,545 -4,1095 -4,1641 -1,266 -1,533 -1,799 -1,160 -82,632 70,727 140,-59 96,56 110,-217 22,-417 -50,-1361 3,-1783l288 -43c14,-149 67,-486 50,-613 -26,-192 -95,-176 30,-450 425,-65 249,-22 466,-251 730,-770 661,-376 1467,-467 261,-490 -432,-177 597,-917 282,-204 387,-361 638,-308 412,89 595,798 1212,728l20 -540 2397 -46 -1 3791c253,-193 391,-558 675,-771l693 -1c2,-274 -29,-305 58,-439 5,-8 13,-18 18,-26 75,-120 50,94 62,-141 -1,-743 11,-458 365,-866 204,-236 338,-2826 370,-3232 86,192 190,2038 244,2456 83,642 24,560 397,948 410,429 -169,603 396,891l-4 506zm5731 838c28,-30 61,-64 91,-100 83,-100 28,-22 81,-111l-348 4 176 207zm0 -571c-33,24 -61,32 -114,96 -69,83 -20,11 -64,109l327 -9c-58,-68 -83,-110 -149,-196zm2098 118c-12,-84 0,-42 -78,-127 -21,26 -152,-80 15,176 -107,-50 -193,-147 -275,133l332 12 6 -194zm-1936 11c0,-1 100,23 36,-154 -36,-100 -52,-66 -144,-93l108 247zm-365 -69c95,-57 65,-18 128,-96 66,-83 8,-19 19,-78 -95,42 -99,58 -147,174zm2054 -191c44,-93 19,-64 -28,-186 -53,78 -91,-114 -42,127 21,99 39,39 70,59zm-1726 -293c-40,98 -28,58 -62,178 161,-65 67,35 149,-135 -48,-63 73,-74 -87,-43zm-157 182c-31,-71 -27,-79 -66,-124 -49,-56 -24,-29 -100,-58 37,108 67,128 166,182zm2142 -13c-84,-205 36,88 -59,-72 -64,-108 86,-86 -266,-101 67,157 38,84 141,183l184 -10zm3939 1359l20 220c101,8 192,9 284,10 12,0 163,-3 167,-3l74 -15c11,-3 25,-10 34,-12 9,-2 23,-7 33,-13 33,-560 49,-1071 49,-1672 0,-529 39,-1217 -7,-1725l-242 -86 -70 -11 -127 -42 -39 -9 -655 -167 3 1956 166 73c7,2 21,6 30,11l3 1389 277 96zm-5924 -1528l64 -147 -349 -3 151 217c5,-2 12,-8 14,-10l36 -22c86,-46 -48,5 84,-35zm-108 -535c-130,58 -56,-11 -161,105 -60,67 -35,24 -44,123l308 8 -103 -236zm10796 -139l-267 -46 -514 -134 0 1367 506 7 161 5c-9,-320 76,-106 -19,-385 -50,-149 -31,-276 -31,-439 397,-30 274,47 327,-78l-6 -260 -157 -37zm-8727 395c4,-123 57,-81 -66,-167 -86,133 -58,31 8,155 -109,-44 -67,-41 -189,-2 153,-206 29,-150 12,-176 -222,193 15,45 -93,352l345 -5 -17 -157zm-55 -424c-71,119 -31,6 -58,162 125,-39 59,98 130,-150l-72 -12zm0 0c7,-23 23,-98 32,-113l-271 -15c48,125 6,197 239,128zm-2082 -63c-29,-118 -33,-149 -153,-211 25,157 17,157 153,211zm110 -7c137,-49 139,-46 145,-182 -88,64 -98,67 -145,182zm1968 -291l-120 -100c-87,85 -97,63 -140,214l299 21 -39 -135zm-1884 55c-157,-64 -184,-48 -253,-10l110 156c9,-8 21,-17 26,-23l117 -123zm1884 -55l63 -29c-48,-232 14,-110 -147,-168l84 197zm-1899 -123c-36,-85 -80,-155 -121,-245 -87,42 -163,109 -202,204l323 41zm9109 1688l398 5 126 0 281 16 -26 -1401 -196 -7 -185 -74c-135,-27 -264,-66 -421,-85 -52,-37 -1208,-320 -1380,-369 37,81 355,380 459,484 246,246 216,262 687,278l12 1763 255 -2 -10 -608zm-9027 -2055c-5,-97 -27,-68 -42,-90 -75,109 -46,122 8,207 16,-26 43,51 34,-117zm6495 2886l453 -18c-1,-507 0,-1015 -1,-1523 0,-253 2,-505 1,-758 -2,-252 -37,-377 46,-534 48,-90 36,58 43,-60l-535 -128 -7 3021zm-6873 -3009c-31,50 -53,34 0,149 22,-26 146,59 0,-149zm4249 1292l295 -2 421 0 196 25 23 311 243 20 316 28 -1 -1973c-147,-99 -189,-57 -315,-123l-430 -100 -427 -93c-73,-71 65,-13 -136,-77 -105,-33 -48,-17 -155,-25 -112,-68 -596,-191 -788,-252 -214,-68 -723,-269 -810,-182 -89,168 14,3538 51,4002l418 -13c4,-1046 -79,-826 297,-855l-1 -691 803 0zm-2008 -1255c-10,-5 -22,-12 -30,-15 -8,-3 -22,-11 -32,-14l-243 -38c44,105 6,57 87,151l-109 42c150,302 -68,23 21,232l306 -358zm-44 -148c-49,-144 -12,-84 -136,-211 -145,82 -78,23 -136,167l272 44zm8951 990c-98,-97 -398,-144 -544,-175l-3443 -846c-160,-48 -410,-113 -582,-137 128,125 123,89 294,133l1740 450c93,25 182,48 266,67 277,62 2132,573 2269,508zm-10794 -1152l-366 -23 190 248 176 -225zm-286 -195c108,61 100,40 173,-1l-86 -128 -87 129zm299 30c6,-83 33,-83 -16,-169 -95,-171 16,-18 -123,-98 41,175 44,169 139,267zm-31 -273l34 -51c1,-4 -11,-14 -10,-26 0,-16 -17,-17 -42,-26l18 103zm1810 190c114,-95 54,-138 63,-258l-259 -38c103,222 102,143 166,213 3,3 11,12 14,15l16 68zm-956 -340c-130,21 -256,83 -321,287 -48,153 5,-23 -12,81l-4 3854 165 84 3 485 441 20 40 -3787c4,-280 13,-555 -159,-797 -133,-188 -86,-113 -219,-26 52,-101 57,-89 66,-201zm-899 -157c-34,96 -28,73 -59,191 171,-65 90,35 149,-146 -51,-67 83,-80 -90,-45zm0 0c43,-84 18,-27 37,-126l-353 -105c46,100 143,224 207,304 49,-84 21,-45 109,-73zm6298 796c-70,-79 -14,-48 -128,-105l-3611 -1110c123,253 61,152 385,258 153,50 289,101 446,143 314,84 626,199 944,279 166,42 302,88 489,139l1475 396z"/>
  <rect class="fil2" x="37" y="17595" width="48755" height="101"/>
  <g id="_2996860964208">
   <path class="fil3" d="M22429 15876c48,2 130,4 187,3 56,-2 88,-8 105,-15 18,-8 23,-17 15,-33 -8,-16 -29,-40 -58,-70 -29,-31 -66,-69 -104,-100 -38,-32 -77,-57 -117,-82 -39,-24 -79,-47 -116,-68 -37,-20 -71,-38 -106,-53 -34,-15 -69,-27 -93,-35 -25,-8 -39,-11 -57,-13 -18,-1 -41,-1 -68,-1 -28,0 -61,1 -85,5 -24,3 -39,10 -50,18 -11,8 -18,18 -19,35 -1,16 5,41 23,70 18,30 48,66 82,101 35,34 74,67 118,101 44,35 93,70 137,92 45,22 86,31 114,36 28,6 43,7 92,9z"/>
   <rect class="fil4" x="16175" y="13487" width="525" height="561" rx="62" ry="59"/>
   <polygon class="fil5" points="16246,13487 16629,13487 16629,13774 16246,13774 "/>
   <path class="fil6" d="M11455 15208c-16,-13 -21,-40 -24,-70 -2,-29 -2,-60 3,-88 5,-28 16,-53 29,-72 13,-20 28,-34 47,-44 19,-10 41,-15 190,-17 149,-2 425,0 569,-1 143,-1 155,-3 255,-42 101,-39 289,-115 521,-206 233,-91 509,-198 780,-293 272,-96 540,-181 775,-242 234,-61 434,-99 624,-128 190,-29 370,-50 543,-62 95,-7 187,-11 283,-13 -1,-2 -1,-4 -1,-6l0 0c0,-36 30,-66 67,-66l616 0c37,0 67,30 67,66l0 0c0,8 -2,16 -4,23 30,2 60,5 89,8 194,20 375,52 551,94 175,41 346,92 519,159 173,67 349,150 527,250 178,100 359,215 522,321 162,106 307,203 379,251 72,48 72,48 72,48 0,0 0,0 0,0 0,0 0,0 347,38 348,39 1043,115 1480,173 437,57 617,95 706,114 90,18 90,18 90,18 0,0 0,0 -30,0 -31,0 -92,0 -125,10 -32,10 -36,29 -18,70 18,41 59,104 109,158 50,54 110,99 164,133 55,34 104,56 197,67 92,10 227,9 295,8 68,-1 68,-1 68,-1 0,0 0,0 0,0 0,0 0,0 10,20 11,19 31,58 39,120 8,61 3,144 0,186 -2,41 -2,41 -2,41 0,0 0,0 6,0 7,0 20,0 26,0 7,0 7,0 7,0 0,0 0,0 0,49 0,49 0,147 0,195 0,49 0,49 0,49 0,0 0,0 0,0 0,0 0,0 -6,-1 -6,-2 -18,-4 -24,-5 -5,-2 -5,-2 -5,-2 0,0 0,0 0,0 0,0 0,0 0,35 0,36 0,106 -4,161 -4,55 -12,96 -25,131 -13,35 -31,65 -53,89 -23,24 -49,42 -82,58 -34,15 -76,29 -187,42 -111,13 -292,26 -383,32 -90,7 -90,7 -90,7 0,0 0,0 -14,-7 -13,-6 -41,-19 -54,-26 -14,-6 -14,-6 -14,-6 0,0 0,0 -10,0 -11,1 -32,2 -42,3 -10,0 -10,0 -284,10 -274,9 -822,27 -1096,36 -274,9 -274,9 -274,9 0,0 0,0 -2,7 -3,7 -8,22 -11,29 -2,7 -2,7 -2,7 0,0 0,0 -934,-10 -934,-11 -2801,-32 -3771,-44 -971,-12 -1045,-16 -1082,-18 -37,-2 -37,-2 -279,-7 -242,-4 -726,-13 -1059,-26 -332,-13 -513,-30 -746,-56 -233,-25 -518,-59 -685,-82 -167,-24 -217,-37 -256,-54 -40,-18 -70,-40 -89,-63 -20,-23 -29,-46 -29,-180 0,-134 9,-379 18,-513 9,-135 18,-160 57,-205 38,-46 106,-112 208,-203 102,-91 239,-207 314,-281 74,-73 87,-104 87,-130 -1,-25 -15,-45 -47,-59 -32,-14 -81,-23 -141,-20 -60,3 -130,19 -179,27 -49,9 -76,10 -93,-3z"/>
   <path class="fil7" d="M22303 15846c20,6 44,10 71,13l12 1 0 0 -687 215 0 -39 604 -190z"/>
   <path class="fil7" d="M11354 15824c11,-10 22,-21 34,-33l1179 198 355 179 -20 35 -366 -183 -1182 -196z"/>
   <path class="fil8" d="M21900 15443c-11,12 -9,30 4,58 18,41 59,104 109,158 26,28 55,54 85,78l7 8c0,0 0,0 -92,-2 -93,-2 -278,-7 -370,-9 -93,-2 -93,-2 -93,-2 0,0 0,0 -26,-13 -27,-13 -80,-39 -134,-57 -55,-17 -111,-27 -179,-34 -69,-7 -149,-12 -222,-7 -73,6 -138,21 -187,34 -49,13 -82,25 -99,30 -16,6 -16,6 -16,6 0,0 0,0 -172,-4 -171,-4 -514,-12 -685,-16 -171,-4 -171,-4 -171,-4 0,0 0,0 0,0 0,0 0,0 -12,-35 -11,-35 -34,-106 -61,-172 -27,-65 -57,-126 -93,-182 -37,-56 -79,-106 -101,-131 -21,-26 -21,-26 -21,-26 0,0 0,0 66,4 66,4 197,11 344,20 148,9 310,19 480,35 170,16 346,36 517,58 170,22 334,45 487,70 153,24 295,51 412,78 94,21 172,43 223,57z"/>
   <path class="fil4" d="M11544 15142c56,-7 139,-12 201,-13 62,0 102,4 137,14 36,10 66,27 88,48 22,21 36,46 43,60 7,14 7,18 2,28 -6,10 -18,25 -54,57 -37,32 -98,80 -164,134 -65,53 -136,111 -194,158 -59,47 -106,82 -141,109 -35,27 -58,45 -70,54 -12,9 -12,9 -12,9 0,0 0,0 6,-98 6,-97 18,-292 26,-398 9,-106 14,-123 31,-136 17,-12 45,-20 101,-26z"/>
   <path class="fil9" d="M12008 15242c2,3 4,6 5,9 7,14 7,18 2,28 -6,8 -15,21 -41,45l-563 0 1 -20c2,-26 4,-46 6,-62l590 0zm-336 330c-24,20 -47,39 -69,56 -11,9 -22,18 -32,26l-182 0 5 -82 278 0z"/>
   <circle class="fil10" cx="13669" cy="16713" r="890"/>
   <circle class="fil11 str0" cx="13669" cy="16713" r="625"/>
   <path class="fil12" d="M16752 15108c13,60 39,165 64,296 24,132 46,289 58,469 12,179 15,381 13,512 0,28 -1,52 -2,74l-1700 0 3 24 1696 -3c-1,37 -4,66 -6,93l-1690 0 0 66 1681 0c-10,61 -23,124 -29,156 -7,32 -7,32 -7,32 0,0 0,0 0,0 0,0 0,0 -297,0 -296,0 -890,0 -1186,0 -297,0 -297,0 -297,0 0,0 0,0 0,0 0,0 0,0 -28,-70 -28,-70 -84,-209 -188,-408 -105,-199 -259,-458 -402,-680 -143,-223 -276,-409 -350,-514 -75,-104 -92,-128 -87,-140 5,-11 33,-11 487,-5 455,7 1337,20 1783,23 447,3 457,-3 463,0 6,3 7,16 21,75zm77 63c16,75 43,200 64,337 21,138 35,289 42,408 7,119 7,207 5,313 -1,73 -3,154 -7,230l2661 0c1,-20 2,-40 3,-61 9,-175 6,-385 -2,-541 -9,-157 -23,-261 -54,-352 -30,-91 -77,-170 -126,-232 -49,-62 -99,-109 -125,-133 -25,-23 -25,-23 -25,-23 0,0 0,0 0,0 0,0 0,0 0,0 0,0 0,0 -411,-12 -410,-12 -1231,-35 -1642,-47 -410,-11 -410,-11 -410,-11 0,0 0,0 3,12 2,12 7,37 24,112zm102 1309c-1,29 -4,58 -6,85l-1 8 2661 0c3,-31 5,-64 8,-98l-2662 5zm-15 159c-8,67 -19,118 -24,148 -8,40 -8,40 -8,40 0,0 0,0 0,0 0,0 0,0 444,4 445,5 1333,14 1778,18 444,5 444,5 444,5 0,0 0,0 0,0 0,0 0,0 10,-70 4,-34 11,-83 18,-145l-2662 0z"/>
   <rect class="fil11" x="14370" y="15196" width="586" height="131"/>
   <rect class="fil13" x="14450" y="15240" width="425.468" height="42.9363"/>
   <rect class="fil11" x="17002" y="15243" width="586" height="131"/>
   <rect class="fil13" x="17082" y="15287" width="425.468" height="42.9363"/>
   <polygon class="fil14" points="13529,17226 13824,17227 13681,16839 "/>
   <polygon class="fil14" points="13184,16879 13343,17128 13592,16798 "/>
   <polygon class="fil14" points="14165,16879 14006,17128 13757,16799 "/>
   <polygon class="fil14" points="14118,16415 14220,16692 13808,16691 "/>
   <polygon class="fil14" points="13226,16413 13124,16690 13537,16689 "/>
   <polygon class="fil14" points="14012,16292 13741,16173 13717,16585 "/>
   <polygon class="fil14" points="13319,16292 13589,16174 13613,16586 "/>
   <path class="fil15" d="M14127 14965c159,8 449,8 594,8 145,0 145,0 145,0 0,0 0,0 0,0 0,0 0,0 -22,-129 -21,-128 -64,-384 -85,-512 -22,-128 -22,-128 -22,-128 0,0 0,0 0,0 0,0 0,0 -75,20 -75,21 -224,63 -337,99 -112,35 -188,65 -250,98 -63,34 -112,70 -149,110 -36,39 -59,82 -70,128 -12,45 -10,94 1,139 12,44 34,86 59,115 25,28 52,44 211,52z"/>
   <path class="fil16" d="M14592 14972c49,1 93,1 129,1 145,0 145,0 145,0 0,0 0,0 0,0 0,0 0,0 -22,-129 -21,-128 -64,-384 -85,-512 -22,-128 -22,-128 -22,-128 0,0 0,0 0,0 0,0 0,0 -75,20 -75,21 -224,63 -337,99 -70,22 -126,42 -173,62l440 587z"/>
   <path class="fil15" d="M14853 14371c23,131 65,366 86,484 22,118 23,118 24,118 0,0 0,0 0,0 0,0 0,0 255,3 255,3 766,10 1021,13 255,3 255,3 255,3 0,0 0,0 0,0 0,0 0,0 -15,-163 -14,-164 -43,-490 -57,-653 -14,-164 -14,-164 -14,-164 0,0 0,0 0,0 0,0 0,0 -82,4 -81,3 -244,9 -415,20 -172,11 -353,27 -517,48 -164,21 -311,47 -404,65 -93,18 -132,29 -151,34 -20,5 -20,5 -20,5 0,0 0,0 3,13 2,13 7,39 31,170z"/>
   <path class="fil16" d="M14853 14371c23,131 65,366 86,484 22,118 23,118 24,118 0,0 0,0 0,0 0,0 0,0 255,3l321 4 -639 -812c-32,7 -50,12 -61,15 -20,5 -20,5 -20,5 0,0 0,0 3,13 2,13 7,39 31,170z"/>
   <path class="fil15" d="M16752 14360c62,156 155,394 202,513 47,119 47,119 47,119 0,0 0,0 0,0 0,0 0,0 0,0 0,0 0,0 290,4 290,4 871,12 1161,16 290,3 290,3 290,3 0,0 0,0 0,0 0,0 0,0 0,-36 0,-36 0,-109 -1,-148 0,-38 -2,-42 -2,-44 -1,-2 -1,-2 -1,-2 0,0 0,0 -33,-29 -33,-29 -100,-88 -202,-154 -102,-67 -240,-141 -398,-212 -158,-71 -336,-138 -487,-183 -150,-45 -272,-67 -395,-87 -123,-19 -247,-36 -345,-47 -98,-10 -171,-14 -208,-16 -36,-2 -36,-2 -22,35 15,37 43,112 104,268z"/>
   <path class="fil16" d="M18742 14931c0,-35 0,-75 -1,-100 0,-38 -2,-42 -2,-44 -1,-2 -1,-2 -1,-2 0,0 0,0 -33,-29 -33,-29 -100,-88 -202,-154 -62,-40 -136,-83 -221,-127l460 456z"/>
   <path class="fil16" d="M16752 14360l36 90 535 546 1022 14 -795 -823c-120,-32 -223,-50 -327,-67 -123,-19 -247,-36 -345,-47 -98,-10 -171,-14 -208,-16 -36,-2 -36,-2 -22,35 15,37 43,112 104,268z"/>
   <path class="fil8" d="M13521 14994l-2063 -10c-11,19 -19,41 -24,66 -5,25 -5,52 -3,79 56,-10 123,-20 179,-26 89,-11 150,-12 201,-7 51,5 91,17 122,31 30,13 51,29 68,47 18,18 32,39 41,60 10,21 13,42 13,57 -1,16 -6,26 -9,31l-2 6 92 21c93,22 277,65 424,87 146,23 254,26 530,30 276,5 719,11 941,15l222 3 -52 -82 -208 -325 -52 -81 -420 -2z"/>
   <path class="fil13" d="M13669 15745c-534,0 -968,434 -968,968 0,106 17,207 48,302 27,2 55,4 85,5 -36,-95 -55,-199 -55,-307 0,-491 399,-890 890,-890 492,0 890,399 890,890 0,126 -26,245 -73,353 23,1 51,1 84,2 43,-110 67,-229 67,-355 0,-534 -433,-968 -968,-968z"/>
   <circle class="fil10" cx="21062" cy="16721" r="890"/>
   <circle class="fil11 str0" cx="21062" cy="16721" r="625"/>
   <polygon class="fil14" points="20921,17234 21217,17235 21074,16847 "/>
   <polygon class="fil14" points="20577,16887 20736,17135 20985,16806 "/>
   <polygon class="fil14" points="21558,16887 21398,17136 21150,16806 "/>
   <polygon class="fil14" points="21511,16423 21613,16700 21200,16699 "/>
   <polygon class="fil14" points="20619,16421 20517,16698 20930,16697 "/>
   <polygon class="fil14" points="21405,16299 21134,16181 21110,16593 "/>
   <polygon class="fil14" points="20712,16300 20982,16181 21006,16593 "/>
   <path class="fil13" d="M21062 15753c-534,0 -968,434 -968,968 0,76 9,149 25,219 3,15 6,29 9,42 6,21 11,37 17,51 5,15 11,27 16,38 5,8 10,15 15,22l0 -1 75 -2c-5,-15 -14,-40 -24,-68 -11,-33 -23,-69 -32,-107 -5,-21 -10,-42 -13,-60 -6,-44 -10,-88 -10,-134 0,-491 399,-890 890,-890 492,0 890,399 890,890 0,126 -26,245 -73,353 23,1 50,1 84,2 43,-110 67,-230 67,-355 0,-534 -433,-968 -968,-968z"/>
   <circle class="fil17 str1" cx="13670" cy="16696" r="80"/>
   <circle class="fil17 str1" cx="21071" cy="16712" r="80"/>
   <path class="fil18" d="M21988 15503c-5,15 17,51 41,85 25,33 52,64 86,94 33,30 73,59 110,81 37,21 72,36 110,45 37,10 78,15 99,18 20,3 20,3 20,3 0,0 0,0 -65,-54 -66,-54 -196,-162 -279,-220 -82,-58 -116,-66 -122,-52z"/>
   <ellipse class="fil3" cx="22580" cy="16675" rx="88" ry="138"/>
   <path class="fil7" d="M16731 14786c-38,-163 -112,-477 -155,-635 -15,-58 -26,-95 -35,-119 -3,0 -7,-1 -11,-2 -4,-1 -8,-3 -13,-5 4,24 12,63 26,127 34,163 106,491 141,655 36,164 36,164 36,164 0,0 0,0 9,1 9,1 28,2 37,2 9,1 9,1 9,1 0,0 0,0 -1,-6 -2,-7 -4,-20 -43,-183z"/>
   <path class="fil17 str2" d="M16663 14970c-791,-11 -1659,-14 -2120,-19 -460,-5 -514,-10 -552,-20 -38,-9 -62,-24 -81,-41 -19,-16 -33,-36 -44,-63 -11,-26 -19,-60 -18,-97 2,-37 12,-78 30,-116 19,-38 45,-75 79,-107 35,-33 78,-62 135,-89 57,-27 129,-53 239,-88 111,-35 260,-80 415,-119 155,-39 315,-73 469,-97 154,-25 303,-41 478,-55 176,-14 379,-27 537,-31 158,-4 271,1 411,13 140,13 307,32 466,58 159,26 312,59 449,96 137,37 260,79 392,131 132,53 273,117 400,186 127,70 239,146 307,196 67,51 91,77 119,110 28,33 60,74 81,108 21,35 30,63 33,78 2,14 -2,14 -361,5 -359,-9 -1073,-27 -1864,-39z"/>
   <path class="fil19" d="M15358 15583c41,0 81,9 120,28 38,19 68,45 90,81 22,35 33,77 33,127 0,51 -11,94 -33,129 -22,36 -52,63 -90,80 -39,19 -79,28 -120,28l-161 0 0 284 -160 0 0 -757 321 0zm-31 331c35,0 62,-9 80,-25 18,-16 27,-39 27,-70 0,-31 -9,-54 -27,-70 -18,-16 -45,-24 -80,-24l-130 0 0 189 130 0z"/>
   <path id="1" class="fil19" d="M16332 15965c0,-40 -8,-79 -25,-116 -17,-36 -42,-66 -76,-89 -34,-23 -77,-36 -127,-37 -51,0 -92,11 -125,35 -35,24 -60,54 -76,90 -17,36 -26,75 -26,117 0,41 9,80 26,116 16,37 41,67 76,90 33,24 74,36 125,36 50,-2 93,-14 127,-38 34,-23 59,-53 76,-89 17,-37 25,-76 25,-115zm-227 -396c109,0 202,39 280,116 77,77 116,171 116,280 0,109 -39,202 -116,279 -78,77 -171,116 -280,116 -109,0 -202,-39 -279,-116 -78,-77 -116,-170 -116,-279 0,-109 38,-203 116,-280 77,-77 170,-116 279,-116z"/>
   <polygon id="2" class="fil19" points="17059,16341 16610,16341 16610,15583 16770,15583 16770,16198 17059,16198 "/>
   <polygon id="3" class="fil19" points="17379,15583 17379,16341 17220,16341 17220,15583 "/>
   <path id="4" class="fil19" d="M17678 16005c3,33 12,64 27,91 19,37 45,64 79,84 33,19 70,29 113,29 45,0 84,-11 118,-31 33,-22 58,-50 74,-84l124 77c-22,60 -62,106 -119,140 -57,33 -123,49 -196,49 -72,0 -137,-16 -197,-47 -59,-32 -106,-77 -140,-135 -35,-59 -52,-130 -52,-212 0,-82 17,-153 52,-211 34,-59 81,-104 140,-135 60,-32 125,-48 197,-48 73,0 139,17 196,50 57,33 97,80 119,139l-124 78c-16,-35 -41,-63 -74,-84 -34,-21 -73,-31 -118,-31 -43,0 -80,9 -113,29 -34,19 -60,47 -79,83 -15,28 -24,58 -27,92 -2,20 -2,46 0,77z"/>
   <polygon id="5" class="fil19" points="18809,16341 18334,16341 18334,15583 18798,15583 18798,15725 18494,15725 18494,15887 18766,15887 18766,16026 18494,16026 18494,16199 18809,16199 "/>
  </g>
  <g id="_2996860950832">
   <path class="fil20" d="M23237 13595l178 0c2,-7 3,-13 5,-20 3,-14 7,-27 11,-39 7,-22 15,-39 27,-54 13,-15 31,-28 46,-42 15,-14 28,-29 38,-44 10,-15 18,-31 15,-45 -2,-13 -14,-23 -24,-29 -9,-5 -17,-5 -21,-5 -4,0 -4,0 -5,-55 -1,-54 -3,-163 -6,-225 -3,-61 -8,-74 -15,-83 -7,-8 -17,-13 -28,-14 -10,-2 -22,0 -33,6 -11,6 -20,16 -26,43 -5,28 -5,72 -6,95 0,22 0,22 -14,26 -13,3 -41,9 -60,16 -19,6 -30,13 -53,17 -23,5 -58,8 -81,11 -23,2 -33,6 -39,38 -5,32 -5,93 -2,142 4,48 10,84 20,112 10,29 24,49 36,68 12,19 23,36 29,54 1,2 2,4 3,6 2,7 4,14 5,21z"/>
   <path class="fil21" d="M23237 13595l46 0c-4,-13 -8,-27 -13,-39 -5,-13 -10,-23 -16,-33 -6,-10 -14,-19 -22,-33 -9,-13 -18,-29 -27,-50 -9,-21 -16,-48 -21,-78 -5,-30 -7,-64 -8,-92 -1,-28 -1,-50 2,-65 3,-15 9,-22 18,-28 10,-5 23,-7 35,-7 11,1 21,6 30,7 9,2 18,1 27,-3 9,-4 18,-11 27,-17 9,-5 18,-9 29,-8 11,1 23,5 33,5 10,-1 18,-7 22,-15 5,-8 6,-17 8,-36 2,-18 3,-45 5,-68 2,-23 5,-42 10,-55 4,-13 10,-21 17,-26 7,-5 16,-7 27,-7 5,1 10,1 16,3 -7,-6 -15,-9 -24,-10 -10,-2 -22,0 -33,6 -11,6 -20,16 -26,43 -5,28 -5,72 -6,95 0,22 0,22 -14,26 -13,3 -41,9 -60,16 -19,6 -30,13 -53,17 -23,5 -58,8 -81,11 -23,2 -33,6 -39,38 -5,32 -5,93 -2,142 4,48 10,84 20,112 10,29 24,49 36,68 12,19 23,36 29,54 1,2 2,4 3,6 2,7 4,14 5,21z"/>
   <path class="fil22" d="M23182 13574l0 131c0,130 0,392 5,537 4,144 14,172 29,193 15,22 37,36 129,43 93,7 257,7 339,7l82 0 0 147 -2 591 0 136 101 0c28,0 28,0 29,13 0,6 0,15 0,30 20,3 43,7 68,12 63,11 141,22 251,33 15,1 32,3 48,4l0 -12 63 0c7,28 19,53 36,65 25,18 63,6 93,-7 30,-12 51,-24 69,-51 1,-2 3,-5 4,-7l59 0 0 17c1,0 2,0 2,0l106 0c7,0 14,2 19,6 33,-1 66,-3 98,-5 2,-8 12,-8 46,-7l34 0c33,-3 62,-6 85,-10 24,-3 42,-7 55,-9 10,-5 18,-9 24,-13 1,-55 3,-55 15,-55 6,-1 15,-1 25,0 1,-16 1,-47 1,-129l0 -533 0 -134 43 24 156 88 0 -482c-31,-15 -72,-34 -109,-50 -43,-19 -80,-33 -119,-46 -39,-13 -79,-25 -121,-35 -41,-10 -84,-18 -124,-25 -39,-8 -75,-15 -103,-21 -29,-6 -50,-10 -76,-17 -4,-2 -8,-3 -13,-4 -11,-4 -22,-7 -33,-11l0 -5 0 -49c-1,0 -2,0 -3,1 -4,3 -9,6 -13,9 -16,10 -30,15 -49,19 -20,5 -45,9 -71,11 -25,2 -51,2 -77,0 -26,-3 -52,-7 -72,-12 -19,-5 -31,-11 -41,-17 -5,-2 -9,-5 -13,-8 0,0 -1,0 -1,0l0 51c-5,2 -11,4 -16,7 -8,5 -16,10 -24,16 -30,9 -66,20 -128,33 -83,17 -213,40 -309,55 -95,15 -156,22 -195,26 -40,4 -59,6 -72,6 -13,1 -21,1 -26,1 -4,0 -6,0 -6,-93 -1,-92 -1,-278 -1,-371l0 -92 -49 -1 -10 0 -188 -1 0 0 -50 0z"/>
   <path class="fil23" d="M25097 14568l41 23 156 88 0 -47 -16 -6c-36,-12 -109,-37 -145,-49 -37,-13 -37,-13 -37,-13l1 4z"/>
   <path class="fil23" d="M23182 13574l0 131c0,130 0,392 5,537 4,144 14,172 29,193 15,22 37,36 129,43 93,7 257,7 339,7l80 0c-2,-14 -8,-18 -15,-22 -8,-3 -19,-7 -43,-10 -24,-2 -62,-4 -123,-7 -61,-4 -144,-9 -201,-14 -56,-5 -85,-9 -105,-15 -19,-6 -29,-14 -36,-24 -7,-10 -11,-22 -17,-156 -6,-134 -12,-390 -19,-522 -4,-105 -9,-131 -14,-141l-9 0z"/>
   <polygon class="fil20" points="24256,13912 24596,13912 24596,14018 24453,14146 24406,14146 24256,14007 "/>
   <path class="fil24" d="M24232 13913c-2,3 7,11 15,17 8,6 14,10 23,15 10,6 22,12 41,17 20,5 46,9 72,12 26,2 52,2 77,0 26,-2 51,-6 71,-11 19,-4 33,-9 49,-19 16,-10 34,-25 42,-32 9,-8 9,-8 9,-8 0,0 0,0 -8,2 -8,2 -25,5 -56,9 -32,4 -80,8 -124,9 -45,0 -87,-3 -117,-6 -30,-2 -48,-3 -63,-5 -16,-1 -29,-3 -31,0z"/>
   <path class="fil20" d="M23856 13182c-3,24 -8,56 -11,72 -3,17 -3,17 -3,17 0,0 0,0 -2,0 -2,0 -6,0 -12,1 -6,2 -14,6 -22,13 -7,7 -15,19 -19,35 -4,17 -6,38 -5,57 1,19 3,35 7,50 4,14 10,27 18,37 7,9 17,15 27,20 10,4 20,7 32,8 11,1 24,0 30,0 6,0 6,0 6,0 0,0 0,0 1,24l0 21c3,15 5,33 8,49 5,26 11,50 18,73 7,22 15,44 24,63 9,20 18,36 27,49 10,14 20,26 33,40 13,13 29,28 45,41 15,12 30,21 48,31 17,9 37,19 58,27 22,9 46,16 68,22 22,5 42,9 62,11 19,2 38,2 63,2 25,1 56,1 89,0 33,0 67,-3 100,-5 32,-3 64,-7 93,-13 29,-7 56,-16 81,-29 25,-13 49,-29 69,-43 20,-15 36,-28 51,-45 15,-16 28,-37 42,-58 13,-20 27,-42 38,-65 12,-24 23,-50 31,-75 8,-26 14,-50 19,-74 4,-23 7,-45 9,-55 2,-11 2,-11 2,-11 0,0 0,0 2,0 2,1 6,2 14,3 7,0 18,0 31,-4 2,0 4,-1 6,-2 5,-2 9,-5 12,-8 11,-10 18,-25 22,-44 5,-19 7,-43 8,-65 1,-22 0,-42 -4,-58 -5,-15 -13,-27 -20,-34 -7,-7 -11,-8 -13,-9 -2,-1 -2,-1 -3,-16 0,-15 -1,-45 -1,-60 -1,-15 -1,-15 -2,-35 -1,-20 -2,-61 -8,-90 -5,-30 -14,-49 -51,-65 -37,-16 -102,-29 -208,-36 -106,-7 -253,-8 -373,-6 -120,2 -214,8 -285,15 -71,8 -118,18 -150,33 -32,15 -49,36 -62,59 -14,24 -23,52 -29,73 -6,21 -7,35 -11,59z"/>
   <path class="fil21" d="M23823 13274c-5,2 -11,5 -17,11 -7,7 -15,19 -19,35 -4,17 -6,38 -5,57 1,19 3,35 7,50 4,14 10,27 18,37 7,9 17,15 27,20 10,4 20,7 32,8 11,1 24,0 30,0 6,0 6,0 6,0 0,0 0,0 1,24l0 21c3,15 5,33 8,49 5,26 11,50 18,73 7,22 15,44 24,63 9,20 18,36 27,49 10,14 20,26 33,40 13,13 29,28 45,41 15,12 30,21 48,31 17,9 37,19 58,27 22,9 46,16 68,22 22,5 42,9 62,11 19,2 38,2 63,2 25,1 56,1 89,0 33,0 67,-3 100,-5 32,-3 64,-7 93,-13 29,-7 56,-16 81,-29 25,-13 49,-29 69,-43 20,-15 36,-28 51,-45 15,-16 28,-37 42,-58 13,-20 27,-42 38,-65 12,-24 23,-50 31,-75 8,-26 14,-50 19,-74 4,-23 7,-45 9,-55 2,-11 2,-11 2,-11 0,0 0,0 2,0 2,1 6,2 14,3 7,0 18,0 31,-4 2,0 4,-1 6,-2 5,-2 9,-5 12,-8 11,-10 18,-25 22,-44 5,-19 7,-43 8,-65 1,-22 0,-42 -4,-58 -5,-15 -13,-27 -20,-34 -2,-2 -4,-4 -6,-5 2,9 5,20 7,31 3,15 5,32 3,50 -1,19 -4,39 -9,56 -6,17 -13,30 -23,39 -11,9 -24,13 -34,15 -10,2 -18,2 -22,2 -4,0 -4,0 -4,0 0,0 0,0 -1,6 -2,7 -4,20 -8,39 -5,20 -10,46 -19,72 -8,27 -19,54 -31,78 -12,24 -24,43 -39,64 -14,20 -32,40 -50,58 -18,18 -36,34 -55,48 -18,14 -36,27 -56,39 -20,12 -43,23 -68,31 -25,9 -51,14 -80,18 -29,4 -61,5 -96,7 -34,1 -71,2 -103,2 -32,-1 -59,-2 -87,-7 -28,-4 -59,-13 -86,-22 -27,-10 -51,-21 -72,-33 -22,-13 -41,-27 -57,-42 -17,-15 -31,-30 -44,-49 -13,-18 -25,-41 -35,-63 -11,-23 -19,-45 -27,-70 -7,-24 -13,-52 -17,-79 -4,-28 -7,-56 -8,-70 -1,-14 -1,-14 -1,-14 0,0 0,0 -8,2 -8,3 -24,9 -37,10 -13,1 -23,-2 -32,-9 -9,-7 -16,-18 -23,-31 -6,-13 -11,-27 -14,-45 -3,-17 -4,-38 -3,-56 0,-18 3,-33 8,-44 2,-5 5,-10 8,-14z"/>
   <path class="fil25" d="M24348 13784c4,5 9,9 14,14 5,4 10,8 15,12 6,3 12,5 19,7 8,2 17,4 26,5 10,0 19,0 29,0 10,0 21,-1 30,-3 8,-1 13,-4 18,-7 4,-3 8,-6 12,-11 4,-4 7,-10 9,-13 1,-3 1,-3 -15,-4 -15,-1 -47,-3 -78,-6 -31,-2 -62,-4 -75,-4 -13,1 -8,6 -4,10z"/>
   <path class="fil25" d="M24595 13531c-8,0 -18,0 -26,0 -8,-1 -15,-2 -21,-4 -5,-3 -9,-7 -13,-11 -4,-4 -8,-8 -13,-16 -4,-7 -10,-17 -15,-30 -6,-12 -11,-28 -14,-43 -4,-16 -6,-32 -7,-44 -1,-12 -1,-20 0,-30 1,-9 2,-20 6,-31 3,-10 10,-20 16,-29 6,-8 12,-15 19,-21 7,-5 16,-9 22,-11 6,-2 10,-3 17,-1 6,2 15,8 29,30 14,22 33,60 42,97 10,36 10,69 6,92 -4,22 -13,33 -19,39 -6,6 -9,8 -13,9 -4,2 -9,3 -16,4z"/>
   <path class="fil25" d="M24327 13525c9,-1 17,-4 24,-11 7,-7 14,-18 21,-32 7,-15 15,-33 20,-50 5,-18 5,-36 5,-53 0,-18 0,-35 -2,-48 -2,-14 -5,-24 -10,-34 -4,-9 -11,-17 -17,-24 -7,-6 -13,-10 -21,-13 -7,-2 -15,-3 -28,-3 -13,0 -31,1 -46,4 -16,4 -28,10 -38,30 -11,20 -20,55 -18,88 3,33 17,65 32,90 15,24 31,41 44,50 13,8 24,8 34,6z"/>
   <path class="fil25" d="M23999 13108c0,46 0,129 0,170 0,42 0,42 -9,38 -9,-4 -27,-11 -42,-20 -16,-10 -29,-21 -40,-49 -11,-29 -18,-74 -18,-114 1,-39 11,-73 26,-89 16,-16 37,-15 52,-13 15,3 24,8 28,15 4,7 3,16 3,62z"/>
   <path class="fil25" d="M24918 13240c0,-43 0,-120 0,-159 0,-38 0,-38 16,-38 15,0 46,0 63,11 17,10 20,32 21,56 1,25 0,52 -4,73 -4,21 -11,37 -27,55 -16,19 -41,41 -54,47 -13,7 -14,-2 -15,-45z"/>
   <path class="fil26" d="M24096 12864c-180,2 -197,-2 -228,-21 -2,0 -3,-1 -4,-1 -6,21 -17,56 -22,84 -2,14 -4,26 -4,36l0 0 0 0c-1,5 -1,12 -1,22 0,16 0,42 0,73 1,30 3,65 5,91 1,19 3,33 4,45 1,7 2,13 2,18 1,10 3,17 3,22 1,5 2,9 2,11 1,5 1,5 14,8l53 13 10 2 -1 -1 4 1 0 -32 0 -135 0 -33 34 10c35,10 105,29 182,42 78,14 164,21 240,23 76,3 143,1 206,-3 63,-4 123,-11 185,-23 62,-11 126,-28 159,-37l32 -8 0 29 0 117 0 30 15 -11 35 -22 28 -18 15 -10 0 -23c0,-12 -1,-30 -2,-50l0 -6c0,-18 0,-38 0,-59 0,-20 0,-40 -1,-57 0,-1 0,-3 0,-5 -1,-17 -2,-49 -8,-81 -5,-27 -13,-53 -23,-75 -23,14 -56,15 -201,18 -183,5 -546,14 -733,16z"/>
   <path class="fil27" d="M24988 12777c11,2 25,19 37,42 12,24 22,55 28,86 6,32 7,64 8,81 1,16 1,16 -71,16 -71,0 -215,0 -418,0 -204,-1 -469,-1 -602,-2 -132,0 -132,0 -132,-11 -1,-10 -1,-32 4,-63 6,-30 17,-70 23,-90 6,-19 6,-19 106,-22 99,-3 298,-8 480,-10 181,-2 345,-2 431,-8 87,-7 95,-20 106,-19z"/>
   <ellipse class="fil24" cx="24698" cy="13266" rx="94" ry="31"/>
   <path class="fil28" d="M25032 12829c12,-4 19,-11 31,-21 31,-29 93,-86 123,-118 4,-4 7,-7 9,-11 11,-11 12,-15 12,-18 0,-5 -2,-8 -38,-30 -36,-21 -106,-60 -141,-80 -35,-19 -35,-19 -35,-19 0,0 0,0 -82,-25 -82,-25 -246,-74 -338,-101 -92,-27 -113,-31 -133,-30 -11,1 -22,3 -46,9 -15,3 -31,6 -51,11 -56,14 -135,36 -216,60l-205 55c-92,24 -92,24 -119,49 -22,18 -60,51 -89,77 -24,17 -35,27 -40,37 -8,8 -7,12 -3,17 2,11 11,25 37,46 34,27 95,67 126,87 17,12 25,17 34,19 31,19 48,23 228,21 187,-2 550,-11 733,-16 148,-3 179,-4 203,-19z"/>
   <path class="fil27" d="M25036 12828c10,-5 17,-11 27,-20 31,-29 93,-86 123,-118 4,-4 7,-7 9,-11 11,-11 12,-15 12,-18 0,-5 -2,-8 -38,-30 -36,-21 -106,-60 -141,-80 -35,-19 -35,-19 -35,-19l-32 -10c48,33 117,81 155,109 45,34 45,39 37,51 -7,13 -23,32 -44,58 -22,27 -50,60 -64,76 -4,6 -7,9 -9,12z"/>
   <path class="fil27" d="M23855 12530c-28,8 -34,14 -52,30 -22,18 -60,51 -89,77 -24,17 -35,27 -40,37 -8,8 -7,12 -3,17 2,11 11,25 37,46 34,27 95,67 126,87 17,11 24,16 33,19 -4,-3 -8,-7 -13,-11 -28,-24 -85,-72 -114,-100 -29,-28 -31,-35 -30,-43 0,-8 2,-16 22,-39 20,-23 56,-62 79,-84 22,-22 30,-28 43,-36l1 0z"/>
   <ellipse class="fil24" cx="24178" cy="13267" rx="94" ry="31"/>
   <ellipse class="fil29" cx="24438" cy="12634" rx="113" ry="137"/>
   <path class="fil30" d="M24834 13256l-268 0c-11,0 -22,5 -30,13l0 0c-3,3 -4,7 -6,10 -1,4 -3,8 -3,13 -1,5 -1,11 -1,14 0,3 0,3 0,3 0,0 0,0 -5,-1 -5,-2 -16,-4 -28,-7 -13,-2 -29,-5 -44,-6 -15,-1 -30,-1 -43,1 -13,1 -23,5 -31,8 -8,2 -14,5 -17,6 -3,1 -3,1 -3,1 0,0 0,0 0,-5 0,-6 0,-17 -2,-25 -1,-2 -1,-3 -2,-5 -7,-12 -21,-20 -36,-20l-268 0c-18,0 -33,12 -39,28l-154 -36 150 139 1 1 0 101c0,23 19,42 42,42l268 0c24,0 43,-19 43,-42l0 -124 166 0 0 124c0,23 19,43 42,43l268 0c24,0 43,-20 43,-43l0 -124 188 -179 -198 86c-8,-10 -19,-16 -33,-16z"/>
   <path class="fil31" d="M24830 13256l-264 0c-11,0 -22,5 -30,13l0 0c-3,3 -4,7 -6,10 -1,4 -3,8 -3,13 -1,5 -1,11 -1,14 0,3 0,3 0,3l-1 0 0 14c-1,11 -1,27 -1,42l0 0 0 124c0,23 19,43 42,43l144 0 2 -1c12,-9 16,-21 19,-26 2,-6 2,-6 -25,-6 -27,0 -81,1 -111,-2 -30,-2 -35,-7 -38,-13 -3,-7 -4,-17 -5,-42 0,-25 -1,-66 0,-95 1,-29 3,-46 7,-56 5,-9 11,-11 17,-12 6,-1 13,-1 43,-2 30,0 83,0 117,0 35,1 50,2 63,0 13,-1 22,-6 27,-13 2,-3 3,-5 4,-8z"/>
   <path class="fil31" d="M24303 13256l-256 0c-18,0 -33,12 -39,28l-154 -36 150 139 1 1 0 101c0,23 19,42 42,42l156 0c13,-8 19,-17 23,-22 5,-6 5,-6 -19,-6 -23,0 -71,1 -101,1 -31,-1 -45,-2 -55,-6 -10,-3 -16,-8 -19,-13 -4,-5 -4,-11 -5,-41 -1,-30 -1,-83 1,-114 1,-30 5,-38 10,-44 5,-5 10,-9 22,-11 13,-1 31,-1 57,-1 25,0 57,0 87,0 31,0 59,1 78,-5 10,-3 17,-8 21,-13z"/>
   <path class="fil32" d="M24339 13264c-6,-5 -15,-8 -24,-8l-67 0c0,23 1,57 -1,85 -2,33 -7,57 -15,80 -8,24 -19,47 -33,67 -13,18 -29,33 -44,43l105 0c7,-6 14,-15 22,-26 11,-15 21,-35 29,-56 8,-21 14,-44 18,-69 4,-24 7,-50 8,-72 2,-18 2,-33 2,-44z"/>
   <path class="fil32" d="M24834 13256l-66 0c0,17 0,37 0,55 -1,29 -2,54 -7,79 -5,24 -13,48 -23,69 -10,21 -22,39 -34,54 -6,7 -12,13 -17,19l85 0c2,-2 4,-3 6,-5 10,-8 20,-19 29,-34 10,-14 20,-33 27,-53 7,-21 13,-44 16,-68 4,-23 6,-48 7,-71 0,-14 -1,-27 -1,-39 -6,-3 -14,-6 -22,-6z"/>
   <path class="fil33" d="M24440 13733c-67,0 -128,-11 -173,-28 6,54 81,97 173,97 92,0 167,-43 173,-97 -45,17 -106,28 -173,28z"/>
   <path class="fil34" d="M24376 13611c-13,0 -31,-1 -41,-4 -10,-4 -12,-10 -12,-20 1,-10 4,-23 11,-32 6,-9 16,-14 29,-18 12,-3 28,-6 36,-7 8,-1 8,-1 8,-1 0,0 0,0 0,14 0,13 0,41 0,54 0,14 0,14 0,14 0,0 0,0 -4,0 -5,0 -14,0 -27,0z"/>
   <line class="fil17" x1="24118" y1="14466" x2="24118" y2= "14853" />
   <line class="fil17" x1="23944" y1="14593" x2="24298" y2= "14593" />
   <rect class="fil35" x="25294" y="13871" width="843" height="1151"/>
   <rect class="fil9" x="25370" y="13947" width="691" height="999"/>
   <path class="fil20" d="M25963 13767c-26,-8 -54,-16 -80,-21 -27,-5 -52,-7 -71,-7 -18,0 -29,2 -37,7 -8,5 -12,13 -17,20 -6,6 -11,10 -22,15 -12,5 -28,12 -41,20 -14,9 -25,19 -31,30 -7,10 -8,21 -1,30 7,9 23,16 34,24 12,8 19,18 29,28 10,10 23,21 43,30 21,8 48,13 76,15 28,1 58,-1 82,-10 25,-10 44,-27 65,-39 21,-13 44,-21 67,-29 22,-7 44,-13 52,-21 8,-8 3,-20 -12,-32 -15,-13 -39,-27 -63,-37 -24,-10 -47,-16 -73,-23z"/>
   <path class="fil21" d="M25775 13945c19,7 44,11 70,13 28,1 58,-1 82,-10 25,-10 44,-27 65,-39 21,-13 44,-21 67,-29 9,-3 19,-6 27,-8 -11,1 -24,3 -40,7 -22,7 -51,17 -78,28 -27,10 -52,20 -77,27 -25,6 -51,8 -74,9 -15,1 -28,1 -42,2z"/>
   <path class="fil21" d="M25963 13767c-26,-8 -54,-16 -80,-21 -27,-5 -52,-7 -71,-7 -18,0 -29,2 -37,7 -8,5 -12,13 -17,20 -6,6 -11,10 -22,15 -12,5 -28,12 -41,20 -14,9 -25,19 -31,30 -7,10 -8,21 -1,30 7,9 23,16 34,24 5,3 9,7 13,11l0 -1c0,-12 5,-26 12,-39 7,-12 16,-21 27,-28 10,-6 21,-10 34,-14 13,-5 28,-11 50,-15 21,-4 50,-6 81,-6 31,0 65,2 96,7 31,5 59,14 96,37l5 3c-3,-4 -7,-8 -12,-13 -15,-13 -39,-27 -63,-37 -24,-10 -47,-16 -73,-23z"/>
   <rect class="fil9" x="24310" y="15489" width="226" height="109"/>
   <path class="fil17 str3" d="M23892 15613c-1,14 -1,27 -2,39 -4,48 -12,61 -30,70 -17,8 -43,11 -66,8 -22,-3 -39,-12 -51,-25 -11,-14 -16,-31 -18,-90 -3,-58 -2,-157 -2,-206 1,-50 1,-50 29,-50 28,0 85,0 113,0 28,0 28,0 29,13 0,11 1,31 1,73 38,1 87,2 116,3 37,1 38,3 41,29 2,26 6,78 5,106 -1,28 -8,34 -43,35 -32,1 -87,-1 -122,-5z"/>
   <rect class="fil17 str3" x="24124" y="15456" width="165" height="173" rx="29" ry="26"/>
   <path class="fil36" d="M24015 17363c149,0 269,71 269,158l22 0 0 74 -588 0 0 -74 28 0c0,-87 120,-158 269,-158z"/>
   <path class="fil36" d="M24770 17363c149,0 270,71 270,158l21 0 0 74 -587 0 0 -74 27 0c0,-87 121,-158 269,-158z"/>
   <rect class="fil23" x="24384" y="14150" width="85.8726" height="1309.57"/>
   <path class="fil23" d="M24228 14334c-10,-19 -30,-56 -43,-90 -13,-35 -19,-68 -22,-94 -2,-26 -1,-45 4,-64 2,-10 6,-19 10,-28 -7,12 -14,26 -19,41 -6,17 -9,36 -10,55 -2,19 -2,38 3,62 4,24 13,54 23,78 10,25 23,44 33,59 11,16 21,26 26,32l4 5 30 -35 117 -138 0 -41 -112 136 -34 41 -10 -19z"/>
   <path class="fil23" d="M24470 14165l0 44c4,5 8,10 14,18l104 129 25 32 6 -4c6,-4 17,-12 28,-27 12,-15 23,-37 33,-61 9,-25 18,-52 23,-80 5,-29 8,-59 6,-85 -1,-27 -7,-50 -20,-74 -11,-19 -27,-38 -41,-53 -2,0 -4,-1 -6,-1l-13 -4c14,8 28,19 39,33 13,15 23,34 28,54 5,19 6,38 3,64 -2,26 -8,59 -21,94 -13,34 -33,71 -43,90l-10 19 -34 -41 -121 -147z"/>
   <path class="fil23" d="M23972 14465c-6,2 -11,5 -17,9 -5,5 -10,11 -13,19 -4,7 -6,16 -7,70 -1,53 -1,152 0,204 1,53 3,59 5,65 3,7 6,13 12,17 6,4 13,7 28,9 15,1 37,2 83,2 46,0 117,-1 155,-1 39,-1 45,-1 53,-4 7,-2 16,-6 23,-13 6,-7 11,-16 13,-24 2,-8 2,-14 1,-67 0,-53 -2,-152 -3,-205 -2,-53 -4,-59 -8,-64 -4,-5 -10,-8 -16,-11 -6,-3 -12,-5 -16,-6 -3,-1 -3,-1 -3,-1 0,0 0,0 2,1 2,2 6,4 9,7 4,3 8,8 11,14 3,6 5,14 7,65 1,51 1,145 0,196 -1,51 -3,59 -5,66 -2,7 -5,14 -11,17 -6,4 -16,6 -64,7 -49,0 -137,-1 -184,-2 -47,-2 -54,-3 -59,-7 -5,-4 -9,-9 -11,-60 -1,-50 0,-146 1,-199 1,-53 2,-64 4,-72 2,-8 6,-13 10,-19 4,-5 10,-11 10,-13 0,-2 -5,-1 -10,0z"/>
   <rect class="fil23" x="23948" y="14580" width="349.993" height="23.4273"/>
   <rect class="fil23" x="24108" y="14464" width="19.509" height="382.532"/>
   <line class="fil17" x1="24777" y1="14476" x2="24777" y2= "14864" />
   <line class="fil17" x1="24602" y1="14603" x2="24956" y2= "14603" />
   <path class="fil29" d="M24665 14605c58,-2 171,-2 229,-3 58,-1 61,-4 63,-8 1,-3 1,-9 1,-18 -1,-9 -2,-22 -3,-28 -1,-7 -1,-7 -59,-7 -58,1 -175,2 -233,2 -59,1 -59,1 -59,7 -1,6 -2,19 -3,31 0,13 0,26 2,29 1,3 4,-2 62,-5z"/>
   <path class="fil23" d="M24630 14476c-5,1 -11,4 -16,9 -5,4 -10,11 -14,18 -3,8 -5,16 -6,70 -2,54 -2,152 -1,205 1,52 3,59 6,65 2,6 6,12 11,17 6,4 14,6 28,8 15,1 37,2 83,2 46,0 117,-1 156,-1 38,0 45,-1 52,-3 8,-3 17,-7 23,-14 7,-6 11,-15 13,-23 2,-8 2,-15 2,-68 -1,-52 -2,-152 -4,-204 -2,-53 -4,-59 -8,-64 -4,-5 -9,-9 -16,-12 -6,-3 -12,-4 -15,-5 -4,-1 -4,-1 -4,-1 0,0 0,0 2,1 2,1 6,3 10,6 4,4 7,8 10,14 3,7 6,15 7,66 1,51 1,144 0,195 0,51 -2,60 -5,67 -2,7 -5,13 -11,17 -6,4 -15,5 -64,6 -48,0 -136,-1 -184,-2 -47,-1 -53,-3 -59,-7 -5,-3 -9,-9 -10,-59 -2,-51 -1,-146 0,-199 1,-54 3,-64 5,-72 2,-8 5,-14 9,-19 5,-6 10,-11 10,-14 1,-2 -5,-1 -10,1z"/>
   <rect class="fil23" x="24607" y="14591" width="349.993" height="23.4273"/>
   <rect class="fil23" x="24767" y="14592" width="19.509" height="265.561"/>
   <path class="fil29" d="M24086 14045c-8,-1 -17,-1 -33,0 -15,1 -37,2 -53,5 -15,3 -25,7 -29,11 -5,4 -5,9 -2,12 3,3 8,5 24,4 15,-1 42,-6 62,-12 20,-5 34,-11 39,-15 4,-3 -1,-5 -8,-5z"/>
   <path class="fil29" d="M23924 14065c-9,-1 -20,0 -31,1 -11,1 -21,2 -31,4 -11,2 -21,6 -28,10 -7,4 -11,9 -12,13 -1,4 2,7 6,10 5,2 11,3 23,3 11,0 27,-1 41,-3 14,-2 25,-5 34,-8 8,-4 14,-7 16,-11 3,-4 4,-7 1,-11 -3,-3 -10,-6 -19,-8z"/>
   <path class="fil29" d="M24785 14036c8,0 17,0 33,1 15,1 37,4 52,7 16,3 25,7 30,12 4,4 4,8 1,11 -3,4 -8,6 -24,4 -15,-2 -41,-7 -61,-13 -20,-6 -35,-13 -39,-17 -4,-3 1,-5 8,-5z"/>
   <path class="fil29" d="M24946 14061c9,-1 20,1 31,2 11,1 21,2 31,4 11,3 20,7 28,11 7,4 11,9 12,13 0,4 -2,8 -7,10 -5,2 -11,3 -22,3 -12,0 -28,-2 -42,-4 -13,-3 -25,-6 -33,-10 -9,-3 -14,-7 -17,-11 -2,-3 -3,-7 1,-11 3,-3 9,-6 18,-7z"/>
   <circle class="fil23" cx="24469" cy="15289" r="36"/>
   <circle class="fil23" cx="24471" cy="15116" r="36"/>
   <circle class="fil23" cx="24473" cy="14942" r="36"/>
   <circle class="fil23" cx="24475" cy="14768" r="36"/>
   <circle class="fil23" cx="24477" cy="14594" r="36"/>
   <circle class="fil23" cx="24479" cy="14421" r="36"/>
   <rect class="fil37" x="25503" y="14013" width="413.749" height="36.4333"/>
   <circle class="fil38" cx="25506" cy="14817" r="74"/>
   <path class="fil17 str4" d="M25813 14827c0,0 33,-33 7,-1 -59,72 36,-9 59,-21 -84,72 -43,43 37,4 56,-27 -28,5 -52,21 -135,90 79,-5 74,-29 -40,1 -126,100 -22,20 12,-9 53,-72 14,-40 -1,0 -128,109 -78,75 13,-9 74,-40 76,-42 -47,6 -119,105 -7,23 25,-18 -36,20 15,-3 29,-13 -26,-4 -25,7 39,0 55,-33 20,-11 -12,8 11,-1 -5,5 -18,6 54,6 76,-3 2,0 3,0 5,0"/>
   <path class="fil39" d="M23894 15399c0,-13 0,-21 0,-27 -1,-13 -1,-13 -29,-13l-101 0 -12 0c-28,0 -28,0 -29,50 0,49 -1,148 2,206 2,59 7,76 18,90 5,4 9,9 15,12 0,59 0,133 1,228 2,345 7,968 10,1280l2 230c42,-55 136,-92 244,-92 110,0 205,38 246,94 1,-33 3,-80 5,-146 6,-226 19,-678 29,-918 10,-240 16,-268 27,-292 10,-23 24,-41 46,-50 23,-10 52,-10 77,-1 25,8 44,25 56,54 11,29 13,69 15,311 2,242 3,686 4,907l0 140c40,-58 137,-99 250,-99 109,0 203,38 245,92l7 -213 39 -1226 3 -100c5,2 9,4 15,4 8,-1 17,-4 25,-8 8,-5 15,-12 20,-19 5,-8 9,-17 12,-33 3,-17 5,-41 5,-116 1,-76 1,-202 0,-270 -1,-68 -3,-76 -5,-84 -3,-8 -7,-15 -12,-20 -6,-5 -13,-7 -21,-9 -8,-2 -17,-4 -25,-4 -6,1 -12,3 -17,7 -1,0 -1,1 -2,2l-1 1c-5,6 -9,15 -11,24 -3,9 -3,18 -3,22 -1,5 -1,5 -8,6 -7,2 -21,6 -61,12 -40,5 -106,11 -140,15 -21,3 -30,4 -34,8 -26,2 -57,5 -90,6 -35,0 -73,-2 -105,-3 -33,0 -60,1 -106,0 -46,-1 -112,-3 -158,-5 -45,-2 -71,-4 -107,-7 -36,-3 -84,-7 -138,-14 -55,-8 -115,-18 -152,-24 -24,-4 -38,-6 -51,-8zm1157 487l0 0 0 22 0 -22z"/>
   <path class="fil36" d="M24988 17428c11,8 20,17 27,27l7 -213 39 -1226 3 -100c5,2 9,4 15,4 8,-1 17,-4 25,-8 4,-3 8,-5 11,-8 -1,-34 -2,-64 -3,-92 -10,-186 -38,-227 -54,-234 -16,-6 -20,22 -30,350 -10,329 -26,959 -35,1274 -2,108 -4,179 -5,226zm63 -1542l0 0 0 22 0 -22z"/>
   <path class="fil36" d="M24242 17435c7,7 14,14 19,22 1,-33 3,-80 5,-146 6,-226 19,-678 29,-918 10,-240 16,-268 27,-292 10,-23 24,-41 46,-50 23,-10 52,-10 77,-1 25,8 44,25 56,54 11,29 13,69 15,311 2,242 3,686 4,907l0 140c7,-9 14,-18 23,-26l1 -137c1,-210 4,-630 4,-863 0,-233 -3,-280 -10,-317 -6,-36 -18,-62 -35,-82 -17,-19 -41,-32 -67,-38 -26,-6 -55,-5 -78,4 -24,10 -43,28 -57,56 -13,27 -21,65 -27,132 -5,68 -9,166 -12,318 -4,152 -7,357 -11,527 -3,169 -7,303 -9,377l0 22z"/>
   <path class="fil36" d="M23738 15697c1,3 3,5 5,8 5,4 9,9 15,12 0,59 0,133 1,228 2,345 7,968 10,1280l2 230c5,-8 12,-15 20,-21l-2 -256c-2,-296 -5,-890 -8,-1197 -2,-307 -4,-328 -18,-323 -6,2 -15,9 -25,39z"/>
   <path class="fil31" d="M23901 15633c-3,7 -3,20 -6,34 -3,15 -8,32 -15,44 -7,12 -17,20 -26,25 -10,5 -20,6 -32,6 -12,0 -26,-2 -38,-5 -13,-2 -24,-5 -34,-11 -11,-5 -20,-12 -29,-52 -9,-40 -16,-112 -18,-170 -1,-59 4,-104 8,-127 3,-24 4,-25 35,-27 32,-1 93,-2 125,-1 32,0 36,3 36,17 1,13 -2,39 -3,52 -2,13 -2,13 19,13 20,1 60,3 86,6 25,3 36,7 42,16 7,8 8,20 10,44 1,23 2,58 1,80 -1,22 -3,30 -7,36 -4,6 -9,10 -33,11 -23,0 -65,-3 -89,-3 -23,0 -29,4 -32,12z"/>
   <path class="fil31" d="M24796 15463c1,-12 3,-14 37,-18 34,-4 100,-11 140,-16 41,-5 55,-9 62,-11 7,-2 7,-2 7,-6 1,-4 1,-13 3,-22 2,-9 6,-18 12,-24 5,-6 12,-9 20,-10 8,0 16,1 24,3 8,3 16,5 21,10 6,5 10,12 13,19 2,8 3,17 4,85 1,67 2,194 1,269 -1,76 -2,100 -5,117 -3,16 -7,25 -12,32 -5,8 -12,14 -20,19 -8,5 -17,8 -25,8 -8,0 -14,-2 -19,-5 -5,-4 -9,-8 -11,-49 -1,-41 -1,-119 -1,-159 0,-39 0,-39 -8,-39 -9,1 -26,2 -50,1 -24,-1 -54,-4 -79,-8 -24,-3 -42,-7 -57,-12 -15,-4 -27,-10 -35,-16 -9,-7 -15,-14 -18,-33 -3,-19 -3,-48 -4,-74 0,-26 -1,-49 0,-61z"/>
   <path class="fil40" d="M25117 15365c2,1 4,3 5,4 6,5 10,12 13,19 2,8 3,17 4,85 1,67 2,194 1,269 -1,76 -2,100 -5,117 -3,16 -7,25 -12,32 -4,5 -8,10 -13,14 0,-14 1,-34 1,-62 0,-97 1,-292 3,-396 1,-38 2,-64 3,-82z"/>
   <path class="fil31" d="M24261 15629l0 -173c0,0 -1,0 -2,0l-106 0c-16,0 -29,13 -29,30l0 113c0,17 13,30 29,30l106 0 2 0z"/>
   <path class="fil31" d="M24585 15454l0 175c1,0 2,0 2,0l106 0c17,0 30,-14 30,-32l0 -121c0,-40 -82,-22 -115,-22 -8,0 -15,0 -23,0z"/>
   <rect class="fil1" x="24261" y="15439" width="324" height="211"/>
   <rect class="fil31" x="24314" y="15486" width="224" height="114"/>
   <path class="fil41" d="M24838 17389c18,4 34,9 52,16 17,7 36,17 52,27 15,11 28,22 37,31 9,10 14,19 18,28 4,10 6,20 8,25 1,5 1,5 -19,5 -20,0 -60,0 -80,0 -20,0 -20,0 -20,0 0,0 0,0 0,-7 0,-6 -1,-20 -3,-35 -3,-15 -8,-32 -15,-45 -7,-13 -17,-22 -27,-30 -9,-7 -17,-14 -26,-18 -10,-4 -20,-6 -25,-8 -5,-1 -5,-1 4,1 9,2 27,6 44,10z"/>
   <path class="fil41" d="M24081 17389c18,4 34,9 52,16 17,7 36,17 51,27 16,11 29,22 38,31 8,10 14,19 18,28 3,10 6,20 7,25 2,5 2,5 -18,5 -20,0 -60,0 -80,0 -20,0 -20,0 -20,0 0,0 0,0 0,-7 -1,-6 -1,-20 -4,-35 -2,-15 -7,-32 -14,-45 -8,-13 -18,-22 -27,-30 -9,-7 -17,-14 -26,-18 -10,-4 -20,-6 -25,-8 -6,-1 -6,-1 4,1 9,2 27,6 44,10z"/>
   <path class="fil17 str5" d="M25462 14162l514 0m-514 245l514 0m-514 -31l514 0m-514 -31l514 0m-514 -30l514 0m-514 -31l514 0m-514 -30l514 0m-514 -31l514 0m-514 -30l514 0"/>
  </g>
  <g id="_2996847231312">
   <path class="fil42" d="M37927 16918c-23,42 -54,111 -81,154 -26,44 -47,62 -93,74 -47,12 -118,17 -1024,16 -905,-1 -2646,-9 -3524,-14 -877,-4 -892,-6 -902,-24 -11,-17 -17,-52 -28,-110 -10,-59 -25,-142 -31,-184 -6,-42 -3,-44 -310,-44 -306,0 -921,2 -1255,18 -333,17 -384,48 -409,90 -25,41 -24,93 -26,138 -2,44 -7,83 -20,104 -12,22 -32,27 -116,12 -84,-15 -231,-51 -327,-75 -96,-24 -141,-37 -178,-45 -37,-8 -66,-11 -90,-18 -25,-6 -45,-17 -58,-36 -14,-20 -22,-49 -17,-124 5,-74 24,-194 35,-288 11,-94 15,-163 24,-270 8,-108 21,-254 33,-349 11,-95 20,-138 33,-173 12,-35 28,-61 73,-104 46,-42 121,-100 224,-156 104,-57 236,-112 385,-163 148,-51 314,-97 469,-134 155,-38 299,-67 490,-95 192,-29 432,-56 745,-89 313,-33 699,-71 892,-91 193,-19 193,-19 193,-19 0,0 0,0 42,-35 42,-35 127,-104 264,-201 137,-97 326,-221 502,-324 175,-102 336,-184 472,-243 137,-60 249,-97 388,-133 139,-36 305,-72 494,-98 190,-26 404,-44 623,-55 219,-11 445,-16 653,-10 208,6 399,23 574,43 176,19 335,42 531,82 195,40 427,98 543,127 116,29 116,29 121,34 4,4 14,14 24,23 11,10 23,21 254,107 231,86 682,248 927,334 246,86 287,95 340,100 52,6 117,7 174,15 58,8 108,22 220,39 112,17 286,37 441,48 156,12 293,14 370,20 77,5 94,13 106,28 12,15 18,37 21,91 3,54 1,140 1,250 0,110 2,245 2,312 1,67 1,67 1,67 0,0 0,0 15,9 15,9 45,28 76,56 31,29 63,67 86,114 23,48 38,104 34,284 -3,180 -24,483 -38,638 -14,155 -20,161 -53,169 -32,8 -90,17 -338,19 -247,1 -685,-6 -1156,-5 -472,1 -978,9 -1279,13 -301,3 -398,3 -452,12 -55,9 -68,26 -90,69z"/>
   <polygon class="fil43" points="32981,16630 32973,16899 36017,16843 36096,16582 "/>
   <path class="fil44" d="M30282 16878c-5,5 -9,10 -12,16 -25,41 -24,93 -26,138 -2,44 -7,83 -20,104 -12,22 -32,27 -116,12 -84,-15 -231,-51 -327,-75 -96,-24 -141,-37 -178,-45 -37,-8 -66,-11 -90,-18 -25,-6 -45,-17 -58,-36 -14,-20 -22,-49 -17,-124 3,-35 8,-81 14,-129 67,1 141,6 220,11 170,11 361,26 466,32 106,6 125,3 136,50 3,17 6,39 8,64z"/>
   <path class="fil44" d="M41121 15402l0 71c1,67 1,67 1,67 0,0 0,0 15,9 15,9 45,28 76,56 31,29 63,67 86,114 23,48 38,104 34,284 -3,180 -24,483 -38,638 -14,155 -20,161 -53,169 -32,8 -90,17 -338,19 -225,1 -609,-5 -1033,-5 0,-17 1,-36 1,-57 2,-66 4,-149 -17,-242 -20,-94 -62,-198 -107,-286 -45,-89 -92,-161 -145,-226 -53,-64 -111,-121 -140,-149 -29,-29 -29,-29 69,-41 99,-13 295,-38 462,-69 166,-32 303,-70 397,-107 95,-37 146,-73 181,-109 35,-36 53,-73 62,-106 8,-34 7,-64 22,-78 15,-14 47,-11 138,-2 85,10 222,25 327,50z"/>
   <path class="fil4" d="M41325 16220c-2,37 -5,75 -7,113 -25,3 -51,4 -75,5 -45,2 -83,3 -114,-3 -31,-6 -55,-19 -70,-37 -16,-19 -24,-43 -28,-54 -4,-12 -4,-12 62,-15 55,-2 157,-6 232,-9z"/>
   <path class="fil45" d="M37927 16918c-23,42 -54,111 -81,154 -26,44 -47,62 -93,74 -47,12 -118,17 -1024,16 -905,-1 -2646,-9 -3524,-14 -877,-4 -892,-6 -902,-24 -11,-17 -17,-52 -28,-110l0 -2 0 -1 -1 -1 0 -1 0 -1 0 -1 0 -2 -1 0 0 -2 0 -1 0 -1 0 -1 0 0 -1 -2 0 -1 0 -1 0 -2 -1 0 0 -2 0 -1 0 -1 0 -1 -1 -1 0 -1 0 -2 0 0 0 -2 -1 -1 0 -1 0 -2 0 0 0 -2 -1 -1 0 -1 0 -2 0 -1 0 -1 -1 -2 0 0 0 -1 0 -2 -1 0 0 -2 0 -1 0 -1 -1 -2 0 0 0 -2 0 -1 0 -1 -1 -2 0 0 0 -2 0 -2 0 0 -1 -2 0 -1 0 -1 0 -2 0 0 -1 -2 0 -1 0 -1 0 -2 0 0 -1 -2 0 -1 0 -1 0 -2 0 -1 -1 -1 0 -2 0 0 0 -2 -1 -1 0 -1 0 -2 0 0 0 -2 -1 -1 0 -1 0 -2 0 0 0 -2 -1 -1 0 -1 0 -1 0 -2 0 0 -1 -2 0 -1 0 -1 0 -2 0 0 -1 -2 0 -1 0 -1 0 -2 0 0 -1 -2 0 -1 0 -1 0 -1c89,-7 314,-13 889,-29 946,-25 2838,-75 3790,-85 953,-9 966,21 979,68 5,21 10,44 16,69l0 1 -1 2z"/>
   <path class="fil46" d="M37832 17094c-21,29 -42,43 -79,52 -47,12 -118,17 -1024,16 -905,-1 -2646,-9 -3524,-14 -877,-4 -892,-6 -902,-24 -10,-16 -16,-46 -25,-96 78,-5 247,-7 618,-10 683,-7 2048,-20 2952,-32 903,-12 1346,-22 1602,-8 255,15 324,54 365,96 6,7 12,14 17,20z"/>
   <path class="fil42 str3" d="M30293 16868c-15,11 -25,26 -37,50 -7,13 -14,27 -22,43 -13,-48 -22,-97 -28,-147 -4,-39 -6,-78 -6,-117 0,-14 0,-28 1,-42 2,-43 5,-74 9,-102 7,-49 18,-90 32,-126 13,-36 28,-65 34,-50 5,14 1,74 4,155 2,81 12,185 13,278 0,20 0,39 0,58z"/>
   <path class="fil47" d="M29479 16996c-10,-5 -18,-13 -24,-22 -14,-20 -22,-49 -17,-124 5,-74 24,-194 35,-288l0 -2c21,-17 38,-28 57,-40 40,-26 89,-52 126,-66 37,-14 62,-15 86,-12 24,3 46,11 64,30 17,19 31,50 37,85 6,35 4,74 -2,110 -7,35 -19,67 -42,106 -23,39 -57,85 -90,118 -33,34 -65,55 -95,71 -29,16 -56,27 -135,34z"/>
   <path class="fil48" d="M29687 15624c44,-35 102,-75 173,-114 104,-57 236,-112 385,-163 148,-51 314,-97 469,-134 155,-38 299,-67 490,-95 192,-29 432,-56 745,-89 313,-33 699,-71 892,-91 193,-19 193,-19 193,-19 0,0 0,0 42,-35 42,-35 127,-104 264,-201 137,-97 326,-221 502,-324 175,-102 336,-184 472,-243 137,-60 249,-97 388,-133 139,-36 305,-72 494,-98 190,-26 404,-44 623,-55 219,-11 445,-16 653,-10 208,6 399,23 574,43 176,19 335,42 531,82 195,40 427,98 543,127 116,29 116,29 121,34 4,4 14,14 24,23 11,10 23,21 254,107 231,86 682,248 927,334 246,86 287,95 340,100 52,6 117,7 174,15 58,8 108,22 220,39 112,17 286,37 441,48 156,12 293,14 370,20 77,5 94,13 106,28 12,15 18,37 21,91 3,54 1,140 1,250 0,39 0,81 1,122 -119,-28 -244,-58 -360,-80 -177,-35 -329,-50 -935,-37 -607,13 -1666,55 -3545,142 -1879,87 -4578,219 -5927,285 -275,13 -494,24 -666,31z"/>
   <path class="fil49" d="M33059 14899l17 -15c42,-35 127,-104 264,-201 137,-97 326,-221 502,-324 175,-102 336,-184 472,-243 84,-37 160,-65 237,-90 14,8 21,18 21,32 1,15 -8,35 -59,72 -51,36 -144,90 -275,161 -131,70 -300,159 -457,248 -156,90 -300,181 -398,241 -97,60 -147,90 -187,106 -41,16 -72,18 -110,15 -9,0 -18,-1 -27,-2z"/>
   <path class="fil50" d="M29737 15923c-15,24 -33,46 -51,69 -18,22 -38,45 -54,61 -16,15 -29,23 -40,26 -11,3 -21,0 -27,-10 -6,-10 -9,-27 -7,-65 2,-38 10,-96 17,-135 6,-38 12,-57 20,-72 8,-15 19,-26 35,-33 17,-8 38,-12 58,-13 20,-1 39,1 53,5 14,3 22,9 27,24 6,16 8,43 2,68 -5,26 -17,51 -33,75z"/>
   <path class="fil51" d="M39048 15225c-701,41 -1824,107 -3176,165 -1352,58 -2933,108 -3723,133 -791,25 -791,25 -791,25 0,0 0,0 374,-21 374,-21 1123,-63 2028,-117 905,-54 1967,-120 2874,-168 906,-47 1657,-76 2244,-88 586,-12 1008,-7 1219,-4 211,3 211,3 211,3 0,0 0,0 -140,8 -140,7 -419,23 -1120,64z"/>
   <path class="fil52" d="M30028 15965c112,-77 286,-204 373,-267 87,-63 87,-63 87,-63 0,0 0,0 -34,-2 -34,-2 -103,-6 -179,-3 -75,2 -158,11 -237,29 -78,18 -152,44 -207,69 -54,24 -90,47 -115,71 -25,24 -39,51 -49,87 -9,36 -13,82 -11,117 2,35 10,59 37,73 27,13 73,17 122,6 49,-12 100,-40 213,-117z"/>
   <path class="fil47" d="M37682 14893c-366,15 -795,30 -1259,50 -465,20 -965,44 -1517,71 -552,27 -1156,57 -1452,65 -297,9 -286,-4 -236,-40 51,-37 142,-96 188,-126 45,-29 45,-29 48,-38 2,-10 8,-28 21,-49 13,-21 34,-45 60,-65 27,-19 58,-35 86,-46 28,-10 51,-16 76,-20 24,-5 49,-9 62,-11 12,-2 12,-2 12,-2 0,0 0,0 69,-45 70,-44 208,-134 342,-214 133,-79 262,-149 376,-205 113,-55 211,-96 309,-129 98,-34 197,-60 316,-78 119,-18 259,-27 404,-33 145,-6 295,-9 456,-7 162,2 335,9 470,15 135,7 232,14 367,30 134,17 305,43 461,71 157,27 298,56 456,96 158,41 333,92 485,141 151,49 279,95 374,133 95,38 157,68 199,96 43,28 67,53 79,77 12,25 12,48 4,75 -8,26 -24,55 -44,78 -21,23 -46,40 -86,51 -40,10 -96,14 -275,23 -180,8 -485,22 -851,36z"/>
   <path class="fil53 str3" d="M36864 14373c-33,123 -81,297 -104,384 -24,87 -24,87 -24,87 0,0 0,0 290,-8 291,-9 872,-26 1194,-42 321,-16 383,-30 421,-47 37,-17 50,-37 48,-63 -3,-26 -21,-57 -80,-95 -59,-37 -157,-81 -298,-133 -141,-53 -325,-115 -561,-175 -237,-60 -527,-118 -671,-147 -145,-29 -145,-29 -145,-29 0,0 0,0 -10,36 -9,37 -27,109 -60,232z"/>
   <path class="fil53 str3" d="M36717 14301c-35,127 -93,335 -122,439 -29,104 -29,104 -29,104 0,0 0,0 0,0 0,0 0,0 -179,10 -178,10 -535,30 -982,54 -447,25 -983,54 -1251,68 -268,15 -268,15 -268,15 0,0 0,0 4,-32 5,-32 14,-95 16,-140 1,-45 -6,-71 -20,-87 -13,-17 -34,-23 -45,-27 -11,-3 -11,-3 -11,-3 0,0 0,0 54,-34 53,-33 160,-100 272,-165 112,-65 229,-126 344,-182 114,-56 226,-107 340,-145 114,-38 230,-64 361,-85 130,-20 275,-35 443,-43 168,-7 359,-9 552,-2 192,6 386,21 483,28 96,7 96,7 96,7 0,0 0,0 -5,23 -6,23 -18,70 -53,197z"/>
   <path class="fil49" d="M39562 14565c230,83 241,90 245,97 2,3 2,7 1,10 -8,0 -15,-1 -22,-2 -53,-5 -94,-14 -340,-100 -245,-86 -696,-248 -927,-334 -231,-86 -243,-97 -254,-107 -2,-2 -5,-4 -7,-6 11,0 26,2 52,7 30,7 77,20 325,106 248,86 697,245 927,329z"/>
   <path class="fil4" d="M41119 15119l0 42c0,110 2,245 2,312 1,67 1,67 1,67l1 1c-21,9 -46,11 -75,12 -57,1 -124,0 -192,-14 -68,-14 -136,-40 -209,-90 -73,-50 -151,-124 -194,-172 -43,-48 -51,-70 -44,-93 7,-22 28,-45 69,-68 42,-24 104,-49 168,-65 63,-16 129,-22 189,-22 59,0 112,6 153,18 42,11 72,27 100,45 11,7 21,15 31,27z"/>
   <path class="fil47" d="M38904 15662c571,0 1034,463 1034,1034 0,43 -3,86 -8,128 -42,0 -85,0 -127,0 5,-42 8,-84 8,-128 0,-501 -406,-907 -907,-907 -466,0 -850,352 -901,805 17,57 31,144 33,192 3,56 -10,59 -23,62l-3 1 0 1c-7,1 -13,3 -19,5 -5,1 -9,3 -13,5 -10,5 -18,11 -25,20 -8,8 -15,19 -26,39 -10,19 -23,47 -40,78 -17,31 -37,66 -47,83 -10,17 -10,17 -10,17 0,0 0,0 3,-37 3,-38 10,-113 16,-186 7,-73 14,-144 19,-191 1,-16 3,-30 4,-41 28,-546 479,-980 1032,-980z"/>
   <g>
    <path class="fil54 str3" d="M38904 15789c-501,0 -907,406 -907,907 0,501 406,907 907,907 501,0 907,-406 907,-907 0,-501 -406,-907 -907,-907zm603 1019c-61,7 -176,10 -356,15 -181,5 -427,13 -588,17 -161,4 -236,4 -273,4 -38,0 -38,0 -38,0 0,0 0,0 5,11 4,12 14,34 32,73 18,40 46,97 78,143 33,47 70,84 114,118 44,35 95,66 140,89 45,23 83,38 132,47 50,9 111,13 159,15 49,1 86,0 136,-11 50,-11 113,-30 172,-59 59,-29 113,-67 162,-125 49,-57 94,-134 127,-198 33,-65 54,-117 61,-138 6,-20 -2,-8 -63,-1z"/>
    <circle class="fil55" cx="38895" cy="16687" r="474"/>
    <circle class="fil18 str3" cx="38904" cy="16696" r="107"/>
    <path class="fil56" d="M38904 15998c-385,0 -697,313 -697,698 0,385 312,698 697,698 386,0 698,-313 698,-698 0,-385 -312,-698 -698,-698zm0 493c-13,0 -26,1 -39,3l-15 -426c18,-2 36,-2 54,-2 14,0 28,0 42,1l-4 427c-12,-2 -25,-3 -38,-3zm-68 11c-46,16 -84,48 -108,89l-366 -216c84,-142 222,-248 386,-290l88 417zm-123 117c-8,21 -13,43 -14,66l-416 -94c7,-47 20,-91 38,-134l392 162zm-13 104c6,43 25,82 53,112l-312 289c-104,-112 -167,-263 -167,-428 0,-9 0,-18 0,-27l426 54zm76 134c17,13 36,24 56,32l-227 362c-35,-19 -68,-41 -98,-65l269 -329zm84 40c14,3 29,5 44,5 24,0 46,-4 67,-11l190 381c-79,35 -165,55 -257,55 -83,0 -162,-16 -234,-45l190 -385zm136 -17c19,-9 36,-22 51,-36l282 318c-32,29 -67,55 -104,77l-229 -359zm75 -63c23,-32 38,-72 39,-115l424 -45c0,13 1,26 1,39 0,162 -61,310 -162,422l-302 -301zm37 -148c-3,-24 -11,-47 -22,-69l405 -136c13,34 24,69 31,106l-414 99zm-39 -96c-24,-31 -56,-56 -93,-70l64 -423c174,38 321,148 409,298l-380 195z"/>
    <circle class="fil57" cx="38901" cy="16693" r="107"/>
   </g>
   <path class="fil47" d="M31233 15663c571,0 1034,463 1034,1034 0,33 -1,66 -5,99l-1 27c-2,25 -3,50 -4,63 0,12 0,12 0,12l-3 -1 0 6c0,0 0,0 -30,-3 -31,-3 -91,-8 -173,-15 -82,-8 -185,-17 -289,-23 -104,-6 -209,-8 -353,-3 -145,5 -328,18 -469,40 -141,22 -240,52 -322,79 -82,26 -148,48 -209,73 -61,25 -116,53 -148,72 -20,11 -32,19 -39,22 -5,4 -9,7 -13,9 -5,3 -9,3 -10,1 -2,0 -4,1 -6,1 0,-10 0,-22 0,-36 1,-82 2,-245 4,-354 1,-45 2,-81 4,-111 21,-551 475,-992 1032,-992zm897 896c-66,-436 -442,-770 -897,-770 -487,0 -885,385 -906,867 46,-61 125,-104 319,-129 211,-28 558,-36 836,-28 279,7 490,29 607,52 15,3 29,6 41,8z"/>
   <g>
    <path class="fil54" d="M31233 15780c-501,0 -907,406 -907,908 0,501 406,907 907,907 502,0 908,-406 908,-907 0,-502 -406,-908 -908,-908zm603 1019c-61,8 -175,10 -356,16 -181,5 -427,13 -588,17 -160,4 -236,4 -273,4 -38,0 -38,0 -38,0 0,0 0,0 5,11 5,11 14,33 32,73 19,39 46,96 79,143 32,47 69,84 113,118 44,34 95,66 140,89 45,23 83,37 133,47 49,9 110,13 158,14 49,1 86,0 136,-11 50,-10 114,-30 172,-59 59,-29 113,-67 162,-124 50,-58 94,-134 127,-199 33,-64 54,-117 61,-137 7,-21 -1,-9 -63,-2z"/>
    <circle class="fil55" cx="31224" cy="16678" r="474"/>
    <circle class="fil18" cx="31233" cy="16688" r="107"/>
    <path class="fil56" d="M31233 15990c-385,0 -697,312 -697,698 0,385 312,697 697,697 386,0 698,-312 698,-697 0,-386 -312,-698 -698,-698zm0 492c-13,0 -26,1 -39,4l-15 -427c18,-1 36,-2 54,-2 14,0 28,1 42,1l-4 427c-12,-2 -25,-3 -38,-3zm-68 12c-46,16 -84,48 -108,89l-366 -216c84,-143 222,-249 386,-290l88 417zm-122 117c-8,20 -13,42 -15,65l-416 -94c8,-46 20,-91 38,-133l393 162zm-13 103c5,44 24,82 52,113l-311 289c-104,-113 -168,-263 -168,-428 0,-10 0,-19 1,-28l426 54zm75 134c17,14 36,25 56,32l-227 363c-35,-19 -67,-41 -98,-66l269 -329zm84 40c15,3 29,5 44,5 24,0 46,-4 67,-11l190 382c-78,35 -165,54 -257,54 -82,0 -162,-16 -234,-45l190 -385zm136 -17c19,-9 37,-21 52,-36l281 319c-32,29 -67,55 -104,77l-229 -360zm75 -63c23,-32 38,-72 39,-114l424 -45c1,13 1,26 1,39 0,162 -61,309 -162,421l-302 -301zm37 -147c-3,-25 -10,-48 -22,-69l405 -136c13,34 24,69 31,105l-414 100zm-39 -97c-23,-31 -56,-55 -93,-69l64 -423c174,38 321,148 409,297l-380 195z"/>
    <circle class="fil57" cx="31231" cy="16685" r="107"/>
   </g>
   <path class="fil46" d="M35887 15227c8,20 13,42 14,69 2,27 -1,59 -15,83 -15,25 -41,42 -85,52 -45,10 -107,12 -159,0 -53,-12 -96,-38 -123,-63 -26,-25 -35,-49 -31,-69 4,-21 21,-38 69,-59 49,-21 130,-46 185,-58 55,-12 86,-10 106,-1 20,9 31,26 39,46z"/>
   <path class="fil58" d="M35936 15339c-110,13 -327,19 -442,17 -116,-1 -129,-9 -134,-20 -5,-10 -3,-23 6,-34 10,-12 25,-21 128,-33 102,-13 290,-29 395,-34 106,-5 128,0 141,10 14,10 18,24 18,42 1,18 -2,39 -112,52z"/>
  </g>
  <rect class="fil59" x="3924" y="13526" width="156" height="4071"/>
  <rect class="fil59" x="8171" y="13542" width="156" height="4054"/>
  <polygon class="fil60" points="48794,19545 39,19545 39,17691 48794,17691 "/>
  <path class="fil58" style="mask:url(#id0)" d="M30401 15700c-109,75 -279,207 -401,286 -122,78 -196,102 -415,207 -220,106 -585,293 -1083,481 -498,187 -1127,374 -1627,487 -499,113 -869,151 -1054,170 -185,19 -185,19 -185,19 0,0 0,0 0,0 0,0 0,0 0,-434 0,-433 0,-1301 0,-1734 0,-434 0,-434 0,-434 0,0 0,0 828,140 828,141 2484,422 3289,571 804,149 757,167 648,241z"/>
  <path class="fil61" d="M44573 17816c-2,0 -4,0 -4,0 0,0 2,0 4,0zm-533 -2482c-69,96 -101,236 -58,432 0,0 117,417 576,243 0,0 44,51 122,95 53,92 133,217 185,248 84,50 325,163 325,163 0,0 55,318 -19,710 -56,298 -439,413 -460,415 35,-3 937,-101 1313,29 0,0 -314,-236 -370,-421 -56,-185 -127,-571 -88,-762 0,0 292,-112 376,-207 70,-79 307,-518 387,-667 437,149 550,-252 550,-252 91,-421 -161,-584 -382,-603 -25,-365 -474,-480 -474,-480 98,-496 -423,-875 -924,-733 -501,142 -438,651 -438,651 0,0 -655,22 -737,553 -45,292 35,478 116,586zm722 808c88,30 200,40 331,-10 0,0 52,30 132,52 17,83 51,166 117,230 0,0 -323,-40 -418,-102 -44,-28 -106,-100 -162,-170zm561 60c145,15 331,-21 477,-238 12,-18 23,-35 33,-54l61 321c-49,37 -286,138 -384,138 -56,0 -132,-57 -187,-167zm539 -353c13,-30 24,-60 33,-91 232,26 383,-128 405,-152 -85,138 -274,439 -360,566l-78 -323z"/>
  <path class="fil62" d="M42336 13809c0,0 264,498 504,710 240,211 592,475 634,815 43,341 0,1581 -338,2342 0,0 564,-169 1029,0 0,0 -352,-1184 -310,-1818 42,-634 28,-1114 465,-1424 437,-310 1170,-451 1170,-451l0 -77c0,0 -535,84 -535,35 0,-49 35,-719 35,-719l-64 0c0,0 -49,585 -126,677 -78,91 -712,373 -874,669 0,0 -50,-550 -64,-867 -14,-317 21,-979 85,-1191 63,-211 373,-768 373,-768l-77 -35c0,0 -374,768 -473,789 -98,21 -528,-853 -528,-853l-71 35c0,0 374,797 437,1107 64,310 -7,1832 -49,1988 -42,155 -810,-582 -867,-1130l-56 0c0,0 150,568 147,614 -6,84 -390,-498 -390,-498l-57 50z"/>
  <path class="fil63" d="M43526 15012c0,0 167,205 160,663 -7,458 -49,1762 -49,1762 0,0 -240,50 -360,120 0,0 202,-712 249,-1192 47,-479 76,-1141 -44,-1318l44 -63 0 28z"/>
  <path class="fil64" d="M41924 12376c-404,24 -696,0 -1015,357 -320,357 -291,884 141,1119 432,235 1363,216 1861,0 498,-217 645,-402 610,-724 -37,-348 -187,-836 -1597,-752z"/>
  <path class="fil65" d="M40975 13607c-100,-87 -172,-435 37,-719 174,-235 484,-352 771,-376 287,-23 902,-37 935,80 33,118 -71,188 -479,188 -409,0 -762,-4 -982,315 -152,219 -52,714 -282,512z"/>
  <path class="fil66" d="M43817 10135c-631,100 -1390,291 -1794,620 -405,329 -395,1127 -76,1363 320,235 1020,57 1501,-122 482,-179 905,216 1525,197 621,-19 715,-282 724,-555 9,-272 141,-319 0,-545 -141,-225 -282,-498 -489,-648 -206,-150 -690,-421 -1391,-310z"/>
  <path class="fil67" d="M42751 10511c173,-53 817,-263 1311,-273 493,-9 1151,226 1259,573 108,348 -183,235 -258,141 -76,-94 -517,-451 -874,-469 -357,-19 -1260,207 -1401,160 -141,-48 -145,-99 -37,-132z"/>
  <path class="fil64" d="M44128 12980c-47,-177 -29,-555 357,-611 385,-56 705,-122 1024,-263 320,-141 855,28 1062,583 207,554 56,1466 -583,1616 -639,150 -667,-446 -761,-561 -94,-116 -953,-210 -1099,-764z"/>
  <path class="fil65" d="M45565 12231c189,-92 724,84 874,436 151,353 108,917 0,950 -108,33 -141,-631 -211,-794 -146,-343 -836,-508 -663,-592z"/>
  <g id="_2996556704512">
   <path class="fil58" d="M3021 9386l6343 0c225,0 408,184 408,408l0 3966c0,224 -183,407 -408,407l-6343 0c-225,0 -408,-183 -408,-407l0 -3966c0,-224 183,-408 408,-408z"/>
   <rect class="fil68" x="2760" y="9534" width="6865" height="4487" rx="261" ry="261"/>
   <g>
    <path class="fil69" d="M8160 13525c0,23 3,34 9,54 3,8 11,23 15,30 1,1 2,2 3,4l18 26c4,5 7,10 12,14 0,1 0,1 1,2l11 12c7,6 14,12 20,18 5,4 10,7 15,11l11 8c1,1 2,2 3,3l30 19c4,3 42,24 43,24 1,0 10,-5 12,-6l15 -8c1,-1 1,-1 2,-1 4,-3 17,-10 20,-12l40 -31c1,-1 2,-2 3,-3 1,0 1,0 2,-1l8 -8c2,-1 4,-3 5,-5l5 -4c3,-3 6,-5 8,-8 1,-1 1,-1 2,-2l14 -15c3,-3 6,-7 8,-11l7 -9c1,-1 2,-2 3,-3 5,-8 10,-16 15,-24 1,-2 1,-3 2,-4l2 -5c2,-2 3,-5 4,-8l2 -5c1,-5 3,-10 4,-15 3,-14 5,-23 5,-39 0,-8 -2,-17 -3,-24 -1,-4 -2,-8 -3,-11 0,-2 -1,-3 -2,-5 -1,-5 -4,-9 -6,-14 -2,-5 -6,-11 -9,-15 0,-1 -1,-1 -1,-2 -1,-1 -2,-2 -3,-4 -1,0 -1,-1 -2,-1l-5 -6c-10,-10 -24,-18 -38,-22l-5 -2c-2,-1 -4,-1 -6,-1 -6,-2 -16,-4 -23,-4 -13,0 -30,4 -41,10l-27 19c-1,0 -1,0 -1,1l-6 5c-1,1 -1,1 -2,2 -3,3 -7,8 -11,11l-14 -18 -12 -11c-4,-3 -7,-6 -11,-8 -1,0 -2,-1 -3,-1 -1,-1 -1,-1 -2,-2 -1,0 -2,-1 -3,-1 -8,-3 -10,-4 -18,-6 -8,-2 -19,-2 -28,0 -5,0 -11,2 -16,3 -9,3 -17,6 -25,10 -2,1 -3,2 -4,3 -10,5 -23,17 -29,27 -9,14 -11,21 -16,38 -1,2 -1,4 -1,6 -2,7 -3,15 -3,25z"/>
    <path class="fil69" d="M8574 13437c0,5 2,9 4,13 3,4 4,6 8,8 14,5 43,-3 49,8 2,3 2,15 2,19 0,3 0,4 0,7l0 36c0,6 0,11 0,17 0,2 0,1 0,3 0,1 0,1 0,3 0,1 0,3 0,5 0,2 0,3 0,6 0,2 -1,3 -1,5 0,2 0,4 0,6 0,2 0,3 0,6 0,2 0,3 0,5 0,4 1,8 1,12l-1 48c0,7 1,13 0,20 0,2 0,4 0,6 -2,9 -6,11 -14,14 -1,0 -4,1 -6,1 -3,0 -6,0 -9,0 -4,-1 -7,-2 -11,-2 -9,0 -19,5 -22,14 -1,3 -2,7 -2,11 0,9 5,17 13,20 12,4 28,-1 39,0 6,1 11,0 17,0 17,0 35,-1 52,1l21 1c3,0 6,0 10,0 3,1 12,-1 15,-2 5,-3 11,-11 11,-18 0,-8 -1,-13 -7,-18 -2,-3 -5,-4 -8,-5 -11,-4 -22,0 -32,-2 -5,0 -12,-2 -14,-7 -5,-10 -3,-23 -3,-34 0,-2 0,-4 0,-6 0,-9 -1,-17 -1,-27 0,-5 0,-35 1,-39 0,-4 -1,-10 0,-15 0,-5 1,-12 0,-16 -1,-9 0,-31 0,-40 0,-5 -1,-9 -1,-15 0,-2 1,-4 1,-6 2,1 2,2 3,3l13 31c0,1 0,1 1,2l2 6c1,2 2,3 2,5l19 43c1,4 3,10 5,14 1,2 3,5 4,8 3,8 7,18 11,26 1,2 1,3 2,4l4 9c0,1 1,3 2,4 0,2 1,3 1,4 1,2 2,3 2,5l15 38c4,7 7,15 11,23 5,9 7,15 15,22 1,1 3,2 4,2 15,10 34,10 49,0 2,-1 4,-3 5,-4 6,-6 9,-14 11,-23 2,-8 1,-18 1,-27 0,-2 -1,-2 -1,-4 0,-6 1,-12 1,-18 0,-7 -1,-13 -1,-20 0,-2 1,-2 1,-4l0 -10c0,-6 -1,-15 0,-20 1,-7 1,-15 1,-22 0,-3 -1,-5 -1,-8 0,-5 1,-9 1,-14 0,-11 -1,-20 -1,-31 0,-5 1,-11 0,-16 0,-2 1,-2 1,-4 0,-1 0,-3 0,-4 0,-2 0,-2 0,-4l0 -6c0,-8 -3,-19 5,-25 9,-5 28,-2 38,-3 4,-1 5,-1 9,-3 11,-4 18,-20 10,-34 -3,-4 -7,-7 -12,-9 -8,-3 -28,-2 -37,-1 -1,1 -2,1 -4,1l-20 0c-5,0 -10,2 -16,1 -7,-1 -16,0 -23,-1 -3,0 -5,-1 -8,-1 -8,0 -8,-1 -15,-1 -3,0 -6,1 -8,0 -6,-1 -17,1 -22,3 -2,1 -3,2 -5,3 -3,3 -5,6 -7,10 -1,5 -2,14 1,19 1,1 2,2 4,3 20,16 34,5 50,9 12,4 11,19 11,30 0,2 -1,2 -1,4 0,3 1,5 1,8l0 13c0,2 0,2 0,4 0,6 0,11 0,17 0,9 -2,20 0,30 0,4 -1,9 -1,14 0,2 0,4 0,6 0,3 0,5 0,7 0,2 0,2 0,4 0,1 0,2 0,3l0 11c0,4 0,7 0,11 0,3 0,7 -1,10 -1,6 0,22 0,27l-16 -37c-1,-2 -2,-3 -2,-4 -1,-2 -1,-3 -2,-4 -3,-6 -6,-11 -8,-17l-16 -39c-1,-3 -3,-5 -4,-8 -1,-3 -2,-5 -4,-8 0,-2 0,-4 -1,-5 -2,-6 -4,-12 -7,-17 -4,-9 -10,-20 -13,-30 -3,-8 -9,-21 -13,-29 0,-1 -1,-1 -1,-2l-8 -19c-3,-5 -5,-9 -9,-13 -2,-3 -5,-5 -8,-7 -5,-4 -11,-6 -18,-7l-17 0c-3,0 -6,0 -9,0l-13 0c-4,0 -9,1 -13,0 -4,0 -9,0 -13,0 -2,0 -3,0 -5,0 -3,0 -6,0 -9,0 -8,0 -10,-2 -19,1 -3,1 -6,3 -8,4 -2,1 -3,2 -3,4 -1,1 -2,2 -3,4 -1,3 -2,5 -2,10z"/>
    <path class="fil69" d="M9005 13417c-7,0 -12,0 -19,0 -5,0 -13,-1 -20,-1 -7,0 -14,1 -19,4 -6,5 -9,14 -8,22 1,12 10,20 23,20 8,0 16,-1 24,-1 2,0 2,1 4,1 4,0 8,1 12,2 3,1 6,3 8,5 2,1 4,3 5,4l13 20c2,2 3,4 4,6 1,2 2,3 4,5 2,4 5,7 7,11 4,6 7,12 10,18 1,0 1,1 2,2 1,1 1,2 2,3l11 17c0,1 1,2 1,3 6,8 12,20 18,29l5 8c3,3 12,19 12,21 1,5 0,9 0,14l-1 39c0,1 0,3 -1,4 0,2 -1,4 -1,5 -2,2 -3,4 -6,5 -5,3 -12,4 -19,4 -9,0 -12,-3 -22,0 -2,1 -5,3 -7,4 -9,7 -9,16 -5,25 2,7 12,15 20,15 10,0 21,0 30,-2 6,-1 13,-1 19,0l36 -1 17 1c3,0 7,1 10,1 4,0 7,1 11,1 14,0 26,1 32,-14 5,-9 4,-21 -5,-27 -17,-12 -37,2 -51,-6 -3,-2 -6,-7 -7,-11 0,-4 0,-17 0,-22l0 -17c0,-5 0,-11 1,-16 0,-4 0,-4 1,-7 2,-4 5,-7 7,-11l26 -43c2,-2 3,-4 4,-5 1,-2 2,-4 3,-6 9,-14 18,-28 27,-43 6,-12 12,-22 21,-32 3,-3 7,-5 11,-6 6,-1 11,-2 17,-2 14,0 27,3 37,-5 2,-1 3,-3 4,-5 4,-8 5,-16 2,-24 -5,-11 -16,-13 -29,-13 -6,0 -12,1 -18,1 -6,1 -12,2 -18,2l-54 0c-12,0 -25,-3 -37,-2 -9,2 -15,5 -18,13 -1,3 -2,6 -2,10 0,11 9,20 18,22 16,2 11,0 24,0 2,0 6,2 6,4 0,2 -2,5 -3,7 -1,2 -2,4 -4,6 0,1 -1,2 -1,3l-45 76c0,2 -1,2 -2,3 0,2 -3,6 -4,6 -2,-1 -7,-11 -9,-15 -6,-10 -12,-21 -18,-31l-13 -22c0,-1 -1,-2 -1,-3 -1,-1 -2,-2 -2,-4l-8 -12c-1,-2 -2,-4 -3,-6 -2,-2 -3,-4 -3,-7 0,-4 3,-5 7,-5 3,0 6,1 10,0 12,0 19,-1 25,-12 4,-5 4,-15 1,-21 -3,-6 -6,-10 -13,-12 -11,-3 -21,0 -33,0 -4,0 -7,0 -10,0l-53 0z"/>
    <path class="fil69" d="M8037 13416l-26 -1c-3,0 -4,0 -7,0 -3,0 -5,0 -8,0 -2,0 -2,0 -3,0 -1,0 -3,0 -4,0 -3,0 -5,0 -8,0 -1,0 -2,-1 -3,-1 -2,0 -3,1 -4,0 -9,-1 -20,0 -27,6 -2,2 -3,3 -5,7 -3,7 -3,17 2,24 1,1 2,2 3,3 2,2 5,4 8,5 13,5 29,-2 43,3 11,3 9,17 9,26 0,6 0,11 0,17 0,3 0,5 0,8 0,3 0,5 0,8l1 73c0,2 0,3 0,5 0,2 0,6 0,8 1,9 0,18 0,27 0,1 0,2 0,4 0,2 0,3 0,5 1,10 3,28 -3,36 -8,10 -25,5 -39,6 -4,1 -9,2 -13,4 -2,1 -3,3 -4,4 -5,7 -6,17 -3,25 4,8 12,12 22,12 4,0 7,0 11,-1 2,0 3,0 4,0 2,0 2,0 4,0 1,0 3,0 4,0 1,0 2,0 4,0l7 -1c2,0 2,0 4,0 2,0 5,-1 8,-1 5,0 10,0 15,0l18 1c4,0 23,0 27,0l7 0c3,0 4,1 7,1 6,0 12,0 17,-1 6,-1 8,-3 12,-7 1,-1 1,-2 2,-4 3,-6 3,-13 0,-19 -1,-2 -3,-5 -5,-7 -1,-1 -2,-1 -3,-2 -8,-5 -21,-3 -30,-2 -2,0 -3,-1 -6,-1 -5,0 -12,-2 -14,-8 -3,-6 -4,-12 -4,-19 0,-2 0,-3 0,-5 1,-15 0,-23 0,-37 0,-4 1,-7 1,-11 0,-6 0,-19 -1,-25 -1,-8 0,-13 0,-20 -1,-9 -1,-23 -1,-32 0,-4 0,-6 0,-10 0,-4 0,-7 0,-11 0,-7 -1,-13 -1,-21 0,-9 -2,-23 10,-26 10,-3 22,1 36,-2 4,0 7,-2 9,-4l3 -3c11,-11 5,-34 -11,-38 -1,0 -3,0 -4,-1 -3,0 -5,0 -9,0 -5,1 -9,1 -14,1l-14 1c-1,0 -3,0 -5,0 -6,1 -13,1 -19,1z"/>
   </g>
   <path class="fil70" d="M4595 10497c0,-7 1,-17 4,-30 3,-13 7,-23 13,-30 13,-19 25,-36 36,-52 12,-16 21,-29 30,-41 9,-11 17,-21 26,-30 53,-57 91,-100 113,-128 23,-28 35,-48 35,-59 0,-8 -4,-13 -11,-18 -6,-4 -15,-6 -26,-6 -23,0 -52,8 -87,24 -34,17 -74,38 -121,63 -46,26 -72,39 -77,39 -8,0 -12,-6 -12,-18 0,-10 3,-24 9,-43 5,-20 9,-36 13,-47 3,-12 8,-22 15,-31 7,-9 19,-19 36,-29 17,-11 43,-25 78,-43l4 17c29,-12 57,-21 82,-27 26,-6 48,-9 66,-9 36,0 62,6 76,18 15,12 23,39 23,80 0,22 -3,40 -10,55 -6,15 -19,36 -38,62 -43,63 -75,106 -96,130 -63,72 -94,113 -94,125 0,7 4,11 13,11 8,0 18,-6 32,-16 13,-11 30,-26 49,-46 19,-19 45,-47 79,-84 36,-39 67,-73 92,-103 24,-30 45,-55 61,-77 16,-21 25,-32 25,-34 17,-20 34,-37 52,-50 18,-13 29,-20 34,-20 4,0 8,4 13,10 5,7 9,15 13,25 3,9 5,16 5,21 0,1 -3,9 -11,22 -7,14 -15,28 -24,42 -9,14 -22,36 -42,66 -42,65 -74,120 -96,164 -22,44 -33,73 -33,87 0,5 1,10 5,14 3,4 7,6 11,6 5,0 14,-4 27,-12 13,-7 27,-19 43,-33 20,-20 39,-41 56,-62 17,-21 34,-45 51,-71 16,-27 31,-51 44,-75 13,-23 26,-48 40,-74l-8 -24c-1,-3 -2,-8 -2,-14 0,-5 9,-20 27,-45 18,-26 30,-38 36,-38 7,0 12,4 17,14 4,9 6,19 6,28 0,11 -5,32 -14,63 -9,31 -24,69 -44,114 -20,44 -44,89 -73,135 -26,41 -53,75 -82,103 -29,29 -55,50 -78,64 -23,14 -40,21 -51,21 -13,0 -26,-6 -40,-17 -11,-10 -20,-19 -24,-27 -5,-8 -8,-16 -10,-25 -1,-10 -2,-20 -2,-33 0,-26 7,-57 22,-92 14,-35 36,-79 64,-131 -89,109 -159,188 -208,238 -49,50 -85,75 -108,75 -15,0 -28,-9 -39,-27 -10,-18 -15,-40 -15,-65z"/>
   <path id="1" class="fil70" d="M5309 10442l0 12c0,18 4,32 13,43 9,10 21,15 36,15 15,0 30,-4 47,-11 16,-7 32,-16 48,-28 16,-12 36,-28 59,-47l0 28c-35,42 -68,74 -98,96 -31,23 -62,34 -94,34 -27,0 -49,-11 -65,-32 -16,-21 -24,-50 -24,-88 0,-32 8,-61 23,-88 15,-26 40,-54 74,-83 23,-20 47,-35 70,-46 23,-10 44,-15 62,-15 14,0 26,3 34,10 9,7 13,17 13,30 0,19 -7,39 -22,58 -14,19 -36,39 -66,58 -30,19 -67,37 -110,54zm5 -30c27,-10 51,-24 71,-40 20,-16 34,-31 44,-46 9,-15 14,-25 14,-32 0,-7 -4,-11 -10,-11 -6,0 -15,4 -27,11 -13,7 -25,16 -38,28 -13,11 -24,25 -35,40 -10,15 -16,32 -19,50z"/>
   <path id="2" class="fil70" d="M5733 10421l0 34c-65,85 -117,128 -157,128 -22,0 -40,-12 -52,-36 -12,-24 -19,-55 -19,-94 0,-32 8,-69 22,-112 15,-44 35,-88 60,-132 25,-45 50,-84 77,-117 27,-33 52,-56 75,-70 9,-5 16,-8 21,-8 7,0 11,3 13,9 2,5 3,15 3,29 0,43 -17,96 -52,158 -35,63 -84,126 -146,192 -3,16 -5,28 -5,37 0,19 5,35 13,48 9,12 21,18 36,18 7,0 16,-3 25,-9 9,-6 18,-13 28,-22 10,-9 29,-27 58,-53zm-139 -84c16,-15 32,-33 47,-53 15,-20 29,-42 42,-65 14,-22 24,-43 32,-61 7,-18 11,-32 11,-41 0,-8 -2,-11 -7,-11 -2,0 -6,2 -11,5 -19,16 -40,46 -64,90 -23,45 -40,91 -50,136z"/>
   <path id="3" class="fil70" d="M6007 10427l0 31c-33,32 -59,57 -80,75 -21,18 -41,32 -59,42 -18,10 -35,15 -53,15 -17,0 -32,-7 -46,-20 -15,-14 -26,-32 -34,-53 -8,-22 -12,-45 -12,-70 0,-20 5,-39 14,-56 9,-16 27,-37 54,-63 31,-31 60,-55 87,-72 28,-16 49,-25 64,-25 11,0 21,4 28,12 8,7 12,17 12,29 0,10 -5,24 -15,42 -10,18 -22,34 -35,48 -12,13 -22,20 -30,20 -8,0 -12,-4 -12,-13 1,-3 1,-5 1,-7 0,-2 0,-4 0,-6 0,-4 -1,-6 -4,-7 -2,0 -6,1 -9,4 -31,21 -52,37 -64,45 -11,9 -20,18 -27,27 -6,9 -10,18 -10,28 0,18 6,33 18,45 12,11 27,17 46,17 19,0 43,-8 70,-23 27,-15 59,-37 96,-65z"/>
   <path id="4" class="fil70" d="M6303 10425l0 31c-20,18 -36,31 -49,37 -12,6 -30,8 -53,7 -40,48 -75,72 -106,72 -17,0 -33,-6 -47,-17 -14,-12 -26,-28 -34,-47 -9,-20 -13,-42 -13,-66 0,-20 7,-42 20,-66 13,-24 30,-47 51,-68 20,-20 43,-37 67,-50 23,-13 45,-19 66,-19 14,0 26,2 34,6 8,5 12,11 12,19 0,6 -3,13 -10,22 12,2 20,6 24,12 4,5 6,16 6,31 0,15 -3,33 -10,56 -7,23 -17,44 -29,63l9 9 7 0c5,0 10,-2 15,-4 5,-3 10,-6 14,-9 4,-2 13,-9 26,-19zm-95 -122c-26,16 -47,30 -66,42 -18,13 -33,25 -46,38 -13,13 -21,26 -26,39 -7,34 -11,53 -11,56 0,20 14,30 43,30 13,0 35,-11 66,-34 -5,-15 -8,-29 -8,-42 0,-19 4,-39 12,-59 8,-20 20,-44 36,-70z"/>
   <path id="5" class="fil70" d="M6514 10489c43,-38 79,-70 110,-98 30,-28 54,-50 72,-66 17,-16 33,-30 46,-41 13,-11 22,-17 25,-17 8,0 14,7 21,22 6,15 10,27 10,36 0,6 -10,20 -30,42 -20,21 -34,39 -44,52 -10,13 -15,26 -15,41 0,8 3,15 9,20 5,5 12,7 20,7 9,0 19,-4 32,-14 12,-9 32,-25 59,-49l0 33c-27,25 -51,47 -73,65 -22,19 -41,33 -57,42 -17,9 -30,13 -41,13 -10,0 -18,-3 -24,-11 -7,-7 -10,-16 -10,-27 0,-10 2,-21 6,-32 3,-10 9,-23 17,-38 8,-15 18,-33 31,-54 12,-21 24,-40 34,-57 -31,26 -59,50 -83,74 -25,24 -45,45 -60,63 -16,17 -28,31 -37,41 -17,20 -33,29 -48,29 -16,0 -24,-11 -24,-34 0,-9 6,-26 18,-50 12,-24 29,-54 51,-91 2,-3 3,-7 3,-12 0,-6 -3,-9 -9,-9 -7,0 -17,6 -30,19 -12,13 -37,40 -74,80 -10,12 -22,27 -34,45 -13,18 -22,31 -28,37 -6,6 -11,9 -17,9 -11,0 -21,-10 -31,-29 -9,-20 -14,-43 -14,-70 0,-19 3,-35 10,-49 6,-14 16,-31 29,-52 21,-30 38,-51 51,-64 13,-13 27,-19 41,-19 9,0 17,1 23,5 6,4 9,8 9,15 0,6 -5,17 -17,32 -11,14 -25,30 -43,45 -9,9 -18,20 -26,33 -8,14 -12,23 -12,29 0,8 3,12 9,12 6,0 19,-10 40,-32 21,-22 45,-45 70,-71 26,-25 49,-46 71,-63 22,-17 40,-25 55,-25 9,0 17,3 23,10 6,7 9,16 9,26 0,7 -5,19 -14,37 -9,18 -22,39 -40,65 -18,27 -41,58 -69,95z"/>
   <path id="6" class="fil70" d="M6900 10442l0 12c0,18 4,32 13,43 9,10 21,15 36,15 15,0 30,-4 46,-11 17,-7 33,-16 49,-28 16,-12 36,-28 59,-47l0 28c-35,42 -68,74 -99,96 -30,23 -61,34 -93,34 -27,0 -49,-11 -65,-32 -16,-21 -24,-50 -24,-88 0,-32 8,-61 23,-88 15,-26 40,-54 74,-83 23,-20 47,-35 70,-46 23,-10 44,-15 62,-15 14,0 26,3 34,10 9,7 13,17 13,30 0,19 -7,39 -22,58 -14,19 -36,39 -66,58 -30,19 -67,37 -110,54zm4 -30c28,-10 52,-24 72,-40 19,-16 34,-31 44,-46 9,-15 14,-25 14,-32 0,-7 -4,-11 -10,-11 -6,0 -15,4 -27,11 -13,7 -25,16 -38,28 -13,11 -24,25 -35,40 -10,15 -16,32 -20,50z"/>
   <path id="7" class="fil70" d="M7531 10186l20 0c17,-30 31,-50 45,-63 13,-12 28,-18 45,-18 17,0 26,4 26,12 0,3 -7,13 -20,30 -14,16 -24,30 -30,41 10,1 19,2 28,3 8,1 14,2 19,3 -18,32 -40,65 -66,100 -9,-1 -16,-2 -22,-2 -6,0 -12,-1 -18,-1 -6,-1 -13,-1 -22,-2 -17,27 -31,51 -42,72 -11,21 -20,41 -26,58 -6,18 -9,35 -9,50 0,22 9,32 26,32 11,0 27,-6 46,-18 19,-13 44,-32 76,-58l0 31c-84,90 -145,135 -185,135 -14,0 -25,-5 -33,-16 -9,-11 -13,-24 -13,-41 0,-12 2,-25 7,-41 5,-16 13,-39 26,-71 -5,4 -9,7 -13,11 -4,3 -7,6 -10,9 -3,3 -7,6 -11,10 -3,3 -7,6 -11,10l0 -32c33,-28 72,-75 118,-144 -5,0 -9,0 -13,0 -4,-1 -9,-1 -14,-1 -19,0 -32,1 -41,4 -4,1 -7,2 -11,3 -3,1 -5,2 -6,2 -2,0 -2,-1 -2,-3 0,-10 6,-25 19,-46 10,-17 20,-30 29,-38 9,-8 20,-14 33,-17 13,-3 32,-4 55,-4z"/>
   <path id="8" class="fil70" d="M7904 10425l0 31c-21,18 -37,31 -49,37 -13,6 -30,8 -54,7 -40,48 -75,72 -106,72 -17,0 -33,-6 -47,-17 -14,-12 -25,-28 -34,-47 -8,-20 -13,-42 -13,-66 0,-20 7,-42 20,-66 13,-24 30,-47 51,-68 21,-20 43,-37 67,-50 24,-13 46,-19 66,-19 14,0 26,2 34,6 9,5 13,11 13,19 0,6 -4,13 -11,22 12,2 20,6 24,12 4,5 7,16 7,31 0,15 -4,33 -11,56 -7,23 -16,44 -28,63l8 9 7 0c5,0 11,-2 16,-4 5,-3 9,-6 13,-9 4,-2 13,-9 27,-19zm-96 -122c-25,16 -47,30 -65,42 -19,13 -34,25 -47,38 -12,13 -21,26 -25,39 -8,34 -12,53 -12,56 0,20 14,30 43,30 13,0 35,-11 67,-34 -6,-15 -8,-29 -8,-42 0,-19 4,-39 12,-59 8,-20 20,-44 35,-70z"/>
   <path class="fil70" d="M3856 11861l-308 -421c-25,-33 -45,-63 -60,-89l-3 0c3,43 4,91 4,144l0 366 -243 0 0 -872 249 0 295 400c3,6 8,12 13,19 5,8 11,15 16,23 5,7 10,15 15,22 4,7 8,14 10,20l3 0c-3,-18 -4,-49 -4,-93l0 -391 243 0 0 872 -230 0z"/>
   <path id="1" class="fil70" d="M4457 11623c5,27 20,48 47,64 26,15 61,22 104,22 61,0 118,-11 172,-34l0 164c-63,25 -139,37 -229,37 -108,0 -193,-27 -253,-83 -61,-55 -91,-132 -91,-229 0,-67 13,-126 40,-177 26,-51 66,-91 118,-120 52,-29 109,-44 172,-44 65,0 120,13 166,38 45,25 80,60 104,106 24,45 36,98 36,159l0 97 -386 0zm156 -135c0,-72 -26,-108 -77,-108 -22,0 -39,10 -54,30 -15,19 -23,45 -26,78l157 0z"/>
   <path id="2" class="fil70" d="M5740 11861l-269 0 -62 -303c-8,-36 -12,-69 -12,-97l-4 0c-4,43 -9,75 -13,94l-68 306 -268 0 -165 -623 260 0 53 363 10 81 3 0c6,-48 9,-75 11,-83l80 -361 247 0 69 361 5 43 3 39 4 0 2 -18 55 -425 233 0 -174 623z"/>
   <path id="3" class="fil70" d="M6801 11558l0 303 -262 0 0 -299 -270 -573 302 0 95 275c6,18 11,34 13,48 3,14 6,28 9,42l3 0c5,-37 11,-65 17,-85l93 -280 278 0 -278 569z"/>
   <path id="4" class="fil70" d="M7834 11539c0,105 -31,187 -95,247 -63,61 -152,90 -266,90 -113,0 -201,-29 -264,-87 -63,-59 -95,-140 -95,-243 0,-66 15,-123 45,-172 29,-48 71,-86 126,-112 55,-26 118,-39 189,-39 74,0 138,14 192,41 54,27 96,65 125,113 29,49 43,102 43,162zm-263 1c0,-85 -32,-127 -97,-127 -65,0 -97,44 -97,133 0,94 33,141 98,141 64,0 96,-49 96,-147z"/>
   <path id="5" class="fil70" d="M8400 11460c-10,-4 -23,-8 -40,-12 -16,-3 -30,-5 -41,-5 -86,0 -128,49 -128,148l0 270 -260 0 0 -623 260 0 0 110 2 0c16,-39 38,-70 68,-90 29,-21 63,-31 102,-31 14,0 26,3 37,7l0 226z"/>
   <polygon id="6" class="fil70" points="8875,11861 8736,11541 8734,11541 8734,11861 8475,11861 8475,10939 8734,10939 8734,11531 8736,11531 8862,11238 9154,11238 8986,11524 9164,11861 "/>
   <polygon class="fil70" points="3473,12418 3352,12418 3352,12779 3283,12779 3283,12418 3162,12418 3162,12359 3473,12359 "/>
   <polygon id="1" class="fil70" points="3934,12779 3863,12779 3863,12597 3666,12597 3666,12779 3596,12779 3596,12359 3666,12359 3666,12536 3863,12536 3863,12359 3934,12359 "/>
   <polygon id="2" class="fil70" points="4335,12779 4099,12779 4099,12359 4325,12359 4325,12418 4168,12418 4168,12537 4313,12537 4313,12596 4168,12596 4168,12720 4335,12720 "/>
   <polygon id="3" class="fil70" points="4975,12779 4739,12779 4739,12359 4966,12359 4966,12418 4809,12418 4809,12537 4954,12537 4954,12596 4809,12596 4809,12720 4975,12720 "/>
   <path id="4" class="fil70" d="M5563 12779l-69 0 0 -272c0,-22 1,-49 4,-81l-1 0c-5,18 -9,31 -12,39l-125 314 -48 0 -126 -312c-4,-9 -8,-23 -11,-41l-2 0c2,16 3,44 3,82l0 271 -65 0 0 -420 98 0 111 280c8,22 14,38 16,48l2 0c7,-22 13,-38 18,-49l112 -279 95 0 0 420z"/>
   <path id="5" class="fil70" d="M5797 12627l0 152 -70 0 0 -420 128 0c48,0 86,11 112,34 27,22 40,54 40,95 0,41 -14,74 -41,100 -28,26 -66,39 -113,39l-56 0zm0 -211l0 154 45 0c30,0 53,-7 68,-21 16,-14 24,-33 24,-58 0,-50 -29,-75 -86,-75l-51 0z"/>
   <polygon id="6" class="fil70" points="6211,12779 6139,12779 6139,12359 6211,12359 "/>
   <path id="7" class="fil70" d="M6701 12779l-82 0 -67 -112c-6,-11 -12,-19 -18,-27 -6,-7 -11,-13 -17,-18 -6,-4 -13,-8 -20,-10 -7,-2 -15,-3 -24,-3l-28 0 0 170 -69 0 0 -420 138 0c20,0 38,2 55,7 16,5 31,12 43,21 12,10 22,21 29,36 7,14 10,30 10,49 0,15 -2,29 -6,41 -5,13 -11,24 -19,33 -8,10 -18,18 -29,25 -12,7 -25,12 -39,16l0 1c8,5 14,9 20,14 6,6 11,11 16,16 5,6 10,12 15,19 5,7 11,15 17,24l75 118zm-256 -364l0 137 58 0c11,0 21,-1 30,-5 9,-3 17,-8 24,-14 6,-6 11,-14 15,-23 4,-9 6,-19 6,-30 0,-20 -7,-36 -19,-47 -13,-12 -31,-18 -55,-18l-59 0z"/>
   <polygon id="8" class="fil70" points="7047,12779 6811,12779 6811,12359 7037,12359 7037,12418 6880,12418 6880,12537 7025,12537 7025,12596 6880,12596 6880,12720 7047,12720 "/>
   <path id="9" class="fil70" d="M7432 12763l0 -72c7,6 14,11 23,16 9,4 18,8 28,12 10,3 20,5 30,7 10,2 20,3 28,3 29,0 51,-5 65,-15 15,-10 22,-24 22,-42 0,-10 -2,-19 -7,-26 -5,-8 -12,-15 -20,-21 -9,-6 -19,-11 -31,-17 -11,-6 -24,-11 -37,-17 -14,-8 -28,-16 -40,-24 -12,-7 -23,-16 -32,-25 -9,-10 -16,-21 -21,-33 -6,-12 -8,-26 -8,-42 0,-19 4,-36 13,-51 9,-15 21,-27 35,-36 15,-10 31,-17 50,-21 19,-5 38,-7 57,-7 44,0 76,5 96,15l0 69c-24,-17 -54,-26 -92,-26 -10,0 -21,1 -31,3 -10,2 -19,5 -27,10 -9,4 -15,10 -20,17 -5,7 -8,15 -8,25 0,10 2,18 6,25 4,7 10,13 17,18 8,6 17,12 28,17 11,5 23,11 37,18 15,7 29,15 42,24 13,8 24,17 34,27 10,11 18,22 24,34 5,13 8,27 8,43 0,21 -4,39 -13,54 -8,14 -20,26 -34,35 -15,10 -32,16 -51,20 -19,4 -39,6 -60,6 -7,0 -15,0 -26,-1 -10,-1 -20,-3 -31,-5 -11,-2 -21,-4 -31,-7 -9,-3 -17,-7 -23,-10z"/>
   <polygon id="10" class="fil70" points="8109,12418 7989,12418 7989,12779 7919,12779 7919,12418 7798,12418 7798,12359 8109,12359 "/>
   <path id="11" class="fil70" d="M8534 12779l-77 0 -38 -107 -165 0 -36 107 -77 0 158 -420 78 0 157 420zm-133 -164l-58 -167c-2,-6 -4,-14 -6,-27l-1 0c-2,12 -4,20 -6,27l-58 167 129 0z"/>
   <polygon id="12" class="fil70" points="8880,12418 8759,12418 8759,12779 8689,12779 8689,12418 8569,12418 8569,12359 8880,12359 "/>
   <polygon id="13" class="fil70" points="9239,12779 9003,12779 9003,12359 9229,12359 9229,12418 9072,12418 9072,12537 9217,12537 9217,12596 9072,12596 9072,12720 9239,12720 "/>
   <rect class="fil69" x="3147" y="12132" width="6080.37" height="49.0353"/>
  </g>
  <g id="_2996951337856">
   <g id="layer1">
    <g id="g2924">
     <g>
     </g>
     <g style="clip-path:url(#id2)">
      <g>
       <path id="path2960" class="fil71" d="M34753 15524c22,0 42,5 61,17 3,2 11,7 13,9 3,3 21,18 24,23 2,2 18,24 18,24 0,0 18,-17 21,-20 5,-4 10,-8 14,-10 11,-8 22,-15 35,-21 9,-5 24,-9 32,-10 2,0 8,0 11,-1 30,-3 69,11 90,25 24,15 40,36 52,63 3,6 9,22 10,25 6,21 6,47 3,73 -5,40 -23,80 -43,104 -4,5 -13,19 -24,31 -36,39 -88,88 -141,118 -14,8 -70,36 -70,36 0,0 -56,-34 -65,-40 -56,-39 -117,-92 -151,-151 -11,-20 -24,-41 -32,-66 -3,-11 -6,-21 -8,-33 -5,-30 -2,-65 8,-92 4,-12 10,-25 16,-35 21,-36 57,-59 104,-67 8,-1 15,-2 22,-2z"/>
       <g>
        <path id="path2962" class="fil72" d="M34514 15515c2,0 5,1 7,2 13,3 19,7 23,18 11,23 -5,43 -25,47 -21,3 -48,-9 -59,7 -7,10 -5,43 -5,57 -1,18 -2,35 -2,52 0,8 -1,17 0,25 0,6 -2,12 -1,18 1,13 0,28 -1,42 -1,19 -1,36 -2,55 0,11 -2,24 -1,36 1,6 2,14 5,18 14,23 62,-1 77,25 2,1 3,3 4,6 0,1 0,2 0,3 3,15 -3,28 -12,34 -2,0 -4,1 -5,2 -10,3 -25,2 -38,0 -17,-2 -33,-1 -50,-3 -15,-2 -34,-3 -51,-2 -15,1 -32,0 -46,1 -7,0 -14,1 -21,-1 -10,-2 -19,-7 -22,-15 -8,-14 -4,-34 8,-42 3,-2 8,-3 12,-4 23,-6 52,9 65,-10 8,-12 4,-45 6,-63 2,-16 1,-35 1,-50 1,-23 3,-78 3,-78 0,-23 3,-47 2,-70 0,-9 2,-17 1,-26 0,-5 -1,-10 -3,-14 -9,-15 -43,-7 -61,-10 -9,-2 -15,-7 -21,-12 -6,-7 -9,-22 -5,-33 1,-4 2,-6 4,-9 5,-6 13,-10 23,-11 8,-1 15,0 22,0 17,2 34,3 51,4 39,4 79,3 117,1l0 0zm0 0l0 0 0 0z"/>
       </g>
       <path id="path2964" class="fil72" d="M34892 16058c10,0 23,2 30,6 8,5 12,13 14,24 2,19 -11,32 -25,35 -5,1 -12,1 -16,1 -7,1 -15,-3 -21,0 0,0 -3,2 -3,4 -1,2 -1,6 1,9 1,1 13,23 18,33 18,34 36,67 53,101 2,5 3,6 3,6 0,0 9,-12 11,-14 13,-21 26,-41 40,-62 6,-9 12,-18 17,-28 1,-2 16,-27 17,-27 2,-1 3,-4 3,-5 4,-6 1,-10 -5,-11 -5,-1 -12,0 -16,0 -5,1 -13,-1 -18,-2 -19,-3 -31,-23 -23,-44 2,-8 10,-16 18,-18 20,-4 42,3 63,4 24,0 51,2 74,2 24,1 45,-3 69,1 9,2 17,7 21,14 3,4 4,10 4,17l0 3c0,1 0,1 0,2 -1,6 -7,18 -8,19 -17,19 -49,4 -75,10 0,0 -4,0 -6,0 -4,1 -10,3 -13,5 -14,10 -26,32 -36,48 -23,35 -49,70 -71,106 -6,9 -21,30 -23,32 -2,4 -6,8 -8,13 -3,8 -2,22 -3,31 -1,18 -4,36 -2,53 0,5 3,11 6,15 9,11 34,5 49,6 11,1 21,4 27,9 15,13 10,36 -2,48 -4,4 -9,6 -15,7 -8,1 -21,1 -26,0 -32,-4 -68,-8 -101,-7 -8,0 -16,-1 -25,-1 -14,1 -36,3 -50,1 -6,-1 -13,-5 -16,-8 -2,-1 -2,-3 -4,-4 -3,-2 -5,-8 -6,-12 -9,-26 15,-43 40,-39 16,3 34,3 43,-5 10,-8 8,-23 10,-39 1,-13 1,-28 2,-40 1,-5 2,-10 1,-14 -1,-5 -4,-8 -6,-12 -7,-13 -16,-26 -23,-39 -12,-24 -26,-47 -39,-71 -7,-12 -12,-25 -20,-37 -9,-11 -15,-25 -23,-38 -2,-4 -4,-6 -7,-11 -3,-3 -7,-5 -10,-8 -4,-3 -10,-7 -16,-8 -27,-7 -63,5 -76,-17 -8,-14 -5,-37 8,-45 5,-4 12,-5 19,-6 15,-1 31,4 46,4 44,-1 87,6 130,3z"/>
       <path id="path2966" class="fil72" d="M34206 16026c3,0 5,1 7,1 15,0 31,1 45,2 24,2 75,-1 92,10 25,15 31,44 42,71 5,14 11,27 16,40 8,24 20,46 26,70 2,8 7,16 9,24 8,19 15,38 22,58 3,9 9,20 12,29 3,9 24,60 24,60 0,0 0,-15 0,-20 0,-15 1,-26 3,-41 2,-13 2,-26 2,-39 0,-12 2,-25 2,-37 0,-9 0,-23 1,-33 2,-16 3,-62 3,-63 0,-9 2,-20 1,-29 0,-5 -2,-11 -4,-15 -10,-14 -33,-8 -52,-10 -12,-2 -20,-6 -27,-12 -3,-3 -7,-7 -8,-11 -6,-35 20,-46 53,-42 7,1 12,0 18,1 1,1 2,1 2,1 7,0 15,2 21,3 12,2 26,1 37,2 4,1 11,0 16,0 2,-1 21,1 28,1 18,-1 37,-4 55,0 11,2 20,10 23,19 8,21 -1,34 -14,43 -18,12 -56,-5 -72,8 -2,2 -5,6 -6,9 -2,6 -1,15 -1,21 0,10 -2,21 -2,33 0,5 -2,34 -2,42 1,16 -2,31 -2,47 0,11 -1,27 -2,38 -1,10 0,18 -1,28 -3,21 -2,43 -4,63 -1,16 2,44 -4,57 -1,3 -1,5 -2,8 -4,12 -12,20 -20,26 -13,9 -35,12 -55,6 -14,-5 -26,-17 -33,-29 -14,-28 -26,-63 -36,-94 -10,-28 -22,-54 -31,-83 -2,-6 -6,-12 -8,-18 -5,-16 -12,-31 -17,-46 -6,-16 -11,-31 -17,-45 -3,-8 -18,-54 -22,-55 -4,10 -1,24 -2,35 -2,20 -2,46 -3,66 -3,40 -5,76 -5,116 0,21 -7,48 1,64 0,0 0,1 1,2 19,23 64,-5 81,29 9,17 -1,37 -15,43 -7,2 -17,3 -25,2 -4,-1 -10,0 -15,0 -6,-2 -13,-1 -21,-3 -14,-2 -27,-3 -42,-4 -15,0 -27,-1 -41,-1 -5,0 -10,1 -15,0 -23,-3 -57,8 -69,-11 -4,-5 -7,-13 -7,-22l0 -1c0,-3 1,-6 2,-9 3,-6 5,-11 9,-14 6,-5 15,-7 24,-8 7,0 12,2 17,3 16,2 34,-2 39,-12 3,-4 2,-9 3,-15 3,-15 1,-30 3,-45 0,-4 0,-17 0,-21 1,-21 3,-31 2,-42 0,-24 4,-47 4,-71 0,-8 1,-16 1,-24 0,-2 0,-6 0,-6 1,-16 3,-33 2,-49 -1,-8 1,-15 0,-22 -7,-25 -68,-1 -80,-26 -2,-5 -6,-10 -7,-16 -3,-20 13,-33 26,-36 5,-1 10,-1 14,-1z"/>
       <g>
        <path id="path2968" class="fil72" d="M35146 16481l5 1c5,0 8,-2 8,-6 1,-4 -2,-6 -8,-6l-4 0 -1 11 0 0zm7 -17c11,0 17,4 16,12 0,5 -3,9 -9,10l8 19 -10 -1 -7 -17 -5 0 -1 17 -10 -1 2 -40 16 1 0 0zm-22 -2c-6,6 -10,13 -10,21 0,8 3,16 8,22 5,6 13,9 21,10 8,0 15,-3 22,-8 5,-6 9,-13 9,-21 1,-8 -2,-16 -7,-22 -6,-6 -13,-9 -21,-10 -9,0 -16,3 -22,8zm47 -2c7,7 10,16 9,26 0,10 -4,19 -11,25 -8,7 -17,10 -26,10 -10,-1 -19,-5 -26,-12 -6,-8 -9,-17 -9,-26 0,-6 2,-13 6,-18 7,-11 19,-17 32,-17 10,1 18,5 25,12l0 0zm0 0l0 0 0 0z"/>
       </g>
      </g>
     </g>
     <polygon class="fil17" points="33909,16648 35569,16718 35622,15465 33962,15394 "/>
    </g>
   </g>
  </g>
 </g>
</svg>
