<?xml version="1.0" encoding="UTF-8"?>
<!DOCTYPE svg PUBLIC "-//W3C//DTD SVG 1.1//EN" "http://www.w3.org/Graphics/SVG/1.1/DTD/svg11.dtd">
<!-- Creator: CorelDRAW X8 -->
<svg xmlns="http://www.w3.org/2000/svg" xml:space="preserve" width="4879px" height="1956px" version="1.1" style="shape-rendering:geometricPrecision; text-rendering:geometricPrecision; image-rendering:optimizeQuality; fill-rule:evenodd; clip-rule:evenodd"
viewBox="0 0 48792 19559"
 xmlns:xlink="http://www.w3.org/1999/xlink">
 <defs>
  <style type="text/css">
   <![CDATA[
    .str0 {stroke:#373435;stroke-width:41.6561}
    .str2 {stroke:#313131;stroke-width:41.6561}
    .str1 {stroke:#424242;stroke-width:20.8339}
    .str3 {stroke:black;stroke-width:8.9997}
    .str4 {stroke:#B5EEFF;stroke-width:8.9997}
    .str5 {stroke:#E6E6E6;stroke-width:8.9997}
    .fil18 {fill:none}
    .fil14 {fill:#373435}
    .fil21 {fill:#EFB783}
    .fil63 {fill:#0379D9}
    .fil36 {fill:#0B3859}
    .fil49 {fill:#121710}
    .fil24 {fill:#1369B6}
    .fil56 {fill:#1B1B1C}
    .fil32 {fill:#1C1C1C}
    .fil28 {fill:#20547B}
    .fil8 {fill:#313131}
    .fil70 {fill:#318AFA}
    .fil31 {fill:#33322E}
    .fil37 {fill:#333333}
    .fil27 {fill:#362D24}
    .fil29 {fill:#3689BB}
    .fil23 {fill:#3890D0}
    .fil76 {fill:#3A761D}
    .fil74 {fill:#3C771D}
    .fil79 {fill:#3D761F}
    .fil11 {fill:#424242}
    .fil7 {fill:#464646}
    .fil15 {fill:#4A4A4A}
    .fil78 {fill:#4A8C23}
    .fil75 {fill:#4C8F26}
    .fil41 {fill:#4D4D4D}
    .fil40 {fill:#525252}
    .fil16 {fill:#5C707B}
    .fil77 {fill:#644D33}
    .fil17 {fill:#71848B}
    .fil9 {fill:#757575}
    .fil57 {fill:#767B7F}
    .fil33 {fill:#797977}
    .fil51 {fill:#7A838A}
    .fil43 {fill:gray}
    .fil72 {fill:#8ABD12}
    .fil58 {fill:#99A3AC}
    .fil52 {fill:#9CADB7}
    .fil73 {fill:#9ED23D}
    .fil59 {fill:#AAB5C5}
    .fil55 {fill:#ADBACA}
    .fil39 {fill:#B5EEFF}
    .fil25 {fill:#B96F48}
    .fil62 {fill:#BABABA}
    .fil54 {fill:#BACADA}
    .fil71 {fill:#BFD83D}
    .fil48 {fill:#C1C2C9}
    .fil19 {fill:#C1CFCF}
    .fil34 {fill:#C77066}
    .fil5 {fill:#C8382F}
    .fil12 {fill:#CACACA}
    .fil38 {fill:#CCCCCC}
    .fil47 {fill:#CDCED3}
    .fil3 {fill:#CFB175}
    .fil53 {fill:#D2D7DD}
    .fil6 {fill:#DF7E77}
    .fil4 {fill:#DFE9EB}
    .fil35 {fill:#E09474}
    .fil46 {fill:#E0E7ED}
    .fil1 {fill:#E6E6E6}
    .fil42 {fill:#E6E6E6}
    .fil44 {fill:#E6EEF1}
    .fil22 {fill:#EC9956}
    .fil30 {fill:#ECB31E}
    .fil26 {fill:#EDD89F}
    .fil68 {fill:#EDDB0B}
    .fil13 {fill:#EFEFEF}
    .fil45 {fill:#F1FAFF}
    .fil0 {fill:#F2F2F2}
    .fil50 {fill:#F2FBFF}
    .fil65 {fill:#F4DB13}
    .fil69 {fill:#F4DC0C}
    .fil64 {fill:#F7DC06}
    .fil66 {fill:#F8DD07}
    .fil67 {fill:#FADD05}
    .fil10 {fill:white}
    .fil60 {fill:white}
    .fil20 {fill:#464646;fill-rule:nonzero}
    .fil61 {fill:#B3B3B3}
    .fil2 {fill:url(#id2);fill-rule:nonzero;fill-opacity:0.321569}
   ]]>
  </style>
   <mask id="id0">
  <linearGradient id="id1" gradientUnits="userSpaceOnUse" x1="25617.3" y1="16060.5" x2="30445.5" y2="16060.5">
   <stop offset="0" style="stop-opacity:0; stop-color:white"/>
   <stop offset="1" style="stop-opacity:1; stop-color:white"/>
  </linearGradient>
    <rect style="fill:url(#id1)" x="25607" y="14748" width="4849" height="2625"/>
   </mask>
  <linearGradient id="id2" gradientUnits="userSpaceOnUse" x1="20550.3" y1="16253.2" x2="21902.8" y2="16253.2">
   <stop offset="0" style="stop-opacity:1; stop-color:#64691F"/>
   <stop offset="1" style="stop-opacity:1; stop-color:#9E8926"/>
  </linearGradient>
 </defs>
 <g id="Слой_x0020_1">
  <metadata id="CorelCorpID_0Corel-Layer"/>
  <rect class="fil0" x="2" width="48790" height="19559"/>
  <path class="fil1" d="M48786 19559l-22 -6754 -1103 -1471 -3310 26 -736 1314c1,-94 3,-197 5,-306l74 -9 -26 -79 -52 -2548 -13 -3c-20,-154 -73,-96 -223,-391 -1074,-2111 -1523,-4547 -1690,-6954 -73,255 -220,2288 -275,2759 -156,1341 -287,2652 -681,3921l-233 549c-108,250 4,3176 -40,3748 -1034,85 -2347,-3 -3429,5 -329,3 -472,249 -613,309l0 -450 -722 0 0 -2180 -134 -1 0 -4 -727 -4 -70 -1c-27,-206 -11,-504 -10,-720 1,-371 -251,-1526 -383,-1768 -48,97 -139,438 -179,568 -396,1299 -200,1080 -227,1790l-203 196 -16 0c2,4 4,7 6,11l-40 38 -237 -210 -250 183c-15,-4 -38,-9 -72,-16 -283,-60 -387,58 -642,-138 -686,-526 -609,-250 -604,-1091 1,-317 -211,-1270 -356,-1455l-64 119c-431,936 -385,1075 -371,2025 -173,85 -384,238 -566,358 -386,257 -268,136 -747,179 -167,188 -449,645 -605,766l-608 -1 -7 540 -2919 4c-112,-242 -205,-518 -344,-744l-5445 -1 -10 -661c-491,-77 -260,83 -886,-592 -165,-178 -272,-200 -273,-467 -2,-251 7,-501 -2,-751l-280 -6c-88,-554 67,-694 -142,-1346l-176 -558c-52,-174 -128,-372 -165,-546 -29,36 -11,10 -47,71l-191 479c-66,179 -132,333 -203,537 -160,459 -116,900 -109,1412l-440 7 -2 1701 -576 3 -8 969 -3488 -3 -8 263 -160 -4 -1 -228c-453,-27 -928,-5 -1386,-33 -84,-381 27,-975 -62,-1440 -46,-238 -182,-1134 -249,-1270 -96,287 -145,769 -217,1119 -90,431 -85,775 -77,1251l-7007 -13c6,-537 6,-1081 2,-1618 -3,-415 -158,-884 -486,-1116l0 -507 -395 6c4,239 47,471 -81,618 -463,527 -405,986 -408,1710l-1017 -10c3,-351 128,-576 -293,-514l-2 559c-164,24 -336,45 -498,33l-433 -16c-144,63 -84,839 -83,1121 2,744 -27,5508 -11,7731l48779 0z"/>
  <path class="fil2" d="M21350 15468c0,0 -479,29 -537,73 -58,44 -277,1250 -262,1497 58,-29 1236,-1148 1352,-1294 -29,-116 -553,-276 -553,-276z"/>
  <rect class="fil3" y="17607" width="48790" height="102"/>
  <g id="_2996849038960">
   <path class="fil4" d="M22407 15887c49,2 131,5 187,3 57,-2 88,-7 106,-15 18,-7 23,-17 15,-33 -9,-16 -29,-40 -58,-70 -29,-31 -67,-68 -105,-100 -38,-32 -77,-57 -116,-81 -40,-25 -79,-48 -116,-69 -37,-20 -72,-38 -106,-53 -35,-15 -69,-27 -94,-35 -24,-8 -39,-11 -57,-13 -18,-1 -40,-1 -68,-1 -28,0 -61,1 -85,5 -24,3 -39,10 -50,18 -11,8 -18,18 -19,35 0,17 5,41 23,71 18,30 48,65 83,100 34,34 73,68 117,102 44,34 93,69 138,91 45,22 86,31 114,37 28,5 43,6 91,8z"/>
   <rect class="fil5" x="16149" y="13496" width="526" height="561" rx="62" ry="59"/>
   <polygon class="fil6" points="16220,13496 16603,13496 16603,13784 16220,13784 "/>
   <path class="fil7" d="M11426 15219c-16,-13 -21,-40 -24,-70 -2,-29 -2,-60 3,-88 5,-28 15,-53 28,-73 13,-19 29,-33 48,-43 19,-10 41,-15 190,-17 149,-2 425,-1 569,-1 144,-1 156,-4 256,-43 100,-39 289,-114 521,-205 233,-92 509,-198 781,-294 272,-96 540,-180 775,-242 234,-61 434,-98 625,-128 190,-29 369,-50 543,-62 95,-7 187,-11 283,-13 -1,-2 -1,-4 -1,-6l0 0c0,-36 30,-66 67,-66l617 0c36,0 66,30 66,66l0 0c0,8 -1,16 -4,23 30,2 60,5 90,8 194,20 375,52 551,94 176,42 346,92 519,159 173,67 349,151 528,250 178,100 359,216 522,322 162,106 307,202 379,251 73,48 73,48 73,48 0,0 0,0 0,0 0,0 0,0 347,38 348,39 1043,115 1481,173 437,57 617,95 707,114 89,18 89,18 89,18 0,0 0,0 -30,0 -31,0 -92,0 -124,10 -33,10 -37,30 -19,71 19,41 59,103 109,157 50,54 110,100 165,134 54,33 104,56 196,66 93,10 228,9 296,8 68,0 68,0 68,0 0,0 0,0 0,0 0,0 0,0 10,19 10,20 31,59 39,120 8,61 3,145 0,186 -3,42 -3,42 -3,42 0,0 0,0 7,0 6,0 19,0 26,0 7,0 7,0 7,0 0,0 0,0 0,49 0,49 0,146 0,195 0,49 0,49 0,49 0,0 0,0 0,0 0,0 0,0 -6,-1 -6,-2 -18,-4 -24,-6 -6,-1 -6,-1 -6,-1 0,0 0,0 0,0 0,0 0,0 0,35 0,35 0,106 -4,161 -3,55 -11,96 -24,131 -13,35 -32,65 -54,89 -22,24 -48,42 -82,58 -34,16 -75,29 -187,42 -111,13 -292,26 -382,32 -91,7 -91,7 -91,7 0,0 0,0 -13,-7 -14,-6 -42,-19 -55,-26 -14,-6 -14,-6 -14,-6 0,0 0,0 -10,0 -11,1 -32,2 -42,3 -10,1 -10,1 -284,10 -275,9 -823,27 -1097,36 -274,9 -274,9 -274,9 0,0 0,0 -2,7 -3,8 -8,22 -11,29 -2,7 -2,7 -2,7 0,0 0,0 -935,-10 -934,-11 -2802,-31 -3774,-44 -971,-12 -1045,-16 -1082,-18 -37,-2 -37,-2 -280,-6 -242,-5 -726,-14 -1059,-27 -332,-13 -513,-30 -747,-56 -233,-25 -518,-59 -685,-82 -167,-24 -217,-37 -257,-54 -39,-18 -69,-40 -89,-63 -19,-23 -28,-46 -28,-180 0,-134 9,-379 18,-514 9,-134 18,-159 56,-205 39,-45 107,-112 209,-203 102,-91 239,-207 314,-281 74,-73 87,-104 87,-130 -1,-25 -15,-45 -47,-59 -32,-14 -81,-23 -141,-20 -60,3 -131,19 -179,27 -49,9 -77,10 -93,-3z"/>
   <path class="fil8" d="M22281 15858c21,5 44,9 71,12l13 1 0 1 -688 214 0 -39 604 -189z"/>
   <path class="fil8" d="M11325 15835c10,-10 21,-21 33,-33l1180 198 356 180 -20 35 -367 -184 -1182 -196z"/>
   <path class="fil9" d="M21879 15454c-11,12 -9,30 3,59 19,41 59,103 109,157 26,29 56,55 85,78l8 8c0,0 0,0 -93,-2 -93,-2 -278,-7 -370,-9 -93,-2 -93,-2 -93,-2 0,0 0,0 -27,-13 -26,-13 -79,-39 -133,-56 -55,-18 -111,-28 -179,-35 -69,-7 -150,-12 -223,-6 -72,5 -137,20 -186,33 -49,13 -83,25 -99,31 -17,5 -17,5 -17,5 0,0 0,0 -171,-4 -172,-4 -515,-12 -686,-16 -172,-4 -172,-4 -172,-4 0,0 0,0 0,0 0,0 0,0 -11,-35 -12,-35 -35,-106 -61,-171 -27,-66 -57,-127 -94,-183 -36,-56 -79,-106 -100,-131 -22,-26 -22,-26 -22,-26 0,0 0,0 66,4 66,4 198,11 345,20 147,9 310,19 480,35 170,15 347,36 517,58 170,22 335,45 488,70 153,24 295,51 412,78 94,21 172,43 224,57z"/>
   <path class="fil5" d="M11515 15153c56,-7 139,-12 201,-13 62,0 102,3 137,14 36,10 66,27 88,48 22,21 36,46 43,60 7,14 7,18 2,28 -6,10 -18,25 -54,57 -37,32 -98,80 -164,134 -66,53 -136,112 -194,159 -59,46 -106,82 -141,108 -35,27 -59,45 -70,54 -12,9 -12,9 -12,9 0,0 0,0 6,-97 6,-98 17,-293 26,-399 8,-106 13,-123 30,-136 17,-12 46,-20 102,-26z"/>
   <path class="fil10" d="M11980 15253c1,3 3,6 4,9 7,14 7,18 2,28 -5,8 -15,21 -41,45l-564 0 2 -20c2,-26 4,-46 5,-62l592 0zm-337 330c-24,20 -48,39 -69,57 -12,8 -22,17 -33,25l-181 0 5 -82 278 0z"/>
   <circle class="fil11" cx="13642" cy="16725" r="891"/>
   <circle class="fil12 str0" cx="13642" cy="16725" r="625"/>
   <path class="fil13" d="M16726 15119c14,59 40,165 64,296 24,132 46,290 59,469 12,180 15,382 13,513 -1,27 -1,52 -2,74l-1701 0 3 24 1697 -3c-2,37 -4,66 -7,92l-1690 0 0 67 1681 0c-10,61 -22,124 -29,156 -6,32 -6,32 -6,32 0,0 0,0 0,0 0,0 0,0 -297,0 -297,0 -891,0 -1188,0 -297,0 -297,0 -297,0 0,0 0,0 0,0 0,0 0,0 -28,-70 -28,-70 -83,-209 -188,-408 -105,-199 -259,-459 -402,-681 -143,-223 -276,-409 -351,-514 -75,-105 -92,-128 -86,-140 5,-12 32,-12 487,-5 455,6 1338,19 1785,23 446,3 457,-4 462,0 6,3 8,16 21,75zm77 63c16,75 44,200 65,338 20,138 35,289 42,408 7,119 7,206 5,313 -1,72 -3,153 -8,230l2663 0c2,-20 3,-40 4,-61 8,-176 6,-385 -3,-542 -8,-157 -22,-261 -53,-352 -31,-91 -78,-170 -126,-232 -49,-63 -100,-109 -125,-133 -26,-23 -26,-23 -26,-23 0,0 0,0 0,0 0,0 0,0 0,0 0,0 0,0 -411,-12 -410,-12 -1232,-35 -1643,-47 -411,-12 -411,-12 -411,-12 0,0 0,0 3,13 3,12 8,37 24,112zm103 1310c-2,29 -4,58 -7,85l0 7 2662 0c3,-30 6,-63 8,-97l-2663 5zm-15 159c-9,67 -19,118 -25,148 -8,40 -8,40 -8,40 0,0 0,0 0,0 0,0 0,0 445,4 445,5 1334,14 1779,18 444,5 444,5 444,5 0,0 0,0 0,0 0,0 0,0 10,-70 5,-34 12,-84 19,-145l-2664 0z"/>
   <rect class="fil12" x="14343" y="15207" width="586" height="131"/>
   <rect class="fil14" x="14423" y="15251" width="425.773" height="42.9671"/>
   <rect class="fil12" x="16976" y="15254" width="586" height="131"/>
   <rect class="fil14" x="17057" y="15298" width="425.773" height="42.9671"/>
   <polygon class="fil15" points="13501,17239 13796,17239 13654,16852 "/>
   <polygon class="fil15" points="13156,16891 13315,17140 13564,16810 "/>
   <polygon class="fil15" points="14137,16891 13978,17140 13729,16811 "/>
   <polygon class="fil15" points="14091,16427 14193,16704 13780,16703 "/>
   <polygon class="fil15" points="13198,16425 13096,16702 13509,16701 "/>
   <polygon class="fil15" points="13984,16303 13714,16185 13690,16597 "/>
   <polygon class="fil15" points="13291,16303 13561,16185 13585,16597 "/>
   <path class="fil16" d="M14099 14975c159,8 450,8 595,8 145,0 145,0 145,0 0,0 0,0 0,0 0,0 0,0 -21,-128 -22,-128 -65,-385 -86,-513 -22,-128 -22,-128 -22,-128 0,0 0,0 0,0 0,0 0,0 -75,21 -75,20 -224,62 -337,98 -113,36 -188,66 -251,99 -62,33 -112,69 -148,109 -37,40 -60,83 -71,128 -11,46 -10,94 2,139 12,45 34,87 59,115 24,29 52,45 210,52z"/>
   <path class="fil17" d="M14565 14983c49,0 93,0 129,0 145,0 145,0 145,0 0,0 0,0 0,0 0,0 0,0 -21,-128 -22,-128 -65,-385 -86,-513 -22,-128 -22,-128 -22,-128 0,0 0,0 0,0 0,0 0,0 -75,21 -75,20 -224,62 -337,98 -70,22 -126,42 -173,62l440 588z"/>
   <path class="fil16" d="M14826 14381c23,131 65,367 87,484 21,118 22,118 23,118 1,0 1,0 1,0 0,0 0,0 255,3 255,4 765,10 1021,14 255,3 255,3 255,3 0,0 0,0 0,0 0,0 0,0 -14,-164 -15,-163 -43,-490 -58,-653 -14,-164 -14,-164 -14,-164 0,0 0,0 0,0 0,0 0,0 -81,4 -82,3 -245,9 -416,20 -172,11 -353,27 -517,48 -164,21 -312,47 -405,65 -93,18 -132,29 -151,34 -20,5 -20,5 -20,5 0,0 0,0 3,13 2,13 8,39 31,170z"/>
   <path class="fil17" d="M14826 14381c23,131 65,367 87,484 21,118 22,118 23,118 1,0 1,0 1,0 0,0 0,0 255,3l321 5 -640 -813c-32,7 -50,12 -61,15 -20,5 -20,5 -20,5 0,0 0,0 3,13 2,13 8,39 31,170z"/>
   <path class="fil16" d="M16727 14370c61,156 155,394 202,514 47,119 47,119 47,119 0,0 0,0 0,0 0,0 0,0 0,0 0,0 0,0 290,4 290,4 871,11 1161,15 291,4 291,4 291,4 0,0 0,0 0,0 0,0 0,0 0,-36 0,-37 0,-110 -1,-148 -1,-38 -2,-42 -2,-44 -1,-2 -1,-2 -1,-2 0,0 0,0 -33,-30 -34,-29 -100,-87 -202,-154 -102,-66 -240,-140 -399,-211 -158,-71 -336,-139 -487,-184 -150,-45 -272,-67 -395,-87 -123,-19 -247,-36 -345,-46 -99,-11 -172,-15 -208,-17 -37,-2 -37,-2 -22,35 14,38 43,112 104,268z"/>
   <path class="fil17" d="M18718 14942c0,-35 0,-75 -1,-100 -1,-38 -2,-42 -2,-44 -1,-2 -1,-2 -1,-2 0,0 0,0 -33,-30 -34,-29 -100,-87 -202,-154 -62,-40 -137,-83 -221,-126l460 456z"/>
   <path class="fil17" d="M16727 14370l35 90 536 547 1023 14 -796 -824c-120,-32 -224,-50 -327,-67 -123,-19 -247,-36 -345,-46 -99,-11 -172,-15 -208,-17 -37,-2 -37,-2 -22,35 14,38 43,112 104,268z"/>
   <path class="fil9" d="M13493 15005l-2064 -10c-11,18 -20,41 -24,66 -5,25 -5,52 -4,78 57,-9 124,-19 180,-26 89,-10 150,-11 201,-6 51,5 91,17 122,30 30,14 51,30 69,48 17,18 31,39 41,60 9,21 13,42 12,57 -1,16 -6,26 -8,31l-3 6 92 21c93,22 278,65 424,87 147,23 255,26 531,30 276,5 720,11 942,15l222 3 -52 -82 -209 -325 -52 -81 -420 -2z"/>
   <path class="fil14" d="M13642 15757c-535,0 -969,433 -969,968 0,106 17,207 48,302 27,2 55,4 84,5 -35,-95 -54,-199 -54,-307 0,-492 399,-890 891,-890 491,0 890,398 890,890 0,126 -26,245 -73,354 23,0 50,1 84,1 43,-110 67,-229 67,-355 0,-535 -433,-968 -968,-968z"/>
   <circle class="fil11" cx="21040" cy="16733" r="891"/>
   <circle class="fil12 str0" cx="21040" cy="16733" r="625"/>
   <polygon class="fil15" points="20899,17246 21194,17247 21052,16859 "/>
   <polygon class="fil15" points="20554,16899 20713,17148 20962,16818 "/>
   <polygon class="fil15" points="21536,16899 21376,17148 21127,16818 "/>
   <polygon class="fil15" points="21489,16435 21591,16712 21178,16711 "/>
   <polygon class="fil15" points="20596,16433 20494,16710 20907,16709 "/>
   <polygon class="fil15" points="21383,16311 21112,16193 21088,16605 "/>
   <polygon class="fil15" points="20689,16311 20960,16193 20984,16605 "/>
   <path class="fil14" d="M21040 15764c-535,0 -969,434 -969,969 0,76 9,149 25,219 3,15 6,30 9,42 6,21 11,37 17,52 5,14 11,27 16,37 5,9 10,16 14,22l1 -1 75 -2c-5,-15 -14,-40 -24,-68 -11,-32 -23,-69 -32,-106 -5,-22 -10,-43 -13,-61 -6,-44 -10,-88 -10,-134 0,-492 399,-890 891,-890 492,0 890,398 890,890 0,126 -26,245 -73,353 23,1 51,2 84,2 44,-110 67,-230 67,-355 0,-535 -433,-969 -968,-969z"/>
   <circle class="fil18 str1" cx="13643" cy="16708" r="80"/>
   <circle class="fil18 str1" cx="21049" cy="16724" r="80"/>
   <path class="fil19" d="M21967 15514c-6,15 16,51 41,85 24,33 52,64 85,94 34,30 74,59 111,81 37,22 71,36 109,46 38,10 79,15 99,17 21,3 21,3 21,3 0,0 0,0 -66,-54 -65,-54 -196,-162 -278,-220 -83,-58 -116,-66 -122,-52z"/>
   <ellipse class="fil4" cx="22559" cy="16687" rx="88" ry="138"/>
   <path class="fil8" d="M16706 14796c-39,-163 -113,-477 -155,-635 -16,-58 -27,-95 -35,-119 -4,0 -8,-1 -12,-2 -4,-1 -8,-3 -12,-5 4,24 12,63 25,127 34,164 106,492 142,656 36,164 36,164 36,164 0,0 0,0 9,1 9,0 27,2 36,2 9,1 9,1 9,1 0,0 0,0 -1,-7 -1,-6 -4,-19 -42,-183z"/>
   <path class="fil18 str2" d="M16637 14981c-791,-11 -1660,-15 -2121,-19 -461,-5 -514,-10 -553,-20 -38,-10 -61,-24 -80,-41 -19,-17 -33,-36 -45,-63 -11,-27 -18,-61 -17,-98 1,-37 12,-77 30,-116 18,-38 44,-74 79,-107 34,-33 77,-61 134,-89 58,-27 129,-53 240,-88 111,-35 260,-80 415,-119 155,-39 315,-72 470,-97 154,-25 302,-41 478,-55 176,-14 379,-27 537,-31 158,-4 272,1 412,14 140,12 306,31 466,57 159,26 312,59 449,96 137,37 260,79 392,132 132,52 274,116 401,186 127,70 239,145 307,196 67,51 91,77 119,110 28,33 60,73 81,108 21,34 30,63 33,77 2,15 -2,15 -361,6 -359,-10 -1074,-28 -1866,-39z"/>
   <path class="fil20" d="M15331 15594c42,0 82,10 121,28 37,19 68,46 90,81 22,35 33,77 33,128 0,50 -11,93 -33,128 -22,36 -53,63 -90,81 -39,19 -79,28 -121,28l-161 0 0 283 -160 0 0 -757 321 0zm-31 331c35,0 62,-8 81,-25 18,-15 27,-39 27,-69 0,-31 -9,-55 -27,-70 -19,-17 -46,-25 -81,-25l-130 0 0 189 130 0z"/>
   <path id="1" class="fil20" d="M16306 15976c0,-40 -8,-78 -24,-115 -18,-37 -43,-67 -77,-90 -34,-23 -77,-36 -127,-37 -51,0 -92,12 -125,35 -35,24 -60,54 -76,91 -17,35 -26,74 -26,116 0,42 9,81 26,117 16,36 41,66 76,90 33,23 74,35 125,35 50,-1 93,-14 127,-37 34,-23 59,-53 77,-90 16,-37 24,-75 24,-115zm-227 -396c109,0 203,39 280,116 77,78 116,171 116,281 0,108 -39,201 -116,279 -77,77 -171,116 -280,116 -109,0 -202,-39 -280,-116 -77,-78 -116,-171 -116,-279 0,-110 39,-203 116,-281 78,-77 171,-116 280,-116z"/>
   <polygon id="2" class="fil20" points="17033,16352 16584,16352 16584,15594 16744,15594 16744,16210 17033,16210 "/>
   <polygon id="3" class="fil20" points="17354,15594 17354,16352 17194,16352 17194,15594 "/>
   <path id="4" class="fil20" d="M17653 16016c3,34 12,64 27,92 19,36 46,64 79,83 33,20 71,29 113,29 45,0 84,-10 118,-31 34,-21 58,-49 74,-84l125 78c-22,59 -62,106 -119,139 -58,33 -123,50 -197,50 -72,0 -137,-16 -196,-48 -60,-31 -107,-76 -141,-135 -35,-59 -52,-129 -52,-211 0,-83 17,-153 52,-212 34,-59 81,-104 141,-135 59,-32 124,-47 196,-47 74,0 139,16 197,49 57,34 97,80 119,140l-125 77c-16,-34 -40,-62 -74,-84 -34,-21 -73,-31 -118,-31 -42,0 -80,10 -113,29 -33,19 -60,47 -79,84 -15,27 -24,57 -27,91 -2,21 -2,47 0,77z"/>
   <polygon id="5" class="fil20" points="18785,16352 18310,16352 18310,15594 18774,15594 18774,15736 18470,15736 18470,15898 18742,15898 18742,16038 18470,16038 18470,16211 18785,16211 "/>
  </g>
  <g id="_2996848533312">
   <path class="fil21" d="M23216 13605l179 0c1,-7 3,-13 4,-20 4,-14 7,-28 11,-39 7,-23 15,-39 28,-54 12,-15 30,-29 45,-43 16,-14 29,-28 39,-43 10,-16 17,-32 15,-45 -3,-14 -14,-24 -24,-29 -10,-5 -18,-5 -22,-5 -4,0 -4,0 -5,-55 0,-55 -2,-164 -6,-225 -3,-61 -8,-74 -15,-83 -7,-9 -17,-14 -27,-15 -11,-1 -23,1 -34,7 -10,5 -20,15 -25,43 -5,27 -6,72 -6,94 -1,23 -1,23 -14,26 -14,3 -41,10 -61,16 -19,7 -30,13 -53,18 -23,4 -58,7 -81,10 -23,3 -33,6 -39,38 -5,33 -5,94 -1,142 3,49 9,85 19,113 10,28 24,49 36,68 12,19 23,36 30,54 0,2 1,4 2,6 2,7 4,14 5,21z"/>
   <path class="fil22" d="M23216 13605l46 0c-4,-13 -8,-28 -13,-40 -4,-12 -10,-22 -16,-32 -6,-10 -14,-20 -22,-33 -9,-13 -18,-29 -27,-50 -8,-21 -16,-48 -21,-78 -5,-30 -7,-64 -8,-92 -1,-28 -1,-50 2,-65 3,-15 9,-23 19,-28 9,-5 23,-8 34,-7 12,1 21,5 30,7 9,2 18,1 27,-3 9,-5 18,-12 27,-17 9,-6 18,-9 29,-9 11,1 24,6 34,5 10,-1 17,-7 21,-14 5,-8 7,-18 8,-36 2,-19 3,-46 5,-69 2,-23 5,-42 10,-55 4,-13 10,-21 17,-26 8,-5 17,-7 28,-6 5,0 10,1 15,2 -7,-6 -15,-9 -23,-10 -11,-1 -23,1 -34,7 -10,5 -20,15 -25,43 -5,27 -6,72 -6,94 -1,23 -1,23 -14,26 -14,3 -41,10 -61,16 -19,7 -30,13 -53,18 -23,4 -58,7 -81,10 -23,3 -33,6 -39,38 -5,33 -5,94 -1,142 3,49 9,85 19,113 10,28 24,49 36,68 12,19 23,36 30,54 0,2 1,4 2,6 2,7 4,14 5,21z"/>
   <path class="fil23" d="M23161 13584l0 130c0,131 0,393 5,538 5,145 14,173 29,194 15,21 37,35 130,42 92,8 256,8 338,8l82 0 0 146 -1 592 0 136 101 0c28,0 28,0 28,13 0,6 1,15 1,30 20,3 43,7 68,12 63,11 141,23 251,33 15,1 32,3 48,4l0 -12 63 0c7,28 19,53 36,65 25,18 63,6 93,-6 30,-13 51,-25 69,-52 1,-2 3,-5 4,-7l59 0 0 17c1,0 2,0 2,0l106 0c7,0 14,3 19,7 34,-2 67,-4 98,-6 3,-8 12,-8 46,-7l34 0c33,-3 62,-6 85,-10 24,-3 42,-7 56,-9 9,-5 17,-9 24,-12 0,-56 2,-56 14,-56 7,-1 16,-1 26,0 1,-16 1,-47 1,-129l0 -534 0 -133 42 24 156 87 0 -481c-30,-16 -72,-35 -109,-51 -43,-19 -80,-32 -118,-45 -39,-13 -80,-26 -121,-36 -42,-10 -85,-18 -124,-25 -40,-8 -75,-15 -104,-21 -29,-6 -50,-10 -76,-17 -4,-2 -8,-3 -13,-4 -11,-3 -22,-7 -33,-11l0 -5 0 -49c-1,0 -2,0 -3,1 -4,3 -9,6 -13,9 -16,10 -30,15 -49,19 -20,5 -45,9 -70,11 -26,2 -52,2 -78,0 -26,-3 -52,-7 -72,-12 -19,-5 -31,-11 -41,-17 -5,-2 -9,-5 -13,-8 0,0 -1,0 -1,0l0 51c-5,2 -11,4 -16,7 -8,5 -16,10 -24,16 -30,9 -66,20 -128,33 -84,17 -214,40 -309,55 -96,15 -156,22 -196,26 -40,5 -58,6 -72,6 -13,1 -21,1 -25,1 -5,0 -6,0 -7,-93 -1,-92 -1,-278 -1,-371l0 -92 -49 -1 -10 0 -188 -1 0 0 -50 0z"/>
   <path class="fil24" d="M25077 14579l41 23 156 87 0 -47 -15 -5c-36,-13 -109,-37 -146,-50 -36,-12 -36,-12 -36,-12l0 4z"/>
   <path class="fil24" d="M23161 13584l0 130c0,131 0,393 5,538 5,145 14,173 29,194 15,21 37,35 130,42 92,8 256,8 338,8l80 0c-2,-15 -7,-19 -15,-22 -8,-4 -18,-8 -43,-10 -24,-3 -62,-5 -123,-8 -61,-3 -144,-9 -200,-13 -57,-5 -86,-10 -106,-16 -19,-6 -29,-14 -36,-24 -7,-9 -11,-22 -17,-156 -5,-134 -12,-390 -18,-522 -5,-106 -10,-132 -15,-141l-9 0z"/>
   <polygon class="fil21" points="24236,13921 24576,13921 24576,14028 24434,14156 24386,14156 24236,14017 "/>
   <path class="fil25" d="M24212 13923c-2,3 7,11 15,17 8,6 14,10 23,15 10,6 22,12 41,17 20,5 46,9 72,12 26,2 52,2 78,0 25,-2 50,-6 70,-11 19,-4 33,-9 49,-19 16,-10 34,-25 43,-32 9,-8 9,-8 9,-8 0,0 0,0 -9,2 -8,2 -24,5 -56,9 -32,4 -80,8 -124,9 -45,0 -87,-3 -117,-6 -30,-2 -48,-3 -63,-5 -16,-1 -29,-3 -31,0z"/>
   <path class="fil21" d="M23836 13191c-4,24 -9,57 -11,73 -3,16 -3,16 -3,16 0,0 0,0 -2,0 -2,0 -7,0 -13,2 -6,2 -14,5 -21,13 -8,7 -15,18 -20,35 -4,16 -5,38 -5,57 1,19 4,35 8,49 4,15 10,28 17,37 8,10 17,16 27,20 10,5 21,7 32,8 12,1 24,1 31,1 6,0 6,0 6,0 0,0 0,0 1,24l0 21c2,15 5,32 8,49 4,26 10,50 18,72 7,23 15,45 24,64 8,19 18,35 27,49 10,14 20,26 33,39 13,14 29,29 44,41 16,13 31,22 49,32 17,9 36,19 58,27 22,9 46,16 68,22 22,5 42,9 62,11 19,2 38,2 63,2 25,1 56,1 89,0 33,0 67,-3 100,-5 33,-3 64,-7 93,-13 29,-7 56,-16 81,-29 26,-13 50,-29 70,-44 19,-14 36,-27 50,-44 15,-17 29,-37 42,-58 13,-21 27,-42 39,-66 12,-23 22,-49 30,-75 9,-25 15,-50 19,-73 5,-23 8,-45 9,-56 2,-11 2,-11 2,-11 0,0 0,0 2,1 2,1 7,2 14,2 8,1 19,0 31,-3 2,-1 5,-1 7,-2 4,-2 8,-5 12,-8 10,-10 17,-25 22,-44 4,-20 6,-43 7,-65 1,-22 1,-42 -4,-58 -4,-16 -13,-28 -20,-34 -6,-7 -10,-9 -13,-10 -2,-1 -2,-1 -2,-16 -1,-15 -1,-45 -2,-59 0,-15 0,-15 -1,-36 -1,-20 -3,-60 -8,-90 -6,-30 -15,-49 -52,-65 -37,-16 -102,-29 -208,-36 -106,-7 -253,-8 -373,-5 -120,2 -215,7 -285,14 -71,8 -118,18 -151,33 -32,15 -49,36 -62,60 -13,24 -23,51 -28,72 -6,21 -8,36 -11,59z"/>
   <path class="fil22" d="M23802 13284c-5,2 -11,5 -16,11 -8,7 -15,18 -20,35 -4,16 -5,38 -5,57 1,19 4,35 8,49 4,15 10,28 17,37 8,10 17,16 27,20 10,5 21,7 32,8 12,1 24,1 31,1 6,0 6,0 6,0 0,0 0,0 1,24l0 21c2,15 5,32 8,49 4,26 10,50 18,72 7,23 15,45 24,64 8,19 18,35 27,49 10,14 20,26 33,39 13,14 29,29 44,41 16,13 31,22 49,32 17,9 36,19 58,27 22,9 46,16 68,22 22,5 42,9 62,11 19,2 38,2 63,2 25,1 56,1 89,0 33,0 67,-3 100,-5 33,-3 64,-7 93,-13 29,-7 56,-16 81,-29 26,-13 50,-29 70,-44 19,-14 36,-27 50,-44 15,-17 29,-37 42,-58 13,-21 27,-42 39,-66 12,-23 22,-49 30,-75 9,-25 15,-50 19,-73 5,-23 8,-45 9,-56 2,-11 2,-11 2,-11 0,0 0,0 2,1 2,1 7,2 14,2 8,1 19,0 31,-3 2,-1 5,-1 7,-2 4,-2 8,-5 12,-8 10,-10 17,-25 22,-44 4,-20 6,-43 7,-65 1,-22 1,-42 -4,-58 -4,-16 -13,-28 -20,-34 -2,-3 -4,-5 -6,-6 3,9 6,20 8,32 3,15 4,31 3,50 -1,18 -5,39 -10,56 -5,17 -13,30 -23,39 -10,9 -23,13 -34,15 -10,2 -18,2 -22,1 -4,0 -4,0 -4,0 0,0 0,0 -1,7 -1,6 -4,19 -8,39 -4,19 -10,45 -18,72 -9,27 -20,54 -32,78 -11,23 -24,43 -38,63 -15,21 -32,41 -50,59 -19,18 -37,34 -55,48 -19,14 -36,27 -57,39 -20,12 -43,23 -68,31 -25,9 -51,14 -80,18 -29,4 -61,5 -96,7 -34,1 -71,2 -103,2 -32,-1 -59,-2 -87,-7 -28,-4 -59,-13 -86,-22 -27,-10 -51,-21 -72,-33 -22,-13 -41,-27 -58,-42 -16,-15 -30,-30 -43,-49 -13,-19 -25,-41 -36,-64 -10,-22 -19,-44 -26,-69 -7,-25 -13,-52 -18,-80 -4,-27 -6,-56 -7,-70 -1,-14 -1,-14 -1,-14 0,0 0,0 -8,3 -8,3 -24,8 -37,10 -13,1 -23,-2 -32,-9 -9,-7 -17,-19 -23,-31 -6,-13 -11,-28 -14,-45 -3,-18 -5,-39 -4,-57 1,-18 3,-33 8,-43 3,-6 6,-10 8,-14z"/>
   <path class="fil26" d="M24328 13794c4,5 9,9 14,14 5,4 10,8 15,12 6,3 12,5 19,7 8,2 17,4 26,4 10,1 19,1 29,1 10,0 21,-1 30,-3 8,-1 13,-4 18,-7 4,-3 8,-6 12,-11 4,-4 7,-10 9,-14 1,-3 1,-3 -15,-4 -15,-1 -47,-2 -78,-5 -31,-2 -62,-5 -75,-4 -13,1 -8,5 -4,10z"/>
   <path class="fil26" d="M24575 13540c-7,1 -17,1 -26,1 -8,-1 -15,-2 -20,-5 -6,-2 -10,-6 -14,-10 -4,-4 -8,-9 -13,-16 -4,-7 -10,-17 -15,-30 -6,-13 -11,-28 -14,-44 -4,-15 -6,-32 -6,-44 -1,-12 -1,-20 -1,-29 1,-10 2,-21 6,-31 4,-11 10,-21 16,-29 6,-9 12,-16 19,-21 8,-5 16,-9 22,-11 6,-3 10,-3 17,-1 6,2 15,7 29,29 14,22 33,61 43,97 9,36 9,70 5,92 -4,23 -13,33 -19,40 -6,6 -9,8 -13,9 -4,2 -8,3 -16,3z"/>
   <path class="fil26" d="M24306 13535c10,-1 18,-4 25,-11 7,-7 13,-18 21,-33 7,-14 15,-32 20,-50 5,-18 5,-35 5,-53 0,-17 0,-34 -2,-48 -2,-13 -5,-24 -10,-33 -4,-9 -11,-18 -17,-24 -7,-6 -14,-11 -21,-13 -7,-3 -15,-4 -28,-4 -13,0 -31,1 -47,5 -15,3 -27,9 -38,30 -10,20 -19,55 -17,88 3,33 17,65 32,89 15,25 31,42 44,51 13,8 24,8 33,6z"/>
   <path class="fil26" d="M23979 13117c0,46 0,129 0,171 0,41 0,41 -9,37 -9,-3 -27,-11 -43,-20 -15,-9 -29,-21 -39,-49 -11,-28 -19,-74 -18,-113 1,-40 11,-73 26,-90 15,-16 37,-15 52,-12 15,3 23,7 27,14 4,7 4,16 4,62z"/>
   <path class="fil26" d="M24899 13250c-1,-43 -1,-121 -1,-159 0,-39 0,-39 16,-39 16,0 47,0 64,11 17,11 19,32 20,57 1,24 0,51 -4,72 -4,22 -11,37 -27,56 -16,18 -41,40 -54,47 -13,6 -14,-3 -14,-45z"/>
   <path class="fil27" d="M24076 12874c-181,2 -198,-2 -229,-22 -1,0 -2,-1 -4,-1 -6,21 -16,57 -21,85 -3,14 -4,25 -5,35l0 0 0 1c0,4 0,11 0,22 -1,16 -1,41 0,72 1,30 2,66 4,91 2,20 3,34 5,45 1,7 1,13 2,19 1,9 2,17 3,22 1,5 2,8 2,10 1,5 1,5 14,8l52 13 10 3 -1 -2 4 1 0 -32 0 -134 0 -34 35 10c35,10 104,29 182,43 78,13 164,20 240,23 76,2 143,1 206,-4 63,-4 123,-10 185,-22 62,-12 127,-29 159,-37l32 -9 0 30 0 117 0 29 16 -10 35 -23 27 -17 16 -11 -1 -23c0,-12 -1,-30 -1,-50l-1 -6c0,-17 0,-38 0,-58 0,-20 0,-40 0,-57 0,-2 0,-4 0,-6 -1,-16 -2,-49 -8,-80 -5,-27 -14,-54 -23,-76 -24,14 -57,15 -201,19 -184,4 -547,13 -734,16z"/>
   <path class="fil28" d="M24969 12786c11,2 24,19 36,43 12,23 23,54 29,86 6,31 7,64 8,80 0,16 0,16 -71,16 -72,0 -215,0 -419,0 -204,0 -469,-1 -602,-1 -132,-1 -132,-1 -133,-11 0,-11 -1,-33 5,-63 5,-31 17,-71 23,-90 6,-20 6,-20 105,-23 100,-3 299,-8 481,-10 181,-2 346,-2 432,-8 86,-7 95,-20 106,-19z"/>
   <ellipse class="fil25" cx="24679" cy="13275" rx="94" ry="31"/>
   <path class="fil29" d="M25012 12838c13,-4 20,-10 31,-21 31,-28 94,-86 124,-118 3,-4 6,-7 9,-11 11,-11 12,-15 12,-18 0,-4 -3,-8 -39,-30 -36,-21 -106,-60 -140,-80 -35,-19 -35,-19 -35,-19 0,0 0,0 -82,-25 -82,-25 -246,-74 -339,-101 -92,-27 -113,-31 -133,-30 -11,1 -22,3 -46,9 -15,3 -31,6 -51,11 -56,14 -136,36 -216,60l-205 55c-92,24 -92,24 -120,49 -21,18 -59,51 -88,77 -25,17 -36,28 -41,37 -7,9 -7,12 -3,17 2,12 12,25 38,46 34,27 95,67 125,88 18,11 25,16 34,18 31,20 48,24 229,22 187,-3 550,-12 734,-16 147,-4 179,-5 202,-20z"/>
   <path class="fil28" d="M25016 12837c10,-4 17,-11 27,-20 31,-28 94,-86 124,-118 3,-4 6,-7 9,-11 11,-11 12,-15 12,-18 0,-4 -3,-8 -39,-30 -36,-21 -106,-60 -140,-80 -35,-19 -35,-19 -35,-19l-32 -10c47,33 117,81 154,109 45,34 46,39 38,51 -8,13 -23,32 -45,59 -22,26 -49,59 -63,75 -5,6 -8,9 -10,12z"/>
   <path class="fil28" d="M23835 12538c-29,9 -35,15 -53,31 -21,18 -59,51 -88,77 -25,17 -36,28 -41,37 -7,9 -7,12 -3,17 2,12 12,25 38,46 34,27 95,67 125,88 17,11 25,16 33,18 -3,-3 -7,-7 -12,-11 -29,-24 -86,-72 -115,-100 -29,-28 -30,-35 -30,-43 1,-8 3,-16 23,-39 19,-23 56,-62 78,-84 23,-22 30,-28 43,-36l2 -1z"/>
   <ellipse class="fil25" cx="24158" cy="13276" rx="94" ry="31"/>
   <ellipse class="fil30" cx="24418" cy="12643" rx="113" ry="137"/>
   <path class="fil31" d="M24815 13266l-268 0c-12,0 -23,5 -31,13l0 0c-3,3 -4,6 -6,9 -1,4 -2,9 -3,14 -1,5 -1,11 -1,14 0,3 0,3 0,3 0,0 0,0 -5,-2 -5,-1 -16,-4 -28,-6 -13,-3 -29,-5 -44,-6 -15,-1 -30,-1 -43,0 -13,2 -23,5 -31,8 -8,3 -14,5 -17,6 -3,2 -3,2 -3,2 0,0 0,0 0,-6 0,-5 0,-16 -2,-24 -1,-2 -1,-4 -2,-5 -7,-12 -21,-20 -36,-20l-268 0c-18,0 -34,11 -40,27l-154 -35 151 139 0 0 0 102c0,23 20,42 43,42l268 0c24,0 43,-19 43,-42l0 -124 166 0 0 124c0,23 19,42 43,42l268 0c23,0 42,-19 42,-42l0 -125 188 -179 -197 86c-8,-9 -20,-15 -33,-15z"/>
   <path class="fil32" d="M24810 13266l-263 0c-12,0 -23,5 -31,13l0 0c-3,3 -4,6 -6,9 -1,4 -2,9 -3,14 -1,5 -1,11 -1,14 0,3 0,3 0,3l-1 -1 0 15c0,11 -1,27 -1,42l0 0 0 124c0,23 19,42 43,42l144 0 1 -1c12,-8 17,-20 19,-26 2,-6 2,-6 -25,-5 -27,0 -81,0 -111,-2 -30,-2 -35,-7 -38,-14 -3,-7 -4,-16 -4,-41 -1,-25 -2,-66 -1,-96 1,-29 3,-46 8,-55 4,-10 10,-12 16,-13 6,-1 13,-1 43,-1 30,0 83,-1 118,0 34,0 50,1 62,0 13,-2 22,-6 28,-14 1,-2 2,-5 3,-7z"/>
   <path class="fil32" d="M24282 13266l-255 0c-18,0 -34,11 -40,27l-154 -35 151 139 0 0 0 102c0,23 20,42 43,42l156 0c13,-8 19,-17 23,-22 5,-7 5,-7 -19,-6 -23,0 -71,1 -102,1 -30,-1 -45,-3 -55,-6 -10,-3 -15,-8 -19,-13 -3,-6 -4,-12 -4,-42 -1,-29 -1,-83 0,-113 2,-31 6,-39 11,-44 4,-6 10,-9 22,-11 12,-2 31,-2 56,-2 26,0 58,0 88,1 31,0 59,1 78,-5 10,-3 17,-8 20,-13z"/>
   <path class="fil33" d="M24319 13273c-7,-4 -15,-7 -24,-7l-67 0c0,23 1,57 -1,84 -2,33 -7,57 -15,81 -8,23 -19,47 -33,66 -13,19 -29,34 -44,44l104 0c8,-7 15,-16 23,-26 11,-16 21,-35 29,-56 8,-21 14,-45 18,-69 4,-25 7,-51 8,-72 2,-18 2,-33 2,-45z"/>
   <path class="fil33" d="M24815 13266l-67 0c0,16 0,36 0,55 -1,28 -2,54 -7,78 -4,25 -13,49 -23,70 -10,21 -21,39 -33,53 -7,8 -13,14 -18,19l86 0c1,-1 3,-3 5,-4 10,-9 20,-20 30,-34 9,-15 19,-33 26,-53 8,-21 13,-44 17,-68 3,-24 5,-49 6,-72 0,-14 0,-27 -1,-38 -6,-4 -13,-6 -21,-6z"/>
   <path class="fil34" d="M24420 13743c-67,0 -128,-11 -173,-29 6,55 81,98 173,98 92,0 167,-43 173,-98 -45,18 -106,29 -173,29z"/>
   <path class="fil35" d="M24356 13621c-13,-1 -31,-1 -41,-4 -10,-4 -12,-10 -12,-20 1,-10 4,-23 11,-32 6,-9 16,-14 29,-18 12,-4 28,-6 36,-7 8,-1 8,-1 8,-1 0,0 0,0 0,13 0,14 0,41 0,55 0,14 0,14 0,14 0,0 0,0 -4,0 -5,0 -14,0 -27,0z"/>
   <line class="fil18" x1="24098" y1="14476" x2="24098" y2= "14864" />
   <line class="fil18" x1="23923" y1="14603" x2="24278" y2= "14603" />
   <rect class="fil36" x="25274" y="13881" width="844" height="1152"/>
   <rect class="fil10" x="25351" y="13957" width="691" height="1000"/>
   <path class="fil21" d="M25944 13776c-26,-7 -54,-15 -80,-20 -27,-6 -52,-8 -71,-8 -18,0 -29,2 -37,8 -8,5 -12,13 -17,19 -6,7 -11,11 -23,16 -11,5 -27,12 -41,20 -13,8 -24,19 -30,30 -7,10 -8,21 -1,30 7,9 23,15 34,24 12,8 19,18 29,28 10,10 23,21 43,30 21,8 48,13 76,15 29,1 58,-1 82,-10 25,-10 44,-27 65,-39 21,-13 44,-21 67,-29 22,-7 44,-13 52,-21 9,-9 3,-20 -12,-32 -15,-13 -39,-27 -63,-37 -24,-11 -47,-16 -73,-24z"/>
   <path class="fil22" d="M25756 13955c19,7 44,11 70,13 29,1 58,-1 82,-10 25,-10 44,-27 65,-39 21,-13 44,-21 67,-29 9,-3 19,-6 28,-9 -12,1 -25,4 -41,8 -22,7 -51,17 -78,28 -27,10 -52,20 -77,26 -25,7 -51,9 -74,10 -15,1 -28,1 -42,2z"/>
   <path class="fil22" d="M25944 13776c-26,-7 -54,-15 -80,-20 -27,-6 -52,-8 -71,-8 -18,0 -29,2 -37,8 -8,5 -12,13 -17,19 -6,7 -11,11 -23,16 -11,5 -27,12 -41,20 -13,8 -24,19 -30,30 -7,10 -8,21 -1,30 7,9 23,15 34,24 5,3 9,7 13,10l0 0c0,-12 5,-26 12,-39 7,-12 16,-21 26,-28 11,-6 22,-10 35,-15 13,-4 28,-10 50,-14 21,-4 50,-6 81,-6 32,0 65,2 96,7 31,5 59,14 96,37l5 3c-2,-4 -7,-9 -12,-13 -15,-13 -39,-27 -63,-37 -24,-11 -47,-16 -73,-24z"/>
   <rect class="fil10" x="24290" y="15500" width="227" height="109"/>
   <path class="fil18 str3" d="M23872 15625c-1,14 -2,27 -3,38 -4,49 -12,62 -29,70 -17,8 -44,11 -66,8 -22,-3 -40,-12 -51,-25 -11,-13 -17,-31 -19,-89 -2,-59 -2,-158 -1,-207 0,-50 0,-50 28,-50 29,0 85,0 114,0 28,0 28,0 28,13 1,11 1,31 1,74 38,0 88,1 116,2 38,2 39,3 41,29 3,27 7,78 6,106 -2,29 -8,34 -43,35 -32,1 -87,-1 -122,-4z"/>
   <rect class="fil18 str3" x="24103" y="15467" width="165" height="173" rx="30" ry="26"/>
   <path class="fil37" d="M23995 17375c149,0 269,71 269,158l22 0 0 75 -588 0 0 -75 27 0c0,-87 121,-158 270,-158z"/>
   <path class="fil37" d="M24751 17375c149,0 269,71 269,158l22 0 0 75 -588 0 0 -75 27 0c0,-87 121,-158 270,-158z"/>
   <rect class="fil24" x="24364" y="14160" width="85.9341" height="1310.51"/>
   <path class="fil24" d="M24208 14344c-10,-18 -30,-55 -43,-90 -13,-35 -19,-68 -22,-94 -2,-26 -2,-45 4,-64 2,-10 6,-19 10,-28 -7,12 -14,26 -19,41 -6,17 -9,36 -10,55 -2,19 -2,38 2,62 5,24 13,54 24,78 10,25 22,45 33,60 11,15 21,26 26,31l4 6 30 -35 117 -139 0 -41 -112 136 -34 41 -10 -19z"/>
   <path class="fil24" d="M24450 14175l0 44c4,5 8,11 14,18l104 129 26 32 5 -4c6,-4 17,-12 28,-27 12,-15 23,-37 33,-61 10,-25 18,-52 23,-80 6,-29 8,-58 7,-85 -2,-27 -7,-50 -21,-74 -11,-19 -27,-38 -41,-53 -2,0 -4,-1 -6,-1l-13 -4c14,8 28,19 39,33 13,16 23,34 28,54 6,19 6,38 4,64 -3,26 -9,59 -22,94 -13,35 -33,72 -43,90l-10 19 -34 -41 -121 -147z"/>
   <path class="fil24" d="M23951 14476c-5,1 -11,4 -16,9 -5,4 -10,11 -13,18 -4,8 -6,16 -7,70 -1,54 -1,152 0,205 1,52 2,59 5,65 2,6 6,12 12,17 5,4 13,7 28,8 15,2 36,2 82,2 47,0 117,0 156,-1 39,0 45,-1 53,-3 7,-2 16,-7 23,-13 6,-7 10,-16 13,-24 2,-8 2,-14 1,-67 -1,-53 -2,-153 -4,-205 -1,-53 -3,-59 -7,-64 -4,-5 -10,-9 -16,-12 -6,-3 -13,-5 -16,-5 -3,-1 -3,-1 -3,-1 0,0 0,0 2,1 2,1 6,3 9,6 4,4 8,8 11,14 3,7 5,15 7,66 1,51 1,145 0,196 -1,51 -3,59 -5,66 -2,7 -5,13 -12,17 -6,4 -15,6 -63,6 -49,1 -137,0 -184,-2 -48,-1 -54,-3 -59,-6 -6,-4 -9,-10 -11,-60 -2,-51 -1,-146 0,-199 2,-54 3,-64 5,-72 2,-8 5,-14 10,-19 4,-6 10,-11 10,-14 0,-2 -5,-1 -11,1z"/>
   <rect class="fil24" x="23928" y="14591" width="350.244" height="23.4441"/>
   <rect class="fil24" x="24088" y="14475" width="19.523" height="382.806"/>
   <line class="fil18" x1="24757" y1="14487" x2="24757" y2= "14874" />
   <line class="fil18" x1="24582" y1="14613" x2="24936" y2= "14613" />
   <path class="fil30" d="M24645 14616c58,-3 171,-2 230,-4 58,-1 61,-3 62,-7 2,-4 2,-9 1,-18 -1,-9 -2,-23 -3,-29 0,-7 0,-7 -59,-6 -58,0 -175,1 -233,2 -58,0 -58,0 -59,6 -1,7 -2,19 -2,32 -1,12 0,25 1,28 2,4 4,-2 62,-4z"/>
   <path class="fil24" d="M24610 14486c-5,2 -11,4 -16,9 -5,5 -10,11 -14,19 -3,7 -5,16 -6,69 -1,54 -1,153 -1,205 1,53 3,59 6,65 2,7 6,13 11,17 6,4 14,7 29,9 14,1 36,2 82,2 47,0 117,-1 156,-1 39,-1 45,-1 53,-4 7,-2 16,-6 22,-13 7,-7 11,-16 13,-24 3,-7 3,-14 2,-67 -1,-53 -2,-152 -4,-205 -1,-53 -4,-59 -8,-64 -3,-5 -9,-9 -15,-12 -6,-2 -13,-4 -16,-5 -3,-1 -3,-1 -3,-1 0,0 0,0 2,1 2,1 6,4 9,7 4,3 7,7 10,14 3,6 6,14 7,65 2,51 2,145 1,196 -1,51 -3,59 -5,66 -3,8 -6,14 -12,17 -6,4 -15,6 -63,7 -49,0 -137,-1 -185,-2 -47,-1 -53,-3 -59,-7 -5,-4 -9,-9 -10,-60 -2,-50 -1,-146 0,-199 1,-53 3,-64 5,-72 2,-8 5,-13 9,-19 5,-5 10,-11 11,-13 0,-3 -5,-2 -11,0z"/>
   <rect class="fil24" x="24587" y="14601" width="350.244" height="23.4441"/>
   <rect class="fil24" x="24747" y="14602" width="19.523" height="265.751"/>
   <path class="fil30" d="M24065 14055c-7,-1 -16,-1 -32,0 -16,1 -37,3 -53,5 -16,3 -25,7 -30,11 -4,4 -4,9 -1,12 3,3 8,5 24,4 15,-1 41,-6 61,-11 21,-6 35,-12 39,-16 5,-3 0,-5 -8,-5z"/>
   <path class="fil30" d="M23904 14076c-9,-2 -20,-1 -31,0 -11,1 -22,2 -32,4 -10,2 -20,6 -27,10 -7,4 -12,9 -12,13 -1,4 1,7 6,10 4,2 11,4 22,4 11,0 28,-2 41,-4 14,-2 26,-5 35,-8 8,-4 13,-7 16,-11 3,-3 3,-7 0,-11 -3,-3 -9,-6 -18,-7z"/>
   <path class="fil30" d="M24765 14046c8,0 17,0 33,1 16,1 37,4 53,7 15,3 25,7 29,12 5,4 4,8 1,11 -3,4 -8,6 -24,4 -15,-2 -41,-7 -61,-13 -20,-6 -34,-13 -39,-17 -4,-3 1,-5 8,-5z"/>
   <path class="fil30" d="M24927 14071c8,-1 20,1 31,2 10,1 21,2 31,5 10,2 20,6 27,10 7,4 11,9 12,13 1,5 -2,8 -7,10 -4,2 -11,4 -22,3 -11,0 -27,-2 -41,-4 -14,-3 -26,-6 -34,-10 -8,-3 -13,-7 -16,-11 -3,-3 -3,-7 0,-11 3,-3 10,-6 19,-7z"/>
   <circle class="fil24" cx="24449" cy="15300" r="36"/>
   <circle class="fil24" cx="24451" cy="15126" r="36"/>
   <circle class="fil24" cx="24453" cy="14953" r="36"/>
   <circle class="fil24" cx="24455" cy="14779" r="36"/>
   <circle class="fil24" cx="24457" cy="14605" r="36"/>
   <circle class="fil24" cx="24459" cy="14431" r="36"/>
   <rect class="fil38" x="25484" y="14023" width="414.045" height="36.4594"/>
   <circle class="fil39" cx="25486" cy="14827" r="74"/>
   <path class="fil18 str4" d="M25794 14838c0,-1 33,-33 7,-1 -59,72 36,-9 59,-21 -84,71 -43,43 37,4 56,-27 -28,5 -52,21 -135,90 79,-5 74,-30 -40,2 -126,100 -21,21 11,-9 53,-72 13,-40 -1,0 -128,108 -78,75 13,-9 74,-40 76,-43 -47,7 -119,106 -7,24 25,-18 -36,20 15,-4 29,-13 -26,-3 -25,8 39,0 55,-34 20,-11 -12,7 11,-1 -5,5 -18,6 54,6 76,-3 2,-1 3,0 5,0"/>
   <path class="fil40" d="M23874 15410c0,-13 -1,-21 -1,-27 0,-13 0,-13 -28,-13l-101 0 -13 0c-28,0 -28,0 -28,50 -1,49 -1,148 1,207 2,58 8,76 19,89 4,5 9,9 15,13 0,58 0,132 0,227 2,346 8,969 10,1281l2 230c43,-54 136,-92 245,-92 110,0 204,39 246,94 1,-33 3,-80 5,-146 6,-226 19,-678 29,-918 10,-240 16,-269 27,-292 10,-24 24,-42 46,-51 23,-9 52,-9 77,-1 25,9 45,26 56,54 11,29 13,69 15,312 2,242 3,686 4,908l1 139c39,-58 136,-99 250,-99 109,0 202,38 245,93l7 -214 39 -1226 3 -100c4,2 9,3 15,3 7,0 17,-3 25,-8 8,-5 14,-11 20,-19 5,-8 9,-16 12,-33 2,-16 4,-41 5,-116 0,-76 0,-202 -1,-270 -1,-68 -2,-76 -5,-84 -2,-8 -6,-15 -12,-20 -5,-4 -13,-7 -21,-9 -8,-2 -17,-4 -24,-4 -7,1 -12,3 -17,7 -1,0 -2,1 -3,2l-1 1c-5,6 -9,15 -11,24 -2,9 -3,18 -3,22 0,5 0,5 -7,7 -7,1 -22,5 -62,11 -40,5 -106,11 -140,15 -20,3 -29,5 -33,8 -27,2 -58,5 -91,6 -35,0 -73,-2 -105,-3 -33,0 -59,1 -106,0 -46,-1 -112,-3 -158,-5 -45,-2 -71,-3 -107,-6 -37,-4 -84,-8 -139,-15 -54,-8 -115,-18 -152,-24 -24,-4 -38,-6 -50,-8zm1157 488l0 0 0 21 0 -21z"/>
   <path class="fil37" d="M24968 17440c11,9 20,18 28,28l7 -214 39 -1226 3 -100c4,2 9,3 15,3 7,0 17,-3 25,-8 4,-2 7,-5 10,-8 0,-33 -1,-64 -3,-91 -9,-187 -38,-228 -54,-234 -16,-7 -19,21 -29,350 -10,329 -27,959 -35,1274 -3,108 -5,179 -6,226zm63 -1542l0 0 0 21 0 -21z"/>
   <path class="fil37" d="M24221 17448c8,7 15,14 20,21 1,-33 3,-80 5,-146 6,-226 19,-678 29,-918 10,-240 16,-269 27,-292 10,-24 24,-42 46,-51 23,-9 52,-9 77,-1 25,9 45,26 56,54 11,29 13,69 15,312 2,242 3,686 4,908l1 139c6,-9 13,-17 22,-26l1 -137c2,-210 4,-630 4,-863 0,-234 -2,-281 -9,-317 -7,-37 -19,-63 -36,-82 -17,-20 -41,-33 -67,-39 -26,-6 -55,-5 -78,4 -24,10 -43,28 -57,56 -13,28 -21,65 -27,133 -5,68 -9,166 -12,318 -4,151 -7,357 -11,527 -3,170 -7,303 -9,378l-1 22z"/>
   <path class="fil37" d="M23717 15708c2,3 4,5 6,8 4,5 9,9 15,13 0,58 0,132 0,227 2,346 8,969 10,1281l2 230c6,-7 13,-14 20,-21l-1 -255c-2,-297 -6,-891 -8,-1198 -3,-307 -5,-328 -18,-324 -6,2 -15,10 -26,39z"/>
   <path class="fil32" d="M23881 15644c-3,8 -4,20 -6,34 -3,15 -9,32 -16,44 -7,13 -16,20 -26,25 -9,5 -20,7 -32,6 -12,0 -25,-2 -38,-5 -12,-2 -23,-5 -34,-10 -10,-6 -20,-13 -28,-53 -9,-39 -17,-111 -18,-170 -1,-59 4,-104 7,-127 3,-24 5,-25 36,-27 31,-1 92,-2 125,-1 32,0 35,3 36,17 0,13 -2,39 -4,52 -1,13 -1,13 19,13 20,1 61,3 86,6 26,3 37,8 43,16 6,8 8,20 10,44 1,23 2,59 1,80 -1,22 -4,30 -8,36 -3,6 -9,10 -32,11 -24,0 -65,-3 -89,-3 -24,1 -29,4 -32,12z"/>
   <path class="fil32" d="M24777 15474c0,-12 3,-14 37,-18 34,-4 100,-10 140,-16 40,-5 54,-9 61,-11 8,-2 8,-2 8,-6 0,-4 0,-13 3,-22 2,-9 6,-18 11,-24 6,-6 13,-9 20,-10 8,0 17,1 25,3 8,3 15,5 21,10 6,5 9,12 12,19 3,8 4,17 5,85 1,67 1,194 0,270 0,75 -2,99 -5,116 -3,16 -6,25 -12,33 -5,7 -11,14 -19,19 -8,4 -18,7 -26,8 -8,0 -14,-3 -19,-6 -5,-3 -9,-7 -10,-48 -2,-42 -2,-120 -1,-159 0,-40 0,-40 -9,-39 -9,0 -26,1 -50,0 -24,-1 -54,-4 -78,-8 -25,-3 -43,-7 -58,-12 -15,-4 -27,-9 -35,-16 -9,-6 -15,-14 -18,-33 -3,-19 -3,-48 -3,-74 -1,-26 -1,-49 0,-61z"/>
   <path class="fil41" d="M25097 15376c2,1 4,3 6,4 6,5 9,12 12,19 3,8 4,17 5,85 1,67 1,194 0,270 0,75 -2,99 -5,116 -3,16 -6,25 -12,33 -3,5 -7,10 -12,13 0,-14 0,-34 0,-61 1,-98 1,-293 4,-397 0,-38 1,-64 2,-82z"/>
   <path class="fil32" d="M24241 15640l0 -173c-1,0 -1,0 -2,0l-106 0c-16,0 -30,13 -30,30l0 113c0,17 14,30 30,30l106 0 2 0z"/>
   <path class="fil32" d="M24565 15465l0 175c1,0 2,0 2,0l106 0c17,0 30,-14 30,-32l0 -121c0,-40 -82,-22 -115,-22 -8,0 -15,0 -23,0z"/>
   <rect class="fil42" x="24241" y="15450" width="324" height="211"/>
   <rect class="fil32" x="24294" y="15497" width="224" height="115"/>
   <path class="fil43" d="M24819 17402c17,4 34,8 51,15 18,8 36,18 52,28 16,10 28,21 37,31 9,10 14,18 18,28 4,9 7,19 8,24 1,5 1,5 -19,5 -20,0 -60,0 -80,0 -19,0 -19,0 -19,0 0,0 0,0 -1,-6 0,-7 0,-20 -3,-35 -3,-15 -7,-33 -15,-46 -7,-13 -17,-21 -26,-29 -9,-8 -18,-14 -27,-18 -9,-5 -20,-7 -25,-8 -5,-1 -5,-1 4,1 9,2 27,6 45,10z"/>
   <path class="fil43" d="M24061 17402c17,4 34,8 51,15 18,8 37,18 52,28 16,10 28,21 37,31 9,10 14,18 18,28 4,9 7,19 8,24 2,5 2,5 -18,5 -20,0 -60,0 -80,0 -20,0 -20,0 -20,0 0,0 0,0 -1,-6 0,-7 0,-20 -3,-35 -2,-15 -7,-33 -15,-46 -7,-13 -17,-21 -26,-29 -9,-8 -17,-14 -27,-18 -9,-5 -19,-7 -25,-8 -5,-1 -5,-1 4,1 9,2 28,6 45,10z"/>
   <path class="fil18 str5" d="M25442 14172l515 0m-515 245l515 0m-515 -31l515 0m-515 -30l515 0m-515 -31l515 0m-515 -30l515 0m-515 -31l515 0m-515 -30l515 0m-515 -31l515 0"/>
  </g>
  <g id="_2996852915312">
   <path class="fil44" d="M37916 16930c-22,43 -54,111 -80,155 -27,43 -48,62 -94,73 -46,12 -117,18 -1024,16 -906,-1 -2648,-9 -3526,-14 -879,-4 -893,-6 -904,-23 -10,-18 -17,-52 -27,-111 -11,-59 -25,-142 -31,-184 -6,-42 -4,-44 -310,-44 -307,0 -923,2 -1256,18 -334,17 -385,48 -410,90 -25,41 -24,93 -26,138 -2,45 -7,83 -20,105 -12,21 -32,27 -116,11 -84,-15 -231,-50 -327,-75 -97,-24 -142,-37 -178,-45 -37,-8 -66,-11 -91,-17 -24,-7 -44,-17 -58,-37 -14,-20 -22,-49 -16,-124 5,-74 23,-194 35,-288 11,-95 15,-163 23,-271 9,-107 22,-253 33,-348 12,-95 21,-139 33,-174 13,-35 29,-61 74,-103 46,-43 121,-101 224,-157 104,-57 236,-112 385,-163 149,-51 315,-97 470,-135 155,-37 298,-66 490,-95 192,-28 432,-56 745,-89 313,-33 700,-71 893,-90 193,-19 193,-19 193,-19 0,0 0,0 42,-35 43,-35 127,-105 264,-202 137,-97 327,-221 503,-323 175,-103 336,-185 472,-244 137,-60 249,-97 388,-133 139,-36 305,-72 495,-98 190,-26 404,-44 623,-55 220,-11 445,-16 653,-10 209,6 400,23 575,42 176,20 335,43 531,83 196,40 428,98 544,127 116,29 116,29 121,34 4,4 14,14 24,24 11,9 22,20 254,106 231,87 682,249 928,335 246,85 287,95 340,100 53,5 117,6 174,14 58,8 108,23 220,40 112,17 286,37 442,48 155,11 292,14 370,19 77,5 94,13 106,28 12,16 18,38 21,92 3,54 1,140 1,250 0,110 2,245 2,312 1,67 1,67 1,67 0,0 0,0 15,9 15,10 45,28 76,56 31,29 63,67 86,114 23,48 38,105 34,285 -3,180 -24,483 -38,638 -14,155 -20,161 -53,169 -32,8 -90,17 -338,19 -248,1 -685,-6 -1157,-5 -473,1 -979,9 -1280,13 -302,4 -398,4 -452,12 -55,9 -68,26 -91,69z"/>
   <polygon class="fil45" points="32967,16642 32959,16911 36005,16855 36084,16594 "/>
   <path class="fil46" d="M30266 16890c-5,5 -9,10 -12,16 -25,41 -24,93 -26,138 -2,45 -7,83 -20,105 -12,21 -32,27 -116,11 -84,-15 -231,-50 -327,-75 -97,-24 -142,-37 -178,-45 -37,-8 -66,-11 -91,-17 -24,-7 -44,-17 -58,-37 -14,-20 -22,-49 -16,-124 2,-35 8,-81 14,-129 67,1 141,6 220,11 170,11 361,26 466,32 106,6 125,3 136,50 4,17 6,39 8,64z"/>
   <path class="fil46" d="M41113 15413l0 71c1,67 1,67 1,67 0,0 0,0 15,9 15,10 45,28 76,56 31,29 63,67 86,114 23,48 38,105 34,285 -3,180 -24,483 -38,638 -14,155 -20,161 -53,169 -32,8 -90,17 -338,19 -226,1 -610,-4 -1034,-5 0,-17 1,-36 1,-57 2,-66 4,-149 -17,-243 -20,-93 -62,-197 -107,-286 -45,-88 -93,-161 -145,-225 -53,-65 -111,-122 -140,-150 -29,-28 -29,-28 69,-41 98,-12 295,-37 462,-69 166,-32 304,-70 398,-107 94,-37 146,-72 181,-109 35,-36 53,-73 62,-106 8,-34 7,-64 22,-78 15,-14 47,-11 138,-2 85,10 222,25 327,50z"/>
   <path class="fil5" d="M41317 16231c-2,37 -4,76 -7,113 -25,4 -51,5 -75,6 -45,2 -83,3 -114,-3 -31,-6 -55,-19 -70,-38 -16,-18 -24,-42 -28,-54 -4,-12 -4,-12 61,-14 56,-2 158,-6 233,-10z"/>
   <path class="fil47" d="M37916 16930c-22,43 -54,111 -80,155 -27,43 -48,62 -94,73 -46,12 -117,18 -1024,16 -906,-1 -2648,-9 -3526,-14 -879,-4 -893,-6 -904,-23 -10,-18 -17,-52 -27,-111l-1 -2 0 -1 0 -1 0 -1 0 -1 -1 -1 0 -1 0 -1 0 -2 0 0 -1 -1 0 -2 0 0 0 -2 0 -1 -1 -1 0 -2 0 0 0 -2 0 -1 0 0 -1 -2 0 -1 0 -1 0 -2 -1 0 0 -2 0 -1 0 -1 -1 -2 0 0 0 -2 0 -1 0 -1 -1 -1 0 -1 0 -1 0 -2 0 -1 -1 -1 0 -2 0 0 0 -2 0 -1 -1 -1 0 -2 0 0 0 -2 0 -1 -1 -1 0 -2 0 0 0 -2 -1 -1 0 -1 0 -2 0 -1 0 -1 -1 -2 0 0 0 -2 0 -1 0 -1 -1 -2 0 0 0 -2 0 -1 0 -1 -1 -2 0 0 0 -2 0 -2 0 0 -1 -2 0 -1 0 -1 0 -2 0 0 -1 -2 0 -1 0 -1 0 -2 -1 0 0 -1 0 -2 0 0 0 -2 -1 -1 0 -1 0 -2 0 -1 0 -1 -1 -2 0 0 0 -2 0 -1 0 -1 -1 -2 0 0 0 -2 0 -1 0 -1 -1 -1c89,-7 315,-13 890,-28 947,-26 2840,-76 3793,-86 954,-9 967,21 980,68 5,21 10,44 16,69l-1 1 -1 2z"/>
   <path class="fil48" d="M37821 17106c-20,29 -41,43 -79,52 -46,12 -117,18 -1024,16 -906,-1 -2648,-9 -3526,-14 -879,-4 -893,-6 -904,-23 -9,-17 -16,-47 -25,-97 79,-5 248,-6 619,-10 683,-7 2049,-20 2954,-32 904,-12 1347,-22 1603,-8 256,15 325,54 365,97 7,6 12,13 17,19z"/>
   <path class="fil44 str3" d="M30277 16880c-15,11 -25,26 -37,50 -7,13 -14,28 -22,43 -13,-48 -22,-97 -28,-147 -4,-39 -6,-78 -6,-118 0,-13 0,-27 1,-41 2,-43 5,-74 9,-103 7,-48 19,-90 32,-125 13,-36 28,-66 34,-51 5,15 1,74 4,156 3,81 12,185 13,278 0,20 0,39 0,58z"/>
   <path class="fil49" d="M29462 17009c-9,-6 -17,-14 -24,-23 -14,-20 -22,-49 -16,-124 5,-74 23,-194 35,-288l0 -2c20,-17 37,-29 56,-40 41,-26 90,-53 127,-66 37,-14 62,-16 86,-12 23,3 46,11 64,30 17,19 31,50 36,84 6,35 5,75 -2,111 -6,35 -18,67 -41,106 -23,39 -57,85 -90,118 -33,34 -65,55 -95,72 -29,15 -56,27 -136,34z"/>
   <path class="fil50" d="M29670 15635c44,-35 103,-75 174,-114 104,-57 236,-112 385,-163 149,-51 315,-97 470,-135 155,-37 298,-66 490,-95 192,-28 432,-56 745,-89 313,-33 700,-71 893,-90 193,-19 193,-19 193,-19 0,0 0,0 42,-35 43,-35 127,-105 264,-202 137,-97 327,-221 503,-323 175,-103 336,-185 472,-244 137,-60 249,-97 388,-133 139,-36 305,-72 495,-98 190,-26 404,-44 623,-55 220,-11 445,-16 653,-10 209,6 400,23 575,42 176,20 335,43 531,83 196,40 428,98 544,127 116,29 116,29 121,34 4,4 14,14 24,24 11,9 22,20 254,106 231,87 682,249 928,335 246,85 287,95 340,100 53,5 117,6 174,14 58,8 108,23 220,40 112,17 286,37 442,48 155,11 292,14 370,19 77,5 94,13 106,28 12,16 18,38 21,92 3,54 1,140 1,250 0,39 0,81 1,122 -119,-28 -245,-58 -360,-80 -177,-35 -330,-51 -936,-37 -607,13 -1667,55 -3547,142 -1881,87 -4581,219 -5932,285 -275,13 -494,24 -667,31z"/>
   <path class="fil51" d="M33045 14910l17 -15c43,-35 127,-105 264,-202 137,-97 327,-221 503,-323 175,-103 336,-185 472,-244 85,-37 160,-65 238,-90 13,8 20,18 21,32 0,16 -8,35 -59,72 -51,36 -145,90 -276,161 -132,71 -300,159 -457,249 -156,89 -301,180 -398,241 -97,60 -147,90 -188,105 -41,16 -72,18 -110,16 -9,-1 -18,-1 -27,-2z"/>
   <path class="fil52" d="M29721 15934c-15,24 -33,46 -51,69 -19,23 -38,46 -54,61 -16,16 -29,24 -40,26 -12,3 -21,0 -27,-9 -6,-10 -10,-27 -7,-65 2,-38 10,-97 16,-136 7,-38 12,-57 20,-71 9,-15 20,-26 36,-34 16,-8 37,-12 57,-13 21,-1 40,1 54,5 13,4 22,9 27,25 5,16 7,42 2,68 -5,25 -18,50 -33,74z"/>
   <path class="fil53" d="M39038 15236c-701,41 -1825,107 -3178,165 -1352,58 -2935,108 -3726,133 -791,25 -791,25 -791,25 0,0 0,0 374,-21 375,-21 1124,-63 2030,-117 906,-54 1968,-120 2876,-168 907,-47 1658,-76 2245,-88 587,-12 1009,-7 1220,-4 211,2 211,2 211,2 0,0 0,0 -140,8 -140,8 -419,24 -1121,65z"/>
   <path class="fil54" d="M30012 15976c113,-77 287,-203 374,-267 87,-63 87,-63 87,-63 0,0 0,0 -35,-2 -34,-2 -103,-6 -178,-3 -76,2 -159,12 -238,29 -78,18 -152,45 -207,69 -54,24 -90,47 -115,71 -25,25 -40,51 -49,87 -9,37 -13,83 -11,118 2,35 10,58 37,72 27,14 73,18 122,6 49,-12 100,-39 213,-117z"/>
   <path class="fil49" d="M37672 14904c-367,14 -796,30 -1260,50 -465,20 -966,43 -1519,70 -552,27 -1156,58 -1453,66 -297,9 -286,-4 -235,-41 50,-36 141,-95 187,-125 45,-30 45,-30 48,-39 3,-9 8,-27 21,-49 13,-21 34,-44 61,-64 26,-20 58,-36 86,-46 27,-11 51,-16 75,-21 25,-4 50,-8 62,-10 13,-2 13,-2 13,-2 0,0 0,0 69,-45 69,-45 208,-135 342,-214 133,-80 263,-150 376,-205 113,-56 211,-97 309,-130 99,-34 197,-60 317,-78 119,-18 259,-27 404,-33 145,-6 295,-9 457,-7 161,2 334,9 469,16 135,6 233,13 367,29 135,17 306,43 463,71 156,27 297,56 455,97 158,40 334,91 485,140 152,49 280,95 375,133 95,38 157,69 200,97 43,27 66,52 78,77 12,24 12,48 4,74 -8,27 -24,56 -44,79 -20,23 -46,40 -86,50 -40,11 -95,15 -275,23 -180,9 -485,22 -851,37z"/>
   <path class="fil55 str3" d="M36853 14384c-33,123 -81,297 -105,384 -23,87 -23,87 -23,87 0,0 0,0 290,-9 291,-8 873,-25 1195,-41 321,-16 383,-31 421,-48 37,-17 51,-37 48,-62 -3,-26 -21,-58 -80,-95 -59,-38 -157,-81 -299,-134 -141,-53 -324,-115 -561,-175 -236,-60 -526,-118 -671,-147 -145,-29 -145,-29 -145,-29 0,0 0,0 -10,36 -9,37 -27,109 -60,233z"/>
   <path class="fil55 str3" d="M36706 14311c-35,127 -93,336 -122,440 -29,104 -29,104 -29,104 0,0 0,0 0,0 0,0 0,0 -179,10 -179,10 -536,29 -983,54 -447,24 -984,53 -1252,68 -268,14 -268,14 -268,14 0,0 0,0 4,-31 5,-32 14,-95 15,-140 2,-45 -5,-71 -19,-88 -14,-16 -35,-23 -45,-26 -11,-3 -11,-3 -11,-3 0,0 0,0 54,-34 53,-34 160,-101 272,-166 112,-64 229,-126 344,-182 115,-56 227,-106 341,-145 114,-38 230,-64 361,-85 130,-20 275,-35 443,-43 168,-7 360,-9 552,-2 193,6 386,21 483,28 97,7 97,7 97,7 0,0 0,0 -6,24 -6,23 -17,69 -52,196z"/>
   <path class="fil51" d="M39553 14575c230,83 241,91 245,97 2,4 2,7 1,11 -8,-1 -15,-1 -22,-2 -53,-5 -94,-15 -340,-100 -246,-86 -697,-248 -928,-335 -232,-86 -243,-97 -254,-106 -2,-3 -5,-5 -7,-7 11,0 25,2 51,8 31,6 78,19 326,105 248,86 698,246 928,329z"/>
   <path class="fil5" d="M41111 15130l0 42c0,110 2,245 2,312 1,67 1,67 1,67l1 1c-21,9 -47,11 -75,12 -57,2 -124,0 -192,-14 -68,-13 -136,-40 -210,-90 -73,-50 -151,-124 -193,-172 -43,-48 -51,-70 -45,-93 7,-22 28,-45 70,-68 41,-24 103,-49 167,-65 64,-16 130,-23 189,-23 60,0 112,7 154,18 41,12 72,27 100,46 11,7 21,15 31,27z"/>
   <path class="fil49" d="M38895 15674c571,0 1034,463 1034,1034 0,43 -3,86 -8,128 -42,0 -85,0 -127,0 5,-42 9,-85 9,-128 0,-501 -407,-908 -908,-908 -467,0 -852,352 -902,806 17,57 31,144 33,192 3,56 -11,59 -24,62l-2 1 0 1c-7,2 -13,3 -19,5 -5,1 -9,3 -13,5 -10,5 -18,11 -26,20 -7,8 -15,20 -25,39 -10,19 -24,47 -40,78 -17,31 -37,66 -47,83 -10,18 -10,18 -10,18 0,0 0,0 3,-38 3,-38 9,-113 16,-186 7,-73 13,-144 18,-191 2,-16 3,-30 5,-41 28,-546 479,-980 1033,-980z"/>
   <g>
    <path class="fil56 str3" d="M38895 15800c-502,0 -908,407 -908,908 0,501 406,908 908,908 501,0 908,-407 908,-908 0,-501 -407,-908 -908,-908zm603 1020c-61,7 -176,10 -357,15 -180,5 -427,13 -588,17 -161,4 -236,4 -273,4 -38,0 -38,0 -38,0 0,0 0,0 5,11 4,12 13,34 32,74 18,39 46,96 78,143 33,46 70,83 114,118 44,34 95,66 140,89 45,23 83,37 133,46 49,10 110,14 159,15 48,1 85,0 135,-11 51,-10 114,-30 173,-59 58,-29 112,-67 162,-125 49,-57 94,-133 127,-198 33,-65 54,-117 61,-138 6,-20 -2,-8 -63,-1z"/>
    <circle class="fil57" cx="38886" cy="16699" r="475"/>
    <circle class="fil19 str3" cx="38895" cy="16708" r="107"/>
    <path class="fil58" d="M38895 16010c-386,0 -699,312 -699,698 0,386 313,698 699,698 385,0 698,-312 698,-698 0,-386 -313,-698 -698,-698zm0 492c-14,0 -27,2 -39,4l-16 -427c18,-1 36,-2 55,-2 14,0 27,1 41,2l-3 427c-13,-2 -25,-4 -38,-4zm-69 12c-46,16 -84,48 -108,89l-366 -216c84,-142 222,-249 387,-290l87 417zm-122 117c-8,21 -13,43 -15,66l-416 -94c7,-47 20,-92 38,-134l393 162zm-13 104c5,43 24,82 52,112l-312 289c-104,-112 -167,-263 -167,-428 0,-9 0,-18 0,-27l427 54zm75 134c17,13 36,24 57,32l-228 362c-35,-18 -68,-40 -98,-65l269 -329zm85 40c14,3 29,5 44,5 23,0 45,-4 66,-11l190 382c-78,35 -165,54 -256,54 -83,0 -162,-16 -235,-45l191 -385zm136 -17c19,-9 36,-22 51,-36l281 319c-31,29 -66,54 -104,77l-228 -360zm74 -63c24,-32 38,-72 39,-115l424 -45c1,13 2,26 2,39 0,162 -62,310 -162,422l-303 -301zm38 -148c-4,-24 -11,-48 -22,-69l405 -136c13,34 24,69 31,106l-414 99zm-40 -96c-23,-32 -56,-56 -93,-70l64 -423c174,38 322,148 409,298l-380 195z"/>
    <circle class="fil59" cx="38892" cy="16705" r="107"/>
   </g>
   <path class="fil49" d="M31218 15674c572,0 1035,463 1035,1034 0,34 -2,67 -5,100l-2 27c-1,25 -2,50 -3,63 -1,12 -1,12 -1,12l-2 -1 -1 6c0,0 0,0 -30,-3 -30,-3 -91,-8 -173,-15 -81,-7 -184,-17 -288,-23 -105,-6 -210,-8 -354,-3 -145,5 -328,19 -469,40 -141,22 -240,52 -323,79 -82,26 -148,49 -209,74 -60,25 -116,52 -148,71 -20,11 -31,19 -38,22 -6,5 -10,8 -14,9 -5,3 -8,4 -10,1 -2,1 -4,1 -6,1 0,-9 0,-21 0,-36 1,-81 2,-245 4,-354 1,-45 2,-81 4,-111 21,-552 476,-993 1033,-993zm898 897c-66,-436 -443,-770 -898,-770 -487,0 -885,384 -907,867 46,-61 125,-104 320,-129 211,-28 558,-36 836,-29 279,8 490,30 608,53 15,2 29,5 41,8z"/>
   <g>
    <path class="fil56" d="M31218 15792c-501,0 -907,406 -907,908 0,501 406,907 907,907 502,0 908,-406 908,-907 0,-502 -406,-908 -908,-908zm604 1019c-62,8 -176,10 -357,16 -181,5 -427,13 -588,17 -161,4 -236,4 -274,4 -37,0 -37,0 -37,0 0,0 0,0 4,11 5,11 14,33 33,73 18,40 46,96 78,143 32,47 69,84 114,118 44,34 95,66 140,89 45,23 83,38 132,47 50,9 111,13 159,14 49,2 86,0 136,-10 50,-11 114,-30 172,-59 59,-29 113,-68 162,-125 50,-57 95,-134 128,-199 33,-64 54,-117 60,-137 7,-21 -1,-9 -62,-2z"/>
    <circle class="fil57" cx="31209" cy="16690" r="475"/>
    <circle class="fil19" cx="31218" cy="16700" r="107"/>
    <path class="fil58" d="M31218 16001c-385,0 -698,313 -698,699 0,385 313,698 698,698 386,0 699,-313 699,-698 0,-386 -313,-699 -699,-699zm0 493c-13,0 -26,1 -39,4l-15 -427c18,-2 36,-2 54,-2 14,0 28,0 42,1l-4 427c-12,-2 -25,-3 -38,-3zm-68 12c-46,16 -84,48 -108,88l-367 -216c85,-142 223,-248 387,-290l88 418zm-123 117c-8,20 -13,42 -14,65l-417 -94c8,-46 21,-91 38,-133l393 162zm-13 103c6,44 25,82 53,113l-312 289c-104,-113 -168,-263 -168,-428 0,-10 1,-19 1,-28l426 54zm76 134c17,14 36,25 56,32l-227 363c-35,-19 -68,-41 -98,-66l269 -329zm84 40c15,4 29,5 44,5 24,0 46,-4 67,-11l190 382c-78,35 -165,54 -257,54 -83,0 -162,-16 -234,-45l190 -385zm136 -16c19,-10 37,-22 52,-37l281 319c-32,29 -67,55 -104,77l-229 -359zm75 -64c23,-32 38,-72 39,-114l424 -45c1,13 1,25 1,39 0,162 -61,310 -161,421l-303 -301zm37 -147c-3,-25 -10,-48 -21,-69l404 -136c14,33 24,69 32,105l-415 100zm-39 -97c-23,-31 -56,-56 -93,-69l64 -424c174,38 321,148 409,298l-380 195z"/>
    <circle class="fil59" cx="31215" cy="16696" r="107"/>
   </g>
   <path class="fil48" d="M35875 15238c8,20 13,42 15,69 1,27 -2,59 -16,83 -15,25 -41,42 -85,52 -44,10 -106,12 -159,0 -53,-12 -96,-38 -123,-63 -26,-25 -35,-49 -31,-69 3,-21 21,-38 69,-59 49,-21 130,-46 185,-58 55,-12 86,-10 106,-1 21,9 31,26 39,46z"/>
   <path class="fil60" d="M35925 15350c-111,13 -328,19 -444,17 -115,-1 -128,-9 -133,-20 -6,-10 -3,-23 6,-35 9,-11 25,-20 127,-32 103,-13 291,-29 397,-34 105,-5 128,0 141,10 13,10 17,24 18,42 0,18 -2,39 -112,52z"/>
  </g>
  <polygon class="fil61" points="48792,19559 2,19559 2,17704 48792,17704 "/>
  <path class="fil60" style="mask:url(#id0)" d="M30385 15712c-109,75 -279,207 -401,285 -122,78 -196,102 -415,208 -220,105 -586,293 -1084,480 -498,188 -1128,375 -1628,488 -500,113 -870,151 -1055,170 -185,20 -185,20 -185,20 0,0 0,0 0,0 0,0 0,0 0,-434 0,-435 0,-1303 0,-1737 0,-434 0,-434 0,-434 0,0 0,0 829,141 828,141 2486,422 3291,571 805,150 757,167 648,242z"/>
  <rect class="fil62" x="3889" y="13758" width="156" height="3851"/>
  <rect class="fil62" x="8139" y="13774" width="156" height="3835"/>
  <g id="_2996852908880">
   <path class="fil63" d="M6126 14071l70 0 -1 139 -69 1 0 -140zm1250 141c12,-32 57,-119 76,-140 104,-2 77,-13 120,66 16,29 25,43 38,73 -121,2 -43,-17 -117,-17 -74,-1 9,15 -117,18zm-1816 -4c17,-40 57,-94 70,-137l94 0 71 139c-116,5 -93,-36 -157,-8 -23,10 -33,16 -78,6zm-1169 3l-70 0 0 -140c95,-1 66,-3 71,48l78 1 2 -48 70 -2 -1 141 -69 0 0 -57 -82 0 1 57zm1513 0l-67 0 1 -138 79 -2c22,22 51,58 73,75l2 -75 67 0 -1 139 -81 1c-14,-22 -51,-65 -73,-76l0 76zm-399 -69c14,21 16,42 21,69l-70 0 -11 -42 -57 -3 -14 45 -63 1 0 -142c67,1 158,-15 213,21 4,51 -2,27 -19,51zm2435 -34c4,25 14,18 49,17 4,-1 33,-2 35,-1 44,5 17,-9 27,18 -8,21 1,11 -21,16 0,0 -32,0 -34,0 -6,-1 -30,-1 -34,-1 -29,5 -10,-6 -24,12 21,21 65,5 93,8 49,7 17,-10 29,19 -1,26 -16,16 -85,15 -35,0 -70,0 -105,0l0 -140 173 1c29,11 25,25 -6,32 -14,3 -76,-6 -97,4zm-318 -21c2,-9 -8,-17 40,-17 18,0 37,1 55,1 43,0 105,-10 105,16 1,34 -26,12 -63,21l-3 101 -70 3 0 -106c-63,-4 -47,10 -64,-19zm-325 21l-3 101 -69 1 1 -106 -66 0 -1 -23c2,-2 4,-5 5,-3l23 -8c8,0 32,1 41,1 74,1 145,-15 130,22 -12,29 -15,5 -61,15zm-327 0c32,24 105,7 149,40l2 37c-63,46 -212,47 -227,-16 26,0 56,-3 79,4 33,9 24,16 66,6 -10,-24 -1,-18 -37,-22 -28,-4 -126,-2 -104,-58 16,-38 184,-58 215,12 -112,2 -67,-11 -110,-14 -27,-2 -20,0 -33,11zm-407 7c16,23 64,3 89,9 24,6 14,-4 23,18 -7,15 2,18 -58,16 -27,-1 -43,-8 -55,11 25,22 89,1 121,13l1 28 -190 1 0 -141c84,1 220,-16 186,26 -9,12 -23,9 -42,8 -13,0 -29,-1 -42,-1 -48,1 -23,4 -33,12zm-184 95l-69 1 0 -105 -65 -2 -1 -32 156 -2c4,0 24,1 27,2 23,9 8,-6 18,15 -9,21 2,18 -62,18l-4 105zm-1205 -43c-37,-19 -21,17 -28,-25 25,-20 70,-11 101,-11l-1 80c-45,-1 -17,-13 -68,-1 -27,7 -53,7 -82,4 -53,-5 -93,-25 -85,-83 6,-50 55,-64 112,-65 52,-1 116,5 121,52 -31,-1 -54,3 -78,-7 -21,-8 -52,-20 -74,0 -44,43 35,99 82,56zm-497 -52c9,17 35,10 59,9 70,-2 51,2 53,24l-9 6c-46,14 -90,-13 -103,15 12,21 69,5 93,8 47,7 19,-8 28,19 -1,26 -20,15 -90,15 -33,0 -67,2 -100,-2l1 -137 187 0 3 22c-2,1 -5,1 -6,3l-23 7c-6,1 -28,0 -35,0 -80,-3 -47,3 -58,11zm-471 96l-69 0 1 -105 -66 -2 -1 -32 183 0c23,9 8,-5 18,15 -10,23 1,12 -25,19 -2,0 -32,-1 -37,-1l-4 106zm3872 -300l-1 46 -1695 0c5,-12 42,-43 59,-46l1637 0zm-4054 1l1937 -1c18,31 28,27 42,47l-1978 -1 -1 -45zm506 -83c21,-83 42,-166 64,-250 19,-75 50,-274 88,-172 43,115 77,237 117,352 47,134 57,29 61,97 -22,10 -40,5 -70,6 -75,0 -55,1 -65,-12 10,-21 5,-9 39,-21 -5,-38 -29,-89 -42,-129l-31 -97c-3,-8 -4,-10 -7,-15 -6,-12 -2,-7 -10,-14l-33 1c-18,31 -70,221 -56,249 24,14 11,3 30,8 35,9 16,-11 29,18 -12,18 10,9 -30,12l-116 -6c3,-43 -7,-11 32,-27zm1644 -198c-34,-36 -106,-88 -51,-173 16,-25 42,-42 80,-50 27,-6 54,1 66,-2 21,-4 4,-3 20,-13 14,-8 -14,-6 22,-7 14,23 8,194 7,218l-35 0c-1,-29 3,-99 -5,-121 -25,-73 -148,-36 -116,47 24,62 177,97 229,159 42,50 48,128 3,189 -72,98 -269,120 -367,25 -76,-73 -84,-275 147,-272zm1842 -173l-2 179 -25 -1c-17,-41 11,-73 -48,-80l3 277c77,2 115,-8 118,-72 0,-8 0,-27 2,-33 6,-22 -6,-9 13,-18 21,9 7,-4 15,17l1 75c0,16 1,33 1,48 -1,26 -2,30 -10,39 -59,-5 17,-20 -47,-28 -43,-6 -162,13 -196,-5 2,-36 0,-18 41,-25 8,-61 2,-160 2,-226 0,-233 6,-149 -47,-177l1 -22c35,-5 99,-2 137,-2 166,1 37,-23 109,-27 17,17 9,39 9,85 0,65 10,80 -16,80 -53,-1 58,-118 -136,-108l1 89 43 1 4 -67 27 1zm-712 17c-2,-91 -47,1 -48,-67 17,-6 47,-4 68,-4 46,0 31,10 47,28 246,-137 470,174 235,320 -40,26 -54,15 -77,39 53,9 95,49 160,44 29,-3 23,-11 42,7 -62,90 -305,-53 -371,-76l3 64c38,5 56,-9 59,26 -20,12 -142,9 -160,0 3,-44 0,-10 40,-27l2 -354zm-266 0c0,-92 -47,0 -47,-70l145 1 1 24 -41 8c-2,75 0,152 0,228 0,39 0,78 -1,116 0,56 6,42 11,46 21,14 26,-4 37,22 -11,18 12,9 -29,12l-116 0c-2,-51 0,-17 39,-33l1 -354zm-462 0c0,-92 -48,0 -46,-70l144 1 0 22 -41 14 0 84 133 -2c0,-15 3,-69 -3,-79 -22,-37 -43,20 -43,-37 29,-11 108,-6 145,-2l0 24 -40 8 -1 351c0,47 6,37 15,41 36,17 27,-23 32,26 -34,14 -102,6 -145,6 -3,-38 11,-22 40,-33l-1 -272 -131 4c-1,55 0,111 0,166 0,16 -2,77 0,87 8,29 4,5 35,24 20,11 2,-12 12,12 -11,17 12,9 -29,12l-117 -6c4,-44 0,-10 39,-27l2 -354zm-1067 0c-1,-90 -45,0 -45,-67 44,-17 101,8 124,4 55,-9 70,-24 139,-11 78,16 140,68 157,142 23,96 -33,164 -84,203 -86,65 -141,32 -233,24 -8,112 39,30 62,80 -12,18 -2,11 -37,12l-96 0c-38,-3 -18,5 -30,-12 12,-26 15,-9 41,-21l2 -354zm-496 -32c-38,-19 -46,6 -45,-38l94 -1 107 220c1,-2 3,3 4,4 9,-43 68,-182 88,-224l92 4c1,37 2,22 -39,27 5,107 -1,242 0,354 0,47 7,38 17,42 35,15 26,-22 30,25 -19,9 -49,5 -75,6 -85,0 -61,4 -71,-12 10,-22 1,-9 22,-17 6,-2 4,3 20,-4l0 -306c-18,20 -81,192 -92,227l-103 -222c-8,17 -5,271 -1,282 18,45 46,-2 49,46 -18,9 -43,5 -69,6 -74,0 -55,1 -65,-12 11,-22 2,-9 23,-17 5,-2 7,2 20,-4 5,-60 8,-344 -6,-386zm-973 -21c0,-65 3,-51 -55,-58l0 -29c33,-6 90,-3 126,-3 28,0 49,-8 43,20 -5,25 -15,10 -47,17l2 103 146 -1c6,-25 10,-77 -4,-94 -29,-34 -45,18 -47,-37 24,-15 137,-7 170,-6l0 27c-16,8 -26,5 -48,5 -3,87 0,179 0,266 0,269 -8,166 54,204l1 26c-29,2 -58,1 -87,1 -15,0 -33,1 -48,1l-35 -8c1,-40 1,-23 48,-27l-1 -319 -152 3 3 313c27,6 56,-5 52,23 -5,27 9,9 -22,15l-148 -3 0 -29 49 -10 0 -400zm2176 -714c-32,-9 -15,11 -27,-13 16,-21 -19,-10 27,-17l449 0c99,-1 111,27 34,30 -13,68 -49,160 -68,232l-51 172c-1,5 -6,23 -8,27 -18,38 -32,25 -46,-14l-45 -128c-25,29 -33,137 -61,162 -36,-3 -37,-40 -62,-116 -15,-45 -30,-83 -44,-126 -14,-44 -31,-87 -46,-131 -25,-72 -17,-68 -52,-78zm-167 106c-9,-106 -8,-104 -120,-107l0 90 42 -1c1,-50 -6,-53 14,-65 20,10 7,-3 15,18l2 75c0,61 10,88 -17,87 -37,0 18,-70 -57,-81l0 278c154,-4 108,-57 123,-123l25 0c5,34 8,151 -2,178 -42,1 -13,8 -30,-17l-4 -10c-39,-1 -77,0 -116,0 -44,0 -85,8 -96,-13 10,-25 16,-10 44,-21l-3 -390 -44 -10 1 -24 214 2c22,-29 -15,-33 38,-28l-1 162 -28 0zm-633 -113c-1,-76 -21,-43 -60,-67l0 -27 94 0c17,34 179,369 193,379 0,-30 4,-301 -3,-320 -19,-51 -49,5 -49,-53 19,-10 41,-6 68,-6 21,0 52,-4 69,6 -2,45 1,16 -10,24l-21 8c-1,-1 -4,1 -7,2l-4 515c-36,4 -33,-7 -46,-33l-162 -327c-6,-9 -4,-6 -9,-13 -1,-1 -3,-2 -4,-4 0,-3 -2,-3 -4,-5 -1,64 0,129 0,193 0,75 -22,130 61,131l0 33c-26,1 -113,4 -139,-3l-10 -4c2,-43 1,-19 15,-26l28 -8c-1,-89 0,-177 0,-265 0,-43 0,-87 0,-130zm-196 -255c155,-49 287,-100 452,-139 160,-37 321,-74 479,-112 118,-29 373,-99 475,-116 343,-58 671,-118 1008,-174 82,-14 175,-27 260,-39 166,-22 147,-39 232,19 29,21 57,43 86,64l255 193c-173,-31 -334,-40 -519,-30 -561,30 -897,-12 -1504,110 -352,71 -533,93 -887,195 -141,40 -282,71 -424,112 -92,26 -350,113 -411,126 13,-21 26,-51 31,-84l467 -125zm-906 -103c20,-2 15,9 39,-31 80,-133 96,-163 144,-331 85,-292 7,-227 36,-345 7,-31 18,-68 40,-86 82,22 46,314 35,379 -24,151 -91,386 -177,509 -32,45 -66,87 -136,45 -109,-66 -65,-235 -70,-368 -47,62 -146,411 -228,473 -53,40 -106,-35 -130,-78 -58,-104 74,-394 127,-529 17,-44 66,-137 45,-179 -34,-37 -163,81 -194,111 -41,41 -140,161 -169,150 -46,-41 -34,-169 -9,-226 14,-33 33,-58 50,-86 28,-47 30,-70 56,-71 0,1 1,4 1,5 1,2 2,4 2,6l-3 28c-4,14 -6,13 -11,31 42,-20 125,-119 233,-142 66,-15 90,10 115,61 69,136 13,282 -46,442 -20,55 -96,238 -86,281 25,-11 6,5 27,-21 8,-11 7,-13 12,-21 9,-18 18,-32 27,-48 79,-158 160,-355 225,-521 16,-41 55,-204 113,-190 64,44 58,89 37,170 -36,133 -126,472 -105,582zm2272 -549c40,-9 40,-16 60,-42l77 -107c10,-27 8,-203 146,-301 124,-87 186,18 129,142 -49,107 -131,145 -167,190 8,40 7,76 58,78 85,3 155,-152 192,-204 38,55 2,106 -26,157 -39,70 -137,233 -242,167 -55,-35 -64,-108 -81,-136 -27,34 -51,80 -77,119 -21,32 -64,94 -91,106 -58,24 -85,-47 -86,-103 -1,-66 17,-113 26,-173l-46 82c-24,48 -98,208 -120,226 -38,31 -92,4 -76,-116 9,-66 34,-134 40,-197 -22,10 -16,2 -29,30 -6,12 -9,23 -13,35l-83 209c-15,44 -32,124 -89,80 -39,-31 -36,-90 -62,-128 -29,55 -37,63 -97,92 -32,15 -25,24 -43,53 -33,55 -105,121 -173,73 -39,-28 -45,-70 -74,-116 -18,21 -49,89 -67,115 -46,65 -148,166 -224,79 -22,-25 -41,-74 -58,-117 -32,42 -61,152 -131,203 -123,89 -154,-106 -172,-131 -121,297 -306,314 -351,85 -34,-169 67,-393 202,-413 171,-26 53,275 -104,351 3,59 24,107 91,80 39,-15 66,-54 87,-84 92,-129 51,-106 66,-273 12,-124 121,-452 192,-493 57,24 43,181 34,243 -31,201 -146,352 -134,434 15,106 69,115 138,33 126,-151 21,-141 130,-305 32,-47 61,-80 101,-117 189,-169 128,200 57,214 -35,-5 -31,-14 -47,-41 -1,1 -3,3 -4,4l-9 10c-5,6 -5,6 -9,12 -41,63 -108,154 -27,200 73,43 163,-79 196,-134 11,-18 25,-34 27,-55 2,-27 -1,-43 6,-75 28,-122 165,-296 271,-237 9,40 10,29 -5,66 74,20 54,163 42,231 78,-6 94,-146 104,-184 18,-63 54,-168 135,-138 47,38 -77,226 -62,276 3,10 4,8 7,12 35,-37 168,-422 258,-397 92,52 -2,207 -5,284 34,-41 166,-307 204,-326l57 73c24,77 -96,190 -49,299zm799 -432c2,-33 21,-89 33,-121 44,-110 101,-44 126,-112 14,-37 26,-136 117,-110 14,28 -2,78 -15,106l62 -4c-12,48 -17,116 -40,152 -47,74 -82,26 -105,72 -10,20 -35,113 -39,138 -10,59 -8,95 8,148 64,2 80,-54 138,-131 34,-46 13,-47 26,-110 12,-59 54,-135 92,-173 20,-21 47,-41 71,-58 79,-54 167,-18 118,48l11 9c59,49 32,170 20,231 28,-4 41,-18 54,-38 21,-34 9,-36 37,-52 12,36 25,46 9,84 -34,80 -71,90 -120,112 -28,12 -28,38 -47,62l-60 55c-121,69 -153,-77 -177,-113 -25,23 -79,155 -159,212 -16,11 -45,24 -68,18 -70,-19 -62,-152 -51,-209l-48 52c-11,-41 -21,-43 0,-76 14,-23 23,-34 38,-64 23,-45 47,-91 58,-151l-89 23zm-3977 2980l5308 0 10 0 0 -3485 17 1 -5339 0 4 3484z"/>
   <path class="fil64" d="M4724 12110c12,-49 42,-182 107,-190 13,52 -49,145 -88,178 -17,15 1,6 -19,12zm1092 -354c-10,59 -24,124 -1,180 14,35 21,37 -3,69 -75,97 -128,-18 -83,-131 11,-28 43,-71 62,-93 19,-23 2,-13 25,-25zm1008 -163c5,-54 49,-181 104,-187 11,55 -68,182 -104,187zm-238 201c-47,-109 73,-222 49,-299l-57 -73c-38,19 -170,285 -204,326 3,-77 97,-232 5,-284 -90,-25 -223,360 -258,397 -3,-4 -4,-2 -7,-12 -15,-50 109,-238 62,-276 -81,-30 -117,75 -135,138 -10,38 -26,178 -104,184 12,-68 32,-211 -42,-231 15,-37 14,-26 5,-66 -106,-59 -243,115 -271,237 -7,32 -4,48 -6,75 -2,21 -16,37 -27,55 -33,55 -123,177 -196,134 -81,-46 -14,-137 27,-200 4,-6 4,-6 9,-12l9 -10c1,-1 3,-3 4,-4 16,27 12,36 47,41 71,-14 132,-383 -57,-214 -40,37 -69,70 -101,117 -109,164 -4,154 -130,305 -69,82 -123,73 -138,-33 -12,-82 103,-233 134,-434 9,-62 23,-219 -34,-243 -71,41 -180,369 -192,493 -15,167 26,144 -66,273 -21,30 -48,69 -87,84 -67,27 -88,-21 -91,-80 157,-76 275,-377 104,-351 -135,20 -236,244 -202,413 45,229 230,212 351,-85 18,25 49,220 172,131 70,-51 99,-161 131,-203 17,43 36,92 58,117 76,87 178,-14 224,-79 18,-26 49,-94 67,-115 29,46 35,88 74,116 68,48 140,-18 173,-73 18,-29 11,-38 43,-53 60,-29 68,-37 97,-92 26,38 23,97 62,128 57,44 74,-36 89,-80l83 -209c4,-12 7,-23 13,-35 13,-28 7,-20 29,-30 -6,63 -31,131 -40,197 -16,120 38,147 76,116 22,-18 96,-178 120,-226l46 -82c-9,60 -27,107 -26,173 1,56 28,127 86,103 27,-12 70,-74 91,-106 26,-39 50,-85 77,-119 17,28 26,101 81,136 105,66 203,-97 242,-167 28,-51 64,-102 26,-157 -37,52 -107,207 -192,204 -51,-2 -50,-38 -58,-78 36,-45 118,-83 167,-190 57,-124 -5,-229 -129,-142 -138,98 -136,274 -146,301l-77 107c-20,26 -20,33 -60,42z"/>
   <path class="fil64" d="M4753 12571c-5,33 -18,63 -31,84 61,-13 319,-100 411,-126 142,-41 283,-72 424,-112 354,-102 535,-124 887,-195 607,-122 943,-80 1504,-110 185,-10 346,-1 519,30l-255 -193c-29,-21 -57,-43 -86,-64 -85,-58 -66,-41 -232,-19 -85,12 -178,25 -260,39 -337,56 -665,116 -1008,174 -102,17 -357,87 -475,116 -158,38 -319,75 -479,112 -165,39 -297,90 -452,139l-467 125z"/>
   <path class="fil64" d="M4314 12343c-21,-110 69,-449 105,-582 21,-81 27,-126 -37,-170 -58,-14 -97,149 -113,190 -65,166 -146,363 -225,521 -9,16 -18,30 -27,48 -5,8 -4,10 -12,21 -21,26 -2,10 -27,21 -10,-43 66,-226 86,-281 59,-160 115,-306 46,-442 -25,-51 -49,-76 -115,-61 -108,23 -191,122 -233,142 5,-18 7,-17 11,-31l3 -28c0,-2 -1,-4 -2,-6 0,-1 -1,-4 -1,-5 -26,1 -28,24 -56,71 -17,28 -36,53 -50,86 -25,57 -37,185 9,226 29,11 128,-109 169,-150 31,-30 160,-148 194,-111 21,42 -28,135 -45,179 -53,135 -185,425 -127,529 24,43 77,118 130,78 82,-62 181,-411 228,-473 5,133 -39,302 70,368 70,42 104,0 136,-45 86,-123 153,-358 177,-509 11,-65 47,-357 -35,-379 -22,18 -33,55 -40,86 -29,118 49,53 -36,345 -48,168 -64,198 -144,331 -24,40 -19,29 -39,31z"/>
   <path class="fil64" d="M7796 11577c-48,-85 12,-178 65,-246l28 -25c-12,71 -30,107 -4,183 20,60 -29,102 -89,88zm-411 -215l89 -23c-11,60 -35,106 -58,151 -15,30 -24,41 -38,64 -21,33 -11,35 0,76l48 -52c-11,57 -19,190 51,209 23,6 52,-7 68,-18 80,-57 134,-189 159,-212 24,36 56,182 177,113l60 -55c19,-24 19,-50 47,-62 49,-22 86,-32 120,-112 16,-38 3,-48 -9,-84 -28,16 -16,18 -37,52 -13,20 -26,34 -54,38 12,-61 39,-182 -20,-231l-11 -9c49,-66 -39,-102 -118,-48 -24,17 -51,37 -71,58 -38,38 -80,114 -92,173 -13,63 8,64 -26,110 -58,77 -74,133 -138,131 -16,-53 -18,-89 -8,-148 4,-25 29,-118 39,-138 23,-46 58,2 105,-72 23,-36 28,-104 40,-152l-62 4c13,-28 29,-78 15,-106 -91,-26 -103,73 -117,110 -25,68 -82,2 -126,112 -12,32 -31,88 -33,121z"/>
   <path class="fil65" d="M6554 13037c-11,-45 -52,-125 -41,-167 8,-33 39,-144 50,-161 126,-17 87,32 46,168 -8,29 -16,56 -25,83 -7,22 -14,59 -30,77zm-45 -289c-3,20 -15,62 -28,77l-41 -121c47,3 77,-8 69,44zm-57 195c-3,15 -26,85 -32,96 -13,-16 -111,-299 -117,-332 51,1 76,-9 93,40 14,40 63,160 56,196zm-263 -248c12,24 -5,4 27,13 35,10 27,6 52,78 15,44 32,87 46,131 14,43 29,81 44,126 25,76 26,113 62,116 28,-25 36,-133 61,-162l45 128c14,39 28,52 46,14 2,-4 7,-22 8,-27l51 -172c19,-72 55,-164 68,-232 77,-3 65,-31 -34,-30l-449 0c-46,7 -11,-4 -27,17z"/>
   <path class="fil64" d="M3985 13364c58,7 55,-7 55,58l0 400 -49 10 0 29 148 3c31,-6 17,12 22,-15 4,-28 -25,-17 -52,-23l-3 -313 152 -3 1 319c-47,4 -47,-13 -48,27l35 8c15,0 33,-1 48,-1 29,0 58,1 87,-1l-1 -26c-62,-38 -54,65 -54,-204 0,-87 -3,-179 0,-266 22,0 32,3 48,-5l0 -27c-33,-1 -146,-9 -170,6 2,55 18,3 47,37 14,17 10,69 4,94l-146 1 -2 -103c32,-7 42,8 47,-17 6,-28 -15,-20 -43,-20 -36,0 -93,-3 -126,3l0 29z"/>
   <path class="fil66" d="M6244 13668c57,24 149,74 112,165 -66,166 -367,89 -310,-92 35,-110 165,-83 153,-5 -29,36 -29,-3 -40,54 96,13 134,-57 85,-122zm-70 -37c-231,-3 -223,199 -147,272 98,95 295,73 367,-25 45,-61 39,-139 -3,-189 -52,-62 -205,-97 -229,-159 -32,-83 91,-120 116,-47 8,22 4,92 5,121l35 0c1,-24 7,-195 -7,-218 -36,1 -8,-1 -22,7 -16,10 1,9 -20,13 -12,3 -39,-4 -66,2 -38,8 -64,25 -80,50 -55,85 17,137 51,173z"/>
   <path class="fil67" d="M4025 13957l1978 1c-14,-20 -24,-16 -42,-47l-1937 1 1 45z"/>
   <path class="fil65" d="M5356 12634c39,24 59,-9 60,67 0,43 0,87 0,130 0,88 -1,176 0,265l-28 8c-14,7 -13,-17 -15,26l10 4c26,7 113,4 139,3l0 -33c-83,-1 -61,-56 -61,-131 0,-64 -1,-129 0,-193 2,2 4,2 4,5 1,2 3,3 4,4 5,7 3,4 9,13l162 327c13,26 10,37 46,33l4 -515c3,-1 6,-3 7,-2l21 -8c11,-8 8,21 10,-24 -17,-10 -48,-6 -69,-6 -27,0 -49,-4 -68,6 0,58 30,2 49,53 7,19 3,290 3,320 -14,-10 -176,-345 -193,-379l-94 0 0 27z"/>
   <path class="fil64" d="M7360 13699c0,-51 0,-103 0,-155 -1,-60 1,-75 51,-96 93,-38 177,16 211,70 96,153 -85,317 -262,181zm-104 -291c1,68 46,-24 48,67l-2 354c-40,17 -37,-17 -40,27 18,9 140,12 160,0 -3,-35 -21,-21 -59,-26l-3 -64c66,23 309,166 371,76 -19,-18 -13,-10 -42,-7 -65,5 -107,-35 -160,-44 23,-24 37,-13 77,-39 235,-146 11,-457 -235,-320 -16,-18 -1,-28 -47,-28 -21,0 -51,-2 -68,4z"/>
   <path class="fil67" d="M6441 13911c-17,3 -54,34 -59,46l1695 0 1 -46 -1637 0z"/>
   <path class="fil63" d="M7360 13699c177,136 358,-28 262,-181 -34,-54 -118,-108 -211,-70 -50,21 -52,36 -51,96 0,52 0,104 0,155z"/>
   <path class="fil64" d="M4968 13405c-1,44 7,19 45,38 14,42 11,326 6,386 -13,6 -15,2 -20,4 -21,8 -12,-5 -23,17 10,13 -9,12 65,12 26,-1 51,3 69,-6 -3,-48 -31,-1 -49,-46 -4,-11 -7,-265 1,-282l103 222c11,-35 74,-207 92,-227l0 306c-16,7 -14,2 -20,4 -21,8 -12,-5 -22,17 10,16 -14,12 71,12 26,-1 56,3 75,-6 -4,-47 5,-10 -30,-25 -10,-4 -17,5 -17,-42 -1,-112 5,-247 0,-354 41,-5 40,10 39,-27l-92 -4c-20,42 -79,181 -88,224 -1,-1 -3,-6 -4,-4l-107 -220 -94 1z"/>
   <path class="fil63" d="M5567 13465l-2 247c145,98 270,-2 267,-114 -4,-140 -149,-209 -265,-133z"/>
   <path class="fil66" d="M6530 13405c-2,70 46,-22 46,70l-2 354c-39,17 -35,-17 -39,27l117 6c41,-3 18,5 29,-12 -10,-24 8,-1 -12,-12 -31,-19 -27,5 -35,-24 -2,-10 0,-71 0,-87 0,-55 -1,-111 0,-166l131 -4 1 272c-29,11 -43,-5 -40,33 43,0 111,8 145,-6 -5,-49 4,-9 -32,-26 -9,-4 -15,6 -15,-41l1 -351 40 -8 0 -24c-37,-4 -116,-9 -145,2 0,57 21,0 43,37 6,10 3,64 3,79l-133 2 0 -84 41 -14 0 -22 -144 -1z"/>
   <path class="fil66" d="M5567 13465c116,-76 261,-7 265,133 3,112 -122,212 -267,114l2 -247zm-103 -57c0,67 44,-23 45,67l-2 354c-26,12 -29,-5 -41,21 12,17 -8,9 30,12l96 0c35,-1 25,6 37,-12 -23,-50 -70,32 -62,-80 92,8 147,41 233,-24 51,-39 107,-107 84,-203 -17,-74 -79,-126 -157,-142 -69,-13 -84,2 -139,11 -23,4 -80,-21 -124,-4z"/>
   <path class="fil63" d="M6244 13668c49,65 11,135 -85,122 11,-57 11,-18 40,-54 12,-78 -118,-105 -153,5 -57,181 244,258 310,92 37,-91 -55,-141 -112,-165z"/>
   <path class="fil66" d="M7838 13406l-1 22c53,28 47,-56 47,177 0,66 6,165 -2,226 -41,7 -39,-11 -41,25 34,18 153,-1 196,5 64,8 -12,23 47,28 8,-9 9,-13 10,-39 0,-15 -1,-32 -1,-48l-1 -75c-8,-21 6,-8 -15,-17 -19,9 -7,-4 -13,18 -2,6 -2,25 -2,33 -3,64 -41,74 -118,72l-3 -277c59,7 31,39 48,80l25 1 2 -179 -27 -1 -4 67 -43 -1 -1 -89c194,-10 83,107 136,108 26,0 16,-15 16,-80 0,-46 8,-68 -9,-85 -72,4 57,28 -109,27 -38,0 -102,-3 -137,2z"/>
   <path class="fil65" d="M6040 12680l-214 -2 -1 24 44 10 3 390c-28,11 -34,-4 -44,21 11,21 52,13 96,13 39,0 77,-1 116,0l4 10c17,25 -12,18 30,17 10,-27 7,-144 2,-178l-25 0c-15,66 31,119 -123,123l0 -278c75,11 20,81 57,81 27,1 17,-26 17,-87l-2 -75c-8,-21 5,-8 -15,-18 -20,12 -13,15 -14,65l-42 1 0 -90c112,3 111,1 120,107l28 0 1 -162c-53,-5 -16,-1 -38,28z"/>
   <path class="fil66" d="M4530 13829c-39,16 -29,-16 -32,27l116 6c40,-3 18,6 30,-12 -13,-29 6,-9 -29,-18 -19,-5 -6,6 -30,-8 -14,-28 38,-218 56,-249l33 -1c8,7 4,2 10,14 3,5 4,7 7,15l31 97c13,40 37,91 42,129 -34,12 -29,0 -39,21 10,13 -10,12 65,12 30,-1 48,4 70,-6 -4,-68 -14,37 -61,-97 -40,-115 -74,-237 -117,-352 -38,-102 -69,97 -88,172 -22,84 -43,167 -64,250z"/>
   <path class="fil66" d="M6991 13405c0,70 47,-22 47,70l-1 354c-39,16 -41,-18 -39,33l116 0c41,-3 18,6 29,-12 -11,-26 -16,-8 -37,-22 -5,-4 -11,10 -11,-46 1,-38 1,-77 1,-116 0,-76 -2,-153 0,-228l41 -8 -1 -24 -145 -1z"/>
   <path class="fil68" d="M5505 14142c17,-24 23,0 19,-51 -55,-36 -146,-20 -213,-21l0 142 63 -1 14 -45 57 3 11 42 70 0c-5,-27 -7,-48 -21,-69z"/>
   <path class="fil63" d="M6554 13037c16,-18 23,-55 30,-77 9,-27 17,-54 25,-83 41,-136 80,-185 -46,-168 -11,17 -42,128 -50,161 -11,42 30,122 41,167z"/>
   <path class="fil64" d="M5904 14135c22,11 59,54 73,76l81 -1 1 -139 -67 0 -2 75c-22,-17 -51,-53 -73,-75l-79 2 -1 138 67 0 0 -76z"/>
   <path class="fil64" d="M5174 14167c-47,43 -126,-13 -82,-56 22,-20 53,-8 74,0 24,10 47,6 78,7 -5,-47 -69,-53 -121,-52 -57,1 -106,15 -112,65 -8,58 32,78 85,83 29,3 55,3 82,-4 51,-12 23,0 68,1l1 -80c-31,0 -76,-9 -101,11 7,42 -9,6 28,25z"/>
   <path class="fil64" d="M6970 14108c13,-11 6,-13 33,-11 43,3 -2,16 110,14 -31,-70 -199,-50 -215,-12 -22,56 76,54 104,58 36,4 27,-2 37,22 -42,10 -33,3 -66,-6 -23,-7 -53,-4 -79,-4 15,63 164,62 227,16l-2 -37c-44,-33 -117,-16 -149,-40z"/>
   <path class="fil63" d="M6420 13039c6,-11 29,-81 32,-96 7,-36 -42,-156 -56,-196 -17,-49 -42,-39 -93,-40 6,33 104,316 117,332z"/>
   <path class="fil64" d="M4390 14154l82 0 0 57 69 0 1 -141 -70 2 -2 48 -78 -1c-5,-51 24,-49 -71,-48l0 140 70 0 -1 -57z"/>
   <path class="fil69" d="M5560 14208c45,10 55,4 78,-6 64,-28 41,13 157,8l-71 -139 -94 0c-13,43 -53,97 -70,137z"/>
   <path class="fil66" d="M6563 14115c10,-8 -15,-11 33,-12 13,0 29,1 42,1 19,1 33,4 42,-8 34,-42 -102,-25 -186,-26l0 141 190 -1 -1 -28c-32,-12 -96,9 -121,-13 12,-19 28,-12 55,-11 60,2 51,-1 58,-16 -9,-22 1,-12 -23,-18 -25,-6 -73,14 -89,-9z"/>
   <path class="fil69" d="M7376 14212c126,-3 43,-19 117,-18 74,0 -4,19 117,17 -13,-30 -22,-44 -38,-73 -43,-79 -16,-68 -120,-66 -19,21 -64,108 -76,140z"/>
   <path class="fil66" d="M7940 14108c21,-10 83,-1 97,-4 31,-7 35,-21 6,-32l-173 -1 0 140c35,0 70,0 105,0 69,1 84,11 85,-15 -12,-29 20,-12 -29,-19 -28,-3 -72,13 -93,-8 14,-18 -5,-7 24,-12 4,0 28,0 34,1 2,0 34,0 34,0 22,-5 13,5 21,-16 -10,-27 17,-13 -27,-18 -2,-1 -31,0 -35,1 -35,1 -45,8 -49,-17z"/>
   <path class="fil64" d="M4677 14115c11,-8 -22,-14 58,-11 7,0 29,1 35,0l23 -7c1,-2 4,-2 6,-3l-3 -22 -187 0 -1 137c33,4 67,2 100,2 70,0 89,11 90,-15 -9,-27 19,-12 -28,-19 -24,-3 -81,13 -93,-8 13,-28 57,-1 103,-15l9 -6c-2,-22 17,-26 -53,-24 -24,1 -50,8 -59,-9z"/>
   <path class="fil63" d="M5816 11756c-23,12 -6,2 -25,25 -19,22 -51,65 -62,93 -45,113 8,228 83,131 24,-32 17,-34 3,-69 -23,-56 -9,-121 1,-180z"/>
   <path class="fil63" d="M7796 11577c60,14 109,-28 89,-88 -26,-76 -8,-112 4,-183l-28 25c-53,68 -113,161 -65,246z"/>
   <path class="fil64" d="M7662 14070c-48,0 -38,8 -40,17 17,29 1,15 64,19l0 106 70 -3 3 -101c37,-9 64,13 63,-21 0,-26 -62,-16 -105,-16 -18,0 -37,-1 -55,-1z"/>
   <path class="fil64" d="M6383 14105c64,0 53,3 62,-18 -10,-21 5,-6 -18,-15 -3,-1 -23,-2 -27,-2l-156 2 1 32 65 2 0 105 69 -1 4 -105z"/>
   <path class="fil64" d="M7297 14108c46,-10 49,14 61,-15 15,-37 -56,-21 -130,-22 -9,0 -33,-1 -41,-1l-23 8c-1,-2 -3,1 -5,3l1 23 66 0 -1 106 69 -1 3 -101z"/>
   <path class="fil64" d="M4210 14105c5,0 35,1 37,1 26,-7 15,4 25,-19 -10,-20 5,-6 -18,-15l-183 0 1 32 66 2 -1 105 69 0 4 -106z"/>
   <polygon class="fil64" points="6126,14211 6195,14210 6196,14071 6126,14071 "/>
   <path class="fil70" d="M4724 12110c20,-6 2,3 19,-12 39,-33 101,-126 88,-178 -65,8 -95,141 -107,190z"/>
   <path class="fil70" d="M6824 11593c36,-5 115,-132 104,-187 -55,6 -99,133 -104,187z"/>
   <path class="fil63" d="M6481 12825c13,-15 25,-57 28,-77 8,-52 -22,-41 -69,-44l41 121z"/>
   <path class="fil63" d="M5386 14128c7,1 58,4 62,-2 22,-30 -22,-29 -44,-30 -20,-1 -46,0 -34,24 1,2 12,7 16,8z"/>
   <path class="fil63" d="M5614 14213c36,-14 -7,-27 60,-24 5,1 40,1 42,5 18,31 37,29 -34,29 -7,0 -63,9 -64,-12 0,0 11,-7 3,-1 -2,1 -4,2 -7,3z"/>
   <path class="fil63" d="M5672 14105c-7,14 -10,29 -23,44 -2,2 35,1 40,1 17,0 9,0 0,-21 -2,-4 -15,-27 -15,-25 0,0 -2,1 -2,1z"/>
   <path class="fil63" d="M7490 14106c-7,14 -9,29 -22,44 -3,2 34,1 39,1 18,0 9,0 0,-21 -1,-4 -14,-27 -15,-25 0,0 -2,1 -2,1z"/>
   <path class="fil63" d="M7440 14218c2,-8 8,-25 17,-25 7,0 67,-2 71,1 3,3 23,26 19,28 0,0 -101,2 -105,-1 -2,-1 -3,-2 -2,-3z"/>
   <path class="fil63" d="M4668 13541c-2,-14 -13,-46 -13,-46 1,13 -31,65 6,51 4,-1 9,3 7,-5z"/>
   <path class="fil63" d="M5149 11583c64,-78 -82,306 -88,301 -21,-21 64,-272 88,-301z"/>
  </g>
  <path class="fil38" d="M46047 17619c-183,-149 -202,-537 -172,-769 1,-7 442,58 453,-189 1,-22 143,14 268,-53 180,-96 200,-310 187,-514 -16,-247 -1029,-392 -1158,-214 -136,189 54,42 -225,268 -128,104 -87,419 76,438 45,242 251,116 251,296 0,183 102,676 -68,729 2,2 412,27 388,8z"/>
  <g id="_2996853676608">
   <path class="fil71" d="M45047 14237c-71,215 -38,311 133,416 -31,27 -62,39 -92,58l-75 68c-73,63 -98,78 -135,159l0 0 0 0 -6 14c-26,60 -36,89 -40,123 -2,15 -3,32 -4,52 -3,9 -4,21 -4,36 1,7 1,14 1,20l-1 23 -3 14 10 -5c7,22 21,38 48,69l13 15 47 176 0 1 1 1 1 1 1 1c9,9 11,11 17,16l211 204 -16 149c15,-1 36,-5 59,-11 57,-11 168,-29 184,-43 28,-26 225,-43 277,-43 39,0 73,1 105,3l1 3c106,245 316,276 347,341 82,-16 130,9 168,44l28 -18c110,-40 109,26 438,-96 128,-74 313,-209 187,-398l-43 -59c361,-21 644,-306 522,-701 -18,-24 -61,-97 -75,-130 213,-367 -7,-539 14,-611 -52,-33 -9,0 -35,-41l-179 -142c-189,-60 -281,-94 -504,-45 -201,45 -232,112 -328,240 -105,-88 -245,-237 -425,-245 -189,-123 -633,8 -848,341z"/>
   <path class="fil72" d="M43283 12914l-2 149c-154,62 -260,150 -254,370 5,241 149,330 171,433 206,-14 398,90 449,236 151,-50 188,-271 653,-249 122,6 80,1 180,43 139,58 337,161 376,305 23,-13 -4,-7 32,-8 4,0 46,5 53,6 51,10 70,10 106,38 215,-333 659,-464 848,-341 34,-157 147,-270 50,-488 -32,-74 -75,-128 -127,-169 -68,-56 -135,-60 -197,-102 16,-172 4,-222 -5,-373 -88,-72 -71,-119 -209,-193 -91,-49 -198,-73 -307,-78 -410,-19 -481,122 -601,180 -34,-205 -185,-231 -226,-306 -159,-32 -178,-67 -367,-40 -130,18 -187,55 -284,116 -169,108 -257,233 -339,471z"/>
   <path class="fil73" d="M43198 13866c-255,-18 -419,99 -510,240 -170,259 -37,457 -1,582 -137,206 -136,345 -7,552 57,60 92,103 187,148 143,68 186,31 246,86 -249,250 153,404 122,413 164,82 489,61 543,87 196,147 483,238 775,115 -43,-130 -380,-194 -481,-295 19,-36 51,-66 66,-83 137,51 455,287 608,318 -8,-98 -10,-152 -25,-244 -12,-70 -45,-132 -33,-200 40,-52 34,-35 82,-60 28,-14 8,0 34,-19 53,-39 33,-71 122,-61 -26,-36 27,-2 -33,-43 3,-3 8,-10 9,-7 1,0 26,-7 39,-63 -128,-52 2,-6 -87,-86l-25 -20c-1,-1 -6,-3 -8,-6l3 -14c8,-138 -1,-140 48,-254 41,-93 64,-107 141,-173 -78,-23 -22,6 -90,-55 -22,-20 -29,-27 -55,-48 -48,-37 -77,-56 -133,-76 49,-49 104,-62 140,-154 34,-89 21,-158 -19,-245 -39,-144 -237,-247 -376,-305 -100,-42 -58,-37 -180,-43 -465,-22 -502,199 -653,249 -51,-146 -243,-250 -449,-236z"/>
   <path class="fil74" d="M42680 15240c-129,-207 -130,-346 7,-552 -36,-125 -169,-323 1,-582 91,-141 255,-258 510,-240 -22,-103 -166,-192 -171,-433 -6,-220 100,-308 254,-370l2 -149 -93 -52c-100,48 -462,-105 -822,279 -285,304 -270,737 -38,1007 29,34 52,45 82,82 -169,41 -233,69 -314,189 -73,108 -81,292 -25,422l89 156c34,38 93,96 134,125 43,30 109,71 168,90 74,24 144,30 190,63 52,-21 -4,7 26,-35z"/>
   <path class="fil75" d="M44273 12367c41,75 192,101 226,306 120,-58 191,-199 601,-180 109,5 216,29 307,78 138,74 121,121 209,193 6,-28 576,-257 842,130 86,124 54,195 79,338 100,35 169,37 253,80 316,162 338,353 362,634l179 142c158,-71 236,-320 101,-513 -131,-189 -232,-204 -483,-277l-13 -26c-80,-225 -20,-238 -320,-379 -16,-209 -70,-261 -207,-349 -176,-113 -213,-97 -430,-93 -154,-740 -1469,-592 -1706,-84z"/>
   <path class="fil76" d="M45616 12764c9,151 21,201 5,373 62,42 129,46 197,102 52,41 95,95 127,169 97,218 -16,331 -50,488 180,8 320,157 425,245 96,-128 127,-195 328,-240 223,-49 315,-15 504,45 -24,-281 -46,-472 -362,-634 -84,-43 -153,-45 -253,-80 -25,-143 7,-214 -79,-338 -266,-387 -836,-158 -842,-130z"/>
   <path class="fil77" d="M44688 15585c-12,68 21,130 33,200 15,92 17,146 25,244 -153,-31 -471,-267 -608,-318 -15,17 -47,47 -66,83 101,101 438,165 481,295 166,-17 253,367 277,557 36,283 36,545 9,827 -25,109 -25,83 -100,140l680 0c-35,-29 -76,-43 -128,-107 -88,-106 -116,-1050 -125,-1262 7,-242 51,-225 239,-313 131,-60 232,-117 375,-174l-37 -76c-30,-47 34,-41 -39,-40 -46,71 -163,95 -269,97 -31,37 -202,103 -276,110 10,-61 19,-163 19,-178 0,-47 -80,-63 -96,-88l-8 2c4,-3 0,-8 -9,-15l-1 -2 -2 -1c-33,-26 -117,-76 -115,-174 1,-84 -71,-130 -103,-202 -13,-30 -51,23 19,122 26,36 28,78 39,131 -62,-1 -51,28 -98,63 -26,19 -6,5 -34,19 -48,25 -42,8 -82,60z"/>
   <path class="fil75" d="M43235 15887c31,-9 -371,-163 -122,-413 -60,-55 -103,-18 -246,-86 -95,-45 -130,-88 -187,-148 -30,42 26,14 -26,35 -46,-33 -116,-39 -190,-63 -59,-19 -125,-60 -168,-90 -41,-29 -100,-87 -134,-125l-89 -156c-56,-130 -48,-314 25,-422 81,-120 145,-148 314,-189 -30,-37 -53,-48 -82,-82 -232,-270 -247,-703 38,-1007 360,-384 722,-231 822,-279l-54 -43c-377,-223 -1353,77 -1246,901 33,257 144,380 276,509 -206,49 -297,90 -374,253 -184,393 237,968 902,853 -32,384 315,556 541,552z"/>
   <path class="fil75" d="M47427 14870c95,17 177,72 226,125l111 202c55,204 -7,371 -105,498 -197,259 -458,329 -765,353 -63,5 -96,9 -133,-20 -329,122 -328,56 -438,96l-28 18c212,228 551,390 889,141 81,-59 72,-82 125,-134 65,-64 193,-18 392,-132 509,-292 456,-985 -40,-1135l-110 -41c202,-87 297,-490 -185,-712 -21,72 199,244 -14,611 14,33 57,106 75,130z"/>
   <path class="fil74" d="M46761 16028c37,29 70,25 133,20 307,-24 568,-94 765,-353 98,-127 160,-294 105,-498l-111 -202c-49,-53 -131,-108 -226,-125 122,395 -161,680 -522,701l43 59c126,189 -59,324 -187,398z"/>
   <path class="fil78" d="M45166 16244c430,127 695,139 961,-146 -31,-65 -241,-96 -347,-341 -143,57 -244,114 -375,174 -188,88 -232,71 -239,313z"/>
   <path class="fil79" d="M45013 14779l75 -68c30,-19 61,-31 92,-58 -171,-105 -204,-201 -133,-416 -36,-28 -55,-28 -106,-38 -7,-1 -49,-6 -53,-6 -36,1 -9,-5 -32,8 40,87 53,156 19,245 -36,92 -91,105 -140,154 56,20 85,39 133,76 26,21 33,28 55,48 68,61 12,32 90,55z"/>
  </g>
 </g>
</svg>
