<?xml version="1.0" encoding="UTF-8"?>
<!DOCTYPE svg PUBLIC "-//W3C//DTD SVG 1.1//EN" "http://www.w3.org/Graphics/SVG/1.1/DTD/svg11.dtd">
<!-- Creator: CorelDRAW X8 -->
<svg xmlns="http://www.w3.org/2000/svg" xml:space="preserve" width="4879px" height="1956px" version="1.1" style="shape-rendering:geometricPrecision; text-rendering:geometricPrecision; image-rendering:optimizeQuality; fill-rule:evenodd; clip-rule:evenodd"
viewBox="0 0 48792 19559"
 xmlns:xlink="http://www.w3.org/1999/xlink">
 <defs>
  <style type="text/css">
   <![CDATA[
    .str0 {stroke:#373435;stroke-width:41.6561}
    .str2 {stroke:#313131;stroke-width:41.6561}
    .str1 {stroke:#424242;stroke-width:20.8339}
    .str6 {stroke:#666666;stroke-width:20.8339}
    .str3 {stroke:black;stroke-width:8.9997}
    .str4 {stroke:#B5EEFF;stroke-width:8.9997}
    .str5 {stroke:#E6E6E6;stroke-width:8.9997}
    .fil17 {fill:none}
    .fil13 {fill:#373435}
    .fil20 {fill:#EFB783}
    .fil62 {fill:#007CC2}
    .fil35 {fill:#0B3859}
    .fil47 {fill:#121710}
    .fil23 {fill:#1369B6}
    .fil54 {fill:#1B1B1C}
    .fil31 {fill:#1C1C1C}
    .fil27 {fill:#20547B}
    .fil73 {fill:#24A454}
    .fil71 {fill:#2AA556}
    .fil72 {fill:#2AA659}
    .fil61 {fill:#2DA659}
    .fil7 {fill:#313131}
    .fil30 {fill:#33322E}
    .fil36 {fill:#333333}
    .fil26 {fill:#362D24}
    .fil28 {fill:#3689BB}
    .fil22 {fill:#3890D0}
    .fil10 {fill:#424242}
    .fil6 {fill:#464646}
    .fil14 {fill:#4A4A4A}
    .fil74 {fill:#4B2304}
    .fil40 {fill:#4D4D4D}
    .fil39 {fill:#525252}
    .fil76 {fill:#592905}
    .fil15 {fill:#5C707B}
    .fil16 {fill:#71848B}
    .fil8 {fill:#757575}
    .fil55 {fill:#767B7F}
    .fil32 {fill:#797977}
    .fil49 {fill:#7A838A}
    .fil75 {fill:#7C3808}
    .fil41 {fill:gray}
    .fil56 {fill:#99A3AC}
    .fil50 {fill:#9CADB7}
    .fil57 {fill:#AAB5C5}
    .fil53 {fill:#ADBACA}
    .fil38 {fill:#B5EEFF}
    .fil24 {fill:#B96F48}
    .fil59 {fill:#BABABA}
    .fil52 {fill:#BACADA}
    .fil46 {fill:#C1C2C9}
    .fil18 {fill:#C1CFCF}
    .fil33 {fill:#C77066}
    .fil4 {fill:#C8382F}
    .fil11 {fill:#CACACA}
    .fil37 {fill:#CCCCCC}
    .fil45 {fill:#CDCED3}
    .fil2 {fill:#CFB175}
    .fil51 {fill:#D2D7DD}
    .fil5 {fill:#DF7E77}
    .fil3 {fill:#DFE9EB}
    .fil34 {fill:#E09474}
    .fil44 {fill:#E0E7ED}
    .fil1 {fill:#E6E6E6}
    .fil42 {fill:#E6EEF1}
    .fil63 {fill:#E73838}
    .fil67 {fill:#E99D27}
    .fil21 {fill:#EC9956}
    .fil29 {fill:#ECB31E}
    .fil25 {fill:#EDD89F}
    .fil12 {fill:#EFEFEF}
    .fil43 {fill:#F1FAFF}
    .fil0 {fill:#F2F2F2}
    .fil48 {fill:#F2FBFF}
    .fil70 {fill:#F3AD24}
    .fil64 {fill:#F3AD2B}
    .fil66 {fill:#F4FEF5}
    .fil69 {fill:#FAFAFA}
    .fil65 {fill:#FDFDFD}
    .fil68 {fill:#FEFEFE}
    .fil9 {fill:white}
    .fil58 {fill:white}
    .fil19 {fill:#464646;fill-rule:nonzero}
    .fil60 {fill:#B3B3B3}
   ]]>
  </style>
   <mask id="id0">
  <linearGradient id="id1" gradientUnits="userSpaceOnUse" x1="25617.3" y1="16060.5" x2="30445.5" y2="16060.5">
   <stop offset="0" style="stop-opacity:0; stop-color:white"/>
   <stop offset="1" style="stop-opacity:1; stop-color:white"/>
  </linearGradient>
    <rect style="fill:url(#id1)" x="25607" y="14748" width="4849" height="2625"/>
   </mask>
 </defs>
 <g id="Слой_x0020_1">
  <metadata id="CorelCorpID_0Corel-Layer"/>
  <rect class="fil0" x="2" width="48790" height="19559"/>
  <path class="fil1" d="M17689 11637c-44,1036 -76,2485 -24,3509l142 640c284,784 12,1526 186,2456 -56,384 -179,169 -615,465 -29,461 -90,482 99,852l-1059 0c27,-8 54,-16 81,-25l-13 -1011 -947 -62 -112 -986c-377,-194 -507,-90 -986,-135 -112,-1128 -345,-1466 -1641,-1466l201 -102c16,-910 25,-1842 32,-2732 3,-450 1,-905 -2,-1356l114 -1283c283,-1178 -163,-1163 440,-2268 617,-1132 -76,-1292 1465,-1228 274,358 44,119 232,518l200 -614c1820,-54 735,171 1694,1616 15,21 37,50 52,72 286,413 52,-206 249,354 35,202 -100,913 67,1540l127 453c28,215 10,559 18,793zm864 7922c820,-362 671,-1606 671,-2330l373 -285c311,631 565,96 1361,162 -85,282 -804,191 -1164,418 -613,386 -694,1552 196,2035l-1437 0zm3449 0c240,-128 154,-100 302,-235 -90,-489 -158,-462 -372,-877 -490,40 -777,227 -1372,137 85,-259 1155,-434 1374,-513l291 -1052 632 239 -54 2301 -801 0zm1995 0l32 -1371 -122 3c242,246 337,289 991,285 281,-2 570,-16 857,-16 -152,77 -55,33 -247,236 -811,-261 39,-424 -835,-283 -221,35 -502,261 -696,365 112,358 310,612 552,781l-532 0zm2435 0c201,-137 335,-316 355,-518 69,390 -10,325 107,518l-462 0zm1855 0c507,-408 404,-1353 439,-2315l631 0c97,1498 188,1090 -683,1587l32 728 -419 0zm1829 0c217,-177 366,-452 420,-836 56,-392 -62,-929 55,-1276 83,-244 720,-361 134,-1226 -16,-24 -39,-51 -54,-75l-132 -416c-135,-514 -42,-500 -642,-613l-19 -1072 641 -142c52,-564 -152,-949 346,-981 768,43 884,119 1436,213 633,107 1169,-25 1805,83 295,872 -92,313 350,892 299,392 119,1658 115,2191 -853,259 -849,914 -686,1100l-97 -1204 -1068 -43c-148,992 313,2851 -707,2623 -74,-418 -30,-869 -16,-1301 50,-1571 156,-1371 -1191,-1328l8 3411 -698 0zm3354 0c142,-133 230,-320 239,-578l64 578 -303 0zm1351 0l38 -1392 457 2 10 -882c554,-43 145,1183 291,2272l-796 0zm1868 0l76 -276c17,129 56,213 114,276l-190 0zm-36687 0l1 -1221c24,-18 72,-64 84,-39 1,1 359,-105 407,-331l58 -5051c40,-262 233,-377 878,-554l4243 -132c204,354 -343,-163 98,255 488,461 -394,-168 121,86 305,151 407,17 796,222l57 5348 583 13 33 -8637c3123,-322 1937,-464 4605,-56l33 6742c-316,161 -340,115 -370,318l-86 -1723c-460,-122 -573,-131 -1063,12l-18 1950c-890,-885 39,-887 -1955,-887 110,786 -59,256 282,703l842 914c-426,791 -1029,1095 -1280,2038l1365 0 596 -867c143,-265 141,14 43,-202 189,438 5,269 94,612 134,521 -131,169 262,487l-10709 0zm11414 0c126,-50 162,-194 195,-574 80,284 342,474 672,574l-867 0zm2110 0c199,-58 376,-145 508,-260 188,-165 272,-260 289,-523 3,-39 5,-56 0,-84 160,470 201,664 763,844 26,8 52,16 78,23l-1638 0zm25930 -1303c318,-245 164,116 213,-411l-1 -1478c24,-23 73,-75 85,-50 3,4 355,-62 370,-675 30,-1231 -97,-2669 65,-3933l952 -40c55,-856 20,-853 20,-1831 -1,-1554 87,-1065 621,-1479 -7,-1157 115,-779 680,-2258 165,-432 -172,351 78,-173 10,-23 36,-63 46,-81 9,-18 28,-56 48,-81l675 1740c521,2331 484,362 502,3427 8,1508 93,4802 101,7245l512 -14c10,-943 -209,-3463 190,-4226l272 -415c235,142 -84,44 347,94l2555 19c34,-4 73,-12 103,-16l550 787c31,149 32,318 35,473 9,608 -7,1245 -9,1857 -1,271 -21,613 -11,873 49,1307 307,-435 333,1949l-11909 0c-58,-63 -97,-147 -114,-276l-76 276 -1072 0c-146,-1089 263,-2315 -291,-2272l11 -1166 274 0 4 -1098 981 74c321,589 122,2334 138,3115 192,-519 917,-694 1476,-737 -121,-403 -708,37 -1211,-24l-279 -838c445,-433 823,-473 1480,-421 1083,86 989,546 990,539 2,-16 1,50 -6,73l0 -4985c286,299 229,454 262,1467l10 4970zm-15785 -7745l-37 5875 -837 -385c-955,-117 -756,76 -862,497 -310,-472 -693,-529 -1362,-510 -958,28 -494,107 -1349,10l-335 -975c-32,-605 -13,-1249 -14,-1860l34 -1460c162,-649 472,-492 1481,-569 585,-45 1048,-18 1619,-128l381 -1292c324,-431 31,-427 584,-822 358,1286 485,1076 662,1476 60,134 -31,-78 35,143zm-11672 5693l50 1947 692 -4 59 -2273c1296,0 1529,338 1641,1466 479,45 609,-59 986,135l112 986 947 62 13 1011c-27,9 -54,17 -81,25l-1254 0c-26,-7 -52,-15 -78,-23 -562,-180 -603,-374 -763,-844 5,28 3,45 0,84 -17,263 -101,358 -289,523 -132,115 -309,202 -508,260l-1243 0c-330,-100 -592,-290 -672,-574 -33,380 -69,524 -195,574l-705 0c-393,-318 -128,34 -262,-487 -89,-343 95,-174 -94,-612 98,216 100,-63 -43,202l-596 867 -1365 0c251,-943 854,-1247 1280,-2038l-842 -914c-341,-447 -172,83 -282,-703 1994,0 1065,2 1955,887l18 -1950c490,-143 603,-134 1063,-12l86 1723c30,-203 54,-157 370,-318zm17898 -1087c600,113 507,99 642,613l132 416c15,24 38,51 54,75 586,865 -51,982 -134,1226 -117,347 1,884 -55,1276 -54,384 -203,659 -420,836l-1410 0 -32 -728c871,-497 780,-89 683,-1587l-631 0c-35,962 68,1907 -439,2315l-1393 0c-117,-193 -38,-128 -107,-518 -20,202 -154,381 -355,518l-1903 0c-242,-169 -440,-423 -552,-781 194,-104 475,-330 696,-365 874,-141 24,22 835,283 192,-203 95,-159 247,-236 -287,0 -576,14 -857,16 -654,4 -749,-39 -991,-285 902,10 410,28 563,-222l1712 23 -39 963c-880,321 -1194,-170 -1629,93 287,-211 -133,122 538,265 561,119 1131,70 1337,-448 214,-535 54,-1131 141,-1808 -734,-832 -1070,-661 -2033,-321l-26 -487c656,-280 1521,-437 2139,155l253 -284 728 -123 84 -1036c1093,-31 1152,1146 1159,1160l497 0 -3 -2061c411,425 75,3010 218,3781 98,530 21,212 151,360 162,-289 232,-2688 200,-3084zm9287 -3298l0 4985c7,-23 8,-89 6,-73 -1,7 93,-453 -990,-539 -657,-52 -1035,-12 -1480,421l279 838c503,61 1090,-379 1211,24 -559,43 -1284,218 -1476,737 -16,-781 183,-2526 -138,-3115l-981 -74 -4 1098 -274 0c-50,-810 -151,-3714 60,-4270 443,-1175 2823,-894 3446,-905l341 873zm-15155 6369l-32 1371 -1194 0 54 -2301 -632 -239 -291 1052c-219,79 -1289,254 -1374,513 595,90 882,-97 1372,-137 214,415 282,388 372,877 -148,135 -62,107 -302,235l-2012 0c-890,-483 -809,-1649 -196,-2035 360,-227 1079,-136 1164,-418 -796,-66 -1050,469 -1361,-162l-373 285c0,724 149,1968 -671,2330l-1076 0c-189,-370 -128,-391 -99,-852 436,-296 559,-81 615,-465l876 -86c21,-540 -52,-1033 -53,-1542 -1,-551 104,-1002 73,-1591l335 975c855,97 391,18 1349,-10 669,-19 1052,38 1362,510 106,-421 -93,-614 862,-497l837 385 37 -5875c305,485 174,5185 150,5856l-31 1470c132,432 -171,121 239,351zm10542 -1887c29,781 153,790 460,1051 -421,772 473,-614 -180,212 -149,188 -101,-6 -202,281 44,613 -75,243 210,322l-38 1392 -1048 0 -64 -578c-9,258 -97,445 -239,578l-2656 0 -8 -3411c1347,-43 1241,-243 1191,1328 -14,432 -58,883 16,1301 1020,228 559,-1631 707,-2623l1068 43 97 1204c-163,-186 -167,-841 686,-1100zm-5243 -2241l3 2061 -497 0c-7,-14 -66,-1191 -1159,-1160l-84 1036 -728 123 -253 284c-618,-592 -1483,-435 -2139,-155l6 -2224c213,-18 592,-38 780,-131 223,-110 91,-28 256,-224 8,-9 22,-81 118,-194 1052,-89 1646,-142 2710,-56l217 283c352,317 439,104 770,357zm-4858 3909l27 -1233c963,-340 1299,-511 2033,321 -87,677 73,1273 -141,1808 -206,518 -776,567 -1337,448 -671,-143 -251,-476 -538,-265 435,-263 749,228 1629,-93l39 -963 -1712 -23z"/>
  <rect class="fil2" y="17607" width="48790" height="102"/>
  <g id="_2996860943344">
   <path class="fil3" d="M22407 15887c49,2 131,5 187,3 57,-2 88,-7 106,-15 18,-7 23,-17 15,-33 -9,-16 -29,-40 -58,-70 -29,-31 -67,-68 -105,-100 -38,-32 -77,-57 -116,-81 -40,-25 -79,-48 -116,-69 -37,-20 -72,-38 -106,-53 -35,-15 -69,-27 -94,-35 -24,-8 -39,-11 -57,-13 -18,-1 -40,-1 -68,-1 -28,0 -61,1 -85,5 -24,3 -39,10 -50,18 -11,8 -18,18 -19,35 0,17 5,41 23,71 18,30 48,65 83,100 34,34 73,68 117,102 44,34 93,69 138,91 45,22 86,31 114,37 28,5 43,6 91,8z"/>
   <rect class="fil4" x="16149" y="13496" width="526" height="561" rx="62" ry="59"/>
   <polygon class="fil5" points="16220,13496 16603,13496 16603,13784 16220,13784 "/>
   <path class="fil6" d="M11426 15219c-16,-13 -21,-40 -24,-70 -2,-29 -2,-60 3,-88 5,-28 15,-53 28,-73 13,-19 29,-33 48,-43 19,-10 41,-15 190,-17 149,-2 425,-1 569,-1 144,-1 156,-4 256,-43 100,-39 289,-114 521,-205 233,-92 509,-198 781,-294 272,-96 540,-180 775,-242 234,-61 434,-98 625,-128 190,-29 369,-50 543,-62 95,-7 187,-11 283,-13 -1,-2 -1,-4 -1,-6l0 0c0,-36 30,-66 67,-66l617 0c36,0 66,30 66,66l0 0c0,8 -1,16 -4,23 30,2 60,5 90,8 194,20 375,52 551,94 176,42 346,92 519,159 173,67 349,151 528,250 178,100 359,216 522,322 162,106 307,202 379,251 73,48 73,48 73,48 0,0 0,0 0,0 0,0 0,0 347,38 348,39 1043,115 1481,173 437,57 617,95 707,114 89,18 89,18 89,18 0,0 0,0 -30,0 -31,0 -92,0 -124,10 -33,10 -37,30 -19,71 19,41 59,103 109,157 50,54 110,100 165,134 54,33 104,56 196,66 93,10 228,9 296,8 68,0 68,0 68,0 0,0 0,0 0,0 0,0 0,0 10,19 10,20 31,59 39,120 8,61 3,145 0,186 -3,42 -3,42 -3,42 0,0 0,0 7,0 6,0 19,0 26,0 7,0 7,0 7,0 0,0 0,0 0,49 0,49 0,146 0,195 0,49 0,49 0,49 0,0 0,0 0,0 0,0 0,0 -6,-1 -6,-2 -18,-4 -24,-6 -6,-1 -6,-1 -6,-1 0,0 0,0 0,0 0,0 0,0 0,35 0,35 0,106 -4,161 -3,55 -11,96 -24,131 -13,35 -32,65 -54,89 -22,24 -48,42 -82,58 -34,16 -75,29 -187,42 -111,13 -292,26 -382,32 -91,7 -91,7 -91,7 0,0 0,0 -13,-7 -14,-6 -42,-19 -55,-26 -14,-6 -14,-6 -14,-6 0,0 0,0 -10,0 -11,1 -32,2 -42,3 -10,1 -10,1 -284,10 -275,9 -823,27 -1097,36 -274,9 -274,9 -274,9 0,0 0,0 -2,7 -3,8 -8,22 -11,29 -2,7 -2,7 -2,7 0,0 0,0 -935,-10 -934,-11 -2802,-31 -3774,-44 -971,-12 -1045,-16 -1082,-18 -37,-2 -37,-2 -280,-6 -242,-5 -726,-14 -1059,-27 -332,-13 -513,-30 -747,-56 -233,-25 -518,-59 -685,-82 -167,-24 -217,-37 -257,-54 -39,-18 -69,-40 -89,-63 -19,-23 -28,-46 -28,-180 0,-134 9,-379 18,-514 9,-134 18,-159 56,-205 39,-45 107,-112 209,-203 102,-91 239,-207 314,-281 74,-73 87,-104 87,-130 -1,-25 -15,-45 -47,-59 -32,-14 -81,-23 -141,-20 -60,3 -131,19 -179,27 -49,9 -77,10 -93,-3z"/>
   <path class="fil7" d="M22281 15858c21,5 44,9 71,12l13 1 0 1 -688 214 0 -39 604 -189z"/>
   <path class="fil7" d="M11325 15835c10,-10 21,-21 33,-33l1180 198 356 180 -20 35 -367 -184 -1182 -196z"/>
   <path class="fil8" d="M21879 15454c-11,12 -9,30 3,59 19,41 59,103 109,157 26,29 56,55 85,78l8 8c0,0 0,0 -93,-2 -93,-2 -278,-7 -370,-9 -93,-2 -93,-2 -93,-2 0,0 0,0 -27,-13 -26,-13 -79,-39 -133,-56 -55,-18 -111,-28 -179,-35 -69,-7 -150,-12 -223,-6 -72,5 -137,20 -186,33 -49,13 -83,25 -99,31 -17,5 -17,5 -17,5 0,0 0,0 -171,-4 -172,-4 -515,-12 -686,-16 -172,-4 -172,-4 -172,-4 0,0 0,0 0,0 0,0 0,0 -11,-35 -12,-35 -35,-106 -61,-171 -27,-66 -57,-127 -94,-183 -36,-56 -79,-106 -100,-131 -22,-26 -22,-26 -22,-26 0,0 0,0 66,4 66,4 198,11 345,20 147,9 310,19 480,35 170,15 347,36 517,58 170,22 335,45 488,70 153,24 295,51 412,78 94,21 172,43 224,57z"/>
   <path class="fil4" d="M11515 15153c56,-7 139,-12 201,-13 62,0 102,3 137,14 36,10 66,27 88,48 22,21 36,46 43,60 7,14 7,18 2,28 -6,10 -18,25 -54,57 -37,32 -98,80 -164,134 -66,53 -136,112 -194,159 -59,46 -106,82 -141,108 -35,27 -59,45 -70,54 -12,9 -12,9 -12,9 0,0 0,0 6,-97 6,-98 17,-293 26,-399 8,-106 13,-123 30,-136 17,-12 46,-20 102,-26z"/>
   <path class="fil9" d="M11980 15253c1,3 3,6 4,9 7,14 7,18 2,28 -5,8 -15,21 -41,45l-564 0 2 -20c2,-26 4,-46 5,-62l592 0zm-337 330c-24,20 -48,39 -69,57 -12,8 -22,17 -33,25l-181 0 5 -82 278 0z"/>
   <circle class="fil10" cx="13642" cy="16725" r="891"/>
   <circle class="fil11 str0" cx="13642" cy="16725" r="625"/>
   <path class="fil12" d="M16726 15119c14,59 40,165 64,296 24,132 46,290 59,469 12,180 15,382 13,513 -1,27 -1,52 -2,74l-1701 0 3 24 1697 -3c-2,37 -4,66 -7,92l-1690 0 0 67 1681 0c-10,61 -22,124 -29,156 -6,32 -6,32 -6,32 0,0 0,0 0,0 0,0 0,0 -297,0 -297,0 -891,0 -1188,0 -297,0 -297,0 -297,0 0,0 0,0 0,0 0,0 0,0 -28,-70 -28,-70 -83,-209 -188,-408 -105,-199 -259,-459 -402,-681 -143,-223 -276,-409 -351,-514 -75,-105 -92,-128 -86,-140 5,-12 32,-12 487,-5 455,6 1338,19 1785,23 446,3 457,-4 462,0 6,3 8,16 21,75zm77 63c16,75 44,200 65,338 20,138 35,289 42,408 7,119 7,206 5,313 -1,72 -3,153 -8,230l2663 0c2,-20 3,-40 4,-61 8,-176 6,-385 -3,-542 -8,-157 -22,-261 -53,-352 -31,-91 -78,-170 -126,-232 -49,-63 -100,-109 -125,-133 -26,-23 -26,-23 -26,-23 0,0 0,0 0,0 0,0 0,0 0,0 0,0 0,0 -411,-12 -410,-12 -1232,-35 -1643,-47 -411,-12 -411,-12 -411,-12 0,0 0,0 3,13 3,12 8,37 24,112zm103 1310c-2,29 -4,58 -7,85l0 7 2662 0c3,-30 6,-63 8,-97l-2663 5zm-15 159c-9,67 -19,118 -25,148 -8,40 -8,40 -8,40 0,0 0,0 0,0 0,0 0,0 445,4 445,5 1334,14 1779,18 444,5 444,5 444,5 0,0 0,0 0,0 0,0 0,0 10,-70 5,-34 12,-84 19,-145l-2664 0z"/>
   <rect class="fil11" x="14343" y="15207" width="586" height="131"/>
   <rect class="fil13" x="14423" y="15251" width="425.773" height="42.9671"/>
   <rect class="fil11" x="16976" y="15254" width="586" height="131"/>
   <rect class="fil13" x="17057" y="15298" width="425.773" height="42.9671"/>
   <polygon class="fil14" points="13501,17239 13796,17239 13654,16852 "/>
   <polygon class="fil14" points="13156,16891 13315,17140 13564,16810 "/>
   <polygon class="fil14" points="14137,16891 13978,17140 13729,16811 "/>
   <polygon class="fil14" points="14091,16427 14193,16704 13780,16703 "/>
   <polygon class="fil14" points="13198,16425 13096,16702 13509,16701 "/>
   <polygon class="fil14" points="13984,16303 13714,16185 13690,16597 "/>
   <polygon class="fil14" points="13291,16303 13561,16185 13585,16597 "/>
   <path class="fil15" d="M14099 14975c159,8 450,8 595,8 145,0 145,0 145,0 0,0 0,0 0,0 0,0 0,0 -21,-128 -22,-128 -65,-385 -86,-513 -22,-128 -22,-128 -22,-128 0,0 0,0 0,0 0,0 0,0 -75,21 -75,20 -224,62 -337,98 -113,36 -188,66 -251,99 -62,33 -112,69 -148,109 -37,40 -60,83 -71,128 -11,46 -10,94 2,139 12,45 34,87 59,115 24,29 52,45 210,52z"/>
   <path class="fil16" d="M14565 14983c49,0 93,0 129,0 145,0 145,0 145,0 0,0 0,0 0,0 0,0 0,0 -21,-128 -22,-128 -65,-385 -86,-513 -22,-128 -22,-128 -22,-128 0,0 0,0 0,0 0,0 0,0 -75,21 -75,20 -224,62 -337,98 -70,22 -126,42 -173,62l440 588z"/>
   <path class="fil15" d="M14826 14381c23,131 65,367 87,484 21,118 22,118 23,118 1,0 1,0 1,0 0,0 0,0 255,3 255,4 765,10 1021,14 255,3 255,3 255,3 0,0 0,0 0,0 0,0 0,0 -14,-164 -15,-163 -43,-490 -58,-653 -14,-164 -14,-164 -14,-164 0,0 0,0 0,0 0,0 0,0 -81,4 -82,3 -245,9 -416,20 -172,11 -353,27 -517,48 -164,21 -312,47 -405,65 -93,18 -132,29 -151,34 -20,5 -20,5 -20,5 0,0 0,0 3,13 2,13 8,39 31,170z"/>
   <path class="fil16" d="M14826 14381c23,131 65,367 87,484 21,118 22,118 23,118 1,0 1,0 1,0 0,0 0,0 255,3l321 5 -640 -813c-32,7 -50,12 -61,15 -20,5 -20,5 -20,5 0,0 0,0 3,13 2,13 8,39 31,170z"/>
   <path class="fil15" d="M16727 14370c61,156 155,394 202,514 47,119 47,119 47,119 0,0 0,0 0,0 0,0 0,0 0,0 0,0 0,0 290,4 290,4 871,11 1161,15 291,4 291,4 291,4 0,0 0,0 0,0 0,0 0,0 0,-36 0,-37 0,-110 -1,-148 -1,-38 -2,-42 -2,-44 -1,-2 -1,-2 -1,-2 0,0 0,0 -33,-30 -34,-29 -100,-87 -202,-154 -102,-66 -240,-140 -399,-211 -158,-71 -336,-139 -487,-184 -150,-45 -272,-67 -395,-87 -123,-19 -247,-36 -345,-46 -99,-11 -172,-15 -208,-17 -37,-2 -37,-2 -22,35 14,38 43,112 104,268z"/>
   <path class="fil16" d="M18718 14942c0,-35 0,-75 -1,-100 -1,-38 -2,-42 -2,-44 -1,-2 -1,-2 -1,-2 0,0 0,0 -33,-30 -34,-29 -100,-87 -202,-154 -62,-40 -137,-83 -221,-126l460 456z"/>
   <path class="fil16" d="M16727 14370l35 90 536 547 1023 14 -796 -824c-120,-32 -224,-50 -327,-67 -123,-19 -247,-36 -345,-46 -99,-11 -172,-15 -208,-17 -37,-2 -37,-2 -22,35 14,38 43,112 104,268z"/>
   <path class="fil8" d="M13493 15005l-2064 -10c-11,18 -20,41 -24,66 -5,25 -5,52 -4,78 57,-9 124,-19 180,-26 89,-10 150,-11 201,-6 51,5 91,17 122,30 30,14 51,30 69,48 17,18 31,39 41,60 9,21 13,42 12,57 -1,16 -6,26 -8,31l-3 6 92 21c93,22 278,65 424,87 147,23 255,26 531,30 276,5 720,11 942,15l222 3 -52 -82 -209 -325 -52 -81 -420 -2z"/>
   <path class="fil13" d="M13642 15757c-535,0 -969,433 -969,968 0,106 17,207 48,302 27,2 55,4 84,5 -35,-95 -54,-199 -54,-307 0,-492 399,-890 891,-890 491,0 890,398 890,890 0,126 -26,245 -73,354 23,0 50,1 84,1 43,-110 67,-229 67,-355 0,-535 -433,-968 -968,-968z"/>
   <circle class="fil10" cx="21040" cy="16733" r="891"/>
   <circle class="fil11 str0" cx="21040" cy="16733" r="625"/>
   <polygon class="fil14" points="20899,17246 21194,17247 21052,16859 "/>
   <polygon class="fil14" points="20554,16899 20713,17148 20962,16818 "/>
   <polygon class="fil14" points="21536,16899 21376,17148 21127,16818 "/>
   <polygon class="fil14" points="21489,16435 21591,16712 21178,16711 "/>
   <polygon class="fil14" points="20596,16433 20494,16710 20907,16709 "/>
   <polygon class="fil14" points="21383,16311 21112,16193 21088,16605 "/>
   <polygon class="fil14" points="20689,16311 20960,16193 20984,16605 "/>
   <path class="fil13" d="M21040 15764c-535,0 -969,434 -969,969 0,76 9,149 25,219 3,15 6,30 9,42 6,21 11,37 17,52 5,14 11,27 16,37 5,9 10,16 14,22l1 -1 75 -2c-5,-15 -14,-40 -24,-68 -11,-32 -23,-69 -32,-106 -5,-22 -10,-43 -13,-61 -6,-44 -10,-88 -10,-134 0,-492 399,-890 891,-890 492,0 890,398 890,890 0,126 -26,245 -73,353 23,1 51,2 84,2 44,-110 67,-230 67,-355 0,-535 -433,-969 -968,-969z"/>
   <circle class="fil17 str1" cx="13643" cy="16708" r="80"/>
   <circle class="fil17 str1" cx="21049" cy="16724" r="80"/>
   <path class="fil18" d="M21967 15514c-6,15 16,51 41,85 24,33 52,64 85,94 34,30 74,59 111,81 37,22 71,36 109,46 38,10 79,15 99,17 21,3 21,3 21,3 0,0 0,0 -66,-54 -65,-54 -196,-162 -278,-220 -83,-58 -116,-66 -122,-52z"/>
   <ellipse class="fil3" cx="22559" cy="16687" rx="88" ry="138"/>
   <path class="fil7" d="M16706 14796c-39,-163 -113,-477 -155,-635 -16,-58 -27,-95 -35,-119 -4,0 -8,-1 -12,-2 -4,-1 -8,-3 -12,-5 4,24 12,63 25,127 34,164 106,492 142,656 36,164 36,164 36,164 0,0 0,0 9,1 9,0 27,2 36,2 9,1 9,1 9,1 0,0 0,0 -1,-7 -1,-6 -4,-19 -42,-183z"/>
   <path class="fil17 str2" d="M16637 14981c-791,-11 -1660,-15 -2121,-19 -461,-5 -514,-10 -553,-20 -38,-10 -61,-24 -80,-41 -19,-17 -33,-36 -45,-63 -11,-27 -18,-61 -17,-98 1,-37 12,-77 30,-116 18,-38 44,-74 79,-107 34,-33 77,-61 134,-89 58,-27 129,-53 240,-88 111,-35 260,-80 415,-119 155,-39 315,-72 470,-97 154,-25 302,-41 478,-55 176,-14 379,-27 537,-31 158,-4 272,1 412,14 140,12 306,31 466,57 159,26 312,59 449,96 137,37 260,79 392,132 132,52 274,116 401,186 127,70 239,145 307,196 67,51 91,77 119,110 28,33 60,73 81,108 21,34 30,63 33,77 2,15 -2,15 -361,6 -359,-10 -1074,-28 -1866,-39z"/>
   <path class="fil19" d="M15331 15594c42,0 82,10 121,28 37,19 68,46 90,81 22,35 33,77 33,128 0,50 -11,93 -33,128 -22,36 -53,63 -90,81 -39,19 -79,28 -121,28l-161 0 0 283 -160 0 0 -757 321 0zm-31 331c35,0 62,-8 81,-25 18,-15 27,-39 27,-69 0,-31 -9,-55 -27,-70 -19,-17 -46,-25 -81,-25l-130 0 0 189 130 0z"/>
   <path id="1" class="fil19" d="M16306 15976c0,-40 -8,-78 -24,-115 -18,-37 -43,-67 -77,-90 -34,-23 -77,-36 -127,-37 -51,0 -92,12 -125,35 -35,24 -60,54 -76,91 -17,35 -26,74 -26,116 0,42 9,81 26,117 16,36 41,66 76,90 33,23 74,35 125,35 50,-1 93,-14 127,-37 34,-23 59,-53 77,-90 16,-37 24,-75 24,-115zm-227 -396c109,0 203,39 280,116 77,78 116,171 116,281 0,108 -39,201 -116,279 -77,77 -171,116 -280,116 -109,0 -202,-39 -280,-116 -77,-78 -116,-171 -116,-279 0,-110 39,-203 116,-281 78,-77 171,-116 280,-116z"/>
   <polygon id="2" class="fil19" points="17033,16352 16584,16352 16584,15594 16744,15594 16744,16210 17033,16210 "/>
   <polygon id="3" class="fil19" points="17354,15594 17354,16352 17194,16352 17194,15594 "/>
   <path id="4" class="fil19" d="M17653 16016c3,34 12,64 27,92 19,36 46,64 79,83 33,20 71,29 113,29 45,0 84,-10 118,-31 34,-21 58,-49 74,-84l125 78c-22,59 -62,106 -119,139 -58,33 -123,50 -197,50 -72,0 -137,-16 -196,-48 -60,-31 -107,-76 -141,-135 -35,-59 -52,-129 -52,-211 0,-83 17,-153 52,-212 34,-59 81,-104 141,-135 59,-32 124,-47 196,-47 74,0 139,16 197,49 57,34 97,80 119,140l-125 77c-16,-34 -40,-62 -74,-84 -34,-21 -73,-31 -118,-31 -42,0 -80,10 -113,29 -33,19 -60,47 -79,84 -15,27 -24,57 -27,91 -2,21 -2,47 0,77z"/>
   <polygon id="5" class="fil19" points="18785,16352 18310,16352 18310,15594 18774,15594 18774,15736 18470,15736 18470,15898 18742,15898 18742,16038 18470,16038 18470,16211 18785,16211 "/>
  </g>
  <g id="_2996861009552">
   <path class="fil20" d="M23216 13605l179 0c1,-7 3,-13 4,-20 4,-14 7,-28 11,-39 7,-23 15,-39 28,-54 12,-15 30,-29 45,-43 16,-14 29,-28 39,-43 10,-16 17,-32 15,-45 -3,-14 -14,-24 -24,-29 -10,-5 -18,-5 -22,-5 -4,0 -4,0 -5,-55 0,-55 -2,-164 -6,-225 -3,-61 -8,-74 -15,-83 -7,-9 -17,-14 -27,-15 -11,-1 -23,1 -34,7 -10,5 -20,15 -25,43 -5,27 -6,72 -6,94 -1,23 -1,23 -14,26 -14,3 -41,10 -61,16 -19,7 -30,13 -53,18 -23,4 -58,7 -81,10 -23,3 -33,6 -39,38 -5,33 -5,94 -1,142 3,49 9,85 19,113 10,28 24,49 36,68 12,19 23,36 30,54 0,2 1,4 2,6 2,7 4,14 5,21z"/>
   <path class="fil21" d="M23216 13605l46 0c-4,-13 -8,-28 -13,-40 -4,-12 -10,-22 -16,-32 -6,-10 -14,-20 -22,-33 -9,-13 -18,-29 -27,-50 -8,-21 -16,-48 -21,-78 -5,-30 -7,-64 -8,-92 -1,-28 -1,-50 2,-65 3,-15 9,-23 19,-28 9,-5 23,-8 34,-7 12,1 21,5 30,7 9,2 18,1 27,-3 9,-5 18,-12 27,-17 9,-6 18,-9 29,-9 11,1 24,6 34,5 10,-1 17,-7 21,-14 5,-8 7,-18 8,-36 2,-19 3,-46 5,-69 2,-23 5,-42 10,-55 4,-13 10,-21 17,-26 8,-5 17,-7 28,-6 5,0 10,1 15,2 -7,-6 -15,-9 -23,-10 -11,-1 -23,1 -34,7 -10,5 -20,15 -25,43 -5,27 -6,72 -6,94 -1,23 -1,23 -14,26 -14,3 -41,10 -61,16 -19,7 -30,13 -53,18 -23,4 -58,7 -81,10 -23,3 -33,6 -39,38 -5,33 -5,94 -1,142 3,49 9,85 19,113 10,28 24,49 36,68 12,19 23,36 30,54 0,2 1,4 2,6 2,7 4,14 5,21z"/>
   <path class="fil22" d="M23161 13584l0 130c0,131 0,393 5,538 5,145 14,173 29,194 15,21 37,35 130,42 92,8 256,8 338,8l82 0 0 146 -1 592 0 136 101 0c28,0 28,0 28,13 0,6 1,15 1,30 20,3 43,7 68,12 63,11 141,23 251,33 15,1 32,3 48,4l0 -12 63 0c7,28 19,53 36,65 25,18 63,6 93,-6 30,-13 51,-25 69,-52 1,-2 3,-5 4,-7l59 0 0 17c1,0 2,0 2,0l106 0c7,0 14,3 19,7 34,-2 67,-4 98,-6 3,-8 12,-8 46,-7l34 0c33,-3 62,-6 85,-10 24,-3 42,-7 56,-9 9,-5 17,-9 24,-12 0,-56 2,-56 14,-56 7,-1 16,-1 26,0 1,-16 1,-47 1,-129l0 -534 0 -133 42 24 156 87 0 -481c-30,-16 -72,-35 -109,-51 -43,-19 -80,-32 -118,-45 -39,-13 -80,-26 -121,-36 -42,-10 -85,-18 -124,-25 -40,-8 -75,-15 -104,-21 -29,-6 -50,-10 -76,-17 -4,-2 -8,-3 -13,-4 -11,-3 -22,-7 -33,-11l0 -5 0 -49c-1,0 -2,0 -3,1 -4,3 -9,6 -13,9 -16,10 -30,15 -49,19 -20,5 -45,9 -70,11 -26,2 -52,2 -78,0 -26,-3 -52,-7 -72,-12 -19,-5 -31,-11 -41,-17 -5,-2 -9,-5 -13,-8 0,0 -1,0 -1,0l0 51c-5,2 -11,4 -16,7 -8,5 -16,10 -24,16 -30,9 -66,20 -128,33 -84,17 -214,40 -309,55 -96,15 -156,22 -196,26 -40,5 -58,6 -72,6 -13,1 -21,1 -25,1 -5,0 -6,0 -7,-93 -1,-92 -1,-278 -1,-371l0 -92 -49 -1 -10 0 -188 -1 0 0 -50 0z"/>
   <path class="fil23" d="M25077 14579l41 23 156 87 0 -47 -15 -5c-36,-13 -109,-37 -146,-50 -36,-12 -36,-12 -36,-12l0 4z"/>
   <path class="fil23" d="M23161 13584l0 130c0,131 0,393 5,538 5,145 14,173 29,194 15,21 37,35 130,42 92,8 256,8 338,8l80 0c-2,-15 -7,-19 -15,-22 -8,-4 -18,-8 -43,-10 -24,-3 -62,-5 -123,-8 -61,-3 -144,-9 -200,-13 -57,-5 -86,-10 -106,-16 -19,-6 -29,-14 -36,-24 -7,-9 -11,-22 -17,-156 -5,-134 -12,-390 -18,-522 -5,-106 -10,-132 -15,-141l-9 0z"/>
   <polygon class="fil20" points="24236,13921 24576,13921 24576,14028 24434,14156 24386,14156 24236,14017 "/>
   <path class="fil24" d="M24212 13923c-2,3 7,11 15,17 8,6 14,10 23,15 10,6 22,12 41,17 20,5 46,9 72,12 26,2 52,2 78,0 25,-2 50,-6 70,-11 19,-4 33,-9 49,-19 16,-10 34,-25 43,-32 9,-8 9,-8 9,-8 0,0 0,0 -9,2 -8,2 -24,5 -56,9 -32,4 -80,8 -124,9 -45,0 -87,-3 -117,-6 -30,-2 -48,-3 -63,-5 -16,-1 -29,-3 -31,0z"/>
   <path class="fil20" d="M23836 13191c-4,24 -9,57 -11,73 -3,16 -3,16 -3,16 0,0 0,0 -2,0 -2,0 -7,0 -13,2 -6,2 -14,5 -21,13 -8,7 -15,18 -20,35 -4,16 -5,38 -5,57 1,19 4,35 8,49 4,15 10,28 17,37 8,10 17,16 27,20 10,5 21,7 32,8 12,1 24,1 31,1 6,0 6,0 6,0 0,0 0,0 1,24l0 21c2,15 5,32 8,49 4,26 10,50 18,72 7,23 15,45 24,64 8,19 18,35 27,49 10,14 20,26 33,39 13,14 29,29 44,41 16,13 31,22 49,32 17,9 36,19 58,27 22,9 46,16 68,22 22,5 42,9 62,11 19,2 38,2 63,2 25,1 56,1 89,0 33,0 67,-3 100,-5 33,-3 64,-7 93,-13 29,-7 56,-16 81,-29 26,-13 50,-29 70,-44 19,-14 36,-27 50,-44 15,-17 29,-37 42,-58 13,-21 27,-42 39,-66 12,-23 22,-49 30,-75 9,-25 15,-50 19,-73 5,-23 8,-45 9,-56 2,-11 2,-11 2,-11 0,0 0,0 2,1 2,1 7,2 14,2 8,1 19,0 31,-3 2,-1 5,-1 7,-2 4,-2 8,-5 12,-8 10,-10 17,-25 22,-44 4,-20 6,-43 7,-65 1,-22 1,-42 -4,-58 -4,-16 -13,-28 -20,-34 -6,-7 -10,-9 -13,-10 -2,-1 -2,-1 -2,-16 -1,-15 -1,-45 -2,-59 0,-15 0,-15 -1,-36 -1,-20 -3,-60 -8,-90 -6,-30 -15,-49 -52,-65 -37,-16 -102,-29 -208,-36 -106,-7 -253,-8 -373,-5 -120,2 -215,7 -285,14 -71,8 -118,18 -151,33 -32,15 -49,36 -62,60 -13,24 -23,51 -28,72 -6,21 -8,36 -11,59z"/>
   <path class="fil21" d="M23802 13284c-5,2 -11,5 -16,11 -8,7 -15,18 -20,35 -4,16 -5,38 -5,57 1,19 4,35 8,49 4,15 10,28 17,37 8,10 17,16 27,20 10,5 21,7 32,8 12,1 24,1 31,1 6,0 6,0 6,0 0,0 0,0 1,24l0 21c2,15 5,32 8,49 4,26 10,50 18,72 7,23 15,45 24,64 8,19 18,35 27,49 10,14 20,26 33,39 13,14 29,29 44,41 16,13 31,22 49,32 17,9 36,19 58,27 22,9 46,16 68,22 22,5 42,9 62,11 19,2 38,2 63,2 25,1 56,1 89,0 33,0 67,-3 100,-5 33,-3 64,-7 93,-13 29,-7 56,-16 81,-29 26,-13 50,-29 70,-44 19,-14 36,-27 50,-44 15,-17 29,-37 42,-58 13,-21 27,-42 39,-66 12,-23 22,-49 30,-75 9,-25 15,-50 19,-73 5,-23 8,-45 9,-56 2,-11 2,-11 2,-11 0,0 0,0 2,1 2,1 7,2 14,2 8,1 19,0 31,-3 2,-1 5,-1 7,-2 4,-2 8,-5 12,-8 10,-10 17,-25 22,-44 4,-20 6,-43 7,-65 1,-22 1,-42 -4,-58 -4,-16 -13,-28 -20,-34 -2,-3 -4,-5 -6,-6 3,9 6,20 8,32 3,15 4,31 3,50 -1,18 -5,39 -10,56 -5,17 -13,30 -23,39 -10,9 -23,13 -34,15 -10,2 -18,2 -22,1 -4,0 -4,0 -4,0 0,0 0,0 -1,7 -1,6 -4,19 -8,39 -4,19 -10,45 -18,72 -9,27 -20,54 -32,78 -11,23 -24,43 -38,63 -15,21 -32,41 -50,59 -19,18 -37,34 -55,48 -19,14 -36,27 -57,39 -20,12 -43,23 -68,31 -25,9 -51,14 -80,18 -29,4 -61,5 -96,7 -34,1 -71,2 -103,2 -32,-1 -59,-2 -87,-7 -28,-4 -59,-13 -86,-22 -27,-10 -51,-21 -72,-33 -22,-13 -41,-27 -58,-42 -16,-15 -30,-30 -43,-49 -13,-19 -25,-41 -36,-64 -10,-22 -19,-44 -26,-69 -7,-25 -13,-52 -18,-80 -4,-27 -6,-56 -7,-70 -1,-14 -1,-14 -1,-14 0,0 0,0 -8,3 -8,3 -24,8 -37,10 -13,1 -23,-2 -32,-9 -9,-7 -17,-19 -23,-31 -6,-13 -11,-28 -14,-45 -3,-18 -5,-39 -4,-57 1,-18 3,-33 8,-43 3,-6 6,-10 8,-14z"/>
   <path class="fil25" d="M24328 13794c4,5 9,9 14,14 5,4 10,8 15,12 6,3 12,5 19,7 8,2 17,4 26,4 10,1 19,1 29,1 10,0 21,-1 30,-3 8,-1 13,-4 18,-7 4,-3 8,-6 12,-11 4,-4 7,-10 9,-14 1,-3 1,-3 -15,-4 -15,-1 -47,-2 -78,-5 -31,-2 -62,-5 -75,-4 -13,1 -8,5 -4,10z"/>
   <path class="fil25" d="M24575 13540c-7,1 -17,1 -26,1 -8,-1 -15,-2 -20,-5 -6,-2 -10,-6 -14,-10 -4,-4 -8,-9 -13,-16 -4,-7 -10,-17 -15,-30 -6,-13 -11,-28 -14,-44 -4,-15 -6,-32 -6,-44 -1,-12 -1,-20 -1,-29 1,-10 2,-21 6,-31 4,-11 10,-21 16,-29 6,-9 12,-16 19,-21 8,-5 16,-9 22,-11 6,-3 10,-3 17,-1 6,2 15,7 29,29 14,22 33,61 43,97 9,36 9,70 5,92 -4,23 -13,33 -19,40 -6,6 -9,8 -13,9 -4,2 -8,3 -16,3z"/>
   <path class="fil25" d="M24306 13535c10,-1 18,-4 25,-11 7,-7 13,-18 21,-33 7,-14 15,-32 20,-50 5,-18 5,-35 5,-53 0,-17 0,-34 -2,-48 -2,-13 -5,-24 -10,-33 -4,-9 -11,-18 -17,-24 -7,-6 -14,-11 -21,-13 -7,-3 -15,-4 -28,-4 -13,0 -31,1 -47,5 -15,3 -27,9 -38,30 -10,20 -19,55 -17,88 3,33 17,65 32,89 15,25 31,42 44,51 13,8 24,8 33,6z"/>
   <path class="fil25" d="M23979 13117c0,46 0,129 0,171 0,41 0,41 -9,37 -9,-3 -27,-11 -43,-20 -15,-9 -29,-21 -39,-49 -11,-28 -19,-74 -18,-113 1,-40 11,-73 26,-90 15,-16 37,-15 52,-12 15,3 23,7 27,14 4,7 4,16 4,62z"/>
   <path class="fil25" d="M24899 13250c-1,-43 -1,-121 -1,-159 0,-39 0,-39 16,-39 16,0 47,0 64,11 17,11 19,32 20,57 1,24 0,51 -4,72 -4,22 -11,37 -27,56 -16,18 -41,40 -54,47 -13,6 -14,-3 -14,-45z"/>
   <path class="fil26" d="M24076 12874c-181,2 -198,-2 -229,-22 -1,0 -2,-1 -4,-1 -6,21 -16,57 -21,85 -3,14 -4,25 -5,35l0 0 0 1c0,4 0,11 0,22 -1,16 -1,41 0,72 1,30 2,66 4,91 2,20 3,34 5,45 1,7 1,13 2,19 1,9 2,17 3,22 1,5 2,8 2,10 1,5 1,5 14,8l52 13 10 3 -1 -2 4 1 0 -32 0 -134 0 -34 35 10c35,10 104,29 182,43 78,13 164,20 240,23 76,2 143,1 206,-4 63,-4 123,-10 185,-22 62,-12 127,-29 159,-37l32 -9 0 30 0 117 0 29 16 -10 35 -23 27 -17 16 -11 -1 -23c0,-12 -1,-30 -1,-50l-1 -6c0,-17 0,-38 0,-58 0,-20 0,-40 0,-57 0,-2 0,-4 0,-6 -1,-16 -2,-49 -8,-80 -5,-27 -14,-54 -23,-76 -24,14 -57,15 -201,19 -184,4 -547,13 -734,16z"/>
   <path class="fil27" d="M24969 12786c11,2 24,19 36,43 12,23 23,54 29,86 6,31 7,64 8,80 0,16 0,16 -71,16 -72,0 -215,0 -419,0 -204,0 -469,-1 -602,-1 -132,-1 -132,-1 -133,-11 0,-11 -1,-33 5,-63 5,-31 17,-71 23,-90 6,-20 6,-20 105,-23 100,-3 299,-8 481,-10 181,-2 346,-2 432,-8 86,-7 95,-20 106,-19z"/>
   <ellipse class="fil24" cx="24679" cy="13275" rx="94" ry="31"/>
   <path class="fil28" d="M25012 12838c13,-4 20,-10 31,-21 31,-28 94,-86 124,-118 3,-4 6,-7 9,-11 11,-11 12,-15 12,-18 0,-4 -3,-8 -39,-30 -36,-21 -106,-60 -140,-80 -35,-19 -35,-19 -35,-19 0,0 0,0 -82,-25 -82,-25 -246,-74 -339,-101 -92,-27 -113,-31 -133,-30 -11,1 -22,3 -46,9 -15,3 -31,6 -51,11 -56,14 -136,36 -216,60l-205 55c-92,24 -92,24 -120,49 -21,18 -59,51 -88,77 -25,17 -36,28 -41,37 -7,9 -7,12 -3,17 2,12 12,25 38,46 34,27 95,67 125,88 18,11 25,16 34,18 31,20 48,24 229,22 187,-3 550,-12 734,-16 147,-4 179,-5 202,-20z"/>
   <path class="fil27" d="M25016 12837c10,-4 17,-11 27,-20 31,-28 94,-86 124,-118 3,-4 6,-7 9,-11 11,-11 12,-15 12,-18 0,-4 -3,-8 -39,-30 -36,-21 -106,-60 -140,-80 -35,-19 -35,-19 -35,-19l-32 -10c47,33 117,81 154,109 45,34 46,39 38,51 -8,13 -23,32 -45,59 -22,26 -49,59 -63,75 -5,6 -8,9 -10,12z"/>
   <path class="fil27" d="M23835 12538c-29,9 -35,15 -53,31 -21,18 -59,51 -88,77 -25,17 -36,28 -41,37 -7,9 -7,12 -3,17 2,12 12,25 38,46 34,27 95,67 125,88 17,11 25,16 33,18 -3,-3 -7,-7 -12,-11 -29,-24 -86,-72 -115,-100 -29,-28 -30,-35 -30,-43 1,-8 3,-16 23,-39 19,-23 56,-62 78,-84 23,-22 30,-28 43,-36l2 -1z"/>
   <ellipse class="fil24" cx="24158" cy="13276" rx="94" ry="31"/>
   <ellipse class="fil29" cx="24418" cy="12643" rx="113" ry="137"/>
   <path class="fil30" d="M24815 13266l-268 0c-12,0 -23,5 -31,13l0 0c-3,3 -4,6 -6,9 -1,4 -2,9 -3,14 -1,5 -1,11 -1,14 0,3 0,3 0,3 0,0 0,0 -5,-2 -5,-1 -16,-4 -28,-6 -13,-3 -29,-5 -44,-6 -15,-1 -30,-1 -43,0 -13,2 -23,5 -31,8 -8,3 -14,5 -17,6 -3,2 -3,2 -3,2 0,0 0,0 0,-6 0,-5 0,-16 -2,-24 -1,-2 -1,-4 -2,-5 -7,-12 -21,-20 -36,-20l-268 0c-18,0 -34,11 -40,27l-154 -35 151 139 0 0 0 102c0,23 20,42 43,42l268 0c24,0 43,-19 43,-42l0 -124 166 0 0 124c0,23 19,42 43,42l268 0c23,0 42,-19 42,-42l0 -125 188 -179 -197 86c-8,-9 -20,-15 -33,-15z"/>
   <path class="fil31" d="M24810 13266l-263 0c-12,0 -23,5 -31,13l0 0c-3,3 -4,6 -6,9 -1,4 -2,9 -3,14 -1,5 -1,11 -1,14 0,3 0,3 0,3l-1 -1 0 15c0,11 -1,27 -1,42l0 0 0 124c0,23 19,42 43,42l144 0 1 -1c12,-8 17,-20 19,-26 2,-6 2,-6 -25,-5 -27,0 -81,0 -111,-2 -30,-2 -35,-7 -38,-14 -3,-7 -4,-16 -4,-41 -1,-25 -2,-66 -1,-96 1,-29 3,-46 8,-55 4,-10 10,-12 16,-13 6,-1 13,-1 43,-1 30,0 83,-1 118,0 34,0 50,1 62,0 13,-2 22,-6 28,-14 1,-2 2,-5 3,-7z"/>
   <path class="fil31" d="M24282 13266l-255 0c-18,0 -34,11 -40,27l-154 -35 151 139 0 0 0 102c0,23 20,42 43,42l156 0c13,-8 19,-17 23,-22 5,-7 5,-7 -19,-6 -23,0 -71,1 -102,1 -30,-1 -45,-3 -55,-6 -10,-3 -15,-8 -19,-13 -3,-6 -4,-12 -4,-42 -1,-29 -1,-83 0,-113 2,-31 6,-39 11,-44 4,-6 10,-9 22,-11 12,-2 31,-2 56,-2 26,0 58,0 88,1 31,0 59,1 78,-5 10,-3 17,-8 20,-13z"/>
   <path class="fil32" d="M24319 13273c-7,-4 -15,-7 -24,-7l-67 0c0,23 1,57 -1,84 -2,33 -7,57 -15,81 -8,23 -19,47 -33,66 -13,19 -29,34 -44,44l104 0c8,-7 15,-16 23,-26 11,-16 21,-35 29,-56 8,-21 14,-45 18,-69 4,-25 7,-51 8,-72 2,-18 2,-33 2,-45z"/>
   <path class="fil32" d="M24815 13266l-67 0c0,16 0,36 0,55 -1,28 -2,54 -7,78 -4,25 -13,49 -23,70 -10,21 -21,39 -33,53 -7,8 -13,14 -18,19l86 0c1,-1 3,-3 5,-4 10,-9 20,-20 30,-34 9,-15 19,-33 26,-53 8,-21 13,-44 17,-68 3,-24 5,-49 6,-72 0,-14 0,-27 -1,-38 -6,-4 -13,-6 -21,-6z"/>
   <path class="fil33" d="M24420 13743c-67,0 -128,-11 -173,-29 6,55 81,98 173,98 92,0 167,-43 173,-98 -45,18 -106,29 -173,29z"/>
   <path class="fil34" d="M24356 13621c-13,-1 -31,-1 -41,-4 -10,-4 -12,-10 -12,-20 1,-10 4,-23 11,-32 6,-9 16,-14 29,-18 12,-4 28,-6 36,-7 8,-1 8,-1 8,-1 0,0 0,0 0,13 0,14 0,41 0,55 0,14 0,14 0,14 0,0 0,0 -4,0 -5,0 -14,0 -27,0z"/>
   <line class="fil17" x1="24098" y1="14476" x2="24098" y2= "14864" />
   <line class="fil17" x1="23923" y1="14603" x2="24278" y2= "14603" />
   <rect class="fil35" x="25274" y="13881" width="844" height="1152"/>
   <rect class="fil9" x="25351" y="13957" width="691" height="1000"/>
   <path class="fil20" d="M25944 13776c-26,-7 -54,-15 -80,-20 -27,-6 -52,-8 -71,-8 -18,0 -29,2 -37,8 -8,5 -12,13 -17,19 -6,7 -11,11 -23,16 -11,5 -27,12 -41,20 -13,8 -24,19 -30,30 -7,10 -8,21 -1,30 7,9 23,15 34,24 12,8 19,18 29,28 10,10 23,21 43,30 21,8 48,13 76,15 29,1 58,-1 82,-10 25,-10 44,-27 65,-39 21,-13 44,-21 67,-29 22,-7 44,-13 52,-21 9,-9 3,-20 -12,-32 -15,-13 -39,-27 -63,-37 -24,-11 -47,-16 -73,-24z"/>
   <path class="fil21" d="M25756 13955c19,7 44,11 70,13 29,1 58,-1 82,-10 25,-10 44,-27 65,-39 21,-13 44,-21 67,-29 9,-3 19,-6 28,-9 -12,1 -25,4 -41,8 -22,7 -51,17 -78,28 -27,10 -52,20 -77,26 -25,7 -51,9 -74,10 -15,1 -28,1 -42,2z"/>
   <path class="fil21" d="M25944 13776c-26,-7 -54,-15 -80,-20 -27,-6 -52,-8 -71,-8 -18,0 -29,2 -37,8 -8,5 -12,13 -17,19 -6,7 -11,11 -23,16 -11,5 -27,12 -41,20 -13,8 -24,19 -30,30 -7,10 -8,21 -1,30 7,9 23,15 34,24 5,3 9,7 13,10l0 0c0,-12 5,-26 12,-39 7,-12 16,-21 26,-28 11,-6 22,-10 35,-15 13,-4 28,-10 50,-14 21,-4 50,-6 81,-6 32,0 65,2 96,7 31,5 59,14 96,37l5 3c-2,-4 -7,-9 -12,-13 -15,-13 -39,-27 -63,-37 -24,-11 -47,-16 -73,-24z"/>
   <rect class="fil9" x="24290" y="15500" width="227" height="109"/>
   <path class="fil17 str3" d="M23872 15625c-1,14 -2,27 -3,38 -4,49 -12,62 -29,70 -17,8 -44,11 -66,8 -22,-3 -40,-12 -51,-25 -11,-13 -17,-31 -19,-89 -2,-59 -2,-158 -1,-207 0,-50 0,-50 28,-50 29,0 85,0 114,0 28,0 28,0 28,13 1,11 1,31 1,74 38,0 88,1 116,2 38,2 39,3 41,29 3,27 7,78 6,106 -2,29 -8,34 -43,35 -32,1 -87,-1 -122,-4z"/>
   <rect class="fil17 str3" x="24103" y="15467" width="165" height="173" rx="30" ry="26"/>
   <path class="fil36" d="M23995 17375c149,0 269,71 269,158l22 0 0 75 -588 0 0 -75 27 0c0,-87 121,-158 270,-158z"/>
   <path class="fil36" d="M24751 17375c149,0 269,71 269,158l22 0 0 75 -588 0 0 -75 27 0c0,-87 121,-158 270,-158z"/>
   <rect class="fil23" x="24364" y="14160" width="85.9341" height="1310.51"/>
   <path class="fil23" d="M24208 14344c-10,-18 -30,-55 -43,-90 -13,-35 -19,-68 -22,-94 -2,-26 -2,-45 4,-64 2,-10 6,-19 10,-28 -7,12 -14,26 -19,41 -6,17 -9,36 -10,55 -2,19 -2,38 2,62 5,24 13,54 24,78 10,25 22,45 33,60 11,15 21,26 26,31l4 6 30 -35 117 -139 0 -41 -112 136 -34 41 -10 -19z"/>
   <path class="fil23" d="M24450 14175l0 44c4,5 8,11 14,18l104 129 26 32 5 -4c6,-4 17,-12 28,-27 12,-15 23,-37 33,-61 10,-25 18,-52 23,-80 6,-29 8,-58 7,-85 -2,-27 -7,-50 -21,-74 -11,-19 -27,-38 -41,-53 -2,0 -4,-1 -6,-1l-13 -4c14,8 28,19 39,33 13,16 23,34 28,54 6,19 6,38 4,64 -3,26 -9,59 -22,94 -13,35 -33,72 -43,90l-10 19 -34 -41 -121 -147z"/>
   <path class="fil23" d="M23951 14476c-5,1 -11,4 -16,9 -5,4 -10,11 -13,18 -4,8 -6,16 -7,70 -1,54 -1,152 0,205 1,52 2,59 5,65 2,6 6,12 12,17 5,4 13,7 28,8 15,2 36,2 82,2 47,0 117,0 156,-1 39,0 45,-1 53,-3 7,-2 16,-7 23,-13 6,-7 10,-16 13,-24 2,-8 2,-14 1,-67 -1,-53 -2,-153 -4,-205 -1,-53 -3,-59 -7,-64 -4,-5 -10,-9 -16,-12 -6,-3 -13,-5 -16,-5 -3,-1 -3,-1 -3,-1 0,0 0,0 2,1 2,1 6,3 9,6 4,4 8,8 11,14 3,7 5,15 7,66 1,51 1,145 0,196 -1,51 -3,59 -5,66 -2,7 -5,13 -12,17 -6,4 -15,6 -63,6 -49,1 -137,0 -184,-2 -48,-1 -54,-3 -59,-6 -6,-4 -9,-10 -11,-60 -2,-51 -1,-146 0,-199 2,-54 3,-64 5,-72 2,-8 5,-14 10,-19 4,-6 10,-11 10,-14 0,-2 -5,-1 -11,1z"/>
   <rect class="fil23" x="23928" y="14591" width="350.244" height="23.4441"/>
   <rect class="fil23" x="24088" y="14475" width="19.523" height="382.806"/>
   <line class="fil17" x1="24757" y1="14487" x2="24757" y2= "14874" />
   <line class="fil17" x1="24582" y1="14613" x2="24936" y2= "14613" />
   <path class="fil29" d="M24645 14616c58,-3 171,-2 230,-4 58,-1 61,-3 62,-7 2,-4 2,-9 1,-18 -1,-9 -2,-23 -3,-29 0,-7 0,-7 -59,-6 -58,0 -175,1 -233,2 -58,0 -58,0 -59,6 -1,7 -2,19 -2,32 -1,12 0,25 1,28 2,4 4,-2 62,-4z"/>
   <path class="fil23" d="M24610 14486c-5,2 -11,4 -16,9 -5,5 -10,11 -14,19 -3,7 -5,16 -6,69 -1,54 -1,153 -1,205 1,53 3,59 6,65 2,7 6,13 11,17 6,4 14,7 29,9 14,1 36,2 82,2 47,0 117,-1 156,-1 39,-1 45,-1 53,-4 7,-2 16,-6 22,-13 7,-7 11,-16 13,-24 3,-7 3,-14 2,-67 -1,-53 -2,-152 -4,-205 -1,-53 -4,-59 -8,-64 -3,-5 -9,-9 -15,-12 -6,-2 -13,-4 -16,-5 -3,-1 -3,-1 -3,-1 0,0 0,0 2,1 2,1 6,4 9,7 4,3 7,7 10,14 3,6 6,14 7,65 2,51 2,145 1,196 -1,51 -3,59 -5,66 -3,8 -6,14 -12,17 -6,4 -15,6 -63,7 -49,0 -137,-1 -185,-2 -47,-1 -53,-3 -59,-7 -5,-4 -9,-9 -10,-60 -2,-50 -1,-146 0,-199 1,-53 3,-64 5,-72 2,-8 5,-13 9,-19 5,-5 10,-11 11,-13 0,-3 -5,-2 -11,0z"/>
   <rect class="fil23" x="24587" y="14601" width="350.244" height="23.4441"/>
   <rect class="fil23" x="24747" y="14602" width="19.523" height="265.751"/>
   <path class="fil29" d="M24065 14055c-7,-1 -16,-1 -32,0 -16,1 -37,3 -53,5 -16,3 -25,7 -30,11 -4,4 -4,9 -1,12 3,3 8,5 24,4 15,-1 41,-6 61,-11 21,-6 35,-12 39,-16 5,-3 0,-5 -8,-5z"/>
   <path class="fil29" d="M23904 14076c-9,-2 -20,-1 -31,0 -11,1 -22,2 -32,4 -10,2 -20,6 -27,10 -7,4 -12,9 -12,13 -1,4 1,7 6,10 4,2 11,4 22,4 11,0 28,-2 41,-4 14,-2 26,-5 35,-8 8,-4 13,-7 16,-11 3,-3 3,-7 0,-11 -3,-3 -9,-6 -18,-7z"/>
   <path class="fil29" d="M24765 14046c8,0 17,0 33,1 16,1 37,4 53,7 15,3 25,7 29,12 5,4 4,8 1,11 -3,4 -8,6 -24,4 -15,-2 -41,-7 -61,-13 -20,-6 -34,-13 -39,-17 -4,-3 1,-5 8,-5z"/>
   <path class="fil29" d="M24927 14071c8,-1 20,1 31,2 10,1 21,2 31,5 10,2 20,6 27,10 7,4 11,9 12,13 1,5 -2,8 -7,10 -4,2 -11,4 -22,3 -11,0 -27,-2 -41,-4 -14,-3 -26,-6 -34,-10 -8,-3 -13,-7 -16,-11 -3,-3 -3,-7 0,-11 3,-3 10,-6 19,-7z"/>
   <circle class="fil23" cx="24449" cy="15300" r="36"/>
   <circle class="fil23" cx="24451" cy="15126" r="36"/>
   <circle class="fil23" cx="24453" cy="14953" r="36"/>
   <circle class="fil23" cx="24455" cy="14779" r="36"/>
   <circle class="fil23" cx="24457" cy="14605" r="36"/>
   <circle class="fil23" cx="24459" cy="14431" r="36"/>
   <rect class="fil37" x="25484" y="14023" width="414.045" height="36.4594"/>
   <circle class="fil38" cx="25486" cy="14827" r="74"/>
   <path class="fil17 str4" d="M25794 14838c0,-1 33,-33 7,-1 -59,72 36,-9 59,-21 -84,71 -43,43 37,4 56,-27 -28,5 -52,21 -135,90 79,-5 74,-30 -40,2 -126,100 -21,21 11,-9 53,-72 13,-40 -1,0 -128,108 -78,75 13,-9 74,-40 76,-43 -47,7 -119,106 -7,24 25,-18 -36,20 15,-4 29,-13 -26,-3 -25,8 39,0 55,-34 20,-11 -12,7 11,-1 -5,5 -18,6 54,6 76,-3 2,-1 3,0 5,0"/>
   <path class="fil39" d="M23874 15410c0,-13 -1,-21 -1,-27 0,-13 0,-13 -28,-13l-101 0 -13 0c-28,0 -28,0 -28,50 -1,49 -1,148 1,207 2,58 8,76 19,89 4,5 9,9 15,13 0,58 0,132 0,227 2,346 8,969 10,1281l2 230c43,-54 136,-92 245,-92 110,0 204,39 246,94 1,-33 3,-80 5,-146 6,-226 19,-678 29,-918 10,-240 16,-269 27,-292 10,-24 24,-42 46,-51 23,-9 52,-9 77,-1 25,9 45,26 56,54 11,29 13,69 15,312 2,242 3,686 4,908l1 139c39,-58 136,-99 250,-99 109,0 202,38 245,93l7 -214 39 -1226 3 -100c4,2 9,3 15,3 7,0 17,-3 25,-8 8,-5 14,-11 20,-19 5,-8 9,-16 12,-33 2,-16 4,-41 5,-116 0,-76 0,-202 -1,-270 -1,-68 -2,-76 -5,-84 -2,-8 -6,-15 -12,-20 -5,-4 -13,-7 -21,-9 -8,-2 -17,-4 -24,-4 -7,1 -12,3 -17,7 -1,0 -2,1 -3,2l-1 1c-5,6 -9,15 -11,24 -2,9 -3,18 -3,22 0,5 0,5 -7,7 -7,1 -22,5 -62,11 -40,5 -106,11 -140,15 -20,3 -29,5 -33,8 -27,2 -58,5 -91,6 -35,0 -73,-2 -105,-3 -33,0 -59,1 -106,0 -46,-1 -112,-3 -158,-5 -45,-2 -71,-3 -107,-6 -37,-4 -84,-8 -139,-15 -54,-8 -115,-18 -152,-24 -24,-4 -38,-6 -50,-8zm1157 488l0 0 0 21 0 -21z"/>
   <path class="fil36" d="M24968 17440c11,9 20,18 28,28l7 -214 39 -1226 3 -100c4,2 9,3 15,3 7,0 17,-3 25,-8 4,-2 7,-5 10,-8 0,-33 -1,-64 -3,-91 -9,-187 -38,-228 -54,-234 -16,-7 -19,21 -29,350 -10,329 -27,959 -35,1274 -3,108 -5,179 -6,226zm63 -1542l0 0 0 21 0 -21z"/>
   <path class="fil36" d="M24221 17448c8,7 15,14 20,21 1,-33 3,-80 5,-146 6,-226 19,-678 29,-918 10,-240 16,-269 27,-292 10,-24 24,-42 46,-51 23,-9 52,-9 77,-1 25,9 45,26 56,54 11,29 13,69 15,312 2,242 3,686 4,908l1 139c6,-9 13,-17 22,-26l1 -137c2,-210 4,-630 4,-863 0,-234 -2,-281 -9,-317 -7,-37 -19,-63 -36,-82 -17,-20 -41,-33 -67,-39 -26,-6 -55,-5 -78,4 -24,10 -43,28 -57,56 -13,28 -21,65 -27,133 -5,68 -9,166 -12,318 -4,151 -7,357 -11,527 -3,170 -7,303 -9,378l-1 22z"/>
   <path class="fil36" d="M23717 15708c2,3 4,5 6,8 4,5 9,9 15,13 0,58 0,132 0,227 2,346 8,969 10,1281l2 230c6,-7 13,-14 20,-21l-1 -255c-2,-297 -6,-891 -8,-1198 -3,-307 -5,-328 -18,-324 -6,2 -15,10 -26,39z"/>
   <path class="fil31" d="M23881 15644c-3,8 -4,20 -6,34 -3,15 -9,32 -16,44 -7,13 -16,20 -26,25 -9,5 -20,7 -32,6 -12,0 -25,-2 -38,-5 -12,-2 -23,-5 -34,-10 -10,-6 -20,-13 -28,-53 -9,-39 -17,-111 -18,-170 -1,-59 4,-104 7,-127 3,-24 5,-25 36,-27 31,-1 92,-2 125,-1 32,0 35,3 36,17 0,13 -2,39 -4,52 -1,13 -1,13 19,13 20,1 61,3 86,6 26,3 37,8 43,16 6,8 8,20 10,44 1,23 2,59 1,80 -1,22 -4,30 -8,36 -3,6 -9,10 -32,11 -24,0 -65,-3 -89,-3 -24,1 -29,4 -32,12z"/>
   <path class="fil31" d="M24777 15474c0,-12 3,-14 37,-18 34,-4 100,-10 140,-16 40,-5 54,-9 61,-11 8,-2 8,-2 8,-6 0,-4 0,-13 3,-22 2,-9 6,-18 11,-24 6,-6 13,-9 20,-10 8,0 17,1 25,3 8,3 15,5 21,10 6,5 9,12 12,19 3,8 4,17 5,85 1,67 1,194 0,270 0,75 -2,99 -5,116 -3,16 -6,25 -12,33 -5,7 -11,14 -19,19 -8,4 -18,7 -26,8 -8,0 -14,-3 -19,-6 -5,-3 -9,-7 -10,-48 -2,-42 -2,-120 -1,-159 0,-40 0,-40 -9,-39 -9,0 -26,1 -50,0 -24,-1 -54,-4 -78,-8 -25,-3 -43,-7 -58,-12 -15,-4 -27,-9 -35,-16 -9,-6 -15,-14 -18,-33 -3,-19 -3,-48 -3,-74 -1,-26 -1,-49 0,-61z"/>
   <path class="fil40" d="M25097 15376c2,1 4,3 6,4 6,5 9,12 12,19 3,8 4,17 5,85 1,67 1,194 0,270 0,75 -2,99 -5,116 -3,16 -6,25 -12,33 -3,5 -7,10 -12,13 0,-14 0,-34 0,-61 1,-98 1,-293 4,-397 0,-38 1,-64 2,-82z"/>
   <path class="fil31" d="M24241 15640l0 -173c-1,0 -1,0 -2,0l-106 0c-16,0 -30,13 -30,30l0 113c0,17 14,30 30,30l106 0 2 0z"/>
   <path class="fil31" d="M24565 15465l0 175c1,0 2,0 2,0l106 0c17,0 30,-14 30,-32l0 -121c0,-40 -82,-22 -115,-22 -8,0 -15,0 -23,0z"/>
   <rect class="fil1" x="24241" y="15450" width="324" height="211"/>
   <rect class="fil31" x="24294" y="15497" width="224" height="115"/>
   <path class="fil41" d="M24819 17402c17,4 34,8 51,15 18,8 36,18 52,28 16,10 28,21 37,31 9,10 14,18 18,28 4,9 7,19 8,24 1,5 1,5 -19,5 -20,0 -60,0 -80,0 -19,0 -19,0 -19,0 0,0 0,0 -1,-6 0,-7 0,-20 -3,-35 -3,-15 -7,-33 -15,-46 -7,-13 -17,-21 -26,-29 -9,-8 -18,-14 -27,-18 -9,-5 -20,-7 -25,-8 -5,-1 -5,-1 4,1 9,2 27,6 45,10z"/>
   <path class="fil41" d="M24061 17402c17,4 34,8 51,15 18,8 37,18 52,28 16,10 28,21 37,31 9,10 14,18 18,28 4,9 7,19 8,24 2,5 2,5 -18,5 -20,0 -60,0 -80,0 -20,0 -20,0 -20,0 0,0 0,0 -1,-6 0,-7 0,-20 -3,-35 -2,-15 -7,-33 -15,-46 -7,-13 -17,-21 -26,-29 -9,-8 -17,-14 -27,-18 -9,-5 -19,-7 -25,-8 -5,-1 -5,-1 4,1 9,2 28,6 45,10z"/>
   <path class="fil17 str5" d="M25442 14172l515 0m-515 245l515 0m-515 -31l515 0m-515 -30l515 0m-515 -31l515 0m-515 -30l515 0m-515 -31l515 0m-515 -30l515 0m-515 -31l515 0"/>
  </g>
  <g id="_2996847245360">
   <path class="fil42" d="M37916 16930c-22,43 -54,111 -80,155 -27,43 -48,62 -94,73 -46,12 -117,18 -1024,16 -906,-1 -2648,-9 -3526,-14 -879,-4 -893,-6 -904,-23 -10,-18 -17,-52 -27,-111 -11,-59 -25,-142 -31,-184 -6,-42 -4,-44 -310,-44 -307,0 -923,2 -1256,18 -334,17 -385,48 -410,90 -25,41 -24,93 -26,138 -2,45 -7,83 -20,105 -12,21 -32,27 -116,11 -84,-15 -231,-50 -327,-75 -97,-24 -142,-37 -178,-45 -37,-8 -66,-11 -91,-17 -24,-7 -44,-17 -58,-37 -14,-20 -22,-49 -16,-124 5,-74 23,-194 35,-288 11,-95 15,-163 23,-271 9,-107 22,-253 33,-348 12,-95 21,-139 33,-174 13,-35 29,-61 74,-103 46,-43 121,-101 224,-157 104,-57 236,-112 385,-163 149,-51 315,-97 470,-135 155,-37 298,-66 490,-95 192,-28 432,-56 745,-89 313,-33 700,-71 893,-90 193,-19 193,-19 193,-19 0,0 0,0 42,-35 43,-35 127,-105 264,-202 137,-97 327,-221 503,-323 175,-103 336,-185 472,-244 137,-60 249,-97 388,-133 139,-36 305,-72 495,-98 190,-26 404,-44 623,-55 220,-11 445,-16 653,-10 209,6 400,23 575,42 176,20 335,43 531,83 196,40 428,98 544,127 116,29 116,29 121,34 4,4 14,14 24,24 11,9 22,20 254,106 231,87 682,249 928,335 246,85 287,95 340,100 53,5 117,6 174,14 58,8 108,23 220,40 112,17 286,37 442,48 155,11 292,14 370,19 77,5 94,13 106,28 12,16 18,38 21,92 3,54 1,140 1,250 0,110 2,245 2,312 1,67 1,67 1,67 0,0 0,0 15,9 15,10 45,28 76,56 31,29 63,67 86,114 23,48 38,105 34,285 -3,180 -24,483 -38,638 -14,155 -20,161 -53,169 -32,8 -90,17 -338,19 -248,1 -685,-6 -1157,-5 -473,1 -979,9 -1280,13 -302,4 -398,4 -452,12 -55,9 -68,26 -91,69z"/>
   <polygon class="fil43" points="32967,16642 32959,16911 36005,16855 36084,16594 "/>
   <path class="fil44" d="M30266 16890c-5,5 -9,10 -12,16 -25,41 -24,93 -26,138 -2,45 -7,83 -20,105 -12,21 -32,27 -116,11 -84,-15 -231,-50 -327,-75 -97,-24 -142,-37 -178,-45 -37,-8 -66,-11 -91,-17 -24,-7 -44,-17 -58,-37 -14,-20 -22,-49 -16,-124 2,-35 8,-81 14,-129 67,1 141,6 220,11 170,11 361,26 466,32 106,6 125,3 136,50 4,17 6,39 8,64z"/>
   <path class="fil44" d="M41113 15413l0 71c1,67 1,67 1,67 0,0 0,0 15,9 15,10 45,28 76,56 31,29 63,67 86,114 23,48 38,105 34,285 -3,180 -24,483 -38,638 -14,155 -20,161 -53,169 -32,8 -90,17 -338,19 -226,1 -610,-4 -1034,-5 0,-17 1,-36 1,-57 2,-66 4,-149 -17,-243 -20,-93 -62,-197 -107,-286 -45,-88 -93,-161 -145,-225 -53,-65 -111,-122 -140,-150 -29,-28 -29,-28 69,-41 98,-12 295,-37 462,-69 166,-32 304,-70 398,-107 94,-37 146,-72 181,-109 35,-36 53,-73 62,-106 8,-34 7,-64 22,-78 15,-14 47,-11 138,-2 85,10 222,25 327,50z"/>
   <path class="fil4" d="M41317 16231c-2,37 -4,76 -7,113 -25,4 -51,5 -75,6 -45,2 -83,3 -114,-3 -31,-6 -55,-19 -70,-38 -16,-18 -24,-42 -28,-54 -4,-12 -4,-12 61,-14 56,-2 158,-6 233,-10z"/>
   <path class="fil45" d="M37916 16930c-22,43 -54,111 -80,155 -27,43 -48,62 -94,73 -46,12 -117,18 -1024,16 -906,-1 -2648,-9 -3526,-14 -879,-4 -893,-6 -904,-23 -10,-18 -17,-52 -27,-111l-1 -2 0 -1 0 -1 0 -1 0 -1 -1 -1 0 -1 0 -1 0 -2 0 0 -1 -1 0 -2 0 0 0 -2 0 -1 -1 -1 0 -2 0 0 0 -2 0 -1 0 0 -1 -2 0 -1 0 -1 0 -2 -1 0 0 -2 0 -1 0 -1 -1 -2 0 0 0 -2 0 -1 0 -1 -1 -1 0 -1 0 -1 0 -2 0 -1 -1 -1 0 -2 0 0 0 -2 0 -1 -1 -1 0 -2 0 0 0 -2 0 -1 -1 -1 0 -2 0 0 0 -2 -1 -1 0 -1 0 -2 0 -1 0 -1 -1 -2 0 0 0 -2 0 -1 0 -1 -1 -2 0 0 0 -2 0 -1 0 -1 -1 -2 0 0 0 -2 0 -2 0 0 -1 -2 0 -1 0 -1 0 -2 0 0 -1 -2 0 -1 0 -1 0 -2 -1 0 0 -1 0 -2 0 0 0 -2 -1 -1 0 -1 0 -2 0 -1 0 -1 -1 -2 0 0 0 -2 0 -1 0 -1 -1 -2 0 0 0 -2 0 -1 0 -1 -1 -1c89,-7 315,-13 890,-28 947,-26 2840,-76 3793,-86 954,-9 967,21 980,68 5,21 10,44 16,69l-1 1 -1 2z"/>
   <path class="fil46" d="M37821 17106c-20,29 -41,43 -79,52 -46,12 -117,18 -1024,16 -906,-1 -2648,-9 -3526,-14 -879,-4 -893,-6 -904,-23 -9,-17 -16,-47 -25,-97 79,-5 248,-6 619,-10 683,-7 2049,-20 2954,-32 904,-12 1347,-22 1603,-8 256,15 325,54 365,97 7,6 12,13 17,19z"/>
   <path class="fil42 str3" d="M30277 16880c-15,11 -25,26 -37,50 -7,13 -14,28 -22,43 -13,-48 -22,-97 -28,-147 -4,-39 -6,-78 -6,-118 0,-13 0,-27 1,-41 2,-43 5,-74 9,-103 7,-48 19,-90 32,-125 13,-36 28,-66 34,-51 5,15 1,74 4,156 3,81 12,185 13,278 0,20 0,39 0,58z"/>
   <path class="fil47" d="M29462 17009c-9,-6 -17,-14 -24,-23 -14,-20 -22,-49 -16,-124 5,-74 23,-194 35,-288l0 -2c20,-17 37,-29 56,-40 41,-26 90,-53 127,-66 37,-14 62,-16 86,-12 23,3 46,11 64,30 17,19 31,50 36,84 6,35 5,75 -2,111 -6,35 -18,67 -41,106 -23,39 -57,85 -90,118 -33,34 -65,55 -95,72 -29,15 -56,27 -136,34z"/>
   <path class="fil48" d="M29670 15635c44,-35 103,-75 174,-114 104,-57 236,-112 385,-163 149,-51 315,-97 470,-135 155,-37 298,-66 490,-95 192,-28 432,-56 745,-89 313,-33 700,-71 893,-90 193,-19 193,-19 193,-19 0,0 0,0 42,-35 43,-35 127,-105 264,-202 137,-97 327,-221 503,-323 175,-103 336,-185 472,-244 137,-60 249,-97 388,-133 139,-36 305,-72 495,-98 190,-26 404,-44 623,-55 220,-11 445,-16 653,-10 209,6 400,23 575,42 176,20 335,43 531,83 196,40 428,98 544,127 116,29 116,29 121,34 4,4 14,14 24,24 11,9 22,20 254,106 231,87 682,249 928,335 246,85 287,95 340,100 53,5 117,6 174,14 58,8 108,23 220,40 112,17 286,37 442,48 155,11 292,14 370,19 77,5 94,13 106,28 12,16 18,38 21,92 3,54 1,140 1,250 0,39 0,81 1,122 -119,-28 -245,-58 -360,-80 -177,-35 -330,-51 -936,-37 -607,13 -1667,55 -3547,142 -1881,87 -4581,219 -5932,285 -275,13 -494,24 -667,31z"/>
   <path class="fil49" d="M33045 14910l17 -15c43,-35 127,-105 264,-202 137,-97 327,-221 503,-323 175,-103 336,-185 472,-244 85,-37 160,-65 238,-90 13,8 20,18 21,32 0,16 -8,35 -59,72 -51,36 -145,90 -276,161 -132,71 -300,159 -457,249 -156,89 -301,180 -398,241 -97,60 -147,90 -188,105 -41,16 -72,18 -110,16 -9,-1 -18,-1 -27,-2z"/>
   <path class="fil50" d="M29721 15934c-15,24 -33,46 -51,69 -19,23 -38,46 -54,61 -16,16 -29,24 -40,26 -12,3 -21,0 -27,-9 -6,-10 -10,-27 -7,-65 2,-38 10,-97 16,-136 7,-38 12,-57 20,-71 9,-15 20,-26 36,-34 16,-8 37,-12 57,-13 21,-1 40,1 54,5 13,4 22,9 27,25 5,16 7,42 2,68 -5,25 -18,50 -33,74z"/>
   <path class="fil51" d="M39038 15236c-701,41 -1825,107 -3178,165 -1352,58 -2935,108 -3726,133 -791,25 -791,25 -791,25 0,0 0,0 374,-21 375,-21 1124,-63 2030,-117 906,-54 1968,-120 2876,-168 907,-47 1658,-76 2245,-88 587,-12 1009,-7 1220,-4 211,2 211,2 211,2 0,0 0,0 -140,8 -140,8 -419,24 -1121,65z"/>
   <path class="fil52" d="M30012 15976c113,-77 287,-203 374,-267 87,-63 87,-63 87,-63 0,0 0,0 -35,-2 -34,-2 -103,-6 -178,-3 -76,2 -159,12 -238,29 -78,18 -152,45 -207,69 -54,24 -90,47 -115,71 -25,25 -40,51 -49,87 -9,37 -13,83 -11,118 2,35 10,58 37,72 27,14 73,18 122,6 49,-12 100,-39 213,-117z"/>
   <path class="fil47" d="M37672 14904c-367,14 -796,30 -1260,50 -465,20 -966,43 -1519,70 -552,27 -1156,58 -1453,66 -297,9 -286,-4 -235,-41 50,-36 141,-95 187,-125 45,-30 45,-30 48,-39 3,-9 8,-27 21,-49 13,-21 34,-44 61,-64 26,-20 58,-36 86,-46 27,-11 51,-16 75,-21 25,-4 50,-8 62,-10 13,-2 13,-2 13,-2 0,0 0,0 69,-45 69,-45 208,-135 342,-214 133,-80 263,-150 376,-205 113,-56 211,-97 309,-130 99,-34 197,-60 317,-78 119,-18 259,-27 404,-33 145,-6 295,-9 457,-7 161,2 334,9 469,16 135,6 233,13 367,29 135,17 306,43 463,71 156,27 297,56 455,97 158,40 334,91 485,140 152,49 280,95 375,133 95,38 157,69 200,97 43,27 66,52 78,77 12,24 12,48 4,74 -8,27 -24,56 -44,79 -20,23 -46,40 -86,50 -40,11 -95,15 -275,23 -180,9 -485,22 -851,37z"/>
   <path class="fil53 str3" d="M36853 14384c-33,123 -81,297 -105,384 -23,87 -23,87 -23,87 0,0 0,0 290,-9 291,-8 873,-25 1195,-41 321,-16 383,-31 421,-48 37,-17 51,-37 48,-62 -3,-26 -21,-58 -80,-95 -59,-38 -157,-81 -299,-134 -141,-53 -324,-115 -561,-175 -236,-60 -526,-118 -671,-147 -145,-29 -145,-29 -145,-29 0,0 0,0 -10,36 -9,37 -27,109 -60,233z"/>
   <path class="fil53 str3" d="M36706 14311c-35,127 -93,336 -122,440 -29,104 -29,104 -29,104 0,0 0,0 0,0 0,0 0,0 -179,10 -179,10 -536,29 -983,54 -447,24 -984,53 -1252,68 -268,14 -268,14 -268,14 0,0 0,0 4,-31 5,-32 14,-95 15,-140 2,-45 -5,-71 -19,-88 -14,-16 -35,-23 -45,-26 -11,-3 -11,-3 -11,-3 0,0 0,0 54,-34 53,-34 160,-101 272,-166 112,-64 229,-126 344,-182 115,-56 227,-106 341,-145 114,-38 230,-64 361,-85 130,-20 275,-35 443,-43 168,-7 360,-9 552,-2 193,6 386,21 483,28 97,7 97,7 97,7 0,0 0,0 -6,24 -6,23 -17,69 -52,196z"/>
   <path class="fil49" d="M39553 14575c230,83 241,91 245,97 2,4 2,7 1,11 -8,-1 -15,-1 -22,-2 -53,-5 -94,-15 -340,-100 -246,-86 -697,-248 -928,-335 -232,-86 -243,-97 -254,-106 -2,-3 -5,-5 -7,-7 11,0 25,2 51,8 31,6 78,19 326,105 248,86 698,246 928,329z"/>
   <path class="fil4" d="M41111 15130l0 42c0,110 2,245 2,312 1,67 1,67 1,67l1 1c-21,9 -47,11 -75,12 -57,2 -124,0 -192,-14 -68,-13 -136,-40 -210,-90 -73,-50 -151,-124 -193,-172 -43,-48 -51,-70 -45,-93 7,-22 28,-45 70,-68 41,-24 103,-49 167,-65 64,-16 130,-23 189,-23 60,0 112,7 154,18 41,12 72,27 100,46 11,7 21,15 31,27z"/>
   <path class="fil47" d="M38895 15674c571,0 1034,463 1034,1034 0,43 -3,86 -8,128 -42,0 -85,0 -127,0 5,-42 9,-85 9,-128 0,-501 -407,-908 -908,-908 -467,0 -852,352 -902,806 17,57 31,144 33,192 3,56 -11,59 -24,62l-2 1 0 1c-7,2 -13,3 -19,5 -5,1 -9,3 -13,5 -10,5 -18,11 -26,20 -7,8 -15,20 -25,39 -10,19 -24,47 -40,78 -17,31 -37,66 -47,83 -10,18 -10,18 -10,18 0,0 0,0 3,-38 3,-38 9,-113 16,-186 7,-73 13,-144 18,-191 2,-16 3,-30 5,-41 28,-546 479,-980 1033,-980z"/>
   <g>
    <path class="fil54 str3" d="M38895 15800c-502,0 -908,407 -908,908 0,501 406,908 908,908 501,0 908,-407 908,-908 0,-501 -407,-908 -908,-908zm603 1020c-61,7 -176,10 -357,15 -180,5 -427,13 -588,17 -161,4 -236,4 -273,4 -38,0 -38,0 -38,0 0,0 0,0 5,11 4,12 13,34 32,74 18,39 46,96 78,143 33,46 70,83 114,118 44,34 95,66 140,89 45,23 83,37 133,46 49,10 110,14 159,15 48,1 85,0 135,-11 51,-10 114,-30 173,-59 58,-29 112,-67 162,-125 49,-57 94,-133 127,-198 33,-65 54,-117 61,-138 6,-20 -2,-8 -63,-1z"/>
    <circle class="fil55" cx="38886" cy="16699" r="475"/>
    <circle class="fil18 str3" cx="38895" cy="16708" r="107"/>
    <path class="fil56" d="M38895 16010c-386,0 -699,312 -699,698 0,386 313,698 699,698 385,0 698,-312 698,-698 0,-386 -313,-698 -698,-698zm0 492c-14,0 -27,2 -39,4l-16 -427c18,-1 36,-2 55,-2 14,0 27,1 41,2l-3 427c-13,-2 -25,-4 -38,-4zm-69 12c-46,16 -84,48 -108,89l-366 -216c84,-142 222,-249 387,-290l87 417zm-122 117c-8,21 -13,43 -15,66l-416 -94c7,-47 20,-92 38,-134l393 162zm-13 104c5,43 24,82 52,112l-312 289c-104,-112 -167,-263 -167,-428 0,-9 0,-18 0,-27l427 54zm75 134c17,13 36,24 57,32l-228 362c-35,-18 -68,-40 -98,-65l269 -329zm85 40c14,3 29,5 44,5 23,0 45,-4 66,-11l190 382c-78,35 -165,54 -256,54 -83,0 -162,-16 -235,-45l191 -385zm136 -17c19,-9 36,-22 51,-36l281 319c-31,29 -66,54 -104,77l-228 -360zm74 -63c24,-32 38,-72 39,-115l424 -45c1,13 2,26 2,39 0,162 -62,310 -162,422l-303 -301zm38 -148c-4,-24 -11,-48 -22,-69l405 -136c13,34 24,69 31,106l-414 99zm-40 -96c-23,-32 -56,-56 -93,-70l64 -423c174,38 322,148 409,298l-380 195z"/>
    <circle class="fil57" cx="38892" cy="16705" r="107"/>
   </g>
   <path class="fil47" d="M31218 15674c572,0 1035,463 1035,1034 0,34 -2,67 -5,100l-2 27c-1,25 -2,50 -3,63 -1,12 -1,12 -1,12l-2 -1 -1 6c0,0 0,0 -30,-3 -30,-3 -91,-8 -173,-15 -81,-7 -184,-17 -288,-23 -105,-6 -210,-8 -354,-3 -145,5 -328,19 -469,40 -141,22 -240,52 -323,79 -82,26 -148,49 -209,74 -60,25 -116,52 -148,71 -20,11 -31,19 -38,22 -6,5 -10,8 -14,9 -5,3 -8,4 -10,1 -2,1 -4,1 -6,1 0,-9 0,-21 0,-36 1,-81 2,-245 4,-354 1,-45 2,-81 4,-111 21,-552 476,-993 1033,-993zm898 897c-66,-436 -443,-770 -898,-770 -487,0 -885,384 -907,867 46,-61 125,-104 320,-129 211,-28 558,-36 836,-29 279,8 490,30 608,53 15,2 29,5 41,8z"/>
   <g>
    <path class="fil54" d="M31218 15792c-501,0 -907,406 -907,908 0,501 406,907 907,907 502,0 908,-406 908,-907 0,-502 -406,-908 -908,-908zm604 1019c-62,8 -176,10 -357,16 -181,5 -427,13 -588,17 -161,4 -236,4 -274,4 -37,0 -37,0 -37,0 0,0 0,0 4,11 5,11 14,33 33,73 18,40 46,96 78,143 32,47 69,84 114,118 44,34 95,66 140,89 45,23 83,38 132,47 50,9 111,13 159,14 49,2 86,0 136,-10 50,-11 114,-30 172,-59 59,-29 113,-68 162,-125 50,-57 95,-134 128,-199 33,-64 54,-117 60,-137 7,-21 -1,-9 -62,-2z"/>
    <circle class="fil55" cx="31209" cy="16690" r="475"/>
    <circle class="fil18" cx="31218" cy="16700" r="107"/>
    <path class="fil56" d="M31218 16001c-385,0 -698,313 -698,699 0,385 313,698 698,698 386,0 699,-313 699,-698 0,-386 -313,-699 -699,-699zm0 493c-13,0 -26,1 -39,4l-15 -427c18,-2 36,-2 54,-2 14,0 28,0 42,1l-4 427c-12,-2 -25,-3 -38,-3zm-68 12c-46,16 -84,48 -108,88l-367 -216c85,-142 223,-248 387,-290l88 418zm-123 117c-8,20 -13,42 -14,65l-417 -94c8,-46 21,-91 38,-133l393 162zm-13 103c6,44 25,82 53,113l-312 289c-104,-113 -168,-263 -168,-428 0,-10 1,-19 1,-28l426 54zm76 134c17,14 36,25 56,32l-227 363c-35,-19 -68,-41 -98,-66l269 -329zm84 40c15,4 29,5 44,5 24,0 46,-4 67,-11l190 382c-78,35 -165,54 -257,54 -83,0 -162,-16 -234,-45l190 -385zm136 -16c19,-10 37,-22 52,-37l281 319c-32,29 -67,55 -104,77l-229 -359zm75 -64c23,-32 38,-72 39,-114l424 -45c1,13 1,25 1,39 0,162 -61,310 -161,421l-303 -301zm37 -147c-3,-25 -10,-48 -21,-69l404 -136c14,33 24,69 32,105l-415 100zm-39 -97c-23,-31 -56,-56 -93,-69l64 -424c174,38 321,148 409,298l-380 195z"/>
    <circle class="fil57" cx="31215" cy="16696" r="107"/>
   </g>
   <path class="fil46" d="M35875 15238c8,20 13,42 15,69 1,27 -2,59 -16,83 -15,25 -41,42 -85,52 -44,10 -106,12 -159,0 -53,-12 -96,-38 -123,-63 -26,-25 -35,-49 -31,-69 3,-21 21,-38 69,-59 49,-21 130,-46 185,-58 55,-12 86,-10 106,-1 21,9 31,26 39,46z"/>
   <path class="fil58" d="M35925 15350c-111,13 -328,19 -444,17 -115,-1 -128,-9 -133,-20 -6,-10 -3,-23 6,-35 9,-11 25,-20 127,-32 103,-13 291,-29 397,-34 105,-5 128,0 141,10 13,10 17,24 18,42 0,18 -2,39 -112,52z"/>
  </g>
  <rect class="fil59" x="3889" y="13535" width="156" height="4074"/>
  <rect class="fil59" x="8139" y="13552" width="156" height="4057"/>
  <polygon class="fil60" points="48792,19559 2,19559 2,17704 48792,17704 "/>
  <path class="fil58" style="mask:url(#id0)" d="M30385 15712c-109,75 -279,207 -401,285 -122,78 -196,102 -415,208 -220,105 -586,293 -1084,480 -498,188 -1128,375 -1628,488 -500,113 -870,151 -1055,170 -185,20 -185,20 -185,20 0,0 0,0 0,0 0,0 0,0 0,-434 0,-435 0,-1303 0,-1737 0,-434 0,-434 0,-434 0,0 0,0 829,141 828,141 2486,422 3291,571 805,150 757,167 648,242z"/>
  <g id="_2996785330352">
   <path class="fil58" d="M2726 10368c0,-65 14,-135 49,-190 100,-161 245,-229 432,-229l5818 -16c261,0 391,249 391,480l0 2864c0,326 -125,431 -444,433 -235,1 -470,0 -705,0l-4780 12c-165,0 -374,29 -524,-50 -165,-86 -237,-205 -237,-395l0 -2909zm501 -121c-2,1 -4,2 -5,3 0,0 0,1 0,1l5 5c0,-3 0,-6 0,-9zm36 117c-3,4 -6,9 -9,14 -43,58 -22,89 45,98 12,-16 25,-33 31,-50 2,-5 3,-9 0,-14 -10,-19 -46,-38 -64,-47 -1,0 -2,-1 -3,-1zm891 2453c1,0 1,0 1,0l96 0c6,0 12,1 18,2 8,-7 17,-12 28,-16 11,-8 22,-30 25,-42 1,-5 1,-9 1,-13 0,-16 -11,-23 -24,-30 -36,-18 -92,-22 -142,-21l-3 120zm2807 -1892l114 -1c-4,-10 -9,-20 -16,-29 -11,-13 -25,-23 -42,-22 -27,0 -45,24 -54,47 -1,1 -2,3 -2,5zm1931 -2l113 0c-11,-28 -29,-51 -57,-50 -26,0 -45,24 -54,46 -1,1 -1,3 -2,4zm-941 -50c-21,8 -38,21 -48,42 -9,19 -12,41 -11,62 2,46 30,118 89,97 16,-6 28,-15 37,-29 14,-22 18,-50 17,-75 -3,-42 -27,-116 -84,-97zm-86 874c-11,4 -20,10 -27,19 -19,22 -26,55 -25,83 2,53 26,117 90,99 11,-3 19,-8 26,-16 21,-22 27,-60 25,-90 -2,-30 -14,-78 -43,-94 -14,-9 -31,-6 -46,-1zm-1138 950l0 119 86 2c13,0 25,3 36,9 10,-11 19,-22 28,-34 23,-30 26,-45 -1,-75 -18,-20 -90,-22 -149,-21zm484 -2c-57,23 -72,120 -71,172 1,50 17,141 67,168 18,10 40,7 59,0 51,-18 67,-128 67,-173 0,-48 -14,-143 -61,-169 -19,-11 -42,-5 -61,2zm-3452 0c-56,22 -71,121 -70,172 1,50 17,137 65,165 20,11 43,9 64,2 1,-1 2,-1 3,-2 47,-22 60,-128 59,-172 0,-47 -15,-142 -62,-167 -18,-11 -41,-5 -59,2zm2535 200l104 -1 -51 -149c-18,48 -35,97 -52,145 0,2 -1,4 -1,5zm2477 -139l-48 137 98 0c-1,-2 -2,-5 -3,-7 -16,-43 -32,-86 -47,-130zm-2382 -834c-3,-2 -6,-4 -8,-6 -13,-10 -26,-22 -37,-34 -7,-7 -14,-15 -20,-23 -30,-37 -58,-79 -81,-120 -11,-19 -19,-39 -25,-59 -18,-65 -14,-128 -14,-194 0,-39 -3,-81 -21,-117 -4,-6 -6,-12 -7,-19 -25,-112 -54,-220 -93,-328 -33,-90 -71,-179 -107,-268 -19,-48 -47,-92 -70,-139 -81,4 -162,44 -231,83 -45,25 -93,36 -145,36 -87,-1 -157,-36 -239,-53 -106,-23 -232,0 -339,15 -60,9 -127,10 -188,14 -38,2 -75,4 -113,8 -16,1 -41,2 -58,6 -24,12 -52,10 -75,-6 -15,-9 -30,-19 -45,-30 -22,-16 -41,-36 -60,-56 -20,-22 -43,-38 -70,-50 -107,-48 -278,-16 -390,2 -149,25 -293,48 -441,46 17,31 35,61 51,92 91,175 184,353 257,536 79,200 135,413 190,621 23,86 46,172 67,259 9,39 19,80 27,121 37,-27 77,-43 130,-51 53,-9 96,-3 146,14 55,19 80,32 140,21 31,-5 56,-15 85,-27 57,-24 103,-38 167,-43 46,-5 104,2 151,6 30,3 61,6 91,9 14,1 32,3 47,4 21,-3 41,2 58,16 21,15 110,-5 134,-12 53,-14 108,-35 157,-59 140,-66 299,-105 449,-47 70,26 175,62 251,54 43,-5 68,-23 101,-48 43,-32 79,-58 133,-73 28,-8 56,-14 84,-20 2,0 4,-1 5,-2 -12,-28 -25,-56 -44,-79z"/>
   <path class="fil61" d="M7929 12624l76 -1 1 484 -78 -5 1 -478zm-1479 -547c8,-3 16,-6 24,-7 4,0 74,-15 70,-19 -28,-33 -47,-125 -103,-186 -4,-3 -9,-6 -14,-10 -8,-6 -17,-15 -27,-26 -5,-5 -10,-11 -16,-18 -29,-35 -57,-80 -74,-110 -61,-107 3,-249 -59,-367 -61,-275 -108,-372 -203,-608 -27,-67 -70,-128 -91,-186 -119,-14 -234,43 -319,91 -111,62 -221,-2 -331,-26 -118,-25 -247,-2 -366,15 -76,11 -356,17 -380,35 -43,-29 -48,-30 -92,-76 -220,-232 -630,25 -1085,-35 11,40 85,165 111,214 250,482 294,587 441,1140 39,148 99,364 115,518l19 -17c2,-2 4,-4 6,-5 45,-44 66,-93 170,-110 114,-19 148,60 288,35 97,-18 125,-59 245,-70 65,-6 274,24 291,19 79,63 299,-26 373,-61 114,-54 257,-96 388,-46 391,150 380,-21 533,-64 28,-8 57,-14 86,-20zm1083 547l74 -1 0 410 223 3 1 70 -299 -4 1 -478zm1203 -1l76 0c19,102 148,400 161,483 -97,-1 -76,10 -101,-63 -9,-25 -19,-49 -25,-73l-150 0 -48 136 -81 -3 168 -480zm-2592 483c21,-72 143,-442 171,-484l72 2 164 482 -82 0 -45 -136 -152 2c-59,154 -12,136 -128,134zm-2413 -482c264,-104 291,424 110,483 -260,84 -301,-409 -110,-483zm3451 0c265,-106 294,418 110,483 -255,90 -305,-405 -110,-483zm-2054 -1l72 1 1 481 -77 0 3 -211 -179 0 1 212 -76 -2 -1 -481 77 1 0 193 176 1 3 -195zm1522 0c98,-1 229,-18 284,44 83,94 13,166 -36,219l79 220 -75 -1c-21,-27 -32,-72 -45,-107 -14,-37 -24,-77 -45,-104l-87 -1 1 211 -76 2 0 -483zm-3231 0l72 2 1 479 -72 2c-23,-54 -53,-99 -85,-155 -15,-27 -29,-52 -45,-82l-46 -71c-1,-4 -4,-4 -5,-6l1 313 -76 0 -1 -482 82 1 171 298 3 -299zm4721 0l72 0c33,43 63,103 93,155 25,43 55,108 87,144l0 -299 77 -1 -1 484 -70 1c-11,-30 -163,-305 -182,-316l0 315 -76 0 0 -483zm-2074 381c-30,86 -112,144 -224,95 -133,-58 -141,-387 -8,-465 75,-44 187,-24 232,78l-67 28c-30,-21 -67,-82 -135,-32 -67,51 -62,261 4,312 74,59 130,-36 131,-37l67 21zm-1291 -313l-111 2 0 414 -76 0 -1 -416 -110 0 0 -69 299 0 -1 69zm3065 -1017c204,-71 265,297 84,348 -203,57 -257,-287 -84,-348zm-481 -126l347 -2 -1 83 -131 4 -2 387 -80 -2 2 -389 -136 -1 1 -80zm-11 -881l1 62 0 380 0 38 -85 0 1 -74 0 -289 0 -84 83 -33zm578 134c185,-64 266,280 81,346 -188,66 -279,-278 -81,-346zm1137 299c-116,149 -323,-20 -239,-212 66,-152 269,-118 272,112l-206 0c11,75 57,97 118,51 23,20 39,29 55,49zm-1933 0c-88,141 -325,1 -238,-210 65,-157 275,-116 272,111l-206 1c7,32 16,55 41,67 47,22 49,-6 84,-14l47 45zm1191 -281c57,-47 107,-27 153,11 26,-10 2,0 19,-10 2,-1 8,-5 11,-7 21,-12 3,-4 23,-12 59,-20 131,-4 160,50 27,52 16,227 16,296l-85 0c2,-84 11,-187 -12,-260 -74,-17 -104,-3 -105,77 -1,60 0,123 1,183l-82 0c3,-80 34,-272 -63,-268 -76,3 -56,159 -52,268l-85 0 0 -347c18,1 47,-1 64,2 40,9 11,54 32,14 1,-2 3,3 5,3zm-580 272c-100,127 -289,58 -285,-125 4,-187 231,-228 286,-99 -22,22 -28,35 -49,58 -100,-108 -153,-17 -156,40 -6,84 58,125 109,102l31 -24c2,-1 5,-2 6,-5 1,-3 3,-3 6,-5l52 58zm-1261 55l-91 -1 -84 -472 86 2 47 284c19,-25 31,-103 41,-147 35,-161 12,-139 115,-137l74 289 44 -290 86 0 -85 471 -82 0c-28,-47 -49,-205 -67,-266l-17 -32 -67 299zm-2403 1693l4 -214c449,-43 316,229 241,251l85 229 -83 1 -73 -212 -97 -1 3 212 139 451 -67 18 -144 -469 -7 -41c-39,-43 -661,-2153 -783,-2511 -132,-15 -181,-115 -103,-221 -1,-2 -4,-4 -5,-5 -1,-1 -3,-4 -5,-5l-22 -25c-83,-125 182,-211 139,-1 197,94 73,201 50,244 72,230 711,2280 728,2299zm-1274 -2471l0 2909c0,182 75,264 195,327 130,67 335,41 489,41l4780 -12c235,0 469,1 704,0 279,-1 368,-75 368,-356l0 -2864c0,-206 -111,-403 -313,-403l-5819 15c-168,1 -285,61 -367,193 -25,41 -37,96 -37,150z"/>
   <path class="fil62" d="M4056 11943c19,-37 -14,-8 38,-30l-34 -76 122 21c81,19 -24,45 118,42 222,-5 297,-124 367,-144l69 73c-111,149 -507,246 -607,141 -20,-21 -33,-21 -73,-27zm557 -188c2,-2 4,-5 5,-7l103 -93 6 86 56 -13c-19,34 -34,53 -67,72 -42,-28 -35,-49 -103,-45zm-564 -313c-29,-80 -33,-66 -15,-85 38,3 64,140 77,176 11,32 17,39 8,59 -24,7 -10,7 -30,-1l-73 -54c-36,-27 -56,-49 -96,-73l49 149c11,48 10,18 -7,33 -25,-7 -32,-57 -52,-111 -13,-39 -36,-83 -34,-125 42,-7 36,-3 65,22 14,13 28,24 45,36l94 71c-5,-28 -21,-68 -31,-97zm187 -175c83,60 19,82 165,50 -37,124 -62,27 0,173l-101 -12 -62 63 -16 -91c-20,-13 -56,-32 -83,-47l86 -45 11 -91zm430 90c9,46 -54,74 -104,71 -101,-6 -182,-213 -21,-260 63,-18 60,2 65,13 -23,20 -41,7 -71,17 -89,30 -39,159 4,187 24,16 52,14 77,3 27,-11 27,-24 50,-31zm-836 -395c50,17 12,3 47,37 24,22 9,5 44,22l16 11c-50,16 -70,49 -117,74l-1 -85c-2,0 -27,5 -27,5 -30,-2 -10,4 -28,-12 38,-19 30,-31 66,-52zm-11 -38c154,-119 347,-176 553,-131 91,19 58,23 74,42 19,22 58,30 83,38 -2,2 -5,3 -7,4 -2,1 -5,4 -8,5 -2,1 -5,2 -7,3l-29 7 26 82c-189,-32 -136,-60 -141,-68 -329,-48 -337,63 -475,106 -12,-15 -22,-25 -37,-41 -21,-24 -19,-18 -32,-47zm1251 1344l-263 -846 -246 -767c-43,-29 -48,-30 -92,-76 -220,-232 -630,25 -1085,-35 11,40 85,165 111,214 250,482 294,587 441,1140 39,148 99,364 115,518l19 -17c2,-2 4,-4 6,-5 45,-44 66,-93 170,-110 114,-19 148,60 288,35 97,-18 125,-59 245,-70 65,-6 274,24 291,19z"/>
   <path class="fil63" d="M4561 10655l246 767c137,4 238,-13 356,-64 137,-60 429,65 538,67 92,1 101,-26 160,-56 73,-36 299,-33 390,-35 -61,-275 -108,-372 -203,-608 -27,-67 -70,-128 -91,-186 -119,-14 -234,43 -319,91 -111,62 -221,-2 -331,-26 -118,-25 -247,-2 -366,15 -76,11 -356,17 -380,35z"/>
   <path class="fil64" d="M4078 13064l-1 -225c-17,-19 -656,-2069 -728,-2299 23,-43 147,-150 -50,-244 43,-210 -222,-124 -139,1l22 25c2,1 4,4 5,5 1,1 4,3 5,5 -78,106 -29,206 103,221 122,358 744,2468 783,2511z"/>
   <path class="fil65" d="M6389 11145l91 1 67 -299 17 32c18,61 39,219 67,266l82 0 85 -471 -86 0 -44 290 -74 -289c-103,-2 -80,-24 -115,137 -10,44 -22,122 -41,147l-47 -284 -86 -2 84 472z"/>
   <path class="fil65" d="M8321 10819c-2,0 -4,-5 -5,-3 -21,40 8,-5 -32,-14 -17,-3 -46,-1 -64,-2l0 347 85 0c-4,-109 -24,-265 52,-268 97,-4 66,188 63,268l82 0c-1,-60 -2,-123 -1,-183 1,-80 31,-94 105,-77 23,73 14,176 12,260l85 0c0,-69 11,-244 -16,-296 -29,-54 -101,-70 -160,-50 -20,8 -2,0 -23,12 -3,2 -9,6 -11,7 -17,10 7,0 -19,10 -46,-38 -96,-58 -153,-11z"/>
   <path class="fil65" d="M3416 12922l-171 -298 -82 -1 1 482 76 0 -1 -313c1,2 4,2 5,6l46 71c16,30 30,55 45,82 32,56 62,101 85,155l72 -2 -1 -479 -72 -2 -3 299z"/>
   <path class="fil65" d="M8140 13106l76 0 0 -315c19,11 171,286 182,316l70 -1 1 -484 -77 1 0 299c-32,-36 -62,-101 -87,-144 -30,-52 -60,-112 -93,-155l-72 0 0 483z"/>
   <path class="fil65" d="M6727 12698c64,3 98,-4 153,14 45,120 -60,102 -154,106l1 -120zm-77 408l76 -2 -1 -211 87 1c21,27 31,67 45,104 13,35 24,80 45,107l75 1 -79 -220c49,-53 119,-125 36,-219 -55,-62 -186,-45 -284,-44l0 483z"/>
   <path class="fil65" d="M4155 12699c80,1 108,-14 163,33 13,109 -78,83 -164,85l1 -118zm-78 140l1 225 7 41 72 0 -3 -212 97 1 73 212 83 -1 -85 -229c75,-22 208,-294 -241,-251l-4 214z"/>
   <path class="fil66" d="M6144 13106c116,2 69,20 128,-134l152 -2 45 136 82 0 -164 -482 -72 -2c-28,42 -150,412 -171,484z"/>
   <path class="fil65" d="M7214 12699c148,-56 147,300 56,333 -132,46 -139,-175 -115,-260 21,-72 41,-66 59,-73zm-32 -75c-195,78 -145,573 110,483 184,-65 155,-589 -110,-483z"/>
   <path class="fil65" d="M3699 12934c-47,-273 142,-312 175,-142 50,263 -144,326 -175,142zm32 -310c-191,74 -150,567 110,483 181,-59 154,-587 -110,-483z"/>
   <polygon class="fil65" points="5125,12818 4949,12817 4949,12624 4872,12623 4873,13104 4949,13106 4948,12894 5127,12894 5124,13105 5201,13105 5200,12624 5128,12623 "/>
   <path class="fil65" d="M8778 12768l39 122 -93 3c7,-27 14,-41 23,-66 27,-77 14,-43 31,-59zm-210 335l81 3 48 -136 150 0c6,24 16,48 25,73 25,73 4,62 101,63 -13,-83 -142,-381 -161,-483l-76 0 -168 480z"/>
   <path class="fil67" d="M3819 10924c13,29 11,23 32,47 15,16 25,26 37,41 138,-43 146,-154 475,-106 5,8 -48,36 141,68l-26 -82 29 -7c2,-1 5,-2 7,-3 3,-1 6,-4 8,-5 2,-1 5,-2 7,-4 -25,-8 -64,-16 -83,-38 -16,-19 17,-23 -74,-42 -206,-45 -399,12 -553,131z"/>
   <path class="fil67" d="M4056 11943c40,6 53,6 73,27 100,105 496,8 607,-141l-69 -73c-70,20 -145,139 -367,144 -142,3 -37,-23 -118,-42l-122 -21 34 76c-52,22 -19,-7 -38,30z"/>
   <path class="fil65" d="M6066 13004l-67 -21c-1,1 -57,96 -131,37 -66,-51 -71,-261 -4,-312 68,-50 105,11 135,32l67 -28c-45,-102 -157,-122 -232,-78 -133,78 -125,407 8,465 112,49 194,-9 224,-95z"/>
   <path class="fil65" d="M7867 11753c85,-33 109,147 41,183 -97,52 -116,-153 -41,-183zm-27 -79c-173,61 -119,405 84,348 181,-51 120,-419 -84,-348z"/>
   <path class="fil65" d="M7901 11001c-19,-142 111,-165 125,-46 15,127 -110,161 -125,46zm25 -200c-198,68 -107,412 81,346 185,-66 104,-410 -81,-346z"/>
   <path class="fil65" d="M8900 10934c-2,-50 30,-63 79,-58 22,18 26,22 32,57l-111 1zm163 166c-16,-20 -32,-29 -55,-49 -61,46 -107,24 -118,-51l206 0c-3,-230 -206,-264 -272,-112 -84,192 123,361 239,212z"/>
   <path class="fil65" d="M6968 10934c-3,-37 4,-33 31,-59 57,-3 74,7 79,58l-110 1zm162 166l-47 -45c-35,8 -37,36 -84,14 -25,-12 -34,-35 -41,-67l206 -1c3,-227 -207,-268 -272,-111 -87,211 150,351 238,210z"/>
   <polygon class="fil65" points="7358,11628 7494,11629 7492,12018 7572,12020 7574,11633 7705,11629 7706,11546 7359,11548 "/>
   <path class="fil61" d="M3699 12934c31,184 225,121 175,-142 -33,-170 -222,-131 -175,142z"/>
   <path class="fil61" d="M7214 12699c-18,7 -38,1 -59,73 -24,85 -17,306 115,260 91,-33 92,-389 -56,-333z"/>
   <path class="fil65" d="M7741 11091l-52 -58c-3,2 -5,2 -6,5 -1,3 -4,4 -6,5l-31 24c-51,23 -115,-18 -109,-102 3,-57 56,-148 156,-40 21,-23 27,-36 49,-58 -55,-129 -282,-88 -286,99 -4,183 185,252 285,125z"/>
   <polygon class="fil65" points="4477,12691 4587,12691 4588,13107 4664,13107 4664,12693 4775,12691 4776,12622 4477,12622 "/>
   <polygon class="fil65" points="7532,13102 7831,13106 7830,13036 7607,13033 7607,12623 7533,12624 "/>
   <polygon class="fil68" points="7265,10700 7265,10784 7265,11073 7264,11147 7349,11147 7349,11109 7349,10729 7348,10667 "/>
   <polygon class="fil65" points="7928,13102 8006,13107 8005,12623 7929,12624 "/>
   <polygon class="fil64" points="4157,13105 4085,13105 4229,13574 4296,13556 "/>
   <path class="fil69" d="M4225 11358l-86 45c27,15 63,34 83,47l16 91 62 -63 101 12c-62,-146 -37,-49 0,-173 -146,32 -82,10 -165,-50l-11 91z"/>
   <path class="fil70" d="M4034 11357c-18,19 -14,5 15,85 10,29 26,69 31,97l-94 -71c-17,-12 -31,-23 -45,-36 -29,-25 -23,-29 -65,-22 -2,42 21,86 34,125 20,54 27,104 52,111 17,-15 18,15 7,-33l-49 -149c40,24 60,46 96,73l73 54c20,8 6,8 30,1 9,-20 3,-27 -8,-59 -13,-36 -39,-173 -77,-176z"/>
   <path class="fil71" d="M7901 11001c15,115 140,81 125,-46 -14,-119 -144,-96 -125,46z"/>
   <path class="fil71" d="M7867 11753c-75,30 -56,235 41,183 68,-36 44,-216 -41,-183z"/>
   <path class="fil72" d="M4154 12817c86,-2 177,24 164,-85 -55,-47 -83,-32 -163,-33l-1 118z"/>
   <path class="fil72" d="M6726 12818c94,-4 199,14 154,-106 -55,-18 -89,-11 -153,-14l-1 120z"/>
   <path class="fil70" d="M4666 11357c-23,7 -23,20 -50,31 -25,11 -53,13 -77,-3 -43,-28 -93,-157 -4,-187 30,-10 48,3 71,-17 -5,-11 -2,-31 -65,-13 -161,47 -80,254 21,260 50,3 113,-25 104,-71z"/>
   <path class="fil64" d="M3764 11014c18,16 -2,10 28,12 0,0 25,-5 27,-5l1 85c47,-25 67,-58 117,-74l-16 -11c-35,-17 -20,0 -44,-22 -35,-34 3,-20 -47,-37 -36,21 -28,33 -66,52z"/>
   <path class="fil64" d="M4613 11755c68,-4 61,17 103,45 33,-19 48,-38 67,-72l-56 13 -6 -86 -103 93c-1,2 -3,5 -5,7z"/>
   <path class="fil71" d="M8778 12768c-17,16 -4,-18 -31,59 -9,25 -16,39 -23,66l93 -3 -39 -122z"/>
   <path class="fil73" d="M6968 10934l110 -1c-5,-51 -22,-61 -79,-58 -27,26 -34,22 -31,59z"/>
   <path class="fil73" d="M8900 10934l111 -1c-6,-35 -10,-39 -32,-57 -49,-5 -81,8 -79,58z"/>
   <polygon class="fil61" points="6407,12899 6350,12743 6292,12900 "/>
   <path class="fil17 str6" d="M3871 10922c57,67 11,-36 42,18 26,44 -11,-50 17,-20 46,48 -27,-44 18,-9 29,23 -9,-21 23,-4 58,31 -5,-35 29,-4 12,11 8,-26 16,-35 18,17 66,33 42,-2 17,-20 -22,0 18,0 31,0 -22,-4 11,-13 24,-6 -16,-25 32,8 16,10 -13,-34 21,-14 39,24 -30,-41 25,1 33,25 30,3 20,-22 8,4 53,20 29,-6 17,38 94,40 48,5 0,0 60,55 43,5 -3,-8 91,70 38,-1 -4,-6 28,53 43,24 9,-15 -17,-14 19,17 -6,-43 22,15 25,23"/>
   <path class="fil17 str6" d="M4146 11913c10,12 45,51 28,4 4,2 82,60 25,5 -12,-11 73,89 47,26 -7,-18 51,40 20,-2 -12,-15 37,42 24,10 -10,-24 27,24 32,-4 10,-4 -7,15 29,-3 0,-1 56,-10 76,-21 16,-7 -12,21 31,-3 15,-9 9,36 36,-9 13,-22 0,29 17,-13 3,-8 0,6 17,-4 36,-19 53,-10 80,-49 8,-11 -5,48 23,-17 7,-16 1,37 19,-3 3,-6 5,-5 11,-5"/>
  </g>
  <path class="fil37" d="M47002 15476l0 0zm-1093 1312c-7,14 -14,55 -18,73 -6,24 -13,51 -18,75 -21,88 -47,224 -56,314 -6,56 -13,112 -13,173l-3 87c0,45 -2,70 8,94l787 0c-37,-39 -70,-80 -107,-133l-48 -74c-30,-50 -59,-111 -82,-166l-33 -91c-20,-82 -28,-82 -46,-194 -12,-74 -13,-138 -13,-225 0,-113 27,-247 64,-352 5,-15 13,-31 16,-45 46,-94 71,-208 203,-191 20,3 56,5 75,3 29,-5 44,-6 67,-14 19,-7 38,-17 53,-28 159,-112 93,-207 160,-318 11,-19 19,-31 35,-46 7,-8 12,-13 20,-20 9,-9 14,-11 21,-20 25,15 53,12 74,-3 0,27 -33,121 23,195 31,41 76,53 124,30 15,-8 24,-18 36,-26 -17,73 -26,144 45,182 14,8 47,19 64,23 -10,44 -78,149 -32,281 19,53 57,98 111,118 63,21 125,-7 146,-69 12,-35 11,-58 11,-104 18,12 24,26 49,39 129,66 245,-88 122,-262l-41 -50c45,0 83,-8 101,-58 3,-10 9,-34 8,-47 -6,-64 -33,-110 -62,-152 51,11 117,-19 143,-42 18,-16 44,-35 50,-65l0 -23c-1,-3 -1,-6 -2,-8 -8,-31 -57,-62 -79,-67 4,-6 9,-9 15,-13 14,-11 31,-35 38,-52 14,-35 19,-61 -2,-96 -34,-57 -133,-47 -185,-47 3,-35 19,-70 -20,-120 -56,-73 -180,-5 -194,-1 0,-96 6,-134 -140,-168 1,-1 2,-2 2,-1l23 -12c10,-4 17,-8 26,-14 45,-30 86,-78 101,-130 49,-92 32,-251 1,-347 -4,-12 -9,-22 -14,-35 -16,-40 -31,-65 -55,-101 -52,-79 -132,-148 -218,-188 -46,-21 -99,-39 -156,-49 -38,-7 -69,-6 -93,-9 -36,-6 -65,1 -98,1 -66,-1 -148,25 -177,28 0,-32 -30,-106 -95,-71 -16,9 -21,21 -35,31 0,-68 -77,-119 -137,-112 -38,4 -61,19 -86,37l-47 47c-6,7 -8,10 -16,15 -2,-9 -11,-17 -17,-27 -37,-62 -62,-125 -154,-69 -9,5 -19,14 -31,15 -4,-20 -13,-32 -27,-44 -13,-12 -29,-21 -47,-28 -12,-4 -29,-7 -46,-8l-21 0c-21,1 -41,6 -53,18 -36,12 -45,67 -45,106 -15,-8 -25,-17 -40,-25 -171,-88 -296,-36 -422,91 -59,60 -119,183 -137,263 -21,-14 -52,-34 -80,-5 -19,19 -29,44 -32,70l0 40c7,60 40,117 68,125 -3,15 -13,24 -15,40 -17,44 -5,94 19,120 4,5 17,14 21,17 28,17 61,21 96,21 8,33 26,42 24,55 -2,11 -53,83 -24,163 4,10 11,21 13,31 -143,-76 -140,140 -52,229 15,15 20,20 40,31 11,5 17,7 28,9 16,3 18,2 30,1 -7,11 -15,15 -23,26 -21,27 -41,66 -51,98 -30,95 18,140 100,125 28,-6 17,-5 19,17 10,124 152,71 167,16 48,33 129,93 178,-8 5,-11 8,-21 12,-34 2,-9 4,-30 7,-38 12,6 22,14 32,22l59 47c11,11 19,16 29,26 19,19 33,35 51,55l24 28c9,12 17,21 24,32 31,46 57,85 77,138 11,29 16,49 21,85 6,44 -79,264 -100,326 -15,49 -118,371 -123,413zm362 -432c-10,11 -15,42 -23,58 -48,109 -126,212 -193,313 -6,9 -8,16 -16,23l18 -41 128 -199c36,-57 84,-147 97,-226 1,-3 1,-6 1,-9l-1 9 -11 72zm59 -96c-2,-51 44,-168 92,-191 -6,12 -9,11 -17,21 -42,55 -54,110 -75,170zm354 -331c-14,-10 -30,-9 -50,-10 95,-21 64,56 -5,57 16,-14 56,-17 55,-47zm-196 77c4,-9 17,-32 23,-40 13,-16 32,-34 50,-44 21,-11 44,-22 68,-23 -78,33 -86,39 -141,107zm-210 173c-1,-40 76,-124 101,-147 5,-5 8,-9 13,-14 64,-63 136,-128 217,-171 68,-37 241,-7 222,75 -12,51 -92,176 -161,173 -54,-2 -139,-34 -147,-79 -9,-55 90,-81 142,-76 -14,0 -67,17 -82,23 -122,50 11,126 97,122 59,-3 143,-136 142,-177 -2,-48 -108,-67 -146,-68 -35,-2 -55,11 -79,26 -57,34 -106,73 -152,115l-54 51c-24,23 -114,121 -113,147zm9 -93c-15,23 -45,77 -50,106 -1,-64 80,-159 108,-200 66,-96 57,-145 43,-243 19,35 24,94 16,138 -14,82 -77,136 -117,199zm-229 -311l134 120c-15,-7 -25,-17 -39,-26l-56 -44c-8,-8 -7,-8 -16,-14 -11,-9 -23,-20 -32,-31l-29 -36c-26,-33 -52,-83 -63,-124 8,29 61,114 86,138 8,8 8,9 15,17zm397 -8c-14,-41 -26,-78 -48,-115 -11,-20 -21,-34 -33,-50l-35 -45c21,24 26,17 51,53 4,6 4,6 7,11 7,10 11,15 16,25 16,27 40,89 42,121zm-209 -229c5,16 14,31 23,48 8,16 15,33 22,49 20,50 68,182 38,232 -23,37 -73,-7 -93,-22l-76 -67c-13,-13 -21,-24 -34,-37 -8,-8 -12,-12 -18,-20 -30,-38 -126,-147 -136,-190 53,32 102,-22 123,-65l19 -52c0,67 53,124 132,124zm721 22c-7,5 -20,11 -29,17 -44,26 -86,87 -110,131l-28 56c-4,6 -2,3 -6,7 0,-66 11,-120 4,-184 -2,-13 0,-26 0,-40 -2,-22 -7,-48 -7,-73l9 -11c2,-2 2,-2 5,-5 20,-22 19,-19 37,-46 24,-35 22,-42 36,-70 0,0 1,-1 1,-2 0,0 1,-1 1,-2 0,0 1,-1 1,-2 0,50 0,160 66,162 24,1 44,-19 55,-22 -2,11 -12,28 -17,41 -7,15 -11,28 -18,43zm-343 -50c0,15 2,33 4,49 9,71 -8,340 -85,289 -6,-4 -9,-7 -14,-13 -44,-56 -75,-149 -90,-218 -6,-27 -17,-67 -17,-96 71,13 120,-73 138,-137l5 -14c0,28 10,63 18,82 9,22 22,46 41,58zm-1068 -1021c32,-144 181,-126 284,-92 -62,-9 -112,-26 -180,-2 -59,20 -83,54 -91,117 -11,-4 -37,-35 -58,-12 -17,17 -14,49 -7,72 -14,-4 -27,-18 -45,-13 -19,16 -1,41 3,58 -36,-10 -54,-17 -65,26 -10,40 -3,71 -3,110 -11,-23 -12,-80 -8,-108 6,-46 22,-55 65,-41 -12,-44 -20,-75 40,-49 -7,-112 64,-66 65,-66zm1040 -25c126,-4 349,-6 410,130 15,32 9,30 16,50l3 7c-2,9 -4,65 -6,82 41,-7 68,16 88,48 25,40 24,69 -1,102 10,12 19,15 25,37 12,54 -34,128 -37,138 5,-42 52,-144 -18,-158 8,-15 21,-25 26,-47 9,-42 -23,-111 -100,-88 -3,-76 8,-103 -29,-166 -51,-87 -163,-118 -263,-128 -84,-8 -128,2 -191,1l77 -8zm-641 690l3 -5c4,-11 6,-47 -22,-72 -6,-5 -3,-1 -9,-8 12,-11 58,-31 46,-88 -9,-44 -51,-62 -63,-73 6,-3 202,-53 186,-109 -14,-26 -48,-21 -72,-34 7,-15 104,-98 -41,-182 -20,-12 -45,-26 -67,-34 38,5 87,32 111,52 34,27 59,51 46,117 0,0 -26,43 -27,44 81,17 101,48 30,92 -67,42 -118,43 -147,57 29,15 55,28 61,68 8,53 -28,76 -38,90 12,19 22,23 24,56 1,23 -4,45 -14,62 -25,41 -45,41 -102,47 -16,30 -27,54 -78,54 -34,0 -79,-20 -93,-38 33,10 59,27 102,23 51,-5 55,-51 63,-62 69,32 102,-38 101,-57z"/>
  <path class="fil61" d="M43381 13854l0 0zm2552 -1741c-56,-255 -319,-223 -502,-162 110,-17 198,-46 318,-5 104,35 146,96 161,206 18,-7 64,-61 103,-21 29,30 24,88 10,127 25,-6 49,-32 81,-23 33,29 1,73 -6,103 64,-18 96,-30 115,47 18,69 5,124 5,193 19,-40 21,-140 14,-190 -11,-82 -38,-97 -115,-72 22,-78 35,-134 -70,-87 13,-197 -112,-117 -114,-116zm-1835 -45c-223,-8 -616,-11 -724,229 -26,57 -16,54 -28,88l-5 13c4,16 7,115 10,144 -72,-12 -120,30 -155,86 -43,69 -42,121 1,179 -16,22 -33,26 -42,65 -22,96 59,226 64,245 -9,-75 -92,-255 32,-279 -15,-28 -38,-45 -46,-84 -16,-74 40,-195 177,-155 5,-134 -14,-181 51,-293 90,-153 288,-208 464,-225 148,-14 225,4 337,1l-136 -14zm-1660 819c-86,-163 -56,-444 0,-612 7,-21 16,-40 25,-62 28,-71 54,-115 96,-178 92,-139 233,-262 385,-332 81,-38 175,-69 275,-87 68,-12 121,-9 165,-16 63,-10 114,3 172,2 117,-1 262,45 312,50 0,-57 53,-188 168,-125 29,16 38,37 62,53 0,-118 135,-208 240,-196 69,7 109,32 154,66l83 81c10,13 13,18 27,27 4,-15 20,-31 29,-47 66,-110 111,-220 273,-123 16,10 34,26 54,28 8,-35 24,-57 48,-78 24,-21 51,-37 83,-49 22,-8 51,-14 81,-15l37 0c37,2 72,12 93,32 64,22 80,119 80,187 26,-14 45,-31 71,-44 302,-156 522,-64 744,160 105,106 209,324 242,464 36,-24 91,-59 141,-9 34,34 51,78 56,124l0 71c-11,106 -70,206 -120,220 6,27 23,42 27,71 31,77 8,165 -34,212 -7,8 -29,24 -37,29 -49,30 -106,38 -170,38 -13,58 -44,74 -41,97 3,18 94,147 41,287 -6,18 -17,37 -22,54 253,-133 247,248 92,405 -26,26 -36,36 -71,54 -19,9 -29,13 -50,17 -28,4 -31,3 -53,1 13,19 28,27 42,46 36,48 71,117 89,174 53,166 -31,246 -176,219 -48,-9 -30,-9 -33,30 -18,219 -269,126 -294,29 -85,57 -229,164 -314,-14 -10,-20 -16,-38 -22,-61 -3,-15 -8,-53 -12,-67l-5 -80c-57,-21 -95,-19 -121,-71 -28,-56 2,-113 6,-165 -32,75 -90,134 -157,167 -94,56 -181,-38 -217,-116l-35 -91c0,118 -92,219 -231,219 -18,-11 -51,-13 -70,-22 -68,-30 -104,-86 -122,-163 -26,49 -30,127 -119,155 -126,22 -213,-129 -243,-242l-9 -24c0,49 -18,110 -32,144 -16,40 -40,81 -72,103 -62,27 -88,44 -168,14 -24,-9 -48,-22 -69,-35 -19,-14 -42,-35 -59,-43l-16 -19c-3,-4 -3,-4 -7,-9 -36,-39 -34,-33 -67,-81 -42,-62 -37,-74 -63,-123 0,-1 -1,-3 -2,-4 0,-1 -1,-3 -2,-3 0,-1 -1,-3 -2,-4 0,87 0,282 -115,285 -44,1 -78,-33 -98,-38 4,19 21,50 31,72 11,26 19,50 32,75 0,37 20,76 19,127 -2,61 -22,72 -45,104 -43,25 -92,20 -130,-6 1,47 57,213 -41,343 -55,72 -134,94 -219,53 -26,-13 -42,-31 -64,-45 30,129 47,254 -78,321 -25,14 -84,33 -113,40 18,77 138,262 57,495 -33,95 -101,174 -198,209 -109,38 -219,-12 -256,-121 -21,-62 -20,-103 -20,-183 -31,21 -42,46 -85,68 -229,116 -434,-155 -216,-462l71 -88c-78,0 -146,-15 -177,-102 -6,-19 -16,-60 -14,-83 11,-114 59,-194 109,-270 -90,21 -206,-33 -252,-73 -32,-27 -78,-62 -88,-115l0 -41c1,-5 2,-9 4,-14 14,-54 100,-109 139,-118 -7,-10 -17,-15 -27,-23 -24,-18 -55,-61 -67,-91 -25,-62 -33,-108 3,-169 61,-102 234,-84 326,-84 -5,-61 -33,-123 35,-212 100,-129 319,-7 343,-2 0,-169 -9,-236 247,-296 -1,0 -3,-3 -4,-2l-40 -20c-16,-8 -30,-14 -46,-25 -78,-53 -151,-137 -179,-229zm2790 398l-4 -8c-7,-20 -11,-83 38,-127 10,-9 5,-2 15,-14 -20,-20 -102,-55 -81,-156 16,-77 90,-110 111,-129 -10,-6 -356,-94 -328,-192 25,-47 85,-36 128,-60 -13,-26 -184,-173 72,-322 35,-20 80,-45 117,-59 -65,9 -153,57 -195,91 -60,48 -104,91 -81,208 0,0 47,75 47,76 -141,31 -176,86 -52,163 118,74 208,75 260,100 -51,27 -98,51 -109,121 -14,93 50,133 67,159 -20,34 -38,40 -41,98 -3,41 7,79 25,109 43,73 78,73 179,84 28,53 48,96 137,95 61,-1 140,-35 165,-67 -59,18 -105,47 -180,40 -89,-8 -97,-90 -111,-108 -121,56 -181,-67 -179,-102z"/>
  <path class="fil74" d="M44568 15237c2,-91 -79,-296 -163,-337 10,21 15,19 29,36 75,97 96,195 134,301zm-626 -584c24,-18 53,-16 89,-19 -168,-37 -113,100 8,102 -29,-25 -98,-31 -97,-83zm346 136c-7,-17 -29,-56 -41,-71 -22,-29 -55,-61 -87,-78 -37,-19 -79,-39 -121,-40 137,58 152,68 249,189zm371 304c1,-69 -135,-218 -178,-258 -9,-9 -14,-16 -24,-25 -113,-111 -240,-226 -383,-302 -120,-65 -424,-12 -391,132 21,90 163,310 284,306 96,-4 246,-60 259,-140 16,-96 -158,-142 -251,-133 25,-1 120,29 146,40 214,87 -21,221 -171,214 -104,-4 -253,-240 -250,-312 3,-84 190,-117 257,-120 61,-3 96,19 139,46 100,61 186,129 268,203l96 90c41,40 200,214 199,259zm-15 -164c26,41 78,137 86,187 3,-113 -140,-280 -189,-352 -116,-169 -100,-255 -76,-429 -33,63 -43,166 -29,244 26,143 136,240 208,350zm404 -548l-237 213c25,-14 44,-31 67,-48l99 -76c15,-15 13,-15 29,-26 19,-15 41,-35 56,-54l52 -63c45,-58 92,-147 111,-220 -15,52 -108,202 -152,245 -14,13 -14,15 -25,29zm-702 -13c25,-74 47,-138 85,-204 20,-35 37,-60 58,-89l62 -79c-37,42 -45,30 -90,94 -7,10 -7,11 -13,20 -11,18 -18,27 -28,44 -28,48 -70,156 -74,214zm370 -405c-10,28 -26,55 -41,84 -14,29 -27,58 -39,87 -36,88 -120,322 -67,410 39,65 128,-14 163,-40l135 -118c23,-22 36,-42 60,-65 13,-14 20,-20 31,-35 53,-68 223,-259 241,-335 67,-33 125,-92 157,-167 -4,52 -34,109 -6,165 26,52 64,50 121,71l5 80c-21,11 -39,25 -58,38l-102 84c-20,19 -34,28 -52,46 -34,34 -59,62 -91,96l-42 51c-15,21 -29,36 -42,56 -54,80 -100,150 -136,243 -19,52 -27,86 -36,150 -12,78 138,466 175,576 28,85 210,654 217,729 -23,-13 -72,-42 -88,-45l-148 -496c-5,-16 -3,-20 -14,-27l131 491 -142 -64 -226 -351c-65,-104 -154,-272 -173,-414l21 143c4,28 1,6 -3,15 -1,-1 -3,-3 -3,-2 -1,1 -3,-2 -4,-2 -1,-1 -5,-3 -6,-4 -10,-6 -8,-5 -18,-10l-100 -53c-80,-167 -124,-368 -357,-337 -36,5 -100,9 -133,4 -50,-7 -77,-9 -118,-24 -33,-12 -66,-30 -93,-49 -281,-198 -164,-366 -282,-562 -20,-33 -35,-54 -61,-81 -14,-13 -23,-22 -36,-35 -16,-16 -25,-18 -38,-34 23,-32 43,-43 45,-104 1,-51 -19,-90 -19,-127 12,10 34,21 49,30 78,47 153,154 196,232l50 98c6,11 2,6 9,13 0,-116 -19,-212 -7,-324 3,-23 0,-47 1,-70 2,-41 11,-87 11,-130 17,8 40,29 59,43 21,13 45,26 69,35 80,30 106,13 168,-14 0,27 -3,58 -7,86 -16,126 14,599 149,510 11,-7 17,-12 26,-23 77,-99 131,-263 157,-385 11,-47 30,-118 31,-169 89,-28 93,-106 119,-155 18,77 54,133 122,163 19,9 52,11 70,22z"/>
  <path class="fil75" d="M45221 16124c100,396 205,692 203,1126 18,5 15,9 34,20 14,7 25,12 37,18l6 153c0,81 3,124 -15,167l-1389 0c66,-70 124,-141 190,-236l83 -129c53,-89 105,-197 146,-293l59 -161c24,6 33,16 52,25 7,4 13,5 19,8 83,-188 131,-645 127,-837 13,222 1,445 -44,660 -16,72 -35,130 -49,194l64 39c10,6 18,11 32,17l103 56c23,13 44,30 68,36 32,-150 30,-582 26,-773l0 -82c1,-22 4,-15 -4,-22 6,73 20,138 23,214 8,185 20,270 13,466 -1,36 -16,206 -14,219 5,10 31,22 43,28l217 119c0,-203 -31,-397 -71,-596 -13,-61 -31,-129 -39,-190l7 8c6,8 4,5 8,12l46 163c58,230 83,375 85,625l114 61c-3,-211 -35,-408 -74,-607 -15,-76 -112,-514 -137,-540l-131 -491c11,7 9,11 14,27l148 496z"/>
  <path class="fil76" d="M44670 15406c19,19 28,74 41,103 86,192 223,373 341,551 10,16 14,28 29,40l-33 -72 142 64c25,26 122,464 137,540 39,199 71,396 74,607l-114 -61c-2,-250 -27,-395 -85,-625l-46 -163c-4,-7 -2,-4 -8,-12l-7 -8c8,61 26,129 39,190 40,199 71,393 71,596l-217 -119c-12,-6 -38,-18 -43,-28 -2,-13 13,-183 14,-219 7,-196 -5,-281 -13,-466 -3,-76 -17,-141 -23,-214 8,7 5,0 4,22l0 82c4,191 6,623 -26,773 -24,-6 -45,-23 -68,-36l-103 -56c-14,-6 -22,-11 -32,-17l-64 -39c14,-64 33,-122 49,-194 45,-215 57,-438 44,-660 4,192 -44,649 -127,837 -6,-3 -12,-4 -19,-8 -19,-9 -28,-19 -52,-25 34,-145 48,-145 80,-341 21,-132 24,-245 24,-398 0,-200 -49,-436 -113,-621 -9,-26 -23,-55 -30,-79l100 53c10,5 8,4 18,10 1,1 5,3 6,4 1,0 3,3 4,2 0,-1 2,1 3,2 4,-9 7,13 3,-15z"/>
  <path class="fil76" d="M45309 16169c13,24 26,96 33,127 9,42 22,91 31,133 37,155 82,396 99,553 11,100 23,199 23,306 -12,-6 -23,-11 -37,-18 -19,-11 -16,-15 -34,-20 2,-434 -103,-730 -203,-1126 16,3 65,32 88,45z"/>
  <path class="fil74" d="M43341 12398l5 -13c12,-34 2,-31 28,-88 108,-240 501,-237 724,-229l136 14c-112,3 -189,-15 -337,-1 -176,17 -374,72 -464,225 -65,112 -46,159 -51,293 -137,-40 -193,81 -177,155 8,39 31,56 46,84 -124,24 -41,204 -32,279 -5,-19 -86,-149 -64,-245 9,-39 26,-43 42,-65 -43,-58 -44,-110 -1,-179 35,-56 83,-98 155,-86 -3,-29 -6,-128 -10,-144z"/>
  <path class="fil74" d="M45228 13285c-2,35 58,158 179,102 14,18 22,100 111,108 75,7 121,-22 180,-40 -25,32 -104,66 -165,67 -89,1 -109,-42 -137,-95 -101,-11 -136,-11 -179,-84 -18,-30 -28,-68 -25,-109 3,-58 21,-64 41,-98 -17,-26 -81,-66 -67,-159 11,-70 58,-94 109,-121 -52,-25 -142,-26 -260,-100 -124,-77 -89,-132 52,-163 0,-1 -47,-76 -47,-76 -23,-117 21,-160 81,-208 42,-34 130,-82 195,-91 -37,14 -82,39 -117,59 -256,149 -85,296 -72,322 -43,24 -103,13 -128,60 -28,98 318,186 328,192 -21,19 -95,52 -111,129 -21,101 61,136 81,156 -10,12 -5,5 -15,14 -49,44 -45,107 -38,127l4 8z"/>
  <path class="fil75" d="M44659 15093c1,-45 -158,-219 -199,-259l-96 -90c-82,-74 -168,-142 -268,-203 -43,-27 -78,-49 -139,-46 -67,3 -254,36 -257,120 -3,72 146,308 250,312 150,7 385,-127 171,-214 -26,-11 -121,-41 -146,-40 93,-9 267,37 251,133 -13,80 -163,136 -259,140 -121,4 -263,-216 -284,-306 -33,-144 271,-197 391,-132 143,76 270,191 383,302 10,9 15,16 24,25 43,40 179,189 178,258z"/>
  <path class="fil74" d="M45933 12113c2,-1 127,-81 114,116 105,-47 92,9 70,87 77,-25 104,-10 115,72 7,50 5,150 -14,190 0,-69 13,-124 -5,-193 -19,-77 -51,-65 -115,-47 7,-30 39,-74 6,-103 -32,-9 -56,17 -81,23 14,-39 19,-97 -10,-127 -39,-40 -85,14 -103,21 -15,-110 -57,-171 -161,-206 -120,-41 -208,-12 -318,5 183,-61 446,-93 502,162z"/>
  <path class="fil75" d="M45048 16028l33 72c-15,-12 -19,-24 -29,-40 -118,-178 -255,-359 -341,-551 -13,-29 -22,-84 -41,-103l-21 -143c19,142 108,310 173,414l226 351z"/>
  <path class="fil75" d="M44730 15116c-8,-50 -60,-146 -86,-187 -72,-110 -182,-207 -208,-350 -14,-78 -4,-181 29,-244 -24,174 -40,260 76,429 49,72 192,239 189,352z"/>
  <path class="fil75" d="M44811 14594l237 -213c11,-14 11,-16 25,-29 44,-43 137,-193 152,-245 -19,73 -66,162 -111,220l-52 63c-15,19 -37,39 -56,54 -16,11 -14,11 -29,26l-99 76c-23,17 -42,34 -67,48z"/>
  <path class="fil75" d="M44568 15237c-38,-106 -59,-204 -134,-301 -14,-17 -19,-15 -29,-36 84,41 165,246 163,337z"/>
  <path class="fil75" d="M44346 14368c4,-58 46,-166 74,-214 10,-17 17,-26 28,-44 6,-9 6,-10 13,-20 45,-64 53,-52 90,-94l-62 79c-21,29 -38,54 -58,89 -38,66 -60,130 -85,204z"/>
  <path class="fil75" d="M44288 14789c-97,-121 -112,-131 -249,-189 42,1 84,21 121,40 32,17 65,49 87,78 12,15 34,54 41,71z"/>
  <path class="fil75" d="M44031 14634c-36,3 -65,1 -89,19 -1,52 68,58 97,83 -121,-2 -176,-139 -8,-102z"/>
 </g>
</svg>
