<?xml version="1.0" encoding="UTF-8"?>
<!DOCTYPE svg PUBLIC "-//W3C//DTD SVG 1.1//EN" "http://www.w3.org/Graphics/SVG/1.1/DTD/svg11.dtd">
<!-- Creator: CorelDRAW X8 -->
<svg xmlns="http://www.w3.org/2000/svg" xml:space="preserve" width="4879px" height="1956px" version="1.1" style="shape-rendering:geometricPrecision; text-rendering:geometricPrecision; image-rendering:optimizeQuality; fill-rule:evenodd; clip-rule:evenodd"
viewBox="0 0 48792 19559"
 xmlns:xlink="http://www.w3.org/1999/xlink">
 <defs>
  <style type="text/css">
   <![CDATA[
    .str0 {stroke:#373435;stroke-width:41.6561}
    .str2 {stroke:#313131;stroke-width:41.6561}
    .str1 {stroke:#424242;stroke-width:20.8339}
    .str3 {stroke:black;stroke-width:8.9997}
    .str4 {stroke:#B5EEFF;stroke-width:8.9997}
    .str5 {stroke:#E6E6E6;stroke-width:8.9997}
    .fil17 {fill:none}
    .fil13 {fill:#373435}
    .fil20 {fill:#EFB783}
    .fil61 {fill:#032ECB}
    .fil66 {fill:#0A461C}
    .fil35 {fill:#0B3859}
    .fil47 {fill:#121710}
    .fil23 {fill:#1369B6}
    .fil54 {fill:#1B1B1C}
    .fil31 {fill:#1C1C1C}
    .fil27 {fill:#20547B}
    .fil7 {fill:#313131}
    .fil30 {fill:#33322E}
    .fil36 {fill:#333333}
    .fil26 {fill:#362D24}
    .fil28 {fill:#3689BB}
    .fil22 {fill:#3890D0}
    .fil10 {fill:#424242}
    .fil6 {fill:#464646}
    .fil14 {fill:#4A4A4A}
    .fil40 {fill:#4D4D4D}
    .fil39 {fill:#525252}
    .fil15 {fill:#5C707B}
    .fil67 {fill:#604836}
    .fil16 {fill:#71848B}
    .fil8 {fill:#757575}
    .fil55 {fill:#767B7F}
    .fil32 {fill:#797977}
    .fil49 {fill:#7A838A}
    .fil41 {fill:gray}
    .fil56 {fill:#99A3AC}
    .fil50 {fill:#9CADB7}
    .fil57 {fill:#AAB5C5}
    .fil53 {fill:#ADBACA}
    .fil65 {fill:#B3B3B3}
    .fil38 {fill:#B5EEFF}
    .fil24 {fill:#B96F48}
    .fil59 {fill:#BABABA}
    .fil52 {fill:#BACADA}
    .fil46 {fill:#C1C2C9}
    .fil18 {fill:#C1CFCF}
    .fil33 {fill:#C77066}
    .fil4 {fill:#C8382F}
    .fil11 {fill:#CACACA}
    .fil37 {fill:#CCCCCC}
    .fil45 {fill:#CDCED3}
    .fil2 {fill:#CFB175}
    .fil51 {fill:#D2D7DD}
    .fil64 {fill:#DC0000}
    .fil5 {fill:#DF7E77}
    .fil3 {fill:#DFE9EB}
    .fil34 {fill:#E09474}
    .fil44 {fill:#E0E7ED}
    .fil1 {fill:#E6E6E6}
    .fil42 {fill:#E6EEF1}
    .fil21 {fill:#EC9956}
    .fil29 {fill:#ECB31E}
    .fil25 {fill:#EDD89F}
    .fil12 {fill:#EFEFEF}
    .fil43 {fill:#F1FAFF}
    .fil0 {fill:#F2F2F2}
    .fil48 {fill:#F2FBFF}
    .fil9 {fill:white}
    .fil58 {fill:white}
    .fil19 {fill:#464646;fill-rule:nonzero}
    .fil63 {fill:#FFCC00;fill-rule:nonzero}
    .fil62 {fill:white;fill-rule:nonzero}
    .fil60 {fill:#B3B3B3}
   ]]>
  </style>
   <mask id="id0">
  <linearGradient id="id1" gradientUnits="userSpaceOnUse" x1="25617.3" y1="16060.5" x2="30445.5" y2="16060.5">
   <stop offset="0" style="stop-opacity:0; stop-color:white"/>
   <stop offset="1" style="stop-opacity:1; stop-color:white"/>
  </linearGradient>
    <rect style="fill:url(#id1)" x="25607" y="14748" width="4849" height="2625"/>
   </mask>
 </defs>
 <g id="Слой_x0020_1">
  <metadata id="CorelCorpID_0Corel-Layer"/>
  <rect class="fil0" x="2" width="48790" height="19559"/>
  <path class="fil1" d="M4677 7982c-42,76 9,-39 57,128 -160,149 -40,142 -243,307 -473,385 -194,398 -1252,415 75,324 202,-19 265,602l-92 0c-1,618 45,5317 -30,5468 -55,-116 -23,-624 -23,-835 0,-31 0,-108 -4,-136 -36,-231 -169,-189 -165,-558 2,-180 1,-360 1,-553l-636 -14 -2 -879 -850 1 -2 1793c1,496 50,414 -138,425l-9 -1948 -1028 -2 -4 2716 -520 0 0 2839 48790 -1 0 -2838 -312 0c-1,-95 12,-347 -2,-425 -22,-127 -150,-236 -159,-590 -3,-129 2,-271 2,-403l-284 1 -28 -210 -390 -2c-25,101 -18,113 -50,195 -37,94 -5,-60 -41,105l-12 539 -186 8 -4 -2412 -771 0 -1 477 -368 -9c-76,-412 -32,-949 -38,-1408l-493 16 0 -767 1 -72 -864 10 1 341 -8 413c-99,503 -56,1068 -52,1601l-218 3c-1,-393 -93,10 -105,-310l-1 -593c-27,-98 -104,-12 -148,-147 -308,8 0,112 -314,91 -217,-14 -62,2 -150,-97 -104,-114 29,-24 -50,-47 -4,164 -9,92 -43,139l-312 0 -2 933c-207,168 -25,196 -919,152 -61,-356 2,-1154 3,-1548 0,-255 29,-325 -24,-410 -197,-41 -130,-138 -99,-278l-293 0c1,-136 -15,-289 -11,-378 9,-182 36,-182 -45,-326 -170,-20 82,114 -147,5 -62,-30 -101,-67 -126,-145l-44 -1010c-117,-129 -86,-256 -124,-440l-114 28c-28,319 -131,365 -130,654 0,186 10,749 -98,865 -152,164 -168,45 -212,29 -64,212 -47,458 -50,718l-288 0 16 222c-97,78 -31,48 -160,72 35,235 26,532 25,779 -1,128 -2,256 -1,384 4,325 20,271 -59,355l1 -464 -343 -5 -8 418c-180,14 -57,34 -240,51l-11 503 -212 -3c-27,-367 47,-1179 -29,-1463l-397 -15c-5,-168 15,-72 -51,-164l-53 -58c-67,-64 -166,-104 -244,-67 -92,44 -58,-67 -69,131l-148 -17 17 -580 -712 0 -3 -2481 0 -1473c-147,58 11,82 -418,78l0 -434c-8,4 -16,13 -20,17 -113,78 -121,69 -267,68 -3,-259 -45,-397 -45,-679 -151,90 -603,103 -757,0 2,489 -51,325 -52,680 -252,0 -221,-56 -287,-86l0 948 -1046 1 0 796 0 1794 3 756c0,46 -1,89 -9,133 -21,116 -4,41 -29,84 -273,-28 7,-152 -269,-104 -95,17 -168,97 -175,199l-1 906c-126,0 -126,-21 -210,35 -1,244 -1,488 -1,732l1 524c-6,63 -7,46 -19,95l-23 56c-94,-13 -108,87 -184,-279 -65,-317 -86,-899 -191,-1105l-183 1197 -163 45 -16 185 -191 23c-1,958 -77,458 -113,688 -23,147 30,997 -19,1172 -2,6 -10,31 -12,26 -2,-5 -8,17 -13,25 3,-192 23,-2339 -19,-2494 -141,-511 62,-2638 -75,-3094 -115,-84 -59,-33 -103,-138l-81 -164c-78,-119 -115,-184 -185,-303 -48,-81 -149,-226 -185,-301 -88,-177 19,-259 -114,-349 -94,35 -58,3 -83,90 -7,25 -4,90 -9,126 -16,120 -24,113 -87,207 -84,123 -139,222 -211,346 -153,265 -339,440 -333,783 9,370 43,2064 -22,2308l-771 0 -17 2380 -144 4c-1,-1359 58,-1089 -188,-1166 28,-442 -51,-3386 5,-3526l-1 -245 -908 -1 -1 -564 -3233 -2 0 564 -894 -7c-17,234 1,467 -3,638 -5,225 4,525 0,706l-6 3606c-1,126 0,245 5,366 12,255 -17,201 -69,230 -83,-61 -53,-65 -53,-209l2 -1851c0,-555 60,-1620 -14,-2117l-1605 0 -21 1333 -190 1 -8 -465c-241,-27 -75,-68 -332,-15l0 -132c-290,28 13,39 -184,140l-376 -131c-6,175 -1,16 -57,154 -70,175 -35,2553 -31,2940 4,411 20,306 -58,352 -113,-84 -51,-474 -51,-631l-1 -2073c0,0 -39,-20 -66,-40 -47,-33 -36,-28 -57,-48 -104,-101 -69,-141 -455,-141l-67 166 -184 1 -5 -409c-14,-188 11,-24 -44,-111 -79,-127 -22,90 -72,-115l-190 102 -2 -572 -1507 -1 -2 3171 -221 137 -2 -2412c-201,-1 -161,106 -168,-549 -4,-373 69,-171 88,-379 -760,-5 -444,3 -555,-196 -53,-95 -147,-79 -157,-106 -5,-13 -20,-8 -29,-14l0 -1044c3,-144 13,-353 3,-492 -17,-247 -81,-31 -81,-381l-139 -192c-49,-99 -64,-54 -107,-158 -2,-5 -22,-78 -25,-88 -2,-8 -7,-14 -8,-29 -2,-16 -4,-20 -9,-29 -297,-1 -772,-73 -975,10 -71,223 6,70 -108,266 -65,112 6,90 -120,193 -4,3 -18,20 -21,13 -3,-6 -16,8 -22,14 -47,114 94,217 -85,226l-1 5040c1,189 37,180 -92,201l-2 -2263c-169,-4 -148,35 -158,-103l-3 -1741c-140,0 -407,20 -530,-14 -10,-2 -18,-6 -27,-9 -284,-98 -489,-57 -889,-58 -365,-1 -151,74 -424,81l-3 1279c-292,27 -152,-42 -325,-47 -101,222 -27,480 -58,812l-334 10 4 876c-2,159 -6,207 -78,218 -163,25 -114,-28 -110,-361l-3 -3172c3,-209 -2,-419 1,-628 3,-228 19,-235 -103,-378 -140,-162 -267,17 -561,-94l-74 -34c-8,-3 -17,-7 -26,-10 -175,-69 -257,-91 -399,11 -201,143 -108,28 -298,3 -80,-10 -148,-3 -236,-16l-30 -106c0,67 9,67 -16,127 -92,226 -159,-106 -158,512l1 913 -3 1938 -243 0c-33,339 31,1884 -43,2019l-104 1c-91,-136 -22,-1968 -49,-2332l-837 12c-29,542 -6,1462 -7,2070 0,599 65,539 -122,556l-8 -1105 -350 -2 1 -240 -212 -28 -15 -1725c-108,-45 -162,-77 -317,-81 -500,-11 -384,66 -385,1133 -278,1 -71,-45 -281,-56 -242,-13 -27,15 -230,62l-16 396c-163,1 -175,21 -248,-44 -8,-7 -23,-30 -31,-37l-124 -83 -2 -1150 -97 -91c-77,-80 67,-53 -90,-71 -135,-16 -65,26 -95,53 -175,155 -69,5 -544,4l-11 461 -957 -1 -2 2329 -377 4 -5 -3862c0,-182 48,-607 -50,-754 -151,-227 39,163 -46,-59 103,-200 -4,-182 89,-292 36,-43 58,-47 85,-65 43,-99 54,-58 95,-159 -330,-61 -778,25 -966,-180 -221,-241 -315,-218 -422,-417l-101 -176c7,-7 17,-16 21,-20 3,-4 14,-15 18,-19l53 -51 -126 -7c-63,-500 -140,-751 -140,-1297 0,-482 2,-963 -1,-1445 -20,34 -18,23 -33,88 -35,157 26,1616 -27,1958 -33,212 -77,394 -97,610l77 -149c17,-46 21,-88 38,-132l0 356c-194,-33 -16,-36 -230,15z"/>
  <rect class="fil2" y="17607" width="48790" height="102"/>
  <g id="_2997083591296">
   <path class="fil3" d="M22407 15887c49,2 131,5 187,3 57,-2 88,-7 106,-15 18,-7 23,-17 15,-33 -9,-16 -29,-40 -58,-70 -29,-31 -67,-68 -105,-100 -38,-32 -77,-57 -116,-81 -40,-25 -79,-48 -116,-69 -37,-20 -72,-38 -106,-53 -35,-15 -69,-27 -94,-35 -24,-8 -39,-11 -57,-13 -18,-1 -40,-1 -68,-1 -28,0 -61,1 -85,5 -24,3 -39,10 -50,18 -11,8 -18,18 -19,35 0,17 5,41 23,71 18,30 48,65 83,100 34,34 73,68 117,102 44,34 93,69 138,91 45,22 86,31 114,37 28,5 43,6 91,8z"/>
   <rect class="fil4" x="16149" y="13496" width="526" height="561" rx="62" ry="59"/>
   <polygon class="fil5" points="16220,13496 16603,13496 16603,13784 16220,13784 "/>
   <path class="fil6" d="M11426 15219c-16,-13 -21,-40 -24,-70 -2,-29 -2,-60 3,-88 5,-28 15,-53 28,-73 13,-19 29,-33 48,-43 19,-10 41,-15 190,-17 149,-2 425,-1 569,-1 144,-1 156,-4 256,-43 100,-39 289,-114 521,-205 233,-92 509,-198 781,-294 272,-96 540,-180 775,-242 234,-61 434,-98 625,-128 190,-29 369,-50 543,-62 95,-7 187,-11 283,-13 -1,-2 -1,-4 -1,-6l0 0c0,-36 30,-66 67,-66l617 0c36,0 66,30 66,66l0 0c0,8 -1,16 -4,23 30,2 60,5 90,8 194,20 375,52 551,94 176,42 346,92 519,159 173,67 349,151 528,250 178,100 359,216 522,322 162,106 307,202 379,251 73,48 73,48 73,48 0,0 0,0 0,0 0,0 0,0 347,38 348,39 1043,115 1481,173 437,57 617,95 707,114 89,18 89,18 89,18 0,0 0,0 -30,0 -31,0 -92,0 -124,10 -33,10 -37,30 -19,71 19,41 59,103 109,157 50,54 110,100 165,134 54,33 104,56 196,66 93,10 228,9 296,8 68,0 68,0 68,0 0,0 0,0 0,0 0,0 0,0 10,19 10,20 31,59 39,120 8,61 3,145 0,186 -3,42 -3,42 -3,42 0,0 0,0 7,0 6,0 19,0 26,0 7,0 7,0 7,0 0,0 0,0 0,49 0,49 0,146 0,195 0,49 0,49 0,49 0,0 0,0 0,0 0,0 0,0 -6,-1 -6,-2 -18,-4 -24,-6 -6,-1 -6,-1 -6,-1 0,0 0,0 0,0 0,0 0,0 0,35 0,35 0,106 -4,161 -3,55 -11,96 -24,131 -13,35 -32,65 -54,89 -22,24 -48,42 -82,58 -34,16 -75,29 -187,42 -111,13 -292,26 -382,32 -91,7 -91,7 -91,7 0,0 0,0 -13,-7 -14,-6 -42,-19 -55,-26 -14,-6 -14,-6 -14,-6 0,0 0,0 -10,0 -11,1 -32,2 -42,3 -10,1 -10,1 -284,10 -275,9 -823,27 -1097,36 -274,9 -274,9 -274,9 0,0 0,0 -2,7 -3,8 -8,22 -11,29 -2,7 -2,7 -2,7 0,0 0,0 -935,-10 -934,-11 -2802,-31 -3774,-44 -971,-12 -1045,-16 -1082,-18 -37,-2 -37,-2 -280,-6 -242,-5 -726,-14 -1059,-27 -332,-13 -513,-30 -747,-56 -233,-25 -518,-59 -685,-82 -167,-24 -217,-37 -257,-54 -39,-18 -69,-40 -89,-63 -19,-23 -28,-46 -28,-180 0,-134 9,-379 18,-514 9,-134 18,-159 56,-205 39,-45 107,-112 209,-203 102,-91 239,-207 314,-281 74,-73 87,-104 87,-130 -1,-25 -15,-45 -47,-59 -32,-14 -81,-23 -141,-20 -60,3 -131,19 -179,27 -49,9 -77,10 -93,-3z"/>
   <path class="fil7" d="M22281 15858c21,5 44,9 71,12l13 1 0 1 -688 214 0 -39 604 -189z"/>
   <path class="fil7" d="M11325 15835c10,-10 21,-21 33,-33l1180 198 356 180 -20 35 -367 -184 -1182 -196z"/>
   <path class="fil8" d="M21879 15454c-11,12 -9,30 3,59 19,41 59,103 109,157 26,29 56,55 85,78l8 8c0,0 0,0 -93,-2 -93,-2 -278,-7 -370,-9 -93,-2 -93,-2 -93,-2 0,0 0,0 -27,-13 -26,-13 -79,-39 -133,-56 -55,-18 -111,-28 -179,-35 -69,-7 -150,-12 -223,-6 -72,5 -137,20 -186,33 -49,13 -83,25 -99,31 -17,5 -17,5 -17,5 0,0 0,0 -171,-4 -172,-4 -515,-12 -686,-16 -172,-4 -172,-4 -172,-4 0,0 0,0 0,0 0,0 0,0 -11,-35 -12,-35 -35,-106 -61,-171 -27,-66 -57,-127 -94,-183 -36,-56 -79,-106 -100,-131 -22,-26 -22,-26 -22,-26 0,0 0,0 66,4 66,4 198,11 345,20 147,9 310,19 480,35 170,15 347,36 517,58 170,22 335,45 488,70 153,24 295,51 412,78 94,21 172,43 224,57z"/>
   <path class="fil4" d="M11515 15153c56,-7 139,-12 201,-13 62,0 102,3 137,14 36,10 66,27 88,48 22,21 36,46 43,60 7,14 7,18 2,28 -6,10 -18,25 -54,57 -37,32 -98,80 -164,134 -66,53 -136,112 -194,159 -59,46 -106,82 -141,108 -35,27 -59,45 -70,54 -12,9 -12,9 -12,9 0,0 0,0 6,-97 6,-98 17,-293 26,-399 8,-106 13,-123 30,-136 17,-12 46,-20 102,-26z"/>
   <path class="fil9" d="M11980 15253c1,3 3,6 4,9 7,14 7,18 2,28 -5,8 -15,21 -41,45l-564 0 2 -20c2,-26 4,-46 5,-62l592 0zm-337 330c-24,20 -48,39 -69,57 -12,8 -22,17 -33,25l-181 0 5 -82 278 0z"/>
   <circle class="fil10" cx="13642" cy="16725" r="891"/>
   <circle class="fil11 str0" cx="13642" cy="16725" r="625"/>
   <path class="fil12" d="M16726 15119c14,59 40,165 64,296 24,132 46,290 59,469 12,180 15,382 13,513 -1,27 -1,52 -2,74l-1701 0 3 24 1697 -3c-2,37 -4,66 -7,92l-1690 0 0 67 1681 0c-10,61 -22,124 -29,156 -6,32 -6,32 -6,32 0,0 0,0 0,0 0,0 0,0 -297,0 -297,0 -891,0 -1188,0 -297,0 -297,0 -297,0 0,0 0,0 0,0 0,0 0,0 -28,-70 -28,-70 -83,-209 -188,-408 -105,-199 -259,-459 -402,-681 -143,-223 -276,-409 -351,-514 -75,-105 -92,-128 -86,-140 5,-12 32,-12 487,-5 455,6 1338,19 1785,23 446,3 457,-4 462,0 6,3 8,16 21,75zm77 63c16,75 44,200 65,338 20,138 35,289 42,408 7,119 7,206 5,313 -1,72 -3,153 -8,230l2663 0c2,-20 3,-40 4,-61 8,-176 6,-385 -3,-542 -8,-157 -22,-261 -53,-352 -31,-91 -78,-170 -126,-232 -49,-63 -100,-109 -125,-133 -26,-23 -26,-23 -26,-23 0,0 0,0 0,0 0,0 0,0 0,0 0,0 0,0 -411,-12 -410,-12 -1232,-35 -1643,-47 -411,-12 -411,-12 -411,-12 0,0 0,0 3,13 3,12 8,37 24,112zm103 1310c-2,29 -4,58 -7,85l0 7 2662 0c3,-30 6,-63 8,-97l-2663 5zm-15 159c-9,67 -19,118 -25,148 -8,40 -8,40 -8,40 0,0 0,0 0,0 0,0 0,0 445,4 445,5 1334,14 1779,18 444,5 444,5 444,5 0,0 0,0 0,0 0,0 0,0 10,-70 5,-34 12,-84 19,-145l-2664 0z"/>
   <rect class="fil11" x="14343" y="15207" width="586" height="131"/>
   <rect class="fil13" x="14423" y="15251" width="425.773" height="42.9671"/>
   <rect class="fil11" x="16976" y="15254" width="586" height="131"/>
   <rect class="fil13" x="17057" y="15298" width="425.773" height="42.9671"/>
   <polygon class="fil14" points="13501,17239 13796,17239 13654,16852 "/>
   <polygon class="fil14" points="13156,16891 13315,17140 13564,16810 "/>
   <polygon class="fil14" points="14137,16891 13978,17140 13729,16811 "/>
   <polygon class="fil14" points="14091,16427 14193,16704 13780,16703 "/>
   <polygon class="fil14" points="13198,16425 13096,16702 13509,16701 "/>
   <polygon class="fil14" points="13984,16303 13714,16185 13690,16597 "/>
   <polygon class="fil14" points="13291,16303 13561,16185 13585,16597 "/>
   <path class="fil15" d="M14099 14975c159,8 450,8 595,8 145,0 145,0 145,0 0,0 0,0 0,0 0,0 0,0 -21,-128 -22,-128 -65,-385 -86,-513 -22,-128 -22,-128 -22,-128 0,0 0,0 0,0 0,0 0,0 -75,21 -75,20 -224,62 -337,98 -113,36 -188,66 -251,99 -62,33 -112,69 -148,109 -37,40 -60,83 -71,128 -11,46 -10,94 2,139 12,45 34,87 59,115 24,29 52,45 210,52z"/>
   <path class="fil16" d="M14565 14983c49,0 93,0 129,0 145,0 145,0 145,0 0,0 0,0 0,0 0,0 0,0 -21,-128 -22,-128 -65,-385 -86,-513 -22,-128 -22,-128 -22,-128 0,0 0,0 0,0 0,0 0,0 -75,21 -75,20 -224,62 -337,98 -70,22 -126,42 -173,62l440 588z"/>
   <path class="fil15" d="M14826 14381c23,131 65,367 87,484 21,118 22,118 23,118 1,0 1,0 1,0 0,0 0,0 255,3 255,4 765,10 1021,14 255,3 255,3 255,3 0,0 0,0 0,0 0,0 0,0 -14,-164 -15,-163 -43,-490 -58,-653 -14,-164 -14,-164 -14,-164 0,0 0,0 0,0 0,0 0,0 -81,4 -82,3 -245,9 -416,20 -172,11 -353,27 -517,48 -164,21 -312,47 -405,65 -93,18 -132,29 -151,34 -20,5 -20,5 -20,5 0,0 0,0 3,13 2,13 8,39 31,170z"/>
   <path class="fil16" d="M14826 14381c23,131 65,367 87,484 21,118 22,118 23,118 1,0 1,0 1,0 0,0 0,0 255,3l321 5 -640 -813c-32,7 -50,12 -61,15 -20,5 -20,5 -20,5 0,0 0,0 3,13 2,13 8,39 31,170z"/>
   <path class="fil15" d="M16727 14370c61,156 155,394 202,514 47,119 47,119 47,119 0,0 0,0 0,0 0,0 0,0 0,0 0,0 0,0 290,4 290,4 871,11 1161,15 291,4 291,4 291,4 0,0 0,0 0,0 0,0 0,0 0,-36 0,-37 0,-110 -1,-148 -1,-38 -2,-42 -2,-44 -1,-2 -1,-2 -1,-2 0,0 0,0 -33,-30 -34,-29 -100,-87 -202,-154 -102,-66 -240,-140 -399,-211 -158,-71 -336,-139 -487,-184 -150,-45 -272,-67 -395,-87 -123,-19 -247,-36 -345,-46 -99,-11 -172,-15 -208,-17 -37,-2 -37,-2 -22,35 14,38 43,112 104,268z"/>
   <path class="fil16" d="M18718 14942c0,-35 0,-75 -1,-100 -1,-38 -2,-42 -2,-44 -1,-2 -1,-2 -1,-2 0,0 0,0 -33,-30 -34,-29 -100,-87 -202,-154 -62,-40 -137,-83 -221,-126l460 456z"/>
   <path class="fil16" d="M16727 14370l35 90 536 547 1023 14 -796 -824c-120,-32 -224,-50 -327,-67 -123,-19 -247,-36 -345,-46 -99,-11 -172,-15 -208,-17 -37,-2 -37,-2 -22,35 14,38 43,112 104,268z"/>
   <path class="fil8" d="M13493 15005l-2064 -10c-11,18 -20,41 -24,66 -5,25 -5,52 -4,78 57,-9 124,-19 180,-26 89,-10 150,-11 201,-6 51,5 91,17 122,30 30,14 51,30 69,48 17,18 31,39 41,60 9,21 13,42 12,57 -1,16 -6,26 -8,31l-3 6 92 21c93,22 278,65 424,87 147,23 255,26 531,30 276,5 720,11 942,15l222 3 -52 -82 -209 -325 -52 -81 -420 -2z"/>
   <path class="fil13" d="M13642 15757c-535,0 -969,433 -969,968 0,106 17,207 48,302 27,2 55,4 84,5 -35,-95 -54,-199 -54,-307 0,-492 399,-890 891,-890 491,0 890,398 890,890 0,126 -26,245 -73,354 23,0 50,1 84,1 43,-110 67,-229 67,-355 0,-535 -433,-968 -968,-968z"/>
   <circle class="fil10" cx="21040" cy="16733" r="891"/>
   <circle class="fil11 str0" cx="21040" cy="16733" r="625"/>
   <polygon class="fil14" points="20899,17246 21194,17247 21052,16859 "/>
   <polygon class="fil14" points="20554,16899 20713,17148 20962,16818 "/>
   <polygon class="fil14" points="21536,16899 21376,17148 21127,16818 "/>
   <polygon class="fil14" points="21489,16435 21591,16712 21178,16711 "/>
   <polygon class="fil14" points="20596,16433 20494,16710 20907,16709 "/>
   <polygon class="fil14" points="21383,16311 21112,16193 21088,16605 "/>
   <polygon class="fil14" points="20689,16311 20960,16193 20984,16605 "/>
   <path class="fil13" d="M21040 15764c-535,0 -969,434 -969,969 0,76 9,149 25,219 3,15 6,30 9,42 6,21 11,37 17,52 5,14 11,27 16,37 5,9 10,16 14,22l1 -1 75 -2c-5,-15 -14,-40 -24,-68 -11,-32 -23,-69 -32,-106 -5,-22 -10,-43 -13,-61 -6,-44 -10,-88 -10,-134 0,-492 399,-890 891,-890 492,0 890,398 890,890 0,126 -26,245 -73,353 23,1 51,2 84,2 44,-110 67,-230 67,-355 0,-535 -433,-969 -968,-969z"/>
   <circle class="fil17 str1" cx="13643" cy="16708" r="80"/>
   <circle class="fil17 str1" cx="21049" cy="16724" r="80"/>
   <path class="fil18" d="M21967 15514c-6,15 16,51 41,85 24,33 52,64 85,94 34,30 74,59 111,81 37,22 71,36 109,46 38,10 79,15 99,17 21,3 21,3 21,3 0,0 0,0 -66,-54 -65,-54 -196,-162 -278,-220 -83,-58 -116,-66 -122,-52z"/>
   <ellipse class="fil3" cx="22559" cy="16687" rx="88" ry="138"/>
   <path class="fil7" d="M16706 14796c-39,-163 -113,-477 -155,-635 -16,-58 -27,-95 -35,-119 -4,0 -8,-1 -12,-2 -4,-1 -8,-3 -12,-5 4,24 12,63 25,127 34,164 106,492 142,656 36,164 36,164 36,164 0,0 0,0 9,1 9,0 27,2 36,2 9,1 9,1 9,1 0,0 0,0 -1,-7 -1,-6 -4,-19 -42,-183z"/>
   <path class="fil17 str2" d="M16637 14981c-791,-11 -1660,-15 -2121,-19 -461,-5 -514,-10 -553,-20 -38,-10 -61,-24 -80,-41 -19,-17 -33,-36 -45,-63 -11,-27 -18,-61 -17,-98 1,-37 12,-77 30,-116 18,-38 44,-74 79,-107 34,-33 77,-61 134,-89 58,-27 129,-53 240,-88 111,-35 260,-80 415,-119 155,-39 315,-72 470,-97 154,-25 302,-41 478,-55 176,-14 379,-27 537,-31 158,-4 272,1 412,14 140,12 306,31 466,57 159,26 312,59 449,96 137,37 260,79 392,132 132,52 274,116 401,186 127,70 239,145 307,196 67,51 91,77 119,110 28,33 60,73 81,108 21,34 30,63 33,77 2,15 -2,15 -361,6 -359,-10 -1074,-28 -1866,-39z"/>
   <path class="fil19" d="M15331 15594c42,0 82,10 121,28 37,19 68,46 90,81 22,35 33,77 33,128 0,50 -11,93 -33,128 -22,36 -53,63 -90,81 -39,19 -79,28 -121,28l-161 0 0 283 -160 0 0 -757 321 0zm-31 331c35,0 62,-8 81,-25 18,-15 27,-39 27,-69 0,-31 -9,-55 -27,-70 -19,-17 -46,-25 -81,-25l-130 0 0 189 130 0z"/>
   <path id="1" class="fil19" d="M16306 15976c0,-40 -8,-78 -24,-115 -18,-37 -43,-67 -77,-90 -34,-23 -77,-36 -127,-37 -51,0 -92,12 -125,35 -35,24 -60,54 -76,91 -17,35 -26,74 -26,116 0,42 9,81 26,117 16,36 41,66 76,90 33,23 74,35 125,35 50,-1 93,-14 127,-37 34,-23 59,-53 77,-90 16,-37 24,-75 24,-115zm-227 -396c109,0 203,39 280,116 77,78 116,171 116,281 0,108 -39,201 -116,279 -77,77 -171,116 -280,116 -109,0 -202,-39 -280,-116 -77,-78 -116,-171 -116,-279 0,-110 39,-203 116,-281 78,-77 171,-116 280,-116z"/>
   <polygon id="2" class="fil19" points="17033,16352 16584,16352 16584,15594 16744,15594 16744,16210 17033,16210 "/>
   <polygon id="3" class="fil19" points="17354,15594 17354,16352 17194,16352 17194,15594 "/>
   <path id="4" class="fil19" d="M17653 16016c3,34 12,64 27,92 19,36 46,64 79,83 33,20 71,29 113,29 45,0 84,-10 118,-31 34,-21 58,-49 74,-84l125 78c-22,59 -62,106 -119,139 -58,33 -123,50 -197,50 -72,0 -137,-16 -196,-48 -60,-31 -107,-76 -141,-135 -35,-59 -52,-129 -52,-211 0,-83 17,-153 52,-212 34,-59 81,-104 141,-135 59,-32 124,-47 196,-47 74,0 139,16 197,49 57,34 97,80 119,140l-125 77c-16,-34 -40,-62 -74,-84 -34,-21 -73,-31 -118,-31 -42,0 -80,10 -113,29 -33,19 -60,47 -79,84 -15,27 -24,57 -27,91 -2,21 -2,47 0,77z"/>
   <polygon id="5" class="fil19" points="18785,16352 18310,16352 18310,15594 18774,15594 18774,15736 18470,15736 18470,15898 18742,15898 18742,16038 18470,16038 18470,16211 18785,16211 "/>
  </g>
  <g id="_2997078826560">
   <path class="fil20" d="M23216 13605l179 0c1,-7 3,-13 4,-20 4,-14 7,-28 11,-39 7,-23 15,-39 28,-54 12,-15 30,-29 45,-43 16,-14 29,-28 39,-43 10,-16 17,-32 15,-45 -3,-14 -14,-24 -24,-29 -10,-5 -18,-5 -22,-5 -4,0 -4,0 -5,-55 0,-55 -2,-164 -6,-225 -3,-61 -8,-74 -15,-83 -7,-9 -17,-14 -27,-15 -11,-1 -23,1 -34,7 -10,5 -20,15 -25,43 -5,27 -6,72 -6,94 -1,23 -1,23 -14,26 -14,3 -41,10 -61,16 -19,7 -30,13 -53,18 -23,4 -58,7 -81,10 -23,3 -33,6 -39,38 -5,33 -5,94 -1,142 3,49 9,85 19,113 10,28 24,49 36,68 12,19 23,36 30,54 0,2 1,4 2,6 2,7 4,14 5,21z"/>
   <path class="fil21" d="M23216 13605l46 0c-4,-13 -8,-28 -13,-40 -4,-12 -10,-22 -16,-32 -6,-10 -14,-20 -22,-33 -9,-13 -18,-29 -27,-50 -8,-21 -16,-48 -21,-78 -5,-30 -7,-64 -8,-92 -1,-28 -1,-50 2,-65 3,-15 9,-23 19,-28 9,-5 23,-8 34,-7 12,1 21,5 30,7 9,2 18,1 27,-3 9,-5 18,-12 27,-17 9,-6 18,-9 29,-9 11,1 24,6 34,5 10,-1 17,-7 21,-14 5,-8 7,-18 8,-36 2,-19 3,-46 5,-69 2,-23 5,-42 10,-55 4,-13 10,-21 17,-26 8,-5 17,-7 28,-6 5,0 10,1 15,2 -7,-6 -15,-9 -23,-10 -11,-1 -23,1 -34,7 -10,5 -20,15 -25,43 -5,27 -6,72 -6,94 -1,23 -1,23 -14,26 -14,3 -41,10 -61,16 -19,7 -30,13 -53,18 -23,4 -58,7 -81,10 -23,3 -33,6 -39,38 -5,33 -5,94 -1,142 3,49 9,85 19,113 10,28 24,49 36,68 12,19 23,36 30,54 0,2 1,4 2,6 2,7 4,14 5,21z"/>
   <path class="fil22" d="M23161 13584l0 130c0,131 0,393 5,538 5,145 14,173 29,194 15,21 37,35 130,42 92,8 256,8 338,8l82 0 0 146 -1 592 0 136 101 0c28,0 28,0 28,13 0,6 1,15 1,30 20,3 43,7 68,12 63,11 141,23 251,33 15,1 32,3 48,4l0 -12 63 0c7,28 19,53 36,65 25,18 63,6 93,-6 30,-13 51,-25 69,-52 1,-2 3,-5 4,-7l59 0 0 17c1,0 2,0 2,0l106 0c7,0 14,3 19,7 34,-2 67,-4 98,-6 3,-8 12,-8 46,-7l34 0c33,-3 62,-6 85,-10 24,-3 42,-7 56,-9 9,-5 17,-9 24,-12 0,-56 2,-56 14,-56 7,-1 16,-1 26,0 1,-16 1,-47 1,-129l0 -534 0 -133 42 24 156 87 0 -481c-30,-16 -72,-35 -109,-51 -43,-19 -80,-32 -118,-45 -39,-13 -80,-26 -121,-36 -42,-10 -85,-18 -124,-25 -40,-8 -75,-15 -104,-21 -29,-6 -50,-10 -76,-17 -4,-2 -8,-3 -13,-4 -11,-3 -22,-7 -33,-11l0 -5 0 -49c-1,0 -2,0 -3,1 -4,3 -9,6 -13,9 -16,10 -30,15 -49,19 -20,5 -45,9 -70,11 -26,2 -52,2 -78,0 -26,-3 -52,-7 -72,-12 -19,-5 -31,-11 -41,-17 -5,-2 -9,-5 -13,-8 0,0 -1,0 -1,0l0 51c-5,2 -11,4 -16,7 -8,5 -16,10 -24,16 -30,9 -66,20 -128,33 -84,17 -214,40 -309,55 -96,15 -156,22 -196,26 -40,5 -58,6 -72,6 -13,1 -21,1 -25,1 -5,0 -6,0 -7,-93 -1,-92 -1,-278 -1,-371l0 -92 -49 -1 -10 0 -188 -1 0 0 -50 0z"/>
   <path class="fil23" d="M25077 14579l41 23 156 87 0 -47 -15 -5c-36,-13 -109,-37 -146,-50 -36,-12 -36,-12 -36,-12l0 4z"/>
   <path class="fil23" d="M23161 13584l0 130c0,131 0,393 5,538 5,145 14,173 29,194 15,21 37,35 130,42 92,8 256,8 338,8l80 0c-2,-15 -7,-19 -15,-22 -8,-4 -18,-8 -43,-10 -24,-3 -62,-5 -123,-8 -61,-3 -144,-9 -200,-13 -57,-5 -86,-10 -106,-16 -19,-6 -29,-14 -36,-24 -7,-9 -11,-22 -17,-156 -5,-134 -12,-390 -18,-522 -5,-106 -10,-132 -15,-141l-9 0z"/>
   <polygon class="fil20" points="24236,13921 24576,13921 24576,14028 24434,14156 24386,14156 24236,14017 "/>
   <path class="fil24" d="M24212 13923c-2,3 7,11 15,17 8,6 14,10 23,15 10,6 22,12 41,17 20,5 46,9 72,12 26,2 52,2 78,0 25,-2 50,-6 70,-11 19,-4 33,-9 49,-19 16,-10 34,-25 43,-32 9,-8 9,-8 9,-8 0,0 0,0 -9,2 -8,2 -24,5 -56,9 -32,4 -80,8 -124,9 -45,0 -87,-3 -117,-6 -30,-2 -48,-3 -63,-5 -16,-1 -29,-3 -31,0z"/>
   <path class="fil20" d="M23836 13191c-4,24 -9,57 -11,73 -3,16 -3,16 -3,16 0,0 0,0 -2,0 -2,0 -7,0 -13,2 -6,2 -14,5 -21,13 -8,7 -15,18 -20,35 -4,16 -5,38 -5,57 1,19 4,35 8,49 4,15 10,28 17,37 8,10 17,16 27,20 10,5 21,7 32,8 12,1 24,1 31,1 6,0 6,0 6,0 0,0 0,0 1,24l0 21c2,15 5,32 8,49 4,26 10,50 18,72 7,23 15,45 24,64 8,19 18,35 27,49 10,14 20,26 33,39 13,14 29,29 44,41 16,13 31,22 49,32 17,9 36,19 58,27 22,9 46,16 68,22 22,5 42,9 62,11 19,2 38,2 63,2 25,1 56,1 89,0 33,0 67,-3 100,-5 33,-3 64,-7 93,-13 29,-7 56,-16 81,-29 26,-13 50,-29 70,-44 19,-14 36,-27 50,-44 15,-17 29,-37 42,-58 13,-21 27,-42 39,-66 12,-23 22,-49 30,-75 9,-25 15,-50 19,-73 5,-23 8,-45 9,-56 2,-11 2,-11 2,-11 0,0 0,0 2,1 2,1 7,2 14,2 8,1 19,0 31,-3 2,-1 5,-1 7,-2 4,-2 8,-5 12,-8 10,-10 17,-25 22,-44 4,-20 6,-43 7,-65 1,-22 1,-42 -4,-58 -4,-16 -13,-28 -20,-34 -6,-7 -10,-9 -13,-10 -2,-1 -2,-1 -2,-16 -1,-15 -1,-45 -2,-59 0,-15 0,-15 -1,-36 -1,-20 -3,-60 -8,-90 -6,-30 -15,-49 -52,-65 -37,-16 -102,-29 -208,-36 -106,-7 -253,-8 -373,-5 -120,2 -215,7 -285,14 -71,8 -118,18 -151,33 -32,15 -49,36 -62,60 -13,24 -23,51 -28,72 -6,21 -8,36 -11,59z"/>
   <path class="fil21" d="M23802 13284c-5,2 -11,5 -16,11 -8,7 -15,18 -20,35 -4,16 -5,38 -5,57 1,19 4,35 8,49 4,15 10,28 17,37 8,10 17,16 27,20 10,5 21,7 32,8 12,1 24,1 31,1 6,0 6,0 6,0 0,0 0,0 1,24l0 21c2,15 5,32 8,49 4,26 10,50 18,72 7,23 15,45 24,64 8,19 18,35 27,49 10,14 20,26 33,39 13,14 29,29 44,41 16,13 31,22 49,32 17,9 36,19 58,27 22,9 46,16 68,22 22,5 42,9 62,11 19,2 38,2 63,2 25,1 56,1 89,0 33,0 67,-3 100,-5 33,-3 64,-7 93,-13 29,-7 56,-16 81,-29 26,-13 50,-29 70,-44 19,-14 36,-27 50,-44 15,-17 29,-37 42,-58 13,-21 27,-42 39,-66 12,-23 22,-49 30,-75 9,-25 15,-50 19,-73 5,-23 8,-45 9,-56 2,-11 2,-11 2,-11 0,0 0,0 2,1 2,1 7,2 14,2 8,1 19,0 31,-3 2,-1 5,-1 7,-2 4,-2 8,-5 12,-8 10,-10 17,-25 22,-44 4,-20 6,-43 7,-65 1,-22 1,-42 -4,-58 -4,-16 -13,-28 -20,-34 -2,-3 -4,-5 -6,-6 3,9 6,20 8,32 3,15 4,31 3,50 -1,18 -5,39 -10,56 -5,17 -13,30 -23,39 -10,9 -23,13 -34,15 -10,2 -18,2 -22,1 -4,0 -4,0 -4,0 0,0 0,0 -1,7 -1,6 -4,19 -8,39 -4,19 -10,45 -18,72 -9,27 -20,54 -32,78 -11,23 -24,43 -38,63 -15,21 -32,41 -50,59 -19,18 -37,34 -55,48 -19,14 -36,27 -57,39 -20,12 -43,23 -68,31 -25,9 -51,14 -80,18 -29,4 -61,5 -96,7 -34,1 -71,2 -103,2 -32,-1 -59,-2 -87,-7 -28,-4 -59,-13 -86,-22 -27,-10 -51,-21 -72,-33 -22,-13 -41,-27 -58,-42 -16,-15 -30,-30 -43,-49 -13,-19 -25,-41 -36,-64 -10,-22 -19,-44 -26,-69 -7,-25 -13,-52 -18,-80 -4,-27 -6,-56 -7,-70 -1,-14 -1,-14 -1,-14 0,0 0,0 -8,3 -8,3 -24,8 -37,10 -13,1 -23,-2 -32,-9 -9,-7 -17,-19 -23,-31 -6,-13 -11,-28 -14,-45 -3,-18 -5,-39 -4,-57 1,-18 3,-33 8,-43 3,-6 6,-10 8,-14z"/>
   <path class="fil25" d="M24328 13794c4,5 9,9 14,14 5,4 10,8 15,12 6,3 12,5 19,7 8,2 17,4 26,4 10,1 19,1 29,1 10,0 21,-1 30,-3 8,-1 13,-4 18,-7 4,-3 8,-6 12,-11 4,-4 7,-10 9,-14 1,-3 1,-3 -15,-4 -15,-1 -47,-2 -78,-5 -31,-2 -62,-5 -75,-4 -13,1 -8,5 -4,10z"/>
   <path class="fil25" d="M24575 13540c-7,1 -17,1 -26,1 -8,-1 -15,-2 -20,-5 -6,-2 -10,-6 -14,-10 -4,-4 -8,-9 -13,-16 -4,-7 -10,-17 -15,-30 -6,-13 -11,-28 -14,-44 -4,-15 -6,-32 -6,-44 -1,-12 -1,-20 -1,-29 1,-10 2,-21 6,-31 4,-11 10,-21 16,-29 6,-9 12,-16 19,-21 8,-5 16,-9 22,-11 6,-3 10,-3 17,-1 6,2 15,7 29,29 14,22 33,61 43,97 9,36 9,70 5,92 -4,23 -13,33 -19,40 -6,6 -9,8 -13,9 -4,2 -8,3 -16,3z"/>
   <path class="fil25" d="M24306 13535c10,-1 18,-4 25,-11 7,-7 13,-18 21,-33 7,-14 15,-32 20,-50 5,-18 5,-35 5,-53 0,-17 0,-34 -2,-48 -2,-13 -5,-24 -10,-33 -4,-9 -11,-18 -17,-24 -7,-6 -14,-11 -21,-13 -7,-3 -15,-4 -28,-4 -13,0 -31,1 -47,5 -15,3 -27,9 -38,30 -10,20 -19,55 -17,88 3,33 17,65 32,89 15,25 31,42 44,51 13,8 24,8 33,6z"/>
   <path class="fil25" d="M23979 13117c0,46 0,129 0,171 0,41 0,41 -9,37 -9,-3 -27,-11 -43,-20 -15,-9 -29,-21 -39,-49 -11,-28 -19,-74 -18,-113 1,-40 11,-73 26,-90 15,-16 37,-15 52,-12 15,3 23,7 27,14 4,7 4,16 4,62z"/>
   <path class="fil25" d="M24899 13250c-1,-43 -1,-121 -1,-159 0,-39 0,-39 16,-39 16,0 47,0 64,11 17,11 19,32 20,57 1,24 0,51 -4,72 -4,22 -11,37 -27,56 -16,18 -41,40 -54,47 -13,6 -14,-3 -14,-45z"/>
   <path class="fil26" d="M24076 12874c-181,2 -198,-2 -229,-22 -1,0 -2,-1 -4,-1 -6,21 -16,57 -21,85 -3,14 -4,25 -5,35l0 0 0 1c0,4 0,11 0,22 -1,16 -1,41 0,72 1,30 2,66 4,91 2,20 3,34 5,45 1,7 1,13 2,19 1,9 2,17 3,22 1,5 2,8 2,10 1,5 1,5 14,8l52 13 10 3 -1 -2 4 1 0 -32 0 -134 0 -34 35 10c35,10 104,29 182,43 78,13 164,20 240,23 76,2 143,1 206,-4 63,-4 123,-10 185,-22 62,-12 127,-29 159,-37l32 -9 0 30 0 117 0 29 16 -10 35 -23 27 -17 16 -11 -1 -23c0,-12 -1,-30 -1,-50l-1 -6c0,-17 0,-38 0,-58 0,-20 0,-40 0,-57 0,-2 0,-4 0,-6 -1,-16 -2,-49 -8,-80 -5,-27 -14,-54 -23,-76 -24,14 -57,15 -201,19 -184,4 -547,13 -734,16z"/>
   <path class="fil27" d="M24969 12786c11,2 24,19 36,43 12,23 23,54 29,86 6,31 7,64 8,80 0,16 0,16 -71,16 -72,0 -215,0 -419,0 -204,0 -469,-1 -602,-1 -132,-1 -132,-1 -133,-11 0,-11 -1,-33 5,-63 5,-31 17,-71 23,-90 6,-20 6,-20 105,-23 100,-3 299,-8 481,-10 181,-2 346,-2 432,-8 86,-7 95,-20 106,-19z"/>
   <ellipse class="fil24" cx="24679" cy="13275" rx="94" ry="31"/>
   <path class="fil28" d="M25012 12838c13,-4 20,-10 31,-21 31,-28 94,-86 124,-118 3,-4 6,-7 9,-11 11,-11 12,-15 12,-18 0,-4 -3,-8 -39,-30 -36,-21 -106,-60 -140,-80 -35,-19 -35,-19 -35,-19 0,0 0,0 -82,-25 -82,-25 -246,-74 -339,-101 -92,-27 -113,-31 -133,-30 -11,1 -22,3 -46,9 -15,3 -31,6 -51,11 -56,14 -136,36 -216,60l-205 55c-92,24 -92,24 -120,49 -21,18 -59,51 -88,77 -25,17 -36,28 -41,37 -7,9 -7,12 -3,17 2,12 12,25 38,46 34,27 95,67 125,88 18,11 25,16 34,18 31,20 48,24 229,22 187,-3 550,-12 734,-16 147,-4 179,-5 202,-20z"/>
   <path class="fil27" d="M25016 12837c10,-4 17,-11 27,-20 31,-28 94,-86 124,-118 3,-4 6,-7 9,-11 11,-11 12,-15 12,-18 0,-4 -3,-8 -39,-30 -36,-21 -106,-60 -140,-80 -35,-19 -35,-19 -35,-19l-32 -10c47,33 117,81 154,109 45,34 46,39 38,51 -8,13 -23,32 -45,59 -22,26 -49,59 -63,75 -5,6 -8,9 -10,12z"/>
   <path class="fil27" d="M23835 12538c-29,9 -35,15 -53,31 -21,18 -59,51 -88,77 -25,17 -36,28 -41,37 -7,9 -7,12 -3,17 2,12 12,25 38,46 34,27 95,67 125,88 17,11 25,16 33,18 -3,-3 -7,-7 -12,-11 -29,-24 -86,-72 -115,-100 -29,-28 -30,-35 -30,-43 1,-8 3,-16 23,-39 19,-23 56,-62 78,-84 23,-22 30,-28 43,-36l2 -1z"/>
   <ellipse class="fil24" cx="24158" cy="13276" rx="94" ry="31"/>
   <ellipse class="fil29" cx="24418" cy="12643" rx="113" ry="137"/>
   <path class="fil30" d="M24815 13266l-268 0c-12,0 -23,5 -31,13l0 0c-3,3 -4,6 -6,9 -1,4 -2,9 -3,14 -1,5 -1,11 -1,14 0,3 0,3 0,3 0,0 0,0 -5,-2 -5,-1 -16,-4 -28,-6 -13,-3 -29,-5 -44,-6 -15,-1 -30,-1 -43,0 -13,2 -23,5 -31,8 -8,3 -14,5 -17,6 -3,2 -3,2 -3,2 0,0 0,0 0,-6 0,-5 0,-16 -2,-24 -1,-2 -1,-4 -2,-5 -7,-12 -21,-20 -36,-20l-268 0c-18,0 -34,11 -40,27l-154 -35 151 139 0 0 0 102c0,23 20,42 43,42l268 0c24,0 43,-19 43,-42l0 -124 166 0 0 124c0,23 19,42 43,42l268 0c23,0 42,-19 42,-42l0 -125 188 -179 -197 86c-8,-9 -20,-15 -33,-15z"/>
   <path class="fil31" d="M24810 13266l-263 0c-12,0 -23,5 -31,13l0 0c-3,3 -4,6 -6,9 -1,4 -2,9 -3,14 -1,5 -1,11 -1,14 0,3 0,3 0,3l-1 -1 0 15c0,11 -1,27 -1,42l0 0 0 124c0,23 19,42 43,42l144 0 1 -1c12,-8 17,-20 19,-26 2,-6 2,-6 -25,-5 -27,0 -81,0 -111,-2 -30,-2 -35,-7 -38,-14 -3,-7 -4,-16 -4,-41 -1,-25 -2,-66 -1,-96 1,-29 3,-46 8,-55 4,-10 10,-12 16,-13 6,-1 13,-1 43,-1 30,0 83,-1 118,0 34,0 50,1 62,0 13,-2 22,-6 28,-14 1,-2 2,-5 3,-7z"/>
   <path class="fil31" d="M24282 13266l-255 0c-18,0 -34,11 -40,27l-154 -35 151 139 0 0 0 102c0,23 20,42 43,42l156 0c13,-8 19,-17 23,-22 5,-7 5,-7 -19,-6 -23,0 -71,1 -102,1 -30,-1 -45,-3 -55,-6 -10,-3 -15,-8 -19,-13 -3,-6 -4,-12 -4,-42 -1,-29 -1,-83 0,-113 2,-31 6,-39 11,-44 4,-6 10,-9 22,-11 12,-2 31,-2 56,-2 26,0 58,0 88,1 31,0 59,1 78,-5 10,-3 17,-8 20,-13z"/>
   <path class="fil32" d="M24319 13273c-7,-4 -15,-7 -24,-7l-67 0c0,23 1,57 -1,84 -2,33 -7,57 -15,81 -8,23 -19,47 -33,66 -13,19 -29,34 -44,44l104 0c8,-7 15,-16 23,-26 11,-16 21,-35 29,-56 8,-21 14,-45 18,-69 4,-25 7,-51 8,-72 2,-18 2,-33 2,-45z"/>
   <path class="fil32" d="M24815 13266l-67 0c0,16 0,36 0,55 -1,28 -2,54 -7,78 -4,25 -13,49 -23,70 -10,21 -21,39 -33,53 -7,8 -13,14 -18,19l86 0c1,-1 3,-3 5,-4 10,-9 20,-20 30,-34 9,-15 19,-33 26,-53 8,-21 13,-44 17,-68 3,-24 5,-49 6,-72 0,-14 0,-27 -1,-38 -6,-4 -13,-6 -21,-6z"/>
   <path class="fil33" d="M24420 13743c-67,0 -128,-11 -173,-29 6,55 81,98 173,98 92,0 167,-43 173,-98 -45,18 -106,29 -173,29z"/>
   <path class="fil34" d="M24356 13621c-13,-1 -31,-1 -41,-4 -10,-4 -12,-10 -12,-20 1,-10 4,-23 11,-32 6,-9 16,-14 29,-18 12,-4 28,-6 36,-7 8,-1 8,-1 8,-1 0,0 0,0 0,13 0,14 0,41 0,55 0,14 0,14 0,14 0,0 0,0 -4,0 -5,0 -14,0 -27,0z"/>
   <line class="fil17" x1="24098" y1="14476" x2="24098" y2= "14864" />
   <line class="fil17" x1="23923" y1="14603" x2="24278" y2= "14603" />
   <rect class="fil35" x="25274" y="13881" width="844" height="1152"/>
   <rect class="fil9" x="25351" y="13957" width="691" height="1000"/>
   <path class="fil20" d="M25944 13776c-26,-7 -54,-15 -80,-20 -27,-6 -52,-8 -71,-8 -18,0 -29,2 -37,8 -8,5 -12,13 -17,19 -6,7 -11,11 -23,16 -11,5 -27,12 -41,20 -13,8 -24,19 -30,30 -7,10 -8,21 -1,30 7,9 23,15 34,24 12,8 19,18 29,28 10,10 23,21 43,30 21,8 48,13 76,15 29,1 58,-1 82,-10 25,-10 44,-27 65,-39 21,-13 44,-21 67,-29 22,-7 44,-13 52,-21 9,-9 3,-20 -12,-32 -15,-13 -39,-27 -63,-37 -24,-11 -47,-16 -73,-24z"/>
   <path class="fil21" d="M25756 13955c19,7 44,11 70,13 29,1 58,-1 82,-10 25,-10 44,-27 65,-39 21,-13 44,-21 67,-29 9,-3 19,-6 28,-9 -12,1 -25,4 -41,8 -22,7 -51,17 -78,28 -27,10 -52,20 -77,26 -25,7 -51,9 -74,10 -15,1 -28,1 -42,2z"/>
   <path class="fil21" d="M25944 13776c-26,-7 -54,-15 -80,-20 -27,-6 -52,-8 -71,-8 -18,0 -29,2 -37,8 -8,5 -12,13 -17,19 -6,7 -11,11 -23,16 -11,5 -27,12 -41,20 -13,8 -24,19 -30,30 -7,10 -8,21 -1,30 7,9 23,15 34,24 5,3 9,7 13,10l0 0c0,-12 5,-26 12,-39 7,-12 16,-21 26,-28 11,-6 22,-10 35,-15 13,-4 28,-10 50,-14 21,-4 50,-6 81,-6 32,0 65,2 96,7 31,5 59,14 96,37l5 3c-2,-4 -7,-9 -12,-13 -15,-13 -39,-27 -63,-37 -24,-11 -47,-16 -73,-24z"/>
   <rect class="fil9" x="24290" y="15500" width="227" height="109"/>
   <path class="fil17 str3" d="M23872 15625c-1,14 -2,27 -3,38 -4,49 -12,62 -29,70 -17,8 -44,11 -66,8 -22,-3 -40,-12 -51,-25 -11,-13 -17,-31 -19,-89 -2,-59 -2,-158 -1,-207 0,-50 0,-50 28,-50 29,0 85,0 114,0 28,0 28,0 28,13 1,11 1,31 1,74 38,0 88,1 116,2 38,2 39,3 41,29 3,27 7,78 6,106 -2,29 -8,34 -43,35 -32,1 -87,-1 -122,-4z"/>
   <rect class="fil17 str3" x="24103" y="15467" width="165" height="173" rx="30" ry="26"/>
   <path class="fil36" d="M23995 17375c149,0 269,71 269,158l22 0 0 75 -588 0 0 -75 27 0c0,-87 121,-158 270,-158z"/>
   <path class="fil36" d="M24751 17375c149,0 269,71 269,158l22 0 0 75 -588 0 0 -75 27 0c0,-87 121,-158 270,-158z"/>
   <rect class="fil23" x="24364" y="14160" width="85.9341" height="1310.51"/>
   <path class="fil23" d="M24208 14344c-10,-18 -30,-55 -43,-90 -13,-35 -19,-68 -22,-94 -2,-26 -2,-45 4,-64 2,-10 6,-19 10,-28 -7,12 -14,26 -19,41 -6,17 -9,36 -10,55 -2,19 -2,38 2,62 5,24 13,54 24,78 10,25 22,45 33,60 11,15 21,26 26,31l4 6 30 -35 117 -139 0 -41 -112 136 -34 41 -10 -19z"/>
   <path class="fil23" d="M24450 14175l0 44c4,5 8,11 14,18l104 129 26 32 5 -4c6,-4 17,-12 28,-27 12,-15 23,-37 33,-61 10,-25 18,-52 23,-80 6,-29 8,-58 7,-85 -2,-27 -7,-50 -21,-74 -11,-19 -27,-38 -41,-53 -2,0 -4,-1 -6,-1l-13 -4c14,8 28,19 39,33 13,16 23,34 28,54 6,19 6,38 4,64 -3,26 -9,59 -22,94 -13,35 -33,72 -43,90l-10 19 -34 -41 -121 -147z"/>
   <path class="fil23" d="M23951 14476c-5,1 -11,4 -16,9 -5,4 -10,11 -13,18 -4,8 -6,16 -7,70 -1,54 -1,152 0,205 1,52 2,59 5,65 2,6 6,12 12,17 5,4 13,7 28,8 15,2 36,2 82,2 47,0 117,0 156,-1 39,0 45,-1 53,-3 7,-2 16,-7 23,-13 6,-7 10,-16 13,-24 2,-8 2,-14 1,-67 -1,-53 -2,-153 -4,-205 -1,-53 -3,-59 -7,-64 -4,-5 -10,-9 -16,-12 -6,-3 -13,-5 -16,-5 -3,-1 -3,-1 -3,-1 0,0 0,0 2,1 2,1 6,3 9,6 4,4 8,8 11,14 3,7 5,15 7,66 1,51 1,145 0,196 -1,51 -3,59 -5,66 -2,7 -5,13 -12,17 -6,4 -15,6 -63,6 -49,1 -137,0 -184,-2 -48,-1 -54,-3 -59,-6 -6,-4 -9,-10 -11,-60 -2,-51 -1,-146 0,-199 2,-54 3,-64 5,-72 2,-8 5,-14 10,-19 4,-6 10,-11 10,-14 0,-2 -5,-1 -11,1z"/>
   <rect class="fil23" x="23928" y="14591" width="350.244" height="23.4441"/>
   <rect class="fil23" x="24088" y="14475" width="19.523" height="382.806"/>
   <line class="fil17" x1="24757" y1="14487" x2="24757" y2= "14874" />
   <line class="fil17" x1="24582" y1="14613" x2="24936" y2= "14613" />
   <path class="fil29" d="M24645 14616c58,-3 171,-2 230,-4 58,-1 61,-3 62,-7 2,-4 2,-9 1,-18 -1,-9 -2,-23 -3,-29 0,-7 0,-7 -59,-6 -58,0 -175,1 -233,2 -58,0 -58,0 -59,6 -1,7 -2,19 -2,32 -1,12 0,25 1,28 2,4 4,-2 62,-4z"/>
   <path class="fil23" d="M24610 14486c-5,2 -11,4 -16,9 -5,5 -10,11 -14,19 -3,7 -5,16 -6,69 -1,54 -1,153 -1,205 1,53 3,59 6,65 2,7 6,13 11,17 6,4 14,7 29,9 14,1 36,2 82,2 47,0 117,-1 156,-1 39,-1 45,-1 53,-4 7,-2 16,-6 22,-13 7,-7 11,-16 13,-24 3,-7 3,-14 2,-67 -1,-53 -2,-152 -4,-205 -1,-53 -4,-59 -8,-64 -3,-5 -9,-9 -15,-12 -6,-2 -13,-4 -16,-5 -3,-1 -3,-1 -3,-1 0,0 0,0 2,1 2,1 6,4 9,7 4,3 7,7 10,14 3,6 6,14 7,65 2,51 2,145 1,196 -1,51 -3,59 -5,66 -3,8 -6,14 -12,17 -6,4 -15,6 -63,7 -49,0 -137,-1 -185,-2 -47,-1 -53,-3 -59,-7 -5,-4 -9,-9 -10,-60 -2,-50 -1,-146 0,-199 1,-53 3,-64 5,-72 2,-8 5,-13 9,-19 5,-5 10,-11 11,-13 0,-3 -5,-2 -11,0z"/>
   <rect class="fil23" x="24587" y="14601" width="350.244" height="23.4441"/>
   <rect class="fil23" x="24747" y="14602" width="19.523" height="265.751"/>
   <path class="fil29" d="M24065 14055c-7,-1 -16,-1 -32,0 -16,1 -37,3 -53,5 -16,3 -25,7 -30,11 -4,4 -4,9 -1,12 3,3 8,5 24,4 15,-1 41,-6 61,-11 21,-6 35,-12 39,-16 5,-3 0,-5 -8,-5z"/>
   <path class="fil29" d="M23904 14076c-9,-2 -20,-1 -31,0 -11,1 -22,2 -32,4 -10,2 -20,6 -27,10 -7,4 -12,9 -12,13 -1,4 1,7 6,10 4,2 11,4 22,4 11,0 28,-2 41,-4 14,-2 26,-5 35,-8 8,-4 13,-7 16,-11 3,-3 3,-7 0,-11 -3,-3 -9,-6 -18,-7z"/>
   <path class="fil29" d="M24765 14046c8,0 17,0 33,1 16,1 37,4 53,7 15,3 25,7 29,12 5,4 4,8 1,11 -3,4 -8,6 -24,4 -15,-2 -41,-7 -61,-13 -20,-6 -34,-13 -39,-17 -4,-3 1,-5 8,-5z"/>
   <path class="fil29" d="M24927 14071c8,-1 20,1 31,2 10,1 21,2 31,5 10,2 20,6 27,10 7,4 11,9 12,13 1,5 -2,8 -7,10 -4,2 -11,4 -22,3 -11,0 -27,-2 -41,-4 -14,-3 -26,-6 -34,-10 -8,-3 -13,-7 -16,-11 -3,-3 -3,-7 0,-11 3,-3 10,-6 19,-7z"/>
   <circle class="fil23" cx="24449" cy="15300" r="36"/>
   <circle class="fil23" cx="24451" cy="15126" r="36"/>
   <circle class="fil23" cx="24453" cy="14953" r="36"/>
   <circle class="fil23" cx="24455" cy="14779" r="36"/>
   <circle class="fil23" cx="24457" cy="14605" r="36"/>
   <circle class="fil23" cx="24459" cy="14431" r="36"/>
   <rect class="fil37" x="25484" y="14023" width="414.045" height="36.4594"/>
   <circle class="fil38" cx="25486" cy="14827" r="74"/>
   <path class="fil17 str4" d="M25794 14838c0,-1 33,-33 7,-1 -59,72 36,-9 59,-21 -84,71 -43,43 37,4 56,-27 -28,5 -52,21 -135,90 79,-5 74,-30 -40,2 -126,100 -21,21 11,-9 53,-72 13,-40 -1,0 -128,108 -78,75 13,-9 74,-40 76,-43 -47,7 -119,106 -7,24 25,-18 -36,20 15,-4 29,-13 -26,-3 -25,8 39,0 55,-34 20,-11 -12,7 11,-1 -5,5 -18,6 54,6 76,-3 2,-1 3,0 5,0"/>
   <path class="fil39" d="M23874 15410c0,-13 -1,-21 -1,-27 0,-13 0,-13 -28,-13l-101 0 -13 0c-28,0 -28,0 -28,50 -1,49 -1,148 1,207 2,58 8,76 19,89 4,5 9,9 15,13 0,58 0,132 0,227 2,346 8,969 10,1281l2 230c43,-54 136,-92 245,-92 110,0 204,39 246,94 1,-33 3,-80 5,-146 6,-226 19,-678 29,-918 10,-240 16,-269 27,-292 10,-24 24,-42 46,-51 23,-9 52,-9 77,-1 25,9 45,26 56,54 11,29 13,69 15,312 2,242 3,686 4,908l1 139c39,-58 136,-99 250,-99 109,0 202,38 245,93l7 -214 39 -1226 3 -100c4,2 9,3 15,3 7,0 17,-3 25,-8 8,-5 14,-11 20,-19 5,-8 9,-16 12,-33 2,-16 4,-41 5,-116 0,-76 0,-202 -1,-270 -1,-68 -2,-76 -5,-84 -2,-8 -6,-15 -12,-20 -5,-4 -13,-7 -21,-9 -8,-2 -17,-4 -24,-4 -7,1 -12,3 -17,7 -1,0 -2,1 -3,2l-1 1c-5,6 -9,15 -11,24 -2,9 -3,18 -3,22 0,5 0,5 -7,7 -7,1 -22,5 -62,11 -40,5 -106,11 -140,15 -20,3 -29,5 -33,8 -27,2 -58,5 -91,6 -35,0 -73,-2 -105,-3 -33,0 -59,1 -106,0 -46,-1 -112,-3 -158,-5 -45,-2 -71,-3 -107,-6 -37,-4 -84,-8 -139,-15 -54,-8 -115,-18 -152,-24 -24,-4 -38,-6 -50,-8zm1157 488l0 0 0 21 0 -21z"/>
   <path class="fil36" d="M24968 17440c11,9 20,18 28,28l7 -214 39 -1226 3 -100c4,2 9,3 15,3 7,0 17,-3 25,-8 4,-2 7,-5 10,-8 0,-33 -1,-64 -3,-91 -9,-187 -38,-228 -54,-234 -16,-7 -19,21 -29,350 -10,329 -27,959 -35,1274 -3,108 -5,179 -6,226zm63 -1542l0 0 0 21 0 -21z"/>
   <path class="fil36" d="M24221 17448c8,7 15,14 20,21 1,-33 3,-80 5,-146 6,-226 19,-678 29,-918 10,-240 16,-269 27,-292 10,-24 24,-42 46,-51 23,-9 52,-9 77,-1 25,9 45,26 56,54 11,29 13,69 15,312 2,242 3,686 4,908l1 139c6,-9 13,-17 22,-26l1 -137c2,-210 4,-630 4,-863 0,-234 -2,-281 -9,-317 -7,-37 -19,-63 -36,-82 -17,-20 -41,-33 -67,-39 -26,-6 -55,-5 -78,4 -24,10 -43,28 -57,56 -13,28 -21,65 -27,133 -5,68 -9,166 -12,318 -4,151 -7,357 -11,527 -3,170 -7,303 -9,378l-1 22z"/>
   <path class="fil36" d="M23717 15708c2,3 4,5 6,8 4,5 9,9 15,13 0,58 0,132 0,227 2,346 8,969 10,1281l2 230c6,-7 13,-14 20,-21l-1 -255c-2,-297 -6,-891 -8,-1198 -3,-307 -5,-328 -18,-324 -6,2 -15,10 -26,39z"/>
   <path class="fil31" d="M23881 15644c-3,8 -4,20 -6,34 -3,15 -9,32 -16,44 -7,13 -16,20 -26,25 -9,5 -20,7 -32,6 -12,0 -25,-2 -38,-5 -12,-2 -23,-5 -34,-10 -10,-6 -20,-13 -28,-53 -9,-39 -17,-111 -18,-170 -1,-59 4,-104 7,-127 3,-24 5,-25 36,-27 31,-1 92,-2 125,-1 32,0 35,3 36,17 0,13 -2,39 -4,52 -1,13 -1,13 19,13 20,1 61,3 86,6 26,3 37,8 43,16 6,8 8,20 10,44 1,23 2,59 1,80 -1,22 -4,30 -8,36 -3,6 -9,10 -32,11 -24,0 -65,-3 -89,-3 -24,1 -29,4 -32,12z"/>
   <path class="fil31" d="M24777 15474c0,-12 3,-14 37,-18 34,-4 100,-10 140,-16 40,-5 54,-9 61,-11 8,-2 8,-2 8,-6 0,-4 0,-13 3,-22 2,-9 6,-18 11,-24 6,-6 13,-9 20,-10 8,0 17,1 25,3 8,3 15,5 21,10 6,5 9,12 12,19 3,8 4,17 5,85 1,67 1,194 0,270 0,75 -2,99 -5,116 -3,16 -6,25 -12,33 -5,7 -11,14 -19,19 -8,4 -18,7 -26,8 -8,0 -14,-3 -19,-6 -5,-3 -9,-7 -10,-48 -2,-42 -2,-120 -1,-159 0,-40 0,-40 -9,-39 -9,0 -26,1 -50,0 -24,-1 -54,-4 -78,-8 -25,-3 -43,-7 -58,-12 -15,-4 -27,-9 -35,-16 -9,-6 -15,-14 -18,-33 -3,-19 -3,-48 -3,-74 -1,-26 -1,-49 0,-61z"/>
   <path class="fil40" d="M25097 15376c2,1 4,3 6,4 6,5 9,12 12,19 3,8 4,17 5,85 1,67 1,194 0,270 0,75 -2,99 -5,116 -3,16 -6,25 -12,33 -3,5 -7,10 -12,13 0,-14 0,-34 0,-61 1,-98 1,-293 4,-397 0,-38 1,-64 2,-82z"/>
   <path class="fil31" d="M24241 15640l0 -173c-1,0 -1,0 -2,0l-106 0c-16,0 -30,13 -30,30l0 113c0,17 14,30 30,30l106 0 2 0z"/>
   <path class="fil31" d="M24565 15465l0 175c1,0 2,0 2,0l106 0c17,0 30,-14 30,-32l0 -121c0,-40 -82,-22 -115,-22 -8,0 -15,0 -23,0z"/>
   <rect class="fil1" x="24241" y="15450" width="324" height="211"/>
   <rect class="fil31" x="24294" y="15497" width="224" height="115"/>
   <path class="fil41" d="M24819 17402c17,4 34,8 51,15 18,8 36,18 52,28 16,10 28,21 37,31 9,10 14,18 18,28 4,9 7,19 8,24 1,5 1,5 -19,5 -20,0 -60,0 -80,0 -19,0 -19,0 -19,0 0,0 0,0 -1,-6 0,-7 0,-20 -3,-35 -3,-15 -7,-33 -15,-46 -7,-13 -17,-21 -26,-29 -9,-8 -18,-14 -27,-18 -9,-5 -20,-7 -25,-8 -5,-1 -5,-1 4,1 9,2 27,6 45,10z"/>
   <path class="fil41" d="M24061 17402c17,4 34,8 51,15 18,8 37,18 52,28 16,10 28,21 37,31 9,10 14,18 18,28 4,9 7,19 8,24 2,5 2,5 -18,5 -20,0 -60,0 -80,0 -20,0 -20,0 -20,0 0,0 0,0 -1,-6 0,-7 0,-20 -3,-35 -2,-15 -7,-33 -15,-46 -7,-13 -17,-21 -26,-29 -9,-8 -17,-14 -27,-18 -9,-5 -19,-7 -25,-8 -5,-1 -5,-1 4,1 9,2 28,6 45,10z"/>
   <path class="fil17 str5" d="M25442 14172l515 0m-515 245l515 0m-515 -31l515 0m-515 -30l515 0m-515 -31l515 0m-515 -30l515 0m-515 -31l515 0m-515 -30l515 0m-515 -31l515 0"/>
  </g>
  <g id="_2996860945328">
   <path class="fil42" d="M37916 16930c-22,43 -54,111 -80,155 -27,43 -48,62 -94,73 -46,12 -117,18 -1024,16 -906,-1 -2648,-9 -3526,-14 -879,-4 -893,-6 -904,-23 -10,-18 -17,-52 -27,-111 -11,-59 -25,-142 -31,-184 -6,-42 -4,-44 -310,-44 -307,0 -923,2 -1256,18 -334,17 -385,48 -410,90 -25,41 -24,93 -26,138 -2,45 -7,83 -20,105 -12,21 -32,27 -116,11 -84,-15 -231,-50 -327,-75 -97,-24 -142,-37 -178,-45 -37,-8 -66,-11 -91,-17 -24,-7 -44,-17 -58,-37 -14,-20 -22,-49 -16,-124 5,-74 23,-194 35,-288 11,-95 15,-163 23,-271 9,-107 22,-253 33,-348 12,-95 21,-139 33,-174 13,-35 29,-61 74,-103 46,-43 121,-101 224,-157 104,-57 236,-112 385,-163 149,-51 315,-97 470,-135 155,-37 298,-66 490,-95 192,-28 432,-56 745,-89 313,-33 700,-71 893,-90 193,-19 193,-19 193,-19 0,0 0,0 42,-35 43,-35 127,-105 264,-202 137,-97 327,-221 503,-323 175,-103 336,-185 472,-244 137,-60 249,-97 388,-133 139,-36 305,-72 495,-98 190,-26 404,-44 623,-55 220,-11 445,-16 653,-10 209,6 400,23 575,42 176,20 335,43 531,83 196,40 428,98 544,127 116,29 116,29 121,34 4,4 14,14 24,24 11,9 22,20 254,106 231,87 682,249 928,335 246,85 287,95 340,100 53,5 117,6 174,14 58,8 108,23 220,40 112,17 286,37 442,48 155,11 292,14 370,19 77,5 94,13 106,28 12,16 18,38 21,92 3,54 1,140 1,250 0,110 2,245 2,312 1,67 1,67 1,67 0,0 0,0 15,9 15,10 45,28 76,56 31,29 63,67 86,114 23,48 38,105 34,285 -3,180 -24,483 -38,638 -14,155 -20,161 -53,169 -32,8 -90,17 -338,19 -248,1 -685,-6 -1157,-5 -473,1 -979,9 -1280,13 -302,4 -398,4 -452,12 -55,9 -68,26 -91,69z"/>
   <polygon class="fil43" points="32967,16642 32959,16911 36005,16855 36084,16594 "/>
   <path class="fil44" d="M30266 16890c-5,5 -9,10 -12,16 -25,41 -24,93 -26,138 -2,45 -7,83 -20,105 -12,21 -32,27 -116,11 -84,-15 -231,-50 -327,-75 -97,-24 -142,-37 -178,-45 -37,-8 -66,-11 -91,-17 -24,-7 -44,-17 -58,-37 -14,-20 -22,-49 -16,-124 2,-35 8,-81 14,-129 67,1 141,6 220,11 170,11 361,26 466,32 106,6 125,3 136,50 4,17 6,39 8,64z"/>
   <path class="fil44" d="M41113 15413l0 71c1,67 1,67 1,67 0,0 0,0 15,9 15,10 45,28 76,56 31,29 63,67 86,114 23,48 38,105 34,285 -3,180 -24,483 -38,638 -14,155 -20,161 -53,169 -32,8 -90,17 -338,19 -226,1 -610,-4 -1034,-5 0,-17 1,-36 1,-57 2,-66 4,-149 -17,-243 -20,-93 -62,-197 -107,-286 -45,-88 -93,-161 -145,-225 -53,-65 -111,-122 -140,-150 -29,-28 -29,-28 69,-41 98,-12 295,-37 462,-69 166,-32 304,-70 398,-107 94,-37 146,-72 181,-109 35,-36 53,-73 62,-106 8,-34 7,-64 22,-78 15,-14 47,-11 138,-2 85,10 222,25 327,50z"/>
   <path class="fil4" d="M41317 16231c-2,37 -4,76 -7,113 -25,4 -51,5 -75,6 -45,2 -83,3 -114,-3 -31,-6 -55,-19 -70,-38 -16,-18 -24,-42 -28,-54 -4,-12 -4,-12 61,-14 56,-2 158,-6 233,-10z"/>
   <path class="fil45" d="M37916 16930c-22,43 -54,111 -80,155 -27,43 -48,62 -94,73 -46,12 -117,18 -1024,16 -906,-1 -2648,-9 -3526,-14 -879,-4 -893,-6 -904,-23 -10,-18 -17,-52 -27,-111l-1 -2 0 -1 0 -1 0 -1 0 -1 -1 -1 0 -1 0 -1 0 -2 0 0 -1 -1 0 -2 0 0 0 -2 0 -1 -1 -1 0 -2 0 0 0 -2 0 -1 0 0 -1 -2 0 -1 0 -1 0 -2 -1 0 0 -2 0 -1 0 -1 -1 -2 0 0 0 -2 0 -1 0 -1 -1 -1 0 -1 0 -1 0 -2 0 -1 -1 -1 0 -2 0 0 0 -2 0 -1 -1 -1 0 -2 0 0 0 -2 0 -1 -1 -1 0 -2 0 0 0 -2 -1 -1 0 -1 0 -2 0 -1 0 -1 -1 -2 0 0 0 -2 0 -1 0 -1 -1 -2 0 0 0 -2 0 -1 0 -1 -1 -2 0 0 0 -2 0 -2 0 0 -1 -2 0 -1 0 -1 0 -2 0 0 -1 -2 0 -1 0 -1 0 -2 -1 0 0 -1 0 -2 0 0 0 -2 -1 -1 0 -1 0 -2 0 -1 0 -1 -1 -2 0 0 0 -2 0 -1 0 -1 -1 -2 0 0 0 -2 0 -1 0 -1 -1 -1c89,-7 315,-13 890,-28 947,-26 2840,-76 3793,-86 954,-9 967,21 980,68 5,21 10,44 16,69l-1 1 -1 2z"/>
   <path class="fil46" d="M37821 17106c-20,29 -41,43 -79,52 -46,12 -117,18 -1024,16 -906,-1 -2648,-9 -3526,-14 -879,-4 -893,-6 -904,-23 -9,-17 -16,-47 -25,-97 79,-5 248,-6 619,-10 683,-7 2049,-20 2954,-32 904,-12 1347,-22 1603,-8 256,15 325,54 365,97 7,6 12,13 17,19z"/>
   <path class="fil42 str3" d="M30277 16880c-15,11 -25,26 -37,50 -7,13 -14,28 -22,43 -13,-48 -22,-97 -28,-147 -4,-39 -6,-78 -6,-118 0,-13 0,-27 1,-41 2,-43 5,-74 9,-103 7,-48 19,-90 32,-125 13,-36 28,-66 34,-51 5,15 1,74 4,156 3,81 12,185 13,278 0,20 0,39 0,58z"/>
   <path class="fil47" d="M29462 17009c-9,-6 -17,-14 -24,-23 -14,-20 -22,-49 -16,-124 5,-74 23,-194 35,-288l0 -2c20,-17 37,-29 56,-40 41,-26 90,-53 127,-66 37,-14 62,-16 86,-12 23,3 46,11 64,30 17,19 31,50 36,84 6,35 5,75 -2,111 -6,35 -18,67 -41,106 -23,39 -57,85 -90,118 -33,34 -65,55 -95,72 -29,15 -56,27 -136,34z"/>
   <path class="fil48" d="M29670 15635c44,-35 103,-75 174,-114 104,-57 236,-112 385,-163 149,-51 315,-97 470,-135 155,-37 298,-66 490,-95 192,-28 432,-56 745,-89 313,-33 700,-71 893,-90 193,-19 193,-19 193,-19 0,0 0,0 42,-35 43,-35 127,-105 264,-202 137,-97 327,-221 503,-323 175,-103 336,-185 472,-244 137,-60 249,-97 388,-133 139,-36 305,-72 495,-98 190,-26 404,-44 623,-55 220,-11 445,-16 653,-10 209,6 400,23 575,42 176,20 335,43 531,83 196,40 428,98 544,127 116,29 116,29 121,34 4,4 14,14 24,24 11,9 22,20 254,106 231,87 682,249 928,335 246,85 287,95 340,100 53,5 117,6 174,14 58,8 108,23 220,40 112,17 286,37 442,48 155,11 292,14 370,19 77,5 94,13 106,28 12,16 18,38 21,92 3,54 1,140 1,250 0,39 0,81 1,122 -119,-28 -245,-58 -360,-80 -177,-35 -330,-51 -936,-37 -607,13 -1667,55 -3547,142 -1881,87 -4581,219 -5932,285 -275,13 -494,24 -667,31z"/>
   <path class="fil49" d="M33045 14910l17 -15c43,-35 127,-105 264,-202 137,-97 327,-221 503,-323 175,-103 336,-185 472,-244 85,-37 160,-65 238,-90 13,8 20,18 21,32 0,16 -8,35 -59,72 -51,36 -145,90 -276,161 -132,71 -300,159 -457,249 -156,89 -301,180 -398,241 -97,60 -147,90 -188,105 -41,16 -72,18 -110,16 -9,-1 -18,-1 -27,-2z"/>
   <path class="fil50" d="M29721 15934c-15,24 -33,46 -51,69 -19,23 -38,46 -54,61 -16,16 -29,24 -40,26 -12,3 -21,0 -27,-9 -6,-10 -10,-27 -7,-65 2,-38 10,-97 16,-136 7,-38 12,-57 20,-71 9,-15 20,-26 36,-34 16,-8 37,-12 57,-13 21,-1 40,1 54,5 13,4 22,9 27,25 5,16 7,42 2,68 -5,25 -18,50 -33,74z"/>
   <path class="fil51" d="M39038 15236c-701,41 -1825,107 -3178,165 -1352,58 -2935,108 -3726,133 -791,25 -791,25 -791,25 0,0 0,0 374,-21 375,-21 1124,-63 2030,-117 906,-54 1968,-120 2876,-168 907,-47 1658,-76 2245,-88 587,-12 1009,-7 1220,-4 211,2 211,2 211,2 0,0 0,0 -140,8 -140,8 -419,24 -1121,65z"/>
   <path class="fil52" d="M30012 15976c113,-77 287,-203 374,-267 87,-63 87,-63 87,-63 0,0 0,0 -35,-2 -34,-2 -103,-6 -178,-3 -76,2 -159,12 -238,29 -78,18 -152,45 -207,69 -54,24 -90,47 -115,71 -25,25 -40,51 -49,87 -9,37 -13,83 -11,118 2,35 10,58 37,72 27,14 73,18 122,6 49,-12 100,-39 213,-117z"/>
   <path class="fil47" d="M37672 14904c-367,14 -796,30 -1260,50 -465,20 -966,43 -1519,70 -552,27 -1156,58 -1453,66 -297,9 -286,-4 -235,-41 50,-36 141,-95 187,-125 45,-30 45,-30 48,-39 3,-9 8,-27 21,-49 13,-21 34,-44 61,-64 26,-20 58,-36 86,-46 27,-11 51,-16 75,-21 25,-4 50,-8 62,-10 13,-2 13,-2 13,-2 0,0 0,0 69,-45 69,-45 208,-135 342,-214 133,-80 263,-150 376,-205 113,-56 211,-97 309,-130 99,-34 197,-60 317,-78 119,-18 259,-27 404,-33 145,-6 295,-9 457,-7 161,2 334,9 469,16 135,6 233,13 367,29 135,17 306,43 463,71 156,27 297,56 455,97 158,40 334,91 485,140 152,49 280,95 375,133 95,38 157,69 200,97 43,27 66,52 78,77 12,24 12,48 4,74 -8,27 -24,56 -44,79 -20,23 -46,40 -86,50 -40,11 -95,15 -275,23 -180,9 -485,22 -851,37z"/>
   <path class="fil53 str3" d="M36853 14384c-33,123 -81,297 -105,384 -23,87 -23,87 -23,87 0,0 0,0 290,-9 291,-8 873,-25 1195,-41 321,-16 383,-31 421,-48 37,-17 51,-37 48,-62 -3,-26 -21,-58 -80,-95 -59,-38 -157,-81 -299,-134 -141,-53 -324,-115 -561,-175 -236,-60 -526,-118 -671,-147 -145,-29 -145,-29 -145,-29 0,0 0,0 -10,36 -9,37 -27,109 -60,233z"/>
   <path class="fil53 str3" d="M36706 14311c-35,127 -93,336 -122,440 -29,104 -29,104 -29,104 0,0 0,0 0,0 0,0 0,0 -179,10 -179,10 -536,29 -983,54 -447,24 -984,53 -1252,68 -268,14 -268,14 -268,14 0,0 0,0 4,-31 5,-32 14,-95 15,-140 2,-45 -5,-71 -19,-88 -14,-16 -35,-23 -45,-26 -11,-3 -11,-3 -11,-3 0,0 0,0 54,-34 53,-34 160,-101 272,-166 112,-64 229,-126 344,-182 115,-56 227,-106 341,-145 114,-38 230,-64 361,-85 130,-20 275,-35 443,-43 168,-7 360,-9 552,-2 193,6 386,21 483,28 97,7 97,7 97,7 0,0 0,0 -6,24 -6,23 -17,69 -52,196z"/>
   <path class="fil49" d="M39553 14575c230,83 241,91 245,97 2,4 2,7 1,11 -8,-1 -15,-1 -22,-2 -53,-5 -94,-15 -340,-100 -246,-86 -697,-248 -928,-335 -232,-86 -243,-97 -254,-106 -2,-3 -5,-5 -7,-7 11,0 25,2 51,8 31,6 78,19 326,105 248,86 698,246 928,329z"/>
   <path class="fil4" d="M41111 15130l0 42c0,110 2,245 2,312 1,67 1,67 1,67l1 1c-21,9 -47,11 -75,12 -57,2 -124,0 -192,-14 -68,-13 -136,-40 -210,-90 -73,-50 -151,-124 -193,-172 -43,-48 -51,-70 -45,-93 7,-22 28,-45 70,-68 41,-24 103,-49 167,-65 64,-16 130,-23 189,-23 60,0 112,7 154,18 41,12 72,27 100,46 11,7 21,15 31,27z"/>
   <path class="fil47" d="M38895 15674c571,0 1034,463 1034,1034 0,43 -3,86 -8,128 -42,0 -85,0 -127,0 5,-42 9,-85 9,-128 0,-501 -407,-908 -908,-908 -467,0 -852,352 -902,806 17,57 31,144 33,192 3,56 -11,59 -24,62l-2 1 0 1c-7,2 -13,3 -19,5 -5,1 -9,3 -13,5 -10,5 -18,11 -26,20 -7,8 -15,20 -25,39 -10,19 -24,47 -40,78 -17,31 -37,66 -47,83 -10,18 -10,18 -10,18 0,0 0,0 3,-38 3,-38 9,-113 16,-186 7,-73 13,-144 18,-191 2,-16 3,-30 5,-41 28,-546 479,-980 1033,-980z"/>
   <g>
    <path class="fil54 str3" d="M38895 15800c-502,0 -908,407 -908,908 0,501 406,908 908,908 501,0 908,-407 908,-908 0,-501 -407,-908 -908,-908zm603 1020c-61,7 -176,10 -357,15 -180,5 -427,13 -588,17 -161,4 -236,4 -273,4 -38,0 -38,0 -38,0 0,0 0,0 5,11 4,12 13,34 32,74 18,39 46,96 78,143 33,46 70,83 114,118 44,34 95,66 140,89 45,23 83,37 133,46 49,10 110,14 159,15 48,1 85,0 135,-11 51,-10 114,-30 173,-59 58,-29 112,-67 162,-125 49,-57 94,-133 127,-198 33,-65 54,-117 61,-138 6,-20 -2,-8 -63,-1z"/>
    <circle class="fil55" cx="38886" cy="16699" r="475"/>
    <circle class="fil18 str3" cx="38895" cy="16708" r="107"/>
    <path class="fil56" d="M38895 16010c-386,0 -699,312 -699,698 0,386 313,698 699,698 385,0 698,-312 698,-698 0,-386 -313,-698 -698,-698zm0 492c-14,0 -27,2 -39,4l-16 -427c18,-1 36,-2 55,-2 14,0 27,1 41,2l-3 427c-13,-2 -25,-4 -38,-4zm-69 12c-46,16 -84,48 -108,89l-366 -216c84,-142 222,-249 387,-290l87 417zm-122 117c-8,21 -13,43 -15,66l-416 -94c7,-47 20,-92 38,-134l393 162zm-13 104c5,43 24,82 52,112l-312 289c-104,-112 -167,-263 -167,-428 0,-9 0,-18 0,-27l427 54zm75 134c17,13 36,24 57,32l-228 362c-35,-18 -68,-40 -98,-65l269 -329zm85 40c14,3 29,5 44,5 23,0 45,-4 66,-11l190 382c-78,35 -165,54 -256,54 -83,0 -162,-16 -235,-45l191 -385zm136 -17c19,-9 36,-22 51,-36l281 319c-31,29 -66,54 -104,77l-228 -360zm74 -63c24,-32 38,-72 39,-115l424 -45c1,13 2,26 2,39 0,162 -62,310 -162,422l-303 -301zm38 -148c-4,-24 -11,-48 -22,-69l405 -136c13,34 24,69 31,106l-414 99zm-40 -96c-23,-32 -56,-56 -93,-70l64 -423c174,38 322,148 409,298l-380 195z"/>
    <circle class="fil57" cx="38892" cy="16705" r="107"/>
   </g>
   <path class="fil47" d="M31218 15674c572,0 1035,463 1035,1034 0,34 -2,67 -5,100l-2 27c-1,25 -2,50 -3,63 -1,12 -1,12 -1,12l-2 -1 -1 6c0,0 0,0 -30,-3 -30,-3 -91,-8 -173,-15 -81,-7 -184,-17 -288,-23 -105,-6 -210,-8 -354,-3 -145,5 -328,19 -469,40 -141,22 -240,52 -323,79 -82,26 -148,49 -209,74 -60,25 -116,52 -148,71 -20,11 -31,19 -38,22 -6,5 -10,8 -14,9 -5,3 -8,4 -10,1 -2,1 -4,1 -6,1 0,-9 0,-21 0,-36 1,-81 2,-245 4,-354 1,-45 2,-81 4,-111 21,-552 476,-993 1033,-993zm898 897c-66,-436 -443,-770 -898,-770 -487,0 -885,384 -907,867 46,-61 125,-104 320,-129 211,-28 558,-36 836,-29 279,8 490,30 608,53 15,2 29,5 41,8z"/>
   <g>
    <path class="fil54" d="M31218 15792c-501,0 -907,406 -907,908 0,501 406,907 907,907 502,0 908,-406 908,-907 0,-502 -406,-908 -908,-908zm604 1019c-62,8 -176,10 -357,16 -181,5 -427,13 -588,17 -161,4 -236,4 -274,4 -37,0 -37,0 -37,0 0,0 0,0 4,11 5,11 14,33 33,73 18,40 46,96 78,143 32,47 69,84 114,118 44,34 95,66 140,89 45,23 83,38 132,47 50,9 111,13 159,14 49,2 86,0 136,-10 50,-11 114,-30 172,-59 59,-29 113,-68 162,-125 50,-57 95,-134 128,-199 33,-64 54,-117 60,-137 7,-21 -1,-9 -62,-2z"/>
    <circle class="fil55" cx="31209" cy="16690" r="475"/>
    <circle class="fil18" cx="31218" cy="16700" r="107"/>
    <path class="fil56" d="M31218 16001c-385,0 -698,313 -698,699 0,385 313,698 698,698 386,0 699,-313 699,-698 0,-386 -313,-699 -699,-699zm0 493c-13,0 -26,1 -39,4l-15 -427c18,-2 36,-2 54,-2 14,0 28,0 42,1l-4 427c-12,-2 -25,-3 -38,-3zm-68 12c-46,16 -84,48 -108,88l-367 -216c85,-142 223,-248 387,-290l88 418zm-123 117c-8,20 -13,42 -14,65l-417 -94c8,-46 21,-91 38,-133l393 162zm-13 103c6,44 25,82 53,113l-312 289c-104,-113 -168,-263 -168,-428 0,-10 1,-19 1,-28l426 54zm76 134c17,14 36,25 56,32l-227 363c-35,-19 -68,-41 -98,-66l269 -329zm84 40c15,4 29,5 44,5 24,0 46,-4 67,-11l190 382c-78,35 -165,54 -257,54 -83,0 -162,-16 -234,-45l190 -385zm136 -16c19,-10 37,-22 52,-37l281 319c-32,29 -67,55 -104,77l-229 -359zm75 -64c23,-32 38,-72 39,-114l424 -45c1,13 1,25 1,39 0,162 -61,310 -161,421l-303 -301zm37 -147c-3,-25 -10,-48 -21,-69l404 -136c14,33 24,69 32,105l-415 100zm-39 -97c-23,-31 -56,-56 -93,-69l64 -424c174,38 321,148 409,298l-380 195z"/>
    <circle class="fil57" cx="31215" cy="16696" r="107"/>
   </g>
   <path class="fil46" d="M35875 15238c8,20 13,42 15,69 1,27 -2,59 -16,83 -15,25 -41,42 -85,52 -44,10 -106,12 -159,0 -53,-12 -96,-38 -123,-63 -26,-25 -35,-49 -31,-69 3,-21 21,-38 69,-59 49,-21 130,-46 185,-58 55,-12 86,-10 106,-1 21,9 31,26 39,46z"/>
   <path class="fil58" d="M35925 15350c-111,13 -328,19 -444,17 -115,-1 -128,-9 -133,-20 -6,-10 -3,-23 6,-35 9,-11 25,-20 127,-32 103,-13 291,-29 397,-34 105,-5 128,0 141,10 13,10 17,24 18,42 0,18 -2,39 -112,52z"/>
  </g>
  <rect class="fil59" x="3889" y="13535" width="156" height="4074"/>
  <rect class="fil59" x="8139" y="13552" width="156" height="4057"/>
  <polygon class="fil60" points="48792,19559 2,19559 2,17704 48792,17704 "/>
  <path class="fil58" style="mask:url(#id0)" d="M30385 15712c-109,75 -279,207 -401,285 -122,78 -196,102 -415,208 -220,105 -586,293 -1084,480 -498,188 -1128,375 -1628,488 -500,113 -870,151 -1055,170 -185,20 -185,20 -185,20 0,0 0,0 0,0 0,0 0,0 0,-434 0,-435 0,-1303 0,-1737 0,-434 0,-434 0,-434 0,0 0,0 829,141 828,141 2486,422 3291,571 805,150 757,167 648,242z"/>
  <g id="_2996951334528">
   <rect class="fil58" x="2887" y="10572" width="6387" height="3239" rx="357" ry="357"/>
   <rect class="fil61" x="2984" y="10669" width="6193" height="3045" rx="271" ry="270"/>
   <polygon class="fil62" points="4446,11255 4361,10893 4436,10893 4490,11142 4556,10893 4643,10893 4706,11146 4761,10893 4835,10893 4748,11255 4669,11255 4598,10985 4526,11255 "/>
   <polygon id="1" class="fil62" points="4873,11255 4873,10893 5141,10893 5141,10955 4946,10955 4946,11035 5127,11035 5127,11096 4946,11096 4946,11194 5148,11194 5148,11255 "/>
   <polygon id="2" class="fil62" points="5212,11255 5212,10896 5285,10896 5285,11194 5467,11194 5467,11255 "/>
   <path id="3" class="fil62" d="M5750 11122l71 22c-11,39 -29,69 -54,88 -25,20 -57,29 -96,29 -48,0 -88,-16 -119,-49 -31,-33 -46,-78 -46,-135 0,-60 15,-107 46,-140 31,-34 72,-50 123,-50 44,0 80,13 108,39 16,16 29,38 37,67l-72 17c-5,-19 -13,-33 -27,-44 -14,-11 -30,-17 -50,-17 -26,0 -48,10 -65,29 -17,20 -25,51 -25,94 0,45 8,78 25,97 16,20 38,30 64,30 19,0 36,-7 50,-19 14,-12 24,-32 30,-58z"/>
   <path id="4" class="fil62" d="M5869 11076c0,-36 5,-67 16,-93 8,-18 20,-35 34,-49 14,-15 30,-26 47,-33 22,-9 48,-14 78,-14 53,0 96,16 128,49 32,34 48,80 48,139 0,58 -16,104 -48,137 -32,33 -74,50 -127,50 -54,0 -97,-17 -129,-50 -31,-32 -47,-78 -47,-136zm75 -2c0,41 9,72 28,93 19,22 43,32 73,32 29,0 53,-10 71,-31 19,-21 29,-53 29,-95 0,-41 -10,-72 -28,-93 -18,-20 -42,-31 -72,-31 -31,0 -55,11 -73,31 -19,21 -28,52 -28,94z"/>
   <polygon id="5" class="fil62" points="6276,11255 6276,10893 6386,10893 6450,11140 6515,10893 6625,10893 6625,11255 6557,11255 6557,10970 6485,11255 6415,11255 6344,10970 6344,11255 "/>
   <polygon id="6" class="fil62" points="6698,11255 6698,10893 6966,10893 6966,10955 6771,10955 6771,11035 6952,11035 6952,11096 6771,11096 6771,11194 6973,11194 6973,11255 "/>
   <polygon id="7" class="fil62" points="7257,11255 7257,10955 7150,10955 7150,10893 7437,10893 7437,10955 7330,10955 7330,11255 "/>
   <path id="8" class="fil62" d="M7460 11076c0,-36 5,-67 16,-93 8,-18 20,-35 34,-49 14,-15 30,-26 47,-33 22,-9 48,-14 78,-14 53,0 96,16 128,49 32,34 48,80 48,139 0,58 -16,104 -48,137 -31,33 -74,50 -127,50 -54,0 -97,-17 -129,-50 -31,-32 -47,-78 -47,-136zm75 -2c0,41 10,72 29,93 18,22 43,32 72,32 29,0 53,-10 72,-31 18,-21 28,-53 28,-95 0,-41 -9,-72 -28,-93 -18,-20 -42,-31 -72,-31 -30,0 -55,11 -73,31 -19,21 -28,52 -28,94z"/>
   <path class="fil62" d="M3920 12204c0,66 -14,125 -43,177 -28,53 -68,93 -119,122 -51,29 -108,43 -171,43 -62,0 -118,-14 -169,-42 -50,-28 -90,-67 -118,-118 -28,-50 -42,-107 -42,-171 0,-67 14,-127 43,-181 28,-53 68,-95 119,-124 52,-29 110,-44 175,-44 63,0 120,14 169,42 50,28 88,68 116,120 27,52 40,111 40,176zm-210 6c0,-54 -11,-97 -31,-128 -21,-31 -50,-47 -86,-47 -39,0 -70,15 -92,45 -22,30 -33,72 -33,127 0,54 11,95 33,125 22,30 52,45 89,45 23,0 44,-7 62,-20 18,-13 33,-33 43,-58 10,-25 15,-54 15,-89z"/>
   <path id="1" class="fil62" d="M4377 12535l-146 -278c-10,-22 -16,-37 -18,-45l-2 0 0 323 -198 0 0 -657 198 0 0 312 2 0c6,-16 13,-31 20,-46l131 -266 235 0 -187 313 205 344 -240 0z"/>
   <polygon id="2" class="fil62" points="4661,12535 4661,11878 4859,11878 4859,12380 5086,12380 5086,12535 "/>
   <path id="3" class="fil62" d="M5581 12535l-29 -121 -196 0 -31 121 -214 0 226 -657 246 0 213 657 -215 0zm-125 -515l-4 0c-1,8 -3,20 -7,37 -3,16 -22,89 -55,216l126 0 -46 -179c-7,-26 -11,-51 -14,-74z"/>
   <polygon id="4" class="fil62" points="6299,12535 6299,12290 6072,12290 6072,12535 5873,12535 5873,11878 6072,11878 6072,12121 6299,12121 6299,11878 6497,11878 6497,12535 "/>
   <path id="5" class="fil62" d="M7252 12204c0,66 -14,125 -43,177 -28,53 -68,93 -119,122 -51,29 -108,43 -171,43 -62,0 -118,-14 -169,-42 -50,-28 -90,-67 -118,-118 -28,-50 -42,-107 -42,-171 0,-67 14,-127 43,-181 28,-53 68,-95 119,-124 52,-29 110,-44 175,-44 63,0 120,14 169,42 50,28 88,68 116,120 27,52 40,111 40,176zm-210 6c0,-54 -11,-97 -31,-128 -21,-31 -50,-47 -86,-47 -39,0 -70,15 -92,45 -22,30 -33,72 -33,127 0,54 11,95 33,125 22,30 52,45 89,45 23,0 44,-7 62,-20 18,-13 33,-33 43,-58 10,-25 15,-54 15,-89z"/>
   <path id="6" class="fil62" d="M7947 12535l0 -360c0,-34 1,-72 3,-112l2 -30 -6 0c-10,51 -17,87 -22,107l-97 395 -186 0 -101 -391c-3,-9 -10,-47 -22,-111l-6 0c5,102 7,166 7,192l0 310 -174 0 0 -657 297 0 90 356c2,8 5,23 9,45 3,23 5,40 6,52l3 0c3,-28 9,-60 16,-98l84 -355 292 0 0 657 -195 0z"/>
   <path id="7" class="fil62" d="M8684 12535l-29 -121 -196 0 -31 121 -214 0 226 -657 246 0 213 657 -215 0zm-125 -515l-5 0c0,8 -2,20 -6,37 -4,16 -22,89 -55,216l125 0 -46 -179c-6,-26 -10,-51 -13,-74z"/>
   <path class="fil63" d="M3340 13453l-16 0c-10,0 -20,0 -32,1 -8,1 -13,1 -16,1 -10,0 -18,-2 -23,-7 -5,-5 -6,-11 -4,-18 2,-5 4,-9 8,-12 3,-3 9,-6 16,-8 6,-1 11,-3 14,-7 3,-3 6,-10 10,-19 5,-12 12,-34 22,-66 11,-33 20,-65 30,-97 3,-13 5,-21 4,-26 -1,-4 -5,-7 -11,-10 -9,-4 -13,-10 -10,-20 2,-7 7,-13 16,-17 8,-4 19,-6 31,-6 5,0 9,0 15,0 13,0 22,1 27,1 22,0 46,-1 74,-2 6,-1 13,-1 21,-1 35,0 61,4 78,12 27,12 44,31 51,59 6,24 5,53 -5,87 -5,17 -12,34 -22,51 -10,17 -21,32 -33,44 -24,25 -53,43 -87,53 -20,6 -40,9 -60,9l-27 -1 -23 0c-18,-1 -34,-1 -48,-1zm117 -244l-50 174c-3,9 -2,16 1,20 2,4 9,6 18,6 44,0 75,-33 94,-100 11,-37 14,-65 9,-85 -4,-23 -20,-34 -47,-34 -7,0 -13,1 -17,4 -3,3 -6,8 -8,15z"/>
   <path id="1" class="fil63" d="M3800 13244l-37 131c-3,10 -5,18 -4,23 0,4 3,9 8,13 3,3 6,6 6,8 1,3 1,6 0,9 -5,20 -33,29 -82,29 -26,0 -46,-2 -61,-6 -5,-1 -8,-4 -10,-8 -2,-4 -3,-8 -1,-13 1,-4 3,-7 5,-9 2,-2 7,-6 16,-11 5,-3 10,-9 14,-17 4,-8 9,-19 13,-35 2,-5 4,-14 7,-28 3,-13 5,-21 5,-23 1,-6 -2,-11 -8,-15 -8,-4 -11,-10 -9,-18 3,-9 11,-16 24,-21 19,-6 38,-12 59,-16 20,-5 36,-7 46,-7 9,0 12,5 9,14zm-17 -99c14,0 23,3 29,8 7,5 9,11 6,19 -3,12 -11,21 -25,28 -21,11 -45,16 -71,16 -11,0 -19,-2 -24,-6 -7,-6 -10,-13 -7,-23 4,-13 16,-23 37,-30 20,-8 39,-12 55,-12z"/>
   <path id="2" class="fil63" d="M3934 13229c7,0 19,1 35,4 3,1 6,1 8,1 3,0 8,-1 16,-4 4,-1 7,-2 10,-2 7,0 12,5 17,14 3,7 6,14 7,23 1,8 1,15 -1,22 -1,6 -5,11 -10,15 -6,4 -11,6 -18,6 -5,0 -9,-2 -13,-4 -3,-3 -8,-8 -15,-17 -7,-9 -13,-14 -20,-14 -4,0 -8,1 -12,4 -4,4 -7,7 -8,11 -2,8 3,15 16,21 22,12 38,24 47,38 8,11 10,25 5,41 -6,21 -20,39 -42,53 -19,12 -40,18 -63,18 -6,0 -16,-1 -31,-3 -14,-2 -22,-2 -24,-2 -2,0 -4,0 -7,0 -4,1 -8,1 -10,1 -7,0 -12,-2 -15,-5 -4,-6 -8,-15 -9,-27 -2,-12 -2,-22 0,-30 4,-14 12,-21 23,-21 4,0 7,1 10,4 3,3 8,10 16,22 4,7 8,11 11,14 4,2 8,4 12,4 5,0 10,-2 13,-4 4,-3 7,-6 8,-11 2,-6 -2,-13 -12,-18 -21,-12 -35,-24 -42,-37 -7,-13 -9,-27 -4,-44 5,-17 15,-33 30,-46 21,-18 45,-27 72,-27z"/>
   <path id="3" class="fil63" d="M4192 13229c26,0 48,6 65,20 15,12 21,28 15,47 -4,13 -11,24 -22,32 -11,8 -22,11 -34,11 -12,0 -21,-4 -24,-13 -1,-3 -2,-10 -3,-22 0,-13 -6,-19 -17,-19 -9,0 -17,4 -24,11 -8,7 -13,16 -16,26 -6,18 -4,34 5,48 8,12 19,17 35,17 8,0 14,0 20,-2 5,-1 12,-3 22,-7 2,-1 5,-2 7,-2 5,0 9,2 12,7 2,5 3,11 1,17 -2,7 -7,14 -15,21 -7,8 -16,14 -27,20 -23,12 -48,18 -74,18 -31,0 -55,-9 -72,-27 -21,-23 -27,-52 -17,-87 10,-34 31,-62 63,-85 31,-21 64,-31 100,-31z"/>
   <path id="4" class="fil63" d="M4446 13228c27,0 49,7 66,22 12,10 20,23 24,40 5,17 4,35 -1,53 -9,33 -32,60 -69,83 -34,22 -70,33 -107,33 -36,0 -62,-10 -78,-31 -16,-20 -20,-45 -11,-77 10,-36 32,-65 65,-87 34,-24 71,-36 111,-36zm-33 52c-7,0 -13,3 -18,8 -6,5 -9,11 -12,19 -2,9 -4,21 -5,37 -1,16 -1,29 0,41 1,13 7,19 18,19 13,0 22,-9 27,-26 3,-12 6,-27 7,-43 1,-16 1,-29 -1,-39 -2,-10 -7,-15 -16,-16z"/>
   <path id="5" class="fil63" d="M4790 13299l-91 114c-14,17 -25,29 -34,36 -8,7 -16,10 -23,10 -7,0 -12,-2 -15,-7 -6,-10 -11,-22 -14,-35l-29 -121c-2,-7 -4,-12 -6,-15 -3,-3 -6,-5 -12,-6 -10,-4 -14,-10 -11,-19 2,-9 11,-16 26,-20 16,-4 39,-6 69,-6 26,0 44,2 55,5 11,4 15,10 13,17 -1,6 -6,11 -13,16 -4,3 -7,6 -9,7 -1,2 -2,4 -3,7 -2,5 -1,13 2,25 4,12 8,17 14,17 4,0 7,-1 10,-4 4,-3 10,-10 20,-22 7,-9 11,-15 12,-20 1,-3 0,-8 -3,-13 -4,-5 -5,-10 -4,-15 3,-7 9,-12 19,-15 11,-3 27,-5 48,-5 31,0 45,7 41,20 -2,8 -9,13 -21,17 -10,2 -16,5 -20,8 -4,3 -11,11 -21,24z"/>
   <path id="6" class="fil63" d="M5022 13352l-106 0c-5,0 -8,2 -9,6 -2,10 0,19 8,28 8,8 19,13 31,13 7,0 15,-2 25,-5 9,-2 18,-6 25,-10 6,-3 10,-5 13,-5 4,0 7,2 10,7 2,5 3,10 1,15 -3,11 -13,21 -29,31 -29,18 -59,27 -90,27 -32,0 -56,-9 -72,-28 -8,-9 -13,-19 -16,-32 -4,-17 -4,-35 2,-54 7,-25 21,-48 42,-68 18,-17 39,-30 62,-39 17,-6 34,-9 52,-9 29,0 51,8 66,24 8,8 13,18 16,29 4,12 4,25 0,37 -3,9 -7,17 -13,24 -6,6 -12,9 -18,9zm-88 -42l23 0c9,0 15,-5 18,-13 2,-9 2,-15 -2,-20 -3,-5 -8,-8 -16,-8 -8,0 -16,3 -22,10 -7,6 -11,12 -12,19 -2,4 -1,7 0,9 2,2 5,3 11,3z"/>
   <path id="7" class="fil63" d="M5198 13230c8,0 13,1 14,3 1,3 0,10 -2,22 -1,7 1,10 4,10 3,0 7,-2 11,-7 17,-18 36,-28 55,-28 14,0 24,5 30,13 3,5 5,10 5,17 1,7 1,14 -1,20 -2,7 -6,14 -11,22 -6,7 -12,13 -18,18 -13,9 -26,14 -40,14 -7,0 -13,-2 -18,-4 -4,-3 -9,-9 -15,-17 -3,-3 -5,-5 -8,-5 -4,0 -8,3 -10,8 -3,4 -6,14 -11,29 -6,23 -10,39 -10,47 -1,4 0,7 1,9 2,2 5,4 11,5 12,4 17,12 14,22 -2,6 -5,11 -11,16 -6,4 -12,7 -20,9 -15,3 -37,4 -65,4 -26,0 -46,-2 -58,-7 -11,-4 -15,-11 -13,-21 3,-8 9,-15 20,-21 5,-3 9,-6 11,-8 2,-2 5,-6 6,-10 7,-13 15,-39 26,-76 1,-6 2,-11 1,-14 0,-3 -3,-6 -7,-7 -9,-5 -13,-11 -10,-19 2,-7 7,-13 16,-18 9,-5 23,-10 41,-16 25,-6 46,-10 62,-10z"/>
   <path id="8" class="fil63" d="M5572 13288l-21 76c-3,9 -3,16 0,22 3,5 8,8 15,8 5,0 14,-2 25,-8 3,-1 5,-2 8,-2 3,0 6,2 8,7 1,4 1,9 0,14 -3,9 -10,18 -23,27 -26,18 -55,27 -85,27 -24,0 -42,-7 -52,-20 -11,-14 -13,-32 -7,-54l30 -104c1,-4 1,-6 0,-7 0,0 -2,-1 -6,-1l-23 0c-4,0 -7,-1 -8,-2 0,-1 0,-5 2,-10l2 -10c2,-4 4,-8 8,-10l122 -65c3,-1 6,-2 10,-2l18 0c4,0 6,1 7,3 1,2 1,5 -1,10l-9 30c-1,5 -1,8 0,9 1,2 4,2 9,2l41 0c6,0 9,1 10,3 1,2 1,7 -1,13l-4 14c-2,7 -4,12 -7,15 -3,2 -7,4 -13,4l-41 0c-4,0 -7,0 -9,2 -2,1 -3,4 -5,9z"/>
   <path id="9" class="fil63" d="M5816 13156l-29 95c-4,11 -2,17 5,17 4,0 8,-3 13,-8 20,-21 43,-31 67,-31 24,0 41,7 51,21 4,7 7,15 7,23 0,9 -2,22 -7,38l-21 82c-2,7 -2,12 -1,15 0,4 3,8 8,13 3,3 4,7 3,12 -5,16 -31,24 -80,24 -44,0 -63,-7 -59,-22 1,-3 2,-5 3,-6 1,-2 4,-5 11,-11 8,-8 17,-29 27,-62 5,-20 8,-35 7,-44 -2,-12 -9,-18 -22,-18 -9,0 -17,3 -23,10 -4,4 -8,13 -12,27l-13 43c-4,19 -6,30 -6,33 0,2 2,7 6,14 2,3 2,7 1,11 -5,17 -29,25 -73,25 -52,0 -75,-8 -70,-26 1,-4 3,-7 5,-9 2,-3 7,-6 15,-10 7,-4 14,-15 21,-33 7,-18 17,-47 29,-89 9,-32 14,-54 16,-67 1,-4 1,-8 0,-10 -1,-2 -4,-4 -7,-7 -8,-4 -11,-10 -10,-16 3,-8 8,-14 16,-18 9,-5 24,-10 45,-16 29,-7 52,-11 68,-11 9,0 12,4 9,11z"/>
   <path id="10" class="fil63" d="M6157 13352l-106 0c-5,0 -8,2 -9,6 -3,10 0,19 8,28 8,8 18,13 30,13 8,0 16,-2 26,-5 9,-2 17,-6 24,-10 6,-3 11,-5 14,-5 4,0 7,2 9,7 3,5 3,10 2,15 -3,11 -13,21 -29,31 -29,18 -60,27 -91,27 -31,0 -55,-9 -71,-28 -8,-9 -13,-19 -17,-32 -4,-17 -3,-35 2,-54 8,-25 22,-48 43,-68 18,-17 39,-30 61,-39 18,-6 35,-9 53,-9 28,0 50,8 66,24 7,8 13,18 16,29 3,12 3,25 0,37 -3,9 -7,17 -13,24 -6,6 -12,9 -18,9zm-88 -42l22 0c10,0 16,-5 18,-13 3,-9 2,-15 -1,-20 -3,-5 -8,-8 -16,-8 -8,0 -16,3 -23,10 -6,6 -10,12 -12,19 -1,4 -1,7 1,9 2,2 5,3 11,3z"/>
   <path id="11" class="fil63" d="M6414 13145l116 0c24,0 41,0 52,-1 11,-1 22,-3 33,-6 3,-1 6,-1 8,-1 7,0 13,4 17,12 6,14 6,30 1,50 -3,10 -8,17 -13,23 -6,6 -12,8 -20,8 -5,0 -8,-1 -10,-3 -3,-2 -5,-6 -8,-13 -3,-10 -10,-17 -19,-21 -9,-3 -25,-5 -48,-5 -18,0 -29,4 -35,10 -3,3 -5,7 -7,13 -2,6 -6,20 -13,43 -2,9 -2,14 0,16 3,2 10,4 23,4 6,0 11,-2 15,-4 3,-3 6,-8 9,-14 4,-9 6,-15 9,-18 2,-4 4,-6 8,-9 4,-2 8,-4 12,-4 6,0 11,3 14,9 1,4 2,12 1,23 -1,11 -3,23 -7,35 -6,23 -16,43 -27,58 -7,8 -14,12 -22,12 -5,0 -9,-1 -10,-4 -1,-2 -1,-8 0,-16 3,-17 -5,-25 -22,-25 -7,0 -12,2 -16,6 -3,4 -7,12 -10,24 -2,7 -4,16 -7,27 -2,11 -3,19 -3,22 0,5 3,8 9,10 5,1 15,2 30,2 23,0 40,-3 53,-8 13,-6 26,-17 37,-32 7,-9 12,-14 17,-17 4,-3 9,-5 14,-5 6,0 11,3 13,8 3,6 3,13 1,21 -3,9 -8,20 -17,34 -8,13 -17,25 -27,36 -5,5 -9,8 -12,10 -2,2 -6,3 -9,3 -3,0 -7,-1 -12,-2 -9,-2 -22,-3 -38,-3l-191 0c-7,0 -13,-2 -16,-5 -3,-4 -4,-8 -2,-15 1,-4 3,-7 5,-9 3,-2 8,-4 15,-7 5,-2 9,-5 12,-8 3,-3 6,-7 9,-12 11,-23 22,-53 33,-92 17,-58 23,-94 21,-110 -1,-3 -2,-5 -4,-6 -1,-1 -4,-3 -10,-4 -7,-3 -10,-8 -8,-17 2,-5 4,-9 8,-13 4,-4 9,-6 14,-8 6,-1 18,-2 34,-2z"/>
   <path id="12" class="fil63" d="M6705 13327l-13 -24c-5,-11 -9,-18 -13,-21 -4,-4 -9,-6 -15,-8 -11,-2 -16,-8 -13,-17 2,-9 12,-16 28,-20 17,-5 41,-7 73,-7 23,0 40,1 50,4 12,3 16,9 14,18 -1,3 -5,9 -12,17 -2,1 -3,3 -3,5 -1,3 0,7 3,13 3,6 6,9 8,9 3,0 8,-3 15,-10 7,-6 11,-11 12,-15 1,-2 0,-6 -2,-11 -1,-4 -2,-7 -1,-9 1,-4 3,-7 6,-10 4,-3 8,-6 12,-7 7,-3 19,-4 35,-4 14,0 23,1 28,4 6,4 9,9 7,17 -2,4 -3,6 -6,8 -3,2 -9,5 -19,9 -5,3 -9,5 -12,8 -4,3 -15,14 -35,33l-22 23c-3,3 -4,5 -4,6 0,0 0,2 1,4l8 21c8,22 14,36 19,43 3,3 7,6 14,9 6,3 8,8 6,16 -3,10 -12,17 -25,21 -14,3 -38,5 -71,5 -26,0 -43,-1 -53,-3 -12,-4 -17,-11 -14,-21 2,-7 7,-11 16,-15 5,-2 8,-5 9,-10 1,-5 0,-12 -3,-20 -4,-9 -8,-13 -11,-13 -4,0 -11,6 -21,16 -10,11 -16,19 -17,24 -1,3 0,6 2,11 2,3 3,7 2,12 -4,13 -21,19 -52,19 -17,0 -29,-1 -35,-5 -6,-3 -9,-8 -6,-16 1,-5 3,-8 6,-10 3,-2 8,-4 14,-5 7,-2 13,-4 18,-8 4,-5 20,-21 46,-49l23 -27c3,-2 4,-4 4,-5 0,-1 0,-3 -1,-5z"/>
   <path id="13" class="fil63" d="M7062 13229c26,0 48,6 65,20 15,12 20,28 15,47 -4,13 -11,24 -23,32 -10,8 -21,11 -33,11 -13,0 -21,-4 -24,-13 -2,-3 -2,-10 -3,-22 0,-13 -6,-19 -18,-19 -8,0 -16,4 -23,11 -8,7 -14,16 -17,26 -5,18 -3,34 6,48 7,12 19,17 35,17 7,0 14,0 19,-2 6,-1 13,-3 23,-7 2,-1 5,-2 7,-2 5,0 9,2 12,7 2,5 2,11 1,17 -2,7 -7,14 -15,21 -7,8 -17,14 -27,20 -23,12 -48,18 -74,18 -31,0 -55,-9 -72,-27 -21,-23 -27,-52 -17,-87 10,-34 31,-62 63,-85 31,-21 64,-31 100,-31z"/>
   <path id="14" class="fil63" d="M7349 13352l-106 0c-5,0 -8,2 -9,6 -2,10 0,19 8,28 8,8 19,13 31,13 7,0 15,-2 25,-5 9,-2 18,-6 25,-10 6,-3 10,-5 13,-5 4,0 7,2 10,7 2,5 3,10 1,15 -3,11 -13,21 -29,31 -29,18 -59,27 -90,27 -32,0 -56,-9 -72,-28 -8,-9 -13,-19 -16,-32 -4,-17 -4,-35 2,-54 7,-25 21,-48 42,-68 18,-17 39,-30 62,-39 17,-6 34,-9 52,-9 29,0 51,8 66,24 8,8 13,18 16,29 4,12 4,25 0,37 -3,9 -7,17 -13,24 -6,6 -12,9 -18,9zm-88 -42l23 0c9,0 15,-5 18,-13 2,-9 2,-15 -2,-20 -3,-5 -8,-8 -16,-8 -8,0 -15,3 -22,10 -6,6 -11,12 -12,19 -2,4 -1,7 0,9 2,2 5,3 11,3z"/>
   <path id="15" class="fil63" d="M7536 13274l-20 73c-10,32 -14,50 -15,55 0,6 2,10 8,13 5,2 8,4 9,6 1,2 1,5 0,9 -1,5 -4,10 -9,14 -5,4 -10,7 -16,8 -12,4 -31,5 -57,5 -29,0 -48,-2 -59,-6 -5,-2 -8,-5 -10,-9 -3,-4 -3,-9 -2,-13 1,-4 3,-7 5,-9 3,-2 7,-4 15,-7 6,-2 12,-9 16,-21 8,-19 17,-47 28,-83 10,-37 16,-60 17,-71 1,-10 -2,-18 -9,-23 -6,-4 -9,-7 -10,-10 -2,-3 -2,-7 -1,-12 3,-7 8,-14 17,-19 8,-6 21,-11 38,-16 11,-3 25,-6 43,-9 17,-2 29,-4 37,-4 12,0 15,8 11,22 -1,5 -5,16 -11,33 -10,27 -18,52 -25,74z"/>
   <path id="16" class="fil63" d="M7705 13274l-21 73c-9,32 -14,50 -15,55 0,6 3,10 8,13 5,2 8,4 9,6 2,2 2,5 1,9 -2,5 -5,10 -10,14 -4,4 -10,7 -16,8 -12,4 -30,5 -56,5 -29,0 -49,-2 -59,-6 -5,-2 -9,-5 -11,-9 -2,-4 -3,-9 -1,-13 1,-4 2,-7 5,-9 2,-2 7,-4 14,-7 7,-2 12,-9 17,-21 8,-19 17,-47 27,-83 11,-37 16,-60 17,-71 1,-10 -2,-18 -9,-23 -5,-4 -9,-7 -10,-10 -1,-3 -1,-7 0,-12 2,-7 7,-14 16,-19 9,-6 21,-11 38,-16 11,-3 26,-6 43,-9 17,-2 30,-4 37,-4 12,0 16,8 12,22 -2,5 -6,16 -12,33 -10,27 -18,52 -24,74z"/>
   <path id="17" class="fil63" d="M7930 13352l-106 0c-4,0 -7,2 -8,6 -3,10 0,19 8,28 8,8 18,13 30,13 7,0 16,-2 25,-5 10,-2 18,-6 25,-10 6,-3 11,-5 14,-5 4,0 7,2 9,7 3,5 3,10 2,15 -3,11 -13,21 -30,31 -29,18 -59,27 -90,27 -31,0 -55,-9 -71,-28 -8,-9 -14,-19 -17,-32 -4,-17 -3,-35 2,-54 8,-25 22,-48 43,-68 18,-17 38,-30 61,-39 17,-6 35,-9 53,-9 28,0 50,8 66,24 7,8 13,18 16,29 3,12 3,25 0,37 -3,9 -7,17 -13,24 -6,6 -12,9 -19,9zm-88 -42l23 0c10,0 16,-5 18,-13 3,-9 2,-15 -1,-20 -3,-5 -9,-8 -16,-8 -8,0 -16,3 -23,10 -6,6 -10,12 -12,19 -1,4 -1,7 1,9 1,2 5,3 10,3z"/>
   <path id="18" class="fil63" d="M8252 13312l-20 79c-1,6 -2,10 -1,13 1,3 4,9 9,17 2,2 2,5 1,10 -3,10 -11,17 -24,20 -13,4 -35,6 -65,6 -21,0 -35,-1 -42,-5 -8,-4 -11,-10 -9,-18 1,-3 2,-6 4,-7 1,-1 5,-5 12,-10 7,-7 16,-28 27,-63 6,-21 8,-37 6,-46 -2,-8 -8,-12 -19,-12 -10,0 -18,3 -23,9 -6,7 -11,18 -16,35l-13 45c-2,9 -3,15 -3,18 0,4 2,10 6,19 1,3 0,6 -1,10 -2,9 -10,15 -24,19 -13,4 -33,7 -59,7 -42,0 -60,-9 -55,-26 1,-4 2,-7 4,-9 2,-1 6,-4 11,-8 5,-2 9,-6 11,-9 2,-4 5,-13 10,-27 6,-18 12,-36 17,-54 3,-11 4,-17 4,-21 -1,-3 -4,-7 -11,-12 -5,-4 -7,-9 -5,-14 2,-6 6,-11 12,-15 6,-4 19,-9 37,-15 16,-5 31,-9 45,-13 14,-3 24,-5 29,-5 5,0 8,2 10,5 2,3 3,7 1,12 0,0 -1,2 -2,5 0,2 0,3 -1,4 -2,7 0,10 6,10 4,0 8,-3 14,-8 18,-19 40,-28 64,-28 19,0 34,5 45,15 7,7 11,15 13,25 1,9 -1,23 -5,42z"/>
   <path id="19" class="fil63" d="M8440 13229c27,0 48,6 65,20 16,12 21,28 15,47 -3,13 -11,24 -22,32 -11,8 -22,11 -34,11 -12,0 -20,-4 -24,-13 -1,-3 -2,-10 -3,-22 0,-13 -6,-19 -17,-19 -9,0 -17,4 -24,11 -8,7 -13,16 -16,26 -5,18 -3,34 5,48 8,12 19,17 35,17 8,0 14,0 20,-2 5,-1 13,-3 22,-7 2,-1 5,-2 7,-2 6,0 9,2 12,7 2,5 3,11 1,17 -2,7 -7,14 -15,21 -7,8 -16,14 -27,20 -23,12 -48,18 -74,18 -31,0 -55,-9 -71,-27 -22,-23 -28,-52 -18,-87 10,-34 31,-62 63,-85 31,-21 64,-31 100,-31z"/>
   <path id="20" class="fil63" d="M8727 13352l-106 0c-4,0 -7,2 -8,6 -3,10 -1,19 8,28 8,8 18,13 30,13 7,0 16,-2 25,-5 10,-2 18,-6 25,-10 6,-3 11,-5 14,-5 4,0 7,2 9,7 2,5 3,10 1,15 -3,11 -12,21 -29,31 -29,18 -59,27 -90,27 -32,0 -55,-9 -72,-28 -7,-9 -13,-19 -16,-32 -4,-17 -3,-35 2,-54 7,-25 21,-48 42,-68 19,-17 39,-30 62,-39 17,-6 35,-9 53,-9 28,0 50,8 65,24 8,8 13,18 16,29 4,12 4,25 1,37 -3,9 -8,17 -13,24 -6,6 -12,9 -19,9zm-88 -42l23 0c10,0 16,-5 18,-13 2,-9 2,-15 -1,-20 -3,-5 -9,-8 -16,-8 -9,0 -16,3 -23,10 -6,6 -10,12 -12,19 -1,4 -1,7 1,9 1,2 5,3 10,3z"/>
   <path id="21" class="fil63" d="M8824 13353c15,0 26,5 33,15 8,10 10,22 5,38 -4,15 -13,28 -27,38 -13,10 -27,15 -41,15 -14,0 -25,-5 -33,-15 -8,-10 -9,-23 -5,-38 4,-16 13,-29 27,-38 13,-10 27,-15 41,-15z"/>
   <path class="fil58" d="M5297 11747c8,-31 24,-74 39,-105 14,-31 26,-50 28,-64 3,-15 -4,-26 -7,-31 -3,-5 -3,-5 3,-5 7,0 20,0 40,-9 21,-9 47,-26 61,-53 13,-27 13,-63 13,-81 0,-18 0,-18 48,-11 47,8 142,22 257,31 115,9 251,11 385,5 135,-7 268,-23 335,-31 67,-8 67,-8 84,6 17,14 50,42 67,56 17,14 17,14 3,22 -13,7 -40,22 -61,45 -22,24 -38,56 -34,79 4,24 28,38 64,40 35,1 82,-11 127,-30 45,-20 88,-47 109,-60 22,-13 22,-13 18,4 -3,17 -10,52 -3,76 7,24 27,38 37,44 10,7 10,7 13,22 3,15 10,44 21,66 12,22 28,37 54,28 26,-8 62,-41 80,-57 18,-16 18,-16 18,-4 0,11 0,34 23,53 23,18 68,33 108,38 39,6 73,2 108,-19 34,-21 71,-58 99,-101 28,-43 48,-91 77,-123 30,-31 69,-46 100,-62 31,-16 56,-33 72,-57 17,-23 26,-53 34,-60 7,-7 12,7 4,30 -8,23 -29,54 -45,81 -16,28 -27,52 -24,75 3,23 19,46 27,58 8,11 8,11 -13,32 -21,22 -62,65 -79,93 -17,29 -9,44 9,37 17,-6 44,-35 71,-61 28,-27 56,-53 68,-74 13,-21 11,-39 5,-57 -5,-18 -13,-37 -4,-58 10,-21 36,-46 54,-67 17,-21 25,-40 20,-68 -4,-28 -22,-66 -46,-88 -24,-22 -55,-29 -85,-15 -30,13 -59,47 -67,73 -7,26 8,44 15,54 7,9 7,9 -13,16 -21,7 -63,20 -97,38 -35,18 -63,41 -81,60 -18,20 -26,36 -32,44 -5,8 -8,8 -19,9 -10,2 -29,4 -38,6 -10,1 -10,1 -2,8 7,8 22,22 22,40 0,17 -15,37 -34,53 -20,16 -44,28 -75,29 -32,1 -71,-10 -90,-15 -19,-6 -19,-6 -10,-19 9,-13 28,-40 34,-61 6,-21 -1,-35 -17,-37 -16,-2 -41,8 -55,14 -13,5 -14,5 -14,-4 1,-10 4,-29 -10,-37 -13,-9 -42,-8 -56,9 -13,17 -11,49 -13,76 -3,27 -11,48 -24,51 -12,4 -30,-11 -34,-37 -4,-26 6,-64 1,-81 -5,-16 -24,-12 -30,-18 -6,-6 1,-22 27,-34 26,-12 72,-20 95,-32 24,-11 25,-26 14,-34 -12,-8 -36,-9 -65,-4 -28,5 -62,17 -93,18 -32,1 -61,-10 -108,-3 -47,8 -111,33 -143,46 -32,13 -32,13 -6,-10 27,-23 81,-68 99,-92 19,-25 3,-27 -24,-35 -26,-8 -64,-22 -93,-38 -30,-16 -51,-35 -71,-42 -20,-7 -39,-3 -109,3 -71,7 -193,16 -312,21 -119,5 -235,5 -346,-3 -110,-7 -214,-22 -279,-31 -65,-9 -91,-13 -104,-9 -14,4 -15,16 -13,40 2,24 8,60 -5,89 -13,29 -44,50 -52,45 -8,-4 7,-35 -2,-55 -10,-19 -43,-27 -55,-17 -12,10 -3,38 0,81 4,43 1,100 -10,153 -12,53 -32,101 -32,129 -1,29 18,37 27,31 9,-6 9,-27 17,-58z"/>
   <path class="fil58" d="M5977 12645c28,33 74,81 105,107 32,25 49,28 65,21 15,-7 28,-23 51,-15 23,8 55,40 96,74 41,33 90,68 140,93 51,25 102,39 126,41 24,1 21,-11 16,-35 -4,-24 -11,-60 -9,-94 2,-33 13,-64 35,-88 23,-24 58,-42 92,-44 34,-3 68,9 93,21 26,12 43,24 68,25 26,1 59,-10 87,-8 27,2 49,17 59,17 11,0 11,-15 -2,-34 -14,-20 -41,-44 -43,-52 -3,-8 19,0 40,3 21,2 43,0 70,1 28,1 61,7 92,21 31,15 59,39 82,69 22,30 40,67 74,99 34,33 85,63 120,67 34,5 53,-15 57,-45 3,-30 -9,-70 -31,-121 -21,-51 -52,-113 -69,-147 -18,-34 -22,-41 -34,-44 -12,-3 -32,-3 -44,-3 -13,0 -19,0 -12,18 7,18 26,54 46,98 21,44 44,96 57,131 14,34 18,50 10,50 -8,1 -29,-14 -49,-34 -21,-21 -42,-48 -57,-74 -15,-26 -23,-52 -40,-72 -18,-21 -44,-37 -71,-50 -27,-13 -54,-22 -78,-25 -24,-2 -45,2 -78,0 -32,-1 -74,-8 -106,-8 -31,-1 -51,4 -57,19 -7,15 2,39 6,51 4,12 4,12 -2,11 -5,-2 -16,-4 -41,-14 -26,-10 -66,-28 -103,-33 -37,-6 -70,1 -99,12 -30,11 -55,25 -79,47 -24,21 -47,49 -55,85 -8,35 -2,78 2,99 3,22 3,22 -14,12 -16,-10 -50,-30 -81,-57 -32,-27 -61,-60 -93,-94 -32,-33 -67,-67 -90,-85 -23,-18 -33,-21 -49,-11 -15,9 -35,31 -51,39 -15,9 -26,5 -42,-13 -16,-18 -37,-50 -65,-69 -29,-19 -63,-24 -75,-18 -11,6 1,23 30,56z"/>
   <path class="fil64" d="M5986 12087c82,20 295,8 393,8 2,0 71,291 25,247 -49,-46 -105,39 -214,-29 -70,-44 -120,53 -120,-178 0,-27 -254,14 -151,-47 5,-3 56,-4 67,-1z"/>
  </g>
  <path class="fil1" d="M40205 7552c109,72 203,434 288,477 43,-156 -2,-339 -39,-492 -54,-115 -20,-149 -155,-174 -111,-21 -158,-39 -224,-107 19,-54 62,-78 112,-96 -96,-32 -24,-50 -159,-32 -77,10 -98,-12 -142,-58 -119,-123 -74,-233 -128,-309 -72,-100 -538,-167 -697,-170 24,52 30,48 98,78 253,108 214,32 324,180 53,72 242,321 189,456 -38,82 -115,52 -206,118 18,64 70,85 134,100 75,-8 15,-100 314,-136 101,-12 246,76 291,165z"/>
  <path class="fil1" d="M10964 10128c0,36 -6,95 23,71 25,-70 102,-212 139,-242 129,-105 225,-4 266,18 38,-20 42,-10 60,-42 -39,-52 -203,-6 -11,-271 71,-98 137,-46 199,-119 -47,-20 -275,31 -314,64 -34,29 -29,103 -59,141 -57,71 -65,22 -138,45 7,23 3,9 16,27l21 23c-80,113 -178,-46 -202,285z"/>
  <g id="_2996849313216">
   <path class="fil65" d="M44562 14794c112,-38 82,-52 152,-97 28,-17 151,6 157,7l28 11 72 -31c21,51 9,28 43,62 49,50 13,-7 59,59 195,-30 170,-26 267,-144 221,32 200,-23 290,-146 66,18 126,37 194,-2 126,-72 -16,-54 174,-91 127,-25 85,-70 171,-94 100,-28 137,-3 197,-85 77,-106 -15,-311 -86,-382 -124,-126 -34,-229 -317,-200 -35,-60 -18,-79 -73,-125 -57,-48 -91,-30 -132,-59 -63,-44 -62,-184 -232,-155 -89,15 -66,54 -135,26 -80,-31 -35,-26 -139,-44 -101,-18 -50,-33 -131,-65 -56,-22 -121,-5 -187,12 -79,-146 -236,-183 -369,35 -98,-20 -178,-21 -238,57 -62,79 4,46 -90,76 -226,72 -79,91 -204,112 -41,7 -257,-47 -259,200 -138,53 -135,18 -207,136 -93,-16 -220,-92 -306,57 -75,129 0,244 112,281 22,184 22,252 219,277 33,92 42,161 146,184 158,34 163,-87 253,-39 82,44 34,136 153,177 120,43 173,-18 247,-66 54,39 94,50 171,56z"/>
   <path class="fil65" d="M43516 15638c3,-4 9,-13 11,-10l47 -34c48,-27 13,-12 65,-27l19 -100 123 -49 24 103 28 -119c23,2 46,10 82,12 110,-21 258,93 308,-82 47,-161 -11,-43 85,-144 40,-43 49,-115 14,-178 -28,-51 -89,-77 -159,-68 -149,18 -17,20 -151,-29 -159,-58 -24,6 -133,-102 -55,-55 -95,-37 -181,-31 -28,-100 -56,-127 -159,-131 -54,-153 -91,-171 -263,-138 -74,-114 -74,-62 -200,-72 -77,-5 -107,-81 -212,-36 -61,27 -43,37 -72,73 -89,108 -178,-6 -214,216 -120,18 -73,8 -154,65 -157,-63 -201,-35 -256,80 -171,-15 -269,-21 -255,190 -119,11 -304,123 -87,295 119,94 -39,195 262,200 61,118 96,105 234,91 22,64 45,102 103,116 45,11 53,-1 93,6 115,19 80,104 228,45 137,-56 47,-5 161,-11 119,-6 17,-35 161,7 102,31 80,-12 163,-27 77,-15 135,62 225,-53 51,-65 -5,-40 60,-58z"/>
   <path class="fil65" d="M45047 15238c80,9 14,-18 64,43 36,43 0,28 55,60l-54 30c345,-69 22,263 460,193 70,54 156,144 286,40 159,-128 65,51 283,-115 82,29 101,45 214,23 107,-21 71,60 209,39 84,-12 60,-25 104,-49 72,-41 43,-11 123,-26 109,-21 113,-80 164,-139 186,24 203,-36 271,-154 217,-53 220,-218 123,-322 -128,-137 -51,-243 -322,-207 -55,-54 -72,-91 -149,-93 -136,-4 -66,58 -191,-5 -91,-46 -140,9 -383,-111 -210,-104 -254,142 -406,194 -64,22 -175,21 -176,213 -126,7 -175,9 -214,121l-315 42c-124,44 -77,138 -146,223z"/>
   <path class="fil65" d="M44562 14794c-4,201 -162,379 -230,527 -99,214 -139,530 -226,534 -137,-37 -157,-292 -191,-441 -36,-2 -59,-10 -82,-12l-28 119 20 143c-59,-2 -48,-10 -99,-45 -32,-21 -51,-28 -87,-52 -52,15 -17,0 -65,27l-47 34c-2,-3 -8,6 -11,10 194,66 405,257 450,502 76,418 121,1216 -295,1456 -131,75 -250,67 -397,106 -183,48 -217,120 -318,181 -9,112 289,-52 423,-65 243,-24 183,55 422,-82 19,-49 99,-109 188,-101 57,5 58,27 99,42 39,14 84,6 130,4 181,8 161,80 381,43 -50,-25 -87,-23 -127,-63 -73,8 -94,-41 -44,-78 30,-22 125,-25 164,-26 81,-1 228,19 280,55 97,19 129,64 223,57 88,-6 196,-23 286,-34 17,-27 25,22 2,-44 -210,34 -347,-95 -442,-135 -191,-80 -398,47 -496,-86 -76,-102 -31,-392 -27,-524 5,-173 -9,-403 6,-566 67,-45 230,-116 328,-140 14,-18 34,-33 40,-71 15,-95 29,-41 -19,-61 -130,27 -248,102 -385,103 -167,-381 390,-648 724,-740l54 -30c-55,-32 -19,-17 -55,-60 -50,-61 16,-34 -64,-43 -210,43 -396,177 -572,218 33,-237 344,-575 598,-651 -46,-66 -10,-9 -59,-59 -34,-34 -22,-11 -43,-62l-72 31 -184 122 -1 -140c-70,45 -40,59 -152,97z"/>
   <path class="fil65" d="M44773 16008c48,20 34,-34 19,61 -6,38 -26,53 -40,71 32,41 112,289 210,330 96,40 132,-18 199,-4 67,14 36,62 230,17 43,44 55,98 131,118 122,32 145,-31 206,-45 69,-15 106,49 204,-2 77,-40 69,-88 98,-169 15,-19 324,-129 26,-362 0,-108 16,-175 -72,-232 -100,-65 -189,-8 -253,52 -102,-65 -57,-129 -297,-69 -58,-68 -186,-233 -338,-76 -51,52 -35,41 -59,114 -281,-61 -235,133 -264,196z"/>
   <path class="fil65" d="M44472 17661c63,9 379,3 400,-49 -52,-36 -199,-56 -280,-55 -39,1 -134,4 -164,26 -50,37 -29,86 44,78z"/>
   <path class="fil65" d="M43639 15567c36,24 55,31 87,52 51,35 40,43 99,45l-20 -143 -24 -103 -123 49 -19 100z"/>
   <path class="fil65" d="M43801 17736c7,32 164,-4 200,-9l217 -46c-46,2 -91,10 -130,-4 -41,-15 -42,-37 -99,-42 -89,-8 -169,52 -188,101z"/>
   <path class="fil65" d="M44899 14715l-28 -11c-6,-1 -129,-24 -157,-7l1 140 184 -122z"/>
  </g>
  <path class="fil66" d="M45837 15487c130,-69 39,-36 173,-33 90,2 118,-35 153,-8 270,93 187,-4 343,4 281,13 153,42 329,-96 263,102 180,-11 370,-40 262,-41 171,-77 289,-249 85,-124 102,-233 -20,-333 -207,-167 -19,-149 -258,-276 31,-68 61,-126 53,-230 -15,-191 177,-218 46,-415 -50,-74 -89,-86 -204,-94 -2,-183 -56,-190 -159,-275 40,-142 27,-116 4,-253 64,-76 104,-55 113,-184 8,-115 -29,-178 -108,-214 21,-251 10,-333 -233,-368 -8,-212 -88,-148 -63,-275 30,-154 6,-179 -37,-298 169,-133 63,-327 -101,-396 -1,-164 -13,-191 -123,-264 24,-404 -55,-223 -136,-377 -2,-5 -60,-346 -332,-222 -97,43 -116,118 -148,240 -154,31 -219,110 -193,286 28,197 -48,174 52,395 -240,403 -18,118 -242,293 -142,111 -85,295 41,373 6,246 66,162 -59,348 -300,9 -179,110 -324,180 -76,36 -99,16 -160,90 -61,75 -45,123 -52,227 -216,103 -242,396 114,447 16,162 68,168 141,247 -65,90 -63,87 -66,233 -122,19 -153,77 -227,139 -390,-53 -437,277 -192,432 -41,81 -62,118 -45,242 24,178 -51,90 -61,243 -16,236 189,260 367,206 109,148 127,175 344,132 84,84 130,131 291,114 157,-16 139,109 320,29z"/>
  <path class="fil67" d="M45837 15487c31,406 3,914 5,1332 0,108 -3,198 -21,275 -4,21 -10,41 -16,61 -20,57 -51,111 -88,167 -37,55 -80,111 -127,153 -46,43 -95,71 -153,96 -58,25 -125,46 -199,70l-44 14 0 0c73,-2 718,1 722,0 68,2 925,20 921,-4l-1 -1c-18,-9 -36,-17 -55,-25 -74,-33 -144,-55 -209,-81 -66,-26 -125,-56 -174,-95 -49,-38 -87,-85 -117,-133 -31,-48 -54,-98 -73,-155 -3,-9 -5,-19 -8,-28 -32,-62 -35,-148 -34,-291 1,-451 19,-951 -3,-1396 -35,-27 -63,10 -153,8 -134,-3 -43,-36 -173,33z"/>
 </g>
</svg>
