<?xml version="1.0" encoding="UTF-8"?>
<!DOCTYPE svg PUBLIC "-//W3C//DTD SVG 1.1//EN" "http://www.w3.org/Graphics/SVG/1.1/DTD/svg11.dtd">
<!-- Creator: CorelDRAW X8 -->
<svg xmlns="http://www.w3.org/2000/svg" xml:space="preserve" width="4884px" height="1956px" version="1.1" style="shape-rendering:geometricPrecision; text-rendering:geometricPrecision; image-rendering:optimizeQuality; fill-rule:evenodd; clip-rule:evenodd"
viewBox="0 0 48884 19579"
 xmlns:xlink="http://www.w3.org/1999/xlink">
 <defs>
  <style type="text/css">
   <![CDATA[
    .str0 {stroke:#373435;stroke-width:41.6988}
    .str2 {stroke:#313131;stroke-width:41.6988}
    .str1 {stroke:#424242;stroke-width:20.8553}
    .str3 {stroke:black;stroke-width:9.00892}
    .str4 {stroke:#B5EEFF;stroke-width:9.00892}
    .str5 {stroke:#E6E6E6;stroke-width:9.00892}
    .fil17 {fill:none}
    .fil13 {fill:#373435}
    .fil20 {fill:#EFB783}
    .fil62 {fill:black}
    .fil61 {fill:#063497}
    .fil35 {fill:#0B3859}
    .fil66 {fill:#0D5322}
    .fil47 {fill:#121710}
    .fil23 {fill:#1369B6}
    .fil54 {fill:#1B1B1C}
    .fil31 {fill:#1C1C1C}
    .fil27 {fill:#20547B}
    .fil63 {fill:#2DA659}
    .fil7 {fill:#313131}
    .fil30 {fill:#33322E}
    .fil36 {fill:#333333}
    .fil26 {fill:#362D24}
    .fil28 {fill:#3689BB}
    .fil22 {fill:#3890D0}
    .fil68 {fill:#3C771D}
    .fil71 {fill:#3D761F}
    .fil10 {fill:#424242}
    .fil6 {fill:#464646}
    .fil14 {fill:#4A4A4A}
    .fil70 {fill:#4A8C23}
    .fil67 {fill:#4C8F26}
    .fil40 {fill:#4D4D4D}
    .fil39 {fill:#525252}
    .fil15 {fill:#5C707B}
    .fil69 {fill:#644D33}
    .fil16 {fill:#71848B}
    .fil8 {fill:#757575}
    .fil55 {fill:#767B7F}
    .fil32 {fill:#797977}
    .fil49 {fill:#7A838A}
    .fil41 {fill:gray}
    .fil56 {fill:#99A3AC}
    .fil50 {fill:#9CADB7}
    .fil57 {fill:#AAB5C5}
    .fil53 {fill:#ADBACA}
    .fil38 {fill:#B5EEFF}
    .fil24 {fill:#B96F48}
    .fil59 {fill:#BABABA}
    .fil52 {fill:#BACADA}
    .fil46 {fill:#C1C2C9}
    .fil18 {fill:#C1CFCF}
    .fil33 {fill:#C77066}
    .fil4 {fill:#C8382F}
    .fil11 {fill:#CACACA}
    .fil37 {fill:#CCCCCC}
    .fil45 {fill:#CDCED3}
    .fil2 {fill:#CFB175}
    .fil51 {fill:#D2D7DD}
    .fil5 {fill:#DF7E77}
    .fil3 {fill:#DFE9EB}
    .fil34 {fill:#E09474}
    .fil44 {fill:#E0E7ED}
    .fil1 {fill:#E6E6E6}
    .fil42 {fill:#E6EEF1}
    .fil21 {fill:#EC9956}
    .fil29 {fill:#ECB31E}
    .fil25 {fill:#EDD89F}
    .fil12 {fill:#EFEFEF}
    .fil43 {fill:#F1FAFF}
    .fil0 {fill:#F2F2F2}
    .fil48 {fill:#F2FBFF}
    .fil9 {fill:white}
    .fil58 {fill:white}
    .fil64 {fill:#063497;fill-rule:nonzero}
    .fil19 {fill:#464646;fill-rule:nonzero}
    .fil65 {fill:white;fill-rule:nonzero}
    .fil60 {fill:#B3B3B3}
   ]]>
  </style>
   <mask id="id0">
  <linearGradient id="id1" gradientUnits="userSpaceOnUse" x1="25643.5" y1="16076.9" x2="30476.7" y2="16076.9">
   <stop offset="0" style="stop-opacity:0; stop-color:white"/>
   <stop offset="1" style="stop-opacity:1; stop-color:white"/>
  </linearGradient>
    <rect style="fill:url(#id1)" x="25633" y="14763" width="4854" height="2628"/>
   </mask>
 </defs>
 <g id="Слой_x0020_1">
  <metadata id="CorelCorpID_0Corel-Layer"/>
  <rect class="fil0" x="2" width="48840" height="19579"/>
  <path class="fil1" d="M3182 16038l13 -4103 -557 -5 -42 249 -222 3c-66,182 -114,233 -121,380 -6,151 4,336 4,492l0 3046 -455 6 -3 -2338c-49,-115 -106,-67 -225,-140 -147,-91 -359,-248 -477,118 -30,96 -21,216 -20,323l2 2016 -697 23c-42,84 -17,75 -47,171l-28 76c-7,29 -14,-5 -5,62 14,104 26,19 47,170l-1 101 -346 0 0 2891 48840 0 0 -1028 42 0 0 -848 -42 0 0 -1015 -190 0 0 -10 -525 -2 -2 -1629c-6,-7 -20,-22 -23,-15 -1,0 -113,-9 -114,-248l0 -1542c-101,-33 -158,-45 -173,-113l-1 -1864c-773,-111 -477,171 -743,59 28,-123 130,-223 189,-338 -91,-157 -228,-350 -369,-461l-388 461c78,122 177,191 206,338 -83,36 -61,47 -162,4 -36,-15 -57,-139 -581,-63l1 1864c-16,73 -9,37 -170,113l-5 1735 -225 16 0 -1713c-14,-63 -6,-27 -124,-88l-54 -1939c-99,0 -376,-13 -449,6 -70,18 -52,24 -77,37 -15,8 -79,102 -217,28 38,-165 134,-181 208,-338 -118,-155 -254,-316 -394,-474 -132,163 -266,326 -383,474 79,158 165,166 212,338 -142,73 -199,-16 -221,-28 -28,-15 -6,-19 -77,-37 -70,-18 -353,-7 -443,-6l-6 1914c-58,49 -158,32 -175,113l1 1654c-8,7 -23,3 -28,17 -54,190 -109,-297 -109,810 0,301 -12,629 5,927l-39 0c-115,-12 -249,-44 -318,-108l-86 -116c-111,196 -29,130 -356,224l-795 0c-7,-56 -9,-135 -6,-252 2,-108 -73,-182 -118,-265 -221,-411 233,-454 -126,-973 -64,-92 29,-42 -103,-75 -357,420 -62,763 -72,826l-205 331c-155,244 -8,93 -28,383 -79,19 27,-36 -100,1l-7 24 -274 0c18,-301 59,-495 -24,-626 5,-7 16,-25 19,-19l103 -132c-145,-229 -158,133 -157,-502 -78,15 -108,-63 -202,267l5 150c-332,25 -230,1 -352,-120 -15,201 -49,126 -285,126 -54,-51 -28,25 -75,-110 -50,114 -11,44 -76,110l-300 -108c-56,167 20,106 -198,107l7 -151 -38 -446c-53,49 -64,61 -154,82 10,-152 -26,-267 -10,-421 20,-206 70,-140 45,-375 -133,-93 27,38 -123,-37 -26,-212 -75,-141 -48,-433 17,-189 -2,-263 -183,-306 7,-174 -29,-222 -48,-380 -10,-86 -12,-368 -11,-498l156 -60c-180,-84 -105,18 -169,-112 -45,134 39,49 -104,89 7,7 20,6 23,22 16,78 153,145 15,687 -3,9 -5,20 -7,29l-28 161c-3,9 -6,19 -10,27 -46,101 -82,17 -129,205 -24,95 2,106 8,231 17,320 -135,306 -182,432 -35,154 30,154 44,324 14,167 -24,256 -11,415 -161,-27 -56,37 -156,-80 -18,156 -44,127 -51,192 -5,47 18,169 17,273l-739 -2 -2 -3415c-299,-21 -329,64 -370,-230l-321 -1 1 -402c-144,54 -71,-65 -93,199 -16,182 60,122 -64,205 -94,-56 -56,4 -101,-179 -24,-95 -22,-139 -22,-249l4 -1094c4,-443 -85,-109 -105,-448 -9,-147 16,-100 -30,-233 -4,-9 -9,-18 -12,-26l-22 -55c-21,-78 -12,-59 -16,-138l-190 -946c-50,-214 -54,-236 -68,-481l-723 1c-31,501 -146,714 -172,1012 -7,77 2,58 -17,137l-108 497c-44,117 -4,278 -54,403l-16 -3386 -211 -50 -43 -925c-124,-61 -131,-39 -275,-38 -92,-154 66,-144 -150,-144 -218,0 -50,-8 -151,143l-522 4 -37 972 -212 9 -5 5123 -415 -3c2,-322 49,-183 72,-312 22,-125 -25,-95 -82,-203 -37,-71 3,-27 -39,-74l-940 0c-130,52 -15,-22 -81,98 -4,7 -9,18 -13,26l-25 54c-65,183 47,195 45,414l-627 6 22 3196c-18,240 76,369 -225,369l-2 -1503 -623 -6c-10,-422 -175,-213 -83,-634 -8,-6 -22,-22 -26,-14l-107 -83c-30,-30 -6,-13 -49,-59 -3,-4 -75,-68 -77,-69 0,-203 -36,-587 39,-752 70,-154 29,-174 -1,-275 -57,-200 5,-519 -21,-681 -1,-5 -3,-15 -4,-20l-44 -165c-40,-287 111,-511 31,-711 -54,4 -9,-83 -70,112 -57,-247 -52,-493 -93,-737 -3,-13 -4,-21 -7,-34l-15 -66c-55,-221 -13,-115 -154,-243l31 -225c-10,-7 -21,-26 -24,-19l-59 -57c-36,-35 -43,-43 -72,-75 19,-251 36,-437 -73,-554 -88,174 -32,352 -22,554l-170 150 36 225c-148,129 -166,149 -195,446 -19,206 -47,417 -63,622l-96 -113c-55,276 106,351 -3,890 -2,10 -9,68 -8,118 12,628 -46,510 -63,714 -15,187 24,85 56,189l19 88c2,11 2,21 3,32l6 587c-139,113 -22,170 -266,175 61,314 2,282 -64,509 -26,89 2,84 -34,171l-154 8 -4 -3445c-48,-1 -149,2 -181,-2 -270,-35 -41,-9 -174,-65 -130,-54 -218,-31 -377,-35 -11,-275 -73,-1963 34,-2121 173,-257 -10,104 73,-83l-156 -46c-44,-6 -115,-2 -174,-8 -21,-184 -13,-50 -10,-247 -222,-99 -171,-97 -324,-320l-229 -338c-38,-40 -27,-28 -68,-61l-389 580c-93,120 -69,75 -191,139l-11 256 -332 4c45,347 121,-310 120,831l1 2935c-191,-9 -84,-39 -243,-70 -58,-12 -224,-8 -294,-8l-119 -193c-54,-63 -82,-72 -75,-368l0 -2522c0,-253 35,-568 -37,-785l-20 -56c-32,-126 0,-181 -62,-276 -138,-211 -88,46 -151,-306 -44,-242 -78,-59 -138,-275 -22,-79 2,-79 -29,-158 -37,-97 -54,-62 -96,-123 -134,-195 49,-284 -378,-486l-6 -1427c-101,132 -42,1157 -50,1416 -79,41 -243,152 -284,244 -47,106 -6,107 -52,212 -60,137 -70,31 -120,187 -39,120 14,94 -48,207 -68,123 -70,-5 -113,200 -49,235 -35,243 -218,331 -3,241 -79,377 -77,605 4,573 65,4284 -56,4553 -56,125 56,55 -90,100 -63,-87 -40,-80 -40,-216l-208 -26c-8,-2 -20,-6 -30,-11l-4 -4037 -235 -22c2,-274 43,-922 -2,-1167 -48,-265 -139,-32 -146,-614 -132,-50 -229,-138 -381,-219 -273,-146 -83,-204 -195,-389l-30 311c-180,102 -357,194 -515,324 -10,167 23,282 -49,404 -100,167 -104,16 -103,331 0,314 1,628 1,942 -26,117 -135,66 -249,113l-7 5442c-171,-10 -140,-184 -624,21l-144 95 0 -1536c2,-118 8,-263 -59,-319l-109 -56 -1 -704 -588 -8 -7 438 -283 -3 -14 -436 -600 1 -3 712 -96 59c-67,68 -18,-100 -54,92l0 2707c-33,88 10,55 -75,84l0 661 -165 0c-58,-999 102,-3124 8,-4011 -75,-702 -31,-3367 -35,-4287l-590 -7 2 -1200c-393,34 -1037,252 -1384,392l-5 494 -258 7 -7 4144c-154,91 -79,11 -188,76l-5 299 -415 2 0 3256 -291 0 -19 -3254 -411 -6c-5,-147 13,-203 -39,-334 -3,-8 -8,-17 -12,-25l-59 -133c-92,38 -15,-34 -91,105l-1341 57 -5 -329 -161 1 -14 327 -334 3 -7 329 -411 1 -2 3988 -346 0 -14 -4300c-172,-40 -35,34 -183,-89l-856 -875c-204,-262 -428,-403 -539,-592 -7,2 -19,-4 -22,5l-210 30c0,2013 -29,4227 0,6234 8,532 20,345 -88,395 -86,-39 -100,2 -93,-319 2,-126 2,-251 2,-377 0,-1575 55,-3888 -4,-5284l-388 -20 5 -2370 -214 2 0 667 -332 9c-3,461 -75,230 -107,378l-1 979c-47,286 -52,-41 -100,227 -60,338 60,953 -23,1296l-378 -2 -20 -649 -369 -3 3 -3212 -689 4 -1 1313 -276 1 -1 2282 -244 17 -10 252 -271 -5 3 2905 -659 14 -4 1061 -764 -535 -1627 724zm35241 -1892c7,-174 23,-85 46,-124 93,71 109,209 0,264 -28,-38 -51,-6 -46,-140zm8233 -3160c56,-93 153,-201 235,-270 78,70 179,179 237,270 -46,89 8,0 -61,101l-176 166c-100,-52 -187,-170 -235,-267zm-2425 0c78,-92 131,-191 234,-281 42,64 191,233 236,281 -72,142 -130,225 -254,264 -94,-77 -160,-153 -216,-264z"/>
  <rect class="fil2" y="17625" width="48840" height="102"/>
  <g id="_2997090419104">
   <path class="fil3" d="M22430 15903c49,2 131,5 188,3 56,-1 88,-7 105,-15 18,-7 23,-16 15,-33 -8,-16 -29,-39 -58,-70 -29,-31 -66,-68 -104,-100 -39,-32 -78,-57 -117,-81 -40,-25 -79,-48 -116,-69 -38,-20 -72,-38 -107,-53 -34,-15 -69,-27 -93,-35 -25,-8 -39,-11 -57,-13 -18,-1 -41,-1 -68,-1 -28,0 -61,1 -85,4 -24,4 -39,10 -51,19 -11,8 -18,18 -18,34 -1,17 5,42 23,72 18,30 48,65 82,100 35,34 74,68 118,102 44,34 93,69 138,91 45,23 86,32 114,37 28,5 43,6 91,8z"/>
   <rect class="fil4" x="16166" y="13510" width="526" height="562" rx="62" ry="59"/>
   <polygon class="fil5" points="16237,13510 16620,13510 16620,13798 16237,13798 "/>
   <path class="fil6" d="M11438 15235c-16,-13 -22,-41 -24,-70 -3,-30 -3,-61 2,-89 6,-28 16,-53 29,-72 13,-20 29,-34 48,-44 19,-10 41,-15 190,-17 149,-2 426,0 570,-1 144,-1 155,-3 256,-42 100,-40 289,-115 522,-206 232,-92 509,-198 781,-294 272,-96 541,-181 776,-242 234,-61 435,-99 625,-128 190,-30 370,-51 544,-63 95,-7 188,-11 283,-13 0,-2 0,-4 0,-5l0 0c0,-37 30,-67 66,-67l618 0c37,0 66,30 66,67l0 0c0,8 -1,15 -4,22 31,3 61,5 90,8 194,20 376,53 552,94 176,42 346,93 520,160 173,67 349,150 528,250 178,100 359,216 522,322 163,106 308,203 380,251 72,48 72,48 72,48 0,0 0,0 0,0 0,0 0,0 348,39 348,38 1044,115 1482,172 438,58 618,96 708,114 90,19 90,19 90,19 0,0 0,0 -31,0 -30,0 -91,0 -124,10 -33,10 -37,29 -18,70 18,42 58,104 109,158 50,54 110,100 164,134 55,34 105,56 197,66 93,11 228,9 296,9 68,-1 68,-1 68,-1 0,0 0,0 0,0 0,0 0,0 10,20 11,19 32,58 39,120 8,61 3,144 0,186 -2,42 -2,42 -2,42 0,0 0,0 6,0 7,0 20,0 26,0 7,0 7,0 7,0 0,0 0,0 0,48 0,49 0,147 0,196 0,49 0,49 0,49 0,0 0,0 0,0 0,0 0,0 -6,-1 -6,-2 -18,-4 -23,-6 -6,-1 -6,-1 -6,-1 0,0 0,0 0,0 0,0 0,0 0,35 0,35 0,106 -4,161 -4,56 -12,96 -25,131 -13,35 -31,65 -53,89 -23,25 -49,43 -83,58 -33,16 -75,29 -187,42 -111,13 -292,26 -383,33 -90,6 -90,6 -90,6 0,0 0,0 -14,-6 -14,-7 -41,-20 -55,-26 -13,-7 -13,-7 -13,-7 0,0 0,0 -11,1 -10,0 -31,2 -42,2 -10,1 -10,1 -284,10 -275,9 -823,28 -1098,37 -274,9 -274,9 -274,9 0,0 0,0 -3,7 -2,7 -8,22 -10,29 -3,7 -3,7 -3,7 0,0 0,0 -935,-11 -935,-10 -2806,-31 -3778,-43 -972,-13 -1046,-17 -1084,-18 -37,-2 -37,-2 -279,-7 -243,-5 -727,-14 -1060,-27 -333,-13 -515,-30 -748,-55 -233,-26 -519,-59 -686,-83 -168,-23 -217,-36 -257,-54 -40,-18 -70,-40 -89,-63 -20,-22 -29,-46 -29,-180 0,-134 9,-379 18,-514 9,-135 19,-160 57,-206 38,-45 106,-112 209,-203 102,-91 239,-207 314,-281 75,-73 88,-105 87,-130 -1,-25 -15,-45 -47,-59 -32,-15 -81,-24 -141,-21 -60,4 -131,19 -180,28 -48,8 -76,10 -92,-3z"/>
   <path class="fil7" d="M22304 15874c21,5 44,9 71,12l13 2 0 0 -688 215 0 -39 604 -190z"/>
   <path class="fil7" d="M11337 15852c10,-11 21,-22 33,-34l1181 198 356 180 -20 36 -367 -184 -1183 -196z"/>
   <path class="fil8" d="M21901 15470c-11,12 -9,30 4,58 18,42 58,104 109,158 26,29 55,55 85,78l7 8c0,0 0,0 -93,-2 -92,-2 -278,-6 -370,-9 -93,-2 -93,-2 -93,-2 0,0 0,0 -26,-13 -27,-13 -80,-39 -135,-56 -54,-18 -110,-28 -179,-35 -68,-7 -149,-12 -222,-6 -73,5 -138,20 -187,33 -49,13 -82,25 -99,31 -17,6 -17,6 -17,6 0,0 0,0 -171,-4 -172,-4 -515,-12 -687,-16 -172,-4 -172,-4 -172,-4 0,0 0,0 0,0 0,0 0,0 -11,-36 -12,-35 -35,-106 -61,-172 -27,-65 -57,-127 -94,-182 -36,-56 -79,-107 -100,-132 -22,-25 -22,-25 -22,-25 0,0 0,0 66,3 66,4 198,11 345,20 148,9 311,20 481,35 170,16 347,37 517,58 171,22 335,45 489,70 153,25 295,52 413,79 94,21 172,42 223,57z"/>
   <path class="fil4" d="M11527 15168c56,-6 139,-12 201,-12 62,-1 102,3 138,13 35,11 65,28 87,49 22,20 36,45 44,60 7,14 7,18 1,28 -6,9 -18,25 -54,57 -37,32 -98,80 -164,134 -66,53 -136,112 -195,159 -58,46 -105,82 -140,108 -36,27 -59,45 -71,54 -11,10 -11,10 -11,10 0,0 0,0 5,-98 6,-98 18,-293 26,-400 9,-106 14,-123 31,-135 17,-13 46,-20 102,-27z"/>
   <path class="fil9" d="M11992 15268c2,4 3,7 5,10 7,14 7,18 1,28 -5,8 -15,21 -40,45l-565 0 1 -21c2,-25 4,-45 6,-62l592 0zm-337 331c-24,20 -48,39 -70,57 -11,8 -21,17 -32,25l-182 0 5 -82 279 0z"/>
   <circle class="fil10" cx="13656" cy="16742" r="892"/>
   <circle class="fil11 str0" cx="13656" cy="16742" r="626"/>
   <path class="fil12" d="M16743 15135c14,59 40,165 64,296 24,132 47,290 59,469 12,180 15,382 13,513 0,28 -1,53 -2,75l-1703 0 3 23 1699 -2c-1,37 -4,66 -7,92l-1692 0 0 67 1683 0c-9,61 -22,124 -29,156 -6,32 -6,32 -6,32 0,0 0,0 0,0 0,0 0,0 -297,0 -297,0 -892,0 -1189,0 -297,0 -297,0 -297,0 0,0 0,0 0,0 0,0 0,0 -28,-70 -28,-70 -84,-209 -189,-408 -105,-200 -259,-459 -402,-682 -144,-223 -277,-409 -351,-514 -75,-105 -92,-129 -87,-140 5,-12 32,-12 488,-6 455,7 1339,20 1786,23 447,3 458,-3 464,0 5,3 7,16 20,76zm77 62c17,75 44,200 65,339 21,138 35,289 42,408 7,119 7,207 5,314 -1,72 -3,153 -7,230l2665 0c2,-20 3,-41 4,-62 8,-175 6,-385 -3,-542 -8,-157 -22,-261 -53,-352 -31,-92 -78,-170 -127,-232 -48,-63 -99,-110 -125,-133 -25,-24 -25,-24 -25,-24 0,0 0,0 0,0 0,0 0,0 0,0 0,0 0,0 -411,-12 -411,-11 -1234,-35 -1645,-46 -411,-12 -411,-12 -411,-12 0,0 0,0 2,12 3,13 8,37 24,112zm103 1311c-1,30 -4,59 -6,86l-1 7 2665 0c3,-30 6,-63 8,-97l-2666 4zm-15 160c-8,67 -19,118 -24,148 -8,40 -8,40 -8,40 0,0 0,0 0,0 0,0 0,0 445,4 445,5 1335,14 1780,19 445,4 445,4 445,4 0,0 0,0 0,0 0,0 0,0 10,-70 5,-34 12,-83 19,-145l-2667 0z"/>
   <rect class="fil11" x="14357" y="15222" width="587" height="131"/>
   <rect class="fil13" x="14438" y="15266" width="426.209" height="43.0111"/>
   <rect class="fil11" x="16994" y="15270" width="587" height="131"/>
   <rect class="fil13" x="17074" y="15314" width="426.209" height="43.0111"/>
   <polygon class="fil14" points="13515,17256 13810,17257 13668,16869 "/>
   <polygon class="fil14" points="13169,16909 13329,17157 13578,16828 "/>
   <polygon class="fil14" points="14152,16909 13992,17158 13743,16828 "/>
   <polygon class="fil14" points="14105,16444 14207,16721 13794,16721 "/>
   <polygon class="fil14" points="13212,16442 13110,16719 13523,16719 "/>
   <polygon class="fil14" points="13999,16320 13728,16201 13704,16614 "/>
   <polygon class="fil14" points="13304,16320 13575,16202 13599,16614 "/>
   <path class="fil15" d="M14114 14991c159,8 450,8 595,8 145,0 145,0 145,0 0,0 0,0 0,0 0,0 0,0 -21,-129 -22,-128 -65,-385 -86,-513 -22,-129 -22,-129 -22,-129 0,0 0,0 0,0 0,0 0,0 -75,21 -75,21 -225,63 -337,99 -113,35 -189,65 -251,99 -63,33 -112,69 -149,109 -36,40 -60,83 -71,128 -11,46 -10,94 2,139 12,45 34,87 59,116 25,28 52,44 211,52z"/>
   <path class="fil16" d="M14580 14998c49,1 93,1 129,1 145,0 145,0 145,0 0,0 0,0 0,0 0,0 0,0 -21,-129 -22,-128 -65,-385 -86,-513 -22,-129 -22,-129 -22,-129 0,0 0,0 0,0 0,0 0,0 -75,21 -75,21 -225,63 -337,99 -71,22 -127,42 -174,62l441 588z"/>
   <path class="fil15" d="M14841 14396c24,131 65,367 87,485 21,118 23,118 23,118 1,0 1,0 1,0 0,0 0,0 255,3 256,3 767,10 1022,13 256,3 256,3 256,3 0,0 0,0 0,0 0,0 0,0 -15,-163 -14,-164 -43,-491 -57,-655 -14,-163 -14,-163 -14,-163 0,0 0,0 0,0 0,0 0,0 -82,3 -81,3 -244,10 -416,21 -172,11 -353,27 -518,47 -164,21 -311,47 -404,66 -93,18 -133,28 -152,33 -20,6 -20,6 -20,6 0,0 0,0 3,13 3,13 8,39 31,170z"/>
   <path class="fil16" d="M14841 14396c24,131 65,367 87,485 21,118 23,118 23,118 1,0 1,0 1,0 0,0 0,0 255,3l321 4 -639 -814c-32,7 -51,12 -62,15 -20,6 -20,6 -20,6 0,0 0,0 3,13 3,13 8,39 31,170z"/>
   <path class="fil15" d="M16744 14385c61,156 155,395 202,514 47,119 47,119 47,119 0,0 0,0 0,0 0,0 0,0 0,0 0,0 0,0 291,4 290,4 872,12 1162,16 291,4 291,4 291,4 0,0 0,0 0,0 0,0 0,0 0,-37 0,-36 0,-109 -1,-148 0,-38 -2,-42 -2,-44 -1,-2 -1,-2 -1,-2 0,0 0,0 -33,-29 -33,-30 -100,-88 -202,-155 -103,-66 -241,-141 -399,-212 -158,-71 -337,-138 -487,-183 -151,-45 -274,-68 -397,-87 -123,-20 -247,-37 -345,-47 -99,-10 -171,-14 -208,-16 -36,-2 -36,-2 -22,35 14,37 43,111 104,268z"/>
   <path class="fil16" d="M18737 14957c0,-35 0,-75 -1,-100 0,-38 -2,-42 -2,-44 -1,-2 -1,-2 -1,-2 0,0 0,0 -33,-29 -33,-30 -100,-88 -202,-155 -62,-40 -137,-83 -222,-127l461 457z"/>
   <path class="fil16" d="M16744 14385l36 90 536 547 1024 14 -797 -824c-120,-32 -224,-51 -328,-67 -123,-20 -247,-37 -345,-47 -99,-10 -171,-14 -208,-16 -36,-2 -36,-2 -22,35 14,37 43,111 104,268z"/>
   <path class="fil8" d="M13507 15020l-2066 -10c-11,19 -20,41 -25,66 -4,25 -5,53 -3,79 57,-9 124,-20 180,-26 89,-11 150,-12 201,-7 51,6 91,17 122,31 30,14 51,29 69,48 17,18 32,39 41,59 9,21 13,42 12,58 0,15 -6,26 -8,31l-3 5 93 22c92,21 277,64 424,87 147,23 255,26 531,30 276,5 721,11 943,14l222 4 -52 -82 -208 -326 -52 -81 -421 -2z"/>
   <path class="fil13" d="M13656 15773c-536,0 -970,434 -970,969 0,106 17,208 48,303 27,2 55,3 84,5 -35,-96 -54,-200 -54,-308 0,-492 399,-891 892,-891 492,0 891,399 891,891 0,126 -26,246 -73,354 23,1 50,1 84,2 43,-110 67,-230 67,-356 0,-535 -434,-969 -969,-969z"/>
   <circle class="fil10" cx="21061" cy="16750" r="892"/>
   <circle class="fil11 str0" cx="21061" cy="16750" r="626"/>
   <polygon class="fil14" points="20920,17264 21216,17265 21073,16877 "/>
   <polygon class="fil14" points="20575,16916 20734,17165 20984,16835 "/>
   <polygon class="fil14" points="21558,16917 21398,17165 21149,16836 "/>
   <polygon class="fil14" points="21511,16452 21613,16729 21200,16728 "/>
   <polygon class="fil14" points="20617,16450 20515,16727 20929,16726 "/>
   <polygon class="fil14" points="21405,16328 21134,16209 21110,16622 "/>
   <polygon class="fil14" points="20710,16328 20981,16210 21005,16622 "/>
   <path class="fil13" d="M21061 15781c-535,0 -969,434 -969,969 0,76 8,149 25,220 2,14 6,29 9,42 5,21 11,37 16,51 6,14 11,27 17,38 5,8 10,15 14,22l1 -2 75 -1c-6,-15 -15,-40 -24,-68 -12,-33 -24,-70 -33,-107 -5,-21 -9,-43 -12,-61 -7,-44 -10,-88 -10,-134 0,-492 399,-891 891,-891 493,0 892,399 892,891 0,126 -26,246 -73,354 23,0 50,1 84,2 43,-110 67,-230 67,-356 0,-535 -434,-969 -970,-969z"/>
   <circle class="fil17 str1" cx="13657" cy="16725" r="80"/>
   <circle class="fil17 str1" cx="21070" cy="16741" r="80"/>
   <path class="fil18" d="M21989 15530c-6,15 17,51 41,85 25,33 52,64 86,94 34,30 73,59 110,81 38,22 72,36 110,46 38,10 79,15 99,18 21,2 21,2 21,2 0,0 0,0 -66,-54 -65,-54 -196,-162 -279,-220 -82,-58 -116,-66 -122,-52z"/>
   <ellipse class="fil3" cx="22582" cy="16704" rx="88" ry="138"/>
   <path class="fil7" d="M16723 14812c-39,-164 -113,-478 -155,-636 -16,-58 -27,-95 -35,-119 -4,-1 -8,-1 -12,-3 -4,-1 -8,-3 -13,-5 5,24 12,63 26,127 34,164 106,493 142,657 36,164 36,164 36,164 0,0 0,0 9,1 9,1 27,2 36,3 10,0 10,0 10,0 0,0 0,0 -2,-6 -1,-7 -4,-20 -42,-183z"/>
   <path class="fil17 str2" d="M16654 14997c-792,-12 -1662,-15 -2123,-20 -461,-5 -515,-10 -553,-20 -39,-9 -62,-24 -81,-41 -19,-17 -33,-36 -44,-63 -11,-27 -19,-60 -18,-98 1,-37 12,-77 30,-116 18,-38 44,-75 79,-107 34,-33 77,-61 135,-89 57,-27 129,-53 240,-88 110,-36 260,-80 415,-119 155,-39 316,-73 470,-98 155,-25 303,-40 479,-54 176,-15 380,-28 538,-32 158,-4 272,2 412,14 140,12 307,32 466,58 160,26 313,59 450,96 138,37 260,79 392,131 133,53 275,117 402,187 127,69 239,145 307,196 67,51 91,77 119,110 28,33 61,74 81,108 21,35 30,63 33,78 3,14 -1,14 -361,5 -360,-9 -1075,-27 -1868,-38z"/>
   <path class="fil19" d="M15347 15610c42,0 82,10 120,28 38,19 68,46 91,81 22,35 33,78 33,128 0,51 -11,94 -33,129 -23,36 -53,62 -91,80 -38,19 -78,28 -120,28l-161 0 0 284 -160 0 0 -758 321 0zm-31 331c35,0 62,-8 80,-24 18,-16 27,-39 27,-70 0,-31 -9,-54 -27,-70 -18,-17 -45,-25 -80,-25l-130 0 0 189 130 0z"/>
   <path id="1" class="fil19" d="M16323 15992c0,-39 -8,-78 -25,-115 -17,-37 -42,-66 -76,-89 -34,-24 -77,-37 -128,-38 -50,0 -92,12 -125,35 -35,24 -60,54 -76,91 -17,36 -26,74 -26,116 0,42 9,81 26,117 16,37 41,67 76,90 33,24 75,36 125,36 51,-2 94,-14 128,-38 34,-23 59,-52 76,-89 17,-37 25,-76 25,-116zm-228 -396c110,0 203,39 281,116 77,78 116,171 116,281 0,109 -39,202 -116,279 -78,78 -171,117 -281,117 -109,0 -202,-39 -279,-117 -78,-77 -116,-170 -116,-279 0,-110 38,-203 116,-281 77,-77 170,-116 279,-116z"/>
   <polygon id="2" class="fil19" points="17051,16369 16601,16369 16601,15610 16762,15610 16762,16226 17051,16226 "/>
   <polygon id="3" class="fil19" points="17372,15610 17372,16369 17212,16369 17212,15610 "/>
   <path id="4" class="fil19" d="M17671 16033c4,33 13,64 27,91 19,37 46,65 79,84 33,19 71,29 113,29 45,0 85,-10 119,-31 33,-22 58,-50 74,-84l124 77c-22,60 -62,106 -119,140 -57,33 -123,50 -197,50 -71,0 -137,-16 -196,-48 -60,-31 -107,-76 -141,-135 -35,-59 -52,-130 -52,-212 0,-82 17,-153 52,-212 34,-59 81,-104 141,-135 59,-32 125,-47 196,-47 74,0 140,16 197,49 57,34 97,80 119,140l-124 77c-16,-34 -41,-62 -74,-84 -34,-21 -74,-31 -119,-31 -42,0 -80,10 -113,29 -33,19 -60,47 -79,84 -14,27 -23,58 -27,91 -1,21 -1,47 0,78z"/>
   <polygon id="5" class="fil19" points="18804,16369 18329,16369 18329,15610 18793,15610 18793,15752 18489,15752 18489,15914 18761,15914 18761,16054 18489,16054 18489,16227 18804,16227 "/>
  </g>
  <g id="_2997090472960">
   <path class="fil20" d="M23240 13619l179 0c1,-7 3,-14 4,-20 4,-14 7,-28 11,-39 7,-23 15,-39 28,-54 12,-15 30,-29 45,-43 16,-14 29,-28 39,-44 10,-15 17,-31 15,-44 -3,-14 -14,-24 -24,-29 -10,-6 -18,-6 -22,-6 -3,0 -3,0 -4,-54 -1,-55 -3,-165 -7,-226 -3,-61 -7,-74 -15,-83 -7,-9 -17,-13 -27,-15 -11,-1 -23,1 -34,7 -10,6 -20,16 -25,43 -6,27 -6,72 -6,95 -1,22 -1,22 -14,25 -14,4 -42,10 -61,17 -19,6 -30,13 -53,17 -23,5 -59,7 -81,10 -23,3 -34,7 -39,39 -5,32 -5,93 -2,142 3,48 10,84 20,113 10,28 24,49 36,68 12,19 22,36 29,54 1,2 2,4 3,6 2,7 4,14 5,21z"/>
   <path class="fil21" d="M23240 13619l46 0c-4,-13 -8,-28 -13,-40 -5,-12 -10,-22 -16,-32 -6,-10 -14,-20 -22,-33 -9,-13 -18,-29 -27,-50 -9,-22 -16,-48 -22,-78 -4,-31 -7,-64 -8,-93 0,-28 0,-50 3,-65 3,-15 9,-22 18,-28 10,-5 23,-8 35,-7 11,1 21,6 30,7 9,2 18,1 27,-3 9,-4 18,-11 27,-17 9,-5 18,-9 29,-8 11,0 23,5 33,5 10,-1 18,-7 22,-15 5,-8 7,-17 8,-36 2,-18 3,-46 5,-69 2,-23 5,-41 10,-55 4,-13 10,-21 17,-26 8,-5 17,-7 28,-6 5,0 10,1 15,2 -7,-5 -15,-9 -23,-10 -11,-1 -23,1 -34,7 -10,6 -20,16 -25,43 -6,27 -6,72 -6,95 -1,22 -1,22 -14,25 -14,4 -42,10 -61,17 -19,6 -30,13 -53,17 -23,5 -59,7 -81,10 -23,3 -34,7 -39,39 -5,32 -5,93 -2,142 3,48 10,84 20,113 10,28 24,49 36,68 12,19 22,36 29,54 1,2 2,4 3,6 2,7 4,14 5,21z"/>
   <path class="fil22" d="M23185 13597l0 131c0,131 0,393 5,538 4,145 13,173 29,195 15,21 37,35 129,42 93,7 258,7 340,7l82 0 -1 147 -1 592 0 137 101 0c28,0 28,0 29,13 0,6 0,15 0,30 21,3 43,7 68,12 63,11 141,22 252,33 15,1 31,3 48,4l0 -13 63 0c7,28 19,54 36,66 25,18 63,6 93,-7 30,-12 51,-24 69,-51 1,-2 3,-5 4,-8l60 0 0 18c0,0 1,0 2,0l106 0c7,0 13,2 18,6 34,-1 67,-3 98,-5 3,-8 13,-8 46,-7l35 0c33,-3 61,-6 85,-10 24,-3 42,-7 55,-10 10,-4 18,-8 24,-12 1,-55 3,-55 15,-56 6,0 16,0 25,0 1,-15 1,-46 1,-128l0 -535 0 -133 43 24 156 87 0 -482c-30,-15 -72,-35 -109,-51 -43,-18 -80,-32 -119,-45 -39,-13 -79,-25 -121,-36 -41,-10 -84,-17 -124,-25 -39,-7 -75,-15 -104,-20 -28,-6 -50,-11 -75,-18 -5,-1 -9,-3 -14,-4 -10,-3 -22,-7 -33,-10l0 -6 0 -48c-1,0 -2,0 -2,0 -5,3 -9,6 -14,9 -16,10 -30,15 -49,20 -20,4 -45,8 -70,10 -26,2 -52,2 -78,0 -26,-2 -52,-7 -72,-12 -19,-5 -32,-11 -41,-16 -5,-3 -9,-6 -13,-8 -1,-1 -1,-1 -1,-1l0 51c-6,2 -11,5 -16,7 -8,5 -16,10 -24,16 -30,10 -66,20 -128,33 -84,18 -214,40 -310,55 -95,15 -156,23 -196,27 -39,4 -58,5 -72,6 -13,1 -21,1 -25,1 -5,0 -6,0 -7,-93 -1,-93 -1,-279 -1,-372l0 -93 -49 0 -10 0 -188 -1 0 0 -50 -1z"/>
   <path class="fil23" d="M25103 14594l41 23 156 87 0 -47 -15 -5c-36,-13 -109,-37 -146,-50 -36,-12 -36,-12 -36,-12l0 4z"/>
   <path class="fil23" d="M23185 13597l0 131c0,131 0,393 5,538 4,145 13,173 29,195 15,21 37,35 129,42 93,7 258,7 340,7l80 0c-2,-14 -8,-18 -15,-21 -9,-4 -19,-8 -43,-10 -25,-3 -63,-5 -124,-8 -60,-4 -144,-9 -200,-14 -57,-4 -86,-9 -106,-15 -20,-6 -29,-14 -36,-24 -7,-10 -11,-22 -17,-156 -6,-134 -13,-391 -19,-523 -5,-106 -9,-132 -14,-141l-9 -1z"/>
   <polygon class="fil20" points="24261,13936 24601,13936 24601,14042 24459,14170 24411,14170 24261,14032 "/>
   <path class="fil24" d="M24236 13937c-2,3 8,11 16,17 8,6 14,10 23,16 9,5 22,11 41,16 20,5 46,10 72,12 26,2 52,2 78,0 25,-2 50,-6 70,-10 19,-5 33,-10 49,-20 16,-10 34,-25 43,-32 9,-8 9,-8 9,-8 0,0 0,0 -9,2 -8,2 -24,5 -56,9 -32,4 -80,8 -124,9 -45,0 -87,-3 -117,-5 -30,-3 -48,-4 -64,-6 -15,-1 -29,-3 -31,0z"/>
   <path class="fil20" d="M23860 13205c-3,24 -8,56 -11,73 -3,16 -3,16 -3,16 0,0 0,0 -2,0 -2,0 -6,0 -12,2 -6,1 -14,5 -22,12 -7,8 -15,19 -19,35 -5,17 -6,39 -5,57 0,19 3,35 7,50 4,15 10,28 18,37 7,10 17,16 27,20 10,4 20,7 32,8 11,1 24,1 30,1 6,-1 6,-1 6,-1 0,0 0,0 1,25l1 21c2,14 4,32 7,49 5,26 11,49 18,72 7,23 16,45 24,64 9,19 18,36 28,49 9,14 19,26 32,40 13,13 29,28 45,41 16,12 31,22 48,31 18,10 37,19 59,28 22,8 45,16 68,21 22,5 42,9 62,11 19,2 38,2 63,3 25,0 56,1 89,0 33,-1 67,-3 100,-6 33,-3 64,-6 93,-13 29,-7 56,-16 82,-29 25,-13 49,-29 69,-43 20,-15 36,-28 51,-45 15,-16 28,-37 41,-58 14,-21 27,-42 39,-65 12,-24 23,-50 31,-76 8,-25 14,-50 19,-73 4,-23 7,-45 9,-56 1,-11 1,-11 1,-11 0,0 0,0 3,1 2,1 6,2 14,2 7,1 18,0 31,-3 2,-1 4,-2 6,-2 5,-2 9,-5 12,-9 11,-9 18,-24 22,-44 5,-19 7,-43 8,-65 1,-22 0,-42 -4,-57 -5,-16 -13,-28 -20,-35 -6,-7 -11,-8 -13,-9 -2,-1 -2,-1 -3,-16 0,-15 -1,-45 -1,-60 -1,-15 -1,-15 -2,-35 0,-20 -2,-61 -8,-91 -5,-29 -14,-48 -51,-64 -37,-17 -103,-30 -209,-37 -106,-7 -252,-7 -373,-5 -121,2 -215,7 -286,15 -71,7 -118,17 -150,33 -32,15 -49,35 -62,59 -14,24 -23,51 -29,72 -5,22 -7,36 -11,60z"/>
   <path class="fil21" d="M23827 13297c-5,2 -11,6 -17,11 -7,8 -15,19 -19,35 -5,17 -6,39 -5,57 0,19 3,35 7,50 4,15 10,28 18,37 7,10 17,16 27,20 10,4 20,7 32,8 11,1 24,1 30,1 6,-1 6,-1 6,-1 0,0 0,0 1,25l1 21c2,14 4,32 7,49 5,26 11,49 18,72 7,23 16,45 24,64 9,19 18,36 28,49 9,14 19,26 32,40 13,13 29,28 45,41 16,12 31,22 48,31 18,10 37,19 59,28 22,8 45,16 68,21 22,5 42,9 62,11 19,2 38,2 63,3 25,0 56,1 89,0 33,-1 67,-3 100,-6 33,-3 64,-6 93,-13 29,-7 56,-16 82,-29 25,-13 49,-29 69,-43 20,-15 36,-28 51,-45 15,-16 28,-37 41,-58 14,-21 27,-42 39,-65 12,-24 23,-50 31,-76 8,-25 14,-50 19,-73 4,-23 7,-45 9,-56 1,-11 1,-11 1,-11 0,0 0,0 3,1 2,1 6,2 14,2 7,1 18,0 31,-3 2,-1 4,-2 6,-2 5,-2 9,-5 12,-9 11,-9 18,-24 22,-44 5,-19 7,-43 8,-65 1,-22 0,-42 -4,-57 -5,-16 -13,-28 -20,-35 -2,-2 -4,-4 -6,-5 2,9 5,20 8,31 2,16 4,32 3,50 -1,19 -5,39 -10,56 -6,17 -13,31 -23,40 -11,9 -24,13 -34,15 -11,2 -18,1 -22,1 -4,0 -4,0 -4,0 0,0 0,0 -1,6 -2,7 -4,20 -9,40 -4,19 -9,45 -18,72 -8,27 -20,54 -31,78 -12,23 -24,43 -39,64 -15,20 -32,40 -50,58 -18,18 -37,34 -55,48 -18,15 -36,28 -57,39 -20,12 -43,23 -68,32 -25,8 -51,13 -80,17 -29,4 -61,6 -95,7 -35,1 -72,2 -104,2 -32,0 -59,-2 -87,-6 -29,-5 -59,-13 -86,-23 -27,-10 -51,-20 -73,-33 -21,-13 -40,-27 -57,-42 -16,-15 -30,-30 -43,-49 -13,-19 -26,-41 -36,-64 -10,-22 -19,-44 -26,-69 -8,-25 -14,-52 -18,-80 -4,-28 -6,-56 -7,-70 -2,-14 -2,-14 -2,-14 0,0 0,0 -8,3 -8,3 -24,8 -37,10 -13,1 -23,-2 -32,-9 -9,-8 -16,-19 -23,-32 -6,-12 -11,-27 -14,-44 -3,-18 -4,-39 -4,-57 1,-18 4,-33 9,-44 2,-5 5,-10 8,-14z"/>
   <path class="fil25" d="M24353 13808c4,5 9,9 14,14 4,4 10,9 15,12 6,3 12,5 19,7 8,2 17,4 26,5 10,0 19,0 29,0 10,0 21,-1 30,-3 8,-1 13,-4 18,-7 4,-3 8,-6 12,-11 4,-4 7,-10 9,-13 1,-3 1,-3 -15,-4 -15,-1 -47,-3 -78,-6 -31,-2 -62,-4 -75,-4 -13,1 -9,6 -4,10z"/>
   <path class="fil25" d="M24600 13554c-7,1 -17,1 -26,1 -8,-1 -15,-2 -20,-5 -6,-2 -10,-6 -14,-10 -4,-4 -8,-9 -13,-16 -4,-7 -10,-17 -15,-30 -6,-13 -11,-28 -14,-44 -3,-16 -5,-32 -6,-44 -1,-12 -1,-20 -1,-30 1,-9 2,-20 6,-31 4,-10 10,-20 16,-29 6,-8 12,-15 20,-20 7,-6 15,-9 21,-12 6,-2 10,-3 17,-1 6,2 15,8 29,30 14,22 33,61 43,97 9,36 10,70 5,92 -4,22 -13,33 -19,40 -6,6 -8,8 -12,9 -4,1 -9,3 -17,3z"/>
   <path class="fil25" d="M24331 13549c10,-2 18,-4 25,-11 7,-7 13,-18 21,-33 7,-14 15,-32 20,-50 5,-18 5,-36 5,-53 0,-17 0,-34 -2,-48 -2,-14 -5,-24 -10,-34 -5,-9 -11,-17 -17,-23 -7,-7 -14,-11 -21,-14 -7,-2 -15,-3 -28,-3 -13,0 -31,1 -47,4 -15,4 -27,10 -38,30 -10,21 -19,55 -17,89 3,33 17,65 32,89 15,25 31,42 44,50 13,9 24,9 33,7z"/>
   <path class="fil25" d="M24003 13131c0,46 0,129 0,170 0,42 0,42 -9,38 -9,-4 -26,-11 -42,-20 -16,-10 -29,-21 -40,-49 -10,-29 -18,-74 -17,-114 0,-40 10,-73 25,-89 16,-17 37,-16 52,-13 15,3 24,8 28,15 4,7 4,16 3,62z"/>
   <path class="fil25" d="M24924 13263c0,-43 0,-120 0,-159 0,-39 0,-39 15,-39 16,0 47,0 64,11 17,11 20,33 21,57 1,25 0,51 -4,73 -4,21 -11,37 -27,55 -16,19 -41,41 -54,47 -13,7 -14,-2 -15,-45z"/>
   <path class="fil26" d="M24100 12887c-180,2 -197,-2 -228,-22 -2,0 -3,0 -4,-1 -6,21 -17,57 -22,85 -2,14 -4,26 -4,36l0 0 0 0c-1,5 -1,11 -1,22 0,16 0,42 0,72 1,31 3,66 5,92 1,19 3,33 4,45 1,7 2,13 2,18 1,10 3,17 3,22 1,5 2,9 3,11 0,5 0,5 14,8l52 13 10 2 -1 -1 4 1 0 -32 0 -135 0 -33 35 10c34,9 104,29 182,42 78,14 164,21 240,23 76,3 143,1 206,-3 63,-4 123,-11 186,-23 62,-11 126,-28 159,-37l32 -8 0 29 0 117 0 30 15 -10 35 -23 28 -18 16 -10 -1 -23c0,-12 -1,-30 -2,-51l0 -5c0,-18 0,-38 0,-59 0,-20 0,-40 -1,-57 0,-2 0,-4 0,-6 0,-16 -2,-49 -8,-80 -5,-27 -13,-53 -23,-75 -23,13 -56,14 -201,18 -184,4 -547,13 -735,16z"/>
   <path class="fil27" d="M24994 12799c11,2 25,19 37,43 12,24 22,54 28,86 6,31 8,64 8,80 1,17 1,17 -71,17 -72,0 -215,0 -419,-1 -205,0 -470,-1 -602,-1 -133,0 -133,0 -133,-11 -1,-11 -1,-32 4,-63 6,-31 18,-70 23,-90 6,-20 6,-20 106,-23 100,-2 299,-8 481,-10 182,-2 346,-1 432,-8 87,-7 95,-20 106,-19z"/>
   <ellipse class="fil24" cx="24704" cy="13289" rx="94" ry="31"/>
   <path class="fil28" d="M25038 12852c12,-5 19,-11 31,-22 31,-28 94,-86 124,-118 3,-4 6,-7 8,-11 12,-11 13,-15 13,-18 0,-5 -3,-8 -39,-30 -36,-21 -106,-61 -141,-80 -35,-20 -35,-20 -35,-20 0,0 0,0 -82,-24 -82,-25 -246,-75 -339,-101 -92,-27 -113,-31 -133,-30 -11,0 -22,2 -46,8 -15,3 -32,7 -51,12 -56,14 -136,35 -216,60l-206 55c-92,24 -92,24 -120,48 -21,19 -59,52 -88,78 -24,17 -36,28 -41,37 -7,9 -7,12 -3,17 2,12 12,25 38,46 34,27 95,67 126,88 17,11 25,16 34,18 31,20 48,24 228,22 188,-3 551,-12 735,-16 148,-4 179,-5 203,-19z"/>
   <path class="fil27" d="M25042 12850c10,-4 17,-10 27,-20 31,-28 94,-86 124,-118 3,-4 6,-7 8,-11 12,-11 13,-15 13,-18 0,-5 -3,-8 -39,-30 -36,-21 -106,-61 -141,-80 -35,-20 -35,-20 -35,-20l-32 -9c48,33 117,81 155,109 45,34 45,39 38,51 -8,13 -23,32 -45,59 -22,26 -50,59 -64,75 -4,6 -7,10 -9,12z"/>
   <path class="fil27" d="M23859 12551c-28,9 -34,15 -53,30 -21,19 -59,52 -88,78 -24,17 -36,28 -41,37 -7,9 -7,12 -3,17 2,12 12,25 38,46 34,27 95,67 126,88 17,11 24,16 33,18 -4,-3 -8,-6 -13,-11 -28,-24 -85,-72 -114,-100 -29,-28 -31,-35 -30,-43 0,-8 2,-16 22,-39 19,-23 56,-62 79,-84 22,-22 30,-28 43,-36l1 -1z"/>
   <ellipse class="fil24" cx="24183" cy="13290" rx="94" ry="31"/>
   <ellipse class="fil29" cx="24443" cy="12656" rx="113" ry="137"/>
   <path class="fil30" d="M24840 13279l-268 0c-12,0 -23,5 -31,13l0 0c-2,3 -4,7 -6,10 -1,4 -2,8 -3,14 -1,5 -1,11 -1,13 0,3 0,3 0,3 0,0 0,0 -5,-1 -5,-1 -16,-4 -28,-7 -13,-2 -29,-4 -44,-6 -15,-1 -30,-1 -43,1 -13,2 -23,5 -31,8 -8,3 -14,5 -17,6 -3,1 -3,1 -3,1 0,0 0,0 0,-5 0,-6 0,-16 -2,-25 -1,-1 -1,-3 -2,-5 -7,-12 -21,-20 -36,-20l-268 0c-18,0 -34,12 -40,28l-154 -36 151 140 0 0 0 101c0,24 19,43 43,43l268 0c24,0 43,-19 43,-43l0 -124 166 0 0 124c0,24 19,43 43,43l268 0c24,0 43,-19 43,-43l0 -124 188 -180 -198 87c-8,-10 -20,-16 -33,-16z"/>
   <path class="fil31" d="M24836 13279l-264 0c-12,0 -23,5 -31,13l0 0c-2,3 -4,7 -6,10 -1,4 -2,8 -3,14 -1,5 -1,11 -1,13 0,3 0,3 0,3l-1 0 0 15c0,10 -1,26 -1,41l0 0 0 124c0,24 19,43 43,43l144 0 1 -1c12,-8 17,-20 19,-26 3,-6 3,-6 -24,-6 -28,1 -82,1 -112,-1 -29,-2 -35,-7 -38,-14 -3,-7 -4,-16 -4,-41 -1,-25 -1,-67 -1,-96 1,-29 4,-46 8,-55 4,-10 10,-12 16,-13 6,-1 13,-1 43,-2 30,0 83,0 118,0 34,1 50,2 63,0 12,-1 22,-5 27,-13 2,-2 3,-5 4,-8z"/>
   <path class="fil31" d="M24307 13279l-255 0c-18,0 -34,12 -40,28l-154 -36 151 140 0 0 0 101c0,24 19,43 43,43l155 0c13,-8 20,-17 24,-22 5,-7 5,-7 -19,-6 -24,0 -71,1 -102,0 -31,0 -45,-2 -55,-5 -10,-3 -16,-8 -19,-13 -3,-6 -4,-12 -5,-42 0,-29 -1,-83 1,-114 2,-30 6,-38 10,-44 5,-5 11,-9 23,-11 12,-1 31,-1 56,-1 26,0 58,0 88,0 31,1 59,1 78,-4 10,-4 17,-9 20,-14z"/>
   <path class="fil32" d="M24344 13287c-7,-5 -15,-8 -24,-8l-68 0c1,23 2,57 0,85 -2,33 -7,57 -15,81 -8,23 -19,47 -33,66 -13,19 -30,33 -45,44l105 0c7,-7 15,-16 23,-27 10,-15 21,-34 29,-55 8,-22 14,-45 18,-70 4,-24 7,-50 8,-72 2,-17 2,-33 2,-44z"/>
   <path class="fil32" d="M24840 13279l-67 0c0,17 1,37 0,55 0,29 -1,54 -6,79 -5,24 -13,48 -23,69 -10,21 -22,40 -34,54 -6,8 -12,14 -18,19l86 0c2,-1 4,-3 5,-4 10,-9 20,-20 30,-34 10,-15 19,-33 27,-54 7,-20 12,-43 16,-67 4,-24 6,-49 6,-72 1,-14 0,-27 0,-39 -7,-3 -14,-6 -22,-6z"/>
   <path class="fil33" d="M24445 13757c-67,0 -128,-11 -173,-29 6,55 81,98 173,98 92,0 167,-43 173,-98 -45,18 -106,29 -173,29z"/>
   <path class="fil34" d="M24381 13634c-14,0 -31,0 -41,-3 -10,-4 -12,-10 -12,-20 1,-10 4,-23 11,-32 6,-9 16,-14 28,-18 13,-4 29,-6 37,-7 8,-1 8,-1 8,-1 0,0 0,0 0,13 0,14 0,41 0,55 0,14 0,14 0,14 0,0 0,0 -4,0 -5,0 -14,0 -27,-1z"/>
   <line class="fil17" x1="24123" y1="14491" x2="24123" y2= "14879" />
   <line class="fil17" x1="23948" y1="14618" x2="24303" y2= "14618" />
   <rect class="fil35" x="25300" y="13896" width="845" height="1153"/>
   <rect class="fil9" x="25377" y="13972" width="692" height="1001"/>
   <path class="fil20" d="M25971 13791c-26,-8 -54,-16 -81,-21 -27,-5 -52,-7 -70,-7 -19,0 -30,2 -37,7 -8,5 -13,13 -18,20 -5,6 -11,10 -22,15 -11,5 -28,12 -41,20 -14,9 -25,19 -31,30 -6,11 -8,22 0,30 7,9 22,16 34,24 11,8 18,18 28,28 10,11 24,22 44,30 20,8 47,13 76,15 28,1 57,0 82,-10 24,-9 44,-26 65,-39 21,-13 44,-21 66,-28 23,-8 45,-13 53,-22 8,-8 2,-19 -13,-32 -14,-13 -39,-27 -62,-37 -24,-10 -48,-16 -73,-23z"/>
   <path class="fil21" d="M25782 13969c20,7 45,11 71,13 28,1 57,0 82,-10 24,-9 44,-26 65,-39 21,-13 44,-21 66,-28 10,-3 20,-6 28,-9 -12,1 -24,3 -40,7 -22,7 -51,18 -78,28 -27,10 -52,20 -77,27 -25,6 -51,9 -75,10 -14,0 -28,1 -42,1z"/>
   <path class="fil21" d="M25971 13791c-26,-8 -54,-16 -81,-21 -27,-5 -52,-7 -70,-7 -19,0 -30,2 -37,7 -8,5 -13,13 -18,20 -5,6 -11,10 -22,15 -11,5 -28,12 -41,20 -14,9 -25,19 -31,30 -6,11 -8,22 0,30 7,9 22,16 34,24 4,3 8,7 12,11l0 -1c1,-11 5,-26 12,-38 7,-13 16,-22 27,-29 10,-6 22,-10 35,-14 13,-5 27,-11 49,-15 22,-4 51,-6 82,-6 31,0 65,2 96,7 31,5 58,14 96,37l5 3c-3,-4 -7,-8 -13,-13 -14,-13 -39,-27 -62,-37 -24,-10 -48,-16 -73,-23z"/>
   <rect class="fil9" x="24315" y="15516" width="227" height="109"/>
   <path class="fil17 str3" d="M23896 15641c0,14 -1,27 -2,38 -4,49 -12,62 -29,70 -18,8 -44,11 -67,8 -22,-3 -39,-12 -51,-25 -11,-13 -16,-31 -19,-89 -2,-59 -1,-158 -1,-207 0,-50 0,-50 29,-50 28,0 85,0 113,0 28,0 28,0 29,13 0,11 1,31 1,73 38,1 87,2 116,3 37,1 38,3 41,29 3,27 7,78 5,106 -1,29 -8,34 -43,35 -31,1 -86,-1 -122,-4z"/>
   <rect class="fil17 str3" x="24128" y="15483" width="165" height="173" rx="30" ry="26"/>
   <path class="fil36" d="M24019 17393c149,0 270,71 270,158l22 0 0 75 -589 0 0 -75 28 0c0,-87 120,-158 269,-158z"/>
   <path class="fil36" d="M24776 17393c149,0 270,71 270,158l21 0 0 75 -588 0 0 -75 27 0c0,-87 121,-158 270,-158z"/>
   <rect class="fil23" x="24389" y="14175" width="86.0222" height="1311.85"/>
   <path class="fil23" d="M24233 14359c-10,-19 -30,-56 -43,-91 -13,-34 -19,-67 -22,-93 -3,-26 -2,-46 3,-65 3,-9 6,-19 11,-28 -7,13 -14,26 -19,41 -6,18 -9,36 -11,55 -1,19 -1,38 3,63 5,24 13,54 24,78 10,25 22,44 33,59 11,16 21,26 25,32l5 5 30 -35 117 -138 0 -41 -112 135 -34 42 -10 -19z"/>
   <path class="fil23" d="M24475 14190l0 44c4,4 8,10 14,18l104 129 26 32 5 -4c6,-4 17,-12 29,-27 11,-15 22,-37 32,-62 10,-24 18,-51 23,-80 6,-28 9,-58 7,-85 -2,-26 -7,-50 -20,-73 -12,-20 -28,-39 -42,-54 -2,0 -4,-1 -5,-1l-14 -4c15,9 28,20 40,33 13,16 22,35 28,54 5,19 6,39 3,65 -3,26 -9,59 -22,93 -13,35 -33,72 -43,91l-10 19 -34 -42 -121 -146z"/>
   <path class="fil23" d="M23976 14490c-6,2 -11,5 -16,9 -6,5 -10,11 -14,19 -3,8 -6,16 -7,70 -1,54 -1,152 0,205 1,52 3,59 5,65 3,7 6,13 12,17 6,4 14,7 28,8 15,2 37,2 83,2 46,0 117,0 156,0 39,-1 45,-1 53,-4 7,-2 16,-6 22,-13 7,-7 11,-16 13,-24 3,-8 3,-14 2,-67 -1,-53 -2,-153 -4,-206 -1,-52 -4,-58 -7,-63 -4,-5 -10,-9 -16,-12 -6,-3 -13,-5 -16,-6 -3,0 -3,0 -3,0 0,0 0,0 2,1 2,1 6,3 9,6 4,3 7,8 10,14 3,6 6,15 7,66 2,51 2,145 1,196 -1,51 -3,59 -5,66 -3,7 -6,13 -12,17 -6,4 -15,6 -64,6 -48,1 -136,0 -184,-1 -47,-2 -54,-3 -59,-7 -5,-4 -9,-9 -10,-60 -2,-51 -1,-146 0,-199 1,-54 2,-65 5,-73 2,-8 5,-13 9,-18 4,-6 10,-11 10,-14 1,-2 -5,-1 -10,0z"/>
   <rect class="fil23" x="23953" y="14606" width="350.603" height="23.4681"/>
   <rect class="fil23" x="24113" y="14490" width="19.543" height="383.198"/>
   <line class="fil17" x1="24782" y1="14501" x2="24782" y2= "14889" />
   <line class="fil17" x1="24607" y1="14628" x2="24962" y2= "14628" />
   <path class="fil29" d="M24670 14631c58,-3 172,-2 230,-4 58,-1 61,-3 63,-7 1,-4 1,-9 1,-18 -1,-10 -2,-23 -3,-29 -1,-7 -1,-7 -59,-6 -58,0 -175,1 -234,2 -58,0 -58,0 -59,6 -1,7 -2,19 -2,32 -1,12 0,25 1,28 2,4 4,-2 62,-4z"/>
   <path class="fil23" d="M24635 14501c-5,2 -11,4 -16,9 -5,4 -10,11 -13,18 -4,8 -6,17 -7,70 -1,54 -1,153 0,205 1,53 2,59 5,66 2,6 6,12 12,16 5,5 13,7 28,9 15,1 36,2 83,2 46,0 117,-1 155,-1 39,0 46,-1 53,-3 8,-3 16,-7 23,-14 6,-7 11,-16 13,-23 2,-8 2,-15 2,-68 -1,-53 -2,-152 -4,-205 -2,-53 -4,-59 -8,-64 -4,-5 -10,-9 -16,-12 -6,-3 -12,-4 -15,-5 -4,-1 -4,-1 -4,-1 0,0 0,0 2,1 2,1 6,3 10,7 3,3 7,7 10,14 3,6 6,14 7,65 1,51 1,145 0,196 -1,51 -2,59 -5,67 -2,7 -5,13 -11,17 -6,4 -15,5 -64,6 -49,0 -137,-1 -184,-2 -48,-1 -54,-3 -59,-7 -6,-3 -9,-9 -11,-60 -1,-50 -1,-146 0,-199 2,-53 3,-64 5,-72 2,-8 5,-13 10,-19 4,-5 10,-11 10,-13 0,-3 -5,-2 -11,0z"/>
   <rect class="fil23" x="24612" y="14616" width="350.603" height="23.4681"/>
   <rect class="fil23" x="24772" y="14617" width="19.543" height="266.023"/>
   <path class="fil29" d="M24090 14069c-7,-1 -17,-1 -32,0 -16,1 -38,3 -53,6 -16,3 -26,6 -30,11 -5,4 -4,8 -2,11 3,4 9,6 24,4 16,-1 42,-6 62,-11 20,-5 35,-12 39,-15 5,-4 0,-5 -8,-6z"/>
   <path class="fil29" d="M23928 14090c-9,-1 -20,0 -31,1 -11,0 -21,1 -31,4 -10,2 -21,5 -28,9 -7,4 -11,9 -12,13 -1,4 2,8 6,10 5,3 11,4 23,4 11,0 27,-1 41,-3 14,-3 26,-6 34,-9 8,-3 14,-7 17,-10 2,-4 3,-8 0,-11 -3,-4 -10,-7 -19,-8z"/>
   <path class="fil29" d="M24791 14060c7,0 17,0 32,2 16,1 38,3 53,6 16,4 25,8 30,12 4,4 4,9 1,12 -3,3 -8,5 -24,3 -16,-1 -42,-7 -62,-13 -20,-6 -34,-12 -38,-16 -5,-4 0,-5 8,-6z"/>
   <path class="fil29" d="M24952 14086c9,-1 20,0 31,1 11,1 21,3 31,5 11,2 21,6 28,10 7,5 11,10 12,14 0,4 -2,7 -7,10 -5,2 -11,3 -22,3 -12,-1 -28,-2 -42,-5 -13,-2 -25,-6 -33,-9 -9,-4 -14,-7 -17,-11 -2,-4 -3,-8 0,-11 4,-4 10,-6 19,-7z"/>
   <circle class="fil23" cx="24474" cy="15316" r="36"/>
   <circle class="fil23" cx="24476" cy="15142" r="36"/>
   <circle class="fil23" cx="24478" cy="14968" r="36"/>
   <circle class="fil23" cx="24480" cy="14794" r="36"/>
   <circle class="fil23" cx="24482" cy="14620" r="36"/>
   <circle class="fil23" cx="24484" cy="14446" r="36"/>
   <rect class="fil37" x="25510" y="14037" width="414.469" height="36.4968"/>
   <circle class="fil38" cx="25512" cy="14842" r="74"/>
   <path class="fil17 str4" d="M25820 14853c0,-1 34,-33 8,-1 -60,72 35,-9 59,-21 -84,72 -43,43 37,4 55,-27 -29,5 -53,21 -135,90 80,-5 74,-29 -39,1 -125,100 -21,20 11,-9 53,-72 13,-40 0,0 -128,109 -78,75 13,-9 75,-40 77,-42 -47,6 -120,105 -7,23 25,-18 -36,20 15,-3 29,-14 -27,-4 -25,7 38,0 55,-34 20,-11 -13,7 11,-1 -5,5 -18,6 54,6 76,-3 2,0 3,0 4,0"/>
   <path class="fil39" d="M23898 15426c0,-13 0,-22 0,-27 -1,-13 -1,-13 -29,-13l-101 0 -12 0c-29,0 -29,0 -29,50 0,49 -1,148 1,207 3,58 8,76 19,89 4,5 9,9 15,13 0,58 0,132 1,227 2,346 7,971 10,1283l1 230c43,-54 137,-92 245,-92 111,0 205,39 247,94 1,-33 2,-80 4,-146 7,-226 20,-679 30,-919 10,-240 16,-269 26,-293 11,-23 25,-41 47,-50 23,-10 52,-10 77,-1 25,8 45,25 56,54 11,29 13,69 15,311 2,243 4,687 4,910l1 139c39,-58 137,-99 250,-99 109,0 203,38 246,92l6 -213 39 -1228 4 -100c4,2 8,3 14,3 8,0 18,-3 26,-8 8,-5 14,-11 19,-19 6,-7 10,-16 12,-32 3,-17 5,-41 6,-117 0,-75 0,-202 -1,-270 -1,-68 -2,-77 -5,-84 -2,-8 -6,-15 -12,-20 -6,-5 -13,-7 -21,-10 -8,-2 -17,-3 -25,-3 -6,1 -12,3 -16,7 -1,0 -2,1 -3,2l-1 1c-5,6 -9,15 -11,24 -3,9 -3,18 -3,22 0,4 0,4 -8,6 -7,2 -21,6 -61,11 -40,6 -106,12 -141,16 -20,3 -29,4 -33,8 -26,2 -57,5 -90,5 -36,1 -74,-1 -106,-2 -32,0 -59,1 -106,0 -46,-1 -112,-3 -158,-5 -46,-2 -71,-4 -107,-7 -37,-3 -85,-7 -139,-14 -54,-8 -115,-18 -152,-24 -24,-4 -38,-6 -51,-8zm1159 488l0 0 0 22 0 -22z"/>
   <path class="fil36" d="M24994 17458c11,8 20,18 28,27l6 -213 39 -1228 4 -100c4,2 8,3 14,3 8,0 18,-3 26,-8 3,-2 7,-5 10,-8 -1,-33 -2,-64 -3,-91 -10,-187 -38,-228 -54,-234 -16,-7 -20,21 -30,350 -10,329 -26,960 -35,1276 -2,108 -4,179 -5,226zm63 -1544l0 0 0 22 0 -22z"/>
   <path class="fil36" d="M24246 17466c8,6 14,14 20,21 1,-33 2,-80 4,-146 7,-226 20,-679 30,-919 10,-240 16,-269 26,-293 11,-23 25,-41 47,-50 23,-10 52,-10 77,-1 25,8 45,25 56,54 11,29 13,69 15,311 2,243 4,687 4,910l1 139c6,-9 14,-18 23,-26l0 -137c2,-210 4,-631 4,-864 0,-234 -2,-281 -9,-318 -7,-36 -19,-62 -36,-82 -17,-19 -41,-32 -67,-38 -26,-7 -55,-6 -78,4 -24,9 -43,28 -57,56 -13,27 -21,65 -27,132 -6,68 -9,166 -12,319 -4,152 -7,357 -11,527 -3,170 -7,304 -9,379l-1 22z"/>
   <path class="fil36" d="M23741 15724c2,3 4,5 6,8 4,5 9,9 15,13 0,58 0,132 1,227 2,346 7,971 10,1283l1 230c6,-7 13,-14 20,-21l-1 -256c-2,-297 -5,-891 -8,-1199 -2,-307 -4,-328 -18,-324 -6,2 -15,10 -26,39z"/>
   <path class="fil31" d="M23905 15660c-3,8 -3,20 -6,34 -3,15 -8,32 -15,44 -7,13 -17,21 -26,25 -10,5 -21,7 -32,7 -12,-1 -26,-3 -38,-5 -13,-3 -24,-6 -34,-11 -11,-5 -20,-13 -29,-53 -9,-39 -17,-111 -18,-170 -1,-59 4,-104 7,-127 4,-24 5,-26 36,-27 31,-1 93,-2 125,-1 32,0 36,2 36,16 1,14 -2,40 -3,53 -1,12 -1,12 19,13 20,1 60,3 86,6 26,3 37,7 43,16 6,8 8,20 9,44 1,23 2,59 1,80 0,22 -3,30 -7,36 -4,6 -9,10 -33,11 -23,0 -65,-3 -88,-3 -24,1 -30,4 -33,12z"/>
   <path class="fil31" d="M24802 15490c1,-12 3,-14 37,-18 34,-4 100,-11 140,-16 41,-5 55,-9 62,-11 7,-2 7,-2 7,-6 1,-5 1,-13 3,-22 2,-9 6,-18 12,-24 5,-6 12,-9 20,-10 8,-1 17,1 25,3 8,2 15,5 21,10 5,5 9,11 12,19 2,8 4,17 5,85 0,67 1,194 0,270 0,75 -2,100 -5,116 -3,17 -7,25 -12,33 -5,8 -12,14 -20,19 -8,5 -17,8 -25,8 -8,0 -14,-2 -19,-6 -5,-3 -9,-7 -11,-48 -1,-41 -1,-120 -1,-159 0,-40 0,-40 -8,-39 -9,0 -26,1 -50,0 -24,-1 -54,-4 -79,-8 -24,-3 -42,-7 -57,-12 -15,-4 -27,-9 -36,-16 -8,-6 -14,-14 -17,-33 -3,-19 -4,-48 -4,-74 -1,-26 -1,-49 0,-61z"/>
   <path class="fil40" d="M25123 15392c2,1 4,2 6,4 5,5 9,11 12,19 2,8 4,17 5,85 0,67 1,194 0,270 0,75 -2,100 -5,116 -3,17 -7,25 -12,33 -3,5 -8,10 -12,14 0,-14 0,-34 0,-62 0,-98 1,-293 3,-397 1,-38 2,-64 3,-82z"/>
   <path class="fil31" d="M24266 15656l0 -173c-1,0 -1,0 -2,0l-106 0c-17,0 -30,13 -30,30l0 113c0,17 13,30 30,30l106 0 2 0z"/>
   <path class="fil31" d="M24591 15481l0 175c0,0 1,0 2,0l106 0c16,0 29,-14 29,-32l0 -121c0,-41 -82,-22 -115,-22 -7,0 -15,0 -22,0z"/>
   <rect class="fil1" x="24266" y="15465" width="325" height="211"/>
   <rect class="fil31" x="24319" y="15513" width="224" height="115"/>
   <path class="fil41" d="M24844 17420c18,4 34,8 52,15 17,7 36,17 52,28 15,10 28,21 37,31 9,10 14,18 18,28 4,9 6,19 8,24 1,5 1,5 -19,5 -20,0 -60,0 -80,0 -20,0 -20,0 -20,0 0,0 0,0 0,-6 0,-7 -1,-20 -3,-35 -3,-15 -8,-33 -15,-46 -8,-13 -18,-22 -27,-29 -9,-8 -17,-14 -26,-19 -10,-4 -20,-6 -25,-7 -6,-1 -6,-1 3,1 10,2 28,5 45,10z"/>
   <path class="fil41" d="M24086 17420c17,4 34,8 51,15 18,7 36,17 52,28 16,10 28,21 37,31 9,10 14,18 18,28 4,9 7,19 8,24 1,5 1,5 -19,5 -20,0 -60,0 -80,0 -20,0 -20,0 -20,0 0,0 0,0 0,-6 0,-7 0,-20 -3,-35 -3,-15 -7,-33 -15,-46 -7,-13 -17,-22 -26,-29 -9,-8 -18,-14 -27,-19 -9,-4 -20,-6 -25,-7 -5,-1 -5,-1 4,1 9,2 27,5 45,10z"/>
   <path class="fil17 str5" d="M25468 14187l515 0m-515 245l515 0m-515 -31l515 0m-515 -31l515 0m-515 -30l515 0m-515 -31l515 0m-515 -30l515 0m-515 -31l515 0m-515 -30l515 0"/>
  </g>
  <g id="_2997092204416">
   <path class="fil42" d="M37955 16947c-22,43 -54,112 -80,155 -27,44 -48,62 -94,74 -46,12 -118,17 -1025,16 -908,-1 -2651,-9 -3530,-14 -879,-5 -894,-6 -905,-24 -10,-18 -17,-52 -27,-111 -11,-58 -25,-142 -31,-184 -6,-42 -4,-43 -310,-43 -307,0 -924,1 -1258,18 -334,16 -385,48 -410,89 -25,42 -24,93 -26,138 -2,45 -7,83 -20,105 -12,22 -32,27 -116,12 -84,-15 -232,-51 -328,-75 -96,-25 -141,-38 -178,-46 -37,-8 -66,-10 -91,-17 -24,-7 -44,-17 -58,-37 -14,-20 -21,-49 -16,-123 5,-75 24,-195 35,-289 11,-95 15,-163 24,-271 8,-108 21,-254 33,-349 11,-95 20,-139 33,-174 12,-35 28,-61 74,-103 45,-43 120,-101 224,-157 104,-57 236,-113 385,-163 149,-51 315,-97 470,-135 155,-38 299,-67 491,-95 192,-28 433,-56 746,-89 314,-33 700,-71 894,-91 193,-19 193,-19 193,-19 0,0 0,0 42,-35 43,-35 127,-105 264,-202 138,-97 328,-221 503,-324 176,-103 337,-184 473,-244 137,-59 249,-96 388,-133 140,-36 306,-71 496,-98 190,-26 404,-43 624,-55 220,-11 445,-16 654,-10 208,6 400,23 575,43 176,20 336,42 532,82 196,40 428,99 544,128 116,29 116,29 121,33 4,5 14,14 24,24 11,10 23,20 254,107 232,86 683,249 930,335 246,85 287,95 340,100 52,5 117,6 174,14 58,8 108,23 220,40 112,17 287,37 442,48 156,11 293,14 371,19 77,6 94,13 106,29 12,15 18,37 21,91 3,55 1,140 1,251 0,110 2,244 2,312 1,67 1,67 1,67 0,0 0,0 15,9 15,10 46,28 77,56 31,29 62,67 85,115 24,47 38,104 35,284 -3,180 -25,484 -38,639 -14,155 -21,162 -53,169 -33,8 -91,18 -339,19 -248,1 -686,-5 -1159,-5 -472,1 -979,9 -1281,13 -301,4 -398,4 -453,12 -54,9 -67,26 -90,69z"/>
   <polygon class="fil43" points="33001,16659 32993,16928 36042,16873 36121,16611 "/>
   <path class="fil44" d="M30297 16907c-5,5 -9,11 -12,16 -25,42 -24,93 -26,138 -2,45 -7,83 -20,105 -12,22 -32,27 -116,12 -84,-15 -232,-51 -328,-75 -96,-25 -141,-38 -178,-46 -37,-8 -66,-10 -91,-17 -24,-7 -44,-17 -58,-37 -14,-20 -21,-49 -16,-123 2,-36 8,-81 14,-130 67,1 141,6 220,11 170,11 361,26 467,32 106,6 125,3 136,51 4,16 6,38 8,63z"/>
   <path class="fil44" d="M41155 15429l0 71c1,67 1,67 1,67 0,0 0,0 15,9 15,10 46,28 77,56 31,29 62,67 85,115 24,47 38,104 35,284 -3,180 -25,484 -38,639 -14,155 -21,162 -53,169 -33,8 -91,18 -339,19 -226,1 -611,-4 -1035,-5 0,-17 1,-36 1,-57 2,-66 4,-149 -17,-243 -20,-93 -63,-198 -108,-286 -44,-89 -92,-161 -145,-226 -53,-65 -111,-121 -140,-150 -29,-28 -29,-28 70,-41 98,-12 295,-37 462,-69 167,-32 304,-70 398,-107 95,-37 146,-72 181,-109 35,-36 54,-73 62,-107 9,-33 7,-64 23,-77 15,-14 46,-12 138,-2 85,9 222,25 327,50z"/>
   <path class="fil4" d="M41359 16248c-2,37 -4,75 -6,113 -25,4 -51,5 -75,6 -46,1 -84,3 -115,-3 -31,-6 -55,-19 -70,-38 -16,-18 -24,-42 -28,-54 -4,-12 -4,-12 62,-14 55,-3 157,-7 232,-10z"/>
   <path class="fil45" d="M37955 16947c-22,43 -54,112 -80,155 -27,44 -48,62 -94,74 -46,12 -118,17 -1025,16 -908,-1 -2651,-9 -3530,-14 -879,-5 -894,-6 -905,-24 -10,-18 -17,-52 -27,-111l-1 -1 0 -1 0 -1 0 -2 0 0 -1 -2 0 -1 0 0 0 -2 0 -1 0 -1 -1 -2 0 0 0 -2 0 -1 0 0 -1 -2 0 -1 0 -1 0 -2 0 0 -1 -2 0 -1 0 -1 0 -2 0 0 -1 -1 0 -2 0 0 0 -2 -1 -1 0 -1 0 -2 0 0 0 -2 -1 -1 0 -1 0 -2 0 0 0 -2 -1 -1 0 -1 0 -2 0 0 -1 -2 0 -2 0 0 0 -2 0 -1 -1 -1 0 -2 0 0 0 -2 0 -1 -1 -1 0 -2 0 0 0 -2 -1 -1 0 -1 0 -2 0 -1 0 -1 -1 -1 0 -1 0 -1 0 -2 0 0 -1 -2 0 -1 0 -1 0 -2 0 0 -1 -2 0 -1 0 -1 0 -2 0 -1 -1 -1 0 -2 0 0 0 -2 -1 -1 0 -1 0 -2 0 0 0 -2 -1 -1 0 -1 0 -2 0 0 0 -2 -1 -1 0 -1 0 -2 0 0 0 -2 -1 -1 0 0 0 -2 0 -1 0 -1 -1 -2c89,-7 315,-13 891,-28 947,-25 2843,-75 3797,-85 955,-10 968,20 980,68 6,20 11,44 17,68l-1 1 -1 2z"/>
   <path class="fil46" d="M37860 17124c-21,28 -42,42 -79,52 -46,12 -118,17 -1025,16 -908,-1 -2651,-9 -3530,-14 -879,-5 -894,-6 -905,-24 -9,-16 -16,-46 -25,-96 79,-5 248,-7 620,-11 683,-6 2051,-19 2956,-31 906,-12 1349,-23 1605,-8 257,14 325,54 366,96 6,7 12,13 17,20z"/>
   <path class="fil42 str3" d="M30308 16897c-15,11 -25,27 -37,50 -7,13 -14,28 -22,44 -13,-48 -22,-98 -28,-148 -4,-39 -6,-78 -6,-117 0,-14 0,-28 1,-42 2,-43 5,-74 9,-103 7,-48 19,-90 32,-125 13,-36 28,-66 34,-51 5,15 1,74 4,156 3,81 12,185 13,279 1,19 0,38 0,57z"/>
   <path class="fil47" d="M29492 17026c-9,-6 -17,-13 -24,-23 -14,-20 -21,-49 -16,-123 5,-75 24,-195 35,-289l0 -2c20,-17 38,-29 57,-41 40,-25 89,-52 126,-66 37,-13 62,-15 86,-11 24,3 46,11 64,30 18,19 31,49 37,84 6,35 5,75 -2,111 -7,35 -18,67 -42,106 -23,39 -57,85 -90,119 -33,33 -65,54 -95,71 -29,16 -56,27 -136,34z"/>
   <path class="fil48" d="M29701 15651c44,-35 102,-75 174,-114 104,-57 236,-113 385,-163 149,-51 315,-97 470,-135 155,-38 299,-67 491,-95 192,-28 433,-56 746,-89 314,-33 700,-71 894,-91 193,-19 193,-19 193,-19 0,0 0,0 42,-35 43,-35 127,-105 264,-202 138,-97 328,-221 503,-324 176,-103 337,-184 473,-244 137,-59 249,-96 388,-133 140,-36 306,-71 496,-98 190,-26 404,-43 624,-55 220,-11 445,-16 654,-10 208,6 400,23 575,43 176,20 336,42 532,82 196,40 428,99 544,128 116,29 116,29 121,33 4,5 14,14 24,24 11,10 23,20 254,107 232,86 683,249 930,335 246,85 287,95 340,100 52,5 117,6 174,14 58,8 108,23 220,40 112,17 287,37 442,48 156,11 293,14 371,19 77,6 94,13 106,29 12,15 18,37 21,91 3,55 1,140 1,251 0,39 1,81 1,122 -119,-28 -245,-58 -360,-81 -177,-34 -330,-50 -938,-37 -607,13 -1668,56 -3550,143 -1883,87 -4586,219 -5938,285 -275,13 -495,24 -667,31z"/>
   <path class="fil49" d="M33079 14925l17 -15c43,-35 127,-105 264,-202 138,-97 328,-221 503,-324 176,-103 337,-184 473,-244 85,-37 160,-65 238,-89 13,7 20,18 21,31 1,16 -8,36 -59,72 -51,37 -145,90 -276,161 -132,71 -301,160 -457,250 -157,89 -302,180 -399,241 -97,60 -147,90 -188,106 -41,16 -72,18 -110,15 -9,0 -18,-1 -27,-2z"/>
   <path class="fil50" d="M29752 15951c-15,23 -33,46 -52,68 -18,23 -37,46 -54,62 -16,15 -29,23 -40,26 -11,3 -21,0 -27,-10 -6,-10 -9,-27 -7,-65 2,-38 10,-97 17,-135 6,-39 12,-57 20,-72 8,-15 19,-26 35,-34 17,-7 38,-11 58,-12 20,-1 39,1 53,4 14,4 22,9 28,25 5,16 7,42 2,68 -6,26 -18,51 -33,75z"/>
   <path class="fil51" d="M39078 15252c-702,41 -1827,107 -3181,165 -1354,58 -2938,108 -3730,133 -792,25 -792,25 -792,25 0,0 0,0 375,-21 375,-21 1125,-63 2031,-118 907,-54 1971,-120 2879,-167 908,-48 1661,-77 2248,-89 587,-12 1010,-6 1221,-4 211,3 211,3 211,3 0,0 0,0 -140,8 -140,8 -419,24 -1122,65z"/>
   <path class="fil52" d="M30043 15993c112,-77 287,-204 374,-268 87,-63 87,-63 87,-63 0,0 0,0 -34,-2 -35,-2 -103,-6 -179,-3 -76,2 -159,12 -238,30 -78,17 -152,44 -207,68 -55,25 -91,47 -116,71 -25,25 -39,51 -48,88 -10,36 -14,82 -12,117 2,35 10,59 37,73 27,14 74,17 122,6 49,-12 101,-40 214,-117z"/>
   <path class="fil47" d="M37710 14919c-367,15 -796,30 -1261,50 -465,20 -967,44 -1520,71 -553,27 -1158,57 -1455,66 -297,8 -286,-5 -235,-41 51,-36 142,-96 187,-126 46,-29 46,-29 48,-38 3,-10 8,-28 21,-49 14,-21 35,-45 61,-65 27,-20 58,-36 86,-46 28,-11 51,-16 76,-21 24,-4 49,-8 62,-10 12,-2 12,-2 12,-2 0,0 0,0 70,-45 69,-45 208,-135 342,-215 134,-79 263,-149 376,-205 114,-55 212,-96 310,-130 98,-34 197,-60 317,-78 119,-18 259,-27 404,-33 146,-6 296,-8 458,-6 161,2 334,8 470,15 135,6 233,13 367,30 135,16 306,42 463,70 156,28 298,57 456,97 158,40 334,92 486,141 151,49 280,95 375,133 95,38 157,69 200,96 42,28 66,53 78,78 12,24 12,48 4,74 -8,27 -24,56 -44,79 -21,23 -46,40 -86,51 -40,10 -96,14 -276,23 -180,8 -485,21 -852,36z"/>
   <path class="fil53 str3" d="M36890 14398c-33,124 -80,298 -104,385 -24,87 -24,87 -24,87 0,0 0,0 291,-8 291,-9 874,-26 1196,-42 322,-16 384,-30 421,-48 38,-17 51,-36 49,-62 -3,-26 -22,-58 -80,-95 -59,-38 -158,-81 -299,-134 -141,-53 -325,-115 -562,-175 -237,-60 -527,-118 -672,-147 -146,-29 -146,-29 -146,-29 0,0 0,0 -9,36 -9,36 -28,109 -61,232z"/>
   <path class="fil53 str3" d="M36743 14326c-35,127 -93,336 -122,440 -29,104 -29,104 -29,104 0,0 0,0 0,0 0,0 0,0 -179,10 -179,10 -536,30 -984,54 -447,25 -984,54 -1253,68 -269,15 -269,15 -269,15 0,0 0,0 5,-32 5,-32 14,-95 15,-140 1,-45 -5,-71 -19,-88 -14,-16 -35,-23 -46,-26 -10,-3 -10,-3 -10,-3 0,0 0,0 53,-34 54,-34 161,-101 273,-166 112,-64 230,-126 344,-183 115,-56 227,-106 342,-144 114,-38 230,-65 361,-85 130,-21 275,-35 444,-43 168,-8 359,-9 552,-3 193,7 387,21 484,29 97,7 97,7 97,7 0,0 0,0 -6,23 -6,23 -18,69 -53,197z"/>
   <path class="fil49" d="M39594 14590c230,83 241,91 245,97 2,4 2,8 0,11 -7,-1 -14,-1 -21,-2 -53,-5 -94,-15 -340,-100 -247,-86 -698,-249 -930,-335 -231,-87 -243,-97 -254,-107 -2,-2 -4,-5 -7,-7 11,0 26,2 52,8 30,7 77,20 326,106 248,86 698,246 929,329z"/>
   <path class="fil4" d="M41153 15145l0 43c0,110 2,244 2,312 1,67 1,67 1,67l1 1c-21,9 -46,11 -75,12 -57,2 -124,0 -192,-14 -68,-13 -137,-40 -210,-90 -73,-50 -151,-124 -194,-172 -43,-48 -51,-71 -44,-93 6,-23 28,-45 69,-69 42,-24 104,-49 168,-65 64,-15 130,-22 189,-22 60,0 112,7 154,18 42,11 72,27 100,45 11,8 21,16 31,27z"/>
   <path class="fil47" d="M38935 15690c571,0 1035,463 1035,1035 0,44 -3,86 -8,128 -42,0 -85,0 -128,0 6,-42 9,-84 9,-128 0,-502 -407,-909 -908,-909 -468,0 -853,353 -904,807 18,57 32,144 34,192 3,56 -11,59 -24,62l-2 1 0 2c-7,1 -14,2 -19,4 -5,2 -9,4 -14,6 -9,5 -17,10 -25,19 -7,9 -15,20 -25,39 -11,20 -24,48 -40,79 -17,31 -37,66 -47,83 -10,17 -10,17 -10,17 0,0 0,0 3,-37 3,-38 9,-113 16,-187 6,-73 13,-144 18,-191 2,-16 3,-30 4,-41 28,-547 481,-981 1035,-981z"/>
   <g>
    <path class="fil54 str3" d="M38935 15816c-502,0 -909,407 -909,909 0,502 407,909 909,909 501,0 908,-407 908,-909 0,-502 -407,-909 -908,-909zm603 1021c-61,7 -176,10 -357,15 -180,6 -427,14 -588,18 -161,3 -237,3 -274,3 -38,0 -38,0 -38,0 0,0 0,0 5,12 4,11 14,33 32,73 19,40 46,96 79,143 32,47 69,84 113,118 44,35 96,66 141,89 45,23 83,38 132,47 50,9 111,13 160,15 48,1 85,0 135,-11 51,-10 114,-30 173,-59 58,-29 113,-67 162,-125 50,-57 94,-134 127,-199 33,-64 55,-117 61,-138 7,-20 -1,-8 -63,-1z"/>
    <circle class="fil55" cx="38925" cy="16716" r="475"/>
    <circle class="fil18 str3" cx="38934" cy="16725" r="107"/>
    <path class="fil56" d="M38935 16026c-387,0 -699,313 -699,699 0,386 312,699 699,699 386,0 698,-313 698,-699 0,-386 -312,-699 -698,-699zm0 493c-14,0 -27,2 -40,4l-15 -427c18,-2 36,-2 55,-2 13,0 27,0 41,1l-4 428c-12,-3 -25,-4 -37,-4zm-69 12c-46,16 -84,48 -109,89l-366 -216c84,-143 223,-249 387,-291l88 418zm-123 117c-8,21 -13,43 -14,66l-417 -94c8,-47 20,-92 38,-134l393 162zm-13 104c6,43 25,82 53,113l-312 289c-104,-113 -168,-263 -168,-429 0,-9 0,-18 1,-27l426 54zm76 134c17,14 36,24 56,32l-227 363c-35,-19 -68,-41 -98,-65l269 -330zm84 40c15,3 29,5 45,5 23,0 45,-4 66,-11l190 382c-78,35 -165,55 -256,55 -84,0 -163,-16 -235,-45l190 -386zm137 -17c18,-9 36,-21 51,-36l282 319c-32,29 -67,55 -105,77l-228 -360zm74 -63c24,-32 38,-72 39,-115l425 -45c1,13 1,26 1,39 0,163 -61,311 -162,422l-303 -301zm38 -148c-4,-24 -11,-47 -22,-69l405 -136c13,34 24,69 31,106l-414 99zm-40 -96c-23,-32 -56,-56 -93,-70l64 -424c175,38 322,149 410,298l-381 196z"/>
    <circle class="fil57" cx="38932" cy="16722" r="107"/>
   </g>
   <path class="fil47" d="M31250 15690c572,0 1036,464 1036,1036 0,33 -2,66 -5,99l-1 27c-2,25 -3,50 -4,63 -1,13 -1,13 -1,13l-2 -2 -1 6c0,0 0,0 -30,-3 -30,-2 -91,-8 -173,-15 -82,-7 -185,-16 -289,-22 -104,-6 -210,-9 -354,-4 -145,6 -328,19 -470,41 -141,21 -240,52 -322,78 -83,27 -149,49 -209,74 -61,25 -117,53 -149,71 -20,12 -31,20 -39,23 -5,4 -9,7 -13,9 -5,3 -9,3 -10,1 -2,0 -4,1 -6,1 0,-10 0,-22 0,-36 1,-82 2,-246 4,-355 1,-45 2,-81 4,-111 21,-552 476,-994 1034,-994zm899 898c-66,-436 -443,-771 -899,-771 -488,0 -886,385 -907,868 45,-61 125,-104 319,-129 211,-28 558,-36 838,-29 279,8 490,30 607,53 16,2 30,5 42,8z"/>
   <g>
    <path class="fil54" d="M31250 15808c-502,0 -908,407 -908,909 0,502 406,908 908,908 502,0 909,-406 909,-908 0,-502 -407,-909 -909,-909zm604 1021c-61,7 -176,10 -357,15 -181,5 -427,13 -588,17 -161,4 -237,4 -274,4 -38,0 -38,0 -38,0 0,0 0,0 5,11 4,11 14,34 32,73 19,40 46,97 79,144 32,46 69,83 113,118 44,34 96,66 141,89 45,23 83,37 132,47 50,9 111,13 159,14 49,2 86,0 136,-10 50,-11 114,-31 173,-60 58,-29 112,-67 162,-124 49,-58 94,-134 127,-199 33,-65 54,-118 61,-138 7,-21 -1,-9 -63,-1z"/>
    <circle class="fil55" cx="31241" cy="16707" r="475"/>
    <circle class="fil18" cx="31250" cy="16717" r="107"/>
    <path class="fil56" d="M31250 16018c-386,0 -699,313 -699,699 0,386 313,699 699,699 386,0 699,-313 699,-699 0,-386 -313,-699 -699,-699zm0 493c-13,0 -26,1 -39,3l-15 -427c18,-1 36,-2 54,-2 14,0 28,1 42,1l-4 428c-12,-2 -25,-3 -38,-3zm-68 12c-46,16 -84,47 -109,88l-366 -216c84,-142 223,-249 387,-290l88 418zm-123 117c-8,20 -13,42 -14,65l-417 -94c7,-46 20,-91 38,-134l393 163zm-13 104c6,43 25,82 53,112l-312 289c-105,-112 -168,-263 -168,-428 0,-10 0,-19 0,-28l427 55zm76 134c17,13 36,24 56,32l-228 363c-34,-19 -67,-41 -98,-66l270 -329zm84 40c14,3 29,5 44,5 24,0 46,-4 67,-11l190 382c-78,35 -165,54 -257,54 -83,0 -162,-16 -235,-45l191 -385zm136 -17c19,-10 37,-22 52,-37l282 320c-32,29 -67,55 -105,77l-229 -360zm75 -63c24,-33 38,-72 39,-115l425 -45c1,13 1,26 1,39 0,162 -61,310 -162,422l-303 -301zm38 -148c-4,-25 -11,-48 -22,-69l405 -136c13,33 24,69 31,105l-414 100zm-40 -97c-23,-31 -56,-56 -93,-70l64 -423c174,38 322,148 410,298l-381 195z"/>
    <circle class="fil57" cx="31247" cy="16714" r="107"/>
   </g>
   <path class="fil46" d="M35912 15254c8,19 13,42 14,69 2,27 -1,59 -15,83 -15,24 -41,42 -86,52 -44,9 -106,12 -159,0 -52,-12 -96,-38 -122,-63 -27,-25 -36,-49 -32,-69 4,-21 21,-38 70,-59 49,-21 129,-46 185,-58 55,-12 85,-11 106,-2 20,10 31,27 39,47z"/>
   <path class="fil58" d="M35961 15366c-110,13 -328,18 -443,17 -116,-1 -129,-9 -134,-20 -5,-10 -3,-24 6,-35 10,-11 26,-20 128,-33 102,-12 291,-28 396,-33 106,-6 129,0 142,9 13,10 17,25 18,43 0,17 -2,39 -113,52z"/>
  </g>
  <rect class="fil59" x="3893" y="13549" width="156" height="4078"/>
  <rect class="fil59" x="8147" y="13566" width="156" height="4061"/>
  <polygon class="fil60" points="48842,19579 2,19579 2,17722 48842,17722 "/>
  <path class="fil58" style="mask:url(#id0)" d="M30417 15728c-110,75 -281,207 -403,285 -122,79 -195,103 -415,208 -220,106 -586,294 -1085,482 -498,187 -1129,375 -1629,488 -501,113 -871,151 -1056,170 -185,19 -185,19 -185,19 0,0 0,0 0,0 0,0 0,0 0,-434 0,-435 0,-1304 0,-1738 0,-434 0,-434 0,-434 0,0 0,0 829,140 829,141 2488,423 3294,572 806,150 759,167 650,242z"/>
  <g id="_2997092214784">
   <rect class="fil58" x="2705" y="11001" width="6949" height="3654" rx="279" ry="279"/>
   <rect class="fil61" x="2740" y="11037" width="6878" height="3584" rx="244" ry="244"/>
   <rect class="fil58" x="3192" y="13328" width="6168" height="417"/>
   <polygon class="fil62" points="3177,11808 3653,13484 5229,13484 5646,11798 5239,11798 5398,11312 3454,11312 3583,11828 "/>
   <polygon class="fil63" points="3153,11761 3629,13437 5206,13437 5622,11751 5216,11751 5374,11265 3430,11265 3559,11780 "/>
   <path class="fil64" d="M5491 13605c0,11 -2,20 -6,28 -4,8 -9,15 -16,21 -7,5 -15,10 -24,13 -9,2 -19,4 -30,4 -7,0 -14,-1 -20,-2 -7,-1 -12,-3 -17,-5 -5,-2 -9,-3 -13,-5 -3,-2 -6,-4 -7,-5 -1,-2 -2,-4 -3,-6 0,-2 -1,-5 -1,-8 0,-3 0,-5 1,-6 0,-2 0,-3 1,-4 0,-1 1,-2 1,-2 1,-1 2,-1 3,-1 1,0 4,1 7,3 2,2 6,4 11,6 4,2 10,5 16,7 7,2 14,3 23,3 6,0 12,-1 17,-3 6,-2 10,-4 14,-7 4,-3 7,-7 9,-12 2,-4 3,-10 3,-15 0,-7 -2,-12 -4,-16 -3,-5 -7,-9 -12,-12 -4,-3 -10,-7 -16,-9 -6,-3 -12,-6 -18,-9 -6,-3 -12,-6 -18,-10 -6,-3 -12,-7 -16,-12 -5,-5 -9,-10 -12,-17 -3,-6 -4,-14 -4,-23 0,-9 2,-18 5,-25 3,-7 8,-13 14,-18 6,-5 13,-9 21,-11 9,-3 18,-4 27,-4 5,0 10,0 15,1 5,1 10,2 14,4 4,1 8,3 12,4 3,2 5,4 6,5 2,1 2,2 3,2 0,1 0,2 0,3 1,1 1,2 1,3 0,2 0,3 0,5 0,3 0,4 0,6 0,2 -1,3 -1,4 0,1 -1,2 -1,2 -1,1 -2,1 -2,1 -2,0 -4,-1 -6,-2 -3,-2 -6,-4 -10,-6 -4,-2 -9,-3 -14,-5 -5,-2 -11,-3 -18,-3 -6,0 -11,1 -16,3 -5,2 -8,4 -11,6 -3,3 -6,6 -7,10 -1,4 -2,8 -2,12 0,6 1,12 4,16 3,4 7,8 11,12 5,3 11,6 17,9 6,3 12,6 18,9 6,3 13,6 19,9 6,4 11,8 16,13 5,5 8,10 11,17 3,6 5,14 5,22z"/>
   <path id="1" class="fil64" d="M5669 13459c0,2 0,4 0,5 0,2 -1,3 -1,4 -1,1 -1,2 -2,2 -1,1 -2,1 -3,1l-62 0 0 192c0,1 0,2 -1,3 0,0 -1,1 -2,1 -1,1 -3,1 -4,1 -2,1 -5,1 -8,1 -2,0 -5,0 -7,-1 -2,0 -3,0 -4,-1 -1,0 -2,-1 -3,-1 0,-1 0,-2 0,-3l0 -192 -63 0c0,0 -1,0 -2,-1 -1,0 -1,-1 -2,-2 0,-1 -1,-2 -1,-4 0,-1 0,-3 0,-5 0,-3 0,-4 0,-6 0,-2 1,-3 1,-4 1,-1 1,-2 2,-2 1,-1 2,-1 2,-1l154 0c1,0 2,0 3,1 1,0 1,1 2,2 0,1 1,2 1,4 0,2 0,3 0,6z"/>
   <path id="2" class="fil64" d="M5840 13657c1,3 1,5 1,6 0,2 0,3 -1,4 -1,1 -3,1 -5,1 -2,1 -5,1 -8,1 -4,0 -7,0 -9,-1 -2,0 -3,0 -4,0 -2,-1 -2,-1 -3,-2 0,-1 -1,-2 -1,-3l-19 -54 -92 0 -19 54c0,1 0,2 -1,2 -1,1 -1,2 -2,2 -1,1 -3,1 -5,1 -2,1 -5,1 -8,1 -3,0 -6,0 -8,-1 -2,0 -4,-1 -4,-1 -1,-1 -2,-2 -2,-4 0,-1 1,-3 2,-6l74 -206c1,-1 1,-2 2,-3 1,-1 2,-1 3,-2 2,0 3,-1 6,-1 2,0 5,0 8,0 4,0 7,0 9,0 3,0 5,1 6,1 2,1 3,1 3,2 1,1 2,2 2,3l75 206zm-96 -182l0 0 -38 111 77 0 -39 -111z"/>
   <path id="3" class="fil64" d="M5988 13459c0,2 0,4 0,5 0,2 -1,3 -1,4 -1,1 -1,2 -2,2 -1,1 -2,1 -3,1l-62 0 0 192c0,1 0,2 -1,3 0,0 -1,1 -2,1 -1,1 -3,1 -4,1 -2,1 -5,1 -8,1 -2,0 -5,0 -7,-1 -2,0 -3,0 -4,-1 -1,0 -2,-1 -3,-1 0,-1 0,-2 0,-3l0 -192 -63 0c0,0 -1,0 -2,-1 -1,0 -1,-1 -2,-2 0,-1 -1,-2 -1,-4 0,-1 0,-3 0,-5 0,-3 0,-4 0,-6 0,-2 1,-3 1,-4 1,-1 1,-2 2,-2 1,-1 2,-1 2,-1l154 0c1,0 2,0 3,1 1,0 1,1 2,2 0,1 1,2 1,4 0,2 0,3 0,6z"/>
   <path id="4" class="fil64" d="M6144 13655c0,3 0,4 -1,6 0,1 0,3 -1,4 0,1 -1,1 -2,2 -1,0 -1,1 -2,1l-107 0c-2,0 -5,-1 -7,-3 -3,-2 -4,-5 -4,-9l0 -198c0,-4 1,-8 4,-9 2,-2 5,-3 7,-3l105 0c1,0 2,0 3,1 1,0 1,1 2,2 0,1 1,2 1,4 0,1 0,3 0,6 0,2 0,3 0,5 0,1 -1,3 -1,4 -1,1 -1,1 -2,2 -1,0 -2,1 -3,1l-86 0 0 69 74 0c1,0 2,0 3,1 0,0 1,1 1,2 1,1 1,2 2,4 0,1 0,3 0,5 0,2 0,4 0,6 -1,1 -1,2 -2,3 0,1 -1,2 -1,2 -1,1 -2,1 -3,1l-74 0 0 79 88 0c1,0 1,0 2,1 1,0 2,1 2,2 1,1 1,2 1,4 1,1 1,3 1,5z"/>
   <path id="5" class="fil64" d="M6615 13554c0,18 -2,34 -7,49 -4,14 -10,26 -19,36 -8,10 -18,18 -31,24 -13,5 -28,8 -45,8 -16,0 -31,-3 -43,-8 -12,-5 -22,-12 -30,-21 -8,-10 -14,-22 -18,-36 -3,-14 -5,-30 -5,-48 0,-17 2,-33 6,-48 4,-14 10,-26 19,-36 8,-10 19,-18 32,-23 12,-5 27,-8 44,-8 16,0 31,2 43,7 12,5 22,12 30,22 8,9 14,21 18,35 4,13 6,29 6,47zm-31 2c0,-12 -2,-24 -4,-35 -2,-10 -6,-20 -11,-28 -5,-8 -12,-14 -21,-18 -8,-5 -19,-7 -32,-7 -13,0 -23,2 -32,7 -9,5 -16,11 -21,19 -6,8 -9,18 -12,28 -2,11 -3,22 -3,34 0,13 1,25 3,36 2,11 6,20 11,28 5,8 12,14 21,19 8,4 19,6 32,6 13,0 24,-2 32,-7 9,-5 16,-11 22,-19 5,-9 9,-18 11,-29 2,-10 4,-22 4,-34z"/>
   <path id="6" class="fil64" d="M6778 13459c0,2 0,4 -1,5 0,2 0,3 -1,4 0,1 -1,2 -2,2 0,1 -1,1 -2,1l-81 0 0 75 77 0c0,0 1,0 2,1 1,0 1,1 2,2 0,1 1,2 1,4 0,1 0,3 0,5 0,3 0,5 0,6 0,2 -1,3 -1,4 -1,1 -1,2 -2,2 -1,1 -2,1 -2,1l-77 0 0 92c0,1 0,2 -1,3 0,0 -1,1 -2,1 -1,1 -3,1 -5,1 -1,1 -4,1 -7,1 -3,0 -5,0 -7,-1 -2,0 -3,0 -4,-1 -2,0 -2,-1 -3,-1 0,-1 -1,-2 -1,-3l0 -205c0,-4 2,-8 4,-9 2,-2 5,-3 7,-3l100 0c1,0 2,0 2,1 1,0 2,1 2,2 1,1 1,2 1,4 1,2 1,3 1,6z"/>
   <path id="7" class="fil64" d="M7090 13663c0,1 0,2 -1,3 0,0 -1,1 -2,1 -1,1 -3,1 -5,1 -2,1 -4,1 -7,1 -3,0 -5,0 -7,-1 -2,0 -3,0 -5,-1 -1,0 -1,-1 -2,-1 0,-1 -1,-2 -1,-3l0 -213c0,0 1,-1 1,-2 1,-1 2,-1 3,-2 1,0 2,0 4,-1 2,0 4,0 7,0 3,0 5,0 7,0 2,1 4,1 5,1 1,1 2,1 2,2 1,1 1,2 1,2l0 213z"/>
   <path id="8" class="fil64" d="M7316 13655c0,3 0,5 -1,6 -1,2 -2,3 -3,4 -1,1 -2,2 -4,2 -2,1 -3,1 -5,1l-9 0c-3,0 -6,0 -8,-1 -3,-1 -5,-2 -7,-3 -2,-2 -4,-4 -6,-7 -2,-3 -4,-6 -7,-11l-67 -126c-4,-6 -8,-13 -11,-20 -4,-8 -7,-15 -10,-21l-1 0c1,8 1,16 1,25 0,8 0,17 0,25l0 134c0,1 0,2 -1,3 0,0 -1,1 -2,1 -1,1 -3,1 -4,1 -2,1 -5,1 -8,1 -3,0 -5,0 -7,-1 -2,0 -3,0 -4,-1 -1,0 -2,-1 -3,-1 0,-1 0,-2 0,-3l0 -204c0,-5 1,-8 4,-10 2,-2 5,-3 8,-3l15 0c3,0 6,0 8,1 2,0 5,1 6,3 2,1 4,3 6,5 1,3 3,5 5,9l52 97c3,6 6,12 9,18 3,5 6,11 9,16 3,6 5,11 8,17 3,5 6,10 8,16l0 0c0,-9 0,-19 0,-29 0,-9 0,-19 0,-28l0 -120c0,-1 0,-1 1,-2 0,-1 1,-1 2,-2 1,0 3,-1 5,-1 1,0 4,0 7,0 3,0 5,0 7,0 2,0 3,1 4,1 1,1 2,1 3,2 0,1 0,1 0,2l0 204z"/>
   <path id="9" class="fil64" d="M7546 13554c0,19 -3,35 -8,50 -5,14 -12,26 -21,35 -10,10 -21,17 -35,22 -14,4 -30,7 -49,7l-47 0c-3,0 -5,-1 -7,-3 -3,-2 -4,-5 -4,-9l0 -198c0,-4 1,-8 4,-9 2,-2 4,-3 7,-3l50 0c19,0 36,2 49,7 13,5 24,13 33,22 9,9 16,20 21,34 4,13 7,28 7,45zm-31 1c0,-12 -2,-23 -5,-34 -3,-10 -7,-19 -14,-26 -6,-8 -14,-14 -24,-18 -10,-4 -22,-6 -37,-6l-30 0 0 172 30 0c14,0 26,-2 36,-5 9,-4 18,-9 24,-16 7,-8 12,-17 15,-28 3,-11 5,-24 5,-39z"/>
   <path id="10" class="fil64" d="M7714 13655c0,3 0,4 0,6 0,1 -1,3 -1,4 -1,1 -1,1 -2,2 -1,0 -2,1 -3,1l-106 0c-3,0 -5,-1 -8,-3 -2,-2 -3,-5 -3,-9l0 -198c0,-4 1,-8 3,-9 3,-2 5,-3 8,-3l105 0c1,0 2,0 3,1 0,0 1,1 1,2 1,1 1,2 1,4 1,1 1,3 1,6 0,2 0,3 -1,5 0,1 0,3 -1,4 0,1 -1,1 -1,2 -1,0 -2,1 -3,1l-87 0 0 69 75 0c1,0 1,0 2,1 1,0 2,1 2,2 1,1 1,2 1,4 0,1 1,3 1,5 0,2 -1,4 -1,6 0,1 0,2 -1,3 0,1 -1,2 -2,2 -1,1 -1,1 -2,1l-75 0 0 79 88 0c1,0 2,0 3,1 1,0 1,1 2,2 0,1 1,2 1,4 0,1 0,3 0,5z"/>
   <path id="11" class="fil64" d="M7898 13511c0,11 -2,21 -5,30 -4,9 -9,16 -16,23 -7,6 -15,11 -25,14 -10,4 -22,5 -35,5l-25 0 0 80c0,1 -1,2 -1,3 -1,0 -2,1 -3,1 -1,1 -2,1 -4,1 -2,1 -4,1 -7,1 -3,0 -5,0 -7,-1 -2,0 -4,0 -5,-1 -1,0 -2,-1 -2,-1 -1,-1 -1,-2 -1,-3l0 -204c0,-5 1,-8 4,-10 2,-2 5,-3 8,-3l47 0c5,0 10,0 14,1 4,0 9,1 15,2 6,1 13,4 19,8 6,3 11,8 16,13 4,5 7,11 10,18 2,7 3,15 3,23zm-31 2c0,-9 -1,-16 -5,-22 -3,-6 -7,-11 -12,-14 -5,-3 -10,-5 -16,-6 -5,0 -10,-1 -15,-1l-27 0 0 89 26 0c9,0 16,-1 22,-3 6,-2 11,-6 15,-10 4,-4 7,-9 9,-14 2,-6 3,-12 3,-19z"/>
   <path id="12" class="fil64" d="M8067 13655c0,3 0,4 -1,6 0,1 0,3 -1,4 0,1 -1,1 -2,2 -1,0 -1,1 -2,1l-107 0c-2,0 -5,-1 -7,-3 -3,-2 -4,-5 -4,-9l0 -198c0,-4 1,-8 4,-9 2,-2 5,-3 7,-3l105 0c1,0 2,0 3,1 1,0 1,1 2,2 0,1 1,2 1,4 0,1 0,3 0,6 0,2 0,3 0,5 0,1 -1,3 -1,4 -1,1 -1,1 -2,2 -1,0 -2,1 -3,1l-86 0 0 69 74 0c1,0 2,0 3,1 0,0 1,1 2,2 0,1 0,2 1,4 0,1 0,3 0,5 0,2 0,4 0,6 -1,1 -1,2 -1,3 -1,1 -2,2 -2,2 -1,1 -2,1 -3,1l-74 0 0 79 88 0c1,0 1,0 2,1 1,0 2,1 2,2 1,1 1,2 1,4 1,1 1,3 1,5z"/>
   <path id="13" class="fil64" d="M8282 13655c0,3 0,5 -1,6 -1,2 -2,3 -3,4 -1,1 -3,2 -4,2 -2,1 -3,1 -5,1l-10 0c-3,0 -5,0 -8,-1 -2,-1 -4,-2 -6,-3 -2,-2 -4,-4 -6,-7 -2,-3 -5,-6 -7,-11l-68 -126c-3,-6 -7,-13 -10,-20 -4,-8 -7,-15 -10,-21l-1 0c0,8 1,16 1,25 0,8 0,17 0,25l0 134c0,1 0,2 -1,3 0,0 -1,1 -2,1 -1,1 -3,1 -5,1 -2,1 -4,1 -7,1 -3,0 -5,0 -7,-1 -2,0 -3,0 -4,-1 -2,0 -2,-1 -3,-1 0,-1 0,-2 0,-3l0 -204c0,-5 1,-8 3,-10 3,-2 6,-3 9,-3l14 0c4,0 7,0 9,1 2,0 4,1 6,3 2,1 4,3 5,5 2,3 4,5 6,9l52 97c3,6 6,12 9,18 3,5 6,11 9,16 3,6 5,11 8,17 3,5 5,10 8,16l0 0c0,-9 0,-19 0,-29 0,-9 0,-19 0,-28l0 -120c0,-1 0,-1 0,-2 1,-1 2,-1 3,-2 1,0 3,-1 4,-1 2,0 5,0 8,0 2,0 5,0 7,0 1,0 3,1 4,1 1,1 2,1 2,2 1,1 1,1 1,2l0 204z"/>
   <path id="14" class="fil64" d="M8511 13554c0,19 -2,35 -7,50 -5,14 -12,26 -22,35 -9,10 -21,17 -34,22 -14,4 -30,7 -49,7l-47 0c-3,0 -5,-1 -8,-3 -2,-2 -3,-5 -3,-9l0 -198c0,-4 1,-8 3,-9 3,-2 5,-3 8,-3l50 0c19,0 35,2 49,7 13,5 24,13 33,22 9,9 16,20 20,34 5,13 7,28 7,45zm-31 1c0,-12 -1,-23 -4,-34 -3,-10 -8,-19 -14,-26 -6,-8 -14,-14 -24,-18 -10,-4 -22,-6 -38,-6l-30 0 0 172 31 0c14,0 26,-2 36,-5 9,-4 17,-9 24,-16 6,-8 11,-17 15,-28 3,-11 4,-24 4,-39z"/>
   <path id="15" class="fil64" d="M8717 13657c1,3 2,5 2,6 0,2 0,3 -1,4 -1,1 -3,1 -5,1 -2,1 -5,1 -8,1 -4,0 -7,0 -9,-1 -2,0 -4,0 -5,0 -1,-1 -2,-1 -2,-2 -1,-1 -1,-2 -2,-3l-19 -54 -92 0 -18 54c0,1 -1,2 -1,2 -1,1 -2,2 -3,2 -1,1 -2,1 -4,1 -2,1 -5,1 -8,1 -3,0 -6,0 -8,-1 -2,0 -4,-1 -5,-1 -1,-1 -1,-2 -1,-4 0,-1 1,-3 2,-6l74 -206c0,-1 1,-2 2,-3 0,-1 2,-1 3,-2 1,0 3,-1 5,-1 3,0 5,0 9,0 4,0 7,0 9,0 2,0 4,1 6,1 1,1 2,1 3,2 1,1 2,2 2,3l74 206zm-95 -182l0 0 -38 111 77 0 -39 -111z"/>
   <path id="16" class="fil64" d="M8922 13655c0,3 0,5 -1,6 -1,2 -2,3 -3,4 -1,1 -3,2 -4,2 -2,1 -3,1 -5,1l-10 0c-3,0 -5,0 -8,-1 -2,-1 -4,-2 -6,-3 -2,-2 -4,-4 -6,-7 -2,-3 -5,-6 -7,-11l-68 -126c-3,-6 -7,-13 -10,-20 -4,-8 -7,-15 -10,-21l-1 0c0,8 1,16 1,25 0,8 0,17 0,25l0 134c0,1 0,2 -1,3 0,0 -1,1 -2,1 -1,1 -3,1 -5,1 -2,1 -4,1 -7,1 -3,0 -5,0 -7,-1 -2,0 -3,0 -4,-1 -2,0 -2,-1 -3,-1 0,-1 -1,-2 -1,-3l0 -204c0,-5 2,-8 4,-10 3,-2 6,-3 9,-3l14 0c4,0 7,0 9,1 2,0 4,1 6,3 2,1 4,3 5,5 2,3 4,5 6,9l52 97c3,6 6,12 9,18 3,5 6,11 9,16 2,6 5,11 8,17 3,5 5,10 8,16l0 0c0,-9 0,-19 0,-29 0,-9 0,-19 0,-28l0 -120c0,-1 0,-1 0,-2 1,-1 2,-1 3,-2 1,0 2,-1 4,-1 2,0 5,0 8,0 2,0 5,0 6,0 2,0 4,1 5,1 1,1 2,1 2,2 1,1 1,1 1,2l0 204z"/>
   <path id="17" class="fil64" d="M9129 13636c0,2 0,4 0,5 0,2 -1,3 -1,4 0,1 -1,2 -1,3 -1,0 -1,1 -2,2 -2,2 -4,3 -8,6 -3,2 -8,4 -13,6 -6,3 -12,5 -19,6 -7,2 -15,2 -23,2 -14,0 -27,-2 -39,-7 -12,-5 -22,-12 -30,-21 -8,-9 -14,-21 -19,-35 -4,-13 -6,-29 -6,-47 0,-19 2,-35 7,-49 5,-15 11,-27 20,-37 9,-10 19,-18 31,-23 12,-5 25,-8 39,-8 7,0 13,1 19,2 6,1 12,3 17,4 5,2 10,4 14,7 4,2 6,4 8,6 2,1 3,2 3,3 1,1 1,2 1,3 0,1 1,2 1,4 0,1 0,3 0,5 0,2 0,4 0,6 0,2 -1,3 -1,4 -1,1 -1,2 -2,2 -1,1 -1,1 -2,1 -2,0 -4,-1 -7,-3 -3,-2 -7,-5 -11,-8 -5,-2 -10,-5 -17,-7 -6,-2 -14,-3 -23,-3 -10,0 -19,2 -27,6 -8,4 -15,9 -21,17 -6,8 -10,17 -13,28 -3,11 -5,24 -5,38 0,14 2,27 5,37 3,11 7,20 13,27 5,8 12,13 21,17 8,4 17,5 28,5 9,0 16,-1 23,-3 7,-2 12,-4 17,-7 4,-3 8,-5 11,-7 3,-2 6,-4 7,-4 1,0 2,1 2,1 1,0 1,1 2,2 0,1 0,2 1,4 0,2 0,4 0,6z"/>
   <path id="18" class="fil64" d="M9291 13655c0,3 0,4 0,6 0,1 -1,3 -1,4 -1,1 -2,1 -2,2 -1,0 -2,1 -3,1l-106 0c-3,0 -5,-1 -8,-3 -2,-2 -3,-5 -3,-9l0 -198c0,-4 1,-8 3,-9 3,-2 5,-3 8,-3l105 0c1,0 2,0 2,1 1,0 2,1 2,2 1,1 1,2 1,4 1,1 1,3 1,6 0,2 0,3 -1,5 0,1 0,3 -1,4 0,1 -1,1 -2,2 0,0 -1,1 -2,1l-87 0 0 69 75 0c1,0 1,0 2,1 1,0 2,1 2,2 1,1 1,2 1,4 0,1 1,3 1,5 0,2 -1,4 -1,6 0,1 0,2 -1,3 0,1 -1,2 -2,2 -1,1 -1,1 -2,1l-75 0 0 79 88 0c1,0 2,0 3,1 0,0 1,1 2,2 0,1 1,2 1,4 0,1 0,3 0,5z"/>
   <path class="fil65" d="M4296 11973c0,10 0,17 0,21 0,49 11,90 34,124 23,34 54,51 93,51 40,0 79,-18 118,-54 8,-7 13,-10 17,-10 8,0 13,4 13,14 0,8 -10,21 -30,41 -20,19 -44,34 -73,44 -28,10 -58,15 -89,15 -67,0 -120,-22 -158,-65 -38,-42 -57,-93 -57,-151 0,-70 22,-128 66,-176 43,-47 98,-71 163,-71 61,0 108,22 140,65 32,43 48,84 48,123 0,12 -3,20 -9,22 -6,2 -26,4 -61,4l-215 3zm3 -38c49,0 77,1 85,1 37,0 60,-3 68,-9 9,-5 13,-16 13,-33 0,-28 -8,-53 -23,-75 -16,-21 -34,-32 -56,-32 -50,0 -79,49 -87,148z"/>
   <path id="1" class="fil65" d="M4809 11854c23,-33 47,-58 73,-74 27,-17 55,-25 85,-25 25,0 48,7 68,20 21,14 35,30 43,48 7,19 11,45 11,79l-5 206c0,29 3,47 8,57 5,9 15,15 31,18 13,2 19,8 19,16 0,9 -6,13 -19,13 -11,0 -35,-1 -72,-4 -12,-1 -23,-1 -31,-1 -7,0 -29,2 -65,5l-24 0c-14,0 -20,-4 -20,-13 0,-8 6,-13 18,-15 11,-3 20,-6 27,-12 7,-6 11,-33 13,-81 2,-49 3,-97 3,-145 0,-54 -4,-90 -12,-110 -8,-19 -23,-29 -46,-29 -28,0 -54,21 -78,64 -24,43 -36,109 -36,198 0,34 2,59 5,75 3,15 8,25 12,29 5,4 15,7 31,10 9,2 14,7 14,15 0,9 -7,14 -20,14 -7,0 -14,0 -22,0 -32,-3 -49,-5 -52,-5 -47,0 -86,2 -117,5 -5,0 -9,0 -12,0 -12,0 -18,-5 -18,-14 0,-9 5,-14 16,-15 17,-2 29,-7 34,-15 7,-7 11,-31 14,-71 2,-39 4,-86 4,-142 0,-70 -3,-113 -8,-130 -5,-16 -17,-28 -36,-36 -13,-5 -20,-11 -20,-16 0,-8 10,-13 29,-13 55,0 100,-2 134,-7 12,30 19,64 21,101z"/>
   <path id="2" class="fil65" d="M5358 11854c22,-33 46,-58 73,-74 26,-17 54,-25 84,-25 25,0 48,7 69,20 21,14 35,30 42,48 7,19 11,45 11,79l-4 206c0,29 2,47 7,57 5,9 15,15 31,18 13,2 20,8 20,16 0,9 -7,13 -19,13 -11,0 -35,-1 -72,-4 -13,-1 -24,-1 -31,-1 -8,0 -30,2 -66,5l-24 0c-13,0 -20,-4 -20,-13 0,-8 6,-13 18,-15 12,-3 21,-6 27,-12 7,-6 11,-33 13,-81 3,-49 4,-97 4,-145 0,-54 -4,-90 -13,-110 -8,-19 -23,-29 -46,-29 -28,0 -54,21 -78,64 -24,43 -36,109 -36,198 0,34 2,59 6,75 3,15 7,25 12,29 4,4 15,7 30,10 10,2 14,7 14,15 0,9 -6,14 -20,14 -7,0 -14,0 -22,0 -32,-3 -49,-5 -51,-5 -48,0 -87,2 -118,5 -4,0 -8,0 -11,0 -13,0 -19,-5 -19,-14 0,-9 6,-14 17,-15 17,-2 28,-7 34,-15 6,-7 10,-31 13,-71 3,-39 4,-86 4,-142 0,-70 -2,-113 -7,-130 -5,-16 -17,-28 -36,-36 -14,-5 -21,-11 -21,-16 0,-8 10,-13 30,-13 55,0 99,-2 133,-7 12,30 20,64 22,101z"/>
   <path id="3" class="fil65" d="M6083 12064c0,24 -6,48 -18,72 -13,23 -31,42 -56,58 -25,15 -54,23 -87,23 -42,0 -77,-9 -106,-27 -12,-8 -20,-11 -24,-11 -4,0 -7,3 -10,8 -5,13 -11,20 -19,20 -4,0 -7,-2 -9,-5 -2,-4 -3,-19 -4,-46 -2,-27 -2,-59 -2,-96 0,-15 4,-22 12,-22 8,0 16,11 25,32 32,77 75,116 129,116 19,0 36,-5 49,-15 13,-11 20,-26 20,-46 0,-16 -6,-30 -19,-42 -12,-12 -35,-27 -70,-45 -53,-27 -89,-51 -108,-71 -20,-20 -30,-47 -30,-81 0,-39 14,-70 43,-94 29,-25 64,-37 106,-37 33,0 67,11 101,31 5,3 9,5 11,5 5,0 8,-4 10,-12 4,-10 8,-14 15,-14 4,0 7,1 9,4 1,3 3,20 6,49 3,29 5,53 5,72 0,14 -4,20 -11,20 -8,0 -16,-9 -25,-29 -28,-64 -68,-96 -121,-96 -19,0 -34,5 -46,15 -12,10 -18,20 -18,32 0,14 8,28 23,40 15,12 44,29 88,50 38,18 64,31 78,41 15,10 28,24 38,42 10,19 15,38 15,59z"/>
   <path id="4" class="fil65" d="M6427 12094l41 -118c21,-66 32,-110 32,-134 0,-28 -15,-44 -46,-49 -14,-2 -21,-7 -21,-15 0,-10 7,-14 20,-14 6,0 15,1 29,2 14,2 32,3 51,3 14,0 30,-1 48,-3 16,-1 25,-2 28,-2 15,0 23,5 23,15 0,5 -5,9 -15,12 -26,7 -45,22 -57,44 -13,22 -38,91 -77,207 -51,151 -88,252 -111,303 -22,50 -48,87 -76,108 -27,22 -57,33 -89,33 -28,0 -50,-8 -66,-22 -16,-15 -24,-34 -24,-57 0,-14 6,-28 17,-42 11,-13 26,-20 45,-20 30,0 48,19 56,56 5,19 11,28 20,28 22,0 46,-24 72,-72 26,-47 39,-83 39,-106 0,-12 -10,-43 -31,-95 -20,-51 -48,-118 -83,-200 -35,-82 -57,-128 -66,-140 -10,-12 -21,-20 -34,-23 -12,-3 -19,-7 -19,-14 0,-10 9,-15 25,-15 4,0 18,1 41,3 13,1 31,2 53,2 36,0 67,-1 94,-4l22 -1c13,0 19,4 19,13 0,9 -8,15 -23,18 -11,2 -19,7 -25,14 -6,8 -9,14 -9,21 0,8 9,37 27,87 17,50 41,109 70,177z"/>
   <path id="5" class="fil65" d="M6839 11503l2 432c0,138 4,214 10,226 7,13 20,20 40,21 23,1 34,6 34,14 0,11 -7,16 -21,16 -4,0 -10,0 -17,-1 -32,-2 -63,-4 -93,-4 -49,0 -85,2 -108,4 -7,1 -13,1 -18,1 -15,0 -22,-4 -22,-13 0,-9 8,-14 25,-15 18,-1 31,-5 40,-11 8,-5 13,-13 15,-24 2,-11 3,-35 3,-74l-2 -202 1 -161c0,-67 -3,-108 -9,-122 -6,-14 -24,-24 -54,-29 -18,-3 -28,-8 -28,-16 0,-6 3,-9 7,-11 4,-2 14,-3 30,-5 68,-6 123,-14 165,-26z"/>
   <path id="6" class="fil65" d="M7240 12070c21,-48 41,-98 60,-151 18,-53 27,-86 27,-98 0,-14 -7,-24 -23,-28 -14,-4 -21,-9 -21,-17 0,-8 6,-12 18,-12 5,0 18,1 36,3 17,1 29,2 35,2 15,0 28,-1 41,-4 7,-1 12,-1 16,-1 11,0 16,5 16,14 0,8 -7,13 -21,15 -31,5 -58,36 -78,91 -24,63 -47,121 -68,175 -22,53 -38,92 -50,116 -11,24 -18,37 -21,39 -2,2 -5,3 -9,3 -4,0 -9,-4 -13,-10 -4,-7 -21,-41 -51,-104l-113 -237c-17,-34 -29,-55 -38,-61 -9,-7 -16,-11 -22,-13 -13,-3 -20,-8 -20,-14 0,-10 7,-14 19,-14 6,0 14,0 25,1 27,3 53,4 78,4 10,0 22,-1 35,-2 23,-2 37,-3 42,-3 21,0 32,4 32,12 0,9 -6,15 -18,16 -17,2 -26,10 -26,25 0,9 14,45 42,107 27,62 51,110 70,146z"/>
   <path id="7" class="fil65" d="M7682 12158c-20,20 -41,35 -62,46 -20,10 -42,15 -63,15 -33,0 -60,-11 -78,-32 -18,-21 -27,-47 -27,-78 0,-23 5,-44 16,-62 11,-19 25,-33 41,-43 16,-11 44,-23 81,-37 32,-12 53,-21 64,-28 10,-6 19,-16 27,-29 7,-13 11,-30 11,-50 0,-22 -6,-41 -17,-54 -11,-14 -26,-20 -45,-20 -16,0 -28,4 -35,13 -7,9 -12,23 -16,42 -7,39 -28,59 -60,59 -14,0 -25,-4 -35,-13 -9,-8 -14,-20 -14,-35 0,-33 17,-58 51,-74 35,-17 76,-25 124,-25 41,0 75,7 100,20 26,13 43,28 50,45 7,18 11,45 11,81l-1 123c0,65 2,106 6,124 4,19 13,28 27,28 1,0 4,0 7,-1 7,0 11,-1 14,-1 13,0 20,4 20,12 0,5 -3,9 -9,13 -5,4 -22,8 -50,14 -28,5 -53,8 -76,8 -23,0 -38,-5 -47,-14 -8,-9 -13,-25 -15,-47zm7 -207c-8,10 -27,23 -58,39 -27,16 -46,29 -55,41 -9,12 -14,30 -14,52 0,25 5,43 15,55 9,13 22,19 36,19 19,0 37,-9 54,-27 16,-19 25,-51 25,-98 0,-15 -1,-42 -3,-81z"/>
   <path id="8" class="fil65" d="M8098 11854c22,-33 46,-58 72,-74 27,-17 55,-25 85,-25 25,0 48,7 69,20 20,14 34,30 42,48 7,19 11,45 11,79l-4 206c0,29 2,47 7,57 5,9 15,15 31,18 13,2 20,8 20,16 0,9 -7,13 -20,13 -10,0 -34,-1 -71,-4 -13,-1 -24,-1 -31,-1 -8,0 -30,2 -66,5l-24 0c-13,0 -20,-4 -20,-13 0,-8 6,-13 18,-15 12,-3 20,-6 27,-12 7,-6 11,-33 13,-81 3,-49 4,-97 4,-145 0,-54 -4,-90 -13,-110 -8,-19 -23,-29 -46,-29 -28,0 -54,21 -78,64 -24,43 -36,109 -36,198 0,34 2,59 6,75 3,15 7,25 12,29 4,4 15,7 30,10 10,2 14,7 14,15 0,9 -7,14 -20,14 -7,0 -14,0 -22,0 -32,-3 -49,-5 -51,-5 -48,0 -87,2 -118,5 -4,0 -8,0 -11,0 -13,0 -19,-5 -19,-14 0,-9 6,-14 17,-15 16,-2 28,-7 34,-15 6,-7 10,-31 13,-71 3,-39 4,-86 4,-142 0,-70 -2,-113 -7,-130 -5,-16 -17,-28 -36,-36 -14,-5 -21,-11 -21,-16 0,-8 10,-13 30,-13 55,0 99,-2 133,-7 12,30 20,64 22,101z"/>
   <path id="9" class="fil65" d="M8648 11579c0,21 -7,38 -21,53 -14,14 -31,22 -50,22 -20,0 -37,-8 -51,-22 -14,-15 -21,-32 -21,-53 0,-20 7,-38 21,-52 14,-15 31,-22 51,-22 19,0 36,7 50,22 14,14 21,32 21,52zm7 174c1,48 2,134 2,258l-1 111c0,22 3,37 10,45 7,7 19,12 35,15 19,2 28,8 28,16 0,10 -7,14 -22,14 -7,0 -19,0 -36,-1 -36,-3 -72,-4 -108,-4 -17,0 -35,1 -53,3 -11,2 -19,2 -23,2 -14,0 -21,-4 -21,-13 0,-9 9,-14 29,-16 25,-3 39,-11 42,-27 3,-15 5,-46 5,-93 0,-60 -1,-116 -3,-166 -2,-51 -5,-80 -10,-87 -5,-7 -18,-12 -39,-15 -16,-1 -24,-6 -24,-15 0,-8 8,-13 24,-14l11 -1 154 -12z"/>
   <path id="10" class="fil65" d="M9022 12158c-21,20 -41,35 -62,46 -21,10 -42,15 -63,15 -34,0 -60,-11 -79,-32 -18,-21 -27,-47 -27,-78 0,-23 5,-44 16,-62 12,-19 25,-33 42,-43 16,-11 43,-23 80,-37 32,-12 53,-21 64,-28 11,-6 20,-16 27,-29 7,-13 11,-30 11,-50 0,-22 -6,-41 -17,-54 -10,-14 -25,-20 -45,-20 -16,0 -28,4 -35,13 -7,9 -12,23 -16,42 -7,39 -27,59 -60,59 -14,0 -25,-4 -35,-13 -9,-8 -14,-20 -14,-35 0,-33 17,-58 52,-74 34,-17 75,-25 123,-25 41,0 75,7 101,20 26,13 42,28 49,45 8,18 11,45 11,81l-1 123c0,65 2,106 6,124 5,19 13,28 27,28 2,0 4,0 8,-1 6,0 11,-1 13,-1 13,0 20,4 20,12 0,5 -3,9 -8,13 -6,4 -23,8 -51,14 -28,5 -53,8 -76,8 -22,0 -38,-5 -46,-14 -9,-9 -14,-25 -15,-47zm6 -207c-8,10 -27,23 -57,39 -28,16 -46,29 -56,41 -9,12 -14,30 -14,52 0,25 5,43 15,55 10,13 22,19 36,19 19,0 37,-9 54,-27 17,-19 25,-51 25,-98 0,-15 -1,-42 -3,-81z"/>
   <path class="fil65" d="M3584 11891l-1 294c0,61 9,101 28,120 19,18 48,28 86,29 25,0 41,2 48,5 6,4 10,10 10,19 0,13 -16,20 -48,20 -15,0 -48,-2 -100,-5 -70,-3 -120,-5 -148,-5 -30,0 -73,2 -127,5 -44,3 -77,5 -97,5 -18,0 -27,-7 -27,-21 0,-12 15,-19 45,-23 31,-5 52,-12 65,-22 12,-11 21,-29 27,-56 6,-26 9,-97 10,-212 0,-116 0,-217 0,-305l0 -243c0,-33 -9,-59 -26,-79 -17,-20 -47,-30 -90,-30 -19,0 -29,-7 -29,-22 0,-17 17,-25 51,-25l22 1c30,1 66,2 107,2l337 -5c171,0 290,24 358,72 67,48 101,115 101,201 0,85 -36,154 -109,206 -72,52 -191,78 -355,78 -38,0 -84,-2 -138,-4zm0 -54c31,2 55,4 73,4 87,0 153,-25 196,-75 44,-49 66,-108 66,-177 0,-65 -20,-114 -60,-146 -40,-33 -89,-49 -148,-49 -30,0 -72,4 -127,13l0 430z"/>
   <path class="fil65" d="M5105 12987c0,8 0,13 0,16 0,35 7,65 23,89 15,25 36,37 62,37 26,0 52,-13 78,-39 5,-5 9,-8 11,-8 6,0 9,4 9,11 0,5 -7,15 -20,29 -13,14 -29,25 -48,32 -20,7 -39,11 -60,11 -44,0 -79,-16 -105,-47 -25,-31 -38,-67 -38,-109 0,-50 15,-92 44,-126 29,-34 65,-51 109,-51 40,0 72,15 93,46 21,31 32,61 32,89 0,9 -2,14 -6,16 -4,1 -18,2 -41,2l-143 2zm2 -27c33,1 51,1 57,1 24,0 39,-2 45,-6 6,-4 8,-12 8,-24 0,-20 -5,-38 -15,-54 -10,-16 -23,-23 -37,-23 -34,0 -53,35 -58,106z"/>
   <path id="1" class="fil65" d="M5450 12649l1 311c1,100 3,154 7,163 5,9 13,14 27,15 15,1 22,4 22,10 0,8 -4,12 -14,12 -2,0 -6,0 -11,-1 -21,-2 -42,-3 -62,-3 -32,0 -56,1 -72,3 -4,1 -8,1 -12,1 -10,0 -15,-3 -15,-10 0,-6 6,-10 17,-11 12,0 21,-3 27,-7 5,-4 9,-10 10,-18 1,-7 2,-25 2,-53l-2 -146 1 -116c0,-48 -2,-77 -6,-87 -4,-10 -16,-17 -36,-21 -12,-2 -18,-6 -18,-12 0,-3 1,-6 4,-7 3,-2 10,-3 20,-4 45,-4 82,-10 110,-19z"/>
   <path id="2" class="fil65" d="M5545 12999c0,-47 14,-86 42,-120 28,-33 64,-50 107,-50 28,0 53,8 74,23 22,16 32,34 32,54 0,13 -3,23 -9,30 -7,7 -15,10 -25,10 -19,0 -32,-15 -41,-46 -4,-17 -9,-29 -14,-36 -6,-7 -13,-11 -24,-11 -18,0 -31,10 -40,31 -9,20 -14,51 -14,92 0,47 8,84 22,112 15,28 35,42 58,42 32,0 54,-21 67,-64 5,-14 10,-21 15,-21 6,0 9,4 9,11 0,22 -9,45 -29,71 -19,25 -48,38 -87,38 -42,0 -77,-16 -103,-47 -27,-31 -40,-71 -40,-119z"/>
   <path id="3" class="fil65" d="M6170 12988c0,46 -15,86 -45,122 -30,35 -68,53 -114,53 -43,0 -78,-15 -107,-45 -29,-29 -44,-69 -44,-118 0,-51 15,-91 46,-123 31,-31 68,-46 112,-46 44,0 81,15 109,44 29,29 43,67 43,113zm-91 26c0,-41 -6,-77 -18,-110 -11,-33 -29,-50 -51,-50 -20,0 -35,12 -45,35 -11,23 -17,55 -17,96 0,45 7,82 19,111 12,29 28,43 50,43 21,0 36,-11 47,-34 10,-23 15,-53 15,-91z"/>
   <path id="4" class="fil65" d="M6335 12888c16,-20 32,-34 48,-44 17,-9 33,-14 50,-14 12,0 25,3 38,8 13,6 28,18 43,39 16,-16 32,-28 49,-35 16,-8 33,-12 51,-12 30,0 52,9 66,28 13,18 20,46 20,82l-1 126c0,36 1,56 4,61 3,6 12,9 25,12 8,1 12,4 12,10 0,7 -5,11 -14,11 -1,0 -3,0 -6,-1 -19,-2 -39,-3 -60,-3 -12,0 -26,1 -43,3 -10,0 -16,1 -18,1 -11,0 -16,-4 -16,-11 0,-6 3,-9 11,-10 12,-2 20,-5 22,-8 3,-3 5,-14 7,-34 1,-20 2,-54 2,-101 0,-44 -1,-73 -3,-89 -2,-17 -6,-29 -13,-38 -7,-8 -16,-12 -26,-12 -10,0 -19,4 -29,12 -10,8 -20,20 -30,36 -7,39 -10,94 -10,166 0,30 2,49 6,55 4,7 13,11 27,13 8,1 12,4 12,9 0,8 -5,12 -16,12 -2,0 -11,-1 -25,-2 -20,-1 -34,-2 -43,-2 -14,0 -31,1 -50,3 -5,1 -9,1 -12,1 -10,0 -14,-4 -14,-11 0,-6 4,-10 14,-10 12,-1 20,-9 23,-24 3,-15 5,-67 5,-155 0,-37 -3,-62 -8,-76 -6,-14 -15,-20 -29,-20 -22,0 -40,13 -53,40 -13,26 -19,78 -19,155 0,36 2,58 6,66 4,8 12,13 23,14 8,0 12,3 12,9 0,8 -4,12 -13,12 -2,0 -5,0 -10,-1 -11,-2 -31,-3 -58,-3 -25,0 -44,1 -57,3 -5,1 -9,1 -12,1 -7,0 -11,-4 -11,-11 0,-6 5,-10 13,-10 13,-1 21,-4 24,-8 3,-5 6,-17 7,-38 2,-20 2,-59 2,-115 0,-44 0,-72 -1,-83 -1,-11 -5,-20 -11,-26 -6,-6 -15,-9 -26,-9 -9,-1 -14,-4 -14,-10 0,-7 5,-10 14,-11 12,-1 29,-2 52,-5 22,-3 42,-4 59,-4 3,7 4,19 4,36 0,4 0,11 0,22z"/>
   <path id="5" class="fil65" d="M6868 12987c0,8 0,13 0,16 0,35 8,65 23,89 15,25 36,37 62,37 26,0 52,-13 78,-39 5,-5 9,-8 11,-8 6,0 9,4 9,11 0,5 -7,15 -20,29 -13,14 -29,25 -48,32 -19,7 -39,11 -60,11 -44,0 -79,-16 -105,-47 -25,-31 -38,-67 -38,-109 0,-50 15,-92 44,-126 29,-34 65,-51 109,-51 40,0 72,15 93,46 21,31 32,61 32,89 0,9 -2,14 -6,16 -4,1 -18,2 -41,2l-143 2zm2 -27c33,1 51,1 57,1 24,0 39,-2 45,-6 6,-4 8,-12 8,-24 0,-20 -5,-38 -15,-54 -10,-16 -23,-23 -37,-23 -34,0 -53,35 -58,106z"/>
   <path id="6" class="fil65" d="M7328 13053c0,18 -4,35 -13,52 -8,17 -20,31 -37,42 -16,11 -36,16 -58,16 -27,0 -51,-6 -70,-19 -8,-6 -13,-8 -16,-8 -3,0 -5,2 -6,6 -4,9 -8,14 -13,14 -3,0 -5,-1 -6,-4 -1,-2 -3,-13 -3,-32 -1,-20 -1,-43 -1,-70 0,-10 2,-15 8,-15 5,0 11,7 17,22 21,56 49,84 85,84 13,0 24,-4 33,-11 9,-8 13,-18 13,-33 0,-12 -4,-22 -12,-30 -9,-9 -24,-20 -47,-32 -35,-20 -59,-37 -72,-52 -14,-14 -20,-34 -20,-58 0,-28 10,-51 29,-68 19,-17 42,-26 70,-26 22,0 45,7 68,22 3,2 5,3 7,3 3,0 5,-2 7,-8 2,-7 5,-10 9,-10 3,0 5,1 6,3 1,2 3,14 5,35 2,21 3,38 3,52 0,10 -3,15 -8,15 -5,0 -10,-7 -16,-21 -19,-47 -45,-70 -81,-70 -12,0 -23,4 -31,11 -7,7 -11,15 -11,23 0,10 5,20 15,29 10,9 29,21 59,36 25,13 42,22 52,30 10,7 18,17 25,30 6,13 10,27 10,42z"/>
   <path class="fil65" d="M4453 13179l-38 0 -129 -323c-51,-128 -91,-222 -118,-283 -28,-60 -48,-97 -62,-110 -13,-14 -28,-23 -45,-28 -10,-3 -16,-9 -16,-17 0,-6 2,-11 6,-13 4,-2 15,-3 32,-3l129 2c16,0 37,0 63,-2 38,-2 67,-3 87,-3 13,0 19,5 19,16 0,11 -7,17 -22,18 -15,1 -28,7 -40,18 -11,10 -17,23 -17,38 0,12 3,27 10,46 6,18 32,86 79,203l87 213 110 -335c-7,-18 -18,-47 -34,-90 -15,-42 -28,-67 -37,-75 -9,-8 -24,-14 -45,-17 -11,-2 -17,-7 -17,-17 0,-6 3,-10 7,-12 4,-2 19,-3 45,-3l123 2 100 -2c35,0 54,1 59,2 4,1 6,6 6,13 0,11 -6,16 -19,16 -22,0 -38,6 -49,18 -11,13 -16,27 -16,43 0,47 48,195 144,444 19,-54 45,-131 76,-228 31,-98 49,-155 53,-170 4,-15 6,-30 6,-44 0,-21 -7,-37 -18,-47 -12,-10 -24,-15 -36,-16 -17,-1 -25,-6 -25,-16 0,-10 7,-15 23,-15l86 2c34,0 63,-1 88,-3 14,-2 23,-2 28,-2 13,0 20,5 20,16 0,10 -7,15 -21,17 -14,1 -26,6 -37,13 -10,7 -23,23 -38,48 -15,25 -36,79 -64,162l-86 260 -87 264 -37 0c-7,-18 -37,-102 -87,-252 -26,-78 -55,-159 -86,-244l-85 260 -75 236z"/>
   <path class="fil65" d="M8222 12758c95,-140 143,-225 143,-257 0,-8 -3,-17 -8,-27 -5,-9 -21,-17 -46,-26 -10,-3 -15,-8 -15,-16 0,-12 6,-18 18,-18 4,0 8,1 14,2 44,3 77,5 100,5 25,0 54,-2 88,-5 7,-1 12,-2 17,-2 10,0 15,5 15,16 0,10 -5,15 -15,16 -23,3 -44,12 -63,26 -20,14 -43,42 -70,83 -28,40 -58,89 -92,144 -33,55 -52,89 -55,101 -4,13 -5,54 -5,126 0,109 4,174 13,196 8,22 30,32 65,32 12,0 18,6 18,17 0,12 -7,18 -21,18 -10,0 -38,-2 -84,-6 -27,-2 -45,-3 -57,-3 -37,0 -79,3 -127,8 -9,0 -16,1 -21,1 -13,0 -19,-6 -19,-17 0,-9 5,-15 15,-16 33,-4 54,-17 63,-38 9,-20 13,-66 13,-136 0,-63 -3,-105 -9,-126 -7,-21 -25,-60 -57,-117 -31,-57 -62,-111 -93,-163 -31,-53 -54,-86 -71,-100 -17,-15 -35,-24 -54,-27 -9,-2 -14,-7 -14,-16 0,-12 6,-17 18,-17 5,0 14,0 26,1 53,5 91,7 116,7 39,0 83,-2 131,-6 10,-1 18,-1 25,-1 12,0 18,5 18,15 0,10 -7,15 -19,17 -35,3 -52,17 -52,41 0,25 50,114 151,268z"/>
   <path class="fil65" d="M8771 13004c0,46 -15,86 -45,122 -30,35 -69,53 -115,53 -42,0 -78,-15 -107,-45 -29,-30 -44,-69 -44,-119 0,-50 16,-91 46,-122 31,-31 68,-46 112,-46 45,0 81,14 110,44 28,29 43,67 43,113zm-91 26c0,-41 -6,-78 -18,-111 -12,-32 -29,-49 -52,-49 -19,0 -34,12 -45,35 -11,22 -16,55 -16,96 0,45 6,82 18,111 12,29 29,43 50,43 21,0 36,-11 47,-34 10,-23 16,-54 16,-91z"/>
   <path id="1" class="fil65" d="M8923 12853c1,26 2,61 2,104 0,67 0,110 1,128 1,19 6,33 13,42 8,10 17,15 26,15 12,0 23,-5 35,-15 12,-10 21,-22 26,-38 6,-15 9,-41 9,-76l0 -82c0,-22 -1,-36 -3,-43 -2,-7 -9,-10 -21,-11 -13,-1 -19,-5 -19,-11 0,-5 1,-7 4,-9 3,-1 12,-1 25,-1 31,0 59,-1 85,-3 1,10 2,63 2,159 0,77 0,119 2,126 1,7 8,11 21,13 8,1 12,4 12,10 0,7 -5,11 -14,11 -1,0 -4,0 -8,0 -6,-1 -13,-1 -21,-1 -30,0 -46,0 -49,1 -3,0 -6,0 -9,0 -4,0 -7,-1 -7,-2 -1,-2 -2,-7 -2,-15 0,-13 1,-26 2,-39 -15,20 -31,36 -48,46 -16,11 -34,16 -52,16 -56,0 -84,-35 -84,-106l0 -114c0,-40 -2,-63 -4,-70 -3,-7 -9,-11 -20,-12 -10,-2 -15,-5 -15,-10 0,-7 4,-10 13,-10 59,0 92,-1 98,-3z"/>
  </g>
  <path class="fil37" d="M45981 17638c-169,-137 -186,-493 -159,-705 1,-7 406,53 416,-174 1,-20 131,13 246,-48 164,-88 183,-284 171,-471 -14,-227 -943,-360 -1061,-196 -125,172 49,38 -207,245 -117,95 -79,385 70,402 41,221 230,106 230,271 0,168 94,620 -63,668 2,2 379,25 357,8z"/>
  <path class="fil66" d="M45064 14537c-65,198 -35,285 122,381 -29,25 -57,36 -85,53l-68 63c-68,58 -90,72 -124,146l0 0 0 0 -5 13c-24,55 -34,81 -38,113 -2,14 -2,28 -3,47 -3,9 -4,19 -4,33 1,7 1,13 2,18l-1 21 -3 13 9 -5c6,21 19,35 43,64l12 14 43 161 1 1 1 1 1 1 0 0c9,9 11,11 16,16l193 186 -14 137c14,-1 33,-4 54,-10 52,-10 154,-26 168,-40 27,-23 207,-39 254,-39 36,0 67,1 97,3l1 2c96,225 289,254 318,313 75,-15 119,8 154,41l26 -17c100,-37 100,24 401,-88 118,-68 287,-192 171,-365l-39 -54c331,-19 591,-280 479,-643 -17,-21 -56,-88 -69,-119 195,-337 -7,-494 13,-560 -48,-31 -8,0 -32,-38l-164 -130c-174,-54 -258,-86 -462,-41 -185,41 -214,103 -301,220 -96,-81 -224,-218 -390,-224 -173,-113 -580,7 -777,312z"/>
  <path class="fil67" d="M43446 13324l-1 137c-141,57 -238,137 -234,339 6,221 137,303 157,397 189,-13 366,83 412,216 139,-45 172,-248 599,-228 112,5 73,1 165,39 127,53 309,148 345,280 20,-12 -4,-7 29,-7 4,0 42,4 48,6 47,8 65,9 98,34 197,-305 604,-425 777,-312 32,-145 135,-248 46,-448 -29,-68 -69,-117 -116,-155 -63,-51 -124,-55 -181,-93 14,-158 3,-204 -5,-343 -80,-66 -65,-108 -191,-176 -84,-45 -182,-67 -282,-72 -376,-18 -440,112 -551,165 -31,-188 -170,-212 -207,-281 -145,-29 -163,-61 -337,-36 -119,17 -171,50 -260,107 -155,98 -235,213 -311,431z"/>
  <path class="fil66" d="M43368 14197c-234,-16 -383,91 -467,220 -156,237 -34,419 -1,533 -126,189 -125,317 -6,507 51,55 84,94 171,135 131,62 171,28 226,79 -229,230 140,370 111,379 151,75 449,56 498,79 180,135 443,219 711,106 -39,-119 -348,-178 -441,-271 17,-32 47,-60 61,-76 125,47 417,264 556,292 -6,-90 -8,-139 -22,-223 -11,-65 -42,-122 -31,-184 37,-48 32,-32 76,-55 26,-13 7,0 31,-17 48,-36 30,-65 112,-57 -24,-33 24,-1 -30,-39 2,-2 7,-9 8,-7 0,1 24,-6 36,-57 -118,-47 1,-5 -80,-79l-23 -18c-1,-1 -6,-3 -7,-6l3 -13c6,-126 -2,-128 44,-232 37,-86 58,-98 129,-159 -72,-21 -21,5 -83,-50 -20,-19 -26,-25 -50,-44 -44,-34 -71,-52 -122,-70 45,-45 95,-57 128,-141 32,-82 20,-145 -17,-225 -36,-132 -218,-227 -345,-280 -92,-38 -53,-34 -165,-39 -427,-20 -460,183 -599,228 -46,-133 -223,-229 -412,-216z"/>
  <path class="fil68" d="M42894 15457c-119,-190 -120,-318 6,-507 -33,-114 -155,-296 1,-533 84,-129 233,-236 467,-220 -20,-94 -151,-176 -157,-397 -4,-202 93,-282 234,-339l1 -137 -85 -47c-91,43 -423,-97 -753,255 -261,279 -248,676 -35,923 26,31 47,42 75,76 -155,37 -214,63 -288,173 -67,99 -75,268 -22,387l80 143c32,35 86,88 124,115 39,27 99,65 153,82 68,22 132,27 175,58 47,-20 -4,6 24,-32z"/>
  <path class="fil67" d="M44354 12822c37,69 176,93 207,281 111,-53 175,-183 551,-165 100,5 198,27 282,72 126,68 111,110 191,176 6,-25 528,-235 773,119 78,114 49,180 72,310 91,33 155,35 232,74 289,149 310,324 332,581l164 130c145,-64 216,-293 93,-470 -121,-173 -213,-187 -444,-254l-12 -24c-73,-206 -18,-218 -293,-347 -15,-192 -64,-240 -190,-320 -161,-104 -195,-89 -394,-86 -141,-677 -1347,-542 -1564,-77z"/>
  <path class="fil66" d="M45585 13186c8,139 19,185 5,343 57,38 118,42 181,93 47,38 87,87 116,155 89,200 -14,303 -46,448 166,6 294,143 390,224 87,-117 116,-179 301,-220 204,-45 288,-13 462,41 -22,-257 -43,-432 -332,-581 -77,-39 -141,-41 -232,-74 -23,-130 6,-196 -72,-310 -245,-354 -767,-144 -773,-119z"/>
  <path class="fil69" d="M44734 15773c-11,62 20,119 31,184 14,84 16,133 22,223 -139,-28 -431,-245 -556,-292 -14,16 -44,44 -61,76 93,93 402,152 441,271 152,-15 232,337 254,511 33,259 33,499 8,758 -23,99 -23,76 -92,128l623 0c-31,-27 -69,-39 -116,-98 -81,-97 -107,-963 -115,-1157 7,-222 47,-207 219,-287 120,-55 213,-107 344,-160l-34 -69c-28,-44 31,-37 -36,-37 -42,66 -149,88 -247,90 -28,33 -184,93 -253,100 10,-56 18,-149 18,-164 0,-42 -74,-57 -88,-80l-8 2c4,-3 0,-8 -8,-14l-1 -2 -2 0c-30,-24 -107,-70 -105,-160 1,-77 -65,-119 -94,-185 -13,-28 -47,21 17,112 23,33 26,71 36,120 -57,-1 -47,26 -90,58 -24,17 -5,4 -31,17 -44,23 -39,7 -76,55z"/>
  <path class="fil67" d="M43402 16050c29,-9 -340,-149 -111,-379 -55,-51 -95,-17 -226,-79 -87,-41 -120,-80 -171,-135 -28,38 23,12 -24,32 -43,-31 -107,-36 -175,-58 -54,-17 -114,-55 -153,-82 -38,-27 -92,-80 -124,-115l-80 -143c-53,-119 -45,-288 22,-387 74,-110 133,-136 288,-173 -28,-34 -49,-45 -75,-76 -213,-247 -226,-644 35,-923 330,-352 662,-212 753,-255l-49 -40c-346,-205 -1241,70 -1143,826 31,235 133,348 253,466 -189,46 -272,83 -342,232 -170,361 217,888 827,783 -30,352 288,510 495,506z"/>
  <path class="fil67" d="M47246 15117c87,16 162,66 207,115l101 186c51,186 -6,339 -95,456 -181,237 -421,301 -702,324 -57,4 -88,7 -122,-19 -301,112 -301,51 -401,88l-26 17c194,208 505,357 815,129 74,-54 66,-75 115,-123 59,-59 176,-16 359,-121 467,-268 418,-904 -37,-1041l-101 -37c186,-80 273,-450 -169,-653 -20,66 182,223 -13,560 13,31 52,98 69,119z"/>
  <path class="fil68" d="M46635 16179c34,26 65,23 122,19 281,-23 521,-87 702,-324 89,-117 146,-270 95,-456l-101 -186c-45,-49 -120,-99 -207,-115 112,363 -148,624 -479,643l39 54c116,173 -53,297 -171,365z"/>
  <path class="fil70" d="M45173 16377c394,116 637,127 881,-134 -29,-59 -222,-88 -318,-313 -131,53 -224,105 -344,160 -172,80 -212,65 -219,287z"/>
  <path class="fil71" d="M45033 15034l68 -63c28,-17 56,-28 85,-53 -157,-96 -187,-183 -122,-381 -33,-25 -51,-26 -98,-34 -6,-2 -44,-6 -48,-6 -33,0 -9,-5 -29,7 37,80 49,143 17,225 -33,84 -83,96 -128,141 51,18 78,36 122,70 24,19 30,25 50,44 62,55 11,29 83,50z"/>
 </g>
</svg>
