<?xml version="1.0" encoding="UTF-8"?>
<!DOCTYPE svg PUBLIC "-//W3C//DTD SVG 1.1//EN" "http://www.w3.org/Graphics/SVG/1.1/DTD/svg11.dtd">
<!-- Creator: CorelDRAW X8 -->
<svg xmlns="http://www.w3.org/2000/svg" xml:space="preserve" width="4879px" height="1956px" version="1.1" style="shape-rendering:geometricPrecision; text-rendering:geometricPrecision; image-rendering:optimizeQuality; fill-rule:evenodd; clip-rule:evenodd"
viewBox="0 0 48792 19559"
 xmlns:xlink="http://www.w3.org/1999/xlink">
 <defs>
  <style type="text/css">
   <![CDATA[
    .str0 {stroke:#373435;stroke-width:41.6561}
    .str2 {stroke:#313131;stroke-width:41.6561}
    .str1 {stroke:#424242;stroke-width:20.8339}
    .str3 {stroke:black;stroke-width:8.9997}
    .str4 {stroke:#B5EEFF;stroke-width:8.9997}
    .str5 {stroke:#E6E6E6;stroke-width:8.9997}
    .fil17 {fill:none}
    .fil13 {fill:#373435}
    .fil20 {fill:#EFB783}
    .fil35 {fill:#0B3859}
    .fil47 {fill:#121710}
    .fil23 {fill:#1369B6}
    .fil54 {fill:#1B1B1C}
    .fil31 {fill:#1C1C1C}
    .fil66 {fill:#1F77EB}
    .fil27 {fill:#20547B}
    .fil64 {fill:#283168}
    .fil65 {fill:#2C75A8}
    .fil7 {fill:#313131}
    .fil30 {fill:#33322E}
    .fil36 {fill:#333333}
    .fil26 {fill:#362D24}
    .fil28 {fill:#3689BB}
    .fil22 {fill:#3890D0}
    .fil10 {fill:#424242}
    .fil6 {fill:#464646}
    .fil14 {fill:#4A4A4A}
    .fil40 {fill:#4D4D4D}
    .fil39 {fill:#525252}
    .fil15 {fill:#5C707B}
    .fil16 {fill:#71848B}
    .fil8 {fill:#757575}
    .fil55 {fill:#767B7F}
    .fil32 {fill:#797977}
    .fil49 {fill:#7A838A}
    .fil41 {fill:gray}
    .fil56 {fill:#99A3AC}
    .fil50 {fill:#9CADB7}
    .fil57 {fill:#AAB5C5}
    .fil53 {fill:#ADBACA}
    .fil38 {fill:#B5EEFF}
    .fil24 {fill:#B96F48}
    .fil59 {fill:#BABABA}
    .fil52 {fill:#BACADA}
    .fil46 {fill:#C1C2C9}
    .fil18 {fill:#C1CFCF}
    .fil33 {fill:#C77066}
    .fil4 {fill:#C8382F}
    .fil11 {fill:#CACACA}
    .fil37 {fill:#CCCCCC}
    .fil45 {fill:#CDCED3}
    .fil2 {fill:#CFB175}
    .fil51 {fill:#D2D7DD}
    .fil5 {fill:#DF7E77}
    .fil3 {fill:#DFE9EB}
    .fil34 {fill:#E09474}
    .fil44 {fill:#E0E7ED}
    .fil1 {fill:#E6E6E6}
    .fil42 {fill:#E6EEF1}
    .fil21 {fill:#EC9956}
    .fil29 {fill:#ECB31E}
    .fil25 {fill:#EDD89F}
    .fil12 {fill:#EFEFEF}
    .fil43 {fill:#F1FAFF}
    .fil0 {fill:#F2F2F2}
    .fil48 {fill:#F2FBFF}
    .fil9 {fill:white}
    .fil61 {fill:white}
    .fil58 {fill:white}
    .fil63 {fill:#283168;fill-rule:nonzero}
    .fil62 {fill:#283168;fill-rule:nonzero}
    .fil19 {fill:#464646;fill-rule:nonzero}
    .fil69 {fill:#69501F;fill-rule:nonzero}
    .fil68 {fill:#69A562;fill-rule:nonzero}
    .fil67 {fill:#87C880;fill-rule:nonzero}
    .fil71 {fill:#AAB62B;fill-rule:nonzero}
    .fil70 {fill:#B3CA34;fill-rule:nonzero}
    .fil60 {fill:#B3B3B3}
   ]]>
  </style>
   <mask id="id0">
  <linearGradient id="id1" gradientUnits="userSpaceOnUse" x1="25617.3" y1="16060.5" x2="30445.5" y2="16060.5">
   <stop offset="0" style="stop-opacity:0; stop-color:white"/>
   <stop offset="1" style="stop-opacity:1; stop-color:white"/>
  </linearGradient>
    <rect style="fill:url(#id1)" x="25607" y="14748" width="4849" height="2625"/>
   </mask>
 </defs>
 <g id="Слой_x0020_1">
  <metadata id="CorelCorpID_0Corel-Layer"/>
  <rect class="fil0" x="2" width="48790" height="19559"/>
  <path class="fil1" d="M14737 15478l1052 361 2516 871c9,-2 17,-5 24,-9 -11,-187 -155,-155 -361,-234 -147,-56 -280,-105 -434,-158l-3589 -1272c-189,-25 -445,108 -611,178l-1639 653 15 -1505c548,-8 4513,-47 4693,20 44,106 23,302 22,444 -2,325 4,153 108,344l1418 -3c48,-79 75,-136 91,-189l0 -10 9 -417c-1,-63 0,-136 3,-224l2 -1 0 -8 345 -177c104,-56 212,-113 301,-155l263 -136 260 143c88,35 198,91 261,143l353 192 -1 35c11,28 1,72 3,163 4,327 -6,422 -5,458l131 186 2817 5 -5 2339c-1,201 -38,197 103,233 96,-73 37,31 61,-126l-1 -2466c-34,-102 31,-13 -71,-100 -59,-51 -21,-28 -100,-56 -382,1 -2596,44 -2757,-24 -57,-138 -8,-379 -25,-559 -21,-216 -97,-238 -270,-327 -298,-154 -608,-466 -917,-331l-290 155c-901,461 -521,289 -640,1090 -1387,-54 -1302,217 -1297,-438 2,-306 -54,-256 -86,-360l-4863 8 -92 1715c-125,96 -1370,572 -1704,712l-415 170c-156,111 -33,145 63,142 16,-1 94,-34 106,-40l1463 -600c583,-237 1121,-462 1675,-681 1165,-459 992,-546 1766,-248 83,31 166,63 249,94zm15749 -1864l4584 -31 715 1 -1 -6 3 0 -4 -6c-32,-281 7,-523 13,-783 5,-205 -851,-1097 -972,-1367l-1315 -12c-23,-263 -7,-585 -7,-854 0,-400 59,-575 -96,-771 -678,-853 -1470,-909 -2123,-30 -182,244 -123,382 -123,728 0,279 1,558 -1,837 -816,117 -982,-189 -1312,167 -7,9 -51,56 -53,58 -143,146 -161,113 -398,110 -583,-7 -1554,-54 -2099,11 -148,175 -331,467 -462,671 -82,128 -351,554 -458,636 -122,-126 -248,-319 -381,-490 -465,-598 -233,-471 -1042,-493l-7 -416c-108,-42 -554,-416 -681,-525 -185,-162 -175,-122 -464,-120l-5373 0c-292,-3 -290,-39 -454,130 -557,577 -335,200 -335,710 0,204 0,410 -3,613l1250 2 8 -884c279,-121 268,-76 712,-76 135,0 270,0 405,-2 658,-9 238,290 405,456l333 114 7 585c239,9 487,3 726,3 701,-2 329,6 589,104 120,-109 95,-203 261,-252 135,-39 364,-19 512,-19 250,0 972,-53 1153,37 61,31 26,11 68,49 27,25 72,95 108,149 449,687 100,639 237,1309 754,3 1507,0 2261,0 406,0 1974,-88 2208,63 89,144 41,1963 35,2286 154,-48 836,-597 990,-695l-1 -4 377 -261 36 -36 469 -318 7 6c570,-18 1520,62 2021,-28 56,-79 679,-414 825,-499 280,-161 578,-420 831,-274l1243 749c254,138 181,-72 469,173l14 334c376,-14 769,-4 1147,-4 304,0 860,-84 1066,70 141,47 63,1454 64,1808 0,43 0,82 -1,117l-183 -5 10 -1822 -2170 -4c-92,-143 -72,-46 -100,-168 -20,-87 -4,-175 -27,-289 -306,-93 -203,19 -513,-170 -152,-93 -297,-173 -462,-275 -774,-477 -669,-478 -997,-290 -331,191 -634,359 -956,551 -478,284 -626,199 -1251,199 -257,0 -515,1 -773,-1 -350,-3 -334,29 -562,196l-1740 1277c-123,91 -282,213 -425,312 -255,178 -269,243 -389,243 -204,1 53,-187 109,-227l721 -527 -8 -2346 -4357 0c-36,492 -16,2528 -7,3266 6,504 14,338 -75,385 -92,-56 -54,-15 -76,-127l1 -2613c0,-466 0,-932 0,-1398 0,-204 45,-486 -43,-656 -44,-85 -223,-326 -287,-402l-1544 3c-283,339 -314,387 -313,944 0,218 33,1024 -19,1169l-111 2c-83,-148 -37,-1624 -31,-1925l-1183 -3c-107,-166 -115,-47 -116,-308 -1,-106 36,-305 -32,-364 -83,-71 -233,6 -304,-105 -56,-85 -24,-273 -28,-396l-1183 6c-5,175 -4,351 -3,526 4,449 2,260 -73,449l-1323 -2c-31,322 -10,730 -10,1062 0,525 86,846 -128,880 -79,-170 -33,-1875 -34,-2316 0,-511 15,-365 41,-714 3,-50 20,-17 -51,-123 -9,-14 -59,-83 -76,-111l-754 -1196c-97,-152 -215,-312 -292,-483l-2017 -2 5 917c101,38 887,754 1085,933l77 71c5,5 14,12 19,17 16,14 79,66 83,69 177,156 113,252 -35,181l-563 -506c-150,-129 -510,-500 -672,-566 6,303 53,1585 -19,1774l-141 -11 13 -2810c31,-116 50,-11 65,-234 13,-184 0,-439 -2,-629 -3,-299 -5,-298 175,-442 192,-155 146,-163 136,-467 -45,-48 -50,-58 -128,-90 -77,-32 -85,-28 -182,-38l-60 -397 -233 -1303c-65,98 -73,261 -95,382l-201 983c-2,-6 -9,20 -18,29l-12 -2648 -391 -2 0 -1269 -262 -24c-5,-68 -10,-138 -15,-207l-225 -1263 -279 1478 -257 52 0 1233 -395 -3 -19 2799 -264 -1540c-7,9 -14,20 -17,27 -4,7 -12,19 -17,28 -73,149 -96,482 -157,813 -50,267 -66,616 -164,833l-286 8c-3,81 -8,178 -5,258 1,37 3,71 7,107l23 95c60,142 162,123 246,263 17,12 30,37 40,70l-20 3457c-354,76 -2155,8 -2614,22 8,666 -29,1977 -1,2574 13,307 42,82 82,297 37,203 -4,2047 6,2572 6,360 1,261 -73,311 -94,-47 -90,117 -81,-349l-6 -2640 -744 -3 -1474 2 -1412 -6 -664 -1391 -4097 -3 -1 2624c181,-67 434,-354 599,-501 638,-569 585,-503 969,-222 580,427 575,481 1060,479 758,-4 3687,-37 4224,9 92,198 82,114 79,399 -4,325 47,1248 -35,1394 -211,-15 -129,-224 -129,-767 0,-279 18,-616 -12,-885l-4210 -1c34,105 -9,18 63,97l1576 1109c174,119 360,241 543,386l-84 123 -2579 -1813c-117,-85 -287,-201 -432,-300 -132,-90 -295,-226 -439,-298 -130,52 -811,713 -1048,901 -16,13 -81,63 -84,65 -72,81 -5,-37 -46,70 -43,114 -14,1997 -15,2281l10502 -1c625,0 2280,-25 3108,-7l214 17 1570 -9 20167 -1c835,0 1739,-32 2581,-12l42 12 297 0 87 4 -2 -4 303 0 3 3 9829 -3 -8 -6918c-178,2 -135,0 -218,105 -130,167 -766,685 -811,767 -67,125 -31,436 -30,596 3,689 -166,645 -624,1289 -45,63 -80,128 -138,199 -171,209 -181,58 -182,57 -55,-69 365,-561 448,-675 384,-524 345,-358 342,-834 -3,-538 -83,-617 260,-920 101,-90 547,-454 594,-583l-1752 -5c-74,298 -280,581 -605,590l-28 -186c197,-112 261,-128 385,-284 -25,-73 -11,-63 -46,-118 -259,15 -180,47 -343,107 -235,87 -226,-22 -333,-77 -259,-131 -529,185 -596,296 -155,256 90,1662 -108,1756 -118,-39 -75,7 -87,-166 -24,-341 39,-1128 -6,-1572l-530 -5 -8 -1476c-232,0 -463,0 -694,0 -540,-1 -438,-57 -782,241 -6,5 -14,12 -20,17l-565 472c58,155 73,2059 19,2300l-143 -7 -3 -2258c-417,14 -547,-61 -891,120 -144,76 -534,309 -658,322l1 -1003 -882 16 0 1258 -901 0 2 -948 -807 15 -6 1572c-193,23 -391,8 -585,9 -376,1 -183,86 -394,189 -122,60 -911,21 -1123,28l7 846 224 175c122,-59 324,-252 438,-358 7,-7 29,-29 37,-36 5,-5 13,-13 18,-18l76 -70c95,-84 181,-157 273,-243 102,-95 215,-181 361,-59l895 1158c217,39 755,27 996,20 254,-7 310,-147 583,-419 947,-949 929,-1120 1263,-779 75,77 148,150 238,240 751,752 605,775 1188,773 314,-2 634,-5 947,2l0 -2 538 6 1431 5c60,69 5,25 95,90 14,123 13,246 14,371 3,268 -24,229 -81,254 -132,-61 -83,-204 -72,-558l-631 -6 -1 -5 -350 2 -138 -1 0 2 -749 4 -141 1c-140,0 -280,0 -420,0 -1095,0 -811,100 -1554,-645 -177,-178 -358,-360 -540,-551 -146,90 -827,801 -1059,1030 -97,96 -85,63 -139,184 499,-4 379,55 391,980 523,-58 604,-345 1650,-344 650,0 1300,-1 1950,0l3422 -1c563,-5 373,-21 420,92l-5866 49c-690,-1 -847,161 -1472,342l-99 20 0 8 -4 1 -16 1355 13 0 -2 283 -7 3 -1 332 6 5 -2 393 -5 -1c-112,-4 -59,0 -116,-30l-4 -3332c-384,-116 -1339,57 -1718,-56 -163,-45 -415,-464 -512,-587 -168,-212 -335,-460 -485,-607 -139,96 -233,202 -361,313 -74,63 -109,100 -172,157 -160,144 -729,745 -913,709 -5,-56 0,-89 15,-115l39 -43c36,-30 92,-66 168,-147 4,-5 16,-9 19,-22 3,-14 13,-16 19,-23 -33,-44 -57,-69 -83,-94l-96 -104 -4249 0 -12 -2 1 2 -1112 0 -1 -130zm17759 1696c-94,46 -176,-34 -349,-152 -89,-61 -344,-159 -232,-266 70,-66 255,93 347,157l245 166c80,153 4,67 -11,95zm-31448 539c-130,73 -250,56 -218,-102 29,-141 285,-178 218,102z"/>
  <rect class="fil2" y="17607" width="48790" height="102"/>
  <g id="_2997085152800">
   <path class="fil3" d="M22407 15887c49,2 131,5 187,3 57,-2 88,-7 106,-15 18,-7 23,-17 15,-33 -9,-16 -29,-40 -58,-70 -29,-31 -67,-68 -105,-100 -38,-32 -77,-57 -116,-81 -40,-25 -79,-48 -116,-69 -37,-20 -72,-38 -106,-53 -35,-15 -69,-27 -94,-35 -24,-8 -39,-11 -57,-13 -18,-1 -40,-1 -68,-1 -28,0 -61,1 -85,5 -24,3 -39,10 -50,18 -11,8 -18,18 -19,35 0,17 5,41 23,71 18,30 48,65 83,100 34,34 73,68 117,102 44,34 93,69 138,91 45,22 86,31 114,37 28,5 43,6 91,8z"/>
   <rect class="fil4" x="16149" y="13496" width="526" height="561" rx="62" ry="59"/>
   <polygon class="fil5" points="16220,13496 16603,13496 16603,13784 16220,13784 "/>
   <path class="fil6" d="M11426 15219c-16,-13 -21,-40 -24,-70 -2,-29 -2,-60 3,-88 5,-28 15,-53 28,-73 13,-19 29,-33 48,-43 19,-10 41,-15 190,-17 149,-2 425,-1 569,-1 144,-1 156,-4 256,-43 100,-39 289,-114 521,-205 233,-92 509,-198 781,-294 272,-96 540,-180 775,-242 234,-61 434,-98 625,-128 190,-29 369,-50 543,-62 95,-7 187,-11 283,-13 -1,-2 -1,-4 -1,-6l0 0c0,-36 30,-66 67,-66l617 0c36,0 66,30 66,66l0 0c0,8 -1,16 -4,23 30,2 60,5 90,8 194,20 375,52 551,94 176,42 346,92 519,159 173,67 349,151 528,250 178,100 359,216 522,322 162,106 307,202 379,251 73,48 73,48 73,48 0,0 0,0 0,0 0,0 0,0 347,38 348,39 1043,115 1481,173 437,57 617,95 707,114 89,18 89,18 89,18 0,0 0,0 -30,0 -31,0 -92,0 -124,10 -33,10 -37,30 -19,71 19,41 59,103 109,157 50,54 110,100 165,134 54,33 104,56 196,66 93,10 228,9 296,8 68,0 68,0 68,0 0,0 0,0 0,0 0,0 0,0 10,19 10,20 31,59 39,120 8,61 3,145 0,186 -3,42 -3,42 -3,42 0,0 0,0 7,0 6,0 19,0 26,0 7,0 7,0 7,0 0,0 0,0 0,49 0,49 0,146 0,195 0,49 0,49 0,49 0,0 0,0 0,0 0,0 0,0 -6,-1 -6,-2 -18,-4 -24,-6 -6,-1 -6,-1 -6,-1 0,0 0,0 0,0 0,0 0,0 0,35 0,35 0,106 -4,161 -3,55 -11,96 -24,131 -13,35 -32,65 -54,89 -22,24 -48,42 -82,58 -34,16 -75,29 -187,42 -111,13 -292,26 -382,32 -91,7 -91,7 -91,7 0,0 0,0 -13,-7 -14,-6 -42,-19 -55,-26 -14,-6 -14,-6 -14,-6 0,0 0,0 -10,0 -11,1 -32,2 -42,3 -10,1 -10,1 -284,10 -275,9 -823,27 -1097,36 -274,9 -274,9 -274,9 0,0 0,0 -2,7 -3,8 -8,22 -11,29 -2,7 -2,7 -2,7 0,0 0,0 -935,-10 -934,-11 -2802,-31 -3774,-44 -971,-12 -1045,-16 -1082,-18 -37,-2 -37,-2 -280,-6 -242,-5 -726,-14 -1059,-27 -332,-13 -513,-30 -747,-56 -233,-25 -518,-59 -685,-82 -167,-24 -217,-37 -257,-54 -39,-18 -69,-40 -89,-63 -19,-23 -28,-46 -28,-180 0,-134 9,-379 18,-514 9,-134 18,-159 56,-205 39,-45 107,-112 209,-203 102,-91 239,-207 314,-281 74,-73 87,-104 87,-130 -1,-25 -15,-45 -47,-59 -32,-14 -81,-23 -141,-20 -60,3 -131,19 -179,27 -49,9 -77,10 -93,-3z"/>
   <path class="fil7" d="M22281 15858c21,5 44,9 71,12l13 1 0 1 -688 214 0 -39 604 -189z"/>
   <path class="fil7" d="M11325 15835c10,-10 21,-21 33,-33l1180 198 356 180 -20 35 -367 -184 -1182 -196z"/>
   <path class="fil8" d="M21879 15454c-11,12 -9,30 3,59 19,41 59,103 109,157 26,29 56,55 85,78l8 8c0,0 0,0 -93,-2 -93,-2 -278,-7 -370,-9 -93,-2 -93,-2 -93,-2 0,0 0,0 -27,-13 -26,-13 -79,-39 -133,-56 -55,-18 -111,-28 -179,-35 -69,-7 -150,-12 -223,-6 -72,5 -137,20 -186,33 -49,13 -83,25 -99,31 -17,5 -17,5 -17,5 0,0 0,0 -171,-4 -172,-4 -515,-12 -686,-16 -172,-4 -172,-4 -172,-4 0,0 0,0 0,0 0,0 0,0 -11,-35 -12,-35 -35,-106 -61,-171 -27,-66 -57,-127 -94,-183 -36,-56 -79,-106 -100,-131 -22,-26 -22,-26 -22,-26 0,0 0,0 66,4 66,4 198,11 345,20 147,9 310,19 480,35 170,15 347,36 517,58 170,22 335,45 488,70 153,24 295,51 412,78 94,21 172,43 224,57z"/>
   <path class="fil4" d="M11515 15153c56,-7 139,-12 201,-13 62,0 102,3 137,14 36,10 66,27 88,48 22,21 36,46 43,60 7,14 7,18 2,28 -6,10 -18,25 -54,57 -37,32 -98,80 -164,134 -66,53 -136,112 -194,159 -59,46 -106,82 -141,108 -35,27 -59,45 -70,54 -12,9 -12,9 -12,9 0,0 0,0 6,-97 6,-98 17,-293 26,-399 8,-106 13,-123 30,-136 17,-12 46,-20 102,-26z"/>
   <path class="fil9" d="M11980 15253c1,3 3,6 4,9 7,14 7,18 2,28 -5,8 -15,21 -41,45l-564 0 2 -20c2,-26 4,-46 5,-62l592 0zm-337 330c-24,20 -48,39 -69,57 -12,8 -22,17 -33,25l-181 0 5 -82 278 0z"/>
   <circle class="fil10" cx="13642" cy="16725" r="891"/>
   <circle class="fil11 str0" cx="13642" cy="16725" r="625"/>
   <path class="fil12" d="M16726 15119c14,59 40,165 64,296 24,132 46,290 59,469 12,180 15,382 13,513 -1,27 -1,52 -2,74l-1701 0 3 24 1697 -3c-2,37 -4,66 -7,92l-1690 0 0 67 1681 0c-10,61 -22,124 -29,156 -6,32 -6,32 -6,32 0,0 0,0 0,0 0,0 0,0 -297,0 -297,0 -891,0 -1188,0 -297,0 -297,0 -297,0 0,0 0,0 0,0 0,0 0,0 -28,-70 -28,-70 -83,-209 -188,-408 -105,-199 -259,-459 -402,-681 -143,-223 -276,-409 -351,-514 -75,-105 -92,-128 -86,-140 5,-12 32,-12 487,-5 455,6 1338,19 1785,23 446,3 457,-4 462,0 6,3 8,16 21,75zm77 63c16,75 44,200 65,338 20,138 35,289 42,408 7,119 7,206 5,313 -1,72 -3,153 -8,230l2663 0c2,-20 3,-40 4,-61 8,-176 6,-385 -3,-542 -8,-157 -22,-261 -53,-352 -31,-91 -78,-170 -126,-232 -49,-63 -100,-109 -125,-133 -26,-23 -26,-23 -26,-23 0,0 0,0 0,0 0,0 0,0 0,0 0,0 0,0 -411,-12 -410,-12 -1232,-35 -1643,-47 -411,-12 -411,-12 -411,-12 0,0 0,0 3,13 3,12 8,37 24,112zm103 1310c-2,29 -4,58 -7,85l0 7 2662 0c3,-30 6,-63 8,-97l-2663 5zm-15 159c-9,67 -19,118 -25,148 -8,40 -8,40 -8,40 0,0 0,0 0,0 0,0 0,0 445,4 445,5 1334,14 1779,18 444,5 444,5 444,5 0,0 0,0 0,0 0,0 0,0 10,-70 5,-34 12,-84 19,-145l-2664 0z"/>
   <rect class="fil11" x="14343" y="15207" width="586" height="131"/>
   <rect class="fil13" x="14423" y="15251" width="425.773" height="42.9671"/>
   <rect class="fil11" x="16976" y="15254" width="586" height="131"/>
   <rect class="fil13" x="17057" y="15298" width="425.773" height="42.9671"/>
   <polygon class="fil14" points="13501,17239 13796,17239 13654,16852 "/>
   <polygon class="fil14" points="13156,16891 13315,17140 13564,16810 "/>
   <polygon class="fil14" points="14137,16891 13978,17140 13729,16811 "/>
   <polygon class="fil14" points="14091,16427 14193,16704 13780,16703 "/>
   <polygon class="fil14" points="13198,16425 13096,16702 13509,16701 "/>
   <polygon class="fil14" points="13984,16303 13714,16185 13690,16597 "/>
   <polygon class="fil14" points="13291,16303 13561,16185 13585,16597 "/>
   <path class="fil15" d="M14099 14975c159,8 450,8 595,8 145,0 145,0 145,0 0,0 0,0 0,0 0,0 0,0 -21,-128 -22,-128 -65,-385 -86,-513 -22,-128 -22,-128 -22,-128 0,0 0,0 0,0 0,0 0,0 -75,21 -75,20 -224,62 -337,98 -113,36 -188,66 -251,99 -62,33 -112,69 -148,109 -37,40 -60,83 -71,128 -11,46 -10,94 2,139 12,45 34,87 59,115 24,29 52,45 210,52z"/>
   <path class="fil16" d="M14565 14983c49,0 93,0 129,0 145,0 145,0 145,0 0,0 0,0 0,0 0,0 0,0 -21,-128 -22,-128 -65,-385 -86,-513 -22,-128 -22,-128 -22,-128 0,0 0,0 0,0 0,0 0,0 -75,21 -75,20 -224,62 -337,98 -70,22 -126,42 -173,62l440 588z"/>
   <path class="fil15" d="M14826 14381c23,131 65,367 87,484 21,118 22,118 23,118 1,0 1,0 1,0 0,0 0,0 255,3 255,4 765,10 1021,14 255,3 255,3 255,3 0,0 0,0 0,0 0,0 0,0 -14,-164 -15,-163 -43,-490 -58,-653 -14,-164 -14,-164 -14,-164 0,0 0,0 0,0 0,0 0,0 -81,4 -82,3 -245,9 -416,20 -172,11 -353,27 -517,48 -164,21 -312,47 -405,65 -93,18 -132,29 -151,34 -20,5 -20,5 -20,5 0,0 0,0 3,13 2,13 8,39 31,170z"/>
   <path class="fil16" d="M14826 14381c23,131 65,367 87,484 21,118 22,118 23,118 1,0 1,0 1,0 0,0 0,0 255,3l321 5 -640 -813c-32,7 -50,12 -61,15 -20,5 -20,5 -20,5 0,0 0,0 3,13 2,13 8,39 31,170z"/>
   <path class="fil15" d="M16727 14370c61,156 155,394 202,514 47,119 47,119 47,119 0,0 0,0 0,0 0,0 0,0 0,0 0,0 0,0 290,4 290,4 871,11 1161,15 291,4 291,4 291,4 0,0 0,0 0,0 0,0 0,0 0,-36 0,-37 0,-110 -1,-148 -1,-38 -2,-42 -2,-44 -1,-2 -1,-2 -1,-2 0,0 0,0 -33,-30 -34,-29 -100,-87 -202,-154 -102,-66 -240,-140 -399,-211 -158,-71 -336,-139 -487,-184 -150,-45 -272,-67 -395,-87 -123,-19 -247,-36 -345,-46 -99,-11 -172,-15 -208,-17 -37,-2 -37,-2 -22,35 14,38 43,112 104,268z"/>
   <path class="fil16" d="M18718 14942c0,-35 0,-75 -1,-100 -1,-38 -2,-42 -2,-44 -1,-2 -1,-2 -1,-2 0,0 0,0 -33,-30 -34,-29 -100,-87 -202,-154 -62,-40 -137,-83 -221,-126l460 456z"/>
   <path class="fil16" d="M16727 14370l35 90 536 547 1023 14 -796 -824c-120,-32 -224,-50 -327,-67 -123,-19 -247,-36 -345,-46 -99,-11 -172,-15 -208,-17 -37,-2 -37,-2 -22,35 14,38 43,112 104,268z"/>
   <path class="fil8" d="M13493 15005l-2064 -10c-11,18 -20,41 -24,66 -5,25 -5,52 -4,78 57,-9 124,-19 180,-26 89,-10 150,-11 201,-6 51,5 91,17 122,30 30,14 51,30 69,48 17,18 31,39 41,60 9,21 13,42 12,57 -1,16 -6,26 -8,31l-3 6 92 21c93,22 278,65 424,87 147,23 255,26 531,30 276,5 720,11 942,15l222 3 -52 -82 -209 -325 -52 -81 -420 -2z"/>
   <path class="fil13" d="M13642 15757c-535,0 -969,433 -969,968 0,106 17,207 48,302 27,2 55,4 84,5 -35,-95 -54,-199 -54,-307 0,-492 399,-890 891,-890 491,0 890,398 890,890 0,126 -26,245 -73,354 23,0 50,1 84,1 43,-110 67,-229 67,-355 0,-535 -433,-968 -968,-968z"/>
   <circle class="fil10" cx="21040" cy="16733" r="891"/>
   <circle class="fil11 str0" cx="21040" cy="16733" r="625"/>
   <polygon class="fil14" points="20899,17246 21194,17247 21052,16859 "/>
   <polygon class="fil14" points="20554,16899 20713,17148 20962,16818 "/>
   <polygon class="fil14" points="21536,16899 21376,17148 21127,16818 "/>
   <polygon class="fil14" points="21489,16435 21591,16712 21178,16711 "/>
   <polygon class="fil14" points="20596,16433 20494,16710 20907,16709 "/>
   <polygon class="fil14" points="21383,16311 21112,16193 21088,16605 "/>
   <polygon class="fil14" points="20689,16311 20960,16193 20984,16605 "/>
   <path class="fil13" d="M21040 15764c-535,0 -969,434 -969,969 0,76 9,149 25,219 3,15 6,30 9,42 6,21 11,37 17,52 5,14 11,27 16,37 5,9 10,16 14,22l1 -1 75 -2c-5,-15 -14,-40 -24,-68 -11,-32 -23,-69 -32,-106 -5,-22 -10,-43 -13,-61 -6,-44 -10,-88 -10,-134 0,-492 399,-890 891,-890 492,0 890,398 890,890 0,126 -26,245 -73,353 23,1 51,2 84,2 44,-110 67,-230 67,-355 0,-535 -433,-969 -968,-969z"/>
   <circle class="fil17 str1" cx="13643" cy="16708" r="80"/>
   <circle class="fil17 str1" cx="21049" cy="16724" r="80"/>
   <path class="fil18" d="M21967 15514c-6,15 16,51 41,85 24,33 52,64 85,94 34,30 74,59 111,81 37,22 71,36 109,46 38,10 79,15 99,17 21,3 21,3 21,3 0,0 0,0 -66,-54 -65,-54 -196,-162 -278,-220 -83,-58 -116,-66 -122,-52z"/>
   <ellipse class="fil3" cx="22559" cy="16687" rx="88" ry="138"/>
   <path class="fil7" d="M16706 14796c-39,-163 -113,-477 -155,-635 -16,-58 -27,-95 -35,-119 -4,0 -8,-1 -12,-2 -4,-1 -8,-3 -12,-5 4,24 12,63 25,127 34,164 106,492 142,656 36,164 36,164 36,164 0,0 0,0 9,1 9,0 27,2 36,2 9,1 9,1 9,1 0,0 0,0 -1,-7 -1,-6 -4,-19 -42,-183z"/>
   <path class="fil17 str2" d="M16637 14981c-791,-11 -1660,-15 -2121,-19 -461,-5 -514,-10 -553,-20 -38,-10 -61,-24 -80,-41 -19,-17 -33,-36 -45,-63 -11,-27 -18,-61 -17,-98 1,-37 12,-77 30,-116 18,-38 44,-74 79,-107 34,-33 77,-61 134,-89 58,-27 129,-53 240,-88 111,-35 260,-80 415,-119 155,-39 315,-72 470,-97 154,-25 302,-41 478,-55 176,-14 379,-27 537,-31 158,-4 272,1 412,14 140,12 306,31 466,57 159,26 312,59 449,96 137,37 260,79 392,132 132,52 274,116 401,186 127,70 239,145 307,196 67,51 91,77 119,110 28,33 60,73 81,108 21,34 30,63 33,77 2,15 -2,15 -361,6 -359,-10 -1074,-28 -1866,-39z"/>
   <path class="fil19" d="M15331 15594c42,0 82,10 121,28 37,19 68,46 90,81 22,35 33,77 33,128 0,50 -11,93 -33,128 -22,36 -53,63 -90,81 -39,19 -79,28 -121,28l-161 0 0 283 -160 0 0 -757 321 0zm-31 331c35,0 62,-8 81,-25 18,-15 27,-39 27,-69 0,-31 -9,-55 -27,-70 -19,-17 -46,-25 -81,-25l-130 0 0 189 130 0z"/>
   <path id="1" class="fil19" d="M16306 15976c0,-40 -8,-78 -24,-115 -18,-37 -43,-67 -77,-90 -34,-23 -77,-36 -127,-37 -51,0 -92,12 -125,35 -35,24 -60,54 -76,91 -17,35 -26,74 -26,116 0,42 9,81 26,117 16,36 41,66 76,90 33,23 74,35 125,35 50,-1 93,-14 127,-37 34,-23 59,-53 77,-90 16,-37 24,-75 24,-115zm-227 -396c109,0 203,39 280,116 77,78 116,171 116,281 0,108 -39,201 -116,279 -77,77 -171,116 -280,116 -109,0 -202,-39 -280,-116 -77,-78 -116,-171 -116,-279 0,-110 39,-203 116,-281 78,-77 171,-116 280,-116z"/>
   <polygon id="2" class="fil19" points="17033,16352 16584,16352 16584,15594 16744,15594 16744,16210 17033,16210 "/>
   <polygon id="3" class="fil19" points="17354,15594 17354,16352 17194,16352 17194,15594 "/>
   <path id="4" class="fil19" d="M17653 16016c3,34 12,64 27,92 19,36 46,64 79,83 33,20 71,29 113,29 45,0 84,-10 118,-31 34,-21 58,-49 74,-84l125 78c-22,59 -62,106 -119,139 -58,33 -123,50 -197,50 -72,0 -137,-16 -196,-48 -60,-31 -107,-76 -141,-135 -35,-59 -52,-129 -52,-211 0,-83 17,-153 52,-212 34,-59 81,-104 141,-135 59,-32 124,-47 196,-47 74,0 139,16 197,49 57,34 97,80 119,140l-125 77c-16,-34 -40,-62 -74,-84 -34,-21 -73,-31 -118,-31 -42,0 -80,10 -113,29 -33,19 -60,47 -79,84 -15,27 -24,57 -27,91 -2,21 -2,47 0,77z"/>
   <polygon id="5" class="fil19" points="18785,16352 18310,16352 18310,15594 18774,15594 18774,15736 18470,15736 18470,15898 18742,15898 18742,16038 18470,16038 18470,16211 18785,16211 "/>
  </g>
  <g id="_2997085167424">
   <path class="fil20" d="M23216 13605l179 0c1,-7 3,-13 4,-20 4,-14 7,-28 11,-39 7,-23 15,-39 28,-54 12,-15 30,-29 45,-43 16,-14 29,-28 39,-43 10,-16 17,-32 15,-45 -3,-14 -14,-24 -24,-29 -10,-5 -18,-5 -22,-5 -4,0 -4,0 -5,-55 0,-55 -2,-164 -6,-225 -3,-61 -8,-74 -15,-83 -7,-9 -17,-14 -27,-15 -11,-1 -23,1 -34,7 -10,5 -20,15 -25,43 -5,27 -6,72 -6,94 -1,23 -1,23 -14,26 -14,3 -41,10 -61,16 -19,7 -30,13 -53,18 -23,4 -58,7 -81,10 -23,3 -33,6 -39,38 -5,33 -5,94 -1,142 3,49 9,85 19,113 10,28 24,49 36,68 12,19 23,36 30,54 0,2 1,4 2,6 2,7 4,14 5,21z"/>
   <path class="fil21" d="M23216 13605l46 0c-4,-13 -8,-28 -13,-40 -4,-12 -10,-22 -16,-32 -6,-10 -14,-20 -22,-33 -9,-13 -18,-29 -27,-50 -8,-21 -16,-48 -21,-78 -5,-30 -7,-64 -8,-92 -1,-28 -1,-50 2,-65 3,-15 9,-23 19,-28 9,-5 23,-8 34,-7 12,1 21,5 30,7 9,2 18,1 27,-3 9,-5 18,-12 27,-17 9,-6 18,-9 29,-9 11,1 24,6 34,5 10,-1 17,-7 21,-14 5,-8 7,-18 8,-36 2,-19 3,-46 5,-69 2,-23 5,-42 10,-55 4,-13 10,-21 17,-26 8,-5 17,-7 28,-6 5,0 10,1 15,2 -7,-6 -15,-9 -23,-10 -11,-1 -23,1 -34,7 -10,5 -20,15 -25,43 -5,27 -6,72 -6,94 -1,23 -1,23 -14,26 -14,3 -41,10 -61,16 -19,7 -30,13 -53,18 -23,4 -58,7 -81,10 -23,3 -33,6 -39,38 -5,33 -5,94 -1,142 3,49 9,85 19,113 10,28 24,49 36,68 12,19 23,36 30,54 0,2 1,4 2,6 2,7 4,14 5,21z"/>
   <path class="fil22" d="M23161 13584l0 130c0,131 0,393 5,538 5,145 14,173 29,194 15,21 37,35 130,42 92,8 256,8 338,8l82 0 0 146 -1 592 0 136 101 0c28,0 28,0 28,13 0,6 1,15 1,30 20,3 43,7 68,12 63,11 141,23 251,33 15,1 32,3 48,4l0 -12 63 0c7,28 19,53 36,65 25,18 63,6 93,-6 30,-13 51,-25 69,-52 1,-2 3,-5 4,-7l59 0 0 17c1,0 2,0 2,0l106 0c7,0 14,3 19,7 34,-2 67,-4 98,-6 3,-8 12,-8 46,-7l34 0c33,-3 62,-6 85,-10 24,-3 42,-7 56,-9 9,-5 17,-9 24,-12 0,-56 2,-56 14,-56 7,-1 16,-1 26,0 1,-16 1,-47 1,-129l0 -534 0 -133 42 24 156 87 0 -481c-30,-16 -72,-35 -109,-51 -43,-19 -80,-32 -118,-45 -39,-13 -80,-26 -121,-36 -42,-10 -85,-18 -124,-25 -40,-8 -75,-15 -104,-21 -29,-6 -50,-10 -76,-17 -4,-2 -8,-3 -13,-4 -11,-3 -22,-7 -33,-11l0 -5 0 -49c-1,0 -2,0 -3,1 -4,3 -9,6 -13,9 -16,10 -30,15 -49,19 -20,5 -45,9 -70,11 -26,2 -52,2 -78,0 -26,-3 -52,-7 -72,-12 -19,-5 -31,-11 -41,-17 -5,-2 -9,-5 -13,-8 0,0 -1,0 -1,0l0 51c-5,2 -11,4 -16,7 -8,5 -16,10 -24,16 -30,9 -66,20 -128,33 -84,17 -214,40 -309,55 -96,15 -156,22 -196,26 -40,5 -58,6 -72,6 -13,1 -21,1 -25,1 -5,0 -6,0 -7,-93 -1,-92 -1,-278 -1,-371l0 -92 -49 -1 -10 0 -188 -1 0 0 -50 0z"/>
   <path class="fil23" d="M25077 14579l41 23 156 87 0 -47 -15 -5c-36,-13 -109,-37 -146,-50 -36,-12 -36,-12 -36,-12l0 4z"/>
   <path class="fil23" d="M23161 13584l0 130c0,131 0,393 5,538 5,145 14,173 29,194 15,21 37,35 130,42 92,8 256,8 338,8l80 0c-2,-15 -7,-19 -15,-22 -8,-4 -18,-8 -43,-10 -24,-3 -62,-5 -123,-8 -61,-3 -144,-9 -200,-13 -57,-5 -86,-10 -106,-16 -19,-6 -29,-14 -36,-24 -7,-9 -11,-22 -17,-156 -5,-134 -12,-390 -18,-522 -5,-106 -10,-132 -15,-141l-9 0z"/>
   <polygon class="fil20" points="24236,13921 24576,13921 24576,14028 24434,14156 24386,14156 24236,14017 "/>
   <path class="fil24" d="M24212 13923c-2,3 7,11 15,17 8,6 14,10 23,15 10,6 22,12 41,17 20,5 46,9 72,12 26,2 52,2 78,0 25,-2 50,-6 70,-11 19,-4 33,-9 49,-19 16,-10 34,-25 43,-32 9,-8 9,-8 9,-8 0,0 0,0 -9,2 -8,2 -24,5 -56,9 -32,4 -80,8 -124,9 -45,0 -87,-3 -117,-6 -30,-2 -48,-3 -63,-5 -16,-1 -29,-3 -31,0z"/>
   <path class="fil20" d="M23836 13191c-4,24 -9,57 -11,73 -3,16 -3,16 -3,16 0,0 0,0 -2,0 -2,0 -7,0 -13,2 -6,2 -14,5 -21,13 -8,7 -15,18 -20,35 -4,16 -5,38 -5,57 1,19 4,35 8,49 4,15 10,28 17,37 8,10 17,16 27,20 10,5 21,7 32,8 12,1 24,1 31,1 6,0 6,0 6,0 0,0 0,0 1,24l0 21c2,15 5,32 8,49 4,26 10,50 18,72 7,23 15,45 24,64 8,19 18,35 27,49 10,14 20,26 33,39 13,14 29,29 44,41 16,13 31,22 49,32 17,9 36,19 58,27 22,9 46,16 68,22 22,5 42,9 62,11 19,2 38,2 63,2 25,1 56,1 89,0 33,0 67,-3 100,-5 33,-3 64,-7 93,-13 29,-7 56,-16 81,-29 26,-13 50,-29 70,-44 19,-14 36,-27 50,-44 15,-17 29,-37 42,-58 13,-21 27,-42 39,-66 12,-23 22,-49 30,-75 9,-25 15,-50 19,-73 5,-23 8,-45 9,-56 2,-11 2,-11 2,-11 0,0 0,0 2,1 2,1 7,2 14,2 8,1 19,0 31,-3 2,-1 5,-1 7,-2 4,-2 8,-5 12,-8 10,-10 17,-25 22,-44 4,-20 6,-43 7,-65 1,-22 1,-42 -4,-58 -4,-16 -13,-28 -20,-34 -6,-7 -10,-9 -13,-10 -2,-1 -2,-1 -2,-16 -1,-15 -1,-45 -2,-59 0,-15 0,-15 -1,-36 -1,-20 -3,-60 -8,-90 -6,-30 -15,-49 -52,-65 -37,-16 -102,-29 -208,-36 -106,-7 -253,-8 -373,-5 -120,2 -215,7 -285,14 -71,8 -118,18 -151,33 -32,15 -49,36 -62,60 -13,24 -23,51 -28,72 -6,21 -8,36 -11,59z"/>
   <path class="fil21" d="M23802 13284c-5,2 -11,5 -16,11 -8,7 -15,18 -20,35 -4,16 -5,38 -5,57 1,19 4,35 8,49 4,15 10,28 17,37 8,10 17,16 27,20 10,5 21,7 32,8 12,1 24,1 31,1 6,0 6,0 6,0 0,0 0,0 1,24l0 21c2,15 5,32 8,49 4,26 10,50 18,72 7,23 15,45 24,64 8,19 18,35 27,49 10,14 20,26 33,39 13,14 29,29 44,41 16,13 31,22 49,32 17,9 36,19 58,27 22,9 46,16 68,22 22,5 42,9 62,11 19,2 38,2 63,2 25,1 56,1 89,0 33,0 67,-3 100,-5 33,-3 64,-7 93,-13 29,-7 56,-16 81,-29 26,-13 50,-29 70,-44 19,-14 36,-27 50,-44 15,-17 29,-37 42,-58 13,-21 27,-42 39,-66 12,-23 22,-49 30,-75 9,-25 15,-50 19,-73 5,-23 8,-45 9,-56 2,-11 2,-11 2,-11 0,0 0,0 2,1 2,1 7,2 14,2 8,1 19,0 31,-3 2,-1 5,-1 7,-2 4,-2 8,-5 12,-8 10,-10 17,-25 22,-44 4,-20 6,-43 7,-65 1,-22 1,-42 -4,-58 -4,-16 -13,-28 -20,-34 -2,-3 -4,-5 -6,-6 3,9 6,20 8,32 3,15 4,31 3,50 -1,18 -5,39 -10,56 -5,17 -13,30 -23,39 -10,9 -23,13 -34,15 -10,2 -18,2 -22,1 -4,0 -4,0 -4,0 0,0 0,0 -1,7 -1,6 -4,19 -8,39 -4,19 -10,45 -18,72 -9,27 -20,54 -32,78 -11,23 -24,43 -38,63 -15,21 -32,41 -50,59 -19,18 -37,34 -55,48 -19,14 -36,27 -57,39 -20,12 -43,23 -68,31 -25,9 -51,14 -80,18 -29,4 -61,5 -96,7 -34,1 -71,2 -103,2 -32,-1 -59,-2 -87,-7 -28,-4 -59,-13 -86,-22 -27,-10 -51,-21 -72,-33 -22,-13 -41,-27 -58,-42 -16,-15 -30,-30 -43,-49 -13,-19 -25,-41 -36,-64 -10,-22 -19,-44 -26,-69 -7,-25 -13,-52 -18,-80 -4,-27 -6,-56 -7,-70 -1,-14 -1,-14 -1,-14 0,0 0,0 -8,3 -8,3 -24,8 -37,10 -13,1 -23,-2 -32,-9 -9,-7 -17,-19 -23,-31 -6,-13 -11,-28 -14,-45 -3,-18 -5,-39 -4,-57 1,-18 3,-33 8,-43 3,-6 6,-10 8,-14z"/>
   <path class="fil25" d="M24328 13794c4,5 9,9 14,14 5,4 10,8 15,12 6,3 12,5 19,7 8,2 17,4 26,4 10,1 19,1 29,1 10,0 21,-1 30,-3 8,-1 13,-4 18,-7 4,-3 8,-6 12,-11 4,-4 7,-10 9,-14 1,-3 1,-3 -15,-4 -15,-1 -47,-2 -78,-5 -31,-2 -62,-5 -75,-4 -13,1 -8,5 -4,10z"/>
   <path class="fil25" d="M24575 13540c-7,1 -17,1 -26,1 -8,-1 -15,-2 -20,-5 -6,-2 -10,-6 -14,-10 -4,-4 -8,-9 -13,-16 -4,-7 -10,-17 -15,-30 -6,-13 -11,-28 -14,-44 -4,-15 -6,-32 -6,-44 -1,-12 -1,-20 -1,-29 1,-10 2,-21 6,-31 4,-11 10,-21 16,-29 6,-9 12,-16 19,-21 8,-5 16,-9 22,-11 6,-3 10,-3 17,-1 6,2 15,7 29,29 14,22 33,61 43,97 9,36 9,70 5,92 -4,23 -13,33 -19,40 -6,6 -9,8 -13,9 -4,2 -8,3 -16,3z"/>
   <path class="fil25" d="M24306 13535c10,-1 18,-4 25,-11 7,-7 13,-18 21,-33 7,-14 15,-32 20,-50 5,-18 5,-35 5,-53 0,-17 0,-34 -2,-48 -2,-13 -5,-24 -10,-33 -4,-9 -11,-18 -17,-24 -7,-6 -14,-11 -21,-13 -7,-3 -15,-4 -28,-4 -13,0 -31,1 -47,5 -15,3 -27,9 -38,30 -10,20 -19,55 -17,88 3,33 17,65 32,89 15,25 31,42 44,51 13,8 24,8 33,6z"/>
   <path class="fil25" d="M23979 13117c0,46 0,129 0,171 0,41 0,41 -9,37 -9,-3 -27,-11 -43,-20 -15,-9 -29,-21 -39,-49 -11,-28 -19,-74 -18,-113 1,-40 11,-73 26,-90 15,-16 37,-15 52,-12 15,3 23,7 27,14 4,7 4,16 4,62z"/>
   <path class="fil25" d="M24899 13250c-1,-43 -1,-121 -1,-159 0,-39 0,-39 16,-39 16,0 47,0 64,11 17,11 19,32 20,57 1,24 0,51 -4,72 -4,22 -11,37 -27,56 -16,18 -41,40 -54,47 -13,6 -14,-3 -14,-45z"/>
   <path class="fil26" d="M24076 12874c-181,2 -198,-2 -229,-22 -1,0 -2,-1 -4,-1 -6,21 -16,57 -21,85 -3,14 -4,25 -5,35l0 0 0 1c0,4 0,11 0,22 -1,16 -1,41 0,72 1,30 2,66 4,91 2,20 3,34 5,45 1,7 1,13 2,19 1,9 2,17 3,22 1,5 2,8 2,10 1,5 1,5 14,8l52 13 10 3 -1 -2 4 1 0 -32 0 -134 0 -34 35 10c35,10 104,29 182,43 78,13 164,20 240,23 76,2 143,1 206,-4 63,-4 123,-10 185,-22 62,-12 127,-29 159,-37l32 -9 0 30 0 117 0 29 16 -10 35 -23 27 -17 16 -11 -1 -23c0,-12 -1,-30 -1,-50l-1 -6c0,-17 0,-38 0,-58 0,-20 0,-40 0,-57 0,-2 0,-4 0,-6 -1,-16 -2,-49 -8,-80 -5,-27 -14,-54 -23,-76 -24,14 -57,15 -201,19 -184,4 -547,13 -734,16z"/>
   <path class="fil27" d="M24969 12786c11,2 24,19 36,43 12,23 23,54 29,86 6,31 7,64 8,80 0,16 0,16 -71,16 -72,0 -215,0 -419,0 -204,0 -469,-1 -602,-1 -132,-1 -132,-1 -133,-11 0,-11 -1,-33 5,-63 5,-31 17,-71 23,-90 6,-20 6,-20 105,-23 100,-3 299,-8 481,-10 181,-2 346,-2 432,-8 86,-7 95,-20 106,-19z"/>
   <ellipse class="fil24" cx="24679" cy="13275" rx="94" ry="31"/>
   <path class="fil28" d="M25012 12838c13,-4 20,-10 31,-21 31,-28 94,-86 124,-118 3,-4 6,-7 9,-11 11,-11 12,-15 12,-18 0,-4 -3,-8 -39,-30 -36,-21 -106,-60 -140,-80 -35,-19 -35,-19 -35,-19 0,0 0,0 -82,-25 -82,-25 -246,-74 -339,-101 -92,-27 -113,-31 -133,-30 -11,1 -22,3 -46,9 -15,3 -31,6 -51,11 -56,14 -136,36 -216,60l-205 55c-92,24 -92,24 -120,49 -21,18 -59,51 -88,77 -25,17 -36,28 -41,37 -7,9 -7,12 -3,17 2,12 12,25 38,46 34,27 95,67 125,88 18,11 25,16 34,18 31,20 48,24 229,22 187,-3 550,-12 734,-16 147,-4 179,-5 202,-20z"/>
   <path class="fil27" d="M25016 12837c10,-4 17,-11 27,-20 31,-28 94,-86 124,-118 3,-4 6,-7 9,-11 11,-11 12,-15 12,-18 0,-4 -3,-8 -39,-30 -36,-21 -106,-60 -140,-80 -35,-19 -35,-19 -35,-19l-32 -10c47,33 117,81 154,109 45,34 46,39 38,51 -8,13 -23,32 -45,59 -22,26 -49,59 -63,75 -5,6 -8,9 -10,12z"/>
   <path class="fil27" d="M23835 12538c-29,9 -35,15 -53,31 -21,18 -59,51 -88,77 -25,17 -36,28 -41,37 -7,9 -7,12 -3,17 2,12 12,25 38,46 34,27 95,67 125,88 17,11 25,16 33,18 -3,-3 -7,-7 -12,-11 -29,-24 -86,-72 -115,-100 -29,-28 -30,-35 -30,-43 1,-8 3,-16 23,-39 19,-23 56,-62 78,-84 23,-22 30,-28 43,-36l2 -1z"/>
   <ellipse class="fil24" cx="24158" cy="13276" rx="94" ry="31"/>
   <ellipse class="fil29" cx="24418" cy="12643" rx="113" ry="137"/>
   <path class="fil30" d="M24815 13266l-268 0c-12,0 -23,5 -31,13l0 0c-3,3 -4,6 -6,9 -1,4 -2,9 -3,14 -1,5 -1,11 -1,14 0,3 0,3 0,3 0,0 0,0 -5,-2 -5,-1 -16,-4 -28,-6 -13,-3 -29,-5 -44,-6 -15,-1 -30,-1 -43,0 -13,2 -23,5 -31,8 -8,3 -14,5 -17,6 -3,2 -3,2 -3,2 0,0 0,0 0,-6 0,-5 0,-16 -2,-24 -1,-2 -1,-4 -2,-5 -7,-12 -21,-20 -36,-20l-268 0c-18,0 -34,11 -40,27l-154 -35 151 139 0 0 0 102c0,23 20,42 43,42l268 0c24,0 43,-19 43,-42l0 -124 166 0 0 124c0,23 19,42 43,42l268 0c23,0 42,-19 42,-42l0 -125 188 -179 -197 86c-8,-9 -20,-15 -33,-15z"/>
   <path class="fil31" d="M24810 13266l-263 0c-12,0 -23,5 -31,13l0 0c-3,3 -4,6 -6,9 -1,4 -2,9 -3,14 -1,5 -1,11 -1,14 0,3 0,3 0,3l-1 -1 0 15c0,11 -1,27 -1,42l0 0 0 124c0,23 19,42 43,42l144 0 1 -1c12,-8 17,-20 19,-26 2,-6 2,-6 -25,-5 -27,0 -81,0 -111,-2 -30,-2 -35,-7 -38,-14 -3,-7 -4,-16 -4,-41 -1,-25 -2,-66 -1,-96 1,-29 3,-46 8,-55 4,-10 10,-12 16,-13 6,-1 13,-1 43,-1 30,0 83,-1 118,0 34,0 50,1 62,0 13,-2 22,-6 28,-14 1,-2 2,-5 3,-7z"/>
   <path class="fil31" d="M24282 13266l-255 0c-18,0 -34,11 -40,27l-154 -35 151 139 0 0 0 102c0,23 20,42 43,42l156 0c13,-8 19,-17 23,-22 5,-7 5,-7 -19,-6 -23,0 -71,1 -102,1 -30,-1 -45,-3 -55,-6 -10,-3 -15,-8 -19,-13 -3,-6 -4,-12 -4,-42 -1,-29 -1,-83 0,-113 2,-31 6,-39 11,-44 4,-6 10,-9 22,-11 12,-2 31,-2 56,-2 26,0 58,0 88,1 31,0 59,1 78,-5 10,-3 17,-8 20,-13z"/>
   <path class="fil32" d="M24319 13273c-7,-4 -15,-7 -24,-7l-67 0c0,23 1,57 -1,84 -2,33 -7,57 -15,81 -8,23 -19,47 -33,66 -13,19 -29,34 -44,44l104 0c8,-7 15,-16 23,-26 11,-16 21,-35 29,-56 8,-21 14,-45 18,-69 4,-25 7,-51 8,-72 2,-18 2,-33 2,-45z"/>
   <path class="fil32" d="M24815 13266l-67 0c0,16 0,36 0,55 -1,28 -2,54 -7,78 -4,25 -13,49 -23,70 -10,21 -21,39 -33,53 -7,8 -13,14 -18,19l86 0c1,-1 3,-3 5,-4 10,-9 20,-20 30,-34 9,-15 19,-33 26,-53 8,-21 13,-44 17,-68 3,-24 5,-49 6,-72 0,-14 0,-27 -1,-38 -6,-4 -13,-6 -21,-6z"/>
   <path class="fil33" d="M24420 13743c-67,0 -128,-11 -173,-29 6,55 81,98 173,98 92,0 167,-43 173,-98 -45,18 -106,29 -173,29z"/>
   <path class="fil34" d="M24356 13621c-13,-1 -31,-1 -41,-4 -10,-4 -12,-10 -12,-20 1,-10 4,-23 11,-32 6,-9 16,-14 29,-18 12,-4 28,-6 36,-7 8,-1 8,-1 8,-1 0,0 0,0 0,13 0,14 0,41 0,55 0,14 0,14 0,14 0,0 0,0 -4,0 -5,0 -14,0 -27,0z"/>
   <line class="fil17" x1="24098" y1="14476" x2="24098" y2= "14864" />
   <line class="fil17" x1="23923" y1="14603" x2="24278" y2= "14603" />
   <rect class="fil35" x="25274" y="13881" width="844" height="1152"/>
   <rect class="fil9" x="25351" y="13957" width="691" height="1000"/>
   <path class="fil20" d="M25944 13776c-26,-7 -54,-15 -80,-20 -27,-6 -52,-8 -71,-8 -18,0 -29,2 -37,8 -8,5 -12,13 -17,19 -6,7 -11,11 -23,16 -11,5 -27,12 -41,20 -13,8 -24,19 -30,30 -7,10 -8,21 -1,30 7,9 23,15 34,24 12,8 19,18 29,28 10,10 23,21 43,30 21,8 48,13 76,15 29,1 58,-1 82,-10 25,-10 44,-27 65,-39 21,-13 44,-21 67,-29 22,-7 44,-13 52,-21 9,-9 3,-20 -12,-32 -15,-13 -39,-27 -63,-37 -24,-11 -47,-16 -73,-24z"/>
   <path class="fil21" d="M25756 13955c19,7 44,11 70,13 29,1 58,-1 82,-10 25,-10 44,-27 65,-39 21,-13 44,-21 67,-29 9,-3 19,-6 28,-9 -12,1 -25,4 -41,8 -22,7 -51,17 -78,28 -27,10 -52,20 -77,26 -25,7 -51,9 -74,10 -15,1 -28,1 -42,2z"/>
   <path class="fil21" d="M25944 13776c-26,-7 -54,-15 -80,-20 -27,-6 -52,-8 -71,-8 -18,0 -29,2 -37,8 -8,5 -12,13 -17,19 -6,7 -11,11 -23,16 -11,5 -27,12 -41,20 -13,8 -24,19 -30,30 -7,10 -8,21 -1,30 7,9 23,15 34,24 5,3 9,7 13,10l0 0c0,-12 5,-26 12,-39 7,-12 16,-21 26,-28 11,-6 22,-10 35,-15 13,-4 28,-10 50,-14 21,-4 50,-6 81,-6 32,0 65,2 96,7 31,5 59,14 96,37l5 3c-2,-4 -7,-9 -12,-13 -15,-13 -39,-27 -63,-37 -24,-11 -47,-16 -73,-24z"/>
   <rect class="fil9" x="24290" y="15500" width="227" height="109"/>
   <path class="fil17 str3" d="M23872 15625c-1,14 -2,27 -3,38 -4,49 -12,62 -29,70 -17,8 -44,11 -66,8 -22,-3 -40,-12 -51,-25 -11,-13 -17,-31 -19,-89 -2,-59 -2,-158 -1,-207 0,-50 0,-50 28,-50 29,0 85,0 114,0 28,0 28,0 28,13 1,11 1,31 1,74 38,0 88,1 116,2 38,2 39,3 41,29 3,27 7,78 6,106 -2,29 -8,34 -43,35 -32,1 -87,-1 -122,-4z"/>
   <rect class="fil17 str3" x="24103" y="15467" width="165" height="173" rx="30" ry="26"/>
   <path class="fil36" d="M23995 17375c149,0 269,71 269,158l22 0 0 75 -588 0 0 -75 27 0c0,-87 121,-158 270,-158z"/>
   <path class="fil36" d="M24751 17375c149,0 269,71 269,158l22 0 0 75 -588 0 0 -75 27 0c0,-87 121,-158 270,-158z"/>
   <rect class="fil23" x="24364" y="14160" width="85.9341" height="1310.51"/>
   <path class="fil23" d="M24208 14344c-10,-18 -30,-55 -43,-90 -13,-35 -19,-68 -22,-94 -2,-26 -2,-45 4,-64 2,-10 6,-19 10,-28 -7,12 -14,26 -19,41 -6,17 -9,36 -10,55 -2,19 -2,38 2,62 5,24 13,54 24,78 10,25 22,45 33,60 11,15 21,26 26,31l4 6 30 -35 117 -139 0 -41 -112 136 -34 41 -10 -19z"/>
   <path class="fil23" d="M24450 14175l0 44c4,5 8,11 14,18l104 129 26 32 5 -4c6,-4 17,-12 28,-27 12,-15 23,-37 33,-61 10,-25 18,-52 23,-80 6,-29 8,-58 7,-85 -2,-27 -7,-50 -21,-74 -11,-19 -27,-38 -41,-53 -2,0 -4,-1 -6,-1l-13 -4c14,8 28,19 39,33 13,16 23,34 28,54 6,19 6,38 4,64 -3,26 -9,59 -22,94 -13,35 -33,72 -43,90l-10 19 -34 -41 -121 -147z"/>
   <path class="fil23" d="M23951 14476c-5,1 -11,4 -16,9 -5,4 -10,11 -13,18 -4,8 -6,16 -7,70 -1,54 -1,152 0,205 1,52 2,59 5,65 2,6 6,12 12,17 5,4 13,7 28,8 15,2 36,2 82,2 47,0 117,0 156,-1 39,0 45,-1 53,-3 7,-2 16,-7 23,-13 6,-7 10,-16 13,-24 2,-8 2,-14 1,-67 -1,-53 -2,-153 -4,-205 -1,-53 -3,-59 -7,-64 -4,-5 -10,-9 -16,-12 -6,-3 -13,-5 -16,-5 -3,-1 -3,-1 -3,-1 0,0 0,0 2,1 2,1 6,3 9,6 4,4 8,8 11,14 3,7 5,15 7,66 1,51 1,145 0,196 -1,51 -3,59 -5,66 -2,7 -5,13 -12,17 -6,4 -15,6 -63,6 -49,1 -137,0 -184,-2 -48,-1 -54,-3 -59,-6 -6,-4 -9,-10 -11,-60 -2,-51 -1,-146 0,-199 2,-54 3,-64 5,-72 2,-8 5,-14 10,-19 4,-6 10,-11 10,-14 0,-2 -5,-1 -11,1z"/>
   <rect class="fil23" x="23928" y="14591" width="350.244" height="23.4441"/>
   <rect class="fil23" x="24088" y="14475" width="19.523" height="382.806"/>
   <line class="fil17" x1="24757" y1="14487" x2="24757" y2= "14874" />
   <line class="fil17" x1="24582" y1="14613" x2="24936" y2= "14613" />
   <path class="fil29" d="M24645 14616c58,-3 171,-2 230,-4 58,-1 61,-3 62,-7 2,-4 2,-9 1,-18 -1,-9 -2,-23 -3,-29 0,-7 0,-7 -59,-6 -58,0 -175,1 -233,2 -58,0 -58,0 -59,6 -1,7 -2,19 -2,32 -1,12 0,25 1,28 2,4 4,-2 62,-4z"/>
   <path class="fil23" d="M24610 14486c-5,2 -11,4 -16,9 -5,5 -10,11 -14,19 -3,7 -5,16 -6,69 -1,54 -1,153 -1,205 1,53 3,59 6,65 2,7 6,13 11,17 6,4 14,7 29,9 14,1 36,2 82,2 47,0 117,-1 156,-1 39,-1 45,-1 53,-4 7,-2 16,-6 22,-13 7,-7 11,-16 13,-24 3,-7 3,-14 2,-67 -1,-53 -2,-152 -4,-205 -1,-53 -4,-59 -8,-64 -3,-5 -9,-9 -15,-12 -6,-2 -13,-4 -16,-5 -3,-1 -3,-1 -3,-1 0,0 0,0 2,1 2,1 6,4 9,7 4,3 7,7 10,14 3,6 6,14 7,65 2,51 2,145 1,196 -1,51 -3,59 -5,66 -3,8 -6,14 -12,17 -6,4 -15,6 -63,7 -49,0 -137,-1 -185,-2 -47,-1 -53,-3 -59,-7 -5,-4 -9,-9 -10,-60 -2,-50 -1,-146 0,-199 1,-53 3,-64 5,-72 2,-8 5,-13 9,-19 5,-5 10,-11 11,-13 0,-3 -5,-2 -11,0z"/>
   <rect class="fil23" x="24587" y="14601" width="350.244" height="23.4441"/>
   <rect class="fil23" x="24747" y="14602" width="19.523" height="265.751"/>
   <path class="fil29" d="M24065 14055c-7,-1 -16,-1 -32,0 -16,1 -37,3 -53,5 -16,3 -25,7 -30,11 -4,4 -4,9 -1,12 3,3 8,5 24,4 15,-1 41,-6 61,-11 21,-6 35,-12 39,-16 5,-3 0,-5 -8,-5z"/>
   <path class="fil29" d="M23904 14076c-9,-2 -20,-1 -31,0 -11,1 -22,2 -32,4 -10,2 -20,6 -27,10 -7,4 -12,9 -12,13 -1,4 1,7 6,10 4,2 11,4 22,4 11,0 28,-2 41,-4 14,-2 26,-5 35,-8 8,-4 13,-7 16,-11 3,-3 3,-7 0,-11 -3,-3 -9,-6 -18,-7z"/>
   <path class="fil29" d="M24765 14046c8,0 17,0 33,1 16,1 37,4 53,7 15,3 25,7 29,12 5,4 4,8 1,11 -3,4 -8,6 -24,4 -15,-2 -41,-7 -61,-13 -20,-6 -34,-13 -39,-17 -4,-3 1,-5 8,-5z"/>
   <path class="fil29" d="M24927 14071c8,-1 20,1 31,2 10,1 21,2 31,5 10,2 20,6 27,10 7,4 11,9 12,13 1,5 -2,8 -7,10 -4,2 -11,4 -22,3 -11,0 -27,-2 -41,-4 -14,-3 -26,-6 -34,-10 -8,-3 -13,-7 -16,-11 -3,-3 -3,-7 0,-11 3,-3 10,-6 19,-7z"/>
   <circle class="fil23" cx="24449" cy="15300" r="36"/>
   <circle class="fil23" cx="24451" cy="15126" r="36"/>
   <circle class="fil23" cx="24453" cy="14953" r="36"/>
   <circle class="fil23" cx="24455" cy="14779" r="36"/>
   <circle class="fil23" cx="24457" cy="14605" r="36"/>
   <circle class="fil23" cx="24459" cy="14431" r="36"/>
   <rect class="fil37" x="25484" y="14023" width="414.045" height="36.4594"/>
   <circle class="fil38" cx="25486" cy="14827" r="74"/>
   <path class="fil17 str4" d="M25794 14838c0,-1 33,-33 7,-1 -59,72 36,-9 59,-21 -84,71 -43,43 37,4 56,-27 -28,5 -52,21 -135,90 79,-5 74,-30 -40,2 -126,100 -21,21 11,-9 53,-72 13,-40 -1,0 -128,108 -78,75 13,-9 74,-40 76,-43 -47,7 -119,106 -7,24 25,-18 -36,20 15,-4 29,-13 -26,-3 -25,8 39,0 55,-34 20,-11 -12,7 11,-1 -5,5 -18,6 54,6 76,-3 2,-1 3,0 5,0"/>
   <path class="fil39" d="M23874 15410c0,-13 -1,-21 -1,-27 0,-13 0,-13 -28,-13l-101 0 -13 0c-28,0 -28,0 -28,50 -1,49 -1,148 1,207 2,58 8,76 19,89 4,5 9,9 15,13 0,58 0,132 0,227 2,346 8,969 10,1281l2 230c43,-54 136,-92 245,-92 110,0 204,39 246,94 1,-33 3,-80 5,-146 6,-226 19,-678 29,-918 10,-240 16,-269 27,-292 10,-24 24,-42 46,-51 23,-9 52,-9 77,-1 25,9 45,26 56,54 11,29 13,69 15,312 2,242 3,686 4,908l1 139c39,-58 136,-99 250,-99 109,0 202,38 245,93l7 -214 39 -1226 3 -100c4,2 9,3 15,3 7,0 17,-3 25,-8 8,-5 14,-11 20,-19 5,-8 9,-16 12,-33 2,-16 4,-41 5,-116 0,-76 0,-202 -1,-270 -1,-68 -2,-76 -5,-84 -2,-8 -6,-15 -12,-20 -5,-4 -13,-7 -21,-9 -8,-2 -17,-4 -24,-4 -7,1 -12,3 -17,7 -1,0 -2,1 -3,2l-1 1c-5,6 -9,15 -11,24 -2,9 -3,18 -3,22 0,5 0,5 -7,7 -7,1 -22,5 -62,11 -40,5 -106,11 -140,15 -20,3 -29,5 -33,8 -27,2 -58,5 -91,6 -35,0 -73,-2 -105,-3 -33,0 -59,1 -106,0 -46,-1 -112,-3 -158,-5 -45,-2 -71,-3 -107,-6 -37,-4 -84,-8 -139,-15 -54,-8 -115,-18 -152,-24 -24,-4 -38,-6 -50,-8zm1157 488l0 0 0 21 0 -21z"/>
   <path class="fil36" d="M24968 17440c11,9 20,18 28,28l7 -214 39 -1226 3 -100c4,2 9,3 15,3 7,0 17,-3 25,-8 4,-2 7,-5 10,-8 0,-33 -1,-64 -3,-91 -9,-187 -38,-228 -54,-234 -16,-7 -19,21 -29,350 -10,329 -27,959 -35,1274 -3,108 -5,179 -6,226zm63 -1542l0 0 0 21 0 -21z"/>
   <path class="fil36" d="M24221 17448c8,7 15,14 20,21 1,-33 3,-80 5,-146 6,-226 19,-678 29,-918 10,-240 16,-269 27,-292 10,-24 24,-42 46,-51 23,-9 52,-9 77,-1 25,9 45,26 56,54 11,29 13,69 15,312 2,242 3,686 4,908l1 139c6,-9 13,-17 22,-26l1 -137c2,-210 4,-630 4,-863 0,-234 -2,-281 -9,-317 -7,-37 -19,-63 -36,-82 -17,-20 -41,-33 -67,-39 -26,-6 -55,-5 -78,4 -24,10 -43,28 -57,56 -13,28 -21,65 -27,133 -5,68 -9,166 -12,318 -4,151 -7,357 -11,527 -3,170 -7,303 -9,378l-1 22z"/>
   <path class="fil36" d="M23717 15708c2,3 4,5 6,8 4,5 9,9 15,13 0,58 0,132 0,227 2,346 8,969 10,1281l2 230c6,-7 13,-14 20,-21l-1 -255c-2,-297 -6,-891 -8,-1198 -3,-307 -5,-328 -18,-324 -6,2 -15,10 -26,39z"/>
   <path class="fil31" d="M23881 15644c-3,8 -4,20 -6,34 -3,15 -9,32 -16,44 -7,13 -16,20 -26,25 -9,5 -20,7 -32,6 -12,0 -25,-2 -38,-5 -12,-2 -23,-5 -34,-10 -10,-6 -20,-13 -28,-53 -9,-39 -17,-111 -18,-170 -1,-59 4,-104 7,-127 3,-24 5,-25 36,-27 31,-1 92,-2 125,-1 32,0 35,3 36,17 0,13 -2,39 -4,52 -1,13 -1,13 19,13 20,1 61,3 86,6 26,3 37,8 43,16 6,8 8,20 10,44 1,23 2,59 1,80 -1,22 -4,30 -8,36 -3,6 -9,10 -32,11 -24,0 -65,-3 -89,-3 -24,1 -29,4 -32,12z"/>
   <path class="fil31" d="M24777 15474c0,-12 3,-14 37,-18 34,-4 100,-10 140,-16 40,-5 54,-9 61,-11 8,-2 8,-2 8,-6 0,-4 0,-13 3,-22 2,-9 6,-18 11,-24 6,-6 13,-9 20,-10 8,0 17,1 25,3 8,3 15,5 21,10 6,5 9,12 12,19 3,8 4,17 5,85 1,67 1,194 0,270 0,75 -2,99 -5,116 -3,16 -6,25 -12,33 -5,7 -11,14 -19,19 -8,4 -18,7 -26,8 -8,0 -14,-3 -19,-6 -5,-3 -9,-7 -10,-48 -2,-42 -2,-120 -1,-159 0,-40 0,-40 -9,-39 -9,0 -26,1 -50,0 -24,-1 -54,-4 -78,-8 -25,-3 -43,-7 -58,-12 -15,-4 -27,-9 -35,-16 -9,-6 -15,-14 -18,-33 -3,-19 -3,-48 -3,-74 -1,-26 -1,-49 0,-61z"/>
   <path class="fil40" d="M25097 15376c2,1 4,3 6,4 6,5 9,12 12,19 3,8 4,17 5,85 1,67 1,194 0,270 0,75 -2,99 -5,116 -3,16 -6,25 -12,33 -3,5 -7,10 -12,13 0,-14 0,-34 0,-61 1,-98 1,-293 4,-397 0,-38 1,-64 2,-82z"/>
   <path class="fil31" d="M24241 15640l0 -173c-1,0 -1,0 -2,0l-106 0c-16,0 -30,13 -30,30l0 113c0,17 14,30 30,30l106 0 2 0z"/>
   <path class="fil31" d="M24565 15465l0 175c1,0 2,0 2,0l106 0c17,0 30,-14 30,-32l0 -121c0,-40 -82,-22 -115,-22 -8,0 -15,0 -23,0z"/>
   <rect class="fil1" x="24241" y="15450" width="324" height="211"/>
   <rect class="fil31" x="24294" y="15497" width="224" height="115"/>
   <path class="fil41" d="M24819 17402c17,4 34,8 51,15 18,8 36,18 52,28 16,10 28,21 37,31 9,10 14,18 18,28 4,9 7,19 8,24 1,5 1,5 -19,5 -20,0 -60,0 -80,0 -19,0 -19,0 -19,0 0,0 0,0 -1,-6 0,-7 0,-20 -3,-35 -3,-15 -7,-33 -15,-46 -7,-13 -17,-21 -26,-29 -9,-8 -18,-14 -27,-18 -9,-5 -20,-7 -25,-8 -5,-1 -5,-1 4,1 9,2 27,6 45,10z"/>
   <path class="fil41" d="M24061 17402c17,4 34,8 51,15 18,8 37,18 52,28 16,10 28,21 37,31 9,10 14,18 18,28 4,9 7,19 8,24 2,5 2,5 -18,5 -20,0 -60,0 -80,0 -20,0 -20,0 -20,0 0,0 0,0 -1,-6 0,-7 0,-20 -3,-35 -2,-15 -7,-33 -15,-46 -7,-13 -17,-21 -26,-29 -9,-8 -17,-14 -27,-18 -9,-5 -19,-7 -25,-8 -5,-1 -5,-1 4,1 9,2 28,6 45,10z"/>
   <path class="fil17 str5" d="M25442 14172l515 0m-515 245l515 0m-515 -31l515 0m-515 -30l515 0m-515 -31l515 0m-515 -30l515 0m-515 -31l515 0m-515 -30l515 0m-515 -31l515 0"/>
  </g>
  <g id="_2997085121440">
   <path class="fil42" d="M37916 16930c-22,43 -54,111 -80,155 -27,43 -48,62 -94,73 -46,12 -117,18 -1024,16 -906,-1 -2648,-9 -3526,-14 -879,-4 -893,-6 -904,-23 -10,-18 -17,-52 -27,-111 -11,-59 -25,-142 -31,-184 -6,-42 -4,-44 -310,-44 -307,0 -923,2 -1256,18 -334,17 -385,48 -410,90 -25,41 -24,93 -26,138 -2,45 -7,83 -20,105 -12,21 -32,27 -116,11 -84,-15 -231,-50 -327,-75 -97,-24 -142,-37 -178,-45 -37,-8 -66,-11 -91,-17 -24,-7 -44,-17 -58,-37 -14,-20 -22,-49 -16,-124 5,-74 23,-194 35,-288 11,-95 15,-163 23,-271 9,-107 22,-253 33,-348 12,-95 21,-139 33,-174 13,-35 29,-61 74,-103 46,-43 121,-101 224,-157 104,-57 236,-112 385,-163 149,-51 315,-97 470,-135 155,-37 298,-66 490,-95 192,-28 432,-56 745,-89 313,-33 700,-71 893,-90 193,-19 193,-19 193,-19 0,0 0,0 42,-35 43,-35 127,-105 264,-202 137,-97 327,-221 503,-323 175,-103 336,-185 472,-244 137,-60 249,-97 388,-133 139,-36 305,-72 495,-98 190,-26 404,-44 623,-55 220,-11 445,-16 653,-10 209,6 400,23 575,42 176,20 335,43 531,83 196,40 428,98 544,127 116,29 116,29 121,34 4,4 14,14 24,24 11,9 22,20 254,106 231,87 682,249 928,335 246,85 287,95 340,100 53,5 117,6 174,14 58,8 108,23 220,40 112,17 286,37 442,48 155,11 292,14 370,19 77,5 94,13 106,28 12,16 18,38 21,92 3,54 1,140 1,250 0,110 2,245 2,312 1,67 1,67 1,67 0,0 0,0 15,9 15,10 45,28 76,56 31,29 63,67 86,114 23,48 38,105 34,285 -3,180 -24,483 -38,638 -14,155 -20,161 -53,169 -32,8 -90,17 -338,19 -248,1 -685,-6 -1157,-5 -473,1 -979,9 -1280,13 -302,4 -398,4 -452,12 -55,9 -68,26 -91,69z"/>
   <polygon class="fil43" points="32967,16642 32959,16911 36005,16855 36084,16594 "/>
   <path class="fil44" d="M30266 16890c-5,5 -9,10 -12,16 -25,41 -24,93 -26,138 -2,45 -7,83 -20,105 -12,21 -32,27 -116,11 -84,-15 -231,-50 -327,-75 -97,-24 -142,-37 -178,-45 -37,-8 -66,-11 -91,-17 -24,-7 -44,-17 -58,-37 -14,-20 -22,-49 -16,-124 2,-35 8,-81 14,-129 67,1 141,6 220,11 170,11 361,26 466,32 106,6 125,3 136,50 4,17 6,39 8,64z"/>
   <path class="fil44" d="M41113 15413l0 71c1,67 1,67 1,67 0,0 0,0 15,9 15,10 45,28 76,56 31,29 63,67 86,114 23,48 38,105 34,285 -3,180 -24,483 -38,638 -14,155 -20,161 -53,169 -32,8 -90,17 -338,19 -226,1 -610,-4 -1034,-5 0,-17 1,-36 1,-57 2,-66 4,-149 -17,-243 -20,-93 -62,-197 -107,-286 -45,-88 -93,-161 -145,-225 -53,-65 -111,-122 -140,-150 -29,-28 -29,-28 69,-41 98,-12 295,-37 462,-69 166,-32 304,-70 398,-107 94,-37 146,-72 181,-109 35,-36 53,-73 62,-106 8,-34 7,-64 22,-78 15,-14 47,-11 138,-2 85,10 222,25 327,50z"/>
   <path class="fil4" d="M41317 16231c-2,37 -4,76 -7,113 -25,4 -51,5 -75,6 -45,2 -83,3 -114,-3 -31,-6 -55,-19 -70,-38 -16,-18 -24,-42 -28,-54 -4,-12 -4,-12 61,-14 56,-2 158,-6 233,-10z"/>
   <path class="fil45" d="M37916 16930c-22,43 -54,111 -80,155 -27,43 -48,62 -94,73 -46,12 -117,18 -1024,16 -906,-1 -2648,-9 -3526,-14 -879,-4 -893,-6 -904,-23 -10,-18 -17,-52 -27,-111l-1 -2 0 -1 0 -1 0 -1 0 -1 -1 -1 0 -1 0 -1 0 -2 0 0 -1 -1 0 -2 0 0 0 -2 0 -1 -1 -1 0 -2 0 0 0 -2 0 -1 0 0 -1 -2 0 -1 0 -1 0 -2 -1 0 0 -2 0 -1 0 -1 -1 -2 0 0 0 -2 0 -1 0 -1 -1 -1 0 -1 0 -1 0 -2 0 -1 -1 -1 0 -2 0 0 0 -2 0 -1 -1 -1 0 -2 0 0 0 -2 0 -1 -1 -1 0 -2 0 0 0 -2 -1 -1 0 -1 0 -2 0 -1 0 -1 -1 -2 0 0 0 -2 0 -1 0 -1 -1 -2 0 0 0 -2 0 -1 0 -1 -1 -2 0 0 0 -2 0 -2 0 0 -1 -2 0 -1 0 -1 0 -2 0 0 -1 -2 0 -1 0 -1 0 -2 -1 0 0 -1 0 -2 0 0 0 -2 -1 -1 0 -1 0 -2 0 -1 0 -1 -1 -2 0 0 0 -2 0 -1 0 -1 -1 -2 0 0 0 -2 0 -1 0 -1 -1 -1c89,-7 315,-13 890,-28 947,-26 2840,-76 3793,-86 954,-9 967,21 980,68 5,21 10,44 16,69l-1 1 -1 2z"/>
   <path class="fil46" d="M37821 17106c-20,29 -41,43 -79,52 -46,12 -117,18 -1024,16 -906,-1 -2648,-9 -3526,-14 -879,-4 -893,-6 -904,-23 -9,-17 -16,-47 -25,-97 79,-5 248,-6 619,-10 683,-7 2049,-20 2954,-32 904,-12 1347,-22 1603,-8 256,15 325,54 365,97 7,6 12,13 17,19z"/>
   <path class="fil42 str3" d="M30277 16880c-15,11 -25,26 -37,50 -7,13 -14,28 -22,43 -13,-48 -22,-97 -28,-147 -4,-39 -6,-78 -6,-118 0,-13 0,-27 1,-41 2,-43 5,-74 9,-103 7,-48 19,-90 32,-125 13,-36 28,-66 34,-51 5,15 1,74 4,156 3,81 12,185 13,278 0,20 0,39 0,58z"/>
   <path class="fil47" d="M29462 17009c-9,-6 -17,-14 -24,-23 -14,-20 -22,-49 -16,-124 5,-74 23,-194 35,-288l0 -2c20,-17 37,-29 56,-40 41,-26 90,-53 127,-66 37,-14 62,-16 86,-12 23,3 46,11 64,30 17,19 31,50 36,84 6,35 5,75 -2,111 -6,35 -18,67 -41,106 -23,39 -57,85 -90,118 -33,34 -65,55 -95,72 -29,15 -56,27 -136,34z"/>
   <path class="fil48" d="M29670 15635c44,-35 103,-75 174,-114 104,-57 236,-112 385,-163 149,-51 315,-97 470,-135 155,-37 298,-66 490,-95 192,-28 432,-56 745,-89 313,-33 700,-71 893,-90 193,-19 193,-19 193,-19 0,0 0,0 42,-35 43,-35 127,-105 264,-202 137,-97 327,-221 503,-323 175,-103 336,-185 472,-244 137,-60 249,-97 388,-133 139,-36 305,-72 495,-98 190,-26 404,-44 623,-55 220,-11 445,-16 653,-10 209,6 400,23 575,42 176,20 335,43 531,83 196,40 428,98 544,127 116,29 116,29 121,34 4,4 14,14 24,24 11,9 22,20 254,106 231,87 682,249 928,335 246,85 287,95 340,100 53,5 117,6 174,14 58,8 108,23 220,40 112,17 286,37 442,48 155,11 292,14 370,19 77,5 94,13 106,28 12,16 18,38 21,92 3,54 1,140 1,250 0,39 0,81 1,122 -119,-28 -245,-58 -360,-80 -177,-35 -330,-51 -936,-37 -607,13 -1667,55 -3547,142 -1881,87 -4581,219 -5932,285 -275,13 -494,24 -667,31z"/>
   <path class="fil49" d="M33045 14910l17 -15c43,-35 127,-105 264,-202 137,-97 327,-221 503,-323 175,-103 336,-185 472,-244 85,-37 160,-65 238,-90 13,8 20,18 21,32 0,16 -8,35 -59,72 -51,36 -145,90 -276,161 -132,71 -300,159 -457,249 -156,89 -301,180 -398,241 -97,60 -147,90 -188,105 -41,16 -72,18 -110,16 -9,-1 -18,-1 -27,-2z"/>
   <path class="fil50" d="M29721 15934c-15,24 -33,46 -51,69 -19,23 -38,46 -54,61 -16,16 -29,24 -40,26 -12,3 -21,0 -27,-9 -6,-10 -10,-27 -7,-65 2,-38 10,-97 16,-136 7,-38 12,-57 20,-71 9,-15 20,-26 36,-34 16,-8 37,-12 57,-13 21,-1 40,1 54,5 13,4 22,9 27,25 5,16 7,42 2,68 -5,25 -18,50 -33,74z"/>
   <path class="fil51" d="M39038 15236c-701,41 -1825,107 -3178,165 -1352,58 -2935,108 -3726,133 -791,25 -791,25 -791,25 0,0 0,0 374,-21 375,-21 1124,-63 2030,-117 906,-54 1968,-120 2876,-168 907,-47 1658,-76 2245,-88 587,-12 1009,-7 1220,-4 211,2 211,2 211,2 0,0 0,0 -140,8 -140,8 -419,24 -1121,65z"/>
   <path class="fil52" d="M30012 15976c113,-77 287,-203 374,-267 87,-63 87,-63 87,-63 0,0 0,0 -35,-2 -34,-2 -103,-6 -178,-3 -76,2 -159,12 -238,29 -78,18 -152,45 -207,69 -54,24 -90,47 -115,71 -25,25 -40,51 -49,87 -9,37 -13,83 -11,118 2,35 10,58 37,72 27,14 73,18 122,6 49,-12 100,-39 213,-117z"/>
   <path class="fil47" d="M37672 14904c-367,14 -796,30 -1260,50 -465,20 -966,43 -1519,70 -552,27 -1156,58 -1453,66 -297,9 -286,-4 -235,-41 50,-36 141,-95 187,-125 45,-30 45,-30 48,-39 3,-9 8,-27 21,-49 13,-21 34,-44 61,-64 26,-20 58,-36 86,-46 27,-11 51,-16 75,-21 25,-4 50,-8 62,-10 13,-2 13,-2 13,-2 0,0 0,0 69,-45 69,-45 208,-135 342,-214 133,-80 263,-150 376,-205 113,-56 211,-97 309,-130 99,-34 197,-60 317,-78 119,-18 259,-27 404,-33 145,-6 295,-9 457,-7 161,2 334,9 469,16 135,6 233,13 367,29 135,17 306,43 463,71 156,27 297,56 455,97 158,40 334,91 485,140 152,49 280,95 375,133 95,38 157,69 200,97 43,27 66,52 78,77 12,24 12,48 4,74 -8,27 -24,56 -44,79 -20,23 -46,40 -86,50 -40,11 -95,15 -275,23 -180,9 -485,22 -851,37z"/>
   <path class="fil53 str3" d="M36853 14384c-33,123 -81,297 -105,384 -23,87 -23,87 -23,87 0,0 0,0 290,-9 291,-8 873,-25 1195,-41 321,-16 383,-31 421,-48 37,-17 51,-37 48,-62 -3,-26 -21,-58 -80,-95 -59,-38 -157,-81 -299,-134 -141,-53 -324,-115 -561,-175 -236,-60 -526,-118 -671,-147 -145,-29 -145,-29 -145,-29 0,0 0,0 -10,36 -9,37 -27,109 -60,233z"/>
   <path class="fil53 str3" d="M36706 14311c-35,127 -93,336 -122,440 -29,104 -29,104 -29,104 0,0 0,0 0,0 0,0 0,0 -179,10 -179,10 -536,29 -983,54 -447,24 -984,53 -1252,68 -268,14 -268,14 -268,14 0,0 0,0 4,-31 5,-32 14,-95 15,-140 2,-45 -5,-71 -19,-88 -14,-16 -35,-23 -45,-26 -11,-3 -11,-3 -11,-3 0,0 0,0 54,-34 53,-34 160,-101 272,-166 112,-64 229,-126 344,-182 115,-56 227,-106 341,-145 114,-38 230,-64 361,-85 130,-20 275,-35 443,-43 168,-7 360,-9 552,-2 193,6 386,21 483,28 97,7 97,7 97,7 0,0 0,0 -6,24 -6,23 -17,69 -52,196z"/>
   <path class="fil49" d="M39553 14575c230,83 241,91 245,97 2,4 2,7 1,11 -8,-1 -15,-1 -22,-2 -53,-5 -94,-15 -340,-100 -246,-86 -697,-248 -928,-335 -232,-86 -243,-97 -254,-106 -2,-3 -5,-5 -7,-7 11,0 25,2 51,8 31,6 78,19 326,105 248,86 698,246 928,329z"/>
   <path class="fil4" d="M41111 15130l0 42c0,110 2,245 2,312 1,67 1,67 1,67l1 1c-21,9 -47,11 -75,12 -57,2 -124,0 -192,-14 -68,-13 -136,-40 -210,-90 -73,-50 -151,-124 -193,-172 -43,-48 -51,-70 -45,-93 7,-22 28,-45 70,-68 41,-24 103,-49 167,-65 64,-16 130,-23 189,-23 60,0 112,7 154,18 41,12 72,27 100,46 11,7 21,15 31,27z"/>
   <path class="fil47" d="M38895 15674c571,0 1034,463 1034,1034 0,43 -3,86 -8,128 -42,0 -85,0 -127,0 5,-42 9,-85 9,-128 0,-501 -407,-908 -908,-908 -467,0 -852,352 -902,806 17,57 31,144 33,192 3,56 -11,59 -24,62l-2 1 0 1c-7,2 -13,3 -19,5 -5,1 -9,3 -13,5 -10,5 -18,11 -26,20 -7,8 -15,20 -25,39 -10,19 -24,47 -40,78 -17,31 -37,66 -47,83 -10,18 -10,18 -10,18 0,0 0,0 3,-38 3,-38 9,-113 16,-186 7,-73 13,-144 18,-191 2,-16 3,-30 5,-41 28,-546 479,-980 1033,-980z"/>
   <g>
    <path class="fil54 str3" d="M38895 15800c-502,0 -908,407 -908,908 0,501 406,908 908,908 501,0 908,-407 908,-908 0,-501 -407,-908 -908,-908zm603 1020c-61,7 -176,10 -357,15 -180,5 -427,13 -588,17 -161,4 -236,4 -273,4 -38,0 -38,0 -38,0 0,0 0,0 5,11 4,12 13,34 32,74 18,39 46,96 78,143 33,46 70,83 114,118 44,34 95,66 140,89 45,23 83,37 133,46 49,10 110,14 159,15 48,1 85,0 135,-11 51,-10 114,-30 173,-59 58,-29 112,-67 162,-125 49,-57 94,-133 127,-198 33,-65 54,-117 61,-138 6,-20 -2,-8 -63,-1z"/>
    <circle class="fil55" cx="38886" cy="16699" r="475"/>
    <circle class="fil18 str3" cx="38895" cy="16708" r="107"/>
    <path class="fil56" d="M38895 16010c-386,0 -699,312 -699,698 0,386 313,698 699,698 385,0 698,-312 698,-698 0,-386 -313,-698 -698,-698zm0 492c-14,0 -27,2 -39,4l-16 -427c18,-1 36,-2 55,-2 14,0 27,1 41,2l-3 427c-13,-2 -25,-4 -38,-4zm-69 12c-46,16 -84,48 -108,89l-366 -216c84,-142 222,-249 387,-290l87 417zm-122 117c-8,21 -13,43 -15,66l-416 -94c7,-47 20,-92 38,-134l393 162zm-13 104c5,43 24,82 52,112l-312 289c-104,-112 -167,-263 -167,-428 0,-9 0,-18 0,-27l427 54zm75 134c17,13 36,24 57,32l-228 362c-35,-18 -68,-40 -98,-65l269 -329zm85 40c14,3 29,5 44,5 23,0 45,-4 66,-11l190 382c-78,35 -165,54 -256,54 -83,0 -162,-16 -235,-45l191 -385zm136 -17c19,-9 36,-22 51,-36l281 319c-31,29 -66,54 -104,77l-228 -360zm74 -63c24,-32 38,-72 39,-115l424 -45c1,13 2,26 2,39 0,162 -62,310 -162,422l-303 -301zm38 -148c-4,-24 -11,-48 -22,-69l405 -136c13,34 24,69 31,106l-414 99zm-40 -96c-23,-32 -56,-56 -93,-70l64 -423c174,38 322,148 409,298l-380 195z"/>
    <circle class="fil57" cx="38892" cy="16705" r="107"/>
   </g>
   <path class="fil47" d="M31218 15674c572,0 1035,463 1035,1034 0,34 -2,67 -5,100l-2 27c-1,25 -2,50 -3,63 -1,12 -1,12 -1,12l-2 -1 -1 6c0,0 0,0 -30,-3 -30,-3 -91,-8 -173,-15 -81,-7 -184,-17 -288,-23 -105,-6 -210,-8 -354,-3 -145,5 -328,19 -469,40 -141,22 -240,52 -323,79 -82,26 -148,49 -209,74 -60,25 -116,52 -148,71 -20,11 -31,19 -38,22 -6,5 -10,8 -14,9 -5,3 -8,4 -10,1 -2,1 -4,1 -6,1 0,-9 0,-21 0,-36 1,-81 2,-245 4,-354 1,-45 2,-81 4,-111 21,-552 476,-993 1033,-993zm898 897c-66,-436 -443,-770 -898,-770 -487,0 -885,384 -907,867 46,-61 125,-104 320,-129 211,-28 558,-36 836,-29 279,8 490,30 608,53 15,2 29,5 41,8z"/>
   <g>
    <path class="fil54" d="M31218 15792c-501,0 -907,406 -907,908 0,501 406,907 907,907 502,0 908,-406 908,-907 0,-502 -406,-908 -908,-908zm604 1019c-62,8 -176,10 -357,16 -181,5 -427,13 -588,17 -161,4 -236,4 -274,4 -37,0 -37,0 -37,0 0,0 0,0 4,11 5,11 14,33 33,73 18,40 46,96 78,143 32,47 69,84 114,118 44,34 95,66 140,89 45,23 83,38 132,47 50,9 111,13 159,14 49,2 86,0 136,-10 50,-11 114,-30 172,-59 59,-29 113,-68 162,-125 50,-57 95,-134 128,-199 33,-64 54,-117 60,-137 7,-21 -1,-9 -62,-2z"/>
    <circle class="fil55" cx="31209" cy="16690" r="475"/>
    <circle class="fil18" cx="31218" cy="16700" r="107"/>
    <path class="fil56" d="M31218 16001c-385,0 -698,313 -698,699 0,385 313,698 698,698 386,0 699,-313 699,-698 0,-386 -313,-699 -699,-699zm0 493c-13,0 -26,1 -39,4l-15 -427c18,-2 36,-2 54,-2 14,0 28,0 42,1l-4 427c-12,-2 -25,-3 -38,-3zm-68 12c-46,16 -84,48 -108,88l-367 -216c85,-142 223,-248 387,-290l88 418zm-123 117c-8,20 -13,42 -14,65l-417 -94c8,-46 21,-91 38,-133l393 162zm-13 103c6,44 25,82 53,113l-312 289c-104,-113 -168,-263 -168,-428 0,-10 1,-19 1,-28l426 54zm76 134c17,14 36,25 56,32l-227 363c-35,-19 -68,-41 -98,-66l269 -329zm84 40c15,4 29,5 44,5 24,0 46,-4 67,-11l190 382c-78,35 -165,54 -257,54 -83,0 -162,-16 -234,-45l190 -385zm136 -16c19,-10 37,-22 52,-37l281 319c-32,29 -67,55 -104,77l-229 -359zm75 -64c23,-32 38,-72 39,-114l424 -45c1,13 1,25 1,39 0,162 -61,310 -161,421l-303 -301zm37 -147c-3,-25 -10,-48 -21,-69l404 -136c14,33 24,69 32,105l-415 100zm-39 -97c-23,-31 -56,-56 -93,-69l64 -424c174,38 321,148 409,298l-380 195z"/>
    <circle class="fil57" cx="31215" cy="16696" r="107"/>
   </g>
   <path class="fil46" d="M35875 15238c8,20 13,42 15,69 1,27 -2,59 -16,83 -15,25 -41,42 -85,52 -44,10 -106,12 -159,0 -53,-12 -96,-38 -123,-63 -26,-25 -35,-49 -31,-69 3,-21 21,-38 69,-59 49,-21 130,-46 185,-58 55,-12 86,-10 106,-1 21,9 31,26 39,46z"/>
   <path class="fil58" d="M35925 15350c-111,13 -328,19 -444,17 -115,-1 -128,-9 -133,-20 -6,-10 -3,-23 6,-35 9,-11 25,-20 127,-32 103,-13 291,-29 397,-34 105,-5 128,0 141,10 13,10 17,24 18,42 0,18 -2,39 -112,52z"/>
  </g>
  <rect class="fil59" x="3889" y="13535" width="156" height="4074"/>
  <rect class="fil59" x="8139" y="13552" width="156" height="4057"/>
  <polygon class="fil60" points="48792,19559 2,19559 2,17704 48792,17704 "/>
  <path class="fil58" style="mask:url(#id0)" d="M30385 15712c-109,75 -279,207 -401,285 -122,78 -196,102 -415,208 -220,105 -586,293 -1084,480 -498,188 -1128,375 -1628,488 -500,113 -870,151 -1055,170 -185,20 -185,20 -185,20 0,0 0,0 0,0 0,0 0,0 0,-434 0,-435 0,-1303 0,-1737 0,-434 0,-434 0,-434 0,0 0,0 829,141 828,141 2486,422 3291,571 805,150 757,167 648,242z"/>
  <g id="_2997085131456">
   <rect class="fil61" x="3182" y="11150" width="5986" height="2873" rx="226" ry="226"/>
   <path class="fil62" d="M6082 11809l-8 0c-8,-18 -18,-40 -29,-66 -11,-26 -29,-69 -55,-127 -26,-59 -43,-94 -51,-105 -8,-12 -15,-19 -22,-24 -6,-4 -12,-7 -17,-7 -6,-1 -8,-2 -8,-5 0,-3 6,-5 19,-5l113 0c10,0 15,2 15,5 0,3 -2,5 -7,5 -23,1 -34,10 -34,26 0,4 1,9 3,15 2,6 14,37 37,91 23,55 41,97 54,125 5,-13 16,-45 33,-96 18,-51 28,-83 31,-96 -12,-33 -21,-52 -27,-56 -6,-4 -13,-7 -23,-8 -7,-1 -11,-2 -11,-5 0,-4 6,-6 19,-6l110 0c7,0 11,1 13,1 2,1 2,2 2,5 0,2 -4,4 -13,6 -18,2 -28,12 -28,27 0,24 27,99 81,225 11,-27 22,-56 32,-85l28 -78c8,-23 13,-38 14,-44 1,-5 1,-11 1,-16 0,-20 -10,-31 -32,-31 -5,0 -7,-2 -7,-5 0,-2 1,-3 2,-4 2,0 6,-1 13,-1l63 0c18,0 29,1 32,1 2,0 4,2 4,5 0,2 -2,4 -6,4 -19,1 -34,12 -44,31 -11,19 -35,83 -72,190 -20,57 -34,93 -40,108l-8 0c-13,-37 -27,-72 -40,-103 -13,-31 -31,-77 -55,-138l-82 241z"/>
   <path id="1" class="fil62" d="M6419 11683c-1,9 -1,15 -1,21 0,24 7,44 21,61 14,17 32,25 53,25 21,0 40,-8 58,-24 5,-5 8,-7 10,-7 3,0 4,2 4,6 -6,12 -18,23 -33,31 -16,8 -34,12 -53,12 -29,0 -53,-10 -73,-30 -19,-21 -29,-47 -29,-78 0,-34 11,-62 32,-85 22,-22 45,-33 70,-33 23,0 44,8 63,26 18,18 28,38 28,62 0,4 -1,6 -2,8 -1,2 -8,3 -20,3l-128 2zm0 -13c22,1 44,1 65,1l13 -1c11,0 18,-2 24,-6 6,-3 8,-10 8,-19 0,-15 -5,-27 -15,-38 -10,-11 -21,-16 -35,-16 -12,0 -24,6 -37,18 -12,13 -20,33 -23,61z"/>
   <path id="2" class="fil62" d="M6656 11450c0,22 1,44 1,65l0 160 0 78c0,14 2,25 6,32 5,6 14,10 27,11 6,1 9,2 9,5 0,3 -2,5 -7,5 -1,0 -3,0 -4,0 -18,-2 -39,-3 -63,-3 -15,0 -27,1 -36,2 -2,1 -4,1 -5,1 -6,0 -8,-2 -8,-5 0,-3 2,-5 7,-5 15,0 26,-5 30,-13 5,-9 8,-24 8,-45l-1 -146c0,-48 -1,-76 -2,-85 -1,-9 -5,-17 -11,-23 -6,-6 -14,-10 -25,-12 -6,-1 -10,-3 -10,-5 0,-3 3,-5 9,-5 31,-2 55,-6 70,-12l5 0z"/>
   <path id="3" class="fil62" d="M6709 11699c0,-31 10,-59 30,-82 20,-24 45,-35 74,-35 18,0 36,4 53,13 17,10 26,21 26,35 0,5 -2,10 -5,14 -3,4 -7,6 -11,6 -10,0 -17,-8 -22,-23 -8,-24 -22,-35 -42,-35 -19,0 -34,8 -44,25 -11,17 -16,39 -16,66 0,32 7,59 22,79 14,20 31,30 51,30 13,0 26,-5 39,-15 12,-10 19,-23 21,-37 1,-5 3,-8 6,-8 3,0 4,2 4,5 0,17 -8,33 -23,47 -16,15 -36,23 -63,23 -28,0 -52,-11 -71,-33 -20,-21 -29,-46 -29,-75z"/>
   <path id="4" class="fil62" d="M6909 11696c0,-31 11,-57 33,-80 22,-23 49,-34 80,-34 30,0 56,10 77,30 22,21 33,47 33,77 0,32 -12,59 -34,82 -23,24 -49,36 -79,36 -30,0 -56,-11 -77,-33 -22,-21 -33,-48 -33,-78zm42 -2c0,30 7,54 21,73 13,20 30,30 50,30 19,0 35,-9 49,-28 14,-18 21,-42 21,-73 0,-27 -7,-51 -20,-72 -14,-21 -31,-31 -53,-31 -20,0 -36,9 -49,29 -13,19 -19,43 -19,72z"/>
   <path id="5" class="fil62" d="M7218 11582c2,6 3,12 3,18 -1,8 -1,16 -1,24 13,-14 25,-25 38,-32 14,-7 27,-10 40,-10 12,0 24,3 34,8 10,6 20,15 29,27 12,-12 24,-21 36,-27 13,-5 25,-8 38,-8 17,0 30,3 41,10 11,7 18,14 21,23 3,8 4,23 4,45l-1 97c0,14 2,23 5,28 2,5 8,8 17,8 6,0 9,2 9,5 0,3 -5,5 -14,5l-79 0c-8,0 -12,-2 -12,-5 0,-3 2,-4 7,-5 14,0 22,-4 26,-9 3,-6 5,-37 5,-93 0,-26 -1,-45 -3,-57 -2,-11 -7,-21 -14,-28 -7,-7 -17,-11 -27,-11 -10,0 -19,3 -28,8 -9,6 -17,15 -26,26 -7,23 -10,62 -10,119 0,20 1,32 5,38 3,5 10,7 21,7l4 0c6,0 8,2 8,5 0,3 -3,5 -10,5l-87 0c-8,0 -13,-2 -13,-5 0,-4 3,-5 8,-5 10,0 17,-2 21,-7 3,-4 6,-17 7,-37 1,-21 2,-42 2,-62 0,-36 -3,-60 -11,-72 -7,-11 -17,-17 -31,-17 -11,0 -23,5 -34,14 -12,9 -19,22 -23,37 -4,16 -6,44 -6,84 0,28 1,45 4,51 3,6 9,9 20,9 4,0 7,1 8,1 1,1 1,2 1,5 0,3 -3,4 -10,4l-79 0c-10,0 -14,-2 -14,-5 0,-3 1,-5 5,-5 9,0 15,-2 19,-5 3,-3 5,-13 7,-28 2,-16 2,-41 2,-76 0,-35 0,-56 0,-64 -1,-7 -3,-13 -8,-18 -4,-4 -12,-6 -23,-7 -5,0 -7,-1 -7,-4 0,-2 0,-3 2,-4 1,-1 9,-2 23,-3 14,-2 27,-2 38,-2 2,0 7,0 13,0z"/>
   <path id="6" class="fil62" d="M7582 11683c0,9 -1,15 -1,21 0,24 7,44 22,61 14,17 32,25 53,25 21,0 40,-8 58,-24 5,-5 8,-7 10,-7 2,0 4,2 4,6 -7,12 -18,23 -34,31 -15,8 -33,12 -52,12 -29,0 -53,-10 -73,-30 -20,-21 -29,-47 -29,-78 0,-34 10,-62 32,-85 22,-22 45,-33 70,-33 23,0 44,8 62,26 19,18 28,38 28,62 0,4 0,6 -1,8 -1,2 -8,3 -20,3l-129 2zm0 -13c23,1 44,1 65,1l14 -1c10,0 18,-2 24,-6 5,-3 8,-10 8,-19 0,-15 -5,-27 -15,-38 -10,-11 -21,-16 -35,-16 -12,0 -25,6 -37,18 -12,13 -20,33 -24,61z"/>
   <path id="7" class="fil62" d="M8040 11480c-14,0 -23,-1 -29,-1 -37,0 -64,8 -80,24 -17,15 -27,29 -29,41 -1,4 -4,6 -7,6 -2,0 -3,-1 -5,-2 1,-21 4,-48 10,-83 8,0 14,0 16,0 13,0 31,0 54,2 24,1 61,2 111,2 51,0 84,-1 100,-2 14,-1 33,-2 57,-2 2,13 4,25 4,39 2,15 3,26 4,32 0,1 0,3 0,4 0,4 -2,6 -6,6 -2,0 -4,0 -5,-2 -1,-1 -5,-6 -10,-14 -9,-14 -18,-25 -28,-32 -10,-7 -20,-12 -32,-14 -12,-2 -36,-3 -73,-4 -1,26 -2,56 -2,89 0,110 2,175 7,195 5,20 21,29 50,29 7,0 11,2 11,5 0,3 -4,5 -10,5l-158 0c-4,0 -6,-2 -6,-5 0,-3 4,-5 12,-5 13,0 24,-4 33,-11 8,-8 13,-18 14,-31 1,-13 2,-51 2,-113 0,-54 -2,-106 -5,-158z"/>
   <path id="8" class="fil62" d="M8222 11696c0,-31 11,-57 33,-80 22,-23 49,-34 80,-34 30,0 56,10 77,30 22,21 33,47 33,77 0,32 -12,59 -34,82 -23,24 -49,36 -80,36 -29,0 -55,-11 -77,-33 -21,-21 -32,-48 -32,-78zm42 -2c0,30 7,54 20,73 14,20 31,30 51,30 18,0 35,-9 49,-28 14,-18 21,-42 21,-73 0,-27 -7,-51 -21,-72 -13,-21 -31,-31 -52,-31 -20,0 -36,9 -49,29 -13,19 -19,43 -19,72z"/>
   <path class="fil62" d="M4294 13346c-9,0 -15,0 -19,0 -24,0 -41,5 -52,15 -11,10 -17,19 -19,27 -1,3 -2,4 -4,4 -2,0 -3,0 -4,-2 1,-13 3,-31 7,-53 5,0 9,-1 10,-1 9,0 21,1 35,2 16,1 40,1 72,1 34,0 55,0 65,-1 10,-1 22,-1 38,-1 1,8 2,16 3,25 0,10 1,17 2,21 0,1 0,2 0,3 0,2 -1,4 -4,4 -1,0 -2,-1 -3,-2 -1,-1 -3,-4 -7,-9 -6,-9 -12,-16 -18,-21 -6,-5 -13,-7 -21,-9 -8,-1 -23,-2 -47,-3 -1,17 -2,37 -2,58 0,72 2,114 5,127 3,13 14,19 33,19 4,0 7,1 7,3 0,3 -3,4 -7,4l-103 0c-2,0 -4,-1 -4,-4 0,-2 3,-3 8,-3 9,0 16,-2 22,-7 5,-5 8,-12 9,-20 1,-9 1,-33 1,-74 0,-35 -1,-69 -3,-103z"/>
   <path id="1" class="fil62" d="M4478 13438c14,-17 30,-25 48,-25 15,0 26,4 34,12 8,9 12,23 12,45l-1 44c0,14 0,23 0,26 0,3 2,6 5,8 3,2 6,3 8,3 3,0 5,1 5,3 0,2 -3,3 -8,3l-49 0c-2,-1 -3,-2 -3,-3 0,-2 1,-3 4,-3 8,-1 12,-4 14,-10 1,-5 2,-21 2,-49 0,-30 -3,-49 -9,-58 -6,-8 -14,-13 -24,-13 -9,0 -18,4 -25,11 -7,7 -11,18 -13,32 -1,14 -2,32 -2,52 0,14 1,23 2,27 2,4 6,7 13,8 3,1 4,2 4,4 0,1 -1,2 -4,2l-34 0c-7,0 -13,0 -19,0 -3,0 -5,-1 -5,-3 0,-1 2,-2 4,-3 6,0 9,-2 11,-4 2,-2 4,-11 5,-27 1,-16 2,-36 2,-60 0,-44 0,-72 -1,-86 0,-13 -2,-23 -6,-29 -3,-6 -7,-10 -13,-11 -3,-1 -4,-2 -4,-3 0,-1 0,-2 1,-2 1,0 4,0 11,0 11,0 22,0 35,-1l0 83c0,11 0,20 0,27z"/>
   <path id="2" class="fil62" d="M4628 13478c-1,6 -1,11 -1,14 0,16 5,29 14,40 9,11 21,16 35,16 13,0 26,-5 37,-16 4,-3 6,-4 7,-4 1,0 2,1 2,4 -4,8 -11,15 -21,20 -11,5 -22,8 -35,8 -18,0 -34,-7 -47,-20 -13,-13 -19,-30 -19,-51 0,-22 7,-40 21,-54 14,-15 29,-22 45,-22 15,0 29,5 41,17 12,11 18,25 18,40 0,3 0,4 -1,5 0,2 -5,2 -12,2l-84 1zm0 -8c14,1 28,1 42,1l9 -1c7,0 12,-1 15,-4 4,-2 6,-6 6,-12 0,-10 -4,-18 -10,-25 -6,-7 -14,-11 -23,-11 -8,0 -16,4 -24,12 -8,9 -13,22 -15,40z"/>
   <path class="fil62" d="M4890 13429c0,-31 10,-65 29,-103 19,-37 46,-68 83,-92 36,-24 77,-37 123,-37 64,0 117,23 159,69 41,46 62,98 62,157 0,62 -23,118 -69,168 -46,50 -102,74 -167,74 -62,0 -114,-21 -156,-65 -43,-43 -64,-100 -64,-171zm77 -11c0,38 6,76 17,116 12,40 30,69 55,87 25,18 51,27 80,27 45,0 82,-23 109,-67 28,-44 42,-96 42,-154 0,-57 -14,-106 -42,-149 -29,-43 -65,-64 -110,-64 -34,0 -63,11 -86,34 -22,23 -39,50 -49,82 -11,32 -16,61 -16,88z"/>
   <path id="1" class="fil62" d="M5374 13519c0,-42 13,-79 40,-111 28,-31 61,-47 100,-47 25,0 49,6 72,18 23,13 35,28 35,46 0,8 -3,14 -7,19 -4,6 -9,8 -15,8 -13,0 -23,-10 -30,-31 -11,-31 -29,-47 -56,-47 -26,0 -46,12 -60,34 -14,23 -20,53 -20,90 0,43 9,78 28,106 19,27 43,41 70,41 18,0 35,-7 51,-21 17,-14 26,-30 29,-50 1,-7 4,-10 8,-10 4,0 6,2 6,6 0,23 -10,44 -31,64 -21,20 -49,30 -85,30 -38,0 -70,-15 -96,-44 -26,-29 -39,-63 -39,-101z"/>
   <path id="2" class="fil62" d="M5702 13497c-1,12 -2,21 -2,28 0,33 10,61 29,83 20,23 44,34 72,34 28,0 54,-11 78,-33 7,-7 11,-10 13,-10 4,0 6,3 6,9 -9,17 -24,30 -45,41 -22,12 -45,17 -71,17 -39,0 -71,-14 -98,-41 -27,-28 -40,-63 -40,-105 0,-46 15,-83 44,-114 29,-30 60,-45 94,-45 31,0 59,12 84,35 25,24 38,52 38,84 0,5 -1,8 -2,11 -2,2 -11,3 -27,3l-173 3zm0 -18c30,2 59,2 87,2l19 -1c14,0 24,-3 32,-8 7,-5 11,-14 11,-26 0,-20 -7,-37 -20,-51 -14,-15 -29,-22 -47,-22 -17,0 -34,8 -50,25 -17,16 -27,44 -32,81z"/>
   <path id="3" class="fil62" d="M6098 13615c-12,16 -25,28 -41,37 -15,8 -33,12 -53,12 -23,0 -42,-6 -55,-19 -13,-12 -20,-29 -20,-49 0,-15 4,-30 12,-43 8,-13 17,-22 28,-28 10,-6 28,-13 53,-22 37,-12 59,-22 67,-31 7,-8 11,-18 11,-31 0,-21 -5,-37 -15,-48 -9,-12 -23,-17 -41,-17 -14,0 -25,3 -32,9 -8,7 -13,20 -17,40 -4,21 -14,32 -28,32 -5,0 -10,-3 -16,-8 -6,-5 -10,-13 -10,-22 0,-18 10,-33 29,-46 19,-12 46,-19 79,-19 27,0 48,4 64,11 16,8 26,17 30,26 4,10 6,29 6,56l-2 92c0,35 2,60 6,75 5,15 13,22 24,22 3,0 6,0 10,-1l6 0c6,0 8,2 8,5 0,9 -23,14 -69,14 -13,0 -22,-3 -27,-9 -4,-6 -7,-19 -7,-38zm-1 -136c-7,9 -22,20 -46,33 -25,13 -42,25 -53,36 -10,12 -15,25 -15,42 0,14 4,27 13,37 8,10 19,15 32,15 13,0 26,-4 37,-12 12,-9 21,-19 26,-32 6,-12 9,-31 9,-56 0,-19 -1,-40 -3,-63z"/>
   <path id="4" class="fil62" d="M6291 13362c6,14 9,37 10,69 15,-23 31,-40 48,-51 18,-11 36,-17 57,-17 16,0 31,3 46,9 14,6 26,16 33,30 8,15 12,39 12,74l-2 117c0,21 2,35 6,40 3,6 11,10 23,13 8,2 12,5 12,8 0,3 -2,5 -6,5 -2,0 -3,0 -5,0 -11,-2 -26,-4 -47,-4 -19,0 -39,1 -60,3 -9,0 -13,-2 -13,-6 0,-3 2,-5 7,-6 13,-2 21,-5 25,-8 4,-3 6,-7 8,-12 2,-5 3,-22 4,-50 1,-29 2,-52 2,-70 0,-48 -7,-81 -19,-97 -12,-16 -27,-24 -46,-24 -27,0 -49,15 -67,44 -18,29 -27,78 -27,146 0,31 2,51 6,59 4,9 14,14 31,16 5,0 7,2 7,6 0,3 -2,5 -7,5l-18 -1c-7,-1 -28,-1 -64,-1l-28 1c-10,0 -15,-2 -15,-6 0,-4 6,-7 17,-9 10,-2 17,-6 21,-11 3,-5 6,-23 7,-52 1,-29 2,-66 2,-110 0,-40 -3,-66 -8,-76 -6,-10 -13,-16 -23,-18 -9,-2 -14,-5 -14,-9 0,-4 4,-6 11,-6l28 0c3,0 18,0 46,-1z"/>
   <path id="5" class="fil62" d="M7011 13230c7,-7 11,-13 13,-20 2,-5 4,-8 8,-8 2,0 4,1 6,3 2,9 4,25 7,51l8 65c0,4 -3,6 -8,6 -2,0 -5,-2 -7,-7 -12,-30 -30,-55 -55,-75 -24,-20 -50,-30 -79,-30 -28,0 -49,9 -63,25 -15,17 -22,35 -22,54 0,23 8,41 24,53 15,12 47,26 96,41 35,12 62,22 80,33 17,10 32,25 44,43 12,19 18,39 18,61 0,36 -15,69 -45,98 -30,29 -67,43 -111,43 -39,0 -79,-12 -119,-37 -8,7 -13,14 -15,23 -2,8 -5,11 -9,11 -4,0 -7,-4 -8,-14 -2,-10 -6,-54 -11,-135 1,-3 4,-4 8,-4 3,0 6,2 8,8 35,89 85,134 149,134 31,0 56,-10 74,-29 18,-19 27,-41 27,-65 0,-17 -5,-33 -15,-48 -9,-14 -22,-25 -38,-34 -16,-9 -41,-19 -75,-30 -44,-14 -74,-27 -89,-40 -16,-12 -28,-26 -35,-42 -7,-16 -11,-31 -11,-46 0,-31 14,-58 42,-82 28,-24 62,-36 103,-36 15,0 31,3 48,8 16,4 34,12 52,22z"/>
   <path id="6" class="fil62" d="M7211 13393c-3,52 -5,102 -5,151 0,38 5,63 14,74 9,12 22,18 39,18 12,0 26,-5 41,-14 5,-3 8,-5 10,-5 3,0 4,2 4,5 0,5 -8,14 -25,26 -16,12 -36,18 -60,18 -24,0 -42,-8 -54,-25 -11,-16 -17,-40 -17,-73 0,-34 2,-92 6,-175 -2,0 -12,-1 -33,-2l-20 -1c-5,0 -8,-2 -8,-5 0,-3 3,-6 9,-8 9,-3 25,-13 47,-30 22,-17 35,-41 38,-72 1,-8 4,-12 8,-12 5,0 7,3 7,9 0,3 0,5 -1,7 0,9 -1,20 -1,31l1 54 75 0c13,0 20,1 20,4 0,11 -2,18 -5,20 -12,0 -42,2 -90,5z"/>
   <path id="7" class="fil62" d="M7497 13615c-11,16 -24,28 -40,37 -16,8 -33,12 -53,12 -24,0 -42,-6 -55,-19 -13,-12 -20,-29 -20,-49 0,-15 4,-30 12,-43 8,-13 17,-22 27,-28 10,-6 28,-13 54,-22 37,-12 59,-22 67,-31 7,-8 11,-18 11,-31 0,-21 -5,-37 -15,-48 -10,-12 -23,-17 -41,-17 -14,0 -25,3 -33,9 -7,7 -13,20 -17,40 -4,21 -13,32 -27,32 -5,0 -11,-3 -17,-8 -6,-5 -9,-13 -9,-22 0,-18 10,-33 29,-46 19,-12 45,-19 79,-19 27,0 48,4 64,11 15,8 25,17 29,26 4,10 7,29 7,56l-3 92c0,35 3,60 7,75 4,15 12,22 24,22 2,0 6,0 10,-1l6 0c5,0 8,2 8,5 0,9 -23,14 -69,14 -14,0 -23,-3 -27,-9 -5,-6 -7,-19 -8,-38zm0 -136c-7,9 -22,20 -47,33 -24,13 -41,25 -52,36 -10,12 -16,25 -16,42 0,14 5,27 13,37 9,10 20,15 32,15 14,0 26,-4 38,-12 12,-9 20,-19 26,-32 6,-12 9,-31 9,-56 0,-19 -1,-40 -3,-63z"/>
   <path id="8" class="fil62" d="M7695 13393c-4,52 -5,102 -5,151 0,38 4,63 14,74 9,12 22,18 39,18 12,0 26,-5 41,-14 5,-3 8,-5 10,-5 3,0 4,2 4,5 0,5 -8,14 -25,26 -16,12 -36,18 -60,18 -24,0 -42,-8 -54,-25 -11,-16 -17,-40 -17,-73 0,-34 2,-92 6,-175 -2,0 -12,-1 -33,-2l-20 -1c-6,0 -8,-2 -8,-5 0,-3 3,-6 9,-8 9,-3 25,-13 47,-30 22,-17 35,-41 38,-72 1,-8 4,-12 8,-12 5,0 7,3 7,9 0,3 0,5 -1,7 0,9 -1,20 -1,31l1 54 75 0c13,0 20,1 20,4 0,11 -2,18 -5,20 -12,0 -42,2 -90,5z"/>
   <path id="9" class="fil62" d="M7862 13497c-1,12 -1,21 -1,28 0,33 9,61 29,83 19,23 43,34 71,34 28,0 54,-11 78,-33 7,-7 11,-10 13,-10 4,0 6,3 6,9 -9,17 -24,30 -45,41 -21,12 -45,17 -71,17 -38,0 -71,-14 -98,-41 -26,-28 -39,-63 -39,-105 0,-46 14,-83 43,-114 30,-30 61,-45 94,-45 31,0 59,12 85,35 25,24 37,52 37,84 0,5 0,8 -2,11 -1,2 -10,3 -26,3l-174 3zm0 -18c30,2 59,2 88,2l18 -1c14,0 25,-3 32,-8 7,-5 11,-14 11,-26 0,-20 -6,-37 -20,-51 -13,-15 -29,-22 -47,-22 -17,0 -33,8 -50,25 -16,16 -27,44 -32,81z"/>
   <path class="fil63" d="M4090 12781l2 -178c1,-96 0,-186 -1,-269 -1,-83 -2,-140 -3,-173l-2 -54c26,0 45,1 55,1 9,0 25,-1 50,-1l-1 222 1 51 225 0 0 -133c-1,-46 -2,-76 -2,-91l-2 -49 56 1c5,0 21,-1 50,-1l-2 269 2 199 3 117c1,48 2,78 2,89l-52 -1c-6,0 -24,0 -55,1 3,-94 3,-192 1,-294l-225 0 1 181 3 113 -55 -1c-6,0 -23,0 -51,1z"/>
   <path class="fil63" d="M4839 12096c33,0 65,6 95,20 31,13 59,35 84,66 24,30 43,65 56,106 14,40 21,88 23,142 2,50 -2,99 -12,145 -10,46 -26,86 -48,119 -23,34 -51,58 -84,74 -34,17 -69,25 -107,25 -35,0 -70,-8 -103,-23 -33,-14 -62,-37 -87,-69 -24,-32 -43,-68 -54,-109 -12,-41 -18,-85 -20,-133 -2,-52 3,-102 14,-150 11,-48 29,-87 52,-118 24,-32 52,-55 85,-71 32,-16 68,-24 106,-24zm-2 105c-34,0 -62,11 -86,34 -24,23 -42,54 -53,94 -11,39 -16,82 -14,128 1,43 8,83 22,119 13,36 33,63 58,82 26,19 53,29 82,29 22,0 43,-6 62,-17 20,-11 37,-28 50,-51 14,-23 24,-51 30,-83 6,-32 9,-66 8,-101 -1,-32 -6,-64 -13,-94 -8,-30 -19,-55 -33,-77 -15,-21 -32,-37 -52,-48 -19,-10 -40,-15 -61,-15z"/>
   <path class="fil63" d="M5157 12783l3 -172 0 -214 -4 -214c0,-9 0,-34 -2,-74 27,1 53,1 77,1 18,0 41,0 71,-1 29,-1 54,-2 76,-2 28,0 55,3 80,7 25,5 47,14 66,26 18,13 35,29 49,48 14,19 26,40 36,63 9,24 17,49 22,78 6,28 9,57 10,87 2,57 -3,110 -15,162 -13,51 -33,93 -61,126 -28,34 -59,55 -94,65 -35,10 -74,14 -119,14l-125 -1c-8,0 -31,1 -70,1zm109 -106c20,1 40,2 59,2 23,0 43,-1 62,-4 19,-3 35,-8 49,-14 13,-7 27,-18 40,-34 13,-16 24,-35 32,-56 8,-21 14,-45 17,-71 4,-26 5,-52 4,-79 -2,-49 -9,-90 -23,-121 -14,-32 -31,-55 -52,-69 -21,-14 -53,-21 -96,-21 -27,0 -59,1 -95,2l3 465z"/>
   <path class="fil63" d="M5712 12781l4 -190 -1 -218 -2 -199 -3 -67c62,0 126,1 193,1l72 -1 108 0 -1 106 -35 -2c-10,-1 -23,-1 -41,-2 -17,0 -34,0 -52,0 -39,0 -65,0 -76,0 -11,0 -28,1 -51,2l1 174c34,1 68,2 103,2 24,0 64,-1 121,-3 -1,30 -1,65 -1,107 -67,-1 -105,-1 -115,-1 -29,0 -66,1 -110,3l1 185 41 1c12,0 40,0 83,-1l81 -2 54 -4c-1,39 -1,75 -1,109 -65,-1 -123,-1 -176,-1l-123 0 -74 1z"/>
   <path class="fil63" d="M6496 12766c-4,-50 -8,-90 -12,-122 50,29 95,44 135,44 16,0 30,-4 44,-10 14,-6 24,-15 30,-27 6,-12 9,-25 8,-39 0,-11 -2,-21 -6,-30 -5,-12 -13,-25 -25,-38 -15,-18 -42,-48 -80,-89 -18,-20 -31,-35 -38,-43 -15,-19 -28,-36 -36,-51 -9,-15 -15,-30 -19,-44 -4,-15 -6,-31 -7,-48 -1,-31 4,-60 16,-87 12,-27 31,-48 57,-64 25,-15 58,-22 97,-22 36,0 77,5 122,17 2,34 6,73 12,117 -40,-20 -76,-29 -109,-29 -24,0 -44,7 -59,21 -15,15 -22,32 -22,52 1,5 1,10 3,16 1,6 3,11 5,17 3,5 7,12 13,21 5,9 14,19 25,31 11,11 21,21 29,28l48 55c12,13 23,26 33,38 10,12 18,24 25,35 7,11 13,22 17,32 4,10 7,21 9,31 3,11 4,22 4,34 1,28 -2,54 -11,78 -9,25 -22,45 -40,61 -17,16 -37,26 -58,33 -22,6 -45,9 -69,9 -16,0 -35,-2 -56,-6 -21,-3 -50,-10 -85,-21z"/>
   <path class="fil63" d="M6884 12781c3,-99 5,-210 4,-332 0,-121 -2,-235 -4,-342 21,0 39,1 54,1 10,0 25,-1 47,-1 -1,59 -1,126 -1,202l0 198c0,56 1,113 2,168l55 1c51,0 85,0 101,0 16,-1 32,-2 48,-3 -1,32 -1,68 -2,108 -56,-1 -103,-1 -143,-1l-101 0 -60 1z"/>
   <path class="fil63" d="M7199 12781c23,-61 49,-136 79,-225l85 -249c27,-77 48,-144 66,-200 31,0 52,1 65,1 23,0 45,-1 67,-1l58 202 127 417 17 55 -54 -1c-12,0 -33,0 -62,1 -7,-30 -17,-69 -31,-119 -14,-50 -26,-90 -36,-121l-188 0c-25,78 -49,158 -72,240l-59 -1c-11,0 -31,0 -62,1zm221 -343l137 0 -65 -228 -26 83 -46 145z"/>
   <path class="fil63" d="M7823 12781c2,-59 4,-126 3,-199l0 -242c-1,-87 -2,-165 -4,-233 26,0 48,1 66,1 14,0 33,-1 59,-1 28,64 66,149 115,253 49,105 88,191 118,260l-4 -459c0,-10 0,-29 -1,-54 21,0 37,1 48,1 4,0 20,-1 48,-1l-2 181 0 310 2 183c-23,-1 -43,-1 -60,-1 -13,0 -34,0 -64,1 -12,-30 -21,-51 -28,-66 -10,-21 -31,-66 -64,-134 -21,-45 -48,-102 -80,-172 -24,-51 -44,-96 -61,-134 0,53 0,152 2,297 0,59 1,128 3,209 -21,-1 -37,-1 -46,-1 -8,0 -24,0 -50,1z"/>
   <path class="fil63" d="M8351 12781l4 -172 -1 -215 -3 -214c0,-9 -1,-34 -3,-73 28,0 54,1 79,1 18,0 42,-1 72,-2 30,-1 55,-1 77,-1 30,0 57,2 82,7 25,4 48,13 67,25 19,13 36,29 50,48 15,19 27,40 37,64 9,23 17,49 23,77 5,28 9,58 10,87 2,57 -3,111 -16,162 -13,51 -34,93 -62,127 -28,33 -60,55 -95,64 -36,10 -76,15 -122,15l-127 -1c-8,0 -32,0 -72,1zm111 -107c20,2 41,2 61,2 23,0 44,-1 63,-4 19,-3 36,-8 49,-14 14,-6 28,-18 41,-34 14,-16 25,-34 33,-56 8,-21 14,-44 18,-70 3,-26 5,-53 4,-80 -2,-49 -10,-89 -24,-121 -14,-32 -32,-54 -53,-68 -21,-14 -54,-21 -97,-21 -29,0 -61,0 -97,2l2 464z"/>
   <path class="fil63" d="M6293 12790c2,-134 3,-272 2,-414 -1,-141 -2,-249 -5,-324l-2 -62 63 1c3,0 22,0 57,-1 -4,205 -2,472 6,800l-55 -1c-10,0 -31,0 -66,1z"/>
   <path class="fil63" d="M3543 12806c4,-121 5,-260 4,-416 -2,-157 -4,-295 -8,-413 32,0 60,1 82,1 24,0 47,-1 69,-2 23,-1 47,-2 72,-2 32,0 60,3 85,8 26,5 48,17 68,36 20,20 35,43 46,70 10,27 16,58 17,95 1,22 0,44 -3,64 -3,20 -8,40 -14,58 -6,18 -14,34 -23,47 -9,14 -18,24 -27,32 -10,8 -20,15 -32,21 -12,5 -28,12 -47,20l30 80c10,26 28,72 56,138l45 107c2,6 9,24 21,56 -33,-1 -55,-2 -66,-2 -13,0 -36,1 -69,2l-51 -162c-8,-24 -19,-53 -31,-87l-54 -147c-5,-14 -13,-34 -22,-62 18,5 35,8 50,8 23,0 44,-6 63,-17 19,-12 33,-29 42,-53 10,-24 14,-50 13,-78 0,-17 -3,-33 -8,-47 -5,-15 -13,-27 -24,-38 -11,-10 -24,-16 -39,-19 -15,-3 -29,-4 -44,-4 -8,0 -19,0 -34,0 -14,1 -31,1 -52,1l1 249 8 456 -63 -2c-10,0 -30,1 -61,2z"/>
   <rect class="fil64" x="3465" y="12908" width="5399.07" height="62.2372"/>
   <rect class="fil64" x="5690" y="11877" width="3141.6" height="62.2372"/>
   <path class="fil65" d="M3577 11931c5,-5 24,-12 42,-21 18,-10 34,-21 49,-27 14,-7 27,-10 35,-6 9,3 14,14 19,23 6,9 12,18 28,15 16,-2 42,-15 106,-49 64,-34 165,-88 252,-134 86,-46 157,-83 218,-116 60,-33 110,-61 167,-75 58,-13 124,-12 177,-4 52,9 92,24 125,39 32,15 58,30 71,42 14,13 15,22 13,27 -3,5 -9,5 -15,-1 -6,-5 -13,-16 -19,-23 -7,-6 -15,-8 -16,-2 -2,7 3,22 2,35 -2,13 -10,24 -15,23 -4,-2 -5,-15 -8,-29 -4,-15 -10,-29 -19,-37 -8,-8 -19,-9 -22,-5 -2,5 4,15 4,22 0,6 -6,9 -11,8 -5,-1 -8,-6 -12,-9 -4,-2 -9,-3 -11,2 -3,6 -3,18 -6,26 -4,8 -11,13 -16,9 -6,-4 -10,-17 -16,-21 -5,-4 -13,1 -18,10 -5,8 -8,19 -13,24 -5,6 -11,6 -16,1 -4,-4 -6,-13 -11,-14 -4,-2 -11,4 -16,16 -5,11 -9,28 -8,46 2,19 8,41 29,57 22,17 58,28 76,34 18,6 18,6 14,9 -5,4 -14,11 -19,21 -6,9 -8,22 0,30 8,8 26,10 47,0 22,-10 46,-32 65,-44 18,-11 31,-12 37,-8 5,4 5,12 2,20 -2,7 -6,14 -1,24 5,9 19,22 49,30 29,8 74,12 117,7 42,-6 83,-21 121,-34 39,-13 76,-24 105,-27 29,-4 49,0 61,3 12,3 14,4 13,8 -1,4 -5,10 -2,21 3,10 15,25 58,35 42,9 116,12 152,14 37,2 37,2 37,2 0,0 0,0 -331,2 -332,1 -995,5 -1330,6 -336,1 -345,-1 -340,-5z"/>
   <path class="fil66" d="M4139 11716c72,-39 134,-71 187,-100 60,-33 110,-61 167,-75 58,-13 124,-12 177,-4 52,9 92,24 125,39 32,15 58,30 71,42 14,13 15,22 13,27 -3,5 -9,5 -15,-1 -6,-5 -13,-16 -19,-23 -7,-6 -15,-8 -16,-2 -2,7 3,22 2,35 -2,13 -10,24 -15,23 -4,-2 -5,-15 -8,-29 -4,-15 -10,-29 -19,-37 -8,-8 -19,-9 -22,-5 -2,5 4,15 4,22 0,6 -6,9 -11,8 -5,-1 -8,-6 -12,-9 -4,-2 -9,-3 -11,2 -3,6 -3,18 -6,26 -4,8 -11,13 -16,9 -6,-4 -10,-17 -16,-21 -5,-4 -13,1 -18,10 -5,8 -8,19 -13,24 -5,6 -11,6 -16,1 -4,-4 -6,-13 -11,-14 -4,-2 -11,4 -16,16 -5,11 -9,28 -8,46 2,19 8,41 29,57 22,17 58,28 76,34l6 2c-19,15 -45,34 -74,47 -43,21 -95,31 -146,31 -51,1 -102,-9 -157,-33 -56,-25 -116,-64 -159,-97 -23,-18 -41,-35 -53,-51z"/>
   <path class="fil37" d="M4196 11686c48,-26 91,-49 130,-70 60,-33 110,-61 167,-75 58,-13 124,-12 177,-4 52,9 92,24 125,39 32,15 58,30 71,42 14,13 15,22 13,27 -3,5 -9,5 -15,-1 -6,-5 -13,-16 -19,-23 -7,-6 -15,-8 -16,-2 -2,7 3,22 2,35 -2,13 -10,24 -15,23 -4,-2 -5,-15 -8,-29 -4,-15 -10,-29 -19,-37 -8,-8 -19,-9 -22,-5 -2,5 4,15 4,22 0,6 -6,9 -11,8 -5,-1 -8,-6 -12,-9 -4,-2 -9,-3 -11,2 -3,6 -3,18 -6,26 -4,8 -11,13 -16,9 -6,-4 -10,-17 -16,-21 -5,-4 -13,1 -18,10 -5,8 -8,19 -13,24 -5,6 -11,6 -16,1 -4,-4 -6,-13 -11,-14 -1,-1 -1,-1 -2,0 -2,-2 -3,-4 -5,-6 -16,-18 -33,-33 -52,-38 -19,-6 -39,-2 -49,3 -10,6 -10,13 -9,17 0,4 0,4 -12,0 -11,-3 -34,-10 -46,-10 -12,0 -12,7 -12,10 0,4 0,4 -10,5 -10,2 -30,4 -41,10 -11,7 -14,16 -7,24 7,7 25,13 53,14 29,1 70,-3 90,-4 20,-2 20,-2 23,11 2,12 7,38 9,50 3,13 3,13 -3,12 -6,-2 -18,-4 -33,-8 -16,-5 -35,-10 -46,-9 -11,1 -14,9 -15,12 -1,4 -1,4 -5,1 -3,-4 -10,-11 -21,-15 -10,-4 -25,-5 -35,-3 -10,2 -16,7 -20,9 -4,2 -5,0 -12,-7 -6,-6 -17,-17 -35,-26 -17,-9 -42,-16 -77,-21 -22,-4 -48,-7 -73,-9z"/>
   <path class="fil58" d="M3417 14140c-207,0 -376,-169 -376,-376l0 -2380c0,-206 169,-375 376,-375l5500 0c207,0 376,169 376,375l0 2380c0,207 -169,376 -376,376l-5500 0zm0 -2889c-73,0 -133,60 -133,133l0 2380c0,73 60,133 133,133l5500 0c73,0 133,-60 133,-133l0 -2380c0,-73 -60,-133 -133,-133l-5500 0z"/>
   <path class="fil64" d="M3417 11170l5500 0c117,0 214,97 214,214l0 2380c0,118 -97,214 -214,214l-5500 0c-118,0 -214,-96 -214,-214l0 -2380c0,-117 96,-214 214,-214zm0 2889l5500 0c162,0 295,-133 295,-295l0 -2380c0,-162 -133,-295 -295,-295l-5500 0c-162,0 -295,133 -295,295l0 2380c0,162 133,295 295,295z"/>
  </g>
  <g id="_2997083580672">
   <path class="fil67" d="M47366 14530c-110,-393 -475,-576 -806,-577 -133,-342 -574,-528 -932,-391 -415,160 -528,624 -422,950 0,0 0,0 0,0 -125,55 -236,150 -318,294 -187,325 54,759 416,839 331,73 603,-147 706,-395 151,166 366,274 641,282 493,15 847,-533 715,-1002z"/>
   <path class="fil68" d="M46517 15127c-309,29 -488,-132 -488,-132 0,0 -212,229 -634,261 -391,29 -548,-219 -569,-256 -29,283 185,580 478,645 331,73 603,-147 706,-395 151,166 366,274 641,282 493,15 847,-533 715,-1002 -110,-393 -475,-576 -806,-577 596,430 266,1144 -43,1174z"/>
   <path class="fil69" d="M45895 17614c0,0 59,-2093 42,-2165 -17,-72 -230,-402 -230,-402 0,0 273,299 298,175 26,-123 77,-1061 77,-1061 0,0 17,948 85,938 69,-11 350,-382 350,-382 0,0 -324,495 -324,681 0,185 26,2216 26,2216l-324 0z"/>
  </g>
  <path class="fil70" d="M43657 15349c0,0 -396,285 -660,-98 0,0 -440,109 -538,-296 0,0 -528,-44 -506,-450 0,0 -637,-307 -219,-887 0,0 -407,-362 54,-768 0,0 -351,-526 264,-679 0,0 55,-625 670,-482 0,0 165,-527 758,-329 0,0 533,-396 835,131 0,0 582,-76 692,406 0,0 561,77 506,636 0,0 430,394 155,865 0,0 274,785 -320,855 0,0 19,348 -333,501 0,0 -63,420 -436,354 0,0 -286,318 -495,143l-427 98z"/>
  <path class="fil71" d="M45513 12533c55,-559 -506,-636 -506,-636 279,1205 -402,2747 -1461,2884 -1058,138 -1593,-276 -1593,-276 -22,406 506,450 506,450 98,405 538,296 538,296 264,383 660,98 660,98l427 -98c209,175 495,-143 495,-143 373,66 436,-354 436,-354 352,-153 333,-501 333,-501 594,-70 320,-855 320,-855 275,-471 -155,-865 -155,-865z"/>
  <path class="fil69" d="M42997 14385c0,0 615,64 659,383 44,318 -66,2887 -66,2887l659 0c0,0 -285,-2888 -187,-3097 99,-209 418,-327 418,-327 0,0 -363,-9 -483,100 -121,109 -275,136 -440,109 -165,-27 -329,-73 -560,-55z"/>
 </g>
</svg>
