<?xml version="1.0" encoding="UTF-8"?>
<!DOCTYPE svg PUBLIC "-//W3C//DTD SVG 1.1//EN" "http://www.w3.org/Graphics/SVG/1.1/DTD/svg11.dtd">
<!-- Creator: CorelDRAW X8 -->
<svg xmlns="http://www.w3.org/2000/svg" xml:space="preserve" width="4879px" height="1956px" version="1.1" style="shape-rendering:geometricPrecision; text-rendering:geometricPrecision; image-rendering:optimizeQuality; fill-rule:evenodd; clip-rule:evenodd"
viewBox="0 0 48792 19559"
 xmlns:xlink="http://www.w3.org/1999/xlink">
 <defs>
  <style type="text/css">
   <![CDATA[
    .str0 {stroke:#373435;stroke-width:41.6561}
    .str2 {stroke:#313131;stroke-width:41.6561}
    .str1 {stroke:#424242;stroke-width:20.8339}
    .str3 {stroke:black;stroke-width:8.9997}
    .str4 {stroke:#B5EEFF;stroke-width:8.9997}
    .str5 {stroke:#E6E6E6;stroke-width:8.9997}
    .fil16 {fill:none}
    .fil73 {fill:#DCDDDF}
    .fil12 {fill:#373435}
    .fil19 {fill:#EFB783}
    .fil34 {fill:#0B3859}
    .fil61 {fill:#0C5B24}
    .fil46 {fill:#121710}
    .fil22 {fill:#1369B6}
    .fil53 {fill:#1B1B1C}
    .fil30 {fill:#1C1C1C}
    .fil26 {fill:#20547B}
    .fil70 {fill:#295F49}
    .fil71 {fill:#2A6149}
    .fil72 {fill:#2C5C4A}
    .fil6 {fill:#313131}
    .fil29 {fill:#33322E}
    .fil35 {fill:#333333}
    .fil25 {fill:#362D24}
    .fil27 {fill:#3689BB}
    .fil21 {fill:#3890D0}
    .fil9 {fill:#424242}
    .fil5 {fill:#464646}
    .fil13 {fill:#4A4A4A}
    .fil39 {fill:#4D4D4D}
    .fil38 {fill:#525252}
    .fil14 {fill:#5C707B}
    .fil15 {fill:#71848B}
    .fil7 {fill:#757575}
    .fil54 {fill:#767B7F}
    .fil31 {fill:#797977}
    .fil48 {fill:#7A838A}
    .fil75 {fill:#805252}
    .fil40 {fill:gray}
    .fil74 {fill:#85946D}
    .fil60 {fill:#999999}
    .fil55 {fill:#99A3AC}
    .fil49 {fill:#9CADB7}
    .fil56 {fill:#AAB5C5}
    .fil52 {fill:#ADBACA}
    .fil76 {fill:#B1BA9F}
    .fil62 {fill:#B4272D}
    .fil37 {fill:#B5EEFF}
    .fil23 {fill:#B96F48}
    .fil51 {fill:#BACADA}
    .fil65 {fill:#BE9F71}
    .fil68 {fill:#BEA172}
    .fil67 {fill:#BEA175}
    .fil45 {fill:#C1C2C9}
    .fil17 {fill:#C1CFCF}
    .fil69 {fill:#C2A37A}
    .fil32 {fill:#C77066}
    .fil3 {fill:#C8382F}
    .fil10 {fill:#CACACA}
    .fil36 {fill:#CCCCCC}
    .fil44 {fill:#CDCED3}
    .fil59 {fill:#CFB175}
    .fil50 {fill:#D2D7DD}
    .fil4 {fill:#DF7E77}
    .fil2 {fill:#DFE9EB}
    .fil33 {fill:#E09474}
    .fil43 {fill:#E0E7ED}
    .fil1 {fill:#E6E6E6}
    .fil41 {fill:#E6EEF1}
    .fil20 {fill:#EC9956}
    .fil28 {fill:#ECB31E}
    .fil24 {fill:#EDD89F}
    .fil11 {fill:#EFEFEF}
    .fil42 {fill:#F1FAFF}
    .fil0 {fill:#F2F2F2}
    .fil47 {fill:#F2FBFF}
    .fil64 {fill:#FAFAFA}
    .fil63 {fill:#FDFDFD}
    .fil66 {fill:#FEFEFE}
    .fil8 {fill:white}
    .fil57 {fill:white}
    .fil18 {fill:#464646;fill-rule:nonzero}
    .fil58 {fill:#C2B295}
   ]]>
  </style>
   <mask id="id0">
  <linearGradient id="id1" gradientUnits="userSpaceOnUse" x1="25617.3" y1="16060.5" x2="30445.5" y2="16060.5">
   <stop offset="0" style="stop-opacity:0; stop-color:white"/>
   <stop offset="1" style="stop-opacity:1; stop-color:white"/>
  </linearGradient>
    <rect style="fill:url(#id1)" x="25607" y="14748" width="4849" height="2625"/>
   </mask>
 </defs>
 <g id="Слой_x0020_1">
  <metadata id="CorelCorpID_0Corel-Layer"/>
  <rect class="fil0" x="2" width="48790" height="19559"/>
  <path class="fil1" d="M2 19559l0 -12315c536,-98 699,-718 1450,-396 773,83 398,68 1185,-310 0,-4 372,-515 498,-576 402,-196 237,-244 878,-461 0,-37 266,-67 -173,-143 133,-227 1345,-422 1718,-223 1079,573 499,166 1331,1035 469,-103 603,752 886,752 679,0 851,-385 1755,-129 766,218 679,-27 1530,635 544,423 945,1005 1029,1689 28,231 1758,-271 1980,71 295,457 786,-607 1290,681 41,8 655,473 1124,12 203,-198 417,-14 478,-254 120,-472 321,-204 83,-778 -235,-571 1838,-589 3225,-645 305,105 641,255 1130,616 161,118 936,697 1018,695 1380,-29 384,-1155 2250,609 704,666 1323,244 2036,513 251,95 1058,-651 1901,-625 126,4 -14,-375 1198,-312 88,4 79,-71 260,-130 2155,311 1014,-263 2536,-249 905,8 808,-2002 1093,-1250 148,389 1039,-745 2251,318 523,458 510,-288 1422,927 391,521 2130,690 2591,448 181,-95 869,-183 1137,201 181,259 979,1047 1180,395 270,-873 790,-270 1192,-1051 319,-618 1060,158 1576,-2347 124,-603 1434,1765 1414,1044 -11,-440 -69,415 657,96 360,-158 921,-1024 942,-1455 40,-800 702,46 378,1476 -164,722 82,1067 359,1429l0 10007 -48788 0z"/>
  <path class="fil1" d="M8846 6753c-67,-13 -28,-3 -84,-22 -57,74 -118,94 -181,145 -334,272 27,430 -258,571 1,-117 26,-211 -39,-291 -147,30 -87,153 -81,267 -168,44 -150,112 -341,21 -14,-90 -1,-84 16,-160 -127,3 -77,26 -152,95 -67,60 -481,144 -579,160l0 -258 -146 66c42,209 -5,243 -63,427 398,-14 126,-266 946,-229 -109,128 -186,132 -328,151 -162,22 -244,51 -281,189 -40,148 -58,216 -185,282 -347,181 -181,80 -234,182l-166 32c-67,-103 -100,-85 -65,-214 -97,11 -350,14 -396,69l200 100 -210 165c-2,-4 -7,7 -10,12 319,163 400,243 203,579 -46,77 -62,121 -164,148 -169,44 -345,88 -519,129 -196,47 -376,21 -587,12 -433,-18 -814,-14 -1247,-2 -198,5 -427,29 -622,17 -514,-32 -337,-63 -470,-165 -84,113 -90,133 45,351 39,63 79,69 159,108 399,194 331,34 460,342 128,305 113,177 199,334 197,3 389,-22 585,-27 185,-5 325,60 497,76 760,70 823,-117 1009,-115l48 61c-81,300 -647,32 -1010,189 102,12 190,18 275,60 279,137 243,55 585,43 122,-5 192,60 296,4 16,-89 -129,-191 18,-233 7,-2 12,-3 20,-5 197,-39 208,87 386,-116 129,-145 124,-235 142,-465 298,-1 651,-49 791,115 52,61 250,408 394,501l135 -93c-38,-74 -184,-295 -245,-357 -114,-115 -89,-322 -76,-512 75,-77 172,-152 251,-218 -18,-92 -31,-119 -82,-182 -78,19 -102,41 -161,78 -107,-144 0,-191 20,-283 27,-127 -13,-198 81,-318 76,-97 148,-64 208,-193 71,-151 27,-136 -19,-273l242 -193c94,-42 260,-39 378,-53l23 -136 -192 3c175,-310 443,-282 632,-362 -86,-31 -159,-38 -249,-63 -133,-37 -97,-64 -98,-198 103,-53 340,-187 397,-275l-101 -73z"/>
  <path class="fil1" d="M14271 11095c139,-56 246,-168 326,-274 -538,52 -237,1 -572,-7 -393,-9 -726,12 -1110,81 -293,52 -268,171 -420,0 89,-118 164,-227 207,-434 -291,-75 -287,-4 -541,32 117,-425 153,-90 107,-780l-188 -12 -35 -256c-290,90 -169,208 -161,488 -87,18 -291,61 -378,91 -167,57 -422,269 -419,492 1,105 52,273 68,389 -333,97 -629,322 -830,211l83 -156c-118,34 -223,83 -319,140 -309,184 -304,-122 -1089,156 158,115 563,213 784,274 236,65 716,60 984,67 285,8 172,72 327,202 81,68 202,154 268,245 114,157 43,214 263,272 131,35 286,61 413,99 22,177 7,317 149,376l115 -1354 835 -1 -29 171 371 -2c26,102 0,84 104,113 310,86 188,-130 346,-207 85,-41 167,-68 230,-126l-199 -2c22,-125 31,-139 115,-194 53,-35 127,-66 195,-94z"/>
  <g id="_2996860947120">
   <path class="fil2" d="M22407 15887c49,2 131,5 187,3 57,-2 88,-7 106,-15 18,-7 23,-17 15,-33 -9,-16 -29,-40 -58,-70 -29,-31 -67,-68 -105,-100 -38,-32 -77,-57 -116,-81 -40,-25 -79,-48 -116,-69 -37,-20 -72,-38 -106,-53 -35,-15 -69,-27 -94,-35 -24,-8 -39,-11 -57,-13 -18,-1 -40,-1 -68,-1 -28,0 -61,1 -85,5 -24,3 -39,10 -50,18 -11,8 -18,18 -19,35 0,17 5,41 23,71 18,30 48,65 83,100 34,34 73,68 117,102 44,34 93,69 138,91 45,22 86,31 114,37 28,5 43,6 91,8z"/>
   <rect class="fil3" x="16149" y="13496" width="526" height="561" rx="62" ry="59"/>
   <polygon class="fil4" points="16220,13496 16603,13496 16603,13784 16220,13784 "/>
   <path class="fil5" d="M11426 15219c-16,-13 -21,-40 -24,-70 -2,-29 -2,-60 3,-88 5,-28 15,-53 28,-73 13,-19 29,-33 48,-43 19,-10 41,-15 190,-17 149,-2 425,-1 569,-1 144,-1 156,-4 256,-43 100,-39 289,-114 521,-205 233,-92 509,-198 781,-294 272,-96 540,-180 775,-242 234,-61 434,-98 625,-128 190,-29 369,-50 543,-62 95,-7 187,-11 283,-13 -1,-2 -1,-4 -1,-6l0 0c0,-36 30,-66 67,-66l617 0c36,0 66,30 66,66l0 0c0,8 -1,16 -4,23 30,2 60,5 90,8 194,20 375,52 551,94 176,42 346,92 519,159 173,67 349,151 528,250 178,100 359,216 522,322 162,106 307,202 379,251 73,48 73,48 73,48 0,0 0,0 0,0 0,0 0,0 347,38 348,39 1043,115 1481,173 437,57 617,95 707,114 89,18 89,18 89,18 0,0 0,0 -30,0 -31,0 -92,0 -124,10 -33,10 -37,30 -19,71 19,41 59,103 109,157 50,54 110,100 165,134 54,33 104,56 196,66 93,10 228,9 296,8 68,0 68,0 68,0 0,0 0,0 0,0 0,0 0,0 10,19 10,20 31,59 39,120 8,61 3,145 0,186 -3,42 -3,42 -3,42 0,0 0,0 7,0 6,0 19,0 26,0 7,0 7,0 7,0 0,0 0,0 0,49 0,49 0,146 0,195 0,49 0,49 0,49 0,0 0,0 0,0 0,0 0,0 -6,-1 -6,-2 -18,-4 -24,-6 -6,-1 -6,-1 -6,-1 0,0 0,0 0,0 0,0 0,0 0,35 0,35 0,106 -4,161 -3,55 -11,96 -24,131 -13,35 -32,65 -54,89 -22,24 -48,42 -82,58 -34,16 -75,29 -187,42 -111,13 -292,26 -382,32 -91,7 -91,7 -91,7 0,0 0,0 -13,-7 -14,-6 -42,-19 -55,-26 -14,-6 -14,-6 -14,-6 0,0 0,0 -10,0 -11,1 -32,2 -42,3 -10,1 -10,1 -284,10 -275,9 -823,27 -1097,36 -274,9 -274,9 -274,9 0,0 0,0 -2,7 -3,8 -8,22 -11,29 -2,7 -2,7 -2,7 0,0 0,0 -935,-10 -934,-11 -2802,-31 -3774,-44 -971,-12 -1045,-16 -1082,-18 -37,-2 -37,-2 -280,-6 -242,-5 -726,-14 -1059,-27 -332,-13 -513,-30 -747,-56 -233,-25 -518,-59 -685,-82 -167,-24 -217,-37 -257,-54 -39,-18 -69,-40 -89,-63 -19,-23 -28,-46 -28,-180 0,-134 9,-379 18,-514 9,-134 18,-159 56,-205 39,-45 107,-112 209,-203 102,-91 239,-207 314,-281 74,-73 87,-104 87,-130 -1,-25 -15,-45 -47,-59 -32,-14 -81,-23 -141,-20 -60,3 -131,19 -179,27 -49,9 -77,10 -93,-3z"/>
   <path class="fil6" d="M22281 15858c21,5 44,9 71,12l13 1 0 1 -688 214 0 -39 604 -189z"/>
   <path class="fil6" d="M11325 15835c10,-10 21,-21 33,-33l1180 198 356 180 -20 35 -367 -184 -1182 -196z"/>
   <path class="fil7" d="M21879 15454c-11,12 -9,30 3,59 19,41 59,103 109,157 26,29 56,55 85,78l8 8c0,0 0,0 -93,-2 -93,-2 -278,-7 -370,-9 -93,-2 -93,-2 -93,-2 0,0 0,0 -27,-13 -26,-13 -79,-39 -133,-56 -55,-18 -111,-28 -179,-35 -69,-7 -150,-12 -223,-6 -72,5 -137,20 -186,33 -49,13 -83,25 -99,31 -17,5 -17,5 -17,5 0,0 0,0 -171,-4 -172,-4 -515,-12 -686,-16 -172,-4 -172,-4 -172,-4 0,0 0,0 0,0 0,0 0,0 -11,-35 -12,-35 -35,-106 -61,-171 -27,-66 -57,-127 -94,-183 -36,-56 -79,-106 -100,-131 -22,-26 -22,-26 -22,-26 0,0 0,0 66,4 66,4 198,11 345,20 147,9 310,19 480,35 170,15 347,36 517,58 170,22 335,45 488,70 153,24 295,51 412,78 94,21 172,43 224,57z"/>
   <path class="fil3" d="M11515 15153c56,-7 139,-12 201,-13 62,0 102,3 137,14 36,10 66,27 88,48 22,21 36,46 43,60 7,14 7,18 2,28 -6,10 -18,25 -54,57 -37,32 -98,80 -164,134 -66,53 -136,112 -194,159 -59,46 -106,82 -141,108 -35,27 -59,45 -70,54 -12,9 -12,9 -12,9 0,0 0,0 6,-97 6,-98 17,-293 26,-399 8,-106 13,-123 30,-136 17,-12 46,-20 102,-26z"/>
   <path class="fil8" d="M11980 15253c1,3 3,6 4,9 7,14 7,18 2,28 -5,8 -15,21 -41,45l-564 0 2 -20c2,-26 4,-46 5,-62l592 0zm-337 330c-24,20 -48,39 -69,57 -12,8 -22,17 -33,25l-181 0 5 -82 278 0z"/>
   <circle class="fil9" cx="13642" cy="16725" r="891"/>
   <circle class="fil10 str0" cx="13642" cy="16725" r="625"/>
   <path class="fil11" d="M16726 15119c14,59 40,165 64,296 24,132 46,290 59,469 12,180 15,382 13,513 -1,27 -1,52 -2,74l-1701 0 3 24 1697 -3c-2,37 -4,66 -7,92l-1690 0 0 67 1681 0c-10,61 -22,124 -29,156 -6,32 -6,32 -6,32 0,0 0,0 0,0 0,0 0,0 -297,0 -297,0 -891,0 -1188,0 -297,0 -297,0 -297,0 0,0 0,0 0,0 0,0 0,0 -28,-70 -28,-70 -83,-209 -188,-408 -105,-199 -259,-459 -402,-681 -143,-223 -276,-409 -351,-514 -75,-105 -92,-128 -86,-140 5,-12 32,-12 487,-5 455,6 1338,19 1785,23 446,3 457,-4 462,0 6,3 8,16 21,75zm77 63c16,75 44,200 65,338 20,138 35,289 42,408 7,119 7,206 5,313 -1,72 -3,153 -8,230l2663 0c2,-20 3,-40 4,-61 8,-176 6,-385 -3,-542 -8,-157 -22,-261 -53,-352 -31,-91 -78,-170 -126,-232 -49,-63 -100,-109 -125,-133 -26,-23 -26,-23 -26,-23 0,0 0,0 0,0 0,0 0,0 0,0 0,0 0,0 -411,-12 -410,-12 -1232,-35 -1643,-47 -411,-12 -411,-12 -411,-12 0,0 0,0 3,13 3,12 8,37 24,112zm103 1310c-2,29 -4,58 -7,85l0 7 2662 0c3,-30 6,-63 8,-97l-2663 5zm-15 159c-9,67 -19,118 -25,148 -8,40 -8,40 -8,40 0,0 0,0 0,0 0,0 0,0 445,4 445,5 1334,14 1779,18 444,5 444,5 444,5 0,0 0,0 0,0 0,0 0,0 10,-70 5,-34 12,-84 19,-145l-2664 0z"/>
   <rect class="fil10" x="14343" y="15207" width="586" height="131"/>
   <rect class="fil12" x="14423" y="15251" width="425.773" height="42.9671"/>
   <rect class="fil10" x="16976" y="15254" width="586" height="131"/>
   <rect class="fil12" x="17057" y="15298" width="425.773" height="42.9671"/>
   <polygon class="fil13" points="13501,17239 13796,17239 13654,16852 "/>
   <polygon class="fil13" points="13156,16891 13315,17140 13564,16810 "/>
   <polygon class="fil13" points="14137,16891 13978,17140 13729,16811 "/>
   <polygon class="fil13" points="14091,16427 14193,16704 13780,16703 "/>
   <polygon class="fil13" points="13198,16425 13096,16702 13509,16701 "/>
   <polygon class="fil13" points="13984,16303 13714,16185 13690,16597 "/>
   <polygon class="fil13" points="13291,16303 13561,16185 13585,16597 "/>
   <path class="fil14" d="M14099 14975c159,8 450,8 595,8 145,0 145,0 145,0 0,0 0,0 0,0 0,0 0,0 -21,-128 -22,-128 -65,-385 -86,-513 -22,-128 -22,-128 -22,-128 0,0 0,0 0,0 0,0 0,0 -75,21 -75,20 -224,62 -337,98 -113,36 -188,66 -251,99 -62,33 -112,69 -148,109 -37,40 -60,83 -71,128 -11,46 -10,94 2,139 12,45 34,87 59,115 24,29 52,45 210,52z"/>
   <path class="fil15" d="M14565 14983c49,0 93,0 129,0 145,0 145,0 145,0 0,0 0,0 0,0 0,0 0,0 -21,-128 -22,-128 -65,-385 -86,-513 -22,-128 -22,-128 -22,-128 0,0 0,0 0,0 0,0 0,0 -75,21 -75,20 -224,62 -337,98 -70,22 -126,42 -173,62l440 588z"/>
   <path class="fil14" d="M14826 14381c23,131 65,367 87,484 21,118 22,118 23,118 1,0 1,0 1,0 0,0 0,0 255,3 255,4 765,10 1021,14 255,3 255,3 255,3 0,0 0,0 0,0 0,0 0,0 -14,-164 -15,-163 -43,-490 -58,-653 -14,-164 -14,-164 -14,-164 0,0 0,0 0,0 0,0 0,0 -81,4 -82,3 -245,9 -416,20 -172,11 -353,27 -517,48 -164,21 -312,47 -405,65 -93,18 -132,29 -151,34 -20,5 -20,5 -20,5 0,0 0,0 3,13 2,13 8,39 31,170z"/>
   <path class="fil15" d="M14826 14381c23,131 65,367 87,484 21,118 22,118 23,118 1,0 1,0 1,0 0,0 0,0 255,3l321 5 -640 -813c-32,7 -50,12 -61,15 -20,5 -20,5 -20,5 0,0 0,0 3,13 2,13 8,39 31,170z"/>
   <path class="fil14" d="M16727 14370c61,156 155,394 202,514 47,119 47,119 47,119 0,0 0,0 0,0 0,0 0,0 0,0 0,0 0,0 290,4 290,4 871,11 1161,15 291,4 291,4 291,4 0,0 0,0 0,0 0,0 0,0 0,-36 0,-37 0,-110 -1,-148 -1,-38 -2,-42 -2,-44 -1,-2 -1,-2 -1,-2 0,0 0,0 -33,-30 -34,-29 -100,-87 -202,-154 -102,-66 -240,-140 -399,-211 -158,-71 -336,-139 -487,-184 -150,-45 -272,-67 -395,-87 -123,-19 -247,-36 -345,-46 -99,-11 -172,-15 -208,-17 -37,-2 -37,-2 -22,35 14,38 43,112 104,268z"/>
   <path class="fil15" d="M18718 14942c0,-35 0,-75 -1,-100 -1,-38 -2,-42 -2,-44 -1,-2 -1,-2 -1,-2 0,0 0,0 -33,-30 -34,-29 -100,-87 -202,-154 -62,-40 -137,-83 -221,-126l460 456z"/>
   <path class="fil15" d="M16727 14370l35 90 536 547 1023 14 -796 -824c-120,-32 -224,-50 -327,-67 -123,-19 -247,-36 -345,-46 -99,-11 -172,-15 -208,-17 -37,-2 -37,-2 -22,35 14,38 43,112 104,268z"/>
   <path class="fil7" d="M13493 15005l-2064 -10c-11,18 -20,41 -24,66 -5,25 -5,52 -4,78 57,-9 124,-19 180,-26 89,-10 150,-11 201,-6 51,5 91,17 122,30 30,14 51,30 69,48 17,18 31,39 41,60 9,21 13,42 12,57 -1,16 -6,26 -8,31l-3 6 92 21c93,22 278,65 424,87 147,23 255,26 531,30 276,5 720,11 942,15l222 3 -52 -82 -209 -325 -52 -81 -420 -2z"/>
   <path class="fil12" d="M13642 15757c-535,0 -969,433 -969,968 0,106 17,207 48,302 27,2 55,4 84,5 -35,-95 -54,-199 -54,-307 0,-492 399,-890 891,-890 491,0 890,398 890,890 0,126 -26,245 -73,354 23,0 50,1 84,1 43,-110 67,-229 67,-355 0,-535 -433,-968 -968,-968z"/>
   <circle class="fil9" cx="21040" cy="16733" r="891"/>
   <circle class="fil10 str0" cx="21040" cy="16733" r="625"/>
   <polygon class="fil13" points="20899,17246 21194,17247 21052,16859 "/>
   <polygon class="fil13" points="20554,16899 20713,17148 20962,16818 "/>
   <polygon class="fil13" points="21536,16899 21376,17148 21127,16818 "/>
   <polygon class="fil13" points="21489,16435 21591,16712 21178,16711 "/>
   <polygon class="fil13" points="20596,16433 20494,16710 20907,16709 "/>
   <polygon class="fil13" points="21383,16311 21112,16193 21088,16605 "/>
   <polygon class="fil13" points="20689,16311 20960,16193 20984,16605 "/>
   <path class="fil12" d="M21040 15764c-535,0 -969,434 -969,969 0,76 9,149 25,219 3,15 6,30 9,42 6,21 11,37 17,52 5,14 11,27 16,37 5,9 10,16 14,22l1 -1 75 -2c-5,-15 -14,-40 -24,-68 -11,-32 -23,-69 -32,-106 -5,-22 -10,-43 -13,-61 -6,-44 -10,-88 -10,-134 0,-492 399,-890 891,-890 492,0 890,398 890,890 0,126 -26,245 -73,353 23,1 51,2 84,2 44,-110 67,-230 67,-355 0,-535 -433,-969 -968,-969z"/>
   <circle class="fil16 str1" cx="13643" cy="16708" r="80"/>
   <circle class="fil16 str1" cx="21049" cy="16724" r="80"/>
   <path class="fil17" d="M21967 15514c-6,15 16,51 41,85 24,33 52,64 85,94 34,30 74,59 111,81 37,22 71,36 109,46 38,10 79,15 99,17 21,3 21,3 21,3 0,0 0,0 -66,-54 -65,-54 -196,-162 -278,-220 -83,-58 -116,-66 -122,-52z"/>
   <ellipse class="fil2" cx="22559" cy="16687" rx="88" ry="138"/>
   <path class="fil6" d="M16706 14796c-39,-163 -113,-477 -155,-635 -16,-58 -27,-95 -35,-119 -4,0 -8,-1 -12,-2 -4,-1 -8,-3 -12,-5 4,24 12,63 25,127 34,164 106,492 142,656 36,164 36,164 36,164 0,0 0,0 9,1 9,0 27,2 36,2 9,1 9,1 9,1 0,0 0,0 -1,-7 -1,-6 -4,-19 -42,-183z"/>
   <path class="fil16 str2" d="M16637 14981c-791,-11 -1660,-15 -2121,-19 -461,-5 -514,-10 -553,-20 -38,-10 -61,-24 -80,-41 -19,-17 -33,-36 -45,-63 -11,-27 -18,-61 -17,-98 1,-37 12,-77 30,-116 18,-38 44,-74 79,-107 34,-33 77,-61 134,-89 58,-27 129,-53 240,-88 111,-35 260,-80 415,-119 155,-39 315,-72 470,-97 154,-25 302,-41 478,-55 176,-14 379,-27 537,-31 158,-4 272,1 412,14 140,12 306,31 466,57 159,26 312,59 449,96 137,37 260,79 392,132 132,52 274,116 401,186 127,70 239,145 307,196 67,51 91,77 119,110 28,33 60,73 81,108 21,34 30,63 33,77 2,15 -2,15 -361,6 -359,-10 -1074,-28 -1866,-39z"/>
   <path class="fil18" d="M15331 15594c42,0 82,10 121,28 37,19 68,46 90,81 22,35 33,77 33,128 0,50 -11,93 -33,128 -22,36 -53,63 -90,81 -39,19 -79,28 -121,28l-161 0 0 283 -160 0 0 -757 321 0zm-31 331c35,0 62,-8 81,-25 18,-15 27,-39 27,-69 0,-31 -9,-55 -27,-70 -19,-17 -46,-25 -81,-25l-130 0 0 189 130 0z"/>
   <path id="1" class="fil18" d="M16306 15976c0,-40 -8,-78 -24,-115 -18,-37 -43,-67 -77,-90 -34,-23 -77,-36 -127,-37 -51,0 -92,12 -125,35 -35,24 -60,54 -76,91 -17,35 -26,74 -26,116 0,42 9,81 26,117 16,36 41,66 76,90 33,23 74,35 125,35 50,-1 93,-14 127,-37 34,-23 59,-53 77,-90 16,-37 24,-75 24,-115zm-227 -396c109,0 203,39 280,116 77,78 116,171 116,281 0,108 -39,201 -116,279 -77,77 -171,116 -280,116 -109,0 -202,-39 -280,-116 -77,-78 -116,-171 -116,-279 0,-110 39,-203 116,-281 78,-77 171,-116 280,-116z"/>
   <polygon id="2" class="fil18" points="17033,16352 16584,16352 16584,15594 16744,15594 16744,16210 17033,16210 "/>
   <polygon id="3" class="fil18" points="17354,15594 17354,16352 17194,16352 17194,15594 "/>
   <path id="4" class="fil18" d="M17653 16016c3,34 12,64 27,92 19,36 46,64 79,83 33,20 71,29 113,29 45,0 84,-10 118,-31 34,-21 58,-49 74,-84l125 78c-22,59 -62,106 -119,139 -58,33 -123,50 -197,50 -72,0 -137,-16 -196,-48 -60,-31 -107,-76 -141,-135 -35,-59 -52,-129 -52,-211 0,-83 17,-153 52,-212 34,-59 81,-104 141,-135 59,-32 124,-47 196,-47 74,0 139,16 197,49 57,34 97,80 119,140l-125 77c-16,-34 -40,-62 -74,-84 -34,-21 -73,-31 -118,-31 -42,0 -80,10 -113,29 -33,19 -60,47 -79,84 -15,27 -24,57 -27,91 -2,21 -2,47 0,77z"/>
   <polygon id="5" class="fil18" points="18785,16352 18310,16352 18310,15594 18774,15594 18774,15736 18470,15736 18470,15898 18742,15898 18742,16038 18470,16038 18470,16211 18785,16211 "/>
  </g>
  <g id="_2996954619552">
   <path class="fil19" d="M23216 13605l179 0c1,-7 3,-13 4,-20 4,-14 7,-28 11,-39 7,-23 15,-39 28,-54 12,-15 30,-29 45,-43 16,-14 29,-28 39,-43 10,-16 17,-32 15,-45 -3,-14 -14,-24 -24,-29 -10,-5 -18,-5 -22,-5 -4,0 -4,0 -5,-55 0,-55 -2,-164 -6,-225 -3,-61 -8,-74 -15,-83 -7,-9 -17,-14 -27,-15 -11,-1 -23,1 -34,7 -10,5 -20,15 -25,43 -5,27 -6,72 -6,94 -1,23 -1,23 -14,26 -14,3 -41,10 -61,16 -19,7 -30,13 -53,18 -23,4 -58,7 -81,10 -23,3 -33,6 -39,38 -5,33 -5,94 -1,142 3,49 9,85 19,113 10,28 24,49 36,68 12,19 23,36 30,54 0,2 1,4 2,6 2,7 4,14 5,21z"/>
   <path class="fil20" d="M23216 13605l46 0c-4,-13 -8,-28 -13,-40 -4,-12 -10,-22 -16,-32 -6,-10 -14,-20 -22,-33 -9,-13 -18,-29 -27,-50 -8,-21 -16,-48 -21,-78 -5,-30 -7,-64 -8,-92 -1,-28 -1,-50 2,-65 3,-15 9,-23 19,-28 9,-5 23,-8 34,-7 12,1 21,5 30,7 9,2 18,1 27,-3 9,-5 18,-12 27,-17 9,-6 18,-9 29,-9 11,1 24,6 34,5 10,-1 17,-7 21,-14 5,-8 7,-18 8,-36 2,-19 3,-46 5,-69 2,-23 5,-42 10,-55 4,-13 10,-21 17,-26 8,-5 17,-7 28,-6 5,0 10,1 15,2 -7,-6 -15,-9 -23,-10 -11,-1 -23,1 -34,7 -10,5 -20,15 -25,43 -5,27 -6,72 -6,94 -1,23 -1,23 -14,26 -14,3 -41,10 -61,16 -19,7 -30,13 -53,18 -23,4 -58,7 -81,10 -23,3 -33,6 -39,38 -5,33 -5,94 -1,142 3,49 9,85 19,113 10,28 24,49 36,68 12,19 23,36 30,54 0,2 1,4 2,6 2,7 4,14 5,21z"/>
   <path class="fil21" d="M23161 13584l0 130c0,131 0,393 5,538 5,145 14,173 29,194 15,21 37,35 130,42 92,8 256,8 338,8l82 0 0 146 -1 592 0 136 101 0c28,0 28,0 28,13 0,6 1,15 1,30 20,3 43,7 68,12 63,11 141,23 251,33 15,1 32,3 48,4l0 -12 63 0c7,28 19,53 36,65 25,18 63,6 93,-6 30,-13 51,-25 69,-52 1,-2 3,-5 4,-7l59 0 0 17c1,0 2,0 2,0l106 0c7,0 14,3 19,7 34,-2 67,-4 98,-6 3,-8 12,-8 46,-7l34 0c33,-3 62,-6 85,-10 24,-3 42,-7 56,-9 9,-5 17,-9 24,-12 0,-56 2,-56 14,-56 7,-1 16,-1 26,0 1,-16 1,-47 1,-129l0 -534 0 -133 42 24 156 87 0 -481c-30,-16 -72,-35 -109,-51 -43,-19 -80,-32 -118,-45 -39,-13 -80,-26 -121,-36 -42,-10 -85,-18 -124,-25 -40,-8 -75,-15 -104,-21 -29,-6 -50,-10 -76,-17 -4,-2 -8,-3 -13,-4 -11,-3 -22,-7 -33,-11l0 -5 0 -49c-1,0 -2,0 -3,1 -4,3 -9,6 -13,9 -16,10 -30,15 -49,19 -20,5 -45,9 -70,11 -26,2 -52,2 -78,0 -26,-3 -52,-7 -72,-12 -19,-5 -31,-11 -41,-17 -5,-2 -9,-5 -13,-8 0,0 -1,0 -1,0l0 51c-5,2 -11,4 -16,7 -8,5 -16,10 -24,16 -30,9 -66,20 -128,33 -84,17 -214,40 -309,55 -96,15 -156,22 -196,26 -40,5 -58,6 -72,6 -13,1 -21,1 -25,1 -5,0 -6,0 -7,-93 -1,-92 -1,-278 -1,-371l0 -92 -49 -1 -10 0 -188 -1 0 0 -50 0z"/>
   <path class="fil22" d="M25077 14579l41 23 156 87 0 -47 -15 -5c-36,-13 -109,-37 -146,-50 -36,-12 -36,-12 -36,-12l0 4z"/>
   <path class="fil22" d="M23161 13584l0 130c0,131 0,393 5,538 5,145 14,173 29,194 15,21 37,35 130,42 92,8 256,8 338,8l80 0c-2,-15 -7,-19 -15,-22 -8,-4 -18,-8 -43,-10 -24,-3 -62,-5 -123,-8 -61,-3 -144,-9 -200,-13 -57,-5 -86,-10 -106,-16 -19,-6 -29,-14 -36,-24 -7,-9 -11,-22 -17,-156 -5,-134 -12,-390 -18,-522 -5,-106 -10,-132 -15,-141l-9 0z"/>
   <polygon class="fil19" points="24236,13921 24576,13921 24576,14028 24434,14156 24386,14156 24236,14017 "/>
   <path class="fil23" d="M24212 13923c-2,3 7,11 15,17 8,6 14,10 23,15 10,6 22,12 41,17 20,5 46,9 72,12 26,2 52,2 78,0 25,-2 50,-6 70,-11 19,-4 33,-9 49,-19 16,-10 34,-25 43,-32 9,-8 9,-8 9,-8 0,0 0,0 -9,2 -8,2 -24,5 -56,9 -32,4 -80,8 -124,9 -45,0 -87,-3 -117,-6 -30,-2 -48,-3 -63,-5 -16,-1 -29,-3 -31,0z"/>
   <path class="fil19" d="M23836 13191c-4,24 -9,57 -11,73 -3,16 -3,16 -3,16 0,0 0,0 -2,0 -2,0 -7,0 -13,2 -6,2 -14,5 -21,13 -8,7 -15,18 -20,35 -4,16 -5,38 -5,57 1,19 4,35 8,49 4,15 10,28 17,37 8,10 17,16 27,20 10,5 21,7 32,8 12,1 24,1 31,1 6,0 6,0 6,0 0,0 0,0 1,24l0 21c2,15 5,32 8,49 4,26 10,50 18,72 7,23 15,45 24,64 8,19 18,35 27,49 10,14 20,26 33,39 13,14 29,29 44,41 16,13 31,22 49,32 17,9 36,19 58,27 22,9 46,16 68,22 22,5 42,9 62,11 19,2 38,2 63,2 25,1 56,1 89,0 33,0 67,-3 100,-5 33,-3 64,-7 93,-13 29,-7 56,-16 81,-29 26,-13 50,-29 70,-44 19,-14 36,-27 50,-44 15,-17 29,-37 42,-58 13,-21 27,-42 39,-66 12,-23 22,-49 30,-75 9,-25 15,-50 19,-73 5,-23 8,-45 9,-56 2,-11 2,-11 2,-11 0,0 0,0 2,1 2,1 7,2 14,2 8,1 19,0 31,-3 2,-1 5,-1 7,-2 4,-2 8,-5 12,-8 10,-10 17,-25 22,-44 4,-20 6,-43 7,-65 1,-22 1,-42 -4,-58 -4,-16 -13,-28 -20,-34 -6,-7 -10,-9 -13,-10 -2,-1 -2,-1 -2,-16 -1,-15 -1,-45 -2,-59 0,-15 0,-15 -1,-36 -1,-20 -3,-60 -8,-90 -6,-30 -15,-49 -52,-65 -37,-16 -102,-29 -208,-36 -106,-7 -253,-8 -373,-5 -120,2 -215,7 -285,14 -71,8 -118,18 -151,33 -32,15 -49,36 -62,60 -13,24 -23,51 -28,72 -6,21 -8,36 -11,59z"/>
   <path class="fil20" d="M23802 13284c-5,2 -11,5 -16,11 -8,7 -15,18 -20,35 -4,16 -5,38 -5,57 1,19 4,35 8,49 4,15 10,28 17,37 8,10 17,16 27,20 10,5 21,7 32,8 12,1 24,1 31,1 6,0 6,0 6,0 0,0 0,0 1,24l0 21c2,15 5,32 8,49 4,26 10,50 18,72 7,23 15,45 24,64 8,19 18,35 27,49 10,14 20,26 33,39 13,14 29,29 44,41 16,13 31,22 49,32 17,9 36,19 58,27 22,9 46,16 68,22 22,5 42,9 62,11 19,2 38,2 63,2 25,1 56,1 89,0 33,0 67,-3 100,-5 33,-3 64,-7 93,-13 29,-7 56,-16 81,-29 26,-13 50,-29 70,-44 19,-14 36,-27 50,-44 15,-17 29,-37 42,-58 13,-21 27,-42 39,-66 12,-23 22,-49 30,-75 9,-25 15,-50 19,-73 5,-23 8,-45 9,-56 2,-11 2,-11 2,-11 0,0 0,0 2,1 2,1 7,2 14,2 8,1 19,0 31,-3 2,-1 5,-1 7,-2 4,-2 8,-5 12,-8 10,-10 17,-25 22,-44 4,-20 6,-43 7,-65 1,-22 1,-42 -4,-58 -4,-16 -13,-28 -20,-34 -2,-3 -4,-5 -6,-6 3,9 6,20 8,32 3,15 4,31 3,50 -1,18 -5,39 -10,56 -5,17 -13,30 -23,39 -10,9 -23,13 -34,15 -10,2 -18,2 -22,1 -4,0 -4,0 -4,0 0,0 0,0 -1,7 -1,6 -4,19 -8,39 -4,19 -10,45 -18,72 -9,27 -20,54 -32,78 -11,23 -24,43 -38,63 -15,21 -32,41 -50,59 -19,18 -37,34 -55,48 -19,14 -36,27 -57,39 -20,12 -43,23 -68,31 -25,9 -51,14 -80,18 -29,4 -61,5 -96,7 -34,1 -71,2 -103,2 -32,-1 -59,-2 -87,-7 -28,-4 -59,-13 -86,-22 -27,-10 -51,-21 -72,-33 -22,-13 -41,-27 -58,-42 -16,-15 -30,-30 -43,-49 -13,-19 -25,-41 -36,-64 -10,-22 -19,-44 -26,-69 -7,-25 -13,-52 -18,-80 -4,-27 -6,-56 -7,-70 -1,-14 -1,-14 -1,-14 0,0 0,0 -8,3 -8,3 -24,8 -37,10 -13,1 -23,-2 -32,-9 -9,-7 -17,-19 -23,-31 -6,-13 -11,-28 -14,-45 -3,-18 -5,-39 -4,-57 1,-18 3,-33 8,-43 3,-6 6,-10 8,-14z"/>
   <path class="fil24" d="M24328 13794c4,5 9,9 14,14 5,4 10,8 15,12 6,3 12,5 19,7 8,2 17,4 26,4 10,1 19,1 29,1 10,0 21,-1 30,-3 8,-1 13,-4 18,-7 4,-3 8,-6 12,-11 4,-4 7,-10 9,-14 1,-3 1,-3 -15,-4 -15,-1 -47,-2 -78,-5 -31,-2 -62,-5 -75,-4 -13,1 -8,5 -4,10z"/>
   <path class="fil24" d="M24575 13540c-7,1 -17,1 -26,1 -8,-1 -15,-2 -20,-5 -6,-2 -10,-6 -14,-10 -4,-4 -8,-9 -13,-16 -4,-7 -10,-17 -15,-30 -6,-13 -11,-28 -14,-44 -4,-15 -6,-32 -6,-44 -1,-12 -1,-20 -1,-29 1,-10 2,-21 6,-31 4,-11 10,-21 16,-29 6,-9 12,-16 19,-21 8,-5 16,-9 22,-11 6,-3 10,-3 17,-1 6,2 15,7 29,29 14,22 33,61 43,97 9,36 9,70 5,92 -4,23 -13,33 -19,40 -6,6 -9,8 -13,9 -4,2 -8,3 -16,3z"/>
   <path class="fil24" d="M24306 13535c10,-1 18,-4 25,-11 7,-7 13,-18 21,-33 7,-14 15,-32 20,-50 5,-18 5,-35 5,-53 0,-17 0,-34 -2,-48 -2,-13 -5,-24 -10,-33 -4,-9 -11,-18 -17,-24 -7,-6 -14,-11 -21,-13 -7,-3 -15,-4 -28,-4 -13,0 -31,1 -47,5 -15,3 -27,9 -38,30 -10,20 -19,55 -17,88 3,33 17,65 32,89 15,25 31,42 44,51 13,8 24,8 33,6z"/>
   <path class="fil24" d="M23979 13117c0,46 0,129 0,171 0,41 0,41 -9,37 -9,-3 -27,-11 -43,-20 -15,-9 -29,-21 -39,-49 -11,-28 -19,-74 -18,-113 1,-40 11,-73 26,-90 15,-16 37,-15 52,-12 15,3 23,7 27,14 4,7 4,16 4,62z"/>
   <path class="fil24" d="M24899 13250c-1,-43 -1,-121 -1,-159 0,-39 0,-39 16,-39 16,0 47,0 64,11 17,11 19,32 20,57 1,24 0,51 -4,72 -4,22 -11,37 -27,56 -16,18 -41,40 -54,47 -13,6 -14,-3 -14,-45z"/>
   <path class="fil25" d="M24076 12874c-181,2 -198,-2 -229,-22 -1,0 -2,-1 -4,-1 -6,21 -16,57 -21,85 -3,14 -4,25 -5,35l0 0 0 1c0,4 0,11 0,22 -1,16 -1,41 0,72 1,30 2,66 4,91 2,20 3,34 5,45 1,7 1,13 2,19 1,9 2,17 3,22 1,5 2,8 2,10 1,5 1,5 14,8l52 13 10 3 -1 -2 4 1 0 -32 0 -134 0 -34 35 10c35,10 104,29 182,43 78,13 164,20 240,23 76,2 143,1 206,-4 63,-4 123,-10 185,-22 62,-12 127,-29 159,-37l32 -9 0 30 0 117 0 29 16 -10 35 -23 27 -17 16 -11 -1 -23c0,-12 -1,-30 -1,-50l-1 -6c0,-17 0,-38 0,-58 0,-20 0,-40 0,-57 0,-2 0,-4 0,-6 -1,-16 -2,-49 -8,-80 -5,-27 -14,-54 -23,-76 -24,14 -57,15 -201,19 -184,4 -547,13 -734,16z"/>
   <path class="fil26" d="M24969 12786c11,2 24,19 36,43 12,23 23,54 29,86 6,31 7,64 8,80 0,16 0,16 -71,16 -72,0 -215,0 -419,0 -204,0 -469,-1 -602,-1 -132,-1 -132,-1 -133,-11 0,-11 -1,-33 5,-63 5,-31 17,-71 23,-90 6,-20 6,-20 105,-23 100,-3 299,-8 481,-10 181,-2 346,-2 432,-8 86,-7 95,-20 106,-19z"/>
   <ellipse class="fil23" cx="24679" cy="13275" rx="94" ry="31"/>
   <path class="fil27" d="M25012 12838c13,-4 20,-10 31,-21 31,-28 94,-86 124,-118 3,-4 6,-7 9,-11 11,-11 12,-15 12,-18 0,-4 -3,-8 -39,-30 -36,-21 -106,-60 -140,-80 -35,-19 -35,-19 -35,-19 0,0 0,0 -82,-25 -82,-25 -246,-74 -339,-101 -92,-27 -113,-31 -133,-30 -11,1 -22,3 -46,9 -15,3 -31,6 -51,11 -56,14 -136,36 -216,60l-205 55c-92,24 -92,24 -120,49 -21,18 -59,51 -88,77 -25,17 -36,28 -41,37 -7,9 -7,12 -3,17 2,12 12,25 38,46 34,27 95,67 125,88 18,11 25,16 34,18 31,20 48,24 229,22 187,-3 550,-12 734,-16 147,-4 179,-5 202,-20z"/>
   <path class="fil26" d="M25016 12837c10,-4 17,-11 27,-20 31,-28 94,-86 124,-118 3,-4 6,-7 9,-11 11,-11 12,-15 12,-18 0,-4 -3,-8 -39,-30 -36,-21 -106,-60 -140,-80 -35,-19 -35,-19 -35,-19l-32 -10c47,33 117,81 154,109 45,34 46,39 38,51 -8,13 -23,32 -45,59 -22,26 -49,59 -63,75 -5,6 -8,9 -10,12z"/>
   <path class="fil26" d="M23835 12538c-29,9 -35,15 -53,31 -21,18 -59,51 -88,77 -25,17 -36,28 -41,37 -7,9 -7,12 -3,17 2,12 12,25 38,46 34,27 95,67 125,88 17,11 25,16 33,18 -3,-3 -7,-7 -12,-11 -29,-24 -86,-72 -115,-100 -29,-28 -30,-35 -30,-43 1,-8 3,-16 23,-39 19,-23 56,-62 78,-84 23,-22 30,-28 43,-36l2 -1z"/>
   <ellipse class="fil23" cx="24158" cy="13276" rx="94" ry="31"/>
   <ellipse class="fil28" cx="24418" cy="12643" rx="113" ry="137"/>
   <path class="fil29" d="M24815 13266l-268 0c-12,0 -23,5 -31,13l0 0c-3,3 -4,6 -6,9 -1,4 -2,9 -3,14 -1,5 -1,11 -1,14 0,3 0,3 0,3 0,0 0,0 -5,-2 -5,-1 -16,-4 -28,-6 -13,-3 -29,-5 -44,-6 -15,-1 -30,-1 -43,0 -13,2 -23,5 -31,8 -8,3 -14,5 -17,6 -3,2 -3,2 -3,2 0,0 0,0 0,-6 0,-5 0,-16 -2,-24 -1,-2 -1,-4 -2,-5 -7,-12 -21,-20 -36,-20l-268 0c-18,0 -34,11 -40,27l-154 -35 151 139 0 0 0 102c0,23 20,42 43,42l268 0c24,0 43,-19 43,-42l0 -124 166 0 0 124c0,23 19,42 43,42l268 0c23,0 42,-19 42,-42l0 -125 188 -179 -197 86c-8,-9 -20,-15 -33,-15z"/>
   <path class="fil30" d="M24810 13266l-263 0c-12,0 -23,5 -31,13l0 0c-3,3 -4,6 -6,9 -1,4 -2,9 -3,14 -1,5 -1,11 -1,14 0,3 0,3 0,3l-1 -1 0 15c0,11 -1,27 -1,42l0 0 0 124c0,23 19,42 43,42l144 0 1 -1c12,-8 17,-20 19,-26 2,-6 2,-6 -25,-5 -27,0 -81,0 -111,-2 -30,-2 -35,-7 -38,-14 -3,-7 -4,-16 -4,-41 -1,-25 -2,-66 -1,-96 1,-29 3,-46 8,-55 4,-10 10,-12 16,-13 6,-1 13,-1 43,-1 30,0 83,-1 118,0 34,0 50,1 62,0 13,-2 22,-6 28,-14 1,-2 2,-5 3,-7z"/>
   <path class="fil30" d="M24282 13266l-255 0c-18,0 -34,11 -40,27l-154 -35 151 139 0 0 0 102c0,23 20,42 43,42l156 0c13,-8 19,-17 23,-22 5,-7 5,-7 -19,-6 -23,0 -71,1 -102,1 -30,-1 -45,-3 -55,-6 -10,-3 -15,-8 -19,-13 -3,-6 -4,-12 -4,-42 -1,-29 -1,-83 0,-113 2,-31 6,-39 11,-44 4,-6 10,-9 22,-11 12,-2 31,-2 56,-2 26,0 58,0 88,1 31,0 59,1 78,-5 10,-3 17,-8 20,-13z"/>
   <path class="fil31" d="M24319 13273c-7,-4 -15,-7 -24,-7l-67 0c0,23 1,57 -1,84 -2,33 -7,57 -15,81 -8,23 -19,47 -33,66 -13,19 -29,34 -44,44l104 0c8,-7 15,-16 23,-26 11,-16 21,-35 29,-56 8,-21 14,-45 18,-69 4,-25 7,-51 8,-72 2,-18 2,-33 2,-45z"/>
   <path class="fil31" d="M24815 13266l-67 0c0,16 0,36 0,55 -1,28 -2,54 -7,78 -4,25 -13,49 -23,70 -10,21 -21,39 -33,53 -7,8 -13,14 -18,19l86 0c1,-1 3,-3 5,-4 10,-9 20,-20 30,-34 9,-15 19,-33 26,-53 8,-21 13,-44 17,-68 3,-24 5,-49 6,-72 0,-14 0,-27 -1,-38 -6,-4 -13,-6 -21,-6z"/>
   <path class="fil32" d="M24420 13743c-67,0 -128,-11 -173,-29 6,55 81,98 173,98 92,0 167,-43 173,-98 -45,18 -106,29 -173,29z"/>
   <path class="fil33" d="M24356 13621c-13,-1 -31,-1 -41,-4 -10,-4 -12,-10 -12,-20 1,-10 4,-23 11,-32 6,-9 16,-14 29,-18 12,-4 28,-6 36,-7 8,-1 8,-1 8,-1 0,0 0,0 0,13 0,14 0,41 0,55 0,14 0,14 0,14 0,0 0,0 -4,0 -5,0 -14,0 -27,0z"/>
   <line class="fil16" x1="24098" y1="14476" x2="24098" y2= "14864" />
   <line class="fil16" x1="23923" y1="14603" x2="24278" y2= "14603" />
   <rect class="fil34" x="25274" y="13881" width="844" height="1152"/>
   <rect class="fil8" x="25351" y="13957" width="691" height="1000"/>
   <path class="fil19" d="M25944 13776c-26,-7 -54,-15 -80,-20 -27,-6 -52,-8 -71,-8 -18,0 -29,2 -37,8 -8,5 -12,13 -17,19 -6,7 -11,11 -23,16 -11,5 -27,12 -41,20 -13,8 -24,19 -30,30 -7,10 -8,21 -1,30 7,9 23,15 34,24 12,8 19,18 29,28 10,10 23,21 43,30 21,8 48,13 76,15 29,1 58,-1 82,-10 25,-10 44,-27 65,-39 21,-13 44,-21 67,-29 22,-7 44,-13 52,-21 9,-9 3,-20 -12,-32 -15,-13 -39,-27 -63,-37 -24,-11 -47,-16 -73,-24z"/>
   <path class="fil20" d="M25756 13955c19,7 44,11 70,13 29,1 58,-1 82,-10 25,-10 44,-27 65,-39 21,-13 44,-21 67,-29 9,-3 19,-6 28,-9 -12,1 -25,4 -41,8 -22,7 -51,17 -78,28 -27,10 -52,20 -77,26 -25,7 -51,9 -74,10 -15,1 -28,1 -42,2z"/>
   <path class="fil20" d="M25944 13776c-26,-7 -54,-15 -80,-20 -27,-6 -52,-8 -71,-8 -18,0 -29,2 -37,8 -8,5 -12,13 -17,19 -6,7 -11,11 -23,16 -11,5 -27,12 -41,20 -13,8 -24,19 -30,30 -7,10 -8,21 -1,30 7,9 23,15 34,24 5,3 9,7 13,10l0 0c0,-12 5,-26 12,-39 7,-12 16,-21 26,-28 11,-6 22,-10 35,-15 13,-4 28,-10 50,-14 21,-4 50,-6 81,-6 32,0 65,2 96,7 31,5 59,14 96,37l5 3c-2,-4 -7,-9 -12,-13 -15,-13 -39,-27 -63,-37 -24,-11 -47,-16 -73,-24z"/>
   <rect class="fil8" x="24290" y="15500" width="227" height="109"/>
   <path class="fil16 str3" d="M23872 15625c-1,14 -2,27 -3,38 -4,49 -12,62 -29,70 -17,8 -44,11 -66,8 -22,-3 -40,-12 -51,-25 -11,-13 -17,-31 -19,-89 -2,-59 -2,-158 -1,-207 0,-50 0,-50 28,-50 29,0 85,0 114,0 28,0 28,0 28,13 1,11 1,31 1,74 38,0 88,1 116,2 38,2 39,3 41,29 3,27 7,78 6,106 -2,29 -8,34 -43,35 -32,1 -87,-1 -122,-4z"/>
   <rect class="fil16 str3" x="24103" y="15467" width="165" height="173" rx="30" ry="26"/>
   <path class="fil35" d="M23995 17375c149,0 269,71 269,158l22 0 0 75 -588 0 0 -75 27 0c0,-87 121,-158 270,-158z"/>
   <path class="fil35" d="M24751 17375c149,0 269,71 269,158l22 0 0 75 -588 0 0 -75 27 0c0,-87 121,-158 270,-158z"/>
   <rect class="fil22" x="24364" y="14160" width="85.9341" height="1310.51"/>
   <path class="fil22" d="M24208 14344c-10,-18 -30,-55 -43,-90 -13,-35 -19,-68 -22,-94 -2,-26 -2,-45 4,-64 2,-10 6,-19 10,-28 -7,12 -14,26 -19,41 -6,17 -9,36 -10,55 -2,19 -2,38 2,62 5,24 13,54 24,78 10,25 22,45 33,60 11,15 21,26 26,31l4 6 30 -35 117 -139 0 -41 -112 136 -34 41 -10 -19z"/>
   <path class="fil22" d="M24450 14175l0 44c4,5 8,11 14,18l104 129 26 32 5 -4c6,-4 17,-12 28,-27 12,-15 23,-37 33,-61 10,-25 18,-52 23,-80 6,-29 8,-58 7,-85 -2,-27 -7,-50 -21,-74 -11,-19 -27,-38 -41,-53 -2,0 -4,-1 -6,-1l-13 -4c14,8 28,19 39,33 13,16 23,34 28,54 6,19 6,38 4,64 -3,26 -9,59 -22,94 -13,35 -33,72 -43,90l-10 19 -34 -41 -121 -147z"/>
   <path class="fil22" d="M23951 14476c-5,1 -11,4 -16,9 -5,4 -10,11 -13,18 -4,8 -6,16 -7,70 -1,54 -1,152 0,205 1,52 2,59 5,65 2,6 6,12 12,17 5,4 13,7 28,8 15,2 36,2 82,2 47,0 117,0 156,-1 39,0 45,-1 53,-3 7,-2 16,-7 23,-13 6,-7 10,-16 13,-24 2,-8 2,-14 1,-67 -1,-53 -2,-153 -4,-205 -1,-53 -3,-59 -7,-64 -4,-5 -10,-9 -16,-12 -6,-3 -13,-5 -16,-5 -3,-1 -3,-1 -3,-1 0,0 0,0 2,1 2,1 6,3 9,6 4,4 8,8 11,14 3,7 5,15 7,66 1,51 1,145 0,196 -1,51 -3,59 -5,66 -2,7 -5,13 -12,17 -6,4 -15,6 -63,6 -49,1 -137,0 -184,-2 -48,-1 -54,-3 -59,-6 -6,-4 -9,-10 -11,-60 -2,-51 -1,-146 0,-199 2,-54 3,-64 5,-72 2,-8 5,-14 10,-19 4,-6 10,-11 10,-14 0,-2 -5,-1 -11,1z"/>
   <rect class="fil22" x="23928" y="14591" width="350.244" height="23.4441"/>
   <rect class="fil22" x="24088" y="14475" width="19.523" height="382.806"/>
   <line class="fil16" x1="24757" y1="14487" x2="24757" y2= "14874" />
   <line class="fil16" x1="24582" y1="14613" x2="24936" y2= "14613" />
   <path class="fil28" d="M24645 14616c58,-3 171,-2 230,-4 58,-1 61,-3 62,-7 2,-4 2,-9 1,-18 -1,-9 -2,-23 -3,-29 0,-7 0,-7 -59,-6 -58,0 -175,1 -233,2 -58,0 -58,0 -59,6 -1,7 -2,19 -2,32 -1,12 0,25 1,28 2,4 4,-2 62,-4z"/>
   <path class="fil22" d="M24610 14486c-5,2 -11,4 -16,9 -5,5 -10,11 -14,19 -3,7 -5,16 -6,69 -1,54 -1,153 -1,205 1,53 3,59 6,65 2,7 6,13 11,17 6,4 14,7 29,9 14,1 36,2 82,2 47,0 117,-1 156,-1 39,-1 45,-1 53,-4 7,-2 16,-6 22,-13 7,-7 11,-16 13,-24 3,-7 3,-14 2,-67 -1,-53 -2,-152 -4,-205 -1,-53 -4,-59 -8,-64 -3,-5 -9,-9 -15,-12 -6,-2 -13,-4 -16,-5 -3,-1 -3,-1 -3,-1 0,0 0,0 2,1 2,1 6,4 9,7 4,3 7,7 10,14 3,6 6,14 7,65 2,51 2,145 1,196 -1,51 -3,59 -5,66 -3,8 -6,14 -12,17 -6,4 -15,6 -63,7 -49,0 -137,-1 -185,-2 -47,-1 -53,-3 -59,-7 -5,-4 -9,-9 -10,-60 -2,-50 -1,-146 0,-199 1,-53 3,-64 5,-72 2,-8 5,-13 9,-19 5,-5 10,-11 11,-13 0,-3 -5,-2 -11,0z"/>
   <rect class="fil22" x="24587" y="14601" width="350.244" height="23.4441"/>
   <rect class="fil22" x="24747" y="14602" width="19.523" height="265.751"/>
   <path class="fil28" d="M24065 14055c-7,-1 -16,-1 -32,0 -16,1 -37,3 -53,5 -16,3 -25,7 -30,11 -4,4 -4,9 -1,12 3,3 8,5 24,4 15,-1 41,-6 61,-11 21,-6 35,-12 39,-16 5,-3 0,-5 -8,-5z"/>
   <path class="fil28" d="M23904 14076c-9,-2 -20,-1 -31,0 -11,1 -22,2 -32,4 -10,2 -20,6 -27,10 -7,4 -12,9 -12,13 -1,4 1,7 6,10 4,2 11,4 22,4 11,0 28,-2 41,-4 14,-2 26,-5 35,-8 8,-4 13,-7 16,-11 3,-3 3,-7 0,-11 -3,-3 -9,-6 -18,-7z"/>
   <path class="fil28" d="M24765 14046c8,0 17,0 33,1 16,1 37,4 53,7 15,3 25,7 29,12 5,4 4,8 1,11 -3,4 -8,6 -24,4 -15,-2 -41,-7 -61,-13 -20,-6 -34,-13 -39,-17 -4,-3 1,-5 8,-5z"/>
   <path class="fil28" d="M24927 14071c8,-1 20,1 31,2 10,1 21,2 31,5 10,2 20,6 27,10 7,4 11,9 12,13 1,5 -2,8 -7,10 -4,2 -11,4 -22,3 -11,0 -27,-2 -41,-4 -14,-3 -26,-6 -34,-10 -8,-3 -13,-7 -16,-11 -3,-3 -3,-7 0,-11 3,-3 10,-6 19,-7z"/>
   <circle class="fil22" cx="24449" cy="15300" r="36"/>
   <circle class="fil22" cx="24451" cy="15126" r="36"/>
   <circle class="fil22" cx="24453" cy="14953" r="36"/>
   <circle class="fil22" cx="24455" cy="14779" r="36"/>
   <circle class="fil22" cx="24457" cy="14605" r="36"/>
   <circle class="fil22" cx="24459" cy="14431" r="36"/>
   <rect class="fil36" x="25484" y="14023" width="414.045" height="36.4594"/>
   <circle class="fil37" cx="25486" cy="14827" r="74"/>
   <path class="fil16 str4" d="M25794 14838c0,-1 33,-33 7,-1 -59,72 36,-9 59,-21 -84,71 -43,43 37,4 56,-27 -28,5 -52,21 -135,90 79,-5 74,-30 -40,2 -126,100 -21,21 11,-9 53,-72 13,-40 -1,0 -128,108 -78,75 13,-9 74,-40 76,-43 -47,7 -119,106 -7,24 25,-18 -36,20 15,-4 29,-13 -26,-3 -25,8 39,0 55,-34 20,-11 -12,7 11,-1 -5,5 -18,6 54,6 76,-3 2,-1 3,0 5,0"/>
   <path class="fil38" d="M23874 15410c0,-13 -1,-21 -1,-27 0,-13 0,-13 -28,-13l-101 0 -13 0c-28,0 -28,0 -28,50 -1,49 -1,148 1,207 2,58 8,76 19,89 4,5 9,9 15,13 0,58 0,132 0,227 2,346 8,969 10,1281l2 230c43,-54 136,-92 245,-92 110,0 204,39 246,94 1,-33 3,-80 5,-146 6,-226 19,-678 29,-918 10,-240 16,-269 27,-292 10,-24 24,-42 46,-51 23,-9 52,-9 77,-1 25,9 45,26 56,54 11,29 13,69 15,312 2,242 3,686 4,908l1 139c39,-58 136,-99 250,-99 109,0 202,38 245,93l7 -214 39 -1226 3 -100c4,2 9,3 15,3 7,0 17,-3 25,-8 8,-5 14,-11 20,-19 5,-8 9,-16 12,-33 2,-16 4,-41 5,-116 0,-76 0,-202 -1,-270 -1,-68 -2,-76 -5,-84 -2,-8 -6,-15 -12,-20 -5,-4 -13,-7 -21,-9 -8,-2 -17,-4 -24,-4 -7,1 -12,3 -17,7 -1,0 -2,1 -3,2l-1 1c-5,6 -9,15 -11,24 -2,9 -3,18 -3,22 0,5 0,5 -7,7 -7,1 -22,5 -62,11 -40,5 -106,11 -140,15 -20,3 -29,5 -33,8 -27,2 -58,5 -91,6 -35,0 -73,-2 -105,-3 -33,0 -59,1 -106,0 -46,-1 -112,-3 -158,-5 -45,-2 -71,-3 -107,-6 -37,-4 -84,-8 -139,-15 -54,-8 -115,-18 -152,-24 -24,-4 -38,-6 -50,-8zm1157 488l0 0 0 21 0 -21z"/>
   <path class="fil35" d="M24968 17440c11,9 20,18 28,28l7 -214 39 -1226 3 -100c4,2 9,3 15,3 7,0 17,-3 25,-8 4,-2 7,-5 10,-8 0,-33 -1,-64 -3,-91 -9,-187 -38,-228 -54,-234 -16,-7 -19,21 -29,350 -10,329 -27,959 -35,1274 -3,108 -5,179 -6,226zm63 -1542l0 0 0 21 0 -21z"/>
   <path class="fil35" d="M24221 17448c8,7 15,14 20,21 1,-33 3,-80 5,-146 6,-226 19,-678 29,-918 10,-240 16,-269 27,-292 10,-24 24,-42 46,-51 23,-9 52,-9 77,-1 25,9 45,26 56,54 11,29 13,69 15,312 2,242 3,686 4,908l1 139c6,-9 13,-17 22,-26l1 -137c2,-210 4,-630 4,-863 0,-234 -2,-281 -9,-317 -7,-37 -19,-63 -36,-82 -17,-20 -41,-33 -67,-39 -26,-6 -55,-5 -78,4 -24,10 -43,28 -57,56 -13,28 -21,65 -27,133 -5,68 -9,166 -12,318 -4,151 -7,357 -11,527 -3,170 -7,303 -9,378l-1 22z"/>
   <path class="fil35" d="M23717 15708c2,3 4,5 6,8 4,5 9,9 15,13 0,58 0,132 0,227 2,346 8,969 10,1281l2 230c6,-7 13,-14 20,-21l-1 -255c-2,-297 -6,-891 -8,-1198 -3,-307 -5,-328 -18,-324 -6,2 -15,10 -26,39z"/>
   <path class="fil30" d="M23881 15644c-3,8 -4,20 -6,34 -3,15 -9,32 -16,44 -7,13 -16,20 -26,25 -9,5 -20,7 -32,6 -12,0 -25,-2 -38,-5 -12,-2 -23,-5 -34,-10 -10,-6 -20,-13 -28,-53 -9,-39 -17,-111 -18,-170 -1,-59 4,-104 7,-127 3,-24 5,-25 36,-27 31,-1 92,-2 125,-1 32,0 35,3 36,17 0,13 -2,39 -4,52 -1,13 -1,13 19,13 20,1 61,3 86,6 26,3 37,8 43,16 6,8 8,20 10,44 1,23 2,59 1,80 -1,22 -4,30 -8,36 -3,6 -9,10 -32,11 -24,0 -65,-3 -89,-3 -24,1 -29,4 -32,12z"/>
   <path class="fil30" d="M24777 15474c0,-12 3,-14 37,-18 34,-4 100,-10 140,-16 40,-5 54,-9 61,-11 8,-2 8,-2 8,-6 0,-4 0,-13 3,-22 2,-9 6,-18 11,-24 6,-6 13,-9 20,-10 8,0 17,1 25,3 8,3 15,5 21,10 6,5 9,12 12,19 3,8 4,17 5,85 1,67 1,194 0,270 0,75 -2,99 -5,116 -3,16 -6,25 -12,33 -5,7 -11,14 -19,19 -8,4 -18,7 -26,8 -8,0 -14,-3 -19,-6 -5,-3 -9,-7 -10,-48 -2,-42 -2,-120 -1,-159 0,-40 0,-40 -9,-39 -9,0 -26,1 -50,0 -24,-1 -54,-4 -78,-8 -25,-3 -43,-7 -58,-12 -15,-4 -27,-9 -35,-16 -9,-6 -15,-14 -18,-33 -3,-19 -3,-48 -3,-74 -1,-26 -1,-49 0,-61z"/>
   <path class="fil39" d="M25097 15376c2,1 4,3 6,4 6,5 9,12 12,19 3,8 4,17 5,85 1,67 1,194 0,270 0,75 -2,99 -5,116 -3,16 -6,25 -12,33 -3,5 -7,10 -12,13 0,-14 0,-34 0,-61 1,-98 1,-293 4,-397 0,-38 1,-64 2,-82z"/>
   <path class="fil30" d="M24241 15640l0 -173c-1,0 -1,0 -2,0l-106 0c-16,0 -30,13 -30,30l0 113c0,17 14,30 30,30l106 0 2 0z"/>
   <path class="fil30" d="M24565 15465l0 175c1,0 2,0 2,0l106 0c17,0 30,-14 30,-32l0 -121c0,-40 -82,-22 -115,-22 -8,0 -15,0 -23,0z"/>
   <rect class="fil1" x="24241" y="15450" width="324" height="211"/>
   <rect class="fil30" x="24294" y="15497" width="224" height="115"/>
   <path class="fil40" d="M24819 17402c17,4 34,8 51,15 18,8 36,18 52,28 16,10 28,21 37,31 9,10 14,18 18,28 4,9 7,19 8,24 1,5 1,5 -19,5 -20,0 -60,0 -80,0 -19,0 -19,0 -19,0 0,0 0,0 -1,-6 0,-7 0,-20 -3,-35 -3,-15 -7,-33 -15,-46 -7,-13 -17,-21 -26,-29 -9,-8 -18,-14 -27,-18 -9,-5 -20,-7 -25,-8 -5,-1 -5,-1 4,1 9,2 27,6 45,10z"/>
   <path class="fil40" d="M24061 17402c17,4 34,8 51,15 18,8 37,18 52,28 16,10 28,21 37,31 9,10 14,18 18,28 4,9 7,19 8,24 2,5 2,5 -18,5 -20,0 -60,0 -80,0 -20,0 -20,0 -20,0 0,0 0,0 -1,-6 0,-7 0,-20 -3,-35 -2,-15 -7,-33 -15,-46 -7,-13 -17,-21 -26,-29 -9,-8 -17,-14 -27,-18 -9,-5 -19,-7 -25,-8 -5,-1 -5,-1 4,1 9,2 28,6 45,10z"/>
   <path class="fil16 str5" d="M25442 14172l515 0m-515 245l515 0m-515 -31l515 0m-515 -30l515 0m-515 -31l515 0m-515 -30l515 0m-515 -31l515 0m-515 -30l515 0m-515 -31l515 0"/>
  </g>
  <g id="_2996849317024">
   <path class="fil41" d="M37916 16930c-22,43 -54,111 -80,155 -27,43 -48,62 -94,73 -46,12 -117,18 -1024,16 -906,-1 -2648,-9 -3526,-14 -879,-4 -893,-6 -904,-23 -10,-18 -17,-52 -27,-111 -11,-59 -25,-142 -31,-184 -6,-42 -4,-44 -310,-44 -307,0 -923,2 -1256,18 -334,17 -385,48 -410,90 -25,41 -24,93 -26,138 -2,45 -7,83 -20,105 -12,21 -32,27 -116,11 -84,-15 -231,-50 -327,-75 -97,-24 -142,-37 -178,-45 -37,-8 -66,-11 -91,-17 -24,-7 -44,-17 -58,-37 -14,-20 -22,-49 -16,-124 5,-74 23,-194 35,-288 11,-95 15,-163 23,-271 9,-107 22,-253 33,-348 12,-95 21,-139 33,-174 13,-35 29,-61 74,-103 46,-43 121,-101 224,-157 104,-57 236,-112 385,-163 149,-51 315,-97 470,-135 155,-37 298,-66 490,-95 192,-28 432,-56 745,-89 313,-33 700,-71 893,-90 193,-19 193,-19 193,-19 0,0 0,0 42,-35 43,-35 127,-105 264,-202 137,-97 327,-221 503,-323 175,-103 336,-185 472,-244 137,-60 249,-97 388,-133 139,-36 305,-72 495,-98 190,-26 404,-44 623,-55 220,-11 445,-16 653,-10 209,6 400,23 575,42 176,20 335,43 531,83 196,40 428,98 544,127 116,29 116,29 121,34 4,4 14,14 24,24 11,9 22,20 254,106 231,87 682,249 928,335 246,85 287,95 340,100 53,5 117,6 174,14 58,8 108,23 220,40 112,17 286,37 442,48 155,11 292,14 370,19 77,5 94,13 106,28 12,16 18,38 21,92 3,54 1,140 1,250 0,110 2,245 2,312 1,67 1,67 1,67 0,0 0,0 15,9 15,10 45,28 76,56 31,29 63,67 86,114 23,48 38,105 34,285 -3,180 -24,483 -38,638 -14,155 -20,161 -53,169 -32,8 -90,17 -338,19 -248,1 -685,-6 -1157,-5 -473,1 -979,9 -1280,13 -302,4 -398,4 -452,12 -55,9 -68,26 -91,69z"/>
   <polygon class="fil42" points="32967,16642 32959,16911 36005,16855 36084,16594 "/>
   <path class="fil43" d="M30266 16890c-5,5 -9,10 -12,16 -25,41 -24,93 -26,138 -2,45 -7,83 -20,105 -12,21 -32,27 -116,11 -84,-15 -231,-50 -327,-75 -97,-24 -142,-37 -178,-45 -37,-8 -66,-11 -91,-17 -24,-7 -44,-17 -58,-37 -14,-20 -22,-49 -16,-124 2,-35 8,-81 14,-129 67,1 141,6 220,11 170,11 361,26 466,32 106,6 125,3 136,50 4,17 6,39 8,64z"/>
   <path class="fil43" d="M41113 15413l0 71c1,67 1,67 1,67 0,0 0,0 15,9 15,10 45,28 76,56 31,29 63,67 86,114 23,48 38,105 34,285 -3,180 -24,483 -38,638 -14,155 -20,161 -53,169 -32,8 -90,17 -338,19 -226,1 -610,-4 -1034,-5 0,-17 1,-36 1,-57 2,-66 4,-149 -17,-243 -20,-93 -62,-197 -107,-286 -45,-88 -93,-161 -145,-225 -53,-65 -111,-122 -140,-150 -29,-28 -29,-28 69,-41 98,-12 295,-37 462,-69 166,-32 304,-70 398,-107 94,-37 146,-72 181,-109 35,-36 53,-73 62,-106 8,-34 7,-64 22,-78 15,-14 47,-11 138,-2 85,10 222,25 327,50z"/>
   <path class="fil3" d="M41317 16231c-2,37 -4,76 -7,113 -25,4 -51,5 -75,6 -45,2 -83,3 -114,-3 -31,-6 -55,-19 -70,-38 -16,-18 -24,-42 -28,-54 -4,-12 -4,-12 61,-14 56,-2 158,-6 233,-10z"/>
   <path class="fil44" d="M37916 16930c-22,43 -54,111 -80,155 -27,43 -48,62 -94,73 -46,12 -117,18 -1024,16 -906,-1 -2648,-9 -3526,-14 -879,-4 -893,-6 -904,-23 -10,-18 -17,-52 -27,-111l-1 -2 0 -1 0 -1 0 -1 0 -1 -1 -1 0 -1 0 -1 0 -2 0 0 -1 -1 0 -2 0 0 0 -2 0 -1 -1 -1 0 -2 0 0 0 -2 0 -1 0 0 -1 -2 0 -1 0 -1 0 -2 -1 0 0 -2 0 -1 0 -1 -1 -2 0 0 0 -2 0 -1 0 -1 -1 -1 0 -1 0 -1 0 -2 0 -1 -1 -1 0 -2 0 0 0 -2 0 -1 -1 -1 0 -2 0 0 0 -2 0 -1 -1 -1 0 -2 0 0 0 -2 -1 -1 0 -1 0 -2 0 -1 0 -1 -1 -2 0 0 0 -2 0 -1 0 -1 -1 -2 0 0 0 -2 0 -1 0 -1 -1 -2 0 0 0 -2 0 -2 0 0 -1 -2 0 -1 0 -1 0 -2 0 0 -1 -2 0 -1 0 -1 0 -2 -1 0 0 -1 0 -2 0 0 0 -2 -1 -1 0 -1 0 -2 0 -1 0 -1 -1 -2 0 0 0 -2 0 -1 0 -1 -1 -2 0 0 0 -2 0 -1 0 -1 -1 -1c89,-7 315,-13 890,-28 947,-26 2840,-76 3793,-86 954,-9 967,21 980,68 5,21 10,44 16,69l-1 1 -1 2z"/>
   <path class="fil45" d="M37821 17106c-20,29 -41,43 -79,52 -46,12 -117,18 -1024,16 -906,-1 -2648,-9 -3526,-14 -879,-4 -893,-6 -904,-23 -9,-17 -16,-47 -25,-97 79,-5 248,-6 619,-10 683,-7 2049,-20 2954,-32 904,-12 1347,-22 1603,-8 256,15 325,54 365,97 7,6 12,13 17,19z"/>
   <path class="fil41 str3" d="M30277 16880c-15,11 -25,26 -37,50 -7,13 -14,28 -22,43 -13,-48 -22,-97 -28,-147 -4,-39 -6,-78 -6,-118 0,-13 0,-27 1,-41 2,-43 5,-74 9,-103 7,-48 19,-90 32,-125 13,-36 28,-66 34,-51 5,15 1,74 4,156 3,81 12,185 13,278 0,20 0,39 0,58z"/>
   <path class="fil46" d="M29462 17009c-9,-6 -17,-14 -24,-23 -14,-20 -22,-49 -16,-124 5,-74 23,-194 35,-288l0 -2c20,-17 37,-29 56,-40 41,-26 90,-53 127,-66 37,-14 62,-16 86,-12 23,3 46,11 64,30 17,19 31,50 36,84 6,35 5,75 -2,111 -6,35 -18,67 -41,106 -23,39 -57,85 -90,118 -33,34 -65,55 -95,72 -29,15 -56,27 -136,34z"/>
   <path class="fil47" d="M29670 15635c44,-35 103,-75 174,-114 104,-57 236,-112 385,-163 149,-51 315,-97 470,-135 155,-37 298,-66 490,-95 192,-28 432,-56 745,-89 313,-33 700,-71 893,-90 193,-19 193,-19 193,-19 0,0 0,0 42,-35 43,-35 127,-105 264,-202 137,-97 327,-221 503,-323 175,-103 336,-185 472,-244 137,-60 249,-97 388,-133 139,-36 305,-72 495,-98 190,-26 404,-44 623,-55 220,-11 445,-16 653,-10 209,6 400,23 575,42 176,20 335,43 531,83 196,40 428,98 544,127 116,29 116,29 121,34 4,4 14,14 24,24 11,9 22,20 254,106 231,87 682,249 928,335 246,85 287,95 340,100 53,5 117,6 174,14 58,8 108,23 220,40 112,17 286,37 442,48 155,11 292,14 370,19 77,5 94,13 106,28 12,16 18,38 21,92 3,54 1,140 1,250 0,39 0,81 1,122 -119,-28 -245,-58 -360,-80 -177,-35 -330,-51 -936,-37 -607,13 -1667,55 -3547,142 -1881,87 -4581,219 -5932,285 -275,13 -494,24 -667,31z"/>
   <path class="fil48" d="M33045 14910l17 -15c43,-35 127,-105 264,-202 137,-97 327,-221 503,-323 175,-103 336,-185 472,-244 85,-37 160,-65 238,-90 13,8 20,18 21,32 0,16 -8,35 -59,72 -51,36 -145,90 -276,161 -132,71 -300,159 -457,249 -156,89 -301,180 -398,241 -97,60 -147,90 -188,105 -41,16 -72,18 -110,16 -9,-1 -18,-1 -27,-2z"/>
   <path class="fil49" d="M29721 15934c-15,24 -33,46 -51,69 -19,23 -38,46 -54,61 -16,16 -29,24 -40,26 -12,3 -21,0 -27,-9 -6,-10 -10,-27 -7,-65 2,-38 10,-97 16,-136 7,-38 12,-57 20,-71 9,-15 20,-26 36,-34 16,-8 37,-12 57,-13 21,-1 40,1 54,5 13,4 22,9 27,25 5,16 7,42 2,68 -5,25 -18,50 -33,74z"/>
   <path class="fil50" d="M39038 15236c-701,41 -1825,107 -3178,165 -1352,58 -2935,108 -3726,133 -791,25 -791,25 -791,25 0,0 0,0 374,-21 375,-21 1124,-63 2030,-117 906,-54 1968,-120 2876,-168 907,-47 1658,-76 2245,-88 587,-12 1009,-7 1220,-4 211,2 211,2 211,2 0,0 0,0 -140,8 -140,8 -419,24 -1121,65z"/>
   <path class="fil51" d="M30012 15976c113,-77 287,-203 374,-267 87,-63 87,-63 87,-63 0,0 0,0 -35,-2 -34,-2 -103,-6 -178,-3 -76,2 -159,12 -238,29 -78,18 -152,45 -207,69 -54,24 -90,47 -115,71 -25,25 -40,51 -49,87 -9,37 -13,83 -11,118 2,35 10,58 37,72 27,14 73,18 122,6 49,-12 100,-39 213,-117z"/>
   <path class="fil46" d="M37672 14904c-367,14 -796,30 -1260,50 -465,20 -966,43 -1519,70 -552,27 -1156,58 -1453,66 -297,9 -286,-4 -235,-41 50,-36 141,-95 187,-125 45,-30 45,-30 48,-39 3,-9 8,-27 21,-49 13,-21 34,-44 61,-64 26,-20 58,-36 86,-46 27,-11 51,-16 75,-21 25,-4 50,-8 62,-10 13,-2 13,-2 13,-2 0,0 0,0 69,-45 69,-45 208,-135 342,-214 133,-80 263,-150 376,-205 113,-56 211,-97 309,-130 99,-34 197,-60 317,-78 119,-18 259,-27 404,-33 145,-6 295,-9 457,-7 161,2 334,9 469,16 135,6 233,13 367,29 135,17 306,43 463,71 156,27 297,56 455,97 158,40 334,91 485,140 152,49 280,95 375,133 95,38 157,69 200,97 43,27 66,52 78,77 12,24 12,48 4,74 -8,27 -24,56 -44,79 -20,23 -46,40 -86,50 -40,11 -95,15 -275,23 -180,9 -485,22 -851,37z"/>
   <path class="fil52 str3" d="M36853 14384c-33,123 -81,297 -105,384 -23,87 -23,87 -23,87 0,0 0,0 290,-9 291,-8 873,-25 1195,-41 321,-16 383,-31 421,-48 37,-17 51,-37 48,-62 -3,-26 -21,-58 -80,-95 -59,-38 -157,-81 -299,-134 -141,-53 -324,-115 -561,-175 -236,-60 -526,-118 -671,-147 -145,-29 -145,-29 -145,-29 0,0 0,0 -10,36 -9,37 -27,109 -60,233z"/>
   <path class="fil52 str3" d="M36706 14311c-35,127 -93,336 -122,440 -29,104 -29,104 -29,104 0,0 0,0 0,0 0,0 0,0 -179,10 -179,10 -536,29 -983,54 -447,24 -984,53 -1252,68 -268,14 -268,14 -268,14 0,0 0,0 4,-31 5,-32 14,-95 15,-140 2,-45 -5,-71 -19,-88 -14,-16 -35,-23 -45,-26 -11,-3 -11,-3 -11,-3 0,0 0,0 54,-34 53,-34 160,-101 272,-166 112,-64 229,-126 344,-182 115,-56 227,-106 341,-145 114,-38 230,-64 361,-85 130,-20 275,-35 443,-43 168,-7 360,-9 552,-2 193,6 386,21 483,28 97,7 97,7 97,7 0,0 0,0 -6,24 -6,23 -17,69 -52,196z"/>
   <path class="fil48" d="M39553 14575c230,83 241,91 245,97 2,4 2,7 1,11 -8,-1 -15,-1 -22,-2 -53,-5 -94,-15 -340,-100 -246,-86 -697,-248 -928,-335 -232,-86 -243,-97 -254,-106 -2,-3 -5,-5 -7,-7 11,0 25,2 51,8 31,6 78,19 326,105 248,86 698,246 928,329z"/>
   <path class="fil3" d="M41111 15130l0 42c0,110 2,245 2,312 1,67 1,67 1,67l1 1c-21,9 -47,11 -75,12 -57,2 -124,0 -192,-14 -68,-13 -136,-40 -210,-90 -73,-50 -151,-124 -193,-172 -43,-48 -51,-70 -45,-93 7,-22 28,-45 70,-68 41,-24 103,-49 167,-65 64,-16 130,-23 189,-23 60,0 112,7 154,18 41,12 72,27 100,46 11,7 21,15 31,27z"/>
   <path class="fil46" d="M38895 15674c571,0 1034,463 1034,1034 0,43 -3,86 -8,128 -42,0 -85,0 -127,0 5,-42 9,-85 9,-128 0,-501 -407,-908 -908,-908 -467,0 -852,352 -902,806 17,57 31,144 33,192 3,56 -11,59 -24,62l-2 1 0 1c-7,2 -13,3 -19,5 -5,1 -9,3 -13,5 -10,5 -18,11 -26,20 -7,8 -15,20 -25,39 -10,19 -24,47 -40,78 -17,31 -37,66 -47,83 -10,18 -10,18 -10,18 0,0 0,0 3,-38 3,-38 9,-113 16,-186 7,-73 13,-144 18,-191 2,-16 3,-30 5,-41 28,-546 479,-980 1033,-980z"/>
   <g>
    <path class="fil53 str3" d="M38895 15800c-502,0 -908,407 -908,908 0,501 406,908 908,908 501,0 908,-407 908,-908 0,-501 -407,-908 -908,-908zm603 1020c-61,7 -176,10 -357,15 -180,5 -427,13 -588,17 -161,4 -236,4 -273,4 -38,0 -38,0 -38,0 0,0 0,0 5,11 4,12 13,34 32,74 18,39 46,96 78,143 33,46 70,83 114,118 44,34 95,66 140,89 45,23 83,37 133,46 49,10 110,14 159,15 48,1 85,0 135,-11 51,-10 114,-30 173,-59 58,-29 112,-67 162,-125 49,-57 94,-133 127,-198 33,-65 54,-117 61,-138 6,-20 -2,-8 -63,-1z"/>
    <circle class="fil54" cx="38886" cy="16699" r="475"/>
    <circle class="fil17 str3" cx="38895" cy="16708" r="107"/>
    <path class="fil55" d="M38895 16010c-386,0 -699,312 -699,698 0,386 313,698 699,698 385,0 698,-312 698,-698 0,-386 -313,-698 -698,-698zm0 492c-14,0 -27,2 -39,4l-16 -427c18,-1 36,-2 55,-2 14,0 27,1 41,2l-3 427c-13,-2 -25,-4 -38,-4zm-69 12c-46,16 -84,48 -108,89l-366 -216c84,-142 222,-249 387,-290l87 417zm-122 117c-8,21 -13,43 -15,66l-416 -94c7,-47 20,-92 38,-134l393 162zm-13 104c5,43 24,82 52,112l-312 289c-104,-112 -167,-263 -167,-428 0,-9 0,-18 0,-27l427 54zm75 134c17,13 36,24 57,32l-228 362c-35,-18 -68,-40 -98,-65l269 -329zm85 40c14,3 29,5 44,5 23,0 45,-4 66,-11l190 382c-78,35 -165,54 -256,54 -83,0 -162,-16 -235,-45l191 -385zm136 -17c19,-9 36,-22 51,-36l281 319c-31,29 -66,54 -104,77l-228 -360zm74 -63c24,-32 38,-72 39,-115l424 -45c1,13 2,26 2,39 0,162 -62,310 -162,422l-303 -301zm38 -148c-4,-24 -11,-48 -22,-69l405 -136c13,34 24,69 31,106l-414 99zm-40 -96c-23,-32 -56,-56 -93,-70l64 -423c174,38 322,148 409,298l-380 195z"/>
    <circle class="fil56" cx="38892" cy="16705" r="107"/>
   </g>
   <path class="fil46" d="M31218 15674c572,0 1035,463 1035,1034 0,34 -2,67 -5,100l-2 27c-1,25 -2,50 -3,63 -1,12 -1,12 -1,12l-2 -1 -1 6c0,0 0,0 -30,-3 -30,-3 -91,-8 -173,-15 -81,-7 -184,-17 -288,-23 -105,-6 -210,-8 -354,-3 -145,5 -328,19 -469,40 -141,22 -240,52 -323,79 -82,26 -148,49 -209,74 -60,25 -116,52 -148,71 -20,11 -31,19 -38,22 -6,5 -10,8 -14,9 -5,3 -8,4 -10,1 -2,1 -4,1 -6,1 0,-9 0,-21 0,-36 1,-81 2,-245 4,-354 1,-45 2,-81 4,-111 21,-552 476,-993 1033,-993zm898 897c-66,-436 -443,-770 -898,-770 -487,0 -885,384 -907,867 46,-61 125,-104 320,-129 211,-28 558,-36 836,-29 279,8 490,30 608,53 15,2 29,5 41,8z"/>
   <g>
    <path class="fil53" d="M31218 15792c-501,0 -907,406 -907,908 0,501 406,907 907,907 502,0 908,-406 908,-907 0,-502 -406,-908 -908,-908zm604 1019c-62,8 -176,10 -357,16 -181,5 -427,13 -588,17 -161,4 -236,4 -274,4 -37,0 -37,0 -37,0 0,0 0,0 4,11 5,11 14,33 33,73 18,40 46,96 78,143 32,47 69,84 114,118 44,34 95,66 140,89 45,23 83,38 132,47 50,9 111,13 159,14 49,2 86,0 136,-10 50,-11 114,-30 172,-59 59,-29 113,-68 162,-125 50,-57 95,-134 128,-199 33,-64 54,-117 60,-137 7,-21 -1,-9 -62,-2z"/>
    <circle class="fil54" cx="31209" cy="16690" r="475"/>
    <circle class="fil17" cx="31218" cy="16700" r="107"/>
    <path class="fil55" d="M31218 16001c-385,0 -698,313 -698,699 0,385 313,698 698,698 386,0 699,-313 699,-698 0,-386 -313,-699 -699,-699zm0 493c-13,0 -26,1 -39,4l-15 -427c18,-2 36,-2 54,-2 14,0 28,0 42,1l-4 427c-12,-2 -25,-3 -38,-3zm-68 12c-46,16 -84,48 -108,88l-367 -216c85,-142 223,-248 387,-290l88 418zm-123 117c-8,20 -13,42 -14,65l-417 -94c8,-46 21,-91 38,-133l393 162zm-13 103c6,44 25,82 53,113l-312 289c-104,-113 -168,-263 -168,-428 0,-10 1,-19 1,-28l426 54zm76 134c17,14 36,25 56,32l-227 363c-35,-19 -68,-41 -98,-66l269 -329zm84 40c15,4 29,5 44,5 24,0 46,-4 67,-11l190 382c-78,35 -165,54 -257,54 -83,0 -162,-16 -234,-45l190 -385zm136 -16c19,-10 37,-22 52,-37l281 319c-32,29 -67,55 -104,77l-229 -359zm75 -64c23,-32 38,-72 39,-114l424 -45c1,13 1,25 1,39 0,162 -61,310 -161,421l-303 -301zm37 -147c-3,-25 -10,-48 -21,-69l404 -136c14,33 24,69 32,105l-415 100zm-39 -97c-23,-31 -56,-56 -93,-69l64 -424c174,38 321,148 409,298l-380 195z"/>
    <circle class="fil56" cx="31215" cy="16696" r="107"/>
   </g>
   <path class="fil45" d="M35875 15238c8,20 13,42 15,69 1,27 -2,59 -16,83 -15,25 -41,42 -85,52 -44,10 -106,12 -159,0 -53,-12 -96,-38 -123,-63 -26,-25 -35,-49 -31,-69 3,-21 21,-38 69,-59 49,-21 130,-46 185,-58 55,-12 86,-10 106,-1 21,9 31,26 39,46z"/>
   <path class="fil57" d="M35925 15350c-111,13 -328,19 -444,17 -115,-1 -128,-9 -133,-20 -6,-10 -3,-23 6,-35 9,-11 25,-20 127,-32 103,-13 291,-29 397,-34 105,-5 128,0 141,10 13,10 17,24 18,42 0,18 -2,39 -112,52z"/>
  </g>
  <polygon class="fil58" points="48792,19559 2,19559 2,17704 48792,17704 "/>
  <path class="fil57" style="mask:url(#id0)" d="M30385 15712c-109,75 -279,207 -401,285 -122,78 -196,102 -415,208 -220,105 -586,293 -1084,480 -498,188 -1128,375 -1628,488 -500,113 -870,151 -1055,170 -185,20 -185,20 -185,20 0,0 0,0 0,0 0,0 0,0 0,-434 0,-435 0,-1303 0,-1737 0,-434 0,-434 0,-434 0,0 0,0 829,141 828,141 2486,422 3291,571 805,150 757,167 648,242z"/>
  <rect class="fil59" y="17607" width="48790" height="102"/>
  <rect class="fil60" x="3889" y="13535" width="156" height="4074"/>
  <rect class="fil60" x="8139" y="13552" width="156" height="4057"/>
  <g id="_2997098864912">
   <rect class="fil61" x="3227" y="11705" width="5637" height="2854" rx="311" ry="311"/>
   <rect class="fil57" x="3322" y="11800" width="5448" height="2665" rx="212" ry="216"/>
   <path class="fil62" d="M5898 12340c7,-14 39,-33 59,-42 12,5 17,9 28,14 -14,10 -65,26 -87,28zm-1668 199c34,-62 313,-184 427,-223l128 -41c13,-2 14,-1 24,4 4,1 5,2 9,4 0,1 3,2 4,2 4,3 2,2 5,5 -37,58 -325,163 -430,199 -43,15 -118,44 -167,50zm680 -295l-24 34c-8,-3 -3,0 -9,-5l-16 -19 49 -10zm36 87c-4,-32 76,-103 109,-120 9,10 2,27 56,29 -23,33 -120,73 -165,91zm1067 -29c3,-8 22,-35 28,-40 9,-7 37,-16 51,-20 28,-10 87,-30 114,-34 -68,37 -64,37 -142,73 -15,8 -34,16 -51,21zm-907 -92c2,-17 8,-28 28,-31 3,8 8,12 5,24l-33 7zm666 -40c20,-34 156,-156 210,-162 -4,45 -58,74 -86,96 -20,15 -93,56 -124,66zm306 43c9,-20 37,-52 52,-72 18,-24 37,-46 56,-69 19,-23 37,-45 55,-68 30,-35 -7,-77 -33,-69 -26,9 -209,253 -239,293 -22,30 -13,23 -52,41 -21,9 -45,24 -64,31 8,-25 40,-39 16,-67 -18,-21 -41,-31 -78,-17 -72,28 -86,66 -128,88 10,-15 22,-31 34,-46 17,-22 17,-27 49,-37 48,-16 88,-33 128,-53 217,-109 176,-204 92,-197 -62,6 -136,64 -172,94 -46,38 -89,83 -127,127 -20,24 -21,23 -70,26 7,-18 33,-32 28,-49 -5,-14 -30,-35 -55,-30 -7,4 -60,71 -66,80l-35 -1c-7,-11 -1,-20 -13,-33 -8,-9 -16,-17 -35,-19 -11,6 -34,31 -42,39 -13,13 -27,26 -40,38 -14,13 -30,27 -43,37 -17,12 -34,26 -54,33 15,-42 87,-90 108,-132 9,-19 -2,-27 -16,-36 -20,-14 -25,-10 -45,0 -16,8 -73,35 -94,37 -16,-26 -19,-50 -70,-51 -79,-2 -140,68 -179,80 -8,2 -111,22 -117,22 -13,-6 -21,-12 -38,-18 -45,-18 -92,-28 -145,-34 -63,-8 -175,-9 -228,-21 3,-19 77,-62 102,-74 181,-89 538,-141 529,-56 -6,59 -185,65 -122,117 24,20 37,11 64,-1 234,-105 137,-230 -187,-191 -136,16 -336,70 -418,144 -41,37 -36,77 15,101 48,21 104,22 167,28 63,6 113,15 171,26 -14,11 -76,25 -95,30 -166,50 -379,137 -487,243 -27,27 -29,41 11,62 38,20 62,13 105,4 37,-8 69,-17 103,-26 64,-17 131,-41 189,-62 63,-23 118,-48 173,-74 40,-19 81,-40 116,-64 12,-8 25,-19 39,-23 20,18 57,40 106,27 52,-14 135,-70 165,-103 11,-12 18,-22 26,-36 10,-16 29,-15 45,-23 -8,29 -108,93 -76,131 69,80 116,-10 155,-29 -6,21 -25,36 -20,60 4,17 26,40 52,37 9,-7 36,-71 45,-87 18,-30 34,-55 55,-81l29 15c-3,12 -52,84 -63,103 -7,13 -28,43 -22,58 5,14 33,32 62,30 9,-8 48,-90 60,-109 10,-17 21,-33 33,-51 17,-24 18,-28 67,-28 -14,25 -43,59 -60,86 -12,19 -19,28 -3,48 11,14 24,30 54,27 34,-39 133,-150 193,-164 -16,34 -41,68 -58,102 -7,14 -25,41 -17,55 8,17 30,30 63,28 12,-26 22,-54 37,-79l8 -10c10,31 17,45 70,37 35,-6 64,-15 95,-25 144,-47 357,-140 446,-232 84,-86 60,-188 -89,-231 -134,-39 -310,-15 -439,16 -59,13 -132,32 -181,52 -29,11 -55,28 -40,61 27,56 127,-88 448,-110 254,-17 364,63 204,206 -10,9 -52,37 -69,42l-196 46z"/>
   <path class="fil62" d="M6953 12286c5,-58 101,-144 154,-156 2,35 -40,68 -61,89 -17,16 -66,62 -93,67zm-224 -59c4,-8 11,-11 18,-17 8,-6 10,-8 20,-14 18,-11 86,-65 126,-73 -10,26 -112,101 -164,104zm-27 42c39,8 214,88 235,103 -107,8 -218,7 -327,14 -239,15 -368,23 -605,60 -49,8 -94,15 -143,23 -20,3 -54,6 -65,15 -15,14 -8,37 9,47 22,13 105,-8 135,-14 151,-26 271,-48 430,-66 195,-22 426,-42 631,-44 16,10 32,23 47,34 11,8 38,30 49,35 25,12 46,-9 36,-29 -7,-16 -32,-26 -43,-41 276,-2 506,14 777,47 34,4 71,9 106,14 33,4 87,17 102,7 -4,-10 -8,-8 -24,-11l-99 -17c-226,-37 -483,-62 -714,-69 -51,-2 -103,-4 -153,-4 -38,0 -44,3 -67,-11 -16,-10 -30,-17 -43,-27 64,-30 99,-53 144,-101 18,-19 37,-41 49,-67 17,-37 7,-56 -25,-74 -43,-23 -66,-13 -100,4 -30,15 -50,32 -72,51 -50,45 -91,88 -76,147 -15,-3 -79,-31 -84,-38 9,-7 25,-15 37,-22 56,-34 160,-100 70,-150 -37,-21 -71,10 -97,17 20,-29 55,-64 80,-91 10,-9 38,-35 39,-48 0,-17 -30,-43 -45,-45 -16,-3 -19,8 -27,17 -8,8 -14,14 -21,23 -38,44 -83,96 -116,141 -49,66 -93,129 -140,199 -10,16 -30,36 -16,55 7,8 42,37 60,21 13,-11 43,-85 66,-105z"/>
   <path class="fil62" d="M7354 12270c7,-45 65,-75 94,-98 21,-16 91,-59 141,-58 3,19 -17,30 -42,50 -43,34 -139,91 -193,106zm-138 -172c28,2 31,-2 55,-4l-45 47c-39,40 -95,102 -128,143 -19,23 -25,30 0,54 33,33 41,11 120,-35 17,-10 46,-27 70,-32 0,35 32,64 66,57 40,-9 64,-33 90,-45 -7,20 -24,34 -12,60 23,49 114,9 228,-6 56,-8 120,-15 181,-16 35,-1 150,10 167,-24 -26,-27 -202,-11 -253,-7 -38,4 -232,31 -247,29 10,-21 112,-121 138,-142 24,-19 -2,-22 -1,-37 1,-8 12,-5 3,-21 -9,-16 -62,-42 -93,-43 -63,-3 -161,63 -185,83 -13,10 -23,18 -35,30 -8,7 -23,26 -32,32 -7,5 -86,39 -96,42 10,-19 159,-168 182,-185 18,-13 249,-21 281,-22 46,0 215,9 239,5 15,-38 -31,-36 -75,-37 -42,-1 -83,-3 -125,-3 -91,-1 -172,4 -260,6 7,-29 -20,-64 -47,-47 -15,9 -46,36 -60,49 -14,14 -16,10 -44,14 -82,9 -129,4 -82,55z"/>
   <path class="fil62" d="M6356 12325c12,-35 59,-89 84,-111 26,-23 81,-62 137,-72 -24,52 -166,169 -221,183zm124 -26c-8,27 -23,35 1,62 16,19 38,30 54,-2 21,-46 65,-120 95,-166 9,-14 52,-65 1,-80 -11,-3 -10,0 -21,-4 -43,-13 -58,-16 -107,5 -85,38 -162,91 -205,166 -46,80 34,97 62,91 22,-4 55,-23 66,-30 16,-10 42,-36 54,-42z"/>
   <path class="fil63" d="M4230 12539c49,-6 124,-35 167,-50 105,-36 393,-141 430,-199 -3,-3 -1,-2 -5,-5 -1,0 -4,-1 -4,-2 -4,-2 -5,-3 -9,-4 -10,-5 -11,-6 -24,-4l-128 41c-114,39 -393,161 -427,223z"/>
   <path class="fil63" d="M7354 12270c54,-15 150,-72 193,-106 25,-20 45,-31 42,-50 -50,-1 -120,42 -141,58 -29,23 -87,53 -94,98z"/>
   <path class="fil63" d="M6356 12325c55,-14 197,-131 221,-183 -56,10 -111,49 -137,72 -25,22 -72,76 -84,111z"/>
   <path class="fil63" d="M5772 12170c31,-10 104,-51 124,-66 28,-22 82,-51 86,-96 -54,6 -190,128 -210,162z"/>
   <path class="fil63" d="M4946 12331c45,-18 142,-58 165,-91 -54,-2 -47,-19 -56,-29 -33,17 -113,88 -109,120z"/>
   <path class="fil63" d="M6953 12286c27,-5 76,-51 93,-67 21,-21 63,-54 61,-89 -53,12 -149,98 -154,156z"/>
   <path class="fil64" d="M6013 12302c17,-5 36,-13 51,-21 78,-36 74,-36 142,-73 -27,4 -86,24 -114,34 -14,4 -42,13 -51,20 -6,5 -25,32 -28,40z"/>
   <path class="fil64" d="M6729 12227c52,-3 154,-78 164,-104 -40,8 -108,62 -126,73 -10,6 -12,8 -20,14 -7,6 -14,9 -18,17z"/>
   <path class="fil64" d="M5888 12340c23,-2 74,-18 88,-28 -12,-5 -17,-9 -28,-14 -20,9 -52,28 -60,42z"/>
   <path class="fil64" d="M4861 12254l16 19c6,5 1,2 9,5l24 -34 -49 10z"/>
   <path class="fil64" d="M5106 12210l33 -7c3,-12 -2,-16 -5,-24 -20,3 -26,14 -28,31z"/>
   <path class="fil65" d="M5166 13476c2,23 28,28 -46,91 -70,60 -157,93 -221,169 -10,12 -22,32 -45,29 -9,-26 -3,-26 -19,-54 -31,-52 8,-84 8,-122 1,-33 -19,-26 -43,-36 24,-70 138,-29 303,-93 62,-24 112,-45 156,-86 15,-14 47,-54 81,-65 -4,25 -55,68 -66,100 -15,41 -66,27 -108,67zm48 -288c4,-3 -1,-2 9,-4l35 0c61,1 72,-23 110,-36 -7,15 -39,39 -62,48 -28,12 -70,13 -92,-8zm1159 -66c-24,-51 -4,-93 14,-140 19,-48 -28,-70 126,-72 23,-1 40,-2 62,-6 77,-15 28,-31 127,37 21,14 10,18 71,48 26,12 40,-7 61,-12 18,9 34,22 44,35 19,24 10,32 11,62 2,38 39,102 16,126 -21,-20 -4,-43 -102,-58 -8,-1 -16,-3 -25,-4 -46,-6 -15,38 -17,69 -4,83 32,34 82,79 36,32 33,4 45,40 27,77 19,117 -4,198 -4,14 -12,51 -25,58 -12,-12 -20,-81 -47,-112 -3,-3 -27,-25 -31,-27 -10,18 15,20 2,63 -10,-4 -5,0 -10,-9 -1,-2 -3,-9 -4,-12 -22,4 -5,4 -23,11 -3,-27 -3,-28 -14,-34 -13,13 -5,24 -25,29 -10,-14 0,-22 -10,-34 -15,7 -10,25 -37,35l7 -31c-24,7 -23,22 -51,24l-6 -14c0,-1 -1,-2 -1,-2 -41,10 -43,33 -60,40 -1,-1 -1,-3 -2,-3 0,1 -1,-2 -1,-2l-6 -23c-23,7 -4,5 -20,27 -6,7 -14,16 -23,18 -13,-19 2,-42 2,-64 -49,8 -92,175 60,82 64,-40 40,-25 109,-13 67,11 118,-5 110,38 -36,13 -72,-2 -105,-7 -23,-3 -36,0 -57,-1 -21,0 -33,-7 -50,-10 4,14 9,10 15,22 5,12 -1,17 8,27 26,9 67,2 97,1 25,0 107,14 115,34 8,22 8,85 -58,88 -31,1 -55,-10 -80,-19 -96,-35 -193,15 -277,-8 -58,-17 -68,-51 -84,-107 -22,-76 -65,-258 -35,-330 12,-30 75,-96 94,-100 14,14 11,27 23,44 39,54 72,10 91,8 8,0 61,4 66,5 0,7 9,13 -23,21 -7,2 -13,2 -21,4l-11 3c0,0 -1,1 -2,2l-4 3c28,23 75,-6 105,-9 39,-5 41,-7 55,-65 1,-1 2,-1 2,0l7 0c8,-1 14,8 10,-33 -3,-32 9,-26 14,-48 -37,3 -5,22 -65,14 -131,-18 -171,17 -235,14zm-1647 -528c8,-2 13,-9 23,-15 11,-7 17,-11 28,-17 57,-33 115,-70 188,-73 107,-3 205,24 282,67 69,38 139,94 168,173 22,59 34,126 66,182 10,18 31,41 36,53 -17,24 -49,32 -87,32 -11,-13 -9,-32 -29,-35 -15,40 5,59 -54,85 -26,11 -88,26 -119,30 8,-30 72,-75 51,-104l-33 43c-14,12 -31,23 -43,35 -17,17 -10,20 -41,33 -14,6 -52,12 -58,20 10,10 24,5 63,13 79,16 139,-10 205,-30 -6,11 -15,14 -27,20 -11,5 -19,9 -31,14 -46,19 -40,11 -72,21 -51,17 -24,13 -74,2 -11,-2 -79,-1 -92,0 6,42 133,30 83,122 -38,70 -163,56 -221,72 -17,5 -23,11 -45,14 -75,13 -140,-21 -214,-22 -17,0 -88,12 -101,17 -6,59 58,80 103,105 116,67 69,199 28,298 -10,25 -21,49 -31,72 -11,23 -29,50 -36,73 5,-1 129,-62 214,-88 450,-136 918,-76 1374,-6 70,11 469,81 508,99 -38,2 -236,-33 -289,-40 -493,-68 -1032,-141 -1518,-10 -86,23 -171,50 -241,86 -30,16 -85,37 -99,65 -11,21 -49,89 -53,106 65,-32 83,-53 167,-85 206,-79 392,-130 625,-155 472,-52 985,41 1451,96 166,20 323,35 498,22 145,-12 302,-55 381,-133 116,-113 63,-273 -107,-271 13,22 97,82 50,190 -51,121 -250,152 -381,160 -45,3 -237,6 -269,-4 9,-5 101,-2 121,-3 41,-2 83,-5 121,-10 77,-9 140,-27 200,-55 211,-100 117,-290 85,-310 -35,48 -83,40 -124,79 -13,13 -7,13 -21,20l-23 18c-7,7 -14,11 -30,12 -1,-33 45,-69 15,-89 -11,8 -5,22 -19,35 -11,10 -27,11 -43,16 -34,11 -50,23 -80,34 1,-15 6,-12 -1,-27 -8,-17 -3,-17 -7,-33 -32,2 -27,44 -29,66 -1,10 -3,17 -12,21 -16,-12 -1,-20 -29,-32 -10,-4 -12,-3 -23,-1l-24 4c-9,3 -5,21 -19,29 -5,-5 -4,-1 -7,-11 -2,-3 -3,-9 -3,-13 -1,-11 1,-19 -4,-28 -22,3 -7,15 -26,27 -1,-31 -3,-60 14,-83 15,-20 6,-13 10,-38 1,-13 8,-24 10,-39 6,-54 -29,-135 -3,-167 14,0 77,26 64,61 -6,16 -19,26 -25,42 -6,16 -21,32 -19,47l123 -20c29,-1 120,13 137,4 -10,-23 -57,-9 -86,-18 -36,-11 -44,-16 -89,-17 24,-72 83,-78 84,-105 -16,1 -27,10 -44,6 -35,-8 -51,-21 -93,-16 -22,2 -28,1 -38,-13 -31,-40 53,-96 57,-133l-49 5c3,-14 3,-25 20,-29 24,-5 17,8 39,14 21,-41 43,-69 46,-117 -31,11 -11,17 -58,21 -37,4 -31,17 -53,23 -27,-21 -9,-31 9,-53 49,-59 33,-81 75,-105 59,-34 54,-80 106,-82 26,-1 54,-9 75,-17 40,-16 41,-6 82,-3 25,2 65,1 81,-15l-6 -2c-25,-7 18,2 -6,-2 -5,-1 -12,0 -18,0 -41,2 -47,-10 -83,-19 -37,-10 -65,18 -111,20 11,-35 50,-48 53,-67 -24,-2 -24,7 -45,9 -22,3 -29,4 -45,14 -18,12 -47,54 -58,56 -24,-41 14,-92 48,-114 48,-32 124,-16 135,-40 -51,0 -100,-17 -139,-6 -23,6 -30,19 -47,29 -19,10 -33,5 -57,22 -29,19 -47,54 -52,99 -4,40 1,103 -54,95 -13,-9 -16,-15 -17,-35 -1,-9 -1,-18 -2,-26 0,-2 -2,-9 -2,-10 -4,-8 0,-3 -7,-8 -11,19 -3,71 -4,95 -1,23 -8,43 -5,65l0 16c0,0 0,1 0,2 -1,0 -1,2 -1,2 -20,6 -20,-2 -30,-15 -11,-14 -15,-12 -14,-31 2,-29 -22,-56 -42,-63 3,19 11,35 -3,51l-3 -4c-17,-20 -35,-58 -62,-64 2,24 42,40 24,75 -1,0 -2,0 -3,1 -6,14 -49,-45 -81,-65 -25,-15 -43,-31 -58,-54 -6,-10 -8,-18 -14,-24 -7,6 -11,14 -18,21 -24,27 -48,43 -92,42 2,-33 23,-45 26,-71 -13,5 -23,17 -32,26 -12,10 -18,22 -31,27 -5,-43 28,-44 29,-65 -30,5 -50,25 -63,43 -34,47 -4,17 -60,49 -26,14 -33,37 -59,49 -15,7 -25,11 -35,20 -10,8 -15,20 -28,25 -23,-31 -18,-92 -58,-128 -32,-31 -100,-15 -148,-49 -23,-16 -57,-75 -87,-101 -20,-16 -38,-20 -72,-24 -23,-2 -63,-6 -86,0 -10,3 -4,0 -9,5 66,30 56,-35 232,118 59,51 65,117 84,125l-3 -66c39,0 52,3 74,22 15,12 32,34 34,59 -29,-17 -33,-8 -50,14 -28,36 -25,23 -46,32 1,23 15,95 25,113 10,-4 12,-18 22,-25 21,-17 50,-29 68,-51l12 -14c19,32 12,100 -22,122 -23,15 -19,7 -40,8 -10,49 44,78 -65,112 6,56 14,57 -4,119 -7,24 -37,118 -69,78 -9,-10 -1,-5 -11,-13 -82,28 -83,33 -180,31 -55,-1 -227,-15 -248,-68 -53,-131 -13,-221 -25,-265 -23,6 -56,83 -61,113 -9,49 21,45 -13,150 -13,-13 -62,-77 -68,-91 -12,-29 -24,-105 -15,-140 3,-12 68,-66 83,-80 42,-42 29,-55 30,-121 37,8 69,47 84,54 11,-15 -10,-20 11,-36 13,6 14,19 32,21 24,2 24,-11 38,-17 10,0 14,8 22,8 23,1 -9,-30 -14,-34 -17,-14 -30,-12 -54,-13 38,-30 66,13 102,13 73,0 35,-85 25,-93 -19,-15 -155,-26 -217,36 -9,9 -14,22 -29,24 -6,-36 6,-77 24,-99 24,4 29,25 66,5 18,-9 44,-21 47,-38 -73,8 -95,9 -67,-96 5,-19 16,-36 16,-54 -36,4 -48,50 -80,63 7,-28 16,-21 25,-42 -33,0 -77,34 -98,55l-23 25c-1,0 -2,1 -2,2 -19,-23 -30,-63 -53,-93 -23,-29 -46,-50 -74,-73 -106,-87 -290,-183 -444,-129 -35,12 -71,31 -99,48 -20,12 -66,50 -70,76z"/>
   <path class="fil66" d="M6722 13450c-31,-5 -17,-23 -72,-38 -31,-9 -66,-24 -28,-47 12,-7 65,-31 80,-27 16,4 14,16 40,14 19,-1 26,-13 41,-10 4,25 18,56 -6,72 -9,6 -22,10 -30,17 -11,9 -11,13 -25,19zm-197 -143c62,-11 74,-53 102,-59 -5,48 -66,93 -122,66l20 -7zm127 -109l18 1c2,11 2,15 -4,25 -6,9 -7,10 -18,12l4 -38zm31 -68c10,-25 62,-26 62,5 -13,5 -38,-5 -62,-5zm-310 -8c64,3 104,-32 235,-14 60,8 28,-11 65,-14 -5,22 -17,16 -14,48 4,41 -2,32 -10,33l-7 0c0,-1 -1,-1 -2,0 -14,58 -16,60 -55,65 -30,3 -77,32 -105,9l4 -3c1,-1 2,-2 2,-2l11 -3c8,-2 14,-2 21,-4 32,-8 23,-14 23,-21 -5,-1 -58,-5 -66,-5 -19,2 -52,46 -91,-8 -12,-17 -9,-30 -23,-44 -19,4 -82,70 -94,100 -30,72 13,254 35,330 16,56 26,90 84,107 84,23 181,-27 277,8 25,9 49,20 80,19 66,-3 66,-66 58,-88 -8,-20 -90,-34 -115,-34 -30,1 -71,8 -97,-1 -9,-10 -3,-15 -8,-27 -6,-12 -11,-8 -15,-22 17,3 29,10 50,10 21,1 34,-2 57,1 33,5 69,20 105,7 8,-43 -43,-27 -110,-38 -69,-12 -45,-27 -109,13 -152,93 -109,-74 -60,-82 0,22 -15,45 -2,64 9,-2 17,-11 23,-18 16,-22 -3,-20 20,-27l6 23c0,0 1,3 1,2 1,0 1,2 2,3 17,-7 19,-30 60,-40 0,0 1,1 1,2l6 14c28,-2 27,-17 51,-24l-7 31c27,-10 22,-28 37,-35 10,12 0,20 10,34 20,-5 12,-16 25,-29 11,6 11,7 14,34 18,-7 1,-7 23,-11 1,3 3,10 4,12 5,9 0,5 10,9 13,-43 -12,-45 -2,-63 4,2 28,24 31,27 27,31 35,100 47,112 13,-7 21,-44 25,-58 23,-81 31,-121 4,-198 -12,-36 -9,-8 -45,-40 -50,-45 -86,4 -82,-79 2,-31 -29,-75 17,-69 9,1 17,3 25,4 98,15 81,38 102,58 23,-24 -14,-88 -16,-126 -1,-30 8,-38 -11,-62 -10,-13 -26,-26 -44,-35 -21,5 -35,24 -61,12 -61,-30 -50,-34 -71,-48 -99,-68 -50,-52 -127,-37 -22,4 -39,5 -62,6 -154,2 -107,24 -126,72 -18,47 -38,89 -14,140z"/>
   <path class="fil66" d="M5166 13476c42,-40 93,-26 108,-67 11,-32 62,-75 66,-100 -34,11 -66,51 -81,65 -44,41 -94,62 -156,86 -165,64 -279,23 -303,93 24,10 44,3 43,36 0,38 -39,70 -8,122 16,28 10,28 19,54 23,3 35,-17 45,-29 64,-76 151,-109 221,-169 74,-63 48,-68 46,-91z"/>
   <path class="fil65" d="M4887 12845c6,-32 57,-18 81,-10 16,6 24,11 36,19 11,7 26,13 34,21 -35,-1 -53,-10 -74,-23 -31,-18 -41,-6 -77,-7zm-142 -79c2,22 12,11 9,36 -2,16 -11,24 -2,40 7,14 25,43 50,42 18,0 20,-4 42,-2 65,4 40,-12 83,0 15,5 28,0 41,8 -6,10 -6,2 -21,10 10,19 90,7 106,2 28,-8 16,-15 28,-32 10,-13 22,-6 31,-29 -6,-16 -46,-43 -69,-52 -15,-5 -34,-5 -51,-11 -18,-6 -32,-10 -50,-16 -65,-18 -34,-6 -42,-20 -3,-5 -2,-8 -23,-9 -51,-2 -89,21 -132,33z"/>
   <path class="fil65" d="M7262 13161c3,-27 31,-38 65,-30 17,3 52,21 71,31l-14 6c-21,3 -35,-4 -53,-11 -45,-19 -41,2 -69,4zm-29 59c31,-3 33,-17 49,-33 15,7 13,20 42,14 22,-5 12,-17 43,-13 19,2 26,7 50,7 20,-1 32,-3 54,-2 -2,-35 -9,-46 -15,-78 -52,-12 -43,-24 -82,-44 -62,-30 -119,-17 -159,-19 -16,-1 -20,-6 -39,-4l-24 46c-9,19 8,29 18,45 26,42 45,29 63,81z"/>
   <path class="fil65" d="M6058 13003c-24,-4 -40,-14 -70,-10 -21,4 -42,18 -44,40 18,-4 11,-7 26,-13 49,45 56,4 77,4 12,1 10,4 11,5 -9,13 -6,0 -12,16 23,11 84,-23 32,-96 -32,-44 -45,-51 -120,-62 -36,-5 -52,-5 -62,25 -10,31 -3,53 19,64 51,27 110,-30 143,27z"/>
   <path class="fil65" d="M4604 12966c6,-23 23,-44 28,-68 -19,3 -10,5 -28,8 -1,-38 12,-31 41,-38 21,-6 61,-91 58,-97 -5,-13 -53,-3 -64,4 -37,25 -75,46 -82,77 -11,48 14,49 25,92 3,15 3,19 22,22z"/>
   <path class="fil65" d="M4811 13018c-19,-4 -32,-4 -49,-10 -19,-6 -28,-9 -51,-10 -20,0 -39,1 -59,3 -8,2 -17,3 -26,3 -16,0 -13,-3 -28,-4 -10,37 19,36 45,53 31,20 18,55 50,55 32,0 22,-18 63,-44 23,-14 58,-16 55,-46z"/>
   <path class="fil65" d="M6722 13450c14,-6 14,-10 25,-19 8,-7 21,-11 30,-17 24,-16 10,-47 6,-72 -15,-3 -22,9 -41,10 -26,2 -24,-10 -40,-14 -15,-4 -68,20 -80,27 -38,23 -3,38 28,47 55,15 41,33 72,38z"/>
   <path class="fil67" d="M5074 12602c1,0 2,0 2,1l8 6c11,5 23,8 34,20 30,32 7,97 39,169 23,53 51,143 24,200 -6,12 -9,10 -14,26 44,-12 61,-81 44,-127 -12,-33 -17,-34 -5,-70 21,-63 4,-60 -19,-57 -28,-73 -18,-120 -60,-152 -11,-9 -37,-24 -53,-16z"/>
   <path class="fil65" d="M5855 13198c32,0 25,-13 48,-21 21,-8 35,-3 36,-32 0,-13 -11,-36 -18,-45 -17,-23 -24,-5 -50,-5 -19,1 -53,-32 -79,39 -19,55 31,17 63,64z"/>
   <path class="fil65" d="M7033 13537c-4,27 10,21 9,38 0,12 -11,20 -12,41 21,-5 25,-19 55,-27 19,-4 49,-5 64,-16 31,-20 8,-28 72,-47 15,-5 19,-6 24,-19 -42,-2 -114,16 -158,23 -25,5 -34,-3 -54,7z"/>
   <path class="fil68" d="M5703 13275c5,29 72,1 158,4 33,1 52,-1 83,7 17,4 59,20 71,5 -4,-7 -23,-11 -31,-16 -79,-44 -66,-13 -120,-18 -66,-7 -26,-25 -121,10 -17,6 -30,5 -40,8z"/>
   <path class="fil67" d="M4625 13170c32,9 22,-19 55,-13 69,11 42,-19 143,2 12,3 57,14 63,14 -1,-24 -28,-23 -52,-30 -49,-17 -70,-18 -120,-13 -16,2 -31,-1 -45,0 -18,2 -42,25 -44,40z"/>
   <path class="fil67" d="M5940 12641c11,6 23,9 37,16 52,27 71,63 82,70 16,11 46,3 96,58 9,11 13,21 23,30 5,-7 5,-4 -1,-14 -13,-29 -61,-78 -88,-98 -23,-18 -109,-66 -137,-66 -1,1 6,-7 -12,4z"/>
   <path class="fil67" d="M5771 13307l23 10c26,9 46,20 74,21 27,1 84,-14 98,-27 -12,-6 -30,0 -45,-1 -44,-2 -29,-7 -99,-6l-39 0c-1,0 -2,0 -3,1l-9 2z"/>
   <path class="fil67" d="M4647 13224c23,1 33,-9 67,-7 23,1 90,16 70,-15 -3,-4 -8,-8 -12,-15 -36,-1 2,7 -79,3 -33,-2 -42,6 -46,34z"/>
   <path class="fil68" d="M5643 12779c11,4 28,6 40,3 6,-18 1,-26 -2,-44 -3,-19 1,-31 0,-49 -25,6 -41,69 -38,90z"/>
   <path class="fil64" d="M7262 13161c28,-2 24,-23 69,-4 18,7 32,14 53,11l14 -6c-19,-10 -54,-28 -71,-31 -34,-8 -62,3 -65,30z"/>
   <path class="fil67" d="M6505 13314c56,27 117,-18 122,-66 -28,6 -40,48 -102,59l-20 7z"/>
   <path class="fil64" d="M5214 13188c22,21 64,20 92,8 23,-9 55,-33 62,-48 -38,13 -49,37 -110,36l-35 0c-10,2 -5,1 -9,4z"/>
   <path class="fil64" d="M4887 12845c36,1 46,-11 77,7 21,13 39,22 74,23 -8,-8 -23,-14 -34,-21 -12,-8 -20,-13 -36,-19 -24,-8 -75,-22 -81,10z"/>
   <path class="fil67" d="M6683 13130c24,0 49,10 62,5 0,-31 -52,-30 -62,-5z"/>
   <path class="fil69" d="M6648 13236c11,-2 12,-3 18,-12 6,-10 6,-14 4,-25l-18 -1 -4 38z"/>
   <path class="fil70" d="M4765 14233l1 -72c24,-1 48,-3 48,35 0,42 -24,36 -49,37zm48 28c12,-11 21,-18 25,-42 17,-102 -55,-94 -97,-92l0 247 25 -2 1 -105 17 0c8,14 24,85 28,107l28 -1 -27 -112z"/>
   <path class="fil70" d="M6222 14232l0 -71c24,-1 48,-4 48,35 0,41 -23,37 -48,36zm49 28c12,-13 20,-19 24,-45 13,-101 -55,-90 -98,-88l0 247 25 -1 1 -106 13 0c16,4 19,78 35,107l24 0c-5,-37 -23,-78 -24,-114z"/>
   <path class="fil70" d="M6112 14340c-26,6 -32,0 -39,-32 -7,-34 -10,-126 13,-146 20,-16 26,14 35,30l21 -10c-6,-94 -117,-93 -98,107 5,51 22,100 65,87 39,-12 39,-71 35,-129l-44 0c0,49 2,24 19,38 0,26 -1,34 -7,55z"/>
   <path class="fil70" d="M4664 14285c0,28 -3,71 -32,55 -27,-15 -25,-142 -7,-171 23,-37 40,23 40,23l21 -10c-7,-95 -117,-91 -98,107 5,51 23,100 65,87 38,-12 39,-72 35,-129l-43 0 -1 28 20 10z"/>
   <path class="fil70" d="M6519 14188l13 88 -28 0 15 -88zm-20 121l38 0 10 65 27 0c-4,-33 -37,-228 -44,-247l-24 0 -43 247 26 -1 10 -64z"/>
   <path class="fil70" d="M5474 14187l15 89 -28 0 13 -89zm-19 121l39 2 11 63 26 1 -44 -247 -25 0 -42 247 26 0 9 -66z"/>
   <path class="fil70" d="M7058 14188l12 88 -27 0 15 -88zm-20 121l38 0 10 65 27 -3 -44 -244 -24 0 -43 247 26 -1 10 -64z"/>
   <path class="fil70" d="M5062 14188l14 88 -27 0 13 -88zm-19 121l39 0 9 65 28 0 -45 -247 -21 0c-8,15 -7,23 -13,60l-32 187 25 -2 10 -63z"/>
   <path class="fil70" d="M6794 14239l-1 -77c26,-2 46,0 45,39 0,40 -18,39 -44,38zm-1 35c45,-4 79,-13 70,-92 -7,-61 -50,-57 -95,-55l0 247 25 0 0 -100z"/>
   <path class="fil70" d="M7385 14339c26,78 122,31 88,-66 -13,-36 -41,-41 -54,-67 -8,-17 -8,-42 8,-47 17,-6 24,12 34,17l14 -18c-19,-62 -103,-42 -85,50 7,32 24,43 43,62 41,39 12,91 -16,66 -8,-7 -1,-2 -7,-9l-6 -7c-1,-1 -2,-1 -3,-3l-16 22z"/>
   <path class="fil70" d="M7300 14161l58 -2 -2 -32 -81 0 0 247c22,0 67,5 86,-3l-1 -30 -60 -1 0 -81 38 -1 -1 -31 -37 -1 0 -65z"/>
   <polygon class="fil70" points="5717,14161 5776,14159 5774,14127 5693,14127 5693,14374 5779,14374 5777,14340 5717,14340 5717,14259 5754,14259 5754,14226 5717,14226 "/>
   <path class="fil70" d="M5803 14339c25,78 119,31 88,-62 -13,-39 -37,-41 -53,-68 -9,-17 -10,-42 4,-50 17,-8 27,11 34,18l16 -20c-16,-53 -93,-49 -86,39 6,71 78,63 61,136 -13,25 -43,-1 -45,-12 -1,-1 -2,-1 -3,-3l-16 22z"/>
   <polygon class="fil71" points="6368,14161 6426,14161 6427,14127 6344,14127 6344,14374 6430,14371 6430,14341 6368,14340 6369,14260 6406,14258 6406,14227 6368,14226 "/>
   <polygon class="fil70" points="4913,14161 4971,14159 4969,14127 4888,14127 4888,14374 4974,14372 4974,14341 4913,14340 4913,14260 4951,14258 4950,14227 4913,14226 "/>
   <path class="fil70" d="M5629 14306c-4,29 -17,53 -36,26 -19,-29 -15,-142 0,-164 20,-32 29,8 38,23l21 -9c-3,-78 -98,-106 -97,73 0,46 6,98 31,116 38,27 63,-14 67,-58l-24 -7z"/>
   <path class="fil70" d="M7216 14306c-9,12 -15,58 -39,28 -20,-27 -18,-140 -2,-166 21,-33 30,9 38,23l22 -7c-8,-86 -98,-104 -98,66 0,161 85,157 98,69l-19 -13z"/>
   <polygon class="fil70" points="5347,14161 5406,14160 5407,14127 5322,14127 5322,14374 5347,14373 5348,14262 5385,14261 5384,14228 5347,14227 "/>
   <path class="fil71" d="M5200 14161c4,0 25,1 27,-6 1,-2 3,-2 3,-3l1 -26 -91 1 2 34 31 0 0 212 25 1 2 -213z"/>
   <polygon class="fil71" points="6619,14373 6644,14371 6644,14161 6676,14160 6676,14127 6586,14128 6587,14161 6619,14161 "/>
   <polygon class="fil70" points="6894,14373 6915,14374 6961,14374 6976,14374 6974,14340 6919,14338 6919,14126 6895,14128 "/>
   <path class="fil63" d="M6794 14239c26,1 44,2 44,-38 1,-39 -19,-41 -45,-39l1 77z"/>
   <path class="fil63" d="M6222 14232c25,1 48,5 48,-36 0,-39 -24,-36 -48,-35l0 71z"/>
   <path class="fil63" d="M4765 14233c25,-1 49,5 49,-37 0,-38 -24,-36 -48,-35l-1 72z"/>
   <polygon class="fil64" points="5049,14276 5076,14276 5062,14188 "/>
   <polygon class="fil64" points="5461,14276 5489,14276 5474,14187 "/>
   <polygon class="fil64" points="6504,14276 6532,14276 6519,14188 "/>
   <polygon class="fil64" points="7043,14276 7070,14276 7058,14188 "/>
   <path class="fil72" d="M5927 14337c-11,55 37,58 27,0 -12,-6 -15,-7 -27,0z"/>
   <path class="fil72" d="M7507 14335c-9,20 -7,52 16,42 16,-7 17,-52 -16,-42z"/>
  </g>
  <path class="fil73" d="M17973 12666c99,-194 75,-146 278,-244 195,-95 284,-38 468,-8 -44,53 -99,73 -165,103 -188,85 -181,-15 -581,149zm-1023 -2299c83,-145 231,-85 280,-213 64,-166 50,-222 -11,-361 -232,242 -159,-14 -474,66 -23,66 -20,116 -38,170 -58,177 -82,-107 -141,445l-99 63c61,20 292,70 325,92 -12,60 -114,93 -176,145l203 48c65,257 -247,374 -416,458 -133,65 -563,165 -632,253 56,40 206,-6 289,-13 113,-9 236,-2 351,-5 172,-253 208,-244 386,-285 43,206 -35,1263 -43,1560 -19,735 -66,309 93,691 44,104 24,37 111,96 227,153 105,369 147,417 134,66 318,-57 455,-88l-69 -250 -376 -4c-19,-136 -46,-143 7,-284l271 -1 5 -490c218,-91 269,81 295,282 198,-16 375,-74 546,-147 466,-200 269,-100 361,-309l628 -240c-61,-38 -35,-3 -78,-58 48,-340 144,-46 373,-333 73,-91 28,-40 40,-104 372,-22 328,140 428,196 118,37 256,6 334,123 52,77 97,194 152,284 73,-13 190,-73 246,-124l28 -769c-171,-162 -208,-62 -410,-133l-2 -326c-296,-58 -214,-96 -542,-35 -168,32 -367,69 -516,127 -79,290 23,154 59,355 -75,43 -32,56 -134,43 -390,-48 -491,-320 -902,-426 127,154 224,286 375,324 78,19 88,11 129,59 68,80 178,178 288,209 122,35 62,-13 172,56 81,51 68,34 174,33 -67,151 -262,171 -470,203 -323,50 -531,-45 -949,47 -134,30 -157,15 -246,86 -257,209 -246,236 -381,146l94 -439 -239 -76c25,-244 16,-226 123,-386 227,-338 384,-773 570,-931 252,98 159,136 309,277 74,69 59,79 188,101 378,67 209,-172 1149,-263 27,-192 118,-377 -52,-499 -58,-42 -396,-145 -483,-157 -229,-32 -348,40 -530,110 -383,149 -333,59 -424,220 -267,2 -146,-2 -271,-42 -366,-118 -707,96 -880,6z"/>
  <path class="fil73" d="M8980 6861c-62,-13 -26,-3 -78,-21 -53,68 -110,88 -169,135 -311,254 26,401 -240,532 0,-109 24,-196 -37,-271 -137,28 -81,143 -76,249 -156,41 -139,105 -318,19 -12,-83 0,-77 16,-148 -119,2 -72,24 -142,88 -62,56 -449,134 -540,149l0 -240 -136 61c39,195 -5,227 -59,398 371,-13 117,-247 883,-213 -103,119 -174,123 -307,141 -151,20 -227,47 -262,176 -37,138 -53,201 -173,263 -322,168 -168,75 -217,170l-156 30c-62,-97 -92,-80 -59,-200 -91,10 -327,13 -370,65l186 93 -195 153c-2,-3 -7,7 -10,11 298,153 373,227 189,541 -42,72 -57,112 -153,137 -157,41 -321,82 -483,121 -184,44 -351,20 -548,11 -404,-17 -759,-13 -1163,-2 -185,5 -398,28 -580,16 -479,-29 -314,-59 -438,-154 -79,106 -84,124 42,328 36,58 73,64 148,100 372,181 309,32 429,319 119,285 106,165 186,312 183,2 362,-20 546,-25 172,-5 303,55 463,70 708,66 768,-109 940,-107l45 57c-75,280 -603,29 -942,176 96,11 178,17 257,56 261,128 226,51 545,40 114,-4 180,56 276,4 16,-83 -120,-178 17,-217 7,-2 12,-3 19,-4 184,-38 194,80 360,-109 120,-135 116,-219 132,-434 279,-1 608,-45 738,108 49,56 234,380 368,467l125 -87c-35,-69 -171,-275 -228,-333 -106,-108 -83,-301 -71,-477 70,-72 161,-142 234,-203 -17,-87 -29,-111 -76,-170 -73,17 -96,38 -150,72 -100,-134 0,-177 18,-263 25,-119 -12,-185 76,-297 70,-90 138,-60 194,-180 66,-141 24,-127 -18,-255l225 -180c88,-39 243,-36 353,-49l22 -127 -180 3c164,-289 413,-263 590,-338 -80,-29 -148,-35 -232,-59 -124,-34 -90,-59 -92,-184 96,-49 318,-175 371,-256l-95 -68z"/>
  <path class="fil73" d="M14040 10910c129,-53 229,-157 303,-256 -501,48 -220,1 -533,-6 -366,-9 -677,11 -1035,75 -273,49 -250,159 -392,0 84,-110 154,-212 193,-405 -271,-70 -268,-3 -505,30 110,-396 143,-84 101,-727l-176 -12 -33 -238c-270,84 -157,194 -150,455 -81,16 -271,57 -352,85 -155,53 -393,250 -391,458 2,99 49,255 64,363 -311,91 -587,301 -775,197l78 -146c-110,32 -207,78 -298,132 -288,171 -283,-115 -1015,145 147,107 525,198 731,255 220,60 667,56 918,63 266,7 161,67 305,188 75,63 188,144 250,229 106,146 39,199 245,253 122,32 267,57 385,93 20,165 6,295 139,350l107 -1262 779 -2 -27 160 346 -2c24,95 0,78 97,105 289,80 175,-120 323,-192 79,-39 156,-64 214,-118l-186 -2c21,-117 29,-130 107,-181 50,-32 119,-61 183,-87z"/>
  <path class="fil73" d="M13480 12945c38,-62 58,-112 165,-116 344,-16 226,6 507,108 105,38 99,67 169,129 -136,-19 -241,-63 -405,-66 -196,-3 -264,18 -436,-55zm736 -3270c313,234 277,205 552,550 -74,73 -120,74 -187,126 -179,140 -319,540 -303,612 38,174 411,552 462,756l-97 127 -437 -84c-121,145 -11,112 -238,197 -52,20 -91,46 -137,72 -72,41 -81,33 -88,125 125,115 250,12 390,31 30,118 -69,46 -13,240 133,0 148,-33 204,61 -165,199 -362,-50 -684,58 -116,39 -501,190 -544,295 -3,77 -12,177 14,227 98,45 777,84 950,103 233,26 441,27 556,237 34,62 53,108 87,164l-81 77c-562,-152 -809,-123 -1415,-75 28,197 121,208 293,305 253,142 139,138 415,158 333,23 689,28 1020,-95 18,-187 -68,-473 -32,-632 41,-178 63,-397 36,-599 -96,-44 -214,-57 -254,-103 -48,-74 -130,-406 -145,-522 237,-117 117,-137 438,-75l-62 -370c279,17 164,60 437,-41 129,-48 283,-99 420,-123l1 -172c-173,31 -311,56 -474,99 -105,27 -108,36 -180,-37 -45,-45 -82,-97 -107,-165 -66,-175 -20,-304 -207,-353l-173 -35c-60,-28 -101,-147 -122,-216 99,-27 125,-64 247,-91 271,-58 211,-312 224,-400 13,-88 51,-160 63,-259 -66,-20 -73,-36 -129,-62 -44,-21 -94,-34 -138,-50 -423,-152 -273,-95 -387,-320 -81,-160 -673,-175 -839,-115 -297,105 -263,106 -386,318l-418 -1 -23 115c606,64 661,-236 1254,-200 120,7 153,79 237,142z"/>
  <path class="fil73" d="M5672 6842c-36,38 -61,61 -136,51 -168,-23 -126,-51 -140,-83 107,2 192,-1 276,32zm-856 -402c37,181 22,323 129,442 48,53 283,183 372,208 56,15 441,50 520,51 88,2 192,-15 281,-24 200,-19 235,-169 163,-327 -94,-205 -300,-141 -598,-273 -181,-80 -164,-147 -385,-140 -82,3 -170,-22 -260,-3 -74,17 -142,50 -222,66z"/>
  <path class="fil73" d="M11797 8450l0 -26c-172,-15 -212,21 -370,44 -103,15 -171,119 -207,199 -245,4 -219,15 -222,-241 -137,-52 -274,-49 -403,-114 -206,-103 -157,-100 -425,-103 -30,102 -24,98 33,183 192,292 162,97 364,119 45,5 132,75 176,93l-282 98 127 95c36,34 58,59 117,90 113,57 183,5 333,82 43,21 246,144 266,150 70,20 326,7 417,8 2,-184 -23,-505 76,-677z"/>
  <path class="fil73" d="M3542 6985c75,-52 187,-86 285,-87l26 121 -310 36 -1 -70zm-198 -335c-8,186 -60,587 -34,744 239,3 61,-29 374,-153 108,-43 56,-89 179,-88 48,1 179,28 234,38 81,-184 268,-469 162,-702 -185,-46 -319,-47 -505,-10 -133,27 -280,136 -410,171z"/>
  <path class="fil73" d="M19149 8669c68,-29 155,-39 186,-100 -261,-107 -439,78 -809,123 -211,26 -126,31 -238,75 44,66 36,33 82,78l-150 101c-40,33 -12,9 -35,33 171,-46 397,-36 584,-49 266,-19 280,1 516,58 166,40 319,88 501,106 215,21 372,-10 446,158 -490,32 -438,4 -466,163 362,14 370,79 669,-125 -45,-75 -57,-44 -114,-133l214 -75c-200,-143 -677,-169 -953,-168 -107,-186 -137,-105 -435,-82l2 -163z"/>
  <path class="fil73" d="M10425 9498c37,-210 109,-314 -61,-478l-18 60c-28,51 23,21 -44,44 -207,33 -364,-120 -613,184l-20 31c273,44 279,45 423,223 83,103 279,248 306,301 -178,2 -407,56 -549,25 -219,-48 -286,94 -424,162 26,25 7,11 43,32 90,51 131,9 192,-20 93,-44 194,-36 310,-36 209,1 455,-47 532,128 -174,0 -407,-32 -549,48 55,23 716,30 835,30 -44,-110 -115,-182 -151,-282l-180 -5c119,-272 148,-302 -32,-447z"/>
  <path class="fil73" d="M4316 8330c-200,-1 -10,-90 -366,49 -118,46 -77,11 -87,91 59,50 89,43 172,16 46,-15 105,-41 150,-59 396,-149 631,-77 1114,-44 -31,-96 -3,-77 -94,-99 -112,-27 -305,-31 -428,-72l-24 -126c63,-64 38,-60 133,-101 58,-25 89,-25 133,-65 -110,-279 -101,-275 -227,-325 -217,-87 -213,-84 -472,-49 -175,24 -136,272 -93,405 23,69 67,124 99,194 54,121 41,96 -10,185z"/>
  <path class="fil73" d="M8744 8564c43,-117 290,-112 391,-63 -60,78 -283,130 -391,63zm-33 -343c211,91 219,-106 483,-2 -116,58 -243,93 -357,146 -154,71 -129,122 -338,159 -233,42 -324,20 -378,122l-71 296c2,59 4,44 35,80l96 -251c193,-102 889,-58 1154,-59 167,-213 315,-277 358,-593 -252,-83 -89,-136 -528,-69 -209,32 -308,63 -454,171z"/>
  <path class="fil73" d="M11661 8169c2,-67 2,-45 -32,-101l-60 -84 -432 -23c-65,-151 65,-77 59,-158 -21,-67 -118,-52 -182,-76 -61,-23 -28,-9 -50,-34 -55,-61 33,-31 -176,-156l17 -58c-5,-60 -101,-82 -164,-75 -217,26 -119,61 -279,-63 -72,-57 -154,-88 -262,-113 -168,-39 -205,-78 -265,58 144,66 272,24 417,123 113,76 298,300 405,383 57,44 93,67 145,105 160,120 110,149 215,307 89,-41 -27,-48 95,-72 260,0 313,7 540,78 23,-20 40,43 9,-41z"/>
  <path class="fil73" d="M17782 13412c50,67 22,397 184,487 220,122 301,80 573,57 121,-10 222,-5 341,-7 140,-3 138,-39 233,-105 73,-52 129,-92 205,-148 81,-60 96,-96 189,-144 -38,-30 2,-10 -62,-33 -4,-1 -65,-14 -70,-15 -308,-48 -459,258 -745,271 -156,7 -469,36 -565,-58 -143,-140 -30,-233 -283,-305z"/>
  <path class="fil73" d="M20477 12829c87,-99 159,-201 232,-315 -64,21 -124,48 -186,84 -44,25 -133,85 -169,98 -197,71 -461,-54 -571,52l-310 175 139 36c-42,210 -66,146 -272,198 -79,20 -285,86 -331,134 122,72 594,39 770,35 109,-207 129,-130 317,-251l-221 -130c99,-134 48,-106 264,-131 176,-21 180,-4 338,15z"/>
  <path class="fil73" d="M6267 6305c313,180 124,645 178,882 43,194 102,223 91,461 -7,136 -47,341 -72,481l143 4c43,-333 116,-392 67,-777 -17,-129 -45,-253 -61,-380 -22,-179 75,-178 229,-195 -78,-271 -64,-108 -283,-289 -89,-72 -174,-244 -217,-368 -54,51 -67,102 -75,181z"/>
  <path class="fil73" d="M17669 12052c44,82 80,78 121,197 174,-20 294,-103 363,-257 105,-236 129,27 198,-393 -134,-56 -239,-124 -393,-50l295 34c-239,33 -351,-59 -655,15 136,164 74,96 82,166 9,92 58,108 76,205 -47,45 -56,46 -87,83z"/>
  <path class="fil73" d="M17838 9123c83,-71 54,10 79,-110 8,-37 7,-115 19,-148 35,-97 111,-53 197,-162 -134,-41 -382,4 -492,98 -105,89 -241,192 -280,365 35,56 80,82 93,145 15,75 -9,129 14,209 82,-9 10,31 124,-103 41,-47 69,-79 113,-117 78,-66 185,-115 283,-158 -57,-29 -71,-17 -150,-19z"/>
  <path class="fil1" d="M13916 13000c164,3 269,47 405,66 -70,-62 -64,-91 -169,-129 -281,-102 -163,-124 -507,-108 -107,4 -127,54 -165,116 172,73 240,52 436,55z"/>
  <path class="fil1" d="M17973 12666c400,-164 393,-64 581,-149 66,-30 121,-50 165,-103 -184,-30 -273,-87 -468,8 -203,98 -179,50 -278,244z"/>
  <path class="fil73" d="M9046 7268c135,3 343,-72 463,-141l49 -45 -66 -51c-172,53 3,60 -374,141 -90,20 -76,9 -72,96z"/>
  <path class="fil1" d="M8744 8564c108,67 331,15 391,-63 -101,-49 -348,-54 -391,63z"/>
  <path class="fil1" d="M3542 6985l1 70 310 -36 -26 -121c-98,1 -210,35 -285,87z"/>
  <path class="fil1" d="M5672 6842c-84,-33 -169,-30 -276,-32 14,32 -28,60 140,83 75,10 100,-13 136,-51z"/>
  <path class="fil74" d="M43186 16092c2,-492 56,-300 -159,-647 -95,-153 -199,-404 -140,-569 248,33 53,51 293,496 192,-290 -341,-903 -79,-1253 230,70 26,121 190,651l252 -979c162,14 137,70 247,65 101,-164 85,-265 267,-266 59,138 -122,355 -190,428 -189,205 -142,208 -153,584 256,-159 159,-380 413,-380 50,322 -405,519 -443,775 -44,297 10,915 32,1235 292,33 959,206 1234,-464 266,-650 -274,-787 -420,-1228 200,-354 841,-342 797,-819 -56,-608 -661,-596 -783,-872 -153,-346 366,-774 -91,-1324 -268,-322 -759,-552 -1140,-96 -370,442 107,1062 -305,1353 -190,133 -343,128 -497,339 -393,537 93,846 60,1290 -22,296 -355,794 66,1340 125,163 377,254 549,341z"/>
  <path class="fil75" d="M43186 16092c1,426 38,818 139,1217 27,105 51,210 81,301l584 0c-3,-268 -222,-897 -274,-1378 -22,-320 -76,-938 -32,-1235 38,-256 493,-453 443,-775 -254,0 -157,220 -413,380 11,-376 -36,-379 153,-584 68,-73 249,-290 190,-428 -182,1 -166,102 -267,266 -110,5 -85,-51 -247,-65l-252 979c-164,-530 40,-581 -190,-651 -262,350 271,963 79,1253 -240,-445 -45,-463 -293,-496 -59,165 45,416 140,569 215,347 161,155 159,647z"/>
  <path class="fil76" d="M45388 16076c-5,-130 2,-53 28,-81 165,61 162,131 354,166 -43,-327 -207,-429 -346,-546 26,-17 -10,-18 52,-22 0,0 62,9 63,9l2 -171c281,81 198,642 470,534 51,-62 34,-18 51,-108l-8 -420 87 103c42,-165 25,-280 154,-339 80,322 -103,450 -95,720 176,-7 64,-67 237,-145 2,135 -53,212 -89,317 610,-138 1098,-1203 627,-1750 -179,-10 -63,60 -149,24 -58,-155 13,-1027 -370,-1144 -16,131 20,182 -42,296 -86,-29 -25,31 -93,-87 -19,-33 -45,-106 -65,-152 -243,-558 -522,-1156 -939,-135 -96,236 -99,531 -182,696 -78,-26 -8,1 -58,-39 -89,-70 53,8 -62,-55 -74,148 -165,318 -188,530 -28,262 79,412 70,693 -147,-46 -69,-70 -232,-77 -40,515 401,1047 723,1183z"/>
  <path class="fil75" d="M45388 16076c123,200 282,115 465,230 71,232 -117,980 -102,1341l497 -36c-56,-199 -183,-1153 -140,-1267 14,-37 213,-227 240,-251 36,-105 91,-182 89,-317 -173,78 -61,138 -237,145 -8,-270 175,-398 95,-720 -129,59 -112,174 -154,339l-87 -103 8 420c-17,90 0,46 -51,108 -272,108 -189,-453 -470,-534l-2 171c-1,0 -63,-9 -63,-9 -62,4 -26,5 -52,22 139,117 303,219 346,546 -192,-35 -189,-105 -354,-166 -26,28 -33,-49 -28,81z"/>
 </g>
</svg>
