<?xml version="1.0" encoding="UTF-8"?>
<!DOCTYPE svg PUBLIC "-//W3C//DTD SVG 1.1//EN" "http://www.w3.org/Graphics/SVG/1.1/DTD/svg11.dtd">
<!-- Creator: CorelDRAW X8 -->
<svg xmlns="http://www.w3.org/2000/svg" xml:space="preserve" width="4879px" height="1956px" version="1.1" style="shape-rendering:geometricPrecision; text-rendering:geometricPrecision; image-rendering:optimizeQuality; fill-rule:evenodd; clip-rule:evenodd"
viewBox="0 0 48792 19559"
 xmlns:xlink="http://www.w3.org/1999/xlink">
 <defs>
  <style type="text/css">
   <![CDATA[
    .str0 {stroke:#373435;stroke-width:41.6561}
    .str2 {stroke:#313131;stroke-width:41.6561}
    .str1 {stroke:#424242;stroke-width:20.8339}
    .str3 {stroke:black;stroke-width:8.9997}
    .str4 {stroke:#B5EEFF;stroke-width:8.9997}
    .str5 {stroke:#E6E6E6;stroke-width:8.9997}
    .fil16 {fill:none}
    .fil12 {fill:#373435}
    .fil19 {fill:#EFB783}
    .fil61 {fill:#00A0EA}
    .fil34 {fill:#0B3859}
    .fil46 {fill:#121710}
    .fil22 {fill:#1369B6}
    .fil69 {fill:#17A5E5}
    .fil53 {fill:#1B1B1C}
    .fil30 {fill:#1C1C1C}
    .fil26 {fill:#20547B}
    .fil63 {fill:#2C2829}
    .fil64 {fill:#2D292A}
    .fil6 {fill:#313131}
    .fil66 {fill:#322F30}
    .fil29 {fill:#33322E}
    .fil35 {fill:#333333}
    .fil25 {fill:#362D24}
    .fil27 {fill:#3689BB}
    .fil21 {fill:#3890D0}
    .fil9 {fill:#424242}
    .fil5 {fill:#464646}
    .fil13 {fill:#4A4A4A}
    .fil39 {fill:#4D4D4D}
    .fil38 {fill:#525252}
    .fil71 {fill:#5978A2}
    .fil14 {fill:#5C707B}
    .fil15 {fill:#71848B}
    .fil7 {fill:#757575}
    .fil54 {fill:#767B7F}
    .fil31 {fill:#797977}
    .fil48 {fill:#7A838A}
    .fil40 {fill:gray}
    .fil76 {fill:#949393}
    .fil60 {fill:#999999}
    .fil55 {fill:#99A3AC}
    .fil49 {fill:#9CADB7}
    .fil56 {fill:#AAB5C5}
    .fil65 {fill:#AB5A55}
    .fil52 {fill:#ADBACA}
    .fil37 {fill:#B5EEFF}
    .fil23 {fill:#B96F48}
    .fil51 {fill:#BACADA}
    .fil45 {fill:#C1C2C9}
    .fil17 {fill:#C1CFCF}
    .fil32 {fill:#C77066}
    .fil3 {fill:#C8382F}
    .fil10 {fill:#CACACA}
    .fil36 {fill:#CCCCCC}
    .fil44 {fill:#CDCED3}
    .fil59 {fill:#CFB175}
    .fil68 {fill:#CFE6E6}
    .fil50 {fill:#D2D7DD}
    .fil4 {fill:#DF7E77}
    .fil2 {fill:#DFE9EB}
    .fil33 {fill:#E09474}
    .fil43 {fill:#E0E7ED}
    .fil73 {fill:#E4E3E3}
    .fil1 {fill:#E6E6E6}
    .fil41 {fill:#E6EEF1}
    .fil74 {fill:#E7E6E7}
    .fil75 {fill:#E7F6FB}
    .fil67 {fill:#E8EDF7}
    .fil20 {fill:#EC9956}
    .fil28 {fill:#ECB31E}
    .fil24 {fill:#EDD89F}
    .fil72 {fill:#EEEEEE}
    .fil11 {fill:#EFEFEF}
    .fil42 {fill:#F1FAFF}
    .fil0 {fill:#F2F2F2}
    .fil47 {fill:#F2FBFF}
    .fil70 {fill:#F6F6F6}
    .fil62 {fill:#FBFBFB}
    .fil8 {fill:white}
    .fil57 {fill:white}
    .fil78 {fill:black;fill-rule:nonzero}
    .fil79 {fill:#422818;fill-rule:nonzero}
    .fil18 {fill:#464646;fill-rule:nonzero}
    .fil81 {fill:#4CA82B;fill-rule:nonzero}
    .fil80 {fill:#70853D;fill-rule:nonzero}
    .fil82 {fill:#CCCCCC;fill-rule:nonzero}
    .fil77 {fill:white;fill-rule:nonzero}
    .fil58 {fill:#B3B3B3}
   ]]>
  </style>
   <mask id="id0">
  <linearGradient id="id1" gradientUnits="userSpaceOnUse" x1="25617.3" y1="16060.5" x2="30445.5" y2="16060.5">
   <stop offset="0" style="stop-opacity:0; stop-color:white"/>
   <stop offset="1" style="stop-opacity:1; stop-color:white"/>
  </linearGradient>
    <rect style="fill:url(#id1)" x="25607" y="14748" width="4849" height="2625"/>
   </mask>
 </defs>
 <g id="Слой_x0020_1">
  <metadata id="CorelCorpID_0Corel-Layer"/>
  <rect class="fil0" x="2" width="48790" height="19559"/>
  <g>
   <path class="fil1" d="M48733 18448l-2823 0c-50,46 -25,29 -49,0l-972 0c-11,9 14,51 -45,0l-4801 -1 -5762 0 0 0 -1412 0c-82,54 -45,7 -51,0l-3678 0 -7323 0 -4565 0 -336 0c-108,1 -143,10 -168,0l-371 0 -2445 0 -8314 0 -25 70 -5149 0 25 -85c-186,4 -354,19 -464,54l-3 -2718 97 -50c9,-3 21,-8 31,-10 29,-9 61,-5 109,-17 31,-266 12,-546 12,-816 -1,-418 -79,-783 427,-678 137,29 -13,178 299,162l-1 -1311c3,-303 -19,-156 129,-330 554,4 171,47 468,85 53,7 157,-1 213,-3l54 -80c243,-62 118,-42 282,45 115,61 125,37 315,37l1 1630 1850 -2156c138,-157 479,-630 610,-721 183,156 2295,2718 2712,3183 145,162 254,320 405,453l1 -2528 337 -10 13 -4105 -10 -1785 483 -3c-6,-406 -77,18 -109,-269l541 -86c-41,-354 26,-148 59,-384 10,-67 -1,-121 13,-186 27,-113 73,-88 93,-202 12,-68 1,-279 1,-360 83,127 39,312 62,464l301 -1 73 -178c2,55 -3,54 14,105 25,78 16,34 37,76 129,253 -29,-148 39,71 21,69 9,69 15,137 28,318 86,128 68,469 161,7 384,2 520,75 -49,233 -87,-63 -112,233 113,61 364,30 501,48l-15 4282 19 898 438 -2 -2 2820 312 0 -2 -2107 124 -107c6,-8 20,-37 27,-45 113,-141 170,-18 198,-159l1 -2173 115 -74c7,-5 15,-12 22,-16 48,-30 -15,-68 165,-53 266,23 -68,99 367,103l4 -488c36,180 -16,298 48,459 3,9 10,17 14,26l49 195c3,78 -5,193 -7,274l2812 5c14,-345 24,-640 64,-966 69,141 -23,352 69,493 199,-16 129,-4 136,-255l13 249 472 9 -1 1637 314 1 19 899 343 7c35,-491 -2,-1044 4,-1537 4,-321 105,-322 103,-696 -2,-215 -24,-556 20,-754 7,66 -2,79 75,123 45,-201 166,-491 242,-697 67,-184 46,-227 92,-408 2,-11 6,-20 9,-30 3,-10 7,-20 10,-29 31,-98 25,-176 90,-270l115 361c75,363 217,707 335,1066 79,-38 -79,36 42,-39 98,-60 -30,-51 63,-22 9,292 -14,604 1,892 15,288 90,203 89,777 -1,600 -57,1178 132,1708 -71,139 -123,49 -125,307l12 1240c17,80 7,49 35,93 129,-53 97,76 92,-437 -2,-159 -9,-323 8,-480l258 -10 -1 -3980 1500 -10c26,-124 12,-141 17,-258 12,-247 15,-113 59,-199 59,-114 62,-271 166,-378 135,-141 479,-278 643,-433 11,-224 -39,-930 39,-1071l19 1082c289,240 655,308 761,688 3,11 5,22 8,32 42,130 92,206 90,396 -3,219 1,437 -5,655l364 18 -2 472 353 0 23 478 341 4c-4,393 -86,2810 41,2986 132,-43 95,22 91,-419 -2,-179 3,-358 -3,-537l218 -30 5 -809 421 2 3 817 446 -4 9 -798c94,-30 -29,-13 64,24 66,26 -75,26 98,37 50,-288 -74,-760 47,-986 51,128 12,87 201,88l2 -1340c4,-310 -36,-82 -63,-346 95,-144 128,-185 202,-353 81,-184 59,-266 291,-270 5,-162 -36,-167 64,-224 57,88 10,27 38,110l19 58c3,8 8,22 10,28 3,6 6,19 11,28l1400 -2c196,614 354,424 275,793 -20,93 -22,114 -23,219l2 1299c325,-6 74,-2 233,-81l-2 491 206 78 18 494 358 3c6,-157 -4,-280 57,-416l26 -54c4,-9 9,-19 13,-28l25 -58c3,-7 7,-21 13,-30l299 11c5,260 55,182 283,182 62,-91 38,-95 35,-230l250 -12 6 -272c264,-2 83,-116 492,-15 77,19 121,16 200,25l12 271c334,-95 252,-78 308,228 16,-243 -48,-330 -32,-546 7,-96 -25,-134 2,-294 48,-287 167,-639 235,-936l3647 -2c54,271 211,740 229,953l6 282c1,4 4,15 4,19 1,75 -68,281 -50,694l421 -4 -1 760 291 13 52 228c9,1 102,9 103,9 76,25 42,14 86,45l10 577c57,-282 25,-1023 25,-1353 0,-422 -31,-981 9,-1386l271 -1 -1 -2718c10,2 22,1 25,11 3,10 18,9 23,11 201,86 437,50 717,50 266,0 582,16 842,-9 2,-181 -45,-729 51,-826 55,97 30,680 26,838 331,-9 594,-3 944,-3 169,0 337,-1 506,1 152,1 227,14 357,-30l95 -40 4 4431c340,-161 1377,-284 1833,-334 169,-19 522,-113 653,4 141,-123 881,-47 1046,-24 307,44 621,79 932,148 2080,459 3321,1141 5576,791 -55,145 -72,50 -129,170 61,71 105,105 128,213 -93,-38 -41,-60 -184,-186l-5 713c209,111 -122,-14 139,31l51 8c-60,91 17,15 -87,86 -61,41 -78,38 -126,54 -5,419 -29,262 207,364l-155 78c41,100 -19,2 51,57l81 53c7,4 21,10 31,17l-401 -5 -26 392c107,97 225,68 370,68l0 371 0 2309zm-31817 -1l-38 0c31,25 15,4 38,0zm336 0c5,8 19,8 39,0l-39 0zm-925 0c15,4 32,4 50,0l-50 0zm24115 -3124l356 -15 -2 397 -335 -2 -19 -380zm4762 18c17,-9 -42,-48 115,-38 161,11 78,12 106,77l0 80 -225 15 4 -134zm3176 -194c47,9 167,11 88,91 -105,106 -79,-40 -88,-91zm-3177 39c32,-19 -56,-41 114,-37 126,3 83,23 105,37 -18,47 48,80 -106,80 -195,1 -76,-43 -113,-80zm-2045 0c94,-61 205,-51 287,0 -26,66 44,81 -147,80 -209,-1 -109,-48 -140,-80zm-2514 0c76,-37 74,-53 155,0 -16,48 47,77 -67,72 -189,-7 -31,-26 -88,-72zm7896 -390c1,17 6,159 5,161 -30,206 38,64 -84,123 -36,-17 -125,47 -82,-160 21,-96 83,-97 161,-124zm-905 -736c173,172 344,713 273,994l-267 12 -6 -1006zm-2014 212l314 122 4 683 -318 2 0 -807zm-418 -188l381 156 6 832 -388 6 1 -994zm2329 -28l10 1006c-186,-1 -238,-16 -360,-75 23,-164 263,-814 350,-931zm-8789 977l2 -1244 298 -102 10 1227 -212 80c-50,23 49,27 -98,39zm9363 -429l4 -700 325 613c76,148 102,140 -12,213 -4,-1 -10,-11 -12,-7 -25,79 30,-16 -110,-51l-195 -68zm-5367 39l1 -1267 301 35c96,258 29,1072 30,1410 -206,-244 -152,-77 -332,-178zm-1152 -1347l333 1 12 1383 -339 4 -6 -1388zm-967 66l435 -61 5 1228c-27,265 -107,197 -201,312l-33 50c-44,83 -4,64 -43,128 -45,75 71,26 -60,56 -196,45 -122,-461 -122,-743 0,-309 -35,-672 19,-970zm490 1322c-6,-287 -39,-1158 22,-1384l417 -6 7 1328c-586,-3 -181,48 -446,62zm-987 -1245l428 -80 -6 1628c-24,92 0,36 -41,93 -102,-80 -58,-276 -61,-437l-137 -35c-174,-40 -201,-18 -198,-391 3,-257 -18,-525 15,-778zm-536 104l484 -114 6 1090 -491 -4 1 -972zm-136 1486l-338 1 -5 -1371 427 -115c-1,264 10,533 4,790 -10,386 -91,9 -88,695zm7121 -1166l-8 493 -307 -6c5,-95 217,-417 315,-487zm471 78c8,72 18,172 15,240 -8,249 9,121 -72,173l-123 1 180 -414zm-1785 59c4,-190 1,-141 109,-238 81,-74 90,-88 183,-137l-2 496 -290 -121zm2418 -142l334 -14 8 812c-125,-29 -163,-252 -209,-371 -59,-154 -132,-287 -133,-427zm-534 994l-2 -1007 377 16c-22,110 -278,857 -375,991zm-458 -501l-30 -566 378 48c-41,103 -82,196 -130,300 -68,145 -54,209 -218,218zm-2555 -661c149,11 426,66 478,206l-478 15 0 -221zm-504 -134l434 91 9 259 -446 -1 3 -349zm-254 388c3,9 12,12 14,25 2,14 11,20 13,26 3,6 10,19 13,26 67,173 35,846 33,1046l-262 10 -46 -226c-72,-305 -42,-1093 -36,-1417l461 85 -75 384c-80,32 -25,-5 -115,41zm5136 -160l-1 718c-156,-152 -256,-429 -344,-631 91,-75 158,-65 345,-87zm-2366 554l2 -627c143,-8 287,27 381,78 -61,134 -285,484 -383,549zm-255 -459l166 -134 2 601c-75,-25 -219,-81 -282,-125 -181,-124 -127,-139 -126,-612l375 47 -135 223zm-7139 -195l-3 -290c55,33 78,40 129,87 72,66 49,50 83,113l-209 90zm6414 214l-8 -435 353 89c-5,12 -11,16 -14,28l-29 45c-5,5 -14,15 -19,20 -36,40 -57,52 -102,91 -72,64 -118,107 -181,162zm-93 -381l1 378 -336 -112c-6,-29 24,-66 54,-118 -143,-4 -116,80 -117,-333l298 68c52,102 -56,-7 35,94 52,59 -31,-50 65,23zm-1185 -230l162 -78 3 335 -345 -83c24,-29 44,-45 82,-77 9,-7 36,-26 44,-33 46,-43 30,-30 54,-64zm-3880 35c-100,66 -264,83 -392,113l-7 -422c134,98 242,243 399,309zm4588 78l-1 318 -358 -103c6,-60 148,-31 -22,-90 -3,-1 -17,-1 -21,-2l-53 -338c79,18 244,47 311,77 165,73 5,-10 85,84l59 54zm-5842 -232l286 -101 1 490c-78,-42 -112,-70 -186,-133 -103,-89 -110,-76 -101,-256zm3994 77c72,-118 174,-191 283,-262l8 332c-43,-3 -112,-5 -147,-11l-144 -59zm-2113 -335c68,46 94,74 156,130 36,34 53,44 81,74 68,72 35,36 68,92l-309 46 4 -342zm3253 377l-244 126 5 -351c153,26 248,36 349,111l-110 114zm-4681 -248l308 -58 10 419 -109 -51c98,182 31,85 6,133l-291 73c-17,-346 -29,-329 62,-492 9,-17 24,12 14,-24zm4163 136c11,-6 76,-46 86,-48 0,0 49,-10 53,-10 6,0 21,4 26,4 5,1 17,5 25,8l0 294c-460,-85 -287,-35 -366,-124 -3,-4 -13,-14 -17,-18l-43 -342 378 75c-44,59 -14,13 -60,66 -39,44 -43,20 -82,95zm-717 -22l-17 -302 341 68 -139 173c-64,49 -78,56 -185,61zm-2645 169l-32 -49c-131,-139 -259,-155 -323,-335l392 -45c7,149 29,312 -37,429zm145 -426c29,-18 -7,-15 88,-38l294 -23 13 424 -405 62 -3 -319c138,59 95,50 217,144 -92,-171 -115,-83 -204,-250zm2404 194c-54,41 -112,85 -185,64 -7,-4 -17,-22 -19,-16l-50 -66c-2,-2 -5,-11 -9,-15l-144 103 -5 -361 340 109c97,144 65,-187 72,182zm-1519 -300l2 410c-146,-98 -248,-230 -393,-326 52,-44 2,-29 90,-60l301 -24zm1012 339c-121,57 -196,89 -379,79 86,-106 203,-177 287,-317 -123,62 -69,31 -160,128l-190 138 16 -388 360 7c4,18 15,40 18,46 2,3 9,12 11,15 3,7 19,30 22,40 36,98 22,142 15,252zm-811 -389l291 31 4 319c-50,18 -45,48 -134,-18l40 138 -316 7 18 -348c21,-96 44,-85 97,-129z"/>
  </g>
  <g>
   <path class="fil2" d="M22407 15887c49,2 131,5 187,3 57,-2 88,-7 106,-15 18,-7 23,-17 15,-33 -9,-16 -29,-40 -58,-70 -29,-31 -67,-68 -105,-100 -38,-32 -77,-57 -116,-81 -40,-25 -79,-48 -116,-69 -37,-20 -72,-38 -106,-53 -35,-15 -69,-27 -94,-35 -24,-8 -39,-11 -57,-13 -18,-1 -40,-1 -68,-1 -28,0 -61,1 -85,5 -24,3 -39,10 -50,18 -11,8 -18,18 -19,35 0,17 5,41 23,71 18,30 48,65 83,100 34,34 73,68 117,102 44,34 93,69 138,91 45,22 86,31 114,37 28,5 43,6 91,8z"/>
   <rect class="fil3" x="16149" y="13496" width="526" height="561" rx="62" ry="59"/>
   <polygon class="fil4" points="16220,13496 16603,13496 16603,13784 16220,13784 "/>
   <path class="fil5" d="M11426 15219c-16,-13 -21,-40 -24,-70 -2,-29 -2,-60 3,-88 5,-28 15,-53 28,-73 13,-19 29,-33 48,-43 19,-10 41,-15 190,-17 149,-2 425,-1 569,-1 144,-1 156,-4 256,-43 100,-39 289,-114 521,-205 233,-92 509,-198 781,-294 272,-96 540,-180 775,-242 234,-61 434,-98 625,-128 190,-29 369,-50 543,-62 95,-7 187,-11 283,-13 -1,-2 -1,-4 -1,-6l0 0c0,-36 30,-66 67,-66l617 0c36,0 66,30 66,66l0 0c0,8 -1,16 -4,23 30,2 60,5 90,8 194,20 375,52 551,94 176,42 346,92 519,159 173,67 349,151 528,250 178,100 359,216 522,322 162,106 307,202 379,251 73,48 73,48 73,48 0,0 0,0 0,0 0,0 0,0 347,38 348,39 1043,115 1481,173 437,57 617,95 707,114 89,18 89,18 89,18 0,0 0,0 -30,0 -31,0 -92,0 -124,10 -33,10 -37,30 -19,71 19,41 59,103 109,157 50,54 110,100 165,134 54,33 104,56 196,66 93,10 228,9 296,8 68,0 68,0 68,0 0,0 0,0 0,0 0,0 0,0 10,19 10,20 31,59 39,120 8,61 3,145 0,186 -3,42 -3,42 -3,42 0,0 0,0 7,0 6,0 19,0 26,0 7,0 7,0 7,0 0,0 0,0 0,49 0,49 0,146 0,195 0,49 0,49 0,49 0,0 0,0 0,0 0,0 0,0 -6,-1 -6,-2 -18,-4 -24,-6 -6,-1 -6,-1 -6,-1 0,0 0,0 0,0 0,0 0,0 0,35 0,35 0,106 -4,161 -3,55 -11,96 -24,131 -13,35 -32,65 -54,89 -22,24 -48,42 -82,58 -34,16 -75,29 -187,42 -111,13 -292,26 -382,32 -91,7 -91,7 -91,7 0,0 0,0 -13,-7 -14,-6 -42,-19 -55,-26 -14,-6 -14,-6 -14,-6 0,0 0,0 -10,0 -11,1 -32,2 -42,3 -10,1 -10,1 -284,10 -275,9 -823,27 -1097,36 -274,9 -274,9 -274,9 0,0 0,0 -2,7 -3,8 -8,22 -11,29 -2,7 -2,7 -2,7 0,0 0,0 -935,-10 -934,-11 -2802,-31 -3774,-44 -971,-12 -1045,-16 -1082,-18 -37,-2 -37,-2 -280,-6 -242,-5 -726,-14 -1059,-27 -332,-13 -513,-30 -747,-56 -233,-25 -518,-59 -685,-82 -167,-24 -217,-37 -257,-54 -39,-18 -69,-40 -89,-63 -19,-23 -28,-46 -28,-180 0,-134 9,-379 18,-514 9,-134 18,-159 56,-205 39,-45 107,-112 209,-203 102,-91 239,-207 314,-281 74,-73 87,-104 87,-130 -1,-25 -15,-45 -47,-59 -32,-14 -81,-23 -141,-20 -60,3 -131,19 -179,27 -49,9 -77,10 -93,-3z"/>
   <path class="fil6" d="M22281 15858c21,5 44,9 71,12l13 1 0 1 -688 214 0 -39 604 -189z"/>
   <path class="fil6" d="M11325 15835c10,-10 21,-21 33,-33l1180 198 356 180 -20 35 -367 -184 -1182 -196z"/>
   <path class="fil7" d="M21879 15454c-11,12 -9,30 3,59 19,41 59,103 109,157 26,29 56,55 85,78l8 8c0,0 0,0 -93,-2 -93,-2 -278,-7 -370,-9 -93,-2 -93,-2 -93,-2 0,0 0,0 -27,-13 -26,-13 -79,-39 -133,-56 -55,-18 -111,-28 -179,-35 -69,-7 -150,-12 -223,-6 -72,5 -137,20 -186,33 -49,13 -83,25 -99,31 -17,5 -17,5 -17,5 0,0 0,0 -171,-4 -172,-4 -515,-12 -686,-16 -172,-4 -172,-4 -172,-4 0,0 0,0 0,0 0,0 0,0 -11,-35 -12,-35 -35,-106 -61,-171 -27,-66 -57,-127 -94,-183 -36,-56 -79,-106 -100,-131 -22,-26 -22,-26 -22,-26 0,0 0,0 66,4 66,4 198,11 345,20 147,9 310,19 480,35 170,15 347,36 517,58 170,22 335,45 488,70 153,24 295,51 412,78 94,21 172,43 224,57z"/>
   <path class="fil3" d="M11515 15153c56,-7 139,-12 201,-13 62,0 102,3 137,14 36,10 66,27 88,48 22,21 36,46 43,60 7,14 7,18 2,28 -6,10 -18,25 -54,57 -37,32 -98,80 -164,134 -66,53 -136,112 -194,159 -59,46 -106,82 -141,108 -35,27 -59,45 -70,54 -12,9 -12,9 -12,9 0,0 0,0 6,-97 6,-98 17,-293 26,-399 8,-106 13,-123 30,-136 17,-12 46,-20 102,-26z"/>
   <path class="fil8" d="M11980 15253c1,3 3,6 4,9 7,14 7,18 2,28 -5,8 -15,21 -41,45l-564 0 2 -20c2,-26 4,-46 5,-62l592 0zm-337 330c-24,20 -48,39 -69,57 -12,8 -22,17 -33,25l-181 0 5 -82 278 0z"/>
   <circle class="fil9" cx="13642" cy="16725" r="891"/>
   <circle class="fil10 str0" cx="13642" cy="16725" r="625"/>
   <path class="fil11" d="M16726 15119c14,59 40,165 64,296 24,132 46,290 59,469 12,180 15,382 13,513 -1,27 -1,52 -2,74l-1701 0 3 24 1697 -3c-2,37 -4,66 -7,92l-1690 0 0 67 1681 0c-10,61 -22,124 -29,156 -6,32 -6,32 -6,32 0,0 0,0 0,0 0,0 0,0 -297,0 -297,0 -891,0 -1188,0 -297,0 -297,0 -297,0 0,0 0,0 0,0 0,0 0,0 -28,-70 -28,-70 -83,-209 -188,-408 -105,-199 -259,-459 -402,-681 -143,-223 -276,-409 -351,-514 -75,-105 -92,-128 -86,-140 5,-12 32,-12 487,-5 455,6 1338,19 1785,23 446,3 457,-4 462,0 6,3 8,16 21,75zm77 63c16,75 44,200 65,338 20,138 35,289 42,408 7,119 7,206 5,313 -1,72 -3,153 -8,230l2663 0c2,-20 3,-40 4,-61 8,-176 6,-385 -3,-542 -8,-157 -22,-261 -53,-352 -31,-91 -78,-170 -126,-232 -49,-63 -100,-109 -125,-133 -26,-23 -26,-23 -26,-23 0,0 0,0 0,0 0,0 0,0 0,0 0,0 0,0 -411,-12 -410,-12 -1232,-35 -1643,-47 -411,-12 -411,-12 -411,-12 0,0 0,0 3,13 3,12 8,37 24,112zm103 1310c-2,29 -4,58 -7,85l0 7 2662 0c3,-30 6,-63 8,-97l-2663 5zm-15 159c-9,67 -19,118 -25,148 -8,40 -8,40 -8,40 0,0 0,0 0,0 0,0 0,0 445,4 445,5 1334,14 1779,18 444,5 444,5 444,5 0,0 0,0 0,0 0,0 0,0 10,-70 5,-34 12,-84 19,-145l-2664 0z"/>
   <rect class="fil10" x="14343" y="15207" width="586" height="131"/>
   <rect class="fil12" x="14423" y="15251" width="425.773" height="42.9671"/>
   <rect class="fil10" x="16976" y="15254" width="586" height="131"/>
   <rect class="fil12" x="17057" y="15298" width="425.773" height="42.9671"/>
   <polygon class="fil13" points="13501,17239 13796,17239 13654,16852 "/>
   <polygon class="fil13" points="13156,16891 13315,17140 13564,16810 "/>
   <polygon class="fil13" points="14137,16891 13978,17140 13729,16811 "/>
   <polygon class="fil13" points="14091,16427 14193,16704 13780,16703 "/>
   <polygon class="fil13" points="13198,16425 13096,16702 13509,16701 "/>
   <polygon class="fil13" points="13984,16303 13714,16185 13690,16597 "/>
   <polygon class="fil13" points="13291,16303 13561,16185 13585,16597 "/>
   <path class="fil14" d="M14099 14975c159,8 450,8 595,8 145,0 145,0 145,0 0,0 0,0 0,0 0,0 0,0 -21,-128 -22,-128 -65,-385 -86,-513 -22,-128 -22,-128 -22,-128 0,0 0,0 0,0 0,0 0,0 -75,21 -75,20 -224,62 -337,98 -113,36 -188,66 -251,99 -62,33 -112,69 -148,109 -37,40 -60,83 -71,128 -11,46 -10,94 2,139 12,45 34,87 59,115 24,29 52,45 210,52z"/>
   <path class="fil15" d="M14565 14983c49,0 93,0 129,0 145,0 145,0 145,0 0,0 0,0 0,0 0,0 0,0 -21,-128 -22,-128 -65,-385 -86,-513 -22,-128 -22,-128 -22,-128 0,0 0,0 0,0 0,0 0,0 -75,21 -75,20 -224,62 -337,98 -70,22 -126,42 -173,62l440 588z"/>
   <path class="fil14" d="M14826 14381c23,131 65,367 87,484 21,118 22,118 23,118 1,0 1,0 1,0 0,0 0,0 255,3 255,4 765,10 1021,14 255,3 255,3 255,3 0,0 0,0 0,0 0,0 0,0 -14,-164 -15,-163 -43,-490 -58,-653 -14,-164 -14,-164 -14,-164 0,0 0,0 0,0 0,0 0,0 -81,4 -82,3 -245,9 -416,20 -172,11 -353,27 -517,48 -164,21 -312,47 -405,65 -93,18 -132,29 -151,34 -20,5 -20,5 -20,5 0,0 0,0 3,13 2,13 8,39 31,170z"/>
   <path class="fil15" d="M14826 14381c23,131 65,367 87,484 21,118 22,118 23,118 1,0 1,0 1,0 0,0 0,0 255,3l321 5 -640 -813c-32,7 -50,12 -61,15 -20,5 -20,5 -20,5 0,0 0,0 3,13 2,13 8,39 31,170z"/>
   <path class="fil14" d="M16727 14370c61,156 155,394 202,514 47,119 47,119 47,119 0,0 0,0 0,0 0,0 0,0 0,0 0,0 0,0 290,4 290,4 871,11 1161,15 291,4 291,4 291,4 0,0 0,0 0,0 0,0 0,0 0,-36 0,-37 0,-110 -1,-148 -1,-38 -2,-42 -2,-44 -1,-2 -1,-2 -1,-2 0,0 0,0 -33,-30 -34,-29 -100,-87 -202,-154 -102,-66 -240,-140 -399,-211 -158,-71 -336,-139 -487,-184 -150,-45 -272,-67 -395,-87 -123,-19 -247,-36 -345,-46 -99,-11 -172,-15 -208,-17 -37,-2 -37,-2 -22,35 14,38 43,112 104,268z"/>
   <path class="fil15" d="M18718 14942c0,-35 0,-75 -1,-100 -1,-38 -2,-42 -2,-44 -1,-2 -1,-2 -1,-2 0,0 0,0 -33,-30 -34,-29 -100,-87 -202,-154 -62,-40 -137,-83 -221,-126l460 456z"/>
   <path class="fil15" d="M16727 14370l35 90 536 547 1023 14 -796 -824c-120,-32 -224,-50 -327,-67 -123,-19 -247,-36 -345,-46 -99,-11 -172,-15 -208,-17 -37,-2 -37,-2 -22,35 14,38 43,112 104,268z"/>
   <path class="fil7" d="M13493 15005l-2064 -10c-11,18 -20,41 -24,66 -5,25 -5,52 -4,78 57,-9 124,-19 180,-26 89,-10 150,-11 201,-6 51,5 91,17 122,30 30,14 51,30 69,48 17,18 31,39 41,60 9,21 13,42 12,57 -1,16 -6,26 -8,31l-3 6 92 21c93,22 278,65 424,87 147,23 255,26 531,30 276,5 720,11 942,15l222 3 -52 -82 -209 -325 -52 -81 -420 -2z"/>
   <path class="fil12" d="M13642 15757c-535,0 -969,433 -969,968 0,106 17,207 48,302 27,2 55,4 84,5 -35,-95 -54,-199 -54,-307 0,-492 399,-890 891,-890 491,0 890,398 890,890 0,126 -26,245 -73,354 23,0 50,1 84,1 43,-110 67,-229 67,-355 0,-535 -433,-968 -968,-968z"/>
   <circle class="fil9" cx="21040" cy="16733" r="891"/>
   <circle class="fil10 str0" cx="21040" cy="16733" r="625"/>
   <polygon class="fil13" points="20899,17246 21194,17247 21052,16859 "/>
   <polygon class="fil13" points="20554,16899 20713,17148 20962,16818 "/>
   <polygon class="fil13" points="21536,16899 21376,17148 21127,16818 "/>
   <polygon class="fil13" points="21489,16435 21591,16712 21178,16711 "/>
   <polygon class="fil13" points="20596,16433 20494,16710 20907,16709 "/>
   <polygon class="fil13" points="21383,16311 21112,16193 21088,16605 "/>
   <polygon class="fil13" points="20689,16311 20960,16193 20984,16605 "/>
   <path class="fil12" d="M21040 15764c-535,0 -969,434 -969,969 0,76 9,149 25,219 3,15 6,30 9,42 6,21 11,37 17,52 5,14 11,27 16,37 5,9 10,16 14,22l1 -1 75 -2c-5,-15 -14,-40 -24,-68 -11,-32 -23,-69 -32,-106 -5,-22 -10,-43 -13,-61 -6,-44 -10,-88 -10,-134 0,-492 399,-890 891,-890 492,0 890,398 890,890 0,126 -26,245 -73,353 23,1 51,2 84,2 44,-110 67,-230 67,-355 0,-535 -433,-969 -968,-969z"/>
   <circle class="fil16 str1" cx="13643" cy="16708" r="80"/>
   <circle class="fil16 str1" cx="21049" cy="16724" r="80"/>
   <path class="fil17" d="M21967 15514c-6,15 16,51 41,85 24,33 52,64 85,94 34,30 74,59 111,81 37,22 71,36 109,46 38,10 79,15 99,17 21,3 21,3 21,3 0,0 0,0 -66,-54 -65,-54 -196,-162 -278,-220 -83,-58 -116,-66 -122,-52z"/>
   <ellipse class="fil2" cx="22559" cy="16687" rx="88" ry="138"/>
   <path class="fil6" d="M16706 14796c-39,-163 -113,-477 -155,-635 -16,-58 -27,-95 -35,-119 -4,0 -8,-1 -12,-2 -4,-1 -8,-3 -12,-5 4,24 12,63 25,127 34,164 106,492 142,656 36,164 36,164 36,164 0,0 0,0 9,1 9,0 27,2 36,2 9,1 9,1 9,1 0,0 0,0 -1,-7 -1,-6 -4,-19 -42,-183z"/>
   <path class="fil16 str2" d="M16637 14981c-791,-11 -1660,-15 -2121,-19 -461,-5 -514,-10 -553,-20 -38,-10 -61,-24 -80,-41 -19,-17 -33,-36 -45,-63 -11,-27 -18,-61 -17,-98 1,-37 12,-77 30,-116 18,-38 44,-74 79,-107 34,-33 77,-61 134,-89 58,-27 129,-53 240,-88 111,-35 260,-80 415,-119 155,-39 315,-72 470,-97 154,-25 302,-41 478,-55 176,-14 379,-27 537,-31 158,-4 272,1 412,14 140,12 306,31 466,57 159,26 312,59 449,96 137,37 260,79 392,132 132,52 274,116 401,186 127,70 239,145 307,196 67,51 91,77 119,110 28,33 60,73 81,108 21,34 30,63 33,77 2,15 -2,15 -361,6 -359,-10 -1074,-28 -1866,-39z"/>
   <path class="fil18" d="M15331 15594c42,0 82,10 121,28 37,19 68,46 90,81 22,35 33,77 33,128 0,50 -11,93 -33,128 -22,36 -53,63 -90,81 -39,19 -79,28 -121,28l-161 0 0 283 -160 0 0 -757 321 0zm-31 331c35,0 62,-8 81,-25 18,-15 27,-39 27,-69 0,-31 -9,-55 -27,-70 -19,-17 -46,-25 -81,-25l-130 0 0 189 130 0z"/>
   <path id="1" class="fil18" d="M16306 15976c0,-40 -8,-78 -24,-115 -18,-37 -43,-67 -77,-90 -34,-23 -77,-36 -127,-37 -51,0 -92,12 -125,35 -35,24 -60,54 -76,91 -17,35 -26,74 -26,116 0,42 9,81 26,117 16,36 41,66 76,90 33,23 74,35 125,35 50,-1 93,-14 127,-37 34,-23 59,-53 77,-90 16,-37 24,-75 24,-115zm-227 -396c109,0 203,39 280,116 77,78 116,171 116,281 0,108 -39,201 -116,279 -77,77 -171,116 -280,116 -109,0 -202,-39 -280,-116 -77,-78 -116,-171 -116,-279 0,-110 39,-203 116,-281 78,-77 171,-116 280,-116z"/>
   <polygon id="2" class="fil18" points="17033,16352 16584,16352 16584,15594 16744,15594 16744,16210 17033,16210 "/>
   <polygon id="3" class="fil18" points="17354,15594 17354,16352 17194,16352 17194,15594 "/>
   <path id="4" class="fil18" d="M17653 16016c3,34 12,64 27,92 19,36 46,64 79,83 33,20 71,29 113,29 45,0 84,-10 118,-31 34,-21 58,-49 74,-84l125 78c-22,59 -62,106 -119,139 -58,33 -123,50 -197,50 -72,0 -137,-16 -196,-48 -60,-31 -107,-76 -141,-135 -35,-59 -52,-129 -52,-211 0,-83 17,-153 52,-212 34,-59 81,-104 141,-135 59,-32 124,-47 196,-47 74,0 139,16 197,49 57,34 97,80 119,140l-125 77c-16,-34 -40,-62 -74,-84 -34,-21 -73,-31 -118,-31 -42,0 -80,10 -113,29 -33,19 -60,47 -79,84 -15,27 -24,57 -27,91 -2,21 -2,47 0,77z"/>
   <polygon id="5" class="fil18" points="18785,16352 18310,16352 18310,15594 18774,15594 18774,15736 18470,15736 18470,15898 18742,15898 18742,16038 18470,16038 18470,16211 18785,16211 "/>
  </g>
  <g>
   <path class="fil19" d="M23216 13605l179 0c1,-7 3,-13 4,-20 4,-14 7,-28 11,-39 7,-23 15,-39 28,-54 12,-15 30,-29 45,-43 16,-14 29,-28 39,-43 10,-16 17,-32 15,-45 -3,-14 -14,-24 -24,-29 -10,-5 -18,-5 -22,-5 -4,0 -4,0 -5,-55 0,-55 -2,-164 -6,-225 -3,-61 -8,-74 -15,-83 -7,-9 -17,-14 -27,-15 -11,-1 -23,1 -34,7 -10,5 -20,15 -25,43 -5,27 -6,72 -6,94 -1,23 -1,23 -14,26 -14,3 -41,10 -61,16 -19,7 -30,13 -53,18 -23,4 -58,7 -81,10 -23,3 -33,6 -39,38 -5,33 -5,94 -1,142 3,49 9,85 19,113 10,28 24,49 36,68 12,19 23,36 30,54 0,2 1,4 2,6 2,7 4,14 5,21z"/>
   <path class="fil20" d="M23216 13605l46 0c-4,-13 -8,-28 -13,-40 -4,-12 -10,-22 -16,-32 -6,-10 -14,-20 -22,-33 -9,-13 -18,-29 -27,-50 -8,-21 -16,-48 -21,-78 -5,-30 -7,-64 -8,-92 -1,-28 -1,-50 2,-65 3,-15 9,-23 19,-28 9,-5 23,-8 34,-7 12,1 21,5 30,7 9,2 18,1 27,-3 9,-5 18,-12 27,-17 9,-6 18,-9 29,-9 11,1 24,6 34,5 10,-1 17,-7 21,-14 5,-8 7,-18 8,-36 2,-19 3,-46 5,-69 2,-23 5,-42 10,-55 4,-13 10,-21 17,-26 8,-5 17,-7 28,-6 5,0 10,1 15,2 -7,-6 -15,-9 -23,-10 -11,-1 -23,1 -34,7 -10,5 -20,15 -25,43 -5,27 -6,72 -6,94 -1,23 -1,23 -14,26 -14,3 -41,10 -61,16 -19,7 -30,13 -53,18 -23,4 -58,7 -81,10 -23,3 -33,6 -39,38 -5,33 -5,94 -1,142 3,49 9,85 19,113 10,28 24,49 36,68 12,19 23,36 30,54 0,2 1,4 2,6 2,7 4,14 5,21z"/>
   <path class="fil21" d="M23161 13584l0 130c0,131 0,393 5,538 5,145 14,173 29,194 15,21 37,35 130,42 92,8 256,8 338,8l82 0 0 146 -1 592 0 136 101 0c28,0 28,0 28,13 0,6 1,15 1,30 20,3 43,7 68,12 63,11 141,23 251,33 15,1 32,3 48,4l0 -12 63 0c7,28 19,53 36,65 25,18 63,6 93,-6 30,-13 51,-25 69,-52 1,-2 3,-5 4,-7l59 0 0 17c1,0 2,0 2,0l106 0c7,0 14,3 19,7 34,-2 67,-4 98,-6 3,-8 12,-8 46,-7l34 0c33,-3 62,-6 85,-10 24,-3 42,-7 56,-9 9,-5 17,-9 24,-12 0,-56 2,-56 14,-56 7,-1 16,-1 26,0 1,-16 1,-47 1,-129l0 -534 0 -133 42 24 156 87 0 -481c-30,-16 -72,-35 -109,-51 -43,-19 -80,-32 -118,-45 -39,-13 -80,-26 -121,-36 -42,-10 -85,-18 -124,-25 -40,-8 -75,-15 -104,-21 -29,-6 -50,-10 -76,-17 -4,-2 -8,-3 -13,-4 -11,-3 -22,-7 -33,-11l0 -5 0 -49c-1,0 -2,0 -3,1 -4,3 -9,6 -13,9 -16,10 -30,15 -49,19 -20,5 -45,9 -70,11 -26,2 -52,2 -78,0 -26,-3 -52,-7 -72,-12 -19,-5 -31,-11 -41,-17 -5,-2 -9,-5 -13,-8 0,0 -1,0 -1,0l0 51c-5,2 -11,4 -16,7 -8,5 -16,10 -24,16 -30,9 -66,20 -128,33 -84,17 -214,40 -309,55 -96,15 -156,22 -196,26 -40,5 -58,6 -72,6 -13,1 -21,1 -25,1 -5,0 -6,0 -7,-93 -1,-92 -1,-278 -1,-371l0 -92 -49 -1 -10 0 -188 -1 0 0 -50 0z"/>
   <path class="fil22" d="M25077 14579l41 23 156 87 0 -47 -15 -5c-36,-13 -109,-37 -146,-50 -36,-12 -36,-12 -36,-12l0 4z"/>
   <path class="fil22" d="M23161 13584l0 130c0,131 0,393 5,538 5,145 14,173 29,194 15,21 37,35 130,42 92,8 256,8 338,8l80 0c-2,-15 -7,-19 -15,-22 -8,-4 -18,-8 -43,-10 -24,-3 -62,-5 -123,-8 -61,-3 -144,-9 -200,-13 -57,-5 -86,-10 -106,-16 -19,-6 -29,-14 -36,-24 -7,-9 -11,-22 -17,-156 -5,-134 -12,-390 -18,-522 -5,-106 -10,-132 -15,-141l-9 0z"/>
   <polygon class="fil19" points="24236,13921 24576,13921 24576,14028 24434,14156 24386,14156 24236,14017 "/>
   <path class="fil23" d="M24212 13923c-2,3 7,11 15,17 8,6 14,10 23,15 10,6 22,12 41,17 20,5 46,9 72,12 26,2 52,2 78,0 25,-2 50,-6 70,-11 19,-4 33,-9 49,-19 16,-10 34,-25 43,-32 9,-8 9,-8 9,-8 0,0 0,0 -9,2 -8,2 -24,5 -56,9 -32,4 -80,8 -124,9 -45,0 -87,-3 -117,-6 -30,-2 -48,-3 -63,-5 -16,-1 -29,-3 -31,0z"/>
   <path class="fil19" d="M23836 13191c-4,24 -9,57 -11,73 -3,16 -3,16 -3,16 0,0 0,0 -2,0 -2,0 -7,0 -13,2 -6,2 -14,5 -21,13 -8,7 -15,18 -20,35 -4,16 -5,38 -5,57 1,19 4,35 8,49 4,15 10,28 17,37 8,10 17,16 27,20 10,5 21,7 32,8 12,1 24,1 31,1 6,0 6,0 6,0 0,0 0,0 1,24l0 21c2,15 5,32 8,49 4,26 10,50 18,72 7,23 15,45 24,64 8,19 18,35 27,49 10,14 20,26 33,39 13,14 29,29 44,41 16,13 31,22 49,32 17,9 36,19 58,27 22,9 46,16 68,22 22,5 42,9 62,11 19,2 38,2 63,2 25,1 56,1 89,0 33,0 67,-3 100,-5 33,-3 64,-7 93,-13 29,-7 56,-16 81,-29 26,-13 50,-29 70,-44 19,-14 36,-27 50,-44 15,-17 29,-37 42,-58 13,-21 27,-42 39,-66 12,-23 22,-49 30,-75 9,-25 15,-50 19,-73 5,-23 8,-45 9,-56 2,-11 2,-11 2,-11 0,0 0,0 2,1 2,1 7,2 14,2 8,1 19,0 31,-3 2,-1 5,-1 7,-2 4,-2 8,-5 12,-8 10,-10 17,-25 22,-44 4,-20 6,-43 7,-65 1,-22 1,-42 -4,-58 -4,-16 -13,-28 -20,-34 -6,-7 -10,-9 -13,-10 -2,-1 -2,-1 -2,-16 -1,-15 -1,-45 -2,-59 0,-15 0,-15 -1,-36 -1,-20 -3,-60 -8,-90 -6,-30 -15,-49 -52,-65 -37,-16 -102,-29 -208,-36 -106,-7 -253,-8 -373,-5 -120,2 -215,7 -285,14 -71,8 -118,18 -151,33 -32,15 -49,36 -62,60 -13,24 -23,51 -28,72 -6,21 -8,36 -11,59z"/>
   <path class="fil20" d="M23802 13284c-5,2 -11,5 -16,11 -8,7 -15,18 -20,35 -4,16 -5,38 -5,57 1,19 4,35 8,49 4,15 10,28 17,37 8,10 17,16 27,20 10,5 21,7 32,8 12,1 24,1 31,1 6,0 6,0 6,0 0,0 0,0 1,24l0 21c2,15 5,32 8,49 4,26 10,50 18,72 7,23 15,45 24,64 8,19 18,35 27,49 10,14 20,26 33,39 13,14 29,29 44,41 16,13 31,22 49,32 17,9 36,19 58,27 22,9 46,16 68,22 22,5 42,9 62,11 19,2 38,2 63,2 25,1 56,1 89,0 33,0 67,-3 100,-5 33,-3 64,-7 93,-13 29,-7 56,-16 81,-29 26,-13 50,-29 70,-44 19,-14 36,-27 50,-44 15,-17 29,-37 42,-58 13,-21 27,-42 39,-66 12,-23 22,-49 30,-75 9,-25 15,-50 19,-73 5,-23 8,-45 9,-56 2,-11 2,-11 2,-11 0,0 0,0 2,1 2,1 7,2 14,2 8,1 19,0 31,-3 2,-1 5,-1 7,-2 4,-2 8,-5 12,-8 10,-10 17,-25 22,-44 4,-20 6,-43 7,-65 1,-22 1,-42 -4,-58 -4,-16 -13,-28 -20,-34 -2,-3 -4,-5 -6,-6 3,9 6,20 8,32 3,15 4,31 3,50 -1,18 -5,39 -10,56 -5,17 -13,30 -23,39 -10,9 -23,13 -34,15 -10,2 -18,2 -22,1 -4,0 -4,0 -4,0 0,0 0,0 -1,7 -1,6 -4,19 -8,39 -4,19 -10,45 -18,72 -9,27 -20,54 -32,78 -11,23 -24,43 -38,63 -15,21 -32,41 -50,59 -19,18 -37,34 -55,48 -19,14 -36,27 -57,39 -20,12 -43,23 -68,31 -25,9 -51,14 -80,18 -29,4 -61,5 -96,7 -34,1 -71,2 -103,2 -32,-1 -59,-2 -87,-7 -28,-4 -59,-13 -86,-22 -27,-10 -51,-21 -72,-33 -22,-13 -41,-27 -58,-42 -16,-15 -30,-30 -43,-49 -13,-19 -25,-41 -36,-64 -10,-22 -19,-44 -26,-69 -7,-25 -13,-52 -18,-80 -4,-27 -6,-56 -7,-70 -1,-14 -1,-14 -1,-14 0,0 0,0 -8,3 -8,3 -24,8 -37,10 -13,1 -23,-2 -32,-9 -9,-7 -17,-19 -23,-31 -6,-13 -11,-28 -14,-45 -3,-18 -5,-39 -4,-57 1,-18 3,-33 8,-43 3,-6 6,-10 8,-14z"/>
   <path class="fil24" d="M24328 13794c4,5 9,9 14,14 5,4 10,8 15,12 6,3 12,5 19,7 8,2 17,4 26,4 10,1 19,1 29,1 10,0 21,-1 30,-3 8,-1 13,-4 18,-7 4,-3 8,-6 12,-11 4,-4 7,-10 9,-14 1,-3 1,-3 -15,-4 -15,-1 -47,-2 -78,-5 -31,-2 -62,-5 -75,-4 -13,1 -8,5 -4,10z"/>
   <path class="fil24" d="M24575 13540c-7,1 -17,1 -26,1 -8,-1 -15,-2 -20,-5 -6,-2 -10,-6 -14,-10 -4,-4 -8,-9 -13,-16 -4,-7 -10,-17 -15,-30 -6,-13 -11,-28 -14,-44 -4,-15 -6,-32 -6,-44 -1,-12 -1,-20 -1,-29 1,-10 2,-21 6,-31 4,-11 10,-21 16,-29 6,-9 12,-16 19,-21 8,-5 16,-9 22,-11 6,-3 10,-3 17,-1 6,2 15,7 29,29 14,22 33,61 43,97 9,36 9,70 5,92 -4,23 -13,33 -19,40 -6,6 -9,8 -13,9 -4,2 -8,3 -16,3z"/>
   <path class="fil24" d="M24306 13535c10,-1 18,-4 25,-11 7,-7 13,-18 21,-33 7,-14 15,-32 20,-50 5,-18 5,-35 5,-53 0,-17 0,-34 -2,-48 -2,-13 -5,-24 -10,-33 -4,-9 -11,-18 -17,-24 -7,-6 -14,-11 -21,-13 -7,-3 -15,-4 -28,-4 -13,0 -31,1 -47,5 -15,3 -27,9 -38,30 -10,20 -19,55 -17,88 3,33 17,65 32,89 15,25 31,42 44,51 13,8 24,8 33,6z"/>
   <path class="fil24" d="M23979 13117c0,46 0,129 0,171 0,41 0,41 -9,37 -9,-3 -27,-11 -43,-20 -15,-9 -29,-21 -39,-49 -11,-28 -19,-74 -18,-113 1,-40 11,-73 26,-90 15,-16 37,-15 52,-12 15,3 23,7 27,14 4,7 4,16 4,62z"/>
   <path class="fil24" d="M24899 13250c-1,-43 -1,-121 -1,-159 0,-39 0,-39 16,-39 16,0 47,0 64,11 17,11 19,32 20,57 1,24 0,51 -4,72 -4,22 -11,37 -27,56 -16,18 -41,40 -54,47 -13,6 -14,-3 -14,-45z"/>
   <path class="fil25" d="M24076 12874c-181,2 -198,-2 -229,-22 -1,0 -2,-1 -4,-1 -6,21 -16,57 -21,85 -3,14 -4,25 -5,35l0 0 0 1c0,4 0,11 0,22 -1,16 -1,41 0,72 1,30 2,66 4,91 2,20 3,34 5,45 1,7 1,13 2,19 1,9 2,17 3,22 1,5 2,8 2,10 1,5 1,5 14,8l52 13 10 3 -1 -2 4 1 0 -32 0 -134 0 -34 35 10c35,10 104,29 182,43 78,13 164,20 240,23 76,2 143,1 206,-4 63,-4 123,-10 185,-22 62,-12 127,-29 159,-37l32 -9 0 30 0 117 0 29 16 -10 35 -23 27 -17 16 -11 -1 -23c0,-12 -1,-30 -1,-50l-1 -6c0,-17 0,-38 0,-58 0,-20 0,-40 0,-57 0,-2 0,-4 0,-6 -1,-16 -2,-49 -8,-80 -5,-27 -14,-54 -23,-76 -24,14 -57,15 -201,19 -184,4 -547,13 -734,16z"/>
   <path class="fil26" d="M24969 12786c11,2 24,19 36,43 12,23 23,54 29,86 6,31 7,64 8,80 0,16 0,16 -71,16 -72,0 -215,0 -419,0 -204,0 -469,-1 -602,-1 -132,-1 -132,-1 -133,-11 0,-11 -1,-33 5,-63 5,-31 17,-71 23,-90 6,-20 6,-20 105,-23 100,-3 299,-8 481,-10 181,-2 346,-2 432,-8 86,-7 95,-20 106,-19z"/>
   <ellipse class="fil23" cx="24679" cy="13275" rx="94" ry="31"/>
   <path class="fil27" d="M25012 12838c13,-4 20,-10 31,-21 31,-28 94,-86 124,-118 3,-4 6,-7 9,-11 11,-11 12,-15 12,-18 0,-4 -3,-8 -39,-30 -36,-21 -106,-60 -140,-80 -35,-19 -35,-19 -35,-19 0,0 0,0 -82,-25 -82,-25 -246,-74 -339,-101 -92,-27 -113,-31 -133,-30 -11,1 -22,3 -46,9 -15,3 -31,6 -51,11 -56,14 -136,36 -216,60l-205 55c-92,24 -92,24 -120,49 -21,18 -59,51 -88,77 -25,17 -36,28 -41,37 -7,9 -7,12 -3,17 2,12 12,25 38,46 34,27 95,67 125,88 18,11 25,16 34,18 31,20 48,24 229,22 187,-3 550,-12 734,-16 147,-4 179,-5 202,-20z"/>
   <path class="fil26" d="M25016 12837c10,-4 17,-11 27,-20 31,-28 94,-86 124,-118 3,-4 6,-7 9,-11 11,-11 12,-15 12,-18 0,-4 -3,-8 -39,-30 -36,-21 -106,-60 -140,-80 -35,-19 -35,-19 -35,-19l-32 -10c47,33 117,81 154,109 45,34 46,39 38,51 -8,13 -23,32 -45,59 -22,26 -49,59 -63,75 -5,6 -8,9 -10,12z"/>
   <path class="fil26" d="M23835 12538c-29,9 -35,15 -53,31 -21,18 -59,51 -88,77 -25,17 -36,28 -41,37 -7,9 -7,12 -3,17 2,12 12,25 38,46 34,27 95,67 125,88 17,11 25,16 33,18 -3,-3 -7,-7 -12,-11 -29,-24 -86,-72 -115,-100 -29,-28 -30,-35 -30,-43 1,-8 3,-16 23,-39 19,-23 56,-62 78,-84 23,-22 30,-28 43,-36l2 -1z"/>
   <ellipse class="fil23" cx="24158" cy="13276" rx="94" ry="31"/>
   <ellipse class="fil28" cx="24418" cy="12643" rx="113" ry="137"/>
   <path class="fil29" d="M24815 13266l-268 0c-12,0 -23,5 -31,13l0 0c-3,3 -4,6 -6,9 -1,4 -2,9 -3,14 -1,5 -1,11 -1,14 0,3 0,3 0,3 0,0 0,0 -5,-2 -5,-1 -16,-4 -28,-6 -13,-3 -29,-5 -44,-6 -15,-1 -30,-1 -43,0 -13,2 -23,5 -31,8 -8,3 -14,5 -17,6 -3,2 -3,2 -3,2 0,0 0,0 0,-6 0,-5 0,-16 -2,-24 -1,-2 -1,-4 -2,-5 -7,-12 -21,-20 -36,-20l-268 0c-18,0 -34,11 -40,27l-154 -35 151 139 0 0 0 102c0,23 20,42 43,42l268 0c24,0 43,-19 43,-42l0 -124 166 0 0 124c0,23 19,42 43,42l268 0c23,0 42,-19 42,-42l0 -125 188 -179 -197 86c-8,-9 -20,-15 -33,-15z"/>
   <path class="fil30" d="M24810 13266l-263 0c-12,0 -23,5 -31,13l0 0c-3,3 -4,6 -6,9 -1,4 -2,9 -3,14 -1,5 -1,11 -1,14 0,3 0,3 0,3l-1 -1 0 15c0,11 -1,27 -1,42l0 0 0 124c0,23 19,42 43,42l144 0 1 -1c12,-8 17,-20 19,-26 2,-6 2,-6 -25,-5 -27,0 -81,0 -111,-2 -30,-2 -35,-7 -38,-14 -3,-7 -4,-16 -4,-41 -1,-25 -2,-66 -1,-96 1,-29 3,-46 8,-55 4,-10 10,-12 16,-13 6,-1 13,-1 43,-1 30,0 83,-1 118,0 34,0 50,1 62,0 13,-2 22,-6 28,-14 1,-2 2,-5 3,-7z"/>
   <path class="fil30" d="M24282 13266l-255 0c-18,0 -34,11 -40,27l-154 -35 151 139 0 0 0 102c0,23 20,42 43,42l156 0c13,-8 19,-17 23,-22 5,-7 5,-7 -19,-6 -23,0 -71,1 -102,1 -30,-1 -45,-3 -55,-6 -10,-3 -15,-8 -19,-13 -3,-6 -4,-12 -4,-42 -1,-29 -1,-83 0,-113 2,-31 6,-39 11,-44 4,-6 10,-9 22,-11 12,-2 31,-2 56,-2 26,0 58,0 88,1 31,0 59,1 78,-5 10,-3 17,-8 20,-13z"/>
   <path class="fil31" d="M24319 13273c-7,-4 -15,-7 -24,-7l-67 0c0,23 1,57 -1,84 -2,33 -7,57 -15,81 -8,23 -19,47 -33,66 -13,19 -29,34 -44,44l104 0c8,-7 15,-16 23,-26 11,-16 21,-35 29,-56 8,-21 14,-45 18,-69 4,-25 7,-51 8,-72 2,-18 2,-33 2,-45z"/>
   <path class="fil31" d="M24815 13266l-67 0c0,16 0,36 0,55 -1,28 -2,54 -7,78 -4,25 -13,49 -23,70 -10,21 -21,39 -33,53 -7,8 -13,14 -18,19l86 0c1,-1 3,-3 5,-4 10,-9 20,-20 30,-34 9,-15 19,-33 26,-53 8,-21 13,-44 17,-68 3,-24 5,-49 6,-72 0,-14 0,-27 -1,-38 -6,-4 -13,-6 -21,-6z"/>
   <path class="fil32" d="M24420 13743c-67,0 -128,-11 -173,-29 6,55 81,98 173,98 92,0 167,-43 173,-98 -45,18 -106,29 -173,29z"/>
   <path class="fil33" d="M24356 13621c-13,-1 -31,-1 -41,-4 -10,-4 -12,-10 -12,-20 1,-10 4,-23 11,-32 6,-9 16,-14 29,-18 12,-4 28,-6 36,-7 8,-1 8,-1 8,-1 0,0 0,0 0,13 0,14 0,41 0,55 0,14 0,14 0,14 0,0 0,0 -4,0 -5,0 -14,0 -27,0z"/>
   <line class="fil16" x1="24098" y1="14476" x2="24098" y2= "14864" />
   <line class="fil16" x1="23923" y1="14603" x2="24278" y2= "14603" />
   <rect class="fil34" x="25274" y="13881" width="844" height="1152"/>
   <rect class="fil8" x="25351" y="13957" width="691" height="1000"/>
   <path class="fil19" d="M25944 13776c-26,-7 -54,-15 -80,-20 -27,-6 -52,-8 -71,-8 -18,0 -29,2 -37,8 -8,5 -12,13 -17,19 -6,7 -11,11 -23,16 -11,5 -27,12 -41,20 -13,8 -24,19 -30,30 -7,10 -8,21 -1,30 7,9 23,15 34,24 12,8 19,18 29,28 10,10 23,21 43,30 21,8 48,13 76,15 29,1 58,-1 82,-10 25,-10 44,-27 65,-39 21,-13 44,-21 67,-29 22,-7 44,-13 52,-21 9,-9 3,-20 -12,-32 -15,-13 -39,-27 -63,-37 -24,-11 -47,-16 -73,-24z"/>
   <path class="fil20" d="M25756 13955c19,7 44,11 70,13 29,1 58,-1 82,-10 25,-10 44,-27 65,-39 21,-13 44,-21 67,-29 9,-3 19,-6 28,-9 -12,1 -25,4 -41,8 -22,7 -51,17 -78,28 -27,10 -52,20 -77,26 -25,7 -51,9 -74,10 -15,1 -28,1 -42,2z"/>
   <path class="fil20" d="M25944 13776c-26,-7 -54,-15 -80,-20 -27,-6 -52,-8 -71,-8 -18,0 -29,2 -37,8 -8,5 -12,13 -17,19 -6,7 -11,11 -23,16 -11,5 -27,12 -41,20 -13,8 -24,19 -30,30 -7,10 -8,21 -1,30 7,9 23,15 34,24 5,3 9,7 13,10l0 0c0,-12 5,-26 12,-39 7,-12 16,-21 26,-28 11,-6 22,-10 35,-15 13,-4 28,-10 50,-14 21,-4 50,-6 81,-6 32,0 65,2 96,7 31,5 59,14 96,37l5 3c-2,-4 -7,-9 -12,-13 -15,-13 -39,-27 -63,-37 -24,-11 -47,-16 -73,-24z"/>
   <rect class="fil8" x="24290" y="15500" width="227" height="109"/>
   <path class="fil16 str3" d="M23872 15625c-1,14 -2,27 -3,38 -4,49 -12,62 -29,70 -17,8 -44,11 -66,8 -22,-3 -40,-12 -51,-25 -11,-13 -17,-31 -19,-89 -2,-59 -2,-158 -1,-207 0,-50 0,-50 28,-50 29,0 85,0 114,0 28,0 28,0 28,13 1,11 1,31 1,74 38,0 88,1 116,2 38,2 39,3 41,29 3,27 7,78 6,106 -2,29 -8,34 -43,35 -32,1 -87,-1 -122,-4z"/>
   <rect class="fil16 str3" x="24103" y="15467" width="165" height="173" rx="30" ry="26"/>
   <path class="fil35" d="M23995 17375c149,0 269,71 269,158l22 0 0 75 -588 0 0 -75 27 0c0,-87 121,-158 270,-158z"/>
   <path class="fil35" d="M24751 17375c149,0 269,71 269,158l22 0 0 75 -588 0 0 -75 27 0c0,-87 121,-158 270,-158z"/>
   <rect class="fil22" x="24364" y="14160" width="85.9341" height="1310.51"/>
   <path class="fil22" d="M24208 14344c-10,-18 -30,-55 -43,-90 -13,-35 -19,-68 -22,-94 -2,-26 -2,-45 4,-64 2,-10 6,-19 10,-28 -7,12 -14,26 -19,41 -6,17 -9,36 -10,55 -2,19 -2,38 2,62 5,24 13,54 24,78 10,25 22,45 33,60 11,15 21,26 26,31l4 6 30 -35 117 -139 0 -41 -112 136 -34 41 -10 -19z"/>
   <path class="fil22" d="M24450 14175l0 44c4,5 8,11 14,18l104 129 26 32 5 -4c6,-4 17,-12 28,-27 12,-15 23,-37 33,-61 10,-25 18,-52 23,-80 6,-29 8,-58 7,-85 -2,-27 -7,-50 -21,-74 -11,-19 -27,-38 -41,-53 -2,0 -4,-1 -6,-1l-13 -4c14,8 28,19 39,33 13,16 23,34 28,54 6,19 6,38 4,64 -3,26 -9,59 -22,94 -13,35 -33,72 -43,90l-10 19 -34 -41 -121 -147z"/>
   <path class="fil22" d="M23951 14476c-5,1 -11,4 -16,9 -5,4 -10,11 -13,18 -4,8 -6,16 -7,70 -1,54 -1,152 0,205 1,52 2,59 5,65 2,6 6,12 12,17 5,4 13,7 28,8 15,2 36,2 82,2 47,0 117,0 156,-1 39,0 45,-1 53,-3 7,-2 16,-7 23,-13 6,-7 10,-16 13,-24 2,-8 2,-14 1,-67 -1,-53 -2,-153 -4,-205 -1,-53 -3,-59 -7,-64 -4,-5 -10,-9 -16,-12 -6,-3 -13,-5 -16,-5 -3,-1 -3,-1 -3,-1 0,0 0,0 2,1 2,1 6,3 9,6 4,4 8,8 11,14 3,7 5,15 7,66 1,51 1,145 0,196 -1,51 -3,59 -5,66 -2,7 -5,13 -12,17 -6,4 -15,6 -63,6 -49,1 -137,0 -184,-2 -48,-1 -54,-3 -59,-6 -6,-4 -9,-10 -11,-60 -2,-51 -1,-146 0,-199 2,-54 3,-64 5,-72 2,-8 5,-14 10,-19 4,-6 10,-11 10,-14 0,-2 -5,-1 -11,1z"/>
   <rect class="fil22" x="23928" y="14591" width="350.244" height="23.4441"/>
   <rect class="fil22" x="24088" y="14475" width="19.523" height="382.806"/>
   <line class="fil16" x1="24757" y1="14487" x2="24757" y2= "14874" />
   <line class="fil16" x1="24582" y1="14613" x2="24936" y2= "14613" />
   <path class="fil28" d="M24645 14616c58,-3 171,-2 230,-4 58,-1 61,-3 62,-7 2,-4 2,-9 1,-18 -1,-9 -2,-23 -3,-29 0,-7 0,-7 -59,-6 -58,0 -175,1 -233,2 -58,0 -58,0 -59,6 -1,7 -2,19 -2,32 -1,12 0,25 1,28 2,4 4,-2 62,-4z"/>
   <path class="fil22" d="M24610 14486c-5,2 -11,4 -16,9 -5,5 -10,11 -14,19 -3,7 -5,16 -6,69 -1,54 -1,153 -1,205 1,53 3,59 6,65 2,7 6,13 11,17 6,4 14,7 29,9 14,1 36,2 82,2 47,0 117,-1 156,-1 39,-1 45,-1 53,-4 7,-2 16,-6 22,-13 7,-7 11,-16 13,-24 3,-7 3,-14 2,-67 -1,-53 -2,-152 -4,-205 -1,-53 -4,-59 -8,-64 -3,-5 -9,-9 -15,-12 -6,-2 -13,-4 -16,-5 -3,-1 -3,-1 -3,-1 0,0 0,0 2,1 2,1 6,4 9,7 4,3 7,7 10,14 3,6 6,14 7,65 2,51 2,145 1,196 -1,51 -3,59 -5,66 -3,8 -6,14 -12,17 -6,4 -15,6 -63,7 -49,0 -137,-1 -185,-2 -47,-1 -53,-3 -59,-7 -5,-4 -9,-9 -10,-60 -2,-50 -1,-146 0,-199 1,-53 3,-64 5,-72 2,-8 5,-13 9,-19 5,-5 10,-11 11,-13 0,-3 -5,-2 -11,0z"/>
   <rect class="fil22" x="24587" y="14601" width="350.244" height="23.4441"/>
   <rect class="fil22" x="24747" y="14602" width="19.523" height="265.751"/>
   <path class="fil28" d="M24065 14055c-7,-1 -16,-1 -32,0 -16,1 -37,3 -53,5 -16,3 -25,7 -30,11 -4,4 -4,9 -1,12 3,3 8,5 24,4 15,-1 41,-6 61,-11 21,-6 35,-12 39,-16 5,-3 0,-5 -8,-5z"/>
   <path class="fil28" d="M23904 14076c-9,-2 -20,-1 -31,0 -11,1 -22,2 -32,4 -10,2 -20,6 -27,10 -7,4 -12,9 -12,13 -1,4 1,7 6,10 4,2 11,4 22,4 11,0 28,-2 41,-4 14,-2 26,-5 35,-8 8,-4 13,-7 16,-11 3,-3 3,-7 0,-11 -3,-3 -9,-6 -18,-7z"/>
   <path class="fil28" d="M24765 14046c8,0 17,0 33,1 16,1 37,4 53,7 15,3 25,7 29,12 5,4 4,8 1,11 -3,4 -8,6 -24,4 -15,-2 -41,-7 -61,-13 -20,-6 -34,-13 -39,-17 -4,-3 1,-5 8,-5z"/>
   <path class="fil28" d="M24927 14071c8,-1 20,1 31,2 10,1 21,2 31,5 10,2 20,6 27,10 7,4 11,9 12,13 1,5 -2,8 -7,10 -4,2 -11,4 -22,3 -11,0 -27,-2 -41,-4 -14,-3 -26,-6 -34,-10 -8,-3 -13,-7 -16,-11 -3,-3 -3,-7 0,-11 3,-3 10,-6 19,-7z"/>
   <circle class="fil22" cx="24449" cy="15300" r="36"/>
   <circle class="fil22" cx="24451" cy="15126" r="36"/>
   <circle class="fil22" cx="24453" cy="14953" r="36"/>
   <circle class="fil22" cx="24455" cy="14779" r="36"/>
   <circle class="fil22" cx="24457" cy="14605" r="36"/>
   <circle class="fil22" cx="24459" cy="14431" r="36"/>
   <rect class="fil36" x="25484" y="14023" width="414.045" height="36.4594"/>
   <circle class="fil37" cx="25486" cy="14827" r="74"/>
   <path class="fil16 str4" d="M25794 14838c0,-1 33,-33 7,-1 -59,72 36,-9 59,-21 -84,71 -43,43 37,4 56,-27 -28,5 -52,21 -135,90 79,-5 74,-30 -40,2 -126,100 -21,21 11,-9 53,-72 13,-40 -1,0 -128,108 -78,75 13,-9 74,-40 76,-43 -47,7 -119,106 -7,24 25,-18 -36,20 15,-4 29,-13 -26,-3 -25,8 39,0 55,-34 20,-11 -12,7 11,-1 -5,5 -18,6 54,6 76,-3 2,-1 3,0 5,0"/>
   <path class="fil38" d="M23874 15410c0,-13 -1,-21 -1,-27 0,-13 0,-13 -28,-13l-101 0 -13 0c-28,0 -28,0 -28,50 -1,49 -1,148 1,207 2,58 8,76 19,89 4,5 9,9 15,13 0,58 0,132 0,227 2,346 8,969 10,1281l2 230c43,-54 136,-92 245,-92 110,0 204,39 246,94 1,-33 3,-80 5,-146 6,-226 19,-678 29,-918 10,-240 16,-269 27,-292 10,-24 24,-42 46,-51 23,-9 52,-9 77,-1 25,9 45,26 56,54 11,29 13,69 15,312 2,242 3,686 4,908l1 139c39,-58 136,-99 250,-99 109,0 202,38 245,93l7 -214 39 -1226 3 -100c4,2 9,3 15,3 7,0 17,-3 25,-8 8,-5 14,-11 20,-19 5,-8 9,-16 12,-33 2,-16 4,-41 5,-116 0,-76 0,-202 -1,-270 -1,-68 -2,-76 -5,-84 -2,-8 -6,-15 -12,-20 -5,-4 -13,-7 -21,-9 -8,-2 -17,-4 -24,-4 -7,1 -12,3 -17,7 -1,0 -2,1 -3,2l-1 1c-5,6 -9,15 -11,24 -2,9 -3,18 -3,22 0,5 0,5 -7,7 -7,1 -22,5 -62,11 -40,5 -106,11 -140,15 -20,3 -29,5 -33,8 -27,2 -58,5 -91,6 -35,0 -73,-2 -105,-3 -33,0 -59,1 -106,0 -46,-1 -112,-3 -158,-5 -45,-2 -71,-3 -107,-6 -37,-4 -84,-8 -139,-15 -54,-8 -115,-18 -152,-24 -24,-4 -38,-6 -50,-8zm1157 488l0 0 0 21 0 -21z"/>
   <path class="fil35" d="M24968 17440c11,9 20,18 28,28l7 -214 39 -1226 3 -100c4,2 9,3 15,3 7,0 17,-3 25,-8 4,-2 7,-5 10,-8 0,-33 -1,-64 -3,-91 -9,-187 -38,-228 -54,-234 -16,-7 -19,21 -29,350 -10,329 -27,959 -35,1274 -3,108 -5,179 -6,226zm63 -1542l0 0 0 21 0 -21z"/>
   <path class="fil35" d="M24221 17448c8,7 15,14 20,21 1,-33 3,-80 5,-146 6,-226 19,-678 29,-918 10,-240 16,-269 27,-292 10,-24 24,-42 46,-51 23,-9 52,-9 77,-1 25,9 45,26 56,54 11,29 13,69 15,312 2,242 3,686 4,908l1 139c6,-9 13,-17 22,-26l1 -137c2,-210 4,-630 4,-863 0,-234 -2,-281 -9,-317 -7,-37 -19,-63 -36,-82 -17,-20 -41,-33 -67,-39 -26,-6 -55,-5 -78,4 -24,10 -43,28 -57,56 -13,28 -21,65 -27,133 -5,68 -9,166 -12,318 -4,151 -7,357 -11,527 -3,170 -7,303 -9,378l-1 22z"/>
   <path class="fil35" d="M23717 15708c2,3 4,5 6,8 4,5 9,9 15,13 0,58 0,132 0,227 2,346 8,969 10,1281l2 230c6,-7 13,-14 20,-21l-1 -255c-2,-297 -6,-891 -8,-1198 -3,-307 -5,-328 -18,-324 -6,2 -15,10 -26,39z"/>
   <path class="fil30" d="M23881 15644c-3,8 -4,20 -6,34 -3,15 -9,32 -16,44 -7,13 -16,20 -26,25 -9,5 -20,7 -32,6 -12,0 -25,-2 -38,-5 -12,-2 -23,-5 -34,-10 -10,-6 -20,-13 -28,-53 -9,-39 -17,-111 -18,-170 -1,-59 4,-104 7,-127 3,-24 5,-25 36,-27 31,-1 92,-2 125,-1 32,0 35,3 36,17 0,13 -2,39 -4,52 -1,13 -1,13 19,13 20,1 61,3 86,6 26,3 37,8 43,16 6,8 8,20 10,44 1,23 2,59 1,80 -1,22 -4,30 -8,36 -3,6 -9,10 -32,11 -24,0 -65,-3 -89,-3 -24,1 -29,4 -32,12z"/>
   <path class="fil30" d="M24777 15474c0,-12 3,-14 37,-18 34,-4 100,-10 140,-16 40,-5 54,-9 61,-11 8,-2 8,-2 8,-6 0,-4 0,-13 3,-22 2,-9 6,-18 11,-24 6,-6 13,-9 20,-10 8,0 17,1 25,3 8,3 15,5 21,10 6,5 9,12 12,19 3,8 4,17 5,85 1,67 1,194 0,270 0,75 -2,99 -5,116 -3,16 -6,25 -12,33 -5,7 -11,14 -19,19 -8,4 -18,7 -26,8 -8,0 -14,-3 -19,-6 -5,-3 -9,-7 -10,-48 -2,-42 -2,-120 -1,-159 0,-40 0,-40 -9,-39 -9,0 -26,1 -50,0 -24,-1 -54,-4 -78,-8 -25,-3 -43,-7 -58,-12 -15,-4 -27,-9 -35,-16 -9,-6 -15,-14 -18,-33 -3,-19 -3,-48 -3,-74 -1,-26 -1,-49 0,-61z"/>
   <path class="fil39" d="M25097 15376c2,1 4,3 6,4 6,5 9,12 12,19 3,8 4,17 5,85 1,67 1,194 0,270 0,75 -2,99 -5,116 -3,16 -6,25 -12,33 -3,5 -7,10 -12,13 0,-14 0,-34 0,-61 1,-98 1,-293 4,-397 0,-38 1,-64 2,-82z"/>
   <path class="fil30" d="M24241 15640l0 -173c-1,0 -1,0 -2,0l-106 0c-16,0 -30,13 -30,30l0 113c0,17 14,30 30,30l106 0 2 0z"/>
   <path class="fil30" d="M24565 15465l0 175c1,0 2,0 2,0l106 0c17,0 30,-14 30,-32l0 -121c0,-40 -82,-22 -115,-22 -8,0 -15,0 -23,0z"/>
   <rect class="fil1" x="24241" y="15450" width="324" height="211"/>
   <rect class="fil30" x="24294" y="15497" width="224" height="115"/>
   <path class="fil40" d="M24819 17402c17,4 34,8 51,15 18,8 36,18 52,28 16,10 28,21 37,31 9,10 14,18 18,28 4,9 7,19 8,24 1,5 1,5 -19,5 -20,0 -60,0 -80,0 -19,0 -19,0 -19,0 0,0 0,0 -1,-6 0,-7 0,-20 -3,-35 -3,-15 -7,-33 -15,-46 -7,-13 -17,-21 -26,-29 -9,-8 -18,-14 -27,-18 -9,-5 -20,-7 -25,-8 -5,-1 -5,-1 4,1 9,2 27,6 45,10z"/>
   <path class="fil40" d="M24061 17402c17,4 34,8 51,15 18,8 37,18 52,28 16,10 28,21 37,31 9,10 14,18 18,28 4,9 7,19 8,24 2,5 2,5 -18,5 -20,0 -60,0 -80,0 -20,0 -20,0 -20,0 0,0 0,0 -1,-6 0,-7 0,-20 -3,-35 -2,-15 -7,-33 -15,-46 -7,-13 -17,-21 -26,-29 -9,-8 -17,-14 -27,-18 -9,-5 -19,-7 -25,-8 -5,-1 -5,-1 4,1 9,2 28,6 45,10z"/>
   <path class="fil16 str5" d="M25442 14172l515 0m-515 245l515 0m-515 -31l515 0m-515 -30l515 0m-515 -31l515 0m-515 -30l515 0m-515 -31l515 0m-515 -30l515 0m-515 -31l515 0"/>
  </g>
  <g>
   <path class="fil41" d="M37916 16930c-22,43 -54,111 -80,155 -27,43 -48,62 -94,73 -46,12 -117,18 -1024,16 -906,-1 -2648,-9 -3526,-14 -879,-4 -893,-6 -904,-23 -10,-18 -17,-52 -27,-111 -11,-59 -25,-142 -31,-184 -6,-42 -4,-44 -310,-44 -307,0 -923,2 -1256,18 -334,17 -385,48 -410,90 -25,41 -24,93 -26,138 -2,45 -7,83 -20,105 -12,21 -32,27 -116,11 -84,-15 -231,-50 -327,-75 -97,-24 -142,-37 -178,-45 -37,-8 -66,-11 -91,-17 -24,-7 -44,-17 -58,-37 -14,-20 -22,-49 -16,-124 5,-74 23,-194 35,-288 11,-95 15,-163 23,-271 9,-107 22,-253 33,-348 12,-95 21,-139 33,-174 13,-35 29,-61 74,-103 46,-43 121,-101 224,-157 104,-57 236,-112 385,-163 149,-51 315,-97 470,-135 155,-37 298,-66 490,-95 192,-28 432,-56 745,-89 313,-33 700,-71 893,-90 193,-19 193,-19 193,-19 0,0 0,0 42,-35 43,-35 127,-105 264,-202 137,-97 327,-221 503,-323 175,-103 336,-185 472,-244 137,-60 249,-97 388,-133 139,-36 305,-72 495,-98 190,-26 404,-44 623,-55 220,-11 445,-16 653,-10 209,6 400,23 575,42 176,20 335,43 531,83 196,40 428,98 544,127 116,29 116,29 121,34 4,4 14,14 24,24 11,9 22,20 254,106 231,87 682,249 928,335 246,85 287,95 340,100 53,5 117,6 174,14 58,8 108,23 220,40 112,17 286,37 442,48 155,11 292,14 370,19 77,5 94,13 106,28 12,16 18,38 21,92 3,54 1,140 1,250 0,110 2,245 2,312 1,67 1,67 1,67 0,0 0,0 15,9 15,10 45,28 76,56 31,29 63,67 86,114 23,48 38,105 34,285 -3,180 -24,483 -38,638 -14,155 -20,161 -53,169 -32,8 -90,17 -338,19 -248,1 -685,-6 -1157,-5 -473,1 -979,9 -1280,13 -302,4 -398,4 -452,12 -55,9 -68,26 -91,69z"/>
   <polygon class="fil42" points="32967,16642 32959,16911 36005,16855 36084,16594 "/>
   <path class="fil43" d="M30266 16890c-5,5 -9,10 -12,16 -25,41 -24,93 -26,138 -2,45 -7,83 -20,105 -12,21 -32,27 -116,11 -84,-15 -231,-50 -327,-75 -97,-24 -142,-37 -178,-45 -37,-8 -66,-11 -91,-17 -24,-7 -44,-17 -58,-37 -14,-20 -22,-49 -16,-124 2,-35 8,-81 14,-129 67,1 141,6 220,11 170,11 361,26 466,32 106,6 125,3 136,50 4,17 6,39 8,64z"/>
   <path class="fil43" d="M41113 15413l0 71c1,67 1,67 1,67 0,0 0,0 15,9 15,10 45,28 76,56 31,29 63,67 86,114 23,48 38,105 34,285 -3,180 -24,483 -38,638 -14,155 -20,161 -53,169 -32,8 -90,17 -338,19 -226,1 -610,-4 -1034,-5 0,-17 1,-36 1,-57 2,-66 4,-149 -17,-243 -20,-93 -62,-197 -107,-286 -45,-88 -93,-161 -145,-225 -53,-65 -111,-122 -140,-150 -29,-28 -29,-28 69,-41 98,-12 295,-37 462,-69 166,-32 304,-70 398,-107 94,-37 146,-72 181,-109 35,-36 53,-73 62,-106 8,-34 7,-64 22,-78 15,-14 47,-11 138,-2 85,10 222,25 327,50z"/>
   <path class="fil3" d="M41317 16231c-2,37 -4,76 -7,113 -25,4 -51,5 -75,6 -45,2 -83,3 -114,-3 -31,-6 -55,-19 -70,-38 -16,-18 -24,-42 -28,-54 -4,-12 -4,-12 61,-14 56,-2 158,-6 233,-10z"/>
   <path class="fil44" d="M37916 16930c-22,43 -54,111 -80,155 -27,43 -48,62 -94,73 -46,12 -117,18 -1024,16 -906,-1 -2648,-9 -3526,-14 -879,-4 -893,-6 -904,-23 -10,-18 -17,-52 -27,-111l-1 -2 0 -1 0 -1 0 -1 0 -1 -1 -1 0 -1 0 -1 0 -2 0 0 -1 -1 0 -2 0 0 0 -2 0 -1 -1 -1 0 -2 0 0 0 -2 0 -1 0 0 -1 -2 0 -1 0 -1 0 -2 -1 0 0 -2 0 -1 0 -1 -1 -2 0 0 0 -2 0 -1 0 -1 -1 -1 0 -1 0 -1 0 -2 0 -1 -1 -1 0 -2 0 0 0 -2 0 -1 -1 -1 0 -2 0 0 0 -2 0 -1 -1 -1 0 -2 0 0 0 -2 -1 -1 0 -1 0 -2 0 -1 0 -1 -1 -2 0 0 0 -2 0 -1 0 -1 -1 -2 0 0 0 -2 0 -1 0 -1 -1 -2 0 0 0 -2 0 -2 0 0 -1 -2 0 -1 0 -1 0 -2 0 0 -1 -2 0 -1 0 -1 0 -2 -1 0 0 -1 0 -2 0 0 0 -2 -1 -1 0 -1 0 -2 0 -1 0 -1 -1 -2 0 0 0 -2 0 -1 0 -1 -1 -2 0 0 0 -2 0 -1 0 -1 -1 -1c89,-7 315,-13 890,-28 947,-26 2840,-76 3793,-86 954,-9 967,21 980,68 5,21 10,44 16,69l-1 1 -1 2z"/>
   <path class="fil45" d="M37821 17106c-20,29 -41,43 -79,52 -46,12 -117,18 -1024,16 -906,-1 -2648,-9 -3526,-14 -879,-4 -893,-6 -904,-23 -9,-17 -16,-47 -25,-97 79,-5 248,-6 619,-10 683,-7 2049,-20 2954,-32 904,-12 1347,-22 1603,-8 256,15 325,54 365,97 7,6 12,13 17,19z"/>
   <path class="fil41 str3" d="M30277 16880c-15,11 -25,26 -37,50 -7,13 -14,28 -22,43 -13,-48 -22,-97 -28,-147 -4,-39 -6,-78 -6,-118 0,-13 0,-27 1,-41 2,-43 5,-74 9,-103 7,-48 19,-90 32,-125 13,-36 28,-66 34,-51 5,15 1,74 4,156 3,81 12,185 13,278 0,20 0,39 0,58z"/>
   <path class="fil46" d="M29462 17009c-9,-6 -17,-14 -24,-23 -14,-20 -22,-49 -16,-124 5,-74 23,-194 35,-288l0 -2c20,-17 37,-29 56,-40 41,-26 90,-53 127,-66 37,-14 62,-16 86,-12 23,3 46,11 64,30 17,19 31,50 36,84 6,35 5,75 -2,111 -6,35 -18,67 -41,106 -23,39 -57,85 -90,118 -33,34 -65,55 -95,72 -29,15 -56,27 -136,34z"/>
   <path class="fil47" d="M29670 15635c44,-35 103,-75 174,-114 104,-57 236,-112 385,-163 149,-51 315,-97 470,-135 155,-37 298,-66 490,-95 192,-28 432,-56 745,-89 313,-33 700,-71 893,-90 193,-19 193,-19 193,-19 0,0 0,0 42,-35 43,-35 127,-105 264,-202 137,-97 327,-221 503,-323 175,-103 336,-185 472,-244 137,-60 249,-97 388,-133 139,-36 305,-72 495,-98 190,-26 404,-44 623,-55 220,-11 445,-16 653,-10 209,6 400,23 575,42 176,20 335,43 531,83 196,40 428,98 544,127 116,29 116,29 121,34 4,4 14,14 24,24 11,9 22,20 254,106 231,87 682,249 928,335 246,85 287,95 340,100 53,5 117,6 174,14 58,8 108,23 220,40 112,17 286,37 442,48 155,11 292,14 370,19 77,5 94,13 106,28 12,16 18,38 21,92 3,54 1,140 1,250 0,39 0,81 1,122 -119,-28 -245,-58 -360,-80 -177,-35 -330,-51 -936,-37 -607,13 -1667,55 -3547,142 -1881,87 -4581,219 -5932,285 -275,13 -494,24 -667,31z"/>
   <path class="fil48" d="M33045 14910l17 -15c43,-35 127,-105 264,-202 137,-97 327,-221 503,-323 175,-103 336,-185 472,-244 85,-37 160,-65 238,-90 13,8 20,18 21,32 0,16 -8,35 -59,72 -51,36 -145,90 -276,161 -132,71 -300,159 -457,249 -156,89 -301,180 -398,241 -97,60 -147,90 -188,105 -41,16 -72,18 -110,16 -9,-1 -18,-1 -27,-2z"/>
   <path class="fil49" d="M29721 15934c-15,24 -33,46 -51,69 -19,23 -38,46 -54,61 -16,16 -29,24 -40,26 -12,3 -21,0 -27,-9 -6,-10 -10,-27 -7,-65 2,-38 10,-97 16,-136 7,-38 12,-57 20,-71 9,-15 20,-26 36,-34 16,-8 37,-12 57,-13 21,-1 40,1 54,5 13,4 22,9 27,25 5,16 7,42 2,68 -5,25 -18,50 -33,74z"/>
   <path class="fil50" d="M39038 15236c-701,41 -1825,107 -3178,165 -1352,58 -2935,108 -3726,133 -791,25 -791,25 -791,25 0,0 0,0 374,-21 375,-21 1124,-63 2030,-117 906,-54 1968,-120 2876,-168 907,-47 1658,-76 2245,-88 587,-12 1009,-7 1220,-4 211,2 211,2 211,2 0,0 0,0 -140,8 -140,8 -419,24 -1121,65z"/>
   <path class="fil51" d="M30012 15976c113,-77 287,-203 374,-267 87,-63 87,-63 87,-63 0,0 0,0 -35,-2 -34,-2 -103,-6 -178,-3 -76,2 -159,12 -238,29 -78,18 -152,45 -207,69 -54,24 -90,47 -115,71 -25,25 -40,51 -49,87 -9,37 -13,83 -11,118 2,35 10,58 37,72 27,14 73,18 122,6 49,-12 100,-39 213,-117z"/>
   <path class="fil46" d="M37672 14904c-367,14 -796,30 -1260,50 -465,20 -966,43 -1519,70 -552,27 -1156,58 -1453,66 -297,9 -286,-4 -235,-41 50,-36 141,-95 187,-125 45,-30 45,-30 48,-39 3,-9 8,-27 21,-49 13,-21 34,-44 61,-64 26,-20 58,-36 86,-46 27,-11 51,-16 75,-21 25,-4 50,-8 62,-10 13,-2 13,-2 13,-2 0,0 0,0 69,-45 69,-45 208,-135 342,-214 133,-80 263,-150 376,-205 113,-56 211,-97 309,-130 99,-34 197,-60 317,-78 119,-18 259,-27 404,-33 145,-6 295,-9 457,-7 161,2 334,9 469,16 135,6 233,13 367,29 135,17 306,43 463,71 156,27 297,56 455,97 158,40 334,91 485,140 152,49 280,95 375,133 95,38 157,69 200,97 43,27 66,52 78,77 12,24 12,48 4,74 -8,27 -24,56 -44,79 -20,23 -46,40 -86,50 -40,11 -95,15 -275,23 -180,9 -485,22 -851,37z"/>
   <path class="fil52 str3" d="M36853 14384c-33,123 -81,297 -105,384 -23,87 -23,87 -23,87 0,0 0,0 290,-9 291,-8 873,-25 1195,-41 321,-16 383,-31 421,-48 37,-17 51,-37 48,-62 -3,-26 -21,-58 -80,-95 -59,-38 -157,-81 -299,-134 -141,-53 -324,-115 -561,-175 -236,-60 -526,-118 -671,-147 -145,-29 -145,-29 -145,-29 0,0 0,0 -10,36 -9,37 -27,109 -60,233z"/>
   <path class="fil52 str3" d="M36706 14311c-35,127 -93,336 -122,440 -29,104 -29,104 -29,104 0,0 0,0 0,0 0,0 0,0 -179,10 -179,10 -536,29 -983,54 -447,24 -984,53 -1252,68 -268,14 -268,14 -268,14 0,0 0,0 4,-31 5,-32 14,-95 15,-140 2,-45 -5,-71 -19,-88 -14,-16 -35,-23 -45,-26 -11,-3 -11,-3 -11,-3 0,0 0,0 54,-34 53,-34 160,-101 272,-166 112,-64 229,-126 344,-182 115,-56 227,-106 341,-145 114,-38 230,-64 361,-85 130,-20 275,-35 443,-43 168,-7 360,-9 552,-2 193,6 386,21 483,28 97,7 97,7 97,7 0,0 0,0 -6,24 -6,23 -17,69 -52,196z"/>
   <path class="fil48" d="M39553 14575c230,83 241,91 245,97 2,4 2,7 1,11 -8,-1 -15,-1 -22,-2 -53,-5 -94,-15 -340,-100 -246,-86 -697,-248 -928,-335 -232,-86 -243,-97 -254,-106 -2,-3 -5,-5 -7,-7 11,0 25,2 51,8 31,6 78,19 326,105 248,86 698,246 928,329z"/>
   <path class="fil3" d="M41111 15130l0 42c0,110 2,245 2,312 1,67 1,67 1,67l1 1c-21,9 -47,11 -75,12 -57,2 -124,0 -192,-14 -68,-13 -136,-40 -210,-90 -73,-50 -151,-124 -193,-172 -43,-48 -51,-70 -45,-93 7,-22 28,-45 70,-68 41,-24 103,-49 167,-65 64,-16 130,-23 189,-23 60,0 112,7 154,18 41,12 72,27 100,46 11,7 21,15 31,27z"/>
   <path class="fil46" d="M38895 15674c571,0 1034,463 1034,1034 0,43 -3,86 -8,128 -42,0 -85,0 -127,0 5,-42 9,-85 9,-128 0,-501 -407,-908 -908,-908 -467,0 -852,352 -902,806 17,57 31,144 33,192 3,56 -11,59 -24,62l-2 1 0 1c-7,2 -13,3 -19,5 -5,1 -9,3 -13,5 -10,5 -18,11 -26,20 -7,8 -15,20 -25,39 -10,19 -24,47 -40,78 -17,31 -37,66 -47,83 -10,18 -10,18 -10,18 0,0 0,0 3,-38 3,-38 9,-113 16,-186 7,-73 13,-144 18,-191 2,-16 3,-30 5,-41 28,-546 479,-980 1033,-980z"/>
   <g id="_2996790014736">
    <path class="fil53 str3" d="M38895 15800c-502,0 -908,407 -908,908 0,501 406,908 908,908 501,0 908,-407 908,-908 0,-501 -407,-908 -908,-908zm603 1020c-61,7 -176,10 -357,15 -180,5 -427,13 -588,17 -161,4 -236,4 -273,4 -38,0 -38,0 -38,0 0,0 0,0 5,11 4,12 13,34 32,74 18,39 46,96 78,143 33,46 70,83 114,118 44,34 95,66 140,89 45,23 83,37 133,46 49,10 110,14 159,15 48,1 85,0 135,-11 51,-10 114,-30 173,-59 58,-29 112,-67 162,-125 49,-57 94,-133 127,-198 33,-65 54,-117 61,-138 6,-20 -2,-8 -63,-1z"/>
    <circle class="fil54" cx="38886" cy="16699" r="475"/>
    <circle class="fil17 str3" cx="38895" cy="16708" r="107"/>
    <path class="fil55" d="M38895 16010c-386,0 -699,312 -699,698 0,386 313,698 699,698 385,0 698,-312 698,-698 0,-386 -313,-698 -698,-698zm0 492c-14,0 -27,2 -39,4l-16 -427c18,-1 36,-2 55,-2 14,0 27,1 41,2l-3 427c-13,-2 -25,-4 -38,-4zm-69 12c-46,16 -84,48 -108,89l-366 -216c84,-142 222,-249 387,-290l87 417zm-122 117c-8,21 -13,43 -15,66l-416 -94c7,-47 20,-92 38,-134l393 162zm-13 104c5,43 24,82 52,112l-312 289c-104,-112 -167,-263 -167,-428 0,-9 0,-18 0,-27l427 54zm75 134c17,13 36,24 57,32l-228 362c-35,-18 -68,-40 -98,-65l269 -329zm85 40c14,3 29,5 44,5 23,0 45,-4 66,-11l190 382c-78,35 -165,54 -256,54 -83,0 -162,-16 -235,-45l191 -385zm136 -17c19,-9 36,-22 51,-36l281 319c-31,29 -66,54 -104,77l-228 -360zm74 -63c24,-32 38,-72 39,-115l424 -45c1,13 2,26 2,39 0,162 -62,310 -162,422l-303 -301zm38 -148c-4,-24 -11,-48 -22,-69l405 -136c13,34 24,69 31,106l-414 99zm-40 -96c-23,-32 -56,-56 -93,-70l64 -423c174,38 322,148 409,298l-380 195z"/>
    <circle class="fil56" cx="38892" cy="16705" r="107"/>
   </g>
   <path class="fil46" d="M31218 15674c572,0 1035,463 1035,1034 0,34 -2,67 -5,100l-2 27c-1,25 -2,50 -3,63 -1,12 -1,12 -1,12l-2 -1 -1 6c0,0 0,0 -30,-3 -30,-3 -91,-8 -173,-15 -81,-7 -184,-17 -288,-23 -105,-6 -210,-8 -354,-3 -145,5 -328,19 -469,40 -141,22 -240,52 -323,79 -82,26 -148,49 -209,74 -60,25 -116,52 -148,71 -20,11 -31,19 -38,22 -6,5 -10,8 -14,9 -5,3 -8,4 -10,1 -2,1 -4,1 -6,1 0,-9 0,-21 0,-36 1,-81 2,-245 4,-354 1,-45 2,-81 4,-111 21,-552 476,-993 1033,-993zm898 897c-66,-436 -443,-770 -898,-770 -487,0 -885,384 -907,867 46,-61 125,-104 320,-129 211,-28 558,-36 836,-29 279,8 490,30 608,53 15,2 29,5 41,8z"/>
   <g id="_2996790025328">
    <path class="fil53" d="M31218 15792c-501,0 -907,406 -907,908 0,501 406,907 907,907 502,0 908,-406 908,-907 0,-502 -406,-908 -908,-908zm604 1019c-62,8 -176,10 -357,16 -181,5 -427,13 -588,17 -161,4 -236,4 -274,4 -37,0 -37,0 -37,0 0,0 0,0 4,11 5,11 14,33 33,73 18,40 46,96 78,143 32,47 69,84 114,118 44,34 95,66 140,89 45,23 83,38 132,47 50,9 111,13 159,14 49,2 86,0 136,-10 50,-11 114,-30 172,-59 59,-29 113,-68 162,-125 50,-57 95,-134 128,-199 33,-64 54,-117 60,-137 7,-21 -1,-9 -62,-2z"/>
    <circle class="fil54" cx="31209" cy="16690" r="475"/>
    <circle class="fil17" cx="31218" cy="16700" r="107"/>
    <path class="fil55" d="M31218 16001c-385,0 -698,313 -698,699 0,385 313,698 698,698 386,0 699,-313 699,-698 0,-386 -313,-699 -699,-699zm0 493c-13,0 -26,1 -39,4l-15 -427c18,-2 36,-2 54,-2 14,0 28,0 42,1l-4 427c-12,-2 -25,-3 -38,-3zm-68 12c-46,16 -84,48 -108,88l-367 -216c85,-142 223,-248 387,-290l88 418zm-123 117c-8,20 -13,42 -14,65l-417 -94c8,-46 21,-91 38,-133l393 162zm-13 103c6,44 25,82 53,113l-312 289c-104,-113 -168,-263 -168,-428 0,-10 1,-19 1,-28l426 54zm76 134c17,14 36,25 56,32l-227 363c-35,-19 -68,-41 -98,-66l269 -329zm84 40c15,4 29,5 44,5 24,0 46,-4 67,-11l190 382c-78,35 -165,54 -257,54 -83,0 -162,-16 -234,-45l190 -385zm136 -16c19,-10 37,-22 52,-37l281 319c-32,29 -67,55 -104,77l-229 -359zm75 -64c23,-32 38,-72 39,-114l424 -45c1,13 1,25 1,39 0,162 -61,310 -161,421l-303 -301zm37 -147c-3,-25 -10,-48 -21,-69l404 -136c14,33 24,69 32,105l-415 100zm-39 -97c-23,-31 -56,-56 -93,-69l64 -424c174,38 321,148 409,298l-380 195z"/>
    <circle class="fil56" cx="31215" cy="16696" r="107"/>
   </g>
   <path class="fil45" d="M35875 15238c8,20 13,42 15,69 1,27 -2,59 -16,83 -15,25 -41,42 -85,52 -44,10 -106,12 -159,0 -53,-12 -96,-38 -123,-63 -26,-25 -35,-49 -31,-69 3,-21 21,-38 69,-59 49,-21 130,-46 185,-58 55,-12 86,-10 106,-1 21,9 31,26 39,46z"/>
   <path class="fil57" d="M35925 15350c-111,13 -328,19 -444,17 -115,-1 -128,-9 -133,-20 -6,-10 -3,-23 6,-35 9,-11 25,-20 127,-32 103,-13 291,-29 397,-34 105,-5 128,0 141,10 13,10 17,24 18,42 0,18 -2,39 -112,52z"/>
  </g>
  <polygon class="fil58" points="48792,19559 2,19559 2,17704 48792,17704 "/>
  <path class="fil57" style="mask:url(#id0)" d="M30385 15712c-109,75 -279,207 -401,285 -122,78 -196,102 -415,208 -220,105 -586,293 -1084,480 -498,188 -1128,375 -1628,488 -500,113 -870,151 -1055,170 -185,20 -185,20 -185,20 0,0 0,0 0,0 0,0 0,0 0,-434 0,-435 0,-1303 0,-1737 0,-434 0,-434 0,-434 0,0 0,0 829,141 828,141 2486,422 3291,571 805,150 757,167 648,242z"/>
  <rect class="fil59" y="17607" width="48790" height="102"/>
  <rect class="fil60" x="3889" y="13535" width="156" height="4074"/>
  <rect class="fil60" x="8139" y="13552" width="156" height="4057"/>
  <g>
   <path class="fil61" d="M9126 13597c-1,119 -19,107 26,225 34,89 41,138 22,236 -56,-2 -100,-14 -157,-11 -62,5 -95,30 -153,24 -58,-6 -62,-35 -114,-39 -67,-4 -51,31 -144,21 0,46 10,48 -8,80l-63 -3c-24,-78 -43,-266 -53,-348 -8,-58 -2,-127 -29,-172 0,0 -85,-104 20,-114 70,-6 41,60 125,67 67,6 76,-35 180,-24 65,7 95,36 156,38 102,4 92,-3 192,20zm-4634 -1750c62,-3 143,-4 199,0 74,6 70,37 106,83l3058 2c63,-84 85,-50 351,-47l799 12c213,3 -64,-67 355,-32 31,77 -8,278 -50,325 -36,41 -54,26 -102,94 -165,234 -110,81 -239,167 -201,134 -74,144 -151,226 -55,58 -77,30 -155,30 -19,35 -47,83 -73,121 -50,75 -48,44 -103,93 -60,54 2,70 -86,109 -53,23 -97,23 -144,54 -101,67 -122,196 -167,223 -127,77 -148,-14 -158,250 -178,5 -425,-7 -623,-7 -216,1 -426,5 -644,6l-1974 11c-236,0 -415,22 -645,21 -213,-2 -1177,1 -1309,-17 -7,-123 80,-35 140,-113 58,-76 3,-148 -19,-202 28,-56 16,-3 41,-41 35,-53 -10,-2 39,-89 67,-119 -60,-83 126,-166 12,-108 -44,-119 42,-183 3,-2 6,-4 8,-6l55 -42c26,-28 54,-125 54,-164 1,-53 -4,-52 25,-94 85,-116 37,-33 31,-152l55 -29c17,-358 258,-275 446,-275 232,0 520,15 745,-2l-33 -166zm-1748 -179c-180,45 -129,268 -129,467l0 1807c0,202 -52,432 157,450 180,16 1554,1 1807,1 227,0 4715,20 4811,-7 163,-45 116,-303 116,-472l0 -1807c0,-532 50,-446 -754,-446l-4818 0c-212,0 -1053,-27 -1190,7z"/>
   <path class="fil62" d="M7141 13232c29,39 13,117 0,140 -26,-45 -37,-98 0,-140zm-882 -2c25,40 13,118 0,144 -9,-15 -11,-10 -17,-35 -21,-87 2,-92 17,-109zm-403 35l6 94c-64,24 -67,31 -119,-5 -24,-99 50,-116 113,-89zm1351 6c10,-13 -15,-24 34,-29 39,-4 31,11 41,17 27,18 13,-20 15,38l-76 15c15,50 35,43 73,31 -49,84 -125,11 -87,-72zm-755 0c30,-39 31,-42 71,-12l18 38 -73 19c10,29 10,23 33,31 43,16 3,-12 35,7 -37,37 -35,27 -83,16 -12,-39 -17,-60 -1,-99zm-139 11c12,-25 -12,-33 43,-39 63,-6 44,16 56,33l-1 15c-20,15 -1,2 -28,14l-29 14c-2,1 -6,4 -8,6l8 27 56 -7c-41,69 -102,39 -97,-63zm759 -21l20 116c-60,-9 -37,-6 -87,-1l-18 -53c41,-48 -7,3 13,-53l16 -28c53,5 17,-9 56,19zm-1675 80l46 33c-70,8 -117,-20 -79,-96 8,-13 -14,-23 33,-33 53,-13 36,11 39,12l19 16 -8 22c-3,2 -6,2 -8,5 -2,4 -7,4 -10,5 -16,3 -23,3 -40,4l8 32zm1198 36c-28,-47 -15,-45 -21,-124l81 -3c-23,38 16,19 -42,29 0,3 0,47 0,47 -12,81 0,20 -18,51zm-476 -1l-11 -23c-9,-45 1,15 -4,-26 -3,-20 -3,-48 -6,-74 3,0 48,0 49,0 0,0 7,-9 50,14 11,45 15,67 -8,109 -19,-32 -11,-37 -17,-64 -15,-62 13,-21 -31,-43 -3,16 -2,28 -3,43l-19 64zm-243 -165l5 -5c20,-29 -13,-23 42,-21l14 78c1,-2 7,-11 9,-7 2,4 12,-9 22,-9 32,1 13,1 28,12 -10,123 4,85 25,94 15,-52 -8,-59 28,-101l16 119c-52,1 -63,13 -93,-6 -44,-8 -1,-32 -37,-103l9 124 -63 7c-22,-44 -11,-16 -6,-80 2,-36 2,-67 1,-102zm-639 163c-5,-10 -9,-10 -12,-34 -2,-12 -1,-42 -1,-56 -1,-57 -7,-55 13,-90l19 61c60,-4 26,-14 65,15 18,123 -3,89 -14,104l-12 -49c-8,-48 13,-13 -16,-54 -3,2 -7,1 -8,5 -1,4 -6,4 -7,6 -9,22 -2,7 -7,30 -8,39 9,21 -20,62zm330 -181c91,21 38,-44 73,55 15,43 1,29 30,62l43 -115c20,29 32,-33 -28,130l-28 44 -90 -176zm1281 176c-11,13 0,11 -30,13 -65,4 -62,-29 -66,-57l92 18c-18,-79 -78,-26 -78,-129 12,-16 7,-3 27,-8 16,-13 -5,-19 68,-14 18,39 16,3 8,57l-72 -36 -3 29c51,45 71,22 83,98l-29 29zm-1812 -172l154 -1 -58 32c0,23 2,48 1,70 -1,73 -8,59 -22,77 -40,-74 15,-125 -32,-156 -3,-2 -17,-8 -21,-10 -3,-2 -8,-4 -11,-6 -2,-1 -7,-4 -11,-6zm712 -292c107,1 73,-40 95,-120 34,-125 193,-251 334,-284 -35,257 -279,100 -257,422 170,-37 409,-437 600,-405 -71,31 -169,37 -186,256 146,-45 231,-276 414,-259 -75,40 -147,14 -183,251 17,20 -34,21 44,12 11,-121 191,-242 326,-270 -27,155 -57,120 -166,193 -83,55 -107,101 -95,225 58,7 88,-52 131,-90 88,-77 123,-272 387,-326 -47,266 -302,105 -259,423 131,-27 355,-373 649,-425 429,-76 378,409 12,450 42,-27 102,-74 141,-103 43,-33 93,-81 56,-163 -54,-118 -264,-97 -384,-52 -203,75 -448,378 -581,389l15 -186c-40,43 -202,186 -268,183 -7,-54 -1,-129 21,-176 -13,-61 30,-30 -31,-42 -52,185 -216,231 -399,217l53 -48c-99,31 -155,52 -278,50 35,-44 139,-100 195,-134 85,-51 127,-68 142,-194 -109,41 -357,330 -459,322l2 -109 -60 19c-21,37 -107,94 -156,98 14,-107 95,-228 110,-351 -95,9 -121,99 -158,182 -80,183 -50,168 -170,175l39 -120c-68,26 -147,112 -207,109 21,-110 95,-220 111,-351 -110,25 -115,91 -160,191 -80,179 -42,159 -168,169l55 -154c-80,34 -151,143 -241,151 -38,-271 137,-480 359,-521 -32,155 -50,116 -160,187 -85,55 -116,98 -100,236 59,-13 83,-53 125,-85 63,-49 53,-40 86,-124 85,-217 58,-209 194,-229l-57 160c81,-23 149,-105 222,-108 -16,93 -114,249 -113,354 97,15 120,-132 153,-213 52,-128 32,-175 180,-191l-54 159c89,-27 134,-96 216,-109 -9,78 -92,248 -117,359zm-1266 -292l45 55c-51,-4 -24,3 -48,-18 -304,5 -487,27 -576,282 -79,226 61,565 337,419 343,-180 260,-641 447,-841 76,-82 230,-119 269,-163 -206,-18 -544,9 -741,83 -86,32 -117,68 -184,102 13,-47 68,-169 92,-194 116,-118 583,-122 742,-108 168,16 344,39 517,53 301,24 296,-6 505,-64 -17,35 -120,163 -140,175 -153,93 -654,-84 -868,29 -58,30 -79,111 -114,193 -117,281 -131,499 -298,668 -229,232 -771,297 -741,-196 23,-383 550,-525 756,-475zm315 -683c-36,-46 -32,-77 -106,-83 -56,-4 -137,-3 -199,0l33 166c-225,17 -513,2 -745,2 -188,0 -429,-83 -446,275l-55 29c6,119 54,36 -31,152 -29,42 -24,41 -25,94 0,39 -28,136 -54,164l-55 42c-2,2 -5,4 -8,6 -86,64 -30,75 -42,183 -186,83 -59,47 -126,166 -49,87 -4,36 -39,89 -25,38 -13,-15 -41,41 22,54 77,126 19,202 -60,78 -147,-10 -140,113 132,18 1096,15 1309,17 230,1 409,-21 645,-21l1974 -11c218,-1 428,-5 644,-6 198,0 445,12 623,7 10,-264 31,-173 158,-250 45,-27 66,-156 167,-223 47,-31 91,-31 144,-54 88,-39 26,-55 86,-109 55,-49 53,-18 103,-93 26,-38 54,-86 73,-121 78,0 100,28 155,-30 77,-82 -50,-92 151,-226 129,-86 74,67 239,-167 48,-68 66,-53 102,-94 42,-47 81,-248 50,-325 -419,-35 -142,35 -355,32l-799 -12c-266,-3 -288,-37 -351,47l-3058 -2z"/>
   <path class="fil63" d="M4479 12650l12 -10 -9 -27c-206,-50 -733,92 -756,475 -30,493 512,428 741,196 167,-169 181,-387 298,-668 35,-82 56,-163 114,-193 214,-113 715,64 868,-29 20,-12 123,-140 140,-175 -209,58 -204,88 -505,64 -173,-14 -349,-37 -517,-53 -159,-14 -626,-10 -742,108 -24,25 -79,147 -92,194 67,-34 98,-70 184,-102 197,-74 535,-101 741,-83 -39,44 -193,81 -269,163 -187,200 -104,661 -447,841 -276,146 -416,-193 -337,-419 89,-255 272,-277 576,-282z"/>
   <path class="fil64" d="M4964 12684c15,-49 28,-55 70,-78 -5,68 -3,54 -70,78zm795 247c-34,7 -9,6 -11,-26 25,-111 108,-281 117,-359 -82,13 -127,82 -216,109l54 -159c-148,16 -128,63 -180,191 -33,81 -56,228 -153,213 -1,-105 97,-261 113,-354 -73,3 -141,85 -222,108l57 -160c-136,20 -109,12 -194,229 -33,84 -23,75 -86,124 -42,32 -66,72 -125,85 -16,-138 15,-181 100,-236 110,-71 128,-32 160,-187 -222,41 -397,250 -359,521 90,-8 161,-117 241,-151l-55 154c126,-10 88,10 168,-169 45,-100 50,-166 160,-191 -16,131 -90,241 -111,351 60,3 139,-83 207,-109l-39 120c120,-7 90,8 170,-175 37,-83 63,-173 158,-182 -15,123 -96,244 -110,351 49,-4 135,-61 156,-98z"/>
   <path class="fil65" d="M8746 13893l0 0zm-178 187l-9 -116c87,21 42,46 118,32 68,-12 47,-40 136,-6 129,50 129,-7 276,12 7,-181 -92,-186 -44,-387 -47,-2 -104,6 -148,-4 -38,-7 -61,-29 -118,-34 -79,-8 -79,9 -133,20 -50,10 -79,-13 -138,-22 12,123 55,183 50,330 -27,-38 -36,-126 -45,-175 -7,-36 -16,-155 -27,-174 -27,37 75,506 82,524z"/>
   <path class="fil64" d="M6984 12685c6,-34 6,-76 68,-67 0,49 -19,49 -68,67zm-249 -5c6,-49 27,-65 67,-80 4,58 -10,56 -67,80zm-126 98c20,3 18,-4 9,30 -13,46 6,11 -24,42 -22,47 -28,122 -21,176 66,3 228,-140 268,-183l-15 186c133,-11 378,-314 581,-389 120,-45 330,-66 384,52 37,82 -13,130 -56,163 -39,29 -99,76 -141,103 366,-41 417,-526 -12,-450 -294,52 -518,398 -649,425 -43,-318 212,-157 259,-423 -264,54 -299,249 -387,326 -43,38 -73,97 -131,90 -12,-124 12,-170 95,-225 109,-73 139,-38 166,-193 -135,28 -315,149 -326,270z"/>
   <path class="fil66" d="M6254 12998c33,-52 40,-42 95,-73 42,-25 64,-42 105,-56 -5,107 -90,131 -200,129zm-231 -8c42,-46 136,-96 201,-118 -9,70 -18,82 -75,107 -43,19 -88,28 -126,11zm222 -29c21,-27 44,-41 62,-78 29,-58 -3,-48 50,-89l153 -108c-5,83 -36,140 -96,178 -43,28 -128,83 -169,97zm-274 -283c18,-49 25,-67 70,-75 4,59 -15,59 -70,75zm-223 227c2,32 -23,33 11,26l60 -19 -2 109c102,8 350,-281 459,-322 -15,126 -57,143 -142,194 -56,34 -160,90 -195,134 123,2 179,-19 278,-50l-53 48c183,14 347,-32 399,-217 61,12 18,-19 31,42 30,-31 11,4 24,-42 9,-34 11,-27 -9,-30 -78,9 -27,8 -44,-12 36,-237 108,-211 183,-251 -183,-17 -268,214 -414,259 17,-219 115,-225 186,-256 -191,-32 -430,368 -600,405 -22,-322 222,-165 257,-422 -141,33 -300,159 -334,284 -22,80 12,121 -95,120z"/>
   <path class="fil67" d="M9110 14018c6,-110 19,-109 -35,-204 -40,-73 -24,-128 -9,-202 41,55 4,45 8,120 5,71 63,97 64,210 1,94 -24,75 -28,76zm-433 -22c-76,14 -31,-11 -118,-32l9 116c-7,-18 -109,-487 -82,-524 11,19 20,138 27,174 9,49 18,137 45,175 5,-147 -38,-207 -50,-330 59,9 88,32 138,22 54,-11 54,-28 133,-20 57,5 80,27 118,34 44,10 101,2 148,4 -48,201 51,206 44,387 -147,-19 -147,38 -276,-12 -89,-34 -68,-6 -136,6zm497 62c19,-98 12,-147 -22,-236 -45,-118 -27,-106 -26,-225 -100,-23 -90,-16 -192,-20 -61,-2 -91,-31 -156,-38 -104,-11 -113,30 -180,24 -84,-7 -55,-73 -125,-67 -105,10 -20,114 -20,114 27,45 21,114 29,172 10,82 29,270 53,348l63 3c18,-32 8,-34 8,-80 93,10 77,-25 144,-21 52,4 56,33 114,39 58,6 91,-19 153,-24 57,-3 101,9 157,11z"/>
   <path class="fil68" d="M8746 13893c-34,-45 -41,-31 -61,-105 5,-153 244,-119 207,28 -34,74 -66,67 -146,77zm0 0l0 0z"/>
   <path class="fil69" d="M8765 13858c6,-63 15,-50 58,-30 -17,47 -2,59 -58,30zm4 -100c-11,38 3,7 -31,22 -31,-52 -27,-37 15,-61 26,29 31,-20 16,39zm48 -10c-12,-40 -5,-2 17,-30 41,29 37,12 26,62 -48,-17 -30,9 -43,-32zm-71 145c80,-10 112,-3 146,-77 37,-147 -202,-181 -207,-28 20,74 27,60 61,105z"/>
   <path class="fil70" d="M6245 12961c41,-14 126,-69 169,-97 60,-38 91,-95 96,-178l-153 108c-53,41 -21,31 -50,89 -18,37 -41,51 -62,78z"/>
   <path class="fil70" d="M6023 12990c38,17 83,8 126,-11 57,-25 66,-37 75,-107 -65,22 -159,72 -201,118z"/>
   <path class="fil70" d="M6254 12998c110,2 195,-22 200,-129 -41,14 -63,31 -105,56 -55,31 -62,21 -95,73z"/>
   <path class="fil71" d="M9110 14018c4,-1 29,18 28,-76 -1,-113 -59,-139 -64,-210 -4,-75 33,-65 -8,-120 -15,74 -31,129 9,202 54,95 41,94 35,204z"/>
   <path class="fil72" d="M6984 12685c49,-18 68,-18 68,-67 -62,-9 -62,33 -68,67z"/>
   <path class="fil73" d="M5971 12678c55,-16 74,-16 70,-75 -45,8 -52,26 -70,75z"/>
   <path class="fil74" d="M6735 12680c57,-24 71,-22 67,-80 -40,15 -61,31 -67,80z"/>
   <path class="fil74" d="M4964 12684c67,-24 65,-10 70,-78 -42,23 -55,29 -70,78z"/>
   <path class="fil75" d="M8765 13858c56,29 41,17 58,-30 -43,-20 -52,-33 -58,30z"/>
   <path class="fil67" d="M8738 13780c34,-15 20,16 31,-22 15,-59 10,-10 -16,-39 -42,24 -46,9 -15,61z"/>
   <path class="fil0" d="M8860 13780c11,-50 15,-33 -26,-62 -22,28 -29,-10 -17,30 13,41 -5,15 43,32z"/>
   <path class="fil76" d="M4479 12650c24,21 -3,14 48,18l-45 -55 9 27 -12 10z"/>
   <polygon class="fil77" points="4171,14125 4090,13779 4162,13779 4213,14017 4277,13779 4360,13779 4421,14021 4473,13779 4544,13779 4460,14125 4385,14125 4317,13866 4248,14125 "/>
   <path id="1" class="fil77" d="M4716 14046l67 11c-9,24 -22,43 -41,55 -18,13 -41,20 -69,20 -43,0 -76,-15 -96,-43 -17,-23 -25,-52 -25,-87 0,-42 11,-74 32,-98 22,-23 50,-35 83,-35 37,0 66,12 88,37 22,24 32,62 31,113l-166 0c0,20 6,35 16,46 10,11 23,17 38,17 11,0 19,-3 26,-9 7,-5 13,-15 16,-27zm4 -67c0,-20 -5,-34 -15,-44 -9,-10 -21,-15 -34,-15 -15,0 -26,5 -36,15 -9,11 -14,25 -14,44l99 0z"/>
   <polygon id="2" class="fil77" points="4840,14125 4840,13779 4906,13779 4906,14125 "/>
   <path id="3" class="fil77" d="M5193 13949l-65 11c-2,-13 -7,-22 -15,-29 -8,-7 -18,-10 -30,-10 -17,0 -30,6 -40,17 -10,12 -15,31 -15,58 0,29 5,51 15,63 10,12 24,18 40,18 13,0 23,-3 31,-10 8,-8 14,-20 17,-38l66 12c-7,30 -20,52 -39,68 -19,15 -45,23 -77,23 -37,0 -66,-12 -88,-35 -22,-23 -33,-56 -33,-97 0,-41 11,-73 33,-97 22,-23 51,-34 89,-34 30,0 54,6 73,20 18,13 30,33 38,60z"/>
   <path id="4" class="fil77" d="M5228 13997c0,-22 6,-44 17,-64 10,-21 26,-37 46,-48 20,-11 42,-16 66,-16 38,0 69,12 94,37 24,25 36,56 36,93 0,38 -12,70 -37,95 -24,25 -55,38 -92,38 -23,0 -45,-6 -66,-16 -21,-11 -37,-26 -47,-46 -11,-20 -17,-45 -17,-73zm68 3c0,25 6,44 18,57 12,14 26,20 44,20 17,0 32,-6 43,-20 12,-13 18,-32 18,-57 0,-25 -6,-44 -18,-57 -11,-13 -26,-20 -43,-20 -18,0 -32,7 -44,20 -12,13 -18,32 -18,57z"/>
   <path id="5" class="fil77" d="M5534 13874l61 0 0 34c22,-26 48,-39 78,-39 17,0 30,3 42,10 12,6 22,16 29,30 11,-14 23,-24 36,-30 13,-7 26,-10 41,-10 18,0 34,4 47,11 12,8 22,18 28,33 5,11 7,28 7,52l0 160 -66 0 0 -143c0,-25 -2,-41 -7,-48 -6,-10 -16,-14 -28,-14 -10,0 -19,2 -27,8 -8,6 -14,14 -17,25 -4,11 -6,28 -6,52l0 120 -66 0 0 -137c0,-25 -1,-40 -4,-47 -2,-7 -6,-13 -11,-16 -5,-4 -11,-5 -20,-5 -10,0 -19,2 -27,8 -9,5 -14,13 -18,24 -4,10 -5,27 -5,51l0 122 -67 0 0 -251z"/>
   <path id="6" class="fil77" d="M6115 14046l66 11c-9,24 -22,43 -40,55 -19,13 -42,20 -69,20 -44,0 -76,-15 -97,-43 -17,-23 -25,-52 -25,-87 0,-42 11,-74 33,-98 21,-23 49,-35 82,-35 37,0 67,12 88,37 22,24 32,62 31,113l-166 0c1,20 6,35 16,46 11,11 23,17 38,17 11,0 20,-3 27,-9 7,-5 12,-15 16,-27zm3 -67c0,-20 -5,-34 -14,-44 -10,-10 -21,-15 -35,-15 -14,0 -26,5 -36,15 -9,11 -14,25 -14,44l99 0z"/>
   <path id="7" class="fil77" d="M6215 14055l67 -11c2,13 8,23 17,30 8,6 21,10 36,10 17,0 30,-4 39,-10 6,-4 9,-10 9,-18 0,-5 -2,-9 -5,-12 -3,-3 -11,-6 -22,-9 -54,-12 -88,-23 -102,-32 -20,-14 -30,-33 -30,-57 0,-22 9,-40 26,-55 17,-15 44,-22 80,-22 34,0 60,5 76,17 17,11 28,28 35,50l-63 11c-2,-10 -7,-17 -15,-22 -7,-6 -18,-8 -32,-8 -18,0 -30,2 -38,7 -5,4 -8,8 -8,14 0,4 3,8 7,12 6,4 27,10 62,18 36,8 61,18 75,30 14,12 20,28 20,49 0,23 -9,43 -28,60 -20,16 -48,25 -86,25 -34,0 -61,-7 -81,-21 -20,-14 -33,-33 -39,-56z"/>
   <polygon id="8" class="fil77" points="6725,14125 6725,13979 6598,13779 6680,13779 6762,13916 6841,13779 6922,13779 6795,13980 6795,14125 "/>
   <path id="9" class="fil77" d="M6905 13997c0,-22 5,-44 16,-64 11,-21 26,-37 46,-48 20,-11 42,-16 67,-16 38,0 69,12 93,37 24,25 36,56 36,93 0,38 -12,70 -36,95 -25,25 -56,38 -93,38 -23,0 -45,-6 -65,-16 -21,-11 -37,-26 -48,-46 -11,-20 -16,-45 -16,-73zm68 3c0,25 6,44 18,57 11,14 26,20 43,20 17,0 32,-6 44,-20 11,-13 17,-32 17,-57 0,-25 -6,-44 -17,-57 -12,-13 -27,-20 -44,-20 -17,0 -32,7 -43,20 -12,13 -18,32 -18,57z"/>
   <path id="10" class="fil77" d="M7382 14125l0 -37c-10,13 -22,24 -37,32 -14,8 -30,12 -47,12 -17,0 -32,-4 -45,-12 -14,-7 -23,-18 -29,-31 -6,-13 -9,-32 -9,-56l0 -159 66 0 0 116c0,35 1,57 4,65 2,8 7,14 13,19 7,4 15,7 25,7 11,0 21,-3 30,-10 9,-6 15,-14 19,-23 3,-9 5,-32 5,-68l0 -106 66 0 0 251 -61 0z"/>
   <path class="fil78" d="M4978 13205l143 0 0 46 -13 0c-2,-8 -4,-14 -6,-18 -2,-5 -4,-8 -6,-10 -2,-2 -4,-4 -7,-5 -2,-1 -6,-2 -11,-2l-16 0 0 136c0,5 0,10 0,13 1,3 2,5 3,7 1,2 3,3 5,4 2,1 5,2 9,3l0 7 -60 0 0 -7c3,0 5,-1 7,-2 2,0 4,-1 5,-2 1,-1 2,-3 3,-4 1,-2 2,-4 2,-7 1,-3 1,-7 1,-12l0 -136 -17 0c-4,0 -7,1 -10,2 -3,0 -5,2 -8,5 -2,2 -4,6 -6,10 -2,5 -4,11 -5,18l-13 0 0 -46z"/>
   <path id="1" class="fil78" d="M5178 13280l1 0c6,-7 12,-12 16,-15 4,-2 8,-5 12,-6 4,-1 8,-2 13,-2 4,0 9,0 13,2 3,1 7,2 10,5 2,2 5,5 7,8 1,4 3,8 4,13 0,4 1,10 1,18l0 50c0,7 0,12 1,15 1,3 2,5 4,7 1,1 5,3 10,4l0 7 -52 0 0 -7c3,-1 6,-2 7,-3 2,0 3,-1 4,-3 1,-1 2,-4 2,-6 1,-3 1,-8 1,-14l0 -35c0,-11 0,-20 -2,-27 -1,-6 -3,-10 -7,-14 -3,-3 -8,-4 -14,-4 -4,0 -7,0 -10,2 -3,1 -6,3 -10,6 -3,3 -6,7 -8,10 -2,3 -3,7 -3,11l0 51c0,6 0,10 1,12 0,3 0,5 1,7 1,2 3,3 4,4 2,1 5,2 9,3l0 7 -53 0 0 -7c4,-1 7,-2 9,-3 1,-1 3,-2 4,-4 0,-1 1,-3 2,-6 0,-3 0,-7 0,-13l0 -111c0,-9 0,-15 0,-18 0,-3 0,-6 -1,-9 -1,-2 -1,-4 -2,-5 -1,-1 -3,-3 -4,-3 -2,-1 -5,-2 -10,-3l0 -7 32 -1 8 0 0 84z"/>
   <path id="2" class="fil78" d="M5398 13363c-5,6 -11,11 -15,14 -5,3 -10,6 -16,8 -6,2 -12,3 -19,3 -18,0 -32,-6 -41,-17 -9,-10 -14,-27 -14,-48 0,-13 3,-25 7,-35 5,-10 12,-18 21,-23 8,-6 18,-8 30,-8 9,0 16,1 23,4 6,3 11,7 15,12 3,4 6,11 8,18 2,8 4,17 4,29l-84 0 0 3c0,10 2,19 4,26 2,7 6,13 11,17 6,4 13,6 21,6 8,0 14,-2 20,-4 6,-3 11,-7 17,-13l8 8zm-22 -54c-1,-9 -2,-17 -4,-23 -1,-6 -4,-11 -8,-14 -4,-3 -9,-5 -15,-5 -9,0 -16,4 -21,11 -6,7 -9,18 -10,31l58 0z"/>
   <path id="3" class="fil78" d="M5534 13205l0 6c-4,1 -7,2 -9,3 -2,1 -4,3 -5,4 -1,2 -1,5 -1,8 0,3 0,7 1,10 1,3 2,7 3,12l31 108 38 -109c0,-2 1,-4 1,-5 1,-2 1,-4 2,-6 0,-2 1,-3 1,-4 0,-2 0,-3 0,-4 0,-5 -1,-9 -4,-12 -2,-2 -6,-4 -12,-5l0 -6 55 0 0 6c-3,1 -6,2 -8,4 -2,2 -5,5 -7,8 -2,4 -5,10 -8,18l-55 147 -17 0 -45 -148c-2,-8 -4,-14 -6,-17 -2,-3 -4,-6 -6,-8 -2,-2 -5,-3 -8,-4l0 -6 59 0z"/>
   <path id="4" class="fil78" d="M5687 13388c-18,0 -32,-6 -42,-16 -9,-11 -14,-27 -14,-48 0,-15 2,-27 7,-37 5,-10 12,-18 21,-23 9,-5 19,-7 30,-7 19,0 34,5 43,16 10,11 15,27 15,48 0,14 -2,27 -7,37 -5,10 -12,17 -21,22 -9,5 -19,8 -32,8zm-31 -67c0,18 3,32 8,42 6,9 15,14 25,14 6,0 11,-1 15,-4 5,-3 8,-7 11,-12 2,-4 4,-10 5,-16 1,-7 2,-14 2,-21 0,-13 -2,-23 -4,-32 -3,-8 -7,-15 -12,-19 -5,-4 -11,-6 -17,-6 -11,0 -19,5 -25,14 -5,9 -8,23 -8,40z"/>
   <path id="5" class="fil78" d="M5809 13353c0,7 0,12 1,15 1,3 2,6 4,7 2,2 5,3 10,4l0 7 -53 0 0 -7c5,-1 8,-2 10,-3 1,-2 2,-3 3,-5 1,-2 2,-4 2,-7 0,-3 0,-7 0,-11l0 -111c0,-9 0,-15 0,-18 0,-3 0,-6 -1,-9 -1,-2 -1,-4 -2,-5 -1,-1 -3,-3 -4,-3 -2,-1 -5,-2 -10,-3l0 -7 32 -1 8 0 0 157z"/>
   <path id="6" class="fil78" d="M5844 13259l38 0 0 67c0,11 0,19 1,24 1,5 2,9 4,12 1,3 4,5 7,7 2,2 6,3 12,3 3,0 6,-1 9,-2 3,-1 7,-4 11,-7 3,-3 6,-7 8,-10 1,-3 2,-7 2,-11l0 -50c0,-5 0,-9 0,-11 0,-3 -1,-5 -2,-7 0,-1 -1,-2 -2,-3 -1,-1 -2,-2 -3,-3 -2,-1 -4,-2 -8,-2l0 -7 38 0 0 90c0,7 0,12 0,15 1,3 1,6 2,7 1,2 2,4 4,5 2,1 5,2 10,3l0 7 -30 1 -8 0 0 -22 -1 0c-8,8 -15,14 -21,17 -7,4 -14,6 -21,6 -8,0 -14,-2 -19,-5 -6,-3 -10,-8 -12,-14 -3,-7 -4,-15 -4,-27l0 -50c0,-7 0,-13 -1,-15 0,-3 -1,-5 -3,-7 -2,-2 -5,-3 -11,-4l0 -7z"/>
   <path id="7" class="fil78" d="M6126 13386l-52 0 0 -7c4,-1 6,-2 8,-3 1,0 2,-1 3,-3 1,-1 2,-4 3,-6 0,-3 1,-8 1,-14l0 -35c0,-6 -1,-11 -1,-16 0,-6 -1,-10 -2,-13 -1,-3 -2,-6 -3,-7 -1,-2 -2,-4 -4,-5 -2,-1 -4,-2 -6,-3 -2,-1 -5,-1 -8,-1 -3,0 -7,0 -10,2 -3,1 -6,4 -10,7 -4,3 -6,7 -8,10 -2,3 -3,7 -3,11l0 50c0,7 1,12 1,15 1,3 2,6 4,7 2,2 6,3 10,4l0 7 -52 0 0 -7c4,-1 6,-2 8,-3 1,0 2,-1 3,-3 1,-1 2,-3 3,-6 0,-3 1,-8 1,-14l0 -58c0,-5 -1,-10 -1,-13 0,-4 -1,-7 -2,-9 -1,-2 -2,-3 -4,-4 -3,-1 -6,-2 -10,-3l0 -7 31 -1 8 0 -1 21 2 1c6,-7 12,-11 16,-14 4,-3 8,-5 12,-7 4,-1 8,-2 13,-2 5,0 9,0 13,2 3,1 7,2 10,5 3,2 5,5 7,8 2,4 3,8 4,12 1,5 1,11 1,19l0 50c0,6 1,10 1,13 0,3 1,5 2,6 1,2 2,3 4,4 1,1 4,2 8,3l0 7z"/>
   <path id="8" class="fil78" d="M6141 13266c4,-1 8,-2 11,-4 2,-2 4,-4 6,-7 1,-3 3,-6 4,-10 0,-5 1,-11 2,-19l19 0 0 33 43 0 0 13 -43 0 0 59c0,9 1,16 1,21 1,5 2,9 4,12 2,3 4,5 7,6 2,1 5,2 9,2 4,0 7,-1 10,-2 3,-2 6,-4 9,-7l6 7c-6,7 -12,11 -17,14 -6,2 -12,4 -18,4 -11,0 -20,-4 -25,-10 -6,-7 -9,-18 -9,-32l0 -74 -19 0 0 -6z"/>
   <path id="9" class="fil78" d="M6344 13363c-6,6 -11,11 -16,14 -4,3 -9,6 -15,8 -6,2 -12,3 -19,3 -18,0 -32,-6 -41,-17 -9,-10 -14,-27 -14,-48 0,-13 2,-25 7,-35 5,-10 12,-18 20,-23 9,-6 19,-8 31,-8 9,0 16,1 22,4 7,3 12,7 15,12 4,4 7,11 9,18 2,8 3,17 4,29l-84 0 0 3c0,10 1,19 4,26 2,7 6,13 11,17 6,4 13,6 21,6 7,0 14,-2 20,-4 5,-3 11,-7 17,-13l8 8zm-22 -54c-1,-9 -2,-17 -4,-23 -2,-6 -4,-11 -8,-14 -4,-3 -9,-5 -15,-5 -9,0 -16,4 -22,11 -5,7 -8,18 -9,31l58 0z"/>
   <path id="10" class="fil78" d="M6476 13363c-5,6 -10,11 -15,14 -5,3 -10,6 -16,8 -5,2 -12,3 -18,3 -19,0 -32,-6 -42,-17 -9,-10 -13,-27 -13,-48 0,-13 2,-25 7,-35 4,-10 11,-18 20,-23 9,-6 19,-8 30,-8 9,0 17,1 23,4 6,3 11,7 15,12 4,4 7,11 9,18 2,8 3,17 3,29l-83 0 0 3c0,10 1,19 3,26 2,7 6,13 12,17 5,4 12,6 21,6 7,0 13,-2 19,-4 6,-3 12,-7 17,-13l8 8zm-22 -54c0,-9 -2,-17 -3,-23 -2,-6 -5,-11 -9,-14 -3,-3 -8,-5 -14,-5 -9,0 -17,4 -22,11 -6,7 -9,18 -10,31l58 0z"/>
   <path id="11" class="fil78" d="M6539 13281l2 0c4,-6 9,-10 13,-14 4,-3 9,-6 14,-7 4,-2 10,-3 16,-3 5,0 10,0 14,1l0 30 -15 0c-2,-5 -5,-8 -7,-10 -2,-3 -6,-4 -10,-4 -3,0 -6,1 -9,3 -3,2 -6,5 -9,8 -3,4 -5,7 -6,10 -1,3 -2,7 -2,11l0 47c0,8 1,13 2,16 0,3 2,5 4,7 3,1 6,2 11,3l0 7 -54 0 0 -7c3,-1 6,-2 7,-3 2,0 3,-1 4,-3 1,-1 2,-3 2,-6 1,-3 1,-8 1,-14l0 -58c0,-5 0,-10 0,-13 0,-4 -1,-7 -2,-9 -1,-2 -3,-3 -5,-4 -2,-1 -5,-2 -9,-3l0 -7 31 -1 8 0 -1 23z"/>
   <path id="12" class="fil78" d="M6690 13344c2,8 4,14 7,19 3,4 7,8 12,10 5,2 11,3 18,3 11,0 19,-3 24,-8 6,-5 8,-13 8,-24 0,-6 -1,-12 -3,-16 -2,-5 -6,-9 -11,-13 -5,-4 -13,-9 -24,-14 -10,-5 -19,-10 -25,-15 -6,-5 -10,-10 -13,-16 -3,-6 -5,-12 -5,-19 0,-10 3,-18 7,-25 5,-8 12,-13 21,-17 9,-4 19,-6 31,-6 6,0 13,0 19,1 7,0 15,2 24,5l0 35 -13 0c-2,-7 -4,-14 -7,-18 -3,-4 -7,-7 -11,-9 -4,-2 -10,-3 -16,-3 -6,0 -11,2 -16,4 -4,2 -8,5 -11,9 -2,5 -4,10 -4,16 0,6 1,11 4,15 2,5 6,9 10,13 5,3 12,7 21,12 12,6 21,11 27,16 6,5 11,10 14,16 4,7 6,14 6,22 0,9 -2,17 -5,24 -3,6 -7,11 -12,15 -5,4 -11,7 -18,9 -8,2 -16,3 -24,3 -14,0 -30,-3 -48,-7l0 -37 13 0z"/>
   <path id="13" class="fil78" d="M6802 13266c4,-1 8,-2 10,-4 3,-2 5,-4 7,-7 1,-3 3,-6 3,-10 1,-5 2,-11 3,-19l19 0 0 33 43 0 0 13 -43 0 0 59c0,9 0,16 1,21 1,5 2,9 4,12 2,3 4,5 7,6 2,1 5,2 9,2 4,0 7,-1 10,-2 3,-2 6,-4 9,-7l6 7c-6,7 -12,11 -18,14 -5,2 -11,4 -17,4 -11,0 -20,-4 -25,-10 -6,-7 -9,-18 -9,-32l0 -74 -19 0 0 -6z"/>
   <path id="14" class="fil78" d="M6978 13367l-2 -1c-8,8 -15,14 -22,17 -6,3 -14,5 -21,5 -7,0 -13,-2 -18,-4 -5,-3 -9,-6 -12,-11 -2,-5 -4,-10 -4,-16 0,-13 6,-23 19,-30 13,-7 32,-11 58,-13l0 -8c0,-9 -1,-17 -3,-22 -2,-5 -4,-9 -8,-12 -4,-2 -9,-3 -16,-3 -6,0 -12,1 -16,5 -4,4 -8,9 -10,16l-17 0 0 -17c8,-4 16,-7 21,-10 6,-2 12,-3 17,-4 6,-2 12,-2 17,-2 9,0 16,1 21,4 6,3 10,7 12,13 3,5 4,14 4,26l0 46c0,6 0,11 1,14 0,2 0,5 0,7 1,2 1,4 2,6 1,1 2,2 4,3 2,1 5,2 9,3l0 7 -37 0 1 -19zm-2 -42c-18,0 -32,3 -41,7 -8,5 -13,12 -13,21 0,5 1,9 3,12 2,3 5,5 8,6 3,1 7,2 11,2 6,0 11,-2 16,-5 5,-2 9,-6 12,-11 2,-4 4,-9 4,-13l0 -19z"/>
   <path id="15" class="fil78" d="M7026 13266c4,-1 8,-2 11,-4 2,-2 5,-4 6,-7 2,-3 3,-6 4,-10 1,-5 2,-11 3,-19l18 0 0 33 43 0 0 13 -43 0 0 59c0,9 1,16 1,21 1,5 2,9 4,12 2,3 5,5 7,6 2,1 6,2 10,2 3,0 6,-1 9,-2 4,-2 7,-4 10,-7l6 7c-7,7 -13,11 -18,14 -6,2 -12,4 -18,4 -11,0 -20,-4 -25,-10 -6,-7 -8,-18 -8,-32l0 -74 -20 0 0 -6z"/>
   <path id="16" class="fil78" d="M7229 13363c-5,6 -11,11 -15,14 -5,3 -10,6 -16,8 -6,2 -12,3 -19,3 -18,0 -32,-6 -41,-17 -9,-10 -14,-27 -14,-48 0,-13 3,-25 7,-35 5,-10 12,-18 21,-23 8,-6 18,-8 30,-8 9,0 16,1 23,4 6,3 11,7 15,12 3,4 6,11 8,18 2,8 4,17 4,29l-84 0 0 3c0,10 2,19 4,26 2,7 6,13 11,17 6,4 13,6 21,6 8,0 14,-2 20,-4 6,-3 11,-7 17,-13l8 8zm-22 -54c-1,-9 -2,-17 -4,-23 -1,-6 -4,-11 -8,-14 -4,-3 -9,-5 -15,-5 -9,0 -16,4 -21,11 -6,7 -9,18 -10,31l58 0z"/>
  </g>
  <path class="fil79" d="M46348 14985c-75,95 -137,198 -237,268 -112,79 -252,121 -382,162 -280,87 -574,120 -856,199 -115,32 -228,90 -329,166 70,-126 162,-242 283,-346 271,-235 631,-334 886,-590 108,-110 190,-238 254,-378 54,-121 118,-261 43,-384 -6,-11 -26,-11 -28,3 -44,326 -284,614 -573,754 -332,159 -667,274 -937,536 -75,73 -138,153 -191,238 8,-39 17,-77 26,-114 10,-38 20,-76 30,-114 12,-32 24,-65 39,-97 86,-187 171,-377 266,-559 89,-173 225,-276 360,-410 59,-59 97,-127 137,-200 40,-73 18,-157 9,-234 -3,-27 -40,-35 -48,-7 -27,90 -34,166 -84,248 -48,78 -126,136 -196,193 -153,125 -259,265 -347,442 -2,5 -5,11 -7,16 2,-36 3,-72 3,-109 -1,-247 -43,-808 -389,-804 -24,1 -28,33 -6,41 167,57 221,247 251,403 34,184 33,384 0,568 -29,162 -81,318 -128,476 -25,66 -43,133 -55,199 -8,32 -15,63 -21,95 -20,98 -24,192 -20,284 -62,-198 -154,-386 -269,-559 -106,-160 -234,-309 -380,-435 -117,-101 -295,-218 -457,-168 -28,9 -21,48 7,50 361,29 642,447 803,733 95,170 160,354 206,543 13,51 21,103 28,157 -12,59 -23,119 -33,180 -58,371 -95,739 -99,1115 0,26 4,49 12,70l367 0c7,-21 11,-44 10,-70 -7,-372 23,-737 59,-1107 11,-105 27,-205 51,-301 42,-67 93,-129 144,-182 183,-186 432,-243 678,-297 242,-55 484,-108 713,-206 101,-43 200,-100 277,-179 73,-75 110,-177 157,-269 8,-16 -14,-36 -27,-20z"/>
  <path class="fil80" d="M47304 14283c40,-87 63,-183 63,-285 0,-376 -305,-680 -681,-680 -17,0 -34,0 -51,2 -66,-306 -339,-536 -665,-536 -62,0 -122,9 -179,24 -63,-311 -338,-546 -668,-546 -198,0 -377,86 -501,221 -123,-181 -330,-300 -565,-300 -344,0 -628,255 -674,587 -113,-84 -253,-133 -404,-133 -376,0 -681,305 -681,681 0,32 3,63 7,94 -342,37 -608,326 -608,677 0,353 268,643 611,677 -6,38 -10,78 -10,117 0,376 305,681 681,681 376,0 681,-305 681,-681 0,-78 -14,-153 -38,-223 119,-78 213,-192 265,-326 61,18 126,27 193,27 171,0 328,-63 448,-168 120,105 276,168 448,168 163,0 313,-57 430,-153 84,156 227,275 399,328 0,10 -1,20 -1,30 0,349 263,636 601,676 120,193 335,322 579,322 376,0 681,-305 681,-681 0,-260 -146,-486 -361,-600z"/>
  <polygon class="fil81" points="47304,14283 47338,14193 47359,14098 47367,13998 47274,13655 47029,13411 46686,13318 46669,13318 46652,13319 46635,13320 46506,13045 46273,12855 45970,12784 45909,12787 45849,12795 45791,12808 45663,12528 45429,12335 45123,12262 44933,12289 44763,12366 44622,12483 44473,12325 44281,12221 44057,12183 43739,12261 43501,12470 43383,12770 43261,12698 43126,12653 42979,12637 42635,12730 42391,12974 42298,13318 42299,13350 42301,13381 42305,13412 41995,13526 41779,13766 41697,14089 41779,14414 41997,14654 42308,14766 42303,14805 42299,14844 42298,14883 42391,15227 42635,15471 42979,15564 43323,15471 43567,15227 43660,14883 43655,14806 43643,14732 43622,14660 43732,14571 43822,14461 43887,14334 43949,14349 44013,14358 44080,14361 44245,14341 44396,14283 44528,14193 44659,14283 44810,14341 44976,14361 45134,14343 45279,14291 45406,14208 45509,14351 45644,14462 45805,14536 45805,14546 45804,14556 45804,14566 45885,14887 46099,15126 46405,15242 46555,15411 46752,15524 46984,15564 47328,15471 47572,15227 47665,14883 47619,14637 47493,14431 "/>
  <path class="fil82" d="M45227 17291c-148,-156 -248,-602 -101,-827 147,-225 450,-376 634,-165 184,211 175,467 115,666 -48,161 -208,451 -420,447 -1,58 0,116 0,174 2,6 1,13 -3,22 -12,21 -46,11 -46,-13 0,-63 0,-126 1,-189 -57,-14 -117,-49 -180,-115z"/>
 </g>
</svg>
