<?xml version="1.0" encoding="UTF-8"?>
<!DOCTYPE svg PUBLIC "-//W3C//DTD SVG 1.1//EN" "http://www.w3.org/Graphics/SVG/1.1/DTD/svg11.dtd">
<!-- Creator: CorelDRAW X8 -->
<svg xmlns="http://www.w3.org/2000/svg" xml:space="preserve" width="4879px" height="1956px" version="1.1" style="shape-rendering:geometricPrecision; text-rendering:geometricPrecision; image-rendering:optimizeQuality; fill-rule:evenodd; clip-rule:evenodd"
viewBox="0 0 48792 19559"
 xmlns:xlink="http://www.w3.org/1999/xlink">
 <defs>
  <style type="text/css">
   <![CDATA[
    .str0 {stroke:#373435;stroke-width:41.6561}
    .str2 {stroke:#313131;stroke-width:41.6561}
    .str1 {stroke:#424242;stroke-width:20.8339}
    .str3 {stroke:black;stroke-width:8.9997}
    .str4 {stroke:#B5EEFF;stroke-width:8.9997}
    .str5 {stroke:#E6E6E6;stroke-width:8.9997}
    .fil17 {fill:none}
    .fil13 {fill:#373435}
    .fil20 {fill:#EFB783}
    .fil35 {fill:#0B3859}
    .fil75 {fill:#0C5B24}
    .fil47 {fill:#121710}
    .fil23 {fill:#1369B6}
    .fil54 {fill:#1B1B1C}
    .fil31 {fill:#1C1C1C}
    .fil27 {fill:#20547B}
    .fil7 {fill:#313131}
    .fil30 {fill:#33322E}
    .fil36 {fill:#333333}
    .fil61 {fill:#333333}
    .fil26 {fill:#362D24}
    .fil28 {fill:#3689BB}
    .fil22 {fill:#3890D0}
    .fil76 {fill:#402810}
    .fil10 {fill:#424242}
    .fil6 {fill:#464646}
    .fil14 {fill:#4A4A4A}
    .fil40 {fill:#4D4D4D}
    .fil39 {fill:#525252}
    .fil15 {fill:#5C707B}
    .fil77 {fill:#63795B}
    .fil74 {fill:#666666}
    .fil16 {fill:#71848B}
    .fil8 {fill:#757575}
    .fil55 {fill:#767B7F}
    .fil32 {fill:#797977}
    .fil49 {fill:#7A838A}
    .fil41 {fill:gray}
    .fil78 {fill:#82916A}
    .fil73 {fill:#94A980}
    .fil56 {fill:#99A3AC}
    .fil50 {fill:#9CADB7}
    .fil57 {fill:#AAB5C5}
    .fil53 {fill:#ADBACA}
    .fil60 {fill:#B3B3B3}
    .fil38 {fill:#B5EEFF}
    .fil24 {fill:#B96F48}
    .fil52 {fill:#BACADA}
    .fil46 {fill:#C1C2C9}
    .fil18 {fill:#C1CFCF}
    .fil33 {fill:#C77066}
    .fil4 {fill:#C8382F}
    .fil11 {fill:#CACACA}
    .fil37 {fill:#CCCCCC}
    .fil45 {fill:#CDCED3}
    .fil79 {fill:#CFB175}
    .fil51 {fill:#D2D7DD}
    .fil5 {fill:#DF7E77}
    .fil3 {fill:#DFE9EB}
    .fil34 {fill:#E09474}
    .fil44 {fill:#E0E7ED}
    .fil71 {fill:#E4DEE8}
    .fil66 {fill:#E6E2EB}
    .fil1 {fill:#E6E6E6}
    .fil42 {fill:#E6EEF1}
    .fil72 {fill:#E8D9E7}
    .fil64 {fill:#EAE4ED}
    .fil21 {fill:#EC9956}
    .fil29 {fill:#ECB31E}
    .fil65 {fill:#ECE6F1}
    .fil25 {fill:#EDD89F}
    .fil62 {fill:#EEEAF3}
    .fil12 {fill:#EFEFEF}
    .fil43 {fill:#F1FAFF}
    .fil67 {fill:#F2EBF4}
    .fil0 {fill:#F2F2F2}
    .fil48 {fill:#F2FBFF}
    .fil69 {fill:#F4EEF9}
    .fil68 {fill:#F6F1FA}
    .fil70 {fill:#FE0022}
    .fil63 {fill:#FF0125}
    .fil9 {fill:white}
    .fil58 {fill:white}
    .fil19 {fill:#464646;fill-rule:nonzero}
    .fil2 {fill:#492107;fill-rule:nonzero}
    .fil59 {fill:#B3B3B3}
   ]]>
  </style>
   <mask id="id0">
  <linearGradient id="id1" gradientUnits="userSpaceOnUse" x1="25617.3" y1="16060.5" x2="30445.5" y2="16060.5">
   <stop offset="0" style="stop-opacity:0; stop-color:white"/>
   <stop offset="1" style="stop-opacity:1; stop-color:white"/>
  </linearGradient>
    <rect style="fill:url(#id1)" x="25607" y="14748" width="4849" height="2625"/>
   </mask>
 </defs>
 <g id="Слой_x0020_1">
  <metadata id="CorelCorpID_0Corel-Layer"/>
  <rect class="fil0" x="2" width="48790" height="19559"/>
  <g>
   <path class="fil1" d="M1748 18235l2229 0c2148,0 4296,0 6444,0 296,0 3327,36 4412,0l1559 0c75,1 177,0 317,0l13530 0 2245 0 10950 0 60 1c74,0 131,1 177,-1l1472 0c16,35 15,50 58,0l3584 0 5 -2912c-10,-7 -25,-12 -34,-15l-202 -62c-39,-131 -84,-248 -74,-386 12,-166 55,-145 160,-235 9,-222 -73,-143 -40,-384l-447 10 -2 -1306c-201,-23 -200,-115 -469,-125 107,108 -28,-8 86,52l218 134c204,206 119,941 110,1238l-2574 -16 -1 -1273 -417 -155 -5 -3663c-266,-45 -1186,-47 -1529,-50 -575,-3 -198,-188 -470,-317l-34 329 -594 21 -2 5121 -342 -5c-43,-202 -45,-791 -34,-995 8,-161 -3,-147 -5,-246 0,-8 1,-19 1,-28 1,-8 3,-19 3,-29l3 -238c11,-169 5,-304 -3,-494 -6,-130 23,-360 6,-495 -37,-306 9,-753 4,-1096 -5,-335 134,-359 -318,-359 -117,-223 50,-288 -322,-285l-28 -239 -1065 8 -13 227 -265 20 -37 266 -360 21 23 1635c1,273 -27,469 4,768l-11 983c-9,213 -20,523 31,710 -187,21 -153,25 -140,-137l-262 13c-4,-629 -61,-4435 28,-4745 -181,-91 -232,14 -230,-427 -114,-95 -37,-13 -133,-133 -87,-108 -85,-68 -213,-141l-264 -109c-12,-2 -22,-3 -34,-6 -129,-33 -213,-73 -356,-73 -155,1 -313,1 -468,9 -31,-44 -26,-24 -48,-91 -1,-4 -9,-96 -9,-107l-59 191c-142,0 -536,-17 -649,10 -223,52 185,-64 -85,33l-58 22c-394,113 -99,1 -327,125 -46,25 -255,43 -334,346 -90,353 48,199 -243,351 89,306 35,4361 29,5013l-301 5c66,163 49,549 22,752l-645 -2c-33,-207 -42,-588 22,-754l-302 -5c21,-829 -76,-4562 26,-5009 -163,-83 -80,54 -179,-117 -87,-151 -25,-258 -126,-384 -106,-133 -116,-126 -247,-185l-352 -137c-376,-113 -499,-13 -779,-88l-63 -21c-3,0 -13,0 -17,0l-63 22c-9,3 -19,8 -29,10 -195,44 -412,-24 -606,24 -138,34 10,0 -84,34l-126 35c-62,12 -70,-2 -133,20 -66,23 -24,15 -87,57 -196,132 -47,-25 -203,106 -60,50 -22,29 -68,89 -58,76 -103,76 -114,147 -73,451 -2,270 -232,388 48,159 36,416 27,612 -458,-5 -384,139 -1131,128l8 3574c1,792 118,930 -238,923l-6 -922 -420 -11c-35,-109 15,-13 5,-100l8 -264c27,-79 19,18 13,-45 -9,-90 -31,50 -44,-133l21 -459c0,-5 -1,-15 -2,-20l-15 -691c-7,-143 20,-124 22,-161 0,-5 1,-16 1,-21 -1,-5 -3,-16 -3,-21l-4 -522c7,-56 9,3 4,-75 -3,-56 -13,-141 -8,-221l6 -1538c0,-5 -1,-15 -1,-20 0,-5 -3,-16 -3,-21 -9,-80 -30,-24 -7,-166l13 -144c-19,-114 30,-150 21,-325 -21,-402 41,-86 70,-321l-709 -12 -7 -457c-40,-188 -198,-56 -356,-117l-87 -430c8,-4 21,-4 25,-6 111,-40 14,47 79,-39 53,-70 45,-41 24,-149 -140,-63 -94,139 -129,-84 -27,-169 19,-131 126,-164l-128 -62c-1,-192 -8,-385 -2,-577l-67 595 -138 33c150,71 108,-17 133,113 32,172 -42,104 -94,149 -125,106 32,-14 -153,308 36,79 36,57 61,91l64 87c-92,67 -53,-12 -79,154 -146,-83 15,-11 -102,-9l-142 11 -8 557 -720 19c45,240 125,-120 79,312 -3,29 -12,40 -7,87 12,114 -7,-35 24,78 20,75 26,27 24,146 -159,28 -169,30 -292,-19 -141,-56 120,-10 -153,-54l-343 10c-178,49 6,6 -112,51 -117,45 -174,24 -315,42 58,143 52,295 54,492l-1 3690c0,152 60,471 -62,539 -82,-48 -76,-131 -95,-243 -97,-547 42,-4277 -28,-5187 15,-78 50,-2250 44,-2281 -188,4 -356,2 -542,-9 -140,-8 -158,5 -272,4 -217,-1 -102,-27 -239,-38 -239,-20 -51,22 -231,31 -148,7 -74,-28 -219,-19 -163,9 -297,38 -514,31 -543,-19 -1629,-46 -2152,12 -8,110 -46,518 35,532l-12 2159c-26,100 -1,37 -45,90 -181,-89 -23,-111 -101,-306l-42 451 -533 36 -1 -787c224,41 204,129 444,198l6 -304c-224,-46 -235,-136 -456,-220l-2 1112c-192,0 -363,4 -538,-19 -182,-24 -287,17 -467,10l-500 -10c-51,12 -33,12 -98,19 -64,7 -158,2 -230,7l0 4580 -276 -7c-37,-83 -16,-118 -78,-200l-572 -9 -3 -689 -270 0 -7 -299c-83,-54 -131,-21 -215,-77l0 -2296 -486 -1 -11 -295 -574 -6c-28,378 22,257 -75,302 -149,-90 -52,-579 -99,-736l-22 736 -271 -35c-9,-3 -18,-9 -27,-12 -217,-69 -195,-16 -271,19l-140 72 -1 582 -659 2 -18 1524 -177 -2 4 -678 -436 -12c-15,-530 -2,-1078 -2,-1610 0,-921 39,-347 80,-735 44,-413 -15,-432 -209,-627 -221,-223 -150,-238 -588,-222 -272,10 -124,49 -346,71 -280,28 -1418,-13 -1998,27l-29 230c-295,-8 -289,-25 -476,85 -49,249 -14,1013 -13,1328 0,97 9,237 7,318l-188 593c-5,7 -13,15 -18,22 -1,2 -39,85 -42,91l-302 22 4 1244c6,316 -2,283 -90,323 -7,-9 -13,-22 -16,-31 -4,-8 -12,-21 -16,-31 -78,-228 25,169 -20,-68 -42,-220 65,-248 -59,-501 -5,-10 -20,-23 -33,-82l-8 -1397c-46,-111 9,2 -58,-61l-139 -161c-164,-17 -235,31 -389,42 -24,2 -173,-2 -193,-8 -104,-27 -65,4 -110,-80l-92 109c-108,97 8,56 -148,79l-42 -119c-30,-102 13,-23 -37,-121 -4,-7 -10,-17 -15,-24l-100 -140 -271 3c-79,173 49,110 -156,120 -40,-75 -10,-38 -36,-106l-41 -96c-527,8 -324,-21 -497,86l-184 -320 -137 65 -143 -73c-199,29 -475,-42 -657,32 -128,52 -103,159 -287,232 -11,4 -53,16 -62,19 -7,2 -26,18 -32,9 -5,-10 -22,4 -32,9 -48,745 -86,216 -139,504l-9 1475 -250 78c11,465 -11,937 2,1401l2 620c-1,232 -43,178 -50,363l-2 185c-62,-36 -44,-28 -78,-49l-51 -30c-95,-61 -8,44 -111,-86l-50 112c-51,94 57,17 -63,85 -56,-113 -29,-4 1,-86 2,-4 30,-34 32,-47 2,-14 14,-15 20,-24 -245,-37 -144,-165 -226,-81 -66,66 -33,-26 -8,56 23,74 14,24 28,46 185,287 6,-85 79,94 -362,-133 -79,-20 -228,36 19,-223 65,-65 -23,-327l-14 -48c-1,-6 -2,-17 -4,-23l-8 -45c-3,-9 -12,-35 -16,-45 -81,-208 -70,-216 -172,-247l-180 358c-189,73 -805,155 -1006,85l-39 -2022c-117,-306 32,-378 -186,-570 8,179 19,375 -46,546 -3,8 -9,18 -12,25 -63,165 -12,418 -18,688 -9,445 -11,890 -22,1334 -198,66 -594,6 -811,-34 -249,-46 -305,-68 -344,-429 -63,76 -50,60 -128,21 -29,237 -54,177 -87,268 -26,76 17,210 15,377 -215,-6 -53,-21 -152,-40l-144 -66c-5,-2 -16,-7 -21,-10 -5,-2 -17,-5 -23,-8l-147 -59c-156,362 -89,-60 -201,224l-44 -68c-6,-11 -28,-51 -35,-63 -29,-49 5,-24 -43,-71 -89,-87 7,-23 -185,-27 -24,100 -13,5 -2,78 1,7 25,54 31,66 -376,-15 -33,-21 -251,47l-2 -228c-55,-34 75,-55 -67,-24 -26,420 57,255 -70,297 -56,-102 16,-2 -64,-65 -131,-104 -196,-41 -299,-100 -6,-3 -15,-12 -20,-16 -5,-3 -14,-12 -19,-15 -65,-36 -75,-21 -129,9 76,124 -7,84 163,111 -8,6 -22,9 -29,12l-82 34c-6,2 -18,7 -23,9l-90 60c10,-159 114,-146 -10,-296 -115,94 -56,53 -68,183 -1,5 -2,17 -2,22l11 425c20,74 -39,26 47,81 -218,6 -110,20 -159,57l3 2912 570 0 1173 0zm14893 0l68 0c-28,33 -34,38 -68,0zm31078 -2930l-587 -10c-2,-6 -4,-12 -5,-18l-469 -14c4,-162 73,-376 159,-497 52,-74 105,-138 241,-113 86,16 82,35 132,76 221,183 -109,-27 64,59 107,-60 154,-118 238,-199 100,26 59,-32 135,84 45,66 29,-19 18,115l-19 328 91 -64c103,-107 139,-528 430,-389 144,69 275,366 275,607l-677 3 -26 32zm-2411 -41l-205 -4 9 -532c94,180 184,209 196,536zm-41147 -89l-380 -40 0 0c47,-7 100,-11 161,-8 91,5 161,22 219,48zm-803 -59l-644 -28c7,-100 -8,-152 -4,-234 13,-260 -17,-73 64,-144 153,65 88,183 78,364l86 -2 -14 -342 169 -11c67,65 18,-18 53,104 23,79 8,45 13,110 12,157 -73,7 13,137 0,-151 -36,-217 29,-327 207,32 86,93 121,338 13,13 24,25 36,35zm-768 -33l-54 -3c-44,-110 -36,-285 -37,-420 161,23 158,25 157,196 -1,174 15,205 -66,227zm1398 3152c-4,1 -8,1 -11,0l11 0zm41623 -2974c52,-782 704,-803 744,10l-744 -10zm-40935 -168c-28,-64 -45,-179 -42,-278 6,-160 11,-140 162,-156 -14,518 16,412 -120,434zm-155 6c-129,-41 -112,-51 -103,-243 7,-149 8,-130 152,-152l-32 368c-2,-5 -11,18 -17,27zm-323 -124c-54,-324 60,-233 129,-240 20,60 34,160 25,241 -17,154 18,88 -103,123 -61,-92 -12,108 -51,-124zm-104 118c-120,-22 -123,-2 -119,-198 3,-166 -20,-129 119,-153 68,105 46,253 0,351zm41378 173c-80,-78 -88,-176 -101,-303 -20,-201 -24,-235 153,-264 51,155 46,427 -52,567zm943 -303c-18,-200 -28,-240 152,-260 48,148 51,414 -47,561 -92,-70 -92,-154 -105,-301zm-1300 -2082c524,77 341,662 363,1363l-377 7 14 -1370z"/>
  </g>
  <path class="fil2" d="M696 6250c8,0 16,1 24,1 -7,-6 -17,-5 -24,-1z"/>
  <path class="fil2" d="M26715 14346c9,1 18,1 27,1 -5,-12 -31,-16 -27,-1z"/>
  <path class="fil2" d="M36627 13089c8,0 16,0 24,-1 -8,-9 -23,-13 -24,1z"/>
  <g>
   <path class="fil3" d="M22407 15887c49,2 131,5 187,3 57,-2 88,-7 106,-15 18,-7 23,-17 15,-33 -9,-16 -29,-40 -58,-70 -29,-31 -67,-68 -105,-100 -38,-32 -77,-57 -116,-81 -40,-25 -79,-48 -116,-69 -37,-20 -72,-38 -106,-53 -35,-15 -69,-27 -94,-35 -24,-8 -39,-11 -57,-13 -18,-1 -40,-1 -68,-1 -28,0 -61,1 -85,5 -24,3 -39,10 -50,18 -11,8 -18,18 -19,35 0,17 5,41 23,71 18,30 48,65 83,100 34,34 73,68 117,102 44,34 93,69 138,91 45,22 86,31 114,37 28,5 43,6 91,8z"/>
   <rect class="fil4" x="16149" y="13496" width="526" height="561" rx="62" ry="59"/>
   <polygon class="fil5" points="16220,13496 16603,13496 16603,13784 16220,13784 "/>
   <path class="fil6" d="M11426 15219c-16,-13 -21,-40 -24,-70 -2,-29 -2,-60 3,-88 5,-28 15,-53 28,-73 13,-19 29,-33 48,-43 19,-10 41,-15 190,-17 149,-2 425,-1 569,-1 144,-1 156,-4 256,-43 100,-39 289,-114 521,-205 233,-92 509,-198 781,-294 272,-96 540,-180 775,-242 234,-61 434,-98 625,-128 190,-29 369,-50 543,-62 95,-7 187,-11 283,-13 -1,-2 -1,-4 -1,-6l0 0c0,-36 30,-66 67,-66l617 0c36,0 66,30 66,66l0 0c0,8 -1,16 -4,23 30,2 60,5 90,8 194,20 375,52 551,94 176,42 346,92 519,159 173,67 349,151 528,250 178,100 359,216 522,322 162,106 307,202 379,251 73,48 73,48 73,48 0,0 0,0 0,0 0,0 0,0 347,38 348,39 1043,115 1481,173 437,57 617,95 707,114 89,18 89,18 89,18 0,0 0,0 -30,0 -31,0 -92,0 -124,10 -33,10 -37,30 -19,71 19,41 59,103 109,157 50,54 110,100 165,134 54,33 104,56 196,66 93,10 228,9 296,8 68,0 68,0 68,0 0,0 0,0 0,0 0,0 0,0 10,19 10,20 31,59 39,120 8,61 3,145 0,186 -3,42 -3,42 -3,42 0,0 0,0 7,0 6,0 19,0 26,0 7,0 7,0 7,0 0,0 0,0 0,49 0,49 0,146 0,195 0,49 0,49 0,49 0,0 0,0 0,0 0,0 0,0 -6,-1 -6,-2 -18,-4 -24,-6 -6,-1 -6,-1 -6,-1 0,0 0,0 0,0 0,0 0,0 0,35 0,35 0,106 -4,161 -3,55 -11,96 -24,131 -13,35 -32,65 -54,89 -22,24 -48,42 -82,58 -34,16 -75,29 -187,42 -111,13 -292,26 -382,32 -91,7 -91,7 -91,7 0,0 0,0 -13,-7 -14,-6 -42,-19 -55,-26 -14,-6 -14,-6 -14,-6 0,0 0,0 -10,0 -11,1 -32,2 -42,3 -10,1 -10,1 -284,10 -275,9 -823,27 -1097,36 -274,9 -274,9 -274,9 0,0 0,0 -2,7 -3,8 -8,22 -11,29 -2,7 -2,7 -2,7 0,0 0,0 -935,-10 -934,-11 -2802,-31 -3774,-44 -971,-12 -1045,-16 -1082,-18 -37,-2 -37,-2 -280,-6 -242,-5 -726,-14 -1059,-27 -332,-13 -513,-30 -747,-56 -233,-25 -518,-59 -685,-82 -167,-24 -217,-37 -257,-54 -39,-18 -69,-40 -89,-63 -19,-23 -28,-46 -28,-180 0,-134 9,-379 18,-514 9,-134 18,-159 56,-205 39,-45 107,-112 209,-203 102,-91 239,-207 314,-281 74,-73 87,-104 87,-130 -1,-25 -15,-45 -47,-59 -32,-14 -81,-23 -141,-20 -60,3 -131,19 -179,27 -49,9 -77,10 -93,-3z"/>
   <path class="fil7" d="M22281 15858c21,5 44,9 71,12l13 1 0 1 -688 214 0 -39 604 -189z"/>
   <path class="fil7" d="M11325 15835c10,-10 21,-21 33,-33l1180 198 356 180 -20 35 -367 -184 -1182 -196z"/>
   <path class="fil8" d="M21879 15454c-11,12 -9,30 3,59 19,41 59,103 109,157 26,29 56,55 85,78l8 8c0,0 0,0 -93,-2 -93,-2 -278,-7 -370,-9 -93,-2 -93,-2 -93,-2 0,0 0,0 -27,-13 -26,-13 -79,-39 -133,-56 -55,-18 -111,-28 -179,-35 -69,-7 -150,-12 -223,-6 -72,5 -137,20 -186,33 -49,13 -83,25 -99,31 -17,5 -17,5 -17,5 0,0 0,0 -171,-4 -172,-4 -515,-12 -686,-16 -172,-4 -172,-4 -172,-4 0,0 0,0 0,0 0,0 0,0 -11,-35 -12,-35 -35,-106 -61,-171 -27,-66 -57,-127 -94,-183 -36,-56 -79,-106 -100,-131 -22,-26 -22,-26 -22,-26 0,0 0,0 66,4 66,4 198,11 345,20 147,9 310,19 480,35 170,15 347,36 517,58 170,22 335,45 488,70 153,24 295,51 412,78 94,21 172,43 224,57z"/>
   <path class="fil4" d="M11515 15153c56,-7 139,-12 201,-13 62,0 102,3 137,14 36,10 66,27 88,48 22,21 36,46 43,60 7,14 7,18 2,28 -6,10 -18,25 -54,57 -37,32 -98,80 -164,134 -66,53 -136,112 -194,159 -59,46 -106,82 -141,108 -35,27 -59,45 -70,54 -12,9 -12,9 -12,9 0,0 0,0 6,-97 6,-98 17,-293 26,-399 8,-106 13,-123 30,-136 17,-12 46,-20 102,-26z"/>
   <path class="fil9" d="M11980 15253c1,3 3,6 4,9 7,14 7,18 2,28 -5,8 -15,21 -41,45l-564 0 2 -20c2,-26 4,-46 5,-62l592 0zm-337 330c-24,20 -48,39 -69,57 -12,8 -22,17 -33,25l-181 0 5 -82 278 0z"/>
   <circle class="fil10" cx="13642" cy="16725" r="891"/>
   <circle class="fil11 str0" cx="13642" cy="16725" r="625"/>
   <path class="fil12" d="M16726 15119c14,59 40,165 64,296 24,132 46,290 59,469 12,180 15,382 13,513 -1,27 -1,52 -2,74l-1701 0 3 24 1697 -3c-2,37 -4,66 -7,92l-1690 0 0 67 1681 0c-10,61 -22,124 -29,156 -6,32 -6,32 -6,32 0,0 0,0 0,0 0,0 0,0 -297,0 -297,0 -891,0 -1188,0 -297,0 -297,0 -297,0 0,0 0,0 0,0 0,0 0,0 -28,-70 -28,-70 -83,-209 -188,-408 -105,-199 -259,-459 -402,-681 -143,-223 -276,-409 -351,-514 -75,-105 -92,-128 -86,-140 5,-12 32,-12 487,-5 455,6 1338,19 1785,23 446,3 457,-4 462,0 6,3 8,16 21,75zm77 63c16,75 44,200 65,338 20,138 35,289 42,408 7,119 7,206 5,313 -1,72 -3,153 -8,230l2663 0c2,-20 3,-40 4,-61 8,-176 6,-385 -3,-542 -8,-157 -22,-261 -53,-352 -31,-91 -78,-170 -126,-232 -49,-63 -100,-109 -125,-133 -26,-23 -26,-23 -26,-23 0,0 0,0 0,0 0,0 0,0 0,0 0,0 0,0 -411,-12 -410,-12 -1232,-35 -1643,-47 -411,-12 -411,-12 -411,-12 0,0 0,0 3,13 3,12 8,37 24,112zm103 1310c-2,29 -4,58 -7,85l0 7 2662 0c3,-30 6,-63 8,-97l-2663 5zm-15 159c-9,67 -19,118 -25,148 -8,40 -8,40 -8,40 0,0 0,0 0,0 0,0 0,0 445,4 445,5 1334,14 1779,18 444,5 444,5 444,5 0,0 0,0 0,0 0,0 0,0 10,-70 5,-34 12,-84 19,-145l-2664 0z"/>
   <rect class="fil11" x="14343" y="15207" width="586" height="131"/>
   <rect class="fil13" x="14423" y="15251" width="425.773" height="42.9671"/>
   <rect class="fil11" x="16976" y="15254" width="586" height="131"/>
   <rect class="fil13" x="17057" y="15298" width="425.773" height="42.9671"/>
   <polygon class="fil14" points="13501,17239 13796,17239 13654,16852 "/>
   <polygon class="fil14" points="13156,16891 13315,17140 13564,16810 "/>
   <polygon class="fil14" points="14137,16891 13978,17140 13729,16811 "/>
   <polygon class="fil14" points="14091,16427 14193,16704 13780,16703 "/>
   <polygon class="fil14" points="13198,16425 13096,16702 13509,16701 "/>
   <polygon class="fil14" points="13984,16303 13714,16185 13690,16597 "/>
   <polygon class="fil14" points="13291,16303 13561,16185 13585,16597 "/>
   <path class="fil15" d="M14099 14975c159,8 450,8 595,8 145,0 145,0 145,0 0,0 0,0 0,0 0,0 0,0 -21,-128 -22,-128 -65,-385 -86,-513 -22,-128 -22,-128 -22,-128 0,0 0,0 0,0 0,0 0,0 -75,21 -75,20 -224,62 -337,98 -113,36 -188,66 -251,99 -62,33 -112,69 -148,109 -37,40 -60,83 -71,128 -11,46 -10,94 2,139 12,45 34,87 59,115 24,29 52,45 210,52z"/>
   <path class="fil16" d="M14565 14983c49,0 93,0 129,0 145,0 145,0 145,0 0,0 0,0 0,0 0,0 0,0 -21,-128 -22,-128 -65,-385 -86,-513 -22,-128 -22,-128 -22,-128 0,0 0,0 0,0 0,0 0,0 -75,21 -75,20 -224,62 -337,98 -70,22 -126,42 -173,62l440 588z"/>
   <path class="fil15" d="M14826 14381c23,131 65,367 87,484 21,118 22,118 23,118 1,0 1,0 1,0 0,0 0,0 255,3 255,4 765,10 1021,14 255,3 255,3 255,3 0,0 0,0 0,0 0,0 0,0 -14,-164 -15,-163 -43,-490 -58,-653 -14,-164 -14,-164 -14,-164 0,0 0,0 0,0 0,0 0,0 -81,4 -82,3 -245,9 -416,20 -172,11 -353,27 -517,48 -164,21 -312,47 -405,65 -93,18 -132,29 -151,34 -20,5 -20,5 -20,5 0,0 0,0 3,13 2,13 8,39 31,170z"/>
   <path class="fil16" d="M14826 14381c23,131 65,367 87,484 21,118 22,118 23,118 1,0 1,0 1,0 0,0 0,0 255,3l321 5 -640 -813c-32,7 -50,12 -61,15 -20,5 -20,5 -20,5 0,0 0,0 3,13 2,13 8,39 31,170z"/>
   <path class="fil15" d="M16727 14370c61,156 155,394 202,514 47,119 47,119 47,119 0,0 0,0 0,0 0,0 0,0 0,0 0,0 0,0 290,4 290,4 871,11 1161,15 291,4 291,4 291,4 0,0 0,0 0,0 0,0 0,0 0,-36 0,-37 0,-110 -1,-148 -1,-38 -2,-42 -2,-44 -1,-2 -1,-2 -1,-2 0,0 0,0 -33,-30 -34,-29 -100,-87 -202,-154 -102,-66 -240,-140 -399,-211 -158,-71 -336,-139 -487,-184 -150,-45 -272,-67 -395,-87 -123,-19 -247,-36 -345,-46 -99,-11 -172,-15 -208,-17 -37,-2 -37,-2 -22,35 14,38 43,112 104,268z"/>
   <path class="fil16" d="M18718 14942c0,-35 0,-75 -1,-100 -1,-38 -2,-42 -2,-44 -1,-2 -1,-2 -1,-2 0,0 0,0 -33,-30 -34,-29 -100,-87 -202,-154 -62,-40 -137,-83 -221,-126l460 456z"/>
   <path class="fil16" d="M16727 14370l35 90 536 547 1023 14 -796 -824c-120,-32 -224,-50 -327,-67 -123,-19 -247,-36 -345,-46 -99,-11 -172,-15 -208,-17 -37,-2 -37,-2 -22,35 14,38 43,112 104,268z"/>
   <path class="fil8" d="M13493 15005l-2064 -10c-11,18 -20,41 -24,66 -5,25 -5,52 -4,78 57,-9 124,-19 180,-26 89,-10 150,-11 201,-6 51,5 91,17 122,30 30,14 51,30 69,48 17,18 31,39 41,60 9,21 13,42 12,57 -1,16 -6,26 -8,31l-3 6 92 21c93,22 278,65 424,87 147,23 255,26 531,30 276,5 720,11 942,15l222 3 -52 -82 -209 -325 -52 -81 -420 -2z"/>
   <path class="fil13" d="M13642 15757c-535,0 -969,433 -969,968 0,106 17,207 48,302 27,2 55,4 84,5 -35,-95 -54,-199 -54,-307 0,-492 399,-890 891,-890 491,0 890,398 890,890 0,126 -26,245 -73,354 23,0 50,1 84,1 43,-110 67,-229 67,-355 0,-535 -433,-968 -968,-968z"/>
   <circle class="fil10" cx="21040" cy="16733" r="891"/>
   <circle class="fil11 str0" cx="21040" cy="16733" r="625"/>
   <polygon class="fil14" points="20899,17246 21194,17247 21052,16859 "/>
   <polygon class="fil14" points="20554,16899 20713,17148 20962,16818 "/>
   <polygon class="fil14" points="21536,16899 21376,17148 21127,16818 "/>
   <polygon class="fil14" points="21489,16435 21591,16712 21178,16711 "/>
   <polygon class="fil14" points="20596,16433 20494,16710 20907,16709 "/>
   <polygon class="fil14" points="21383,16311 21112,16193 21088,16605 "/>
   <polygon class="fil14" points="20689,16311 20960,16193 20984,16605 "/>
   <path class="fil13" d="M21040 15764c-535,0 -969,434 -969,969 0,76 9,149 25,219 3,15 6,30 9,42 6,21 11,37 17,52 5,14 11,27 16,37 5,9 10,16 14,22l1 -1 75 -2c-5,-15 -14,-40 -24,-68 -11,-32 -23,-69 -32,-106 -5,-22 -10,-43 -13,-61 -6,-44 -10,-88 -10,-134 0,-492 399,-890 891,-890 492,0 890,398 890,890 0,126 -26,245 -73,353 23,1 51,2 84,2 44,-110 67,-230 67,-355 0,-535 -433,-969 -968,-969z"/>
   <circle class="fil17 str1" cx="13643" cy="16708" r="80"/>
   <circle class="fil17 str1" cx="21049" cy="16724" r="80"/>
   <path class="fil18" d="M21967 15514c-6,15 16,51 41,85 24,33 52,64 85,94 34,30 74,59 111,81 37,22 71,36 109,46 38,10 79,15 99,17 21,3 21,3 21,3 0,0 0,0 -66,-54 -65,-54 -196,-162 -278,-220 -83,-58 -116,-66 -122,-52z"/>
   <ellipse class="fil3" cx="22559" cy="16687" rx="88" ry="138"/>
   <path class="fil7" d="M16706 14796c-39,-163 -113,-477 -155,-635 -16,-58 -27,-95 -35,-119 -4,0 -8,-1 -12,-2 -4,-1 -8,-3 -12,-5 4,24 12,63 25,127 34,164 106,492 142,656 36,164 36,164 36,164 0,0 0,0 9,1 9,0 27,2 36,2 9,1 9,1 9,1 0,0 0,0 -1,-7 -1,-6 -4,-19 -42,-183z"/>
   <path class="fil17 str2" d="M16637 14981c-791,-11 -1660,-15 -2121,-19 -461,-5 -514,-10 -553,-20 -38,-10 -61,-24 -80,-41 -19,-17 -33,-36 -45,-63 -11,-27 -18,-61 -17,-98 1,-37 12,-77 30,-116 18,-38 44,-74 79,-107 34,-33 77,-61 134,-89 58,-27 129,-53 240,-88 111,-35 260,-80 415,-119 155,-39 315,-72 470,-97 154,-25 302,-41 478,-55 176,-14 379,-27 537,-31 158,-4 272,1 412,14 140,12 306,31 466,57 159,26 312,59 449,96 137,37 260,79 392,132 132,52 274,116 401,186 127,70 239,145 307,196 67,51 91,77 119,110 28,33 60,73 81,108 21,34 30,63 33,77 2,15 -2,15 -361,6 -359,-10 -1074,-28 -1866,-39z"/>
   <path class="fil19" d="M15331 15594c42,0 82,10 121,28 37,19 68,46 90,81 22,35 33,77 33,128 0,50 -11,93 -33,128 -22,36 -53,63 -90,81 -39,19 -79,28 -121,28l-161 0 0 283 -160 0 0 -757 321 0zm-31 331c35,0 62,-8 81,-25 18,-15 27,-39 27,-69 0,-31 -9,-55 -27,-70 -19,-17 -46,-25 -81,-25l-130 0 0 189 130 0z"/>
   <path id="1" class="fil19" d="M16306 15976c0,-40 -8,-78 -24,-115 -18,-37 -43,-67 -77,-90 -34,-23 -77,-36 -127,-37 -51,0 -92,12 -125,35 -35,24 -60,54 -76,91 -17,35 -26,74 -26,116 0,42 9,81 26,117 16,36 41,66 76,90 33,23 74,35 125,35 50,-1 93,-14 127,-37 34,-23 59,-53 77,-90 16,-37 24,-75 24,-115zm-227 -396c109,0 203,39 280,116 77,78 116,171 116,281 0,108 -39,201 -116,279 -77,77 -171,116 -280,116 -109,0 -202,-39 -280,-116 -77,-78 -116,-171 -116,-279 0,-110 39,-203 116,-281 78,-77 171,-116 280,-116z"/>
   <polygon id="2" class="fil19" points="17033,16352 16584,16352 16584,15594 16744,15594 16744,16210 17033,16210 "/>
   <polygon id="3" class="fil19" points="17354,15594 17354,16352 17194,16352 17194,15594 "/>
   <path id="4" class="fil19" d="M17653 16016c3,34 12,64 27,92 19,36 46,64 79,83 33,20 71,29 113,29 45,0 84,-10 118,-31 34,-21 58,-49 74,-84l125 78c-22,59 -62,106 -119,139 -58,33 -123,50 -197,50 -72,0 -137,-16 -196,-48 -60,-31 -107,-76 -141,-135 -35,-59 -52,-129 -52,-211 0,-83 17,-153 52,-212 34,-59 81,-104 141,-135 59,-32 124,-47 196,-47 74,0 139,16 197,49 57,34 97,80 119,140l-125 77c-16,-34 -40,-62 -74,-84 -34,-21 -73,-31 -118,-31 -42,0 -80,10 -113,29 -33,19 -60,47 -79,84 -15,27 -24,57 -27,91 -2,21 -2,47 0,77z"/>
   <polygon id="5" class="fil19" points="18785,16352 18310,16352 18310,15594 18774,15594 18774,15736 18470,15736 18470,15898 18742,15898 18742,16038 18470,16038 18470,16211 18785,16211 "/>
  </g>
  <g>
   <path class="fil20" d="M23216 13605l179 0c1,-7 3,-13 4,-20 4,-14 7,-28 11,-39 7,-23 15,-39 28,-54 12,-15 30,-29 45,-43 16,-14 29,-28 39,-43 10,-16 17,-32 15,-45 -3,-14 -14,-24 -24,-29 -10,-5 -18,-5 -22,-5 -4,0 -4,0 -5,-55 0,-55 -2,-164 -6,-225 -3,-61 -8,-74 -15,-83 -7,-9 -17,-14 -27,-15 -11,-1 -23,1 -34,7 -10,5 -20,15 -25,43 -5,27 -6,72 -6,94 -1,23 -1,23 -14,26 -14,3 -41,10 -61,16 -19,7 -30,13 -53,18 -23,4 -58,7 -81,10 -23,3 -33,6 -39,38 -5,33 -5,94 -1,142 3,49 9,85 19,113 10,28 24,49 36,68 12,19 23,36 30,54 0,2 1,4 2,6 2,7 4,14 5,21z"/>
   <path class="fil21" d="M23216 13605l46 0c-4,-13 -8,-28 -13,-40 -4,-12 -10,-22 -16,-32 -6,-10 -14,-20 -22,-33 -9,-13 -18,-29 -27,-50 -8,-21 -16,-48 -21,-78 -5,-30 -7,-64 -8,-92 -1,-28 -1,-50 2,-65 3,-15 9,-23 19,-28 9,-5 23,-8 34,-7 12,1 21,5 30,7 9,2 18,1 27,-3 9,-5 18,-12 27,-17 9,-6 18,-9 29,-9 11,1 24,6 34,5 10,-1 17,-7 21,-14 5,-8 7,-18 8,-36 2,-19 3,-46 5,-69 2,-23 5,-42 10,-55 4,-13 10,-21 17,-26 8,-5 17,-7 28,-6 5,0 10,1 15,2 -7,-6 -15,-9 -23,-10 -11,-1 -23,1 -34,7 -10,5 -20,15 -25,43 -5,27 -6,72 -6,94 -1,23 -1,23 -14,26 -14,3 -41,10 -61,16 -19,7 -30,13 -53,18 -23,4 -58,7 -81,10 -23,3 -33,6 -39,38 -5,33 -5,94 -1,142 3,49 9,85 19,113 10,28 24,49 36,68 12,19 23,36 30,54 0,2 1,4 2,6 2,7 4,14 5,21z"/>
   <path class="fil22" d="M23161 13584l0 130c0,131 0,393 5,538 5,145 14,173 29,194 15,21 37,35 130,42 92,8 256,8 338,8l82 0 0 146 -1 592 0 136 101 0c28,0 28,0 28,13 0,6 1,15 1,30 20,3 43,7 68,12 63,11 141,23 251,33 15,1 32,3 48,4l0 -12 63 0c7,28 19,53 36,65 25,18 63,6 93,-6 30,-13 51,-25 69,-52 1,-2 3,-5 4,-7l59 0 0 17c1,0 2,0 2,0l106 0c7,0 14,3 19,7 34,-2 67,-4 98,-6 3,-8 12,-8 46,-7l34 0c33,-3 62,-6 85,-10 24,-3 42,-7 56,-9 9,-5 17,-9 24,-12 0,-56 2,-56 14,-56 7,-1 16,-1 26,0 1,-16 1,-47 1,-129l0 -534 0 -133 42 24 156 87 0 -481c-30,-16 -72,-35 -109,-51 -43,-19 -80,-32 -118,-45 -39,-13 -80,-26 -121,-36 -42,-10 -85,-18 -124,-25 -40,-8 -75,-15 -104,-21 -29,-6 -50,-10 -76,-17 -4,-2 -8,-3 -13,-4 -11,-3 -22,-7 -33,-11l0 -5 0 -49c-1,0 -2,0 -3,1 -4,3 -9,6 -13,9 -16,10 -30,15 -49,19 -20,5 -45,9 -70,11 -26,2 -52,2 -78,0 -26,-3 -52,-7 -72,-12 -19,-5 -31,-11 -41,-17 -5,-2 -9,-5 -13,-8 0,0 -1,0 -1,0l0 51c-5,2 -11,4 -16,7 -8,5 -16,10 -24,16 -30,9 -66,20 -128,33 -84,17 -214,40 -309,55 -96,15 -156,22 -196,26 -40,5 -58,6 -72,6 -13,1 -21,1 -25,1 -5,0 -6,0 -7,-93 -1,-92 -1,-278 -1,-371l0 -92 -49 -1 -10 0 -188 -1 0 0 -50 0z"/>
   <path class="fil23" d="M25077 14579l41 23 156 87 0 -47 -15 -5c-36,-13 -109,-37 -146,-50 -36,-12 -36,-12 -36,-12l0 4z"/>
   <path class="fil23" d="M23161 13584l0 130c0,131 0,393 5,538 5,145 14,173 29,194 15,21 37,35 130,42 92,8 256,8 338,8l80 0c-2,-15 -7,-19 -15,-22 -8,-4 -18,-8 -43,-10 -24,-3 -62,-5 -123,-8 -61,-3 -144,-9 -200,-13 -57,-5 -86,-10 -106,-16 -19,-6 -29,-14 -36,-24 -7,-9 -11,-22 -17,-156 -5,-134 -12,-390 -18,-522 -5,-106 -10,-132 -15,-141l-9 0z"/>
   <polygon class="fil20" points="24236,13921 24576,13921 24576,14028 24434,14156 24386,14156 24236,14017 "/>
   <path class="fil24" d="M24212 13923c-2,3 7,11 15,17 8,6 14,10 23,15 10,6 22,12 41,17 20,5 46,9 72,12 26,2 52,2 78,0 25,-2 50,-6 70,-11 19,-4 33,-9 49,-19 16,-10 34,-25 43,-32 9,-8 9,-8 9,-8 0,0 0,0 -9,2 -8,2 -24,5 -56,9 -32,4 -80,8 -124,9 -45,0 -87,-3 -117,-6 -30,-2 -48,-3 -63,-5 -16,-1 -29,-3 -31,0z"/>
   <path class="fil20" d="M23836 13191c-4,24 -9,57 -11,73 -3,16 -3,16 -3,16 0,0 0,0 -2,0 -2,0 -7,0 -13,2 -6,2 -14,5 -21,13 -8,7 -15,18 -20,35 -4,16 -5,38 -5,57 1,19 4,35 8,49 4,15 10,28 17,37 8,10 17,16 27,20 10,5 21,7 32,8 12,1 24,1 31,1 6,0 6,0 6,0 0,0 0,0 1,24l0 21c2,15 5,32 8,49 4,26 10,50 18,72 7,23 15,45 24,64 8,19 18,35 27,49 10,14 20,26 33,39 13,14 29,29 44,41 16,13 31,22 49,32 17,9 36,19 58,27 22,9 46,16 68,22 22,5 42,9 62,11 19,2 38,2 63,2 25,1 56,1 89,0 33,0 67,-3 100,-5 33,-3 64,-7 93,-13 29,-7 56,-16 81,-29 26,-13 50,-29 70,-44 19,-14 36,-27 50,-44 15,-17 29,-37 42,-58 13,-21 27,-42 39,-66 12,-23 22,-49 30,-75 9,-25 15,-50 19,-73 5,-23 8,-45 9,-56 2,-11 2,-11 2,-11 0,0 0,0 2,1 2,1 7,2 14,2 8,1 19,0 31,-3 2,-1 5,-1 7,-2 4,-2 8,-5 12,-8 10,-10 17,-25 22,-44 4,-20 6,-43 7,-65 1,-22 1,-42 -4,-58 -4,-16 -13,-28 -20,-34 -6,-7 -10,-9 -13,-10 -2,-1 -2,-1 -2,-16 -1,-15 -1,-45 -2,-59 0,-15 0,-15 -1,-36 -1,-20 -3,-60 -8,-90 -6,-30 -15,-49 -52,-65 -37,-16 -102,-29 -208,-36 -106,-7 -253,-8 -373,-5 -120,2 -215,7 -285,14 -71,8 -118,18 -151,33 -32,15 -49,36 -62,60 -13,24 -23,51 -28,72 -6,21 -8,36 -11,59z"/>
   <path class="fil21" d="M23802 13284c-5,2 -11,5 -16,11 -8,7 -15,18 -20,35 -4,16 -5,38 -5,57 1,19 4,35 8,49 4,15 10,28 17,37 8,10 17,16 27,20 10,5 21,7 32,8 12,1 24,1 31,1 6,0 6,0 6,0 0,0 0,0 1,24l0 21c2,15 5,32 8,49 4,26 10,50 18,72 7,23 15,45 24,64 8,19 18,35 27,49 10,14 20,26 33,39 13,14 29,29 44,41 16,13 31,22 49,32 17,9 36,19 58,27 22,9 46,16 68,22 22,5 42,9 62,11 19,2 38,2 63,2 25,1 56,1 89,0 33,0 67,-3 100,-5 33,-3 64,-7 93,-13 29,-7 56,-16 81,-29 26,-13 50,-29 70,-44 19,-14 36,-27 50,-44 15,-17 29,-37 42,-58 13,-21 27,-42 39,-66 12,-23 22,-49 30,-75 9,-25 15,-50 19,-73 5,-23 8,-45 9,-56 2,-11 2,-11 2,-11 0,0 0,0 2,1 2,1 7,2 14,2 8,1 19,0 31,-3 2,-1 5,-1 7,-2 4,-2 8,-5 12,-8 10,-10 17,-25 22,-44 4,-20 6,-43 7,-65 1,-22 1,-42 -4,-58 -4,-16 -13,-28 -20,-34 -2,-3 -4,-5 -6,-6 3,9 6,20 8,32 3,15 4,31 3,50 -1,18 -5,39 -10,56 -5,17 -13,30 -23,39 -10,9 -23,13 -34,15 -10,2 -18,2 -22,1 -4,0 -4,0 -4,0 0,0 0,0 -1,7 -1,6 -4,19 -8,39 -4,19 -10,45 -18,72 -9,27 -20,54 -32,78 -11,23 -24,43 -38,63 -15,21 -32,41 -50,59 -19,18 -37,34 -55,48 -19,14 -36,27 -57,39 -20,12 -43,23 -68,31 -25,9 -51,14 -80,18 -29,4 -61,5 -96,7 -34,1 -71,2 -103,2 -32,-1 -59,-2 -87,-7 -28,-4 -59,-13 -86,-22 -27,-10 -51,-21 -72,-33 -22,-13 -41,-27 -58,-42 -16,-15 -30,-30 -43,-49 -13,-19 -25,-41 -36,-64 -10,-22 -19,-44 -26,-69 -7,-25 -13,-52 -18,-80 -4,-27 -6,-56 -7,-70 -1,-14 -1,-14 -1,-14 0,0 0,0 -8,3 -8,3 -24,8 -37,10 -13,1 -23,-2 -32,-9 -9,-7 -17,-19 -23,-31 -6,-13 -11,-28 -14,-45 -3,-18 -5,-39 -4,-57 1,-18 3,-33 8,-43 3,-6 6,-10 8,-14z"/>
   <path class="fil25" d="M24328 13794c4,5 9,9 14,14 5,4 10,8 15,12 6,3 12,5 19,7 8,2 17,4 26,4 10,1 19,1 29,1 10,0 21,-1 30,-3 8,-1 13,-4 18,-7 4,-3 8,-6 12,-11 4,-4 7,-10 9,-14 1,-3 1,-3 -15,-4 -15,-1 -47,-2 -78,-5 -31,-2 -62,-5 -75,-4 -13,1 -8,5 -4,10z"/>
   <path class="fil25" d="M24575 13540c-7,1 -17,1 -26,1 -8,-1 -15,-2 -20,-5 -6,-2 -10,-6 -14,-10 -4,-4 -8,-9 -13,-16 -4,-7 -10,-17 -15,-30 -6,-13 -11,-28 -14,-44 -4,-15 -6,-32 -6,-44 -1,-12 -1,-20 -1,-29 1,-10 2,-21 6,-31 4,-11 10,-21 16,-29 6,-9 12,-16 19,-21 8,-5 16,-9 22,-11 6,-3 10,-3 17,-1 6,2 15,7 29,29 14,22 33,61 43,97 9,36 9,70 5,92 -4,23 -13,33 -19,40 -6,6 -9,8 -13,9 -4,2 -8,3 -16,3z"/>
   <path class="fil25" d="M24306 13535c10,-1 18,-4 25,-11 7,-7 13,-18 21,-33 7,-14 15,-32 20,-50 5,-18 5,-35 5,-53 0,-17 0,-34 -2,-48 -2,-13 -5,-24 -10,-33 -4,-9 -11,-18 -17,-24 -7,-6 -14,-11 -21,-13 -7,-3 -15,-4 -28,-4 -13,0 -31,1 -47,5 -15,3 -27,9 -38,30 -10,20 -19,55 -17,88 3,33 17,65 32,89 15,25 31,42 44,51 13,8 24,8 33,6z"/>
   <path class="fil25" d="M23979 13117c0,46 0,129 0,171 0,41 0,41 -9,37 -9,-3 -27,-11 -43,-20 -15,-9 -29,-21 -39,-49 -11,-28 -19,-74 -18,-113 1,-40 11,-73 26,-90 15,-16 37,-15 52,-12 15,3 23,7 27,14 4,7 4,16 4,62z"/>
   <path class="fil25" d="M24899 13250c-1,-43 -1,-121 -1,-159 0,-39 0,-39 16,-39 16,0 47,0 64,11 17,11 19,32 20,57 1,24 0,51 -4,72 -4,22 -11,37 -27,56 -16,18 -41,40 -54,47 -13,6 -14,-3 -14,-45z"/>
   <path class="fil26" d="M24076 12874c-181,2 -198,-2 -229,-22 -1,0 -2,-1 -4,-1 -6,21 -16,57 -21,85 -3,14 -4,25 -5,35l0 0 0 1c0,4 0,11 0,22 -1,16 -1,41 0,72 1,30 2,66 4,91 2,20 3,34 5,45 1,7 1,13 2,19 1,9 2,17 3,22 1,5 2,8 2,10 1,5 1,5 14,8l52 13 10 3 -1 -2 4 1 0 -32 0 -134 0 -34 35 10c35,10 104,29 182,43 78,13 164,20 240,23 76,2 143,1 206,-4 63,-4 123,-10 185,-22 62,-12 127,-29 159,-37l32 -9 0 30 0 117 0 29 16 -10 35 -23 27 -17 16 -11 -1 -23c0,-12 -1,-30 -1,-50l-1 -6c0,-17 0,-38 0,-58 0,-20 0,-40 0,-57 0,-2 0,-4 0,-6 -1,-16 -2,-49 -8,-80 -5,-27 -14,-54 -23,-76 -24,14 -57,15 -201,19 -184,4 -547,13 -734,16z"/>
   <path class="fil27" d="M24969 12786c11,2 24,19 36,43 12,23 23,54 29,86 6,31 7,64 8,80 0,16 0,16 -71,16 -72,0 -215,0 -419,0 -204,0 -469,-1 -602,-1 -132,-1 -132,-1 -133,-11 0,-11 -1,-33 5,-63 5,-31 17,-71 23,-90 6,-20 6,-20 105,-23 100,-3 299,-8 481,-10 181,-2 346,-2 432,-8 86,-7 95,-20 106,-19z"/>
   <ellipse class="fil24" cx="24679" cy="13275" rx="94" ry="31"/>
   <path class="fil28" d="M25012 12838c13,-4 20,-10 31,-21 31,-28 94,-86 124,-118 3,-4 6,-7 9,-11 11,-11 12,-15 12,-18 0,-4 -3,-8 -39,-30 -36,-21 -106,-60 -140,-80 -35,-19 -35,-19 -35,-19 0,0 0,0 -82,-25 -82,-25 -246,-74 -339,-101 -92,-27 -113,-31 -133,-30 -11,1 -22,3 -46,9 -15,3 -31,6 -51,11 -56,14 -136,36 -216,60l-205 55c-92,24 -92,24 -120,49 -21,18 -59,51 -88,77 -25,17 -36,28 -41,37 -7,9 -7,12 -3,17 2,12 12,25 38,46 34,27 95,67 125,88 18,11 25,16 34,18 31,20 48,24 229,22 187,-3 550,-12 734,-16 147,-4 179,-5 202,-20z"/>
   <path class="fil27" d="M25016 12837c10,-4 17,-11 27,-20 31,-28 94,-86 124,-118 3,-4 6,-7 9,-11 11,-11 12,-15 12,-18 0,-4 -3,-8 -39,-30 -36,-21 -106,-60 -140,-80 -35,-19 -35,-19 -35,-19l-32 -10c47,33 117,81 154,109 45,34 46,39 38,51 -8,13 -23,32 -45,59 -22,26 -49,59 -63,75 -5,6 -8,9 -10,12z"/>
   <path class="fil27" d="M23835 12538c-29,9 -35,15 -53,31 -21,18 -59,51 -88,77 -25,17 -36,28 -41,37 -7,9 -7,12 -3,17 2,12 12,25 38,46 34,27 95,67 125,88 17,11 25,16 33,18 -3,-3 -7,-7 -12,-11 -29,-24 -86,-72 -115,-100 -29,-28 -30,-35 -30,-43 1,-8 3,-16 23,-39 19,-23 56,-62 78,-84 23,-22 30,-28 43,-36l2 -1z"/>
   <ellipse class="fil24" cx="24158" cy="13276" rx="94" ry="31"/>
   <ellipse class="fil29" cx="24418" cy="12643" rx="113" ry="137"/>
   <path class="fil30" d="M24815 13266l-268 0c-12,0 -23,5 -31,13l0 0c-3,3 -4,6 -6,9 -1,4 -2,9 -3,14 -1,5 -1,11 -1,14 0,3 0,3 0,3 0,0 0,0 -5,-2 -5,-1 -16,-4 -28,-6 -13,-3 -29,-5 -44,-6 -15,-1 -30,-1 -43,0 -13,2 -23,5 -31,8 -8,3 -14,5 -17,6 -3,2 -3,2 -3,2 0,0 0,0 0,-6 0,-5 0,-16 -2,-24 -1,-2 -1,-4 -2,-5 -7,-12 -21,-20 -36,-20l-268 0c-18,0 -34,11 -40,27l-154 -35 151 139 0 0 0 102c0,23 20,42 43,42l268 0c24,0 43,-19 43,-42l0 -124 166 0 0 124c0,23 19,42 43,42l268 0c23,0 42,-19 42,-42l0 -125 188 -179 -197 86c-8,-9 -20,-15 -33,-15z"/>
   <path class="fil31" d="M24810 13266l-263 0c-12,0 -23,5 -31,13l0 0c-3,3 -4,6 -6,9 -1,4 -2,9 -3,14 -1,5 -1,11 -1,14 0,3 0,3 0,3l-1 -1 0 15c0,11 -1,27 -1,42l0 0 0 124c0,23 19,42 43,42l144 0 1 -1c12,-8 17,-20 19,-26 2,-6 2,-6 -25,-5 -27,0 -81,0 -111,-2 -30,-2 -35,-7 -38,-14 -3,-7 -4,-16 -4,-41 -1,-25 -2,-66 -1,-96 1,-29 3,-46 8,-55 4,-10 10,-12 16,-13 6,-1 13,-1 43,-1 30,0 83,-1 118,0 34,0 50,1 62,0 13,-2 22,-6 28,-14 1,-2 2,-5 3,-7z"/>
   <path class="fil31" d="M24282 13266l-255 0c-18,0 -34,11 -40,27l-154 -35 151 139 0 0 0 102c0,23 20,42 43,42l156 0c13,-8 19,-17 23,-22 5,-7 5,-7 -19,-6 -23,0 -71,1 -102,1 -30,-1 -45,-3 -55,-6 -10,-3 -15,-8 -19,-13 -3,-6 -4,-12 -4,-42 -1,-29 -1,-83 0,-113 2,-31 6,-39 11,-44 4,-6 10,-9 22,-11 12,-2 31,-2 56,-2 26,0 58,0 88,1 31,0 59,1 78,-5 10,-3 17,-8 20,-13z"/>
   <path class="fil32" d="M24319 13273c-7,-4 -15,-7 -24,-7l-67 0c0,23 1,57 -1,84 -2,33 -7,57 -15,81 -8,23 -19,47 -33,66 -13,19 -29,34 -44,44l104 0c8,-7 15,-16 23,-26 11,-16 21,-35 29,-56 8,-21 14,-45 18,-69 4,-25 7,-51 8,-72 2,-18 2,-33 2,-45z"/>
   <path class="fil32" d="M24815 13266l-67 0c0,16 0,36 0,55 -1,28 -2,54 -7,78 -4,25 -13,49 -23,70 -10,21 -21,39 -33,53 -7,8 -13,14 -18,19l86 0c1,-1 3,-3 5,-4 10,-9 20,-20 30,-34 9,-15 19,-33 26,-53 8,-21 13,-44 17,-68 3,-24 5,-49 6,-72 0,-14 0,-27 -1,-38 -6,-4 -13,-6 -21,-6z"/>
   <path class="fil33" d="M24420 13743c-67,0 -128,-11 -173,-29 6,55 81,98 173,98 92,0 167,-43 173,-98 -45,18 -106,29 -173,29z"/>
   <path class="fil34" d="M24356 13621c-13,-1 -31,-1 -41,-4 -10,-4 -12,-10 -12,-20 1,-10 4,-23 11,-32 6,-9 16,-14 29,-18 12,-4 28,-6 36,-7 8,-1 8,-1 8,-1 0,0 0,0 0,13 0,14 0,41 0,55 0,14 0,14 0,14 0,0 0,0 -4,0 -5,0 -14,0 -27,0z"/>
   <line class="fil17" x1="24098" y1="14476" x2="24098" y2= "14864" />
   <line class="fil17" x1="23923" y1="14603" x2="24278" y2= "14603" />
   <rect class="fil35" x="25274" y="13881" width="844" height="1152"/>
   <rect class="fil9" x="25351" y="13957" width="691" height="1000"/>
   <path class="fil20" d="M25944 13776c-26,-7 -54,-15 -80,-20 -27,-6 -52,-8 -71,-8 -18,0 -29,2 -37,8 -8,5 -12,13 -17,19 -6,7 -11,11 -23,16 -11,5 -27,12 -41,20 -13,8 -24,19 -30,30 -7,10 -8,21 -1,30 7,9 23,15 34,24 12,8 19,18 29,28 10,10 23,21 43,30 21,8 48,13 76,15 29,1 58,-1 82,-10 25,-10 44,-27 65,-39 21,-13 44,-21 67,-29 22,-7 44,-13 52,-21 9,-9 3,-20 -12,-32 -15,-13 -39,-27 -63,-37 -24,-11 -47,-16 -73,-24z"/>
   <path class="fil21" d="M25756 13955c19,7 44,11 70,13 29,1 58,-1 82,-10 25,-10 44,-27 65,-39 21,-13 44,-21 67,-29 9,-3 19,-6 28,-9 -12,1 -25,4 -41,8 -22,7 -51,17 -78,28 -27,10 -52,20 -77,26 -25,7 -51,9 -74,10 -15,1 -28,1 -42,2z"/>
   <path class="fil21" d="M25944 13776c-26,-7 -54,-15 -80,-20 -27,-6 -52,-8 -71,-8 -18,0 -29,2 -37,8 -8,5 -12,13 -17,19 -6,7 -11,11 -23,16 -11,5 -27,12 -41,20 -13,8 -24,19 -30,30 -7,10 -8,21 -1,30 7,9 23,15 34,24 5,3 9,7 13,10l0 0c0,-12 5,-26 12,-39 7,-12 16,-21 26,-28 11,-6 22,-10 35,-15 13,-4 28,-10 50,-14 21,-4 50,-6 81,-6 32,0 65,2 96,7 31,5 59,14 96,37l5 3c-2,-4 -7,-9 -12,-13 -15,-13 -39,-27 -63,-37 -24,-11 -47,-16 -73,-24z"/>
   <rect class="fil9" x="24290" y="15500" width="227" height="109"/>
   <path class="fil17 str3" d="M23872 15625c-1,14 -2,27 -3,38 -4,49 -12,62 -29,70 -17,8 -44,11 -66,8 -22,-3 -40,-12 -51,-25 -11,-13 -17,-31 -19,-89 -2,-59 -2,-158 -1,-207 0,-50 0,-50 28,-50 29,0 85,0 114,0 28,0 28,0 28,13 1,11 1,31 1,74 38,0 88,1 116,2 38,2 39,3 41,29 3,27 7,78 6,106 -2,29 -8,34 -43,35 -32,1 -87,-1 -122,-4z"/>
   <rect class="fil17 str3" x="24103" y="15467" width="165" height="173" rx="30" ry="26"/>
   <path class="fil36" d="M23995 17375c149,0 269,71 269,158l22 0 0 75 -588 0 0 -75 27 0c0,-87 121,-158 270,-158z"/>
   <path class="fil36" d="M24751 17375c149,0 269,71 269,158l22 0 0 75 -588 0 0 -75 27 0c0,-87 121,-158 270,-158z"/>
   <rect class="fil23" x="24364" y="14160" width="85.9341" height="1310.51"/>
   <path class="fil23" d="M24208 14344c-10,-18 -30,-55 -43,-90 -13,-35 -19,-68 -22,-94 -2,-26 -2,-45 4,-64 2,-10 6,-19 10,-28 -7,12 -14,26 -19,41 -6,17 -9,36 -10,55 -2,19 -2,38 2,62 5,24 13,54 24,78 10,25 22,45 33,60 11,15 21,26 26,31l4 6 30 -35 117 -139 0 -41 -112 136 -34 41 -10 -19z"/>
   <path class="fil23" d="M24450 14175l0 44c4,5 8,11 14,18l104 129 26 32 5 -4c6,-4 17,-12 28,-27 12,-15 23,-37 33,-61 10,-25 18,-52 23,-80 6,-29 8,-58 7,-85 -2,-27 -7,-50 -21,-74 -11,-19 -27,-38 -41,-53 -2,0 -4,-1 -6,-1l-13 -4c14,8 28,19 39,33 13,16 23,34 28,54 6,19 6,38 4,64 -3,26 -9,59 -22,94 -13,35 -33,72 -43,90l-10 19 -34 -41 -121 -147z"/>
   <path class="fil23" d="M23951 14476c-5,1 -11,4 -16,9 -5,4 -10,11 -13,18 -4,8 -6,16 -7,70 -1,54 -1,152 0,205 1,52 2,59 5,65 2,6 6,12 12,17 5,4 13,7 28,8 15,2 36,2 82,2 47,0 117,0 156,-1 39,0 45,-1 53,-3 7,-2 16,-7 23,-13 6,-7 10,-16 13,-24 2,-8 2,-14 1,-67 -1,-53 -2,-153 -4,-205 -1,-53 -3,-59 -7,-64 -4,-5 -10,-9 -16,-12 -6,-3 -13,-5 -16,-5 -3,-1 -3,-1 -3,-1 0,0 0,0 2,1 2,1 6,3 9,6 4,4 8,8 11,14 3,7 5,15 7,66 1,51 1,145 0,196 -1,51 -3,59 -5,66 -2,7 -5,13 -12,17 -6,4 -15,6 -63,6 -49,1 -137,0 -184,-2 -48,-1 -54,-3 -59,-6 -6,-4 -9,-10 -11,-60 -2,-51 -1,-146 0,-199 2,-54 3,-64 5,-72 2,-8 5,-14 10,-19 4,-6 10,-11 10,-14 0,-2 -5,-1 -11,1z"/>
   <rect class="fil23" x="23928" y="14591" width="350.244" height="23.4441"/>
   <rect class="fil23" x="24088" y="14475" width="19.523" height="382.806"/>
   <line class="fil17" x1="24757" y1="14487" x2="24757" y2= "14874" />
   <line class="fil17" x1="24582" y1="14613" x2="24936" y2= "14613" />
   <path class="fil29" d="M24645 14616c58,-3 171,-2 230,-4 58,-1 61,-3 62,-7 2,-4 2,-9 1,-18 -1,-9 -2,-23 -3,-29 0,-7 0,-7 -59,-6 -58,0 -175,1 -233,2 -58,0 -58,0 -59,6 -1,7 -2,19 -2,32 -1,12 0,25 1,28 2,4 4,-2 62,-4z"/>
   <path class="fil23" d="M24610 14486c-5,2 -11,4 -16,9 -5,5 -10,11 -14,19 -3,7 -5,16 -6,69 -1,54 -1,153 -1,205 1,53 3,59 6,65 2,7 6,13 11,17 6,4 14,7 29,9 14,1 36,2 82,2 47,0 117,-1 156,-1 39,-1 45,-1 53,-4 7,-2 16,-6 22,-13 7,-7 11,-16 13,-24 3,-7 3,-14 2,-67 -1,-53 -2,-152 -4,-205 -1,-53 -4,-59 -8,-64 -3,-5 -9,-9 -15,-12 -6,-2 -13,-4 -16,-5 -3,-1 -3,-1 -3,-1 0,0 0,0 2,1 2,1 6,4 9,7 4,3 7,7 10,14 3,6 6,14 7,65 2,51 2,145 1,196 -1,51 -3,59 -5,66 -3,8 -6,14 -12,17 -6,4 -15,6 -63,7 -49,0 -137,-1 -185,-2 -47,-1 -53,-3 -59,-7 -5,-4 -9,-9 -10,-60 -2,-50 -1,-146 0,-199 1,-53 3,-64 5,-72 2,-8 5,-13 9,-19 5,-5 10,-11 11,-13 0,-3 -5,-2 -11,0z"/>
   <rect class="fil23" x="24587" y="14601" width="350.244" height="23.4441"/>
   <rect class="fil23" x="24747" y="14602" width="19.523" height="265.751"/>
   <path class="fil29" d="M24065 14055c-7,-1 -16,-1 -32,0 -16,1 -37,3 -53,5 -16,3 -25,7 -30,11 -4,4 -4,9 -1,12 3,3 8,5 24,4 15,-1 41,-6 61,-11 21,-6 35,-12 39,-16 5,-3 0,-5 -8,-5z"/>
   <path class="fil29" d="M23904 14076c-9,-2 -20,-1 -31,0 -11,1 -22,2 -32,4 -10,2 -20,6 -27,10 -7,4 -12,9 -12,13 -1,4 1,7 6,10 4,2 11,4 22,4 11,0 28,-2 41,-4 14,-2 26,-5 35,-8 8,-4 13,-7 16,-11 3,-3 3,-7 0,-11 -3,-3 -9,-6 -18,-7z"/>
   <path class="fil29" d="M24765 14046c8,0 17,0 33,1 16,1 37,4 53,7 15,3 25,7 29,12 5,4 4,8 1,11 -3,4 -8,6 -24,4 -15,-2 -41,-7 -61,-13 -20,-6 -34,-13 -39,-17 -4,-3 1,-5 8,-5z"/>
   <path class="fil29" d="M24927 14071c8,-1 20,1 31,2 10,1 21,2 31,5 10,2 20,6 27,10 7,4 11,9 12,13 1,5 -2,8 -7,10 -4,2 -11,4 -22,3 -11,0 -27,-2 -41,-4 -14,-3 -26,-6 -34,-10 -8,-3 -13,-7 -16,-11 -3,-3 -3,-7 0,-11 3,-3 10,-6 19,-7z"/>
   <circle class="fil23" cx="24449" cy="15300" r="36"/>
   <circle class="fil23" cx="24451" cy="15126" r="36"/>
   <circle class="fil23" cx="24453" cy="14953" r="36"/>
   <circle class="fil23" cx="24455" cy="14779" r="36"/>
   <circle class="fil23" cx="24457" cy="14605" r="36"/>
   <circle class="fil23" cx="24459" cy="14431" r="36"/>
   <rect class="fil37" x="25484" y="14023" width="414.045" height="36.4594"/>
   <circle class="fil38" cx="25486" cy="14827" r="74"/>
   <path class="fil17 str4" d="M25794 14838c0,-1 33,-33 7,-1 -59,72 36,-9 59,-21 -84,71 -43,43 37,4 56,-27 -28,5 -52,21 -135,90 79,-5 74,-30 -40,2 -126,100 -21,21 11,-9 53,-72 13,-40 -1,0 -128,108 -78,75 13,-9 74,-40 76,-43 -47,7 -119,106 -7,24 25,-18 -36,20 15,-4 29,-13 -26,-3 -25,8 39,0 55,-34 20,-11 -12,7 11,-1 -5,5 -18,6 54,6 76,-3 2,-1 3,0 5,0"/>
   <path class="fil39" d="M23874 15410c0,-13 -1,-21 -1,-27 0,-13 0,-13 -28,-13l-101 0 -13 0c-28,0 -28,0 -28,50 -1,49 -1,148 1,207 2,58 8,76 19,89 4,5 9,9 15,13 0,58 0,132 0,227 2,346 8,969 10,1281l2 230c43,-54 136,-92 245,-92 110,0 204,39 246,94 1,-33 3,-80 5,-146 6,-226 19,-678 29,-918 10,-240 16,-269 27,-292 10,-24 24,-42 46,-51 23,-9 52,-9 77,-1 25,9 45,26 56,54 11,29 13,69 15,312 2,242 3,686 4,908l1 139c39,-58 136,-99 250,-99 109,0 202,38 245,93l7 -214 39 -1226 3 -100c4,2 9,3 15,3 7,0 17,-3 25,-8 8,-5 14,-11 20,-19 5,-8 9,-16 12,-33 2,-16 4,-41 5,-116 0,-76 0,-202 -1,-270 -1,-68 -2,-76 -5,-84 -2,-8 -6,-15 -12,-20 -5,-4 -13,-7 -21,-9 -8,-2 -17,-4 -24,-4 -7,1 -12,3 -17,7 -1,0 -2,1 -3,2l-1 1c-5,6 -9,15 -11,24 -2,9 -3,18 -3,22 0,5 0,5 -7,7 -7,1 -22,5 -62,11 -40,5 -106,11 -140,15 -20,3 -29,5 -33,8 -27,2 -58,5 -91,6 -35,0 -73,-2 -105,-3 -33,0 -59,1 -106,0 -46,-1 -112,-3 -158,-5 -45,-2 -71,-3 -107,-6 -37,-4 -84,-8 -139,-15 -54,-8 -115,-18 -152,-24 -24,-4 -38,-6 -50,-8zm1157 488l0 0 0 21 0 -21z"/>
   <path class="fil36" d="M24968 17440c11,9 20,18 28,28l7 -214 39 -1226 3 -100c4,2 9,3 15,3 7,0 17,-3 25,-8 4,-2 7,-5 10,-8 0,-33 -1,-64 -3,-91 -9,-187 -38,-228 -54,-234 -16,-7 -19,21 -29,350 -10,329 -27,959 -35,1274 -3,108 -5,179 -6,226zm63 -1542l0 0 0 21 0 -21z"/>
   <path class="fil36" d="M24221 17448c8,7 15,14 20,21 1,-33 3,-80 5,-146 6,-226 19,-678 29,-918 10,-240 16,-269 27,-292 10,-24 24,-42 46,-51 23,-9 52,-9 77,-1 25,9 45,26 56,54 11,29 13,69 15,312 2,242 3,686 4,908l1 139c6,-9 13,-17 22,-26l1 -137c2,-210 4,-630 4,-863 0,-234 -2,-281 -9,-317 -7,-37 -19,-63 -36,-82 -17,-20 -41,-33 -67,-39 -26,-6 -55,-5 -78,4 -24,10 -43,28 -57,56 -13,28 -21,65 -27,133 -5,68 -9,166 -12,318 -4,151 -7,357 -11,527 -3,170 -7,303 -9,378l-1 22z"/>
   <path class="fil36" d="M23717 15708c2,3 4,5 6,8 4,5 9,9 15,13 0,58 0,132 0,227 2,346 8,969 10,1281l2 230c6,-7 13,-14 20,-21l-1 -255c-2,-297 -6,-891 -8,-1198 -3,-307 -5,-328 -18,-324 -6,2 -15,10 -26,39z"/>
   <path class="fil31" d="M23881 15644c-3,8 -4,20 -6,34 -3,15 -9,32 -16,44 -7,13 -16,20 -26,25 -9,5 -20,7 -32,6 -12,0 -25,-2 -38,-5 -12,-2 -23,-5 -34,-10 -10,-6 -20,-13 -28,-53 -9,-39 -17,-111 -18,-170 -1,-59 4,-104 7,-127 3,-24 5,-25 36,-27 31,-1 92,-2 125,-1 32,0 35,3 36,17 0,13 -2,39 -4,52 -1,13 -1,13 19,13 20,1 61,3 86,6 26,3 37,8 43,16 6,8 8,20 10,44 1,23 2,59 1,80 -1,22 -4,30 -8,36 -3,6 -9,10 -32,11 -24,0 -65,-3 -89,-3 -24,1 -29,4 -32,12z"/>
   <path class="fil31" d="M24777 15474c0,-12 3,-14 37,-18 34,-4 100,-10 140,-16 40,-5 54,-9 61,-11 8,-2 8,-2 8,-6 0,-4 0,-13 3,-22 2,-9 6,-18 11,-24 6,-6 13,-9 20,-10 8,0 17,1 25,3 8,3 15,5 21,10 6,5 9,12 12,19 3,8 4,17 5,85 1,67 1,194 0,270 0,75 -2,99 -5,116 -3,16 -6,25 -12,33 -5,7 -11,14 -19,19 -8,4 -18,7 -26,8 -8,0 -14,-3 -19,-6 -5,-3 -9,-7 -10,-48 -2,-42 -2,-120 -1,-159 0,-40 0,-40 -9,-39 -9,0 -26,1 -50,0 -24,-1 -54,-4 -78,-8 -25,-3 -43,-7 -58,-12 -15,-4 -27,-9 -35,-16 -9,-6 -15,-14 -18,-33 -3,-19 -3,-48 -3,-74 -1,-26 -1,-49 0,-61z"/>
   <path class="fil40" d="M25097 15376c2,1 4,3 6,4 6,5 9,12 12,19 3,8 4,17 5,85 1,67 1,194 0,270 0,75 -2,99 -5,116 -3,16 -6,25 -12,33 -3,5 -7,10 -12,13 0,-14 0,-34 0,-61 1,-98 1,-293 4,-397 0,-38 1,-64 2,-82z"/>
   <path class="fil31" d="M24241 15640l0 -173c-1,0 -1,0 -2,0l-106 0c-16,0 -30,13 -30,30l0 113c0,17 14,30 30,30l106 0 2 0z"/>
   <path class="fil31" d="M24565 15465l0 175c1,0 2,0 2,0l106 0c17,0 30,-14 30,-32l0 -121c0,-40 -82,-22 -115,-22 -8,0 -15,0 -23,0z"/>
   <rect class="fil1" x="24241" y="15450" width="324" height="211"/>
   <rect class="fil31" x="24294" y="15497" width="224" height="115"/>
   <path class="fil41" d="M24819 17402c17,4 34,8 51,15 18,8 36,18 52,28 16,10 28,21 37,31 9,10 14,18 18,28 4,9 7,19 8,24 1,5 1,5 -19,5 -20,0 -60,0 -80,0 -19,0 -19,0 -19,0 0,0 0,0 -1,-6 0,-7 0,-20 -3,-35 -3,-15 -7,-33 -15,-46 -7,-13 -17,-21 -26,-29 -9,-8 -18,-14 -27,-18 -9,-5 -20,-7 -25,-8 -5,-1 -5,-1 4,1 9,2 27,6 45,10z"/>
   <path class="fil41" d="M24061 17402c17,4 34,8 51,15 18,8 37,18 52,28 16,10 28,21 37,31 9,10 14,18 18,28 4,9 7,19 8,24 2,5 2,5 -18,5 -20,0 -60,0 -80,0 -20,0 -20,0 -20,0 0,0 0,0 -1,-6 0,-7 0,-20 -3,-35 -2,-15 -7,-33 -15,-46 -7,-13 -17,-21 -26,-29 -9,-8 -17,-14 -27,-18 -9,-5 -19,-7 -25,-8 -5,-1 -5,-1 4,1 9,2 28,6 45,10z"/>
   <path class="fil17 str5" d="M25442 14172l515 0m-515 245l515 0m-515 -31l515 0m-515 -30l515 0m-515 -31l515 0m-515 -30l515 0m-515 -31l515 0m-515 -30l515 0m-515 -31l515 0"/>
  </g>
  <g>
   <path class="fil42" d="M37916 16930c-22,43 -54,111 -80,155 -27,43 -48,62 -94,73 -46,12 -117,18 -1024,16 -906,-1 -2648,-9 -3526,-14 -879,-4 -893,-6 -904,-23 -10,-18 -17,-52 -27,-111 -11,-59 -25,-142 -31,-184 -6,-42 -4,-44 -310,-44 -307,0 -923,2 -1256,18 -334,17 -385,48 -410,90 -25,41 -24,93 -26,138 -2,45 -7,83 -20,105 -12,21 -32,27 -116,11 -84,-15 -231,-50 -327,-75 -97,-24 -142,-37 -178,-45 -37,-8 -66,-11 -91,-17 -24,-7 -44,-17 -58,-37 -14,-20 -22,-49 -16,-124 5,-74 23,-194 35,-288 11,-95 15,-163 23,-271 9,-107 22,-253 33,-348 12,-95 21,-139 33,-174 13,-35 29,-61 74,-103 46,-43 121,-101 224,-157 104,-57 236,-112 385,-163 149,-51 315,-97 470,-135 155,-37 298,-66 490,-95 192,-28 432,-56 745,-89 313,-33 700,-71 893,-90 193,-19 193,-19 193,-19 0,0 0,0 42,-35 43,-35 127,-105 264,-202 137,-97 327,-221 503,-323 175,-103 336,-185 472,-244 137,-60 249,-97 388,-133 139,-36 305,-72 495,-98 190,-26 404,-44 623,-55 220,-11 445,-16 653,-10 209,6 400,23 575,42 176,20 335,43 531,83 196,40 428,98 544,127 116,29 116,29 121,34 4,4 14,14 24,24 11,9 22,20 254,106 231,87 682,249 928,335 246,85 287,95 340,100 53,5 117,6 174,14 58,8 108,23 220,40 112,17 286,37 442,48 155,11 292,14 370,19 77,5 94,13 106,28 12,16 18,38 21,92 3,54 1,140 1,250 0,110 2,245 2,312 1,67 1,67 1,67 0,0 0,0 15,9 15,10 45,28 76,56 31,29 63,67 86,114 23,48 38,105 34,285 -3,180 -24,483 -38,638 -14,155 -20,161 -53,169 -32,8 -90,17 -338,19 -248,1 -685,-6 -1157,-5 -473,1 -979,9 -1280,13 -302,4 -398,4 -452,12 -55,9 -68,26 -91,69z"/>
   <polygon class="fil43" points="32967,16642 32959,16911 36005,16855 36084,16594 "/>
   <path class="fil44" d="M30266 16890c-5,5 -9,10 -12,16 -25,41 -24,93 -26,138 -2,45 -7,83 -20,105 -12,21 -32,27 -116,11 -84,-15 -231,-50 -327,-75 -97,-24 -142,-37 -178,-45 -37,-8 -66,-11 -91,-17 -24,-7 -44,-17 -58,-37 -14,-20 -22,-49 -16,-124 2,-35 8,-81 14,-129 67,1 141,6 220,11 170,11 361,26 466,32 106,6 125,3 136,50 4,17 6,39 8,64z"/>
   <path class="fil44" d="M41113 15413l0 71c1,67 1,67 1,67 0,0 0,0 15,9 15,10 45,28 76,56 31,29 63,67 86,114 23,48 38,105 34,285 -3,180 -24,483 -38,638 -14,155 -20,161 -53,169 -32,8 -90,17 -338,19 -226,1 -610,-4 -1034,-5 0,-17 1,-36 1,-57 2,-66 4,-149 -17,-243 -20,-93 -62,-197 -107,-286 -45,-88 -93,-161 -145,-225 -53,-65 -111,-122 -140,-150 -29,-28 -29,-28 69,-41 98,-12 295,-37 462,-69 166,-32 304,-70 398,-107 94,-37 146,-72 181,-109 35,-36 53,-73 62,-106 8,-34 7,-64 22,-78 15,-14 47,-11 138,-2 85,10 222,25 327,50z"/>
   <path class="fil4" d="M41317 16231c-2,37 -4,76 -7,113 -25,4 -51,5 -75,6 -45,2 -83,3 -114,-3 -31,-6 -55,-19 -70,-38 -16,-18 -24,-42 -28,-54 -4,-12 -4,-12 61,-14 56,-2 158,-6 233,-10z"/>
   <path class="fil45" d="M37916 16930c-22,43 -54,111 -80,155 -27,43 -48,62 -94,73 -46,12 -117,18 -1024,16 -906,-1 -2648,-9 -3526,-14 -879,-4 -893,-6 -904,-23 -10,-18 -17,-52 -27,-111l-1 -2 0 -1 0 -1 0 -1 0 -1 -1 -1 0 -1 0 -1 0 -2 0 0 -1 -1 0 -2 0 0 0 -2 0 -1 -1 -1 0 -2 0 0 0 -2 0 -1 0 0 -1 -2 0 -1 0 -1 0 -2 -1 0 0 -2 0 -1 0 -1 -1 -2 0 0 0 -2 0 -1 0 -1 -1 -1 0 -1 0 -1 0 -2 0 -1 -1 -1 0 -2 0 0 0 -2 0 -1 -1 -1 0 -2 0 0 0 -2 0 -1 -1 -1 0 -2 0 0 0 -2 -1 -1 0 -1 0 -2 0 -1 0 -1 -1 -2 0 0 0 -2 0 -1 0 -1 -1 -2 0 0 0 -2 0 -1 0 -1 -1 -2 0 0 0 -2 0 -2 0 0 -1 -2 0 -1 0 -1 0 -2 0 0 -1 -2 0 -1 0 -1 0 -2 -1 0 0 -1 0 -2 0 0 0 -2 -1 -1 0 -1 0 -2 0 -1 0 -1 -1 -2 0 0 0 -2 0 -1 0 -1 -1 -2 0 0 0 -2 0 -1 0 -1 -1 -1c89,-7 315,-13 890,-28 947,-26 2840,-76 3793,-86 954,-9 967,21 980,68 5,21 10,44 16,69l-1 1 -1 2z"/>
   <path class="fil46" d="M37821 17106c-20,29 -41,43 -79,52 -46,12 -117,18 -1024,16 -906,-1 -2648,-9 -3526,-14 -879,-4 -893,-6 -904,-23 -9,-17 -16,-47 -25,-97 79,-5 248,-6 619,-10 683,-7 2049,-20 2954,-32 904,-12 1347,-22 1603,-8 256,15 325,54 365,97 7,6 12,13 17,19z"/>
   <path class="fil42 str3" d="M30277 16880c-15,11 -25,26 -37,50 -7,13 -14,28 -22,43 -13,-48 -22,-97 -28,-147 -4,-39 -6,-78 -6,-118 0,-13 0,-27 1,-41 2,-43 5,-74 9,-103 7,-48 19,-90 32,-125 13,-36 28,-66 34,-51 5,15 1,74 4,156 3,81 12,185 13,278 0,20 0,39 0,58z"/>
   <path class="fil47" d="M29462 17009c-9,-6 -17,-14 -24,-23 -14,-20 -22,-49 -16,-124 5,-74 23,-194 35,-288l0 -2c20,-17 37,-29 56,-40 41,-26 90,-53 127,-66 37,-14 62,-16 86,-12 23,3 46,11 64,30 17,19 31,50 36,84 6,35 5,75 -2,111 -6,35 -18,67 -41,106 -23,39 -57,85 -90,118 -33,34 -65,55 -95,72 -29,15 -56,27 -136,34z"/>
   <path class="fil48" d="M29670 15635c44,-35 103,-75 174,-114 104,-57 236,-112 385,-163 149,-51 315,-97 470,-135 155,-37 298,-66 490,-95 192,-28 432,-56 745,-89 313,-33 700,-71 893,-90 193,-19 193,-19 193,-19 0,0 0,0 42,-35 43,-35 127,-105 264,-202 137,-97 327,-221 503,-323 175,-103 336,-185 472,-244 137,-60 249,-97 388,-133 139,-36 305,-72 495,-98 190,-26 404,-44 623,-55 220,-11 445,-16 653,-10 209,6 400,23 575,42 176,20 335,43 531,83 196,40 428,98 544,127 116,29 116,29 121,34 4,4 14,14 24,24 11,9 22,20 254,106 231,87 682,249 928,335 246,85 287,95 340,100 53,5 117,6 174,14 58,8 108,23 220,40 112,17 286,37 442,48 155,11 292,14 370,19 77,5 94,13 106,28 12,16 18,38 21,92 3,54 1,140 1,250 0,39 0,81 1,122 -119,-28 -245,-58 -360,-80 -177,-35 -330,-51 -936,-37 -607,13 -1667,55 -3547,142 -1881,87 -4581,219 -5932,285 -275,13 -494,24 -667,31z"/>
   <path class="fil49" d="M33045 14910l17 -15c43,-35 127,-105 264,-202 137,-97 327,-221 503,-323 175,-103 336,-185 472,-244 85,-37 160,-65 238,-90 13,8 20,18 21,32 0,16 -8,35 -59,72 -51,36 -145,90 -276,161 -132,71 -300,159 -457,249 -156,89 -301,180 -398,241 -97,60 -147,90 -188,105 -41,16 -72,18 -110,16 -9,-1 -18,-1 -27,-2z"/>
   <path class="fil50" d="M29721 15934c-15,24 -33,46 -51,69 -19,23 -38,46 -54,61 -16,16 -29,24 -40,26 -12,3 -21,0 -27,-9 -6,-10 -10,-27 -7,-65 2,-38 10,-97 16,-136 7,-38 12,-57 20,-71 9,-15 20,-26 36,-34 16,-8 37,-12 57,-13 21,-1 40,1 54,5 13,4 22,9 27,25 5,16 7,42 2,68 -5,25 -18,50 -33,74z"/>
   <path class="fil51" d="M39038 15236c-701,41 -1825,107 -3178,165 -1352,58 -2935,108 -3726,133 -791,25 -791,25 -791,25 0,0 0,0 374,-21 375,-21 1124,-63 2030,-117 906,-54 1968,-120 2876,-168 907,-47 1658,-76 2245,-88 587,-12 1009,-7 1220,-4 211,2 211,2 211,2 0,0 0,0 -140,8 -140,8 -419,24 -1121,65z"/>
   <path class="fil52" d="M30012 15976c113,-77 287,-203 374,-267 87,-63 87,-63 87,-63 0,0 0,0 -35,-2 -34,-2 -103,-6 -178,-3 -76,2 -159,12 -238,29 -78,18 -152,45 -207,69 -54,24 -90,47 -115,71 -25,25 -40,51 -49,87 -9,37 -13,83 -11,118 2,35 10,58 37,72 27,14 73,18 122,6 49,-12 100,-39 213,-117z"/>
   <path class="fil47" d="M37672 14904c-367,14 -796,30 -1260,50 -465,20 -966,43 -1519,70 -552,27 -1156,58 -1453,66 -297,9 -286,-4 -235,-41 50,-36 141,-95 187,-125 45,-30 45,-30 48,-39 3,-9 8,-27 21,-49 13,-21 34,-44 61,-64 26,-20 58,-36 86,-46 27,-11 51,-16 75,-21 25,-4 50,-8 62,-10 13,-2 13,-2 13,-2 0,0 0,0 69,-45 69,-45 208,-135 342,-214 133,-80 263,-150 376,-205 113,-56 211,-97 309,-130 99,-34 197,-60 317,-78 119,-18 259,-27 404,-33 145,-6 295,-9 457,-7 161,2 334,9 469,16 135,6 233,13 367,29 135,17 306,43 463,71 156,27 297,56 455,97 158,40 334,91 485,140 152,49 280,95 375,133 95,38 157,69 200,97 43,27 66,52 78,77 12,24 12,48 4,74 -8,27 -24,56 -44,79 -20,23 -46,40 -86,50 -40,11 -95,15 -275,23 -180,9 -485,22 -851,37z"/>
   <path class="fil53 str3" d="M36853 14384c-33,123 -81,297 -105,384 -23,87 -23,87 -23,87 0,0 0,0 290,-9 291,-8 873,-25 1195,-41 321,-16 383,-31 421,-48 37,-17 51,-37 48,-62 -3,-26 -21,-58 -80,-95 -59,-38 -157,-81 -299,-134 -141,-53 -324,-115 -561,-175 -236,-60 -526,-118 -671,-147 -145,-29 -145,-29 -145,-29 0,0 0,0 -10,36 -9,37 -27,109 -60,233z"/>
   <path class="fil53 str3" d="M36706 14311c-35,127 -93,336 -122,440 -29,104 -29,104 -29,104 0,0 0,0 0,0 0,0 0,0 -179,10 -179,10 -536,29 -983,54 -447,24 -984,53 -1252,68 -268,14 -268,14 -268,14 0,0 0,0 4,-31 5,-32 14,-95 15,-140 2,-45 -5,-71 -19,-88 -14,-16 -35,-23 -45,-26 -11,-3 -11,-3 -11,-3 0,0 0,0 54,-34 53,-34 160,-101 272,-166 112,-64 229,-126 344,-182 115,-56 227,-106 341,-145 114,-38 230,-64 361,-85 130,-20 275,-35 443,-43 168,-7 360,-9 552,-2 193,6 386,21 483,28 97,7 97,7 97,7 0,0 0,0 -6,24 -6,23 -17,69 -52,196z"/>
   <path class="fil49" d="M39553 14575c230,83 241,91 245,97 2,4 2,7 1,11 -8,-1 -15,-1 -22,-2 -53,-5 -94,-15 -340,-100 -246,-86 -697,-248 -928,-335 -232,-86 -243,-97 -254,-106 -2,-3 -5,-5 -7,-7 11,0 25,2 51,8 31,6 78,19 326,105 248,86 698,246 928,329z"/>
   <path class="fil4" d="M41111 15130l0 42c0,110 2,245 2,312 1,67 1,67 1,67l1 1c-21,9 -47,11 -75,12 -57,2 -124,0 -192,-14 -68,-13 -136,-40 -210,-90 -73,-50 -151,-124 -193,-172 -43,-48 -51,-70 -45,-93 7,-22 28,-45 70,-68 41,-24 103,-49 167,-65 64,-16 130,-23 189,-23 60,0 112,7 154,18 41,12 72,27 100,46 11,7 21,15 31,27z"/>
   <path class="fil47" d="M38895 15674c571,0 1034,463 1034,1034 0,43 -3,86 -8,128 -42,0 -85,0 -127,0 5,-42 9,-85 9,-128 0,-501 -407,-908 -908,-908 -467,0 -852,352 -902,806 17,57 31,144 33,192 3,56 -11,59 -24,62l-2 1 0 1c-7,2 -13,3 -19,5 -5,1 -9,3 -13,5 -10,5 -18,11 -26,20 -7,8 -15,20 -25,39 -10,19 -24,47 -40,78 -17,31 -37,66 -47,83 -10,18 -10,18 -10,18 0,0 0,0 3,-38 3,-38 9,-113 16,-186 7,-73 13,-144 18,-191 2,-16 3,-30 5,-41 28,-546 479,-980 1033,-980z"/>
   <g id="_2997297790320">
    <path class="fil54 str3" d="M38895 15800c-502,0 -908,407 -908,908 0,501 406,908 908,908 501,0 908,-407 908,-908 0,-501 -407,-908 -908,-908zm603 1020c-61,7 -176,10 -357,15 -180,5 -427,13 -588,17 -161,4 -236,4 -273,4 -38,0 -38,0 -38,0 0,0 0,0 5,11 4,12 13,34 32,74 18,39 46,96 78,143 33,46 70,83 114,118 44,34 95,66 140,89 45,23 83,37 133,46 49,10 110,14 159,15 48,1 85,0 135,-11 51,-10 114,-30 173,-59 58,-29 112,-67 162,-125 49,-57 94,-133 127,-198 33,-65 54,-117 61,-138 6,-20 -2,-8 -63,-1z"/>
    <circle class="fil55" cx="38886" cy="16699" r="475"/>
    <circle class="fil18 str3" cx="38895" cy="16708" r="107"/>
    <path class="fil56" d="M38895 16010c-386,0 -699,312 -699,698 0,386 313,698 699,698 385,0 698,-312 698,-698 0,-386 -313,-698 -698,-698zm0 492c-14,0 -27,2 -39,4l-16 -427c18,-1 36,-2 55,-2 14,0 27,1 41,2l-3 427c-13,-2 -25,-4 -38,-4zm-69 12c-46,16 -84,48 -108,89l-366 -216c84,-142 222,-249 387,-290l87 417zm-122 117c-8,21 -13,43 -15,66l-416 -94c7,-47 20,-92 38,-134l393 162zm-13 104c5,43 24,82 52,112l-312 289c-104,-112 -167,-263 -167,-428 0,-9 0,-18 0,-27l427 54zm75 134c17,13 36,24 57,32l-228 362c-35,-18 -68,-40 -98,-65l269 -329zm85 40c14,3 29,5 44,5 23,0 45,-4 66,-11l190 382c-78,35 -165,54 -256,54 -83,0 -162,-16 -235,-45l191 -385zm136 -17c19,-9 36,-22 51,-36l281 319c-31,29 -66,54 -104,77l-228 -360zm74 -63c24,-32 38,-72 39,-115l424 -45c1,13 2,26 2,39 0,162 -62,310 -162,422l-303 -301zm38 -148c-4,-24 -11,-48 -22,-69l405 -136c13,34 24,69 31,106l-414 99zm-40 -96c-23,-32 -56,-56 -93,-70l64 -423c174,38 322,148 409,298l-380 195z"/>
    <circle class="fil57" cx="38892" cy="16705" r="107"/>
   </g>
   <path class="fil47" d="M31218 15674c572,0 1035,463 1035,1034 0,34 -2,67 -5,100l-2 27c-1,25 -2,50 -3,63 -1,12 -1,12 -1,12l-2 -1 -1 6c0,0 0,0 -30,-3 -30,-3 -91,-8 -173,-15 -81,-7 -184,-17 -288,-23 -105,-6 -210,-8 -354,-3 -145,5 -328,19 -469,40 -141,22 -240,52 -323,79 -82,26 -148,49 -209,74 -60,25 -116,52 -148,71 -20,11 -31,19 -38,22 -6,5 -10,8 -14,9 -5,3 -8,4 -10,1 -2,1 -4,1 -6,1 0,-9 0,-21 0,-36 1,-81 2,-245 4,-354 1,-45 2,-81 4,-111 21,-552 476,-993 1033,-993zm898 897c-66,-436 -443,-770 -898,-770 -487,0 -885,384 -907,867 46,-61 125,-104 320,-129 211,-28 558,-36 836,-29 279,8 490,30 608,53 15,2 29,5 41,8z"/>
   <g id="_2997297788496">
    <path class="fil54" d="M31218 15792c-501,0 -907,406 -907,908 0,501 406,907 907,907 502,0 908,-406 908,-907 0,-502 -406,-908 -908,-908zm604 1019c-62,8 -176,10 -357,16 -181,5 -427,13 -588,17 -161,4 -236,4 -274,4 -37,0 -37,0 -37,0 0,0 0,0 4,11 5,11 14,33 33,73 18,40 46,96 78,143 32,47 69,84 114,118 44,34 95,66 140,89 45,23 83,38 132,47 50,9 111,13 159,14 49,2 86,0 136,-10 50,-11 114,-30 172,-59 59,-29 113,-68 162,-125 50,-57 95,-134 128,-199 33,-64 54,-117 60,-137 7,-21 -1,-9 -62,-2z"/>
    <circle class="fil55" cx="31209" cy="16690" r="475"/>
    <circle class="fil18" cx="31218" cy="16700" r="107"/>
    <path class="fil56" d="M31218 16001c-385,0 -698,313 -698,699 0,385 313,698 698,698 386,0 699,-313 699,-698 0,-386 -313,-699 -699,-699zm0 493c-13,0 -26,1 -39,4l-15 -427c18,-2 36,-2 54,-2 14,0 28,0 42,1l-4 427c-12,-2 -25,-3 -38,-3zm-68 12c-46,16 -84,48 -108,88l-367 -216c85,-142 223,-248 387,-290l88 418zm-123 117c-8,20 -13,42 -14,65l-417 -94c8,-46 21,-91 38,-133l393 162zm-13 103c6,44 25,82 53,113l-312 289c-104,-113 -168,-263 -168,-428 0,-10 1,-19 1,-28l426 54zm76 134c17,14 36,25 56,32l-227 363c-35,-19 -68,-41 -98,-66l269 -329zm84 40c15,4 29,5 44,5 24,0 46,-4 67,-11l190 382c-78,35 -165,54 -257,54 -83,0 -162,-16 -234,-45l190 -385zm136 -16c19,-10 37,-22 52,-37l281 319c-32,29 -67,55 -104,77l-229 -359zm75 -64c23,-32 38,-72 39,-114l424 -45c1,13 1,25 1,39 0,162 -61,310 -161,421l-303 -301zm37 -147c-3,-25 -10,-48 -21,-69l404 -136c14,33 24,69 32,105l-415 100zm-39 -97c-23,-31 -56,-56 -93,-69l64 -424c174,38 321,148 409,298l-380 195z"/>
    <circle class="fil57" cx="31215" cy="16696" r="107"/>
   </g>
   <path class="fil46" d="M35875 15238c8,20 13,42 15,69 1,27 -2,59 -16,83 -15,25 -41,42 -85,52 -44,10 -106,12 -159,0 -53,-12 -96,-38 -123,-63 -26,-25 -35,-49 -31,-69 3,-21 21,-38 69,-59 49,-21 130,-46 185,-58 55,-12 86,-10 106,-1 21,9 31,26 39,46z"/>
   <path class="fil58" d="M35925 15350c-111,13 -328,19 -444,17 -115,-1 -128,-9 -133,-20 -6,-10 -3,-23 6,-35 9,-11 25,-20 127,-32 103,-13 291,-29 397,-34 105,-5 128,0 141,10 13,10 17,24 18,42 0,18 -2,39 -112,52z"/>
  </g>
  <polygon class="fil59" points="48792,19559 2,19559 2,17704 48792,17704 "/>
  <path class="fil58" style="mask:url(#id0)" d="M30385 15712c-109,75 -279,207 -401,285 -122,78 -196,102 -415,208 -220,105 -586,293 -1084,480 -498,188 -1128,375 -1628,488 -500,113 -870,151 -1055,170 -185,20 -185,20 -185,20 0,0 0,0 0,0 0,0 0,0 0,-434 0,-435 0,-1303 0,-1737 0,-434 0,-434 0,-434 0,0 0,0 829,141 828,141 2486,422 3291,571 805,150 757,167 648,242z"/>
  <rect class="fil60" x="3889" y="13535" width="156" height="4074"/>
  <rect class="fil60" x="8139" y="13552" width="156" height="4057"/>
  <path class="fil37" d="M44044 16497c-25,26 -38,35 -76,54l42 68c67,5 82,-28 104,-70l0 0c-8,-23 6,-10 -22,-31 -33,-25 -13,-11 -48,-21zm73 49c1,-2 3,-4 5,-6 -2,2 -4,4 -5,6zm22 -44c1,-3 2,-6 3,-9 -1,3 -2,6 -3,9zm5 -23c1,-5 2,-10 2,-15 0,5 -1,10 -2,15zm3 -62c0,-4 0,-7 0,-11 0,4 0,7 0,11zm59 2l0 0 103 -102 -103 102zm-27 148c-137,153 -115,405 -100,629 27,380 131,310 353,403l-945 43c148,-122 323,-73 343,-357 13,-179 18,-488 -5,-664 -297,43 -493,-31 -621,-195 -346,-437 -5,-995 475,-978 212,8 463,158 507,328l0 -1c173,-21 271,-21 389,74 148,120 211,335 105,527 -116,211 -300,222 -501,191l0 0z"/>
  <g>
   <rect class="fil61" x="2639" y="11130" width="7046" height="3178" rx="219" ry="218"/>
   <path class="fil62" d="M4895 11162l280 2c671,5 1337,10 2008,11l1732 2c64,0 559,-7 572,5 47,-6 102,39 127,75 10,15 17,31 23,48 4,14 15,258 0,272l-12 14c-5,9 -9,16 -9,28 1,15 9,26 19,34l11 9c-11,21 -5,1145 -5,1267 0,83 5,645 2,677 -3,22 -2,15 2,35 4,26 -1,54 0,82l5 315c1,88 -4,172 -104,217 -46,20 -91,15 -145,15l-2218 -14c-847,-4 -1692,-12 -2539,-11l-1753 0c-91,0 -168,-24 -203,-118 -16,-42 -10,-99 -10,-149 0,-39 -1,-309 3,-314 3,-4 2,-3 6,-6 4,-3 3,-2 7,-5 16,-12 18,-28 16,-51 -1,0 -9,-9 -5,9 -1,-11 -3,-10 -3,-10 -7,-18 -9,-19 -22,-24 -5,-160 0,-328 0,-488l-7 -1403c0,-30 -9,-34 15,-47 -16,-8 -7,6 -19,-9l5 -4c15,-10 25,-8 35,-33l6 10c1,1 -1,11 4,-2 4,-9 4,-16 4,-28 -3,-3 -1,-1 -5,-4 0,-1 -1,-2 -2,-2 0,-1 -1,-1 -1,-2 -23,-22 -28,-16 -43,-27 -2,-54 -1,-110 -2,-163 0,-60 -4,-98 23,-145 20,-33 46,-58 88,-75 46,-19 97,-13 152,-12 217,2 434,6 652,6 217,1 435,7 652,7 218,0 439,8 658,6zm-2330 1295c2,4 1,-1 2,9l3 166c0,414 6,833 3,1246 -3,60 0,127 -1,188 0,31 3,58 9,87 7,31 18,43 29,68 4,6 8,12 12,18 3,5 5,6 8,11 6,9 3,4 5,10 17,9 27,34 68,58 16,9 66,32 89,34 278,4 559,-1 839,-2 35,0 89,-3 120,1l49 4c12,-10 2403,-5 2845,-2l188 4c25,-8 317,-2 368,-2 123,1 246,0 369,2 81,1 704,-9 725,1 204,0 409,3 613,4 141,0 315,-1 454,3l155 1c25,0 75,-20 96,-31 30,-17 51,-37 71,-60 48,-54 62,-108 61,-202 0,-39 -9,-493 -4,-517l-3 -113c-4,-566 2,-1137 0,-1703 0,-14 -3,-46 3,-58l-2 -247c-1,-49 5,-87 -3,-137 -3,-18 -11,-37 -17,-51 -6,-13 -17,-29 -21,-41 -17,-15 -18,-33 -78,-75 -2,-1 -6,-3 -7,-4 -7,-7 -3,-2 -7,-9 -10,-1 -11,-3 -22,-8 -59,-27 -110,-26 -176,-26 -234,2 -459,-2 -691,-2 -616,-1 -1228,3 -1845,0 -304,-2 -611,-7 -915,-4l-495 -3c-48,3 -507,0 -522,-5 -23,6 -413,-1 -473,-1 -318,-1 -636,-7 -953,-7 -155,0 -317,1 -472,-4 -75,-3 -165,-6 -240,-1 -62,3 -131,43 -163,73 -113,110 -79,212 -82,393 -1,59 14,912 8,934z"/>
   <path class="fil63" d="M3781 12005c-22,-4 -18,-20 -40,-67 -56,-113 -165,-195 -293,-224 -70,-16 -111,-9 -176,10 -233,70 -313,320 -246,535 65,210 188,393 304,522 82,89 221,222 319,300 20,15 35,29 57,46 17,14 40,33 58,45 25,16 53,-14 69,-26l224 -190c18,-16 35,-35 53,-51 103,-96 204,-214 280,-340 113,-188 207,-418 113,-635 -39,-90 -115,-157 -216,-194 -121,-45 -236,-22 -326,40 -48,33 -73,56 -107,98 -17,20 -27,40 -40,62 -11,21 -21,56 -33,69z"/>
   <path class="fil64" d="M7695 13222c15,6 116,6 124,0 8,-8 3,-99 3,-116 0,-40 0,-80 0,-120 -1,-81 -4,-168 -2,-249 13,9 305,486 313,489l162 1c4,-115 -2,-238 -2,-354l-1 -350c0,-1 -1,-2 -1,-3l-131 -7c-6,29 0,447 0,491l-268 -429c-10,-16 -32,-49 -38,-64l-161 -1c-5,46 -2,695 2,712z"/>
   <path class="fil65" d="M6877 12496c-126,29 -207,92 -258,191 -44,84 -55,192 -28,287 9,32 24,56 33,82 19,17 60,104 176,150 172,68 376,35 477,-113 48,-70 55,-177 49,-263 0,-2 -1,-8 -1,-10l-3 -9c-13,-3 -289,-5 -304,-1l0 112c2,17 0,8 4,14 15,8 131,2 159,3 3,54 -48,108 -76,129 -41,30 -98,46 -162,44 -107,-4 -200,-97 -222,-191 -27,-114 10,-233 119,-278 88,-36 229,-9 298,56 11,10 4,9 15,10l1 -144c-3,-9 -45,-31 -55,-36 -70,-36 -142,-45 -222,-33z"/>
   <path class="fil62" d="M6109 12835l-1 -213c47,-3 91,-6 130,13 80,41 68,141 -3,182 -41,23 -75,21 -126,18zm-136 -142l1 521c24,2 118,6 133,-1 9,-20 0,-314 2,-366 13,6 4,0 13,10l172 175c33,37 158,157 183,188l160 -1c-2,-18 -93,-98 -98,-111 -10,-5 -193,-196 -204,-214l58 -64c42,-57 49,-125 20,-190 -8,-19 -20,-40 -35,-56 -3,-3 -5,-4 -7,-7 -5,-5 -5,-3 -6,-9 -27,-12 -41,-29 -77,-42 -109,-40 -191,-24 -316,-25l1 192z"/>
   <path class="fil66" d="M8967 12793c9,6 2,0 9,9l77 151 -168 0 82 -160zm-209 436c11,-15 28,-54 38,-76 11,-25 28,-53 37,-79l270 1c4,9 71,152 83,155l143 3c-2,-17 -76,-160 -88,-183 -61,-117 -119,-247 -179,-366l-66 -137c-13,-27 -7,-30 -37,-30 -18,21 -271,550 -300,606 -6,12 -49,96 -45,102 4,8 127,6 144,4z"/>
   <path class="fil67" d="M5182 13174c15,19 27,62 43,71 12,-11 18,-30 26,-44 15,-26 71,-134 80,-141 6,-21 61,-116 76,-143 62,-113 131,-233 190,-345 9,-17 33,-53 34,-71l-168 0 -227 446c-4,7 -3,4 -5,7 -6,7 -1,2 -6,6l-248 -462c-21,-3 -130,-4 -148,0 1,15 73,144 87,170l134 252c24,47 120,222 132,254z"/>
   <path class="fil65" d="M7275 12164c6,4 0,2 8,4l31 1c15,0 29,0 44,0l-1 -309 81 124c14,23 26,42 40,63l42 64c15,-6 31,-44 41,-58 17,-26 106,-178 118,-187l0 285c2,29 9,20 88,20 2,-41 1,-446 -3,-456 -8,-5 -8,-3 -21,-4l-81 1c-10,18 -22,35 -34,54 -12,18 -24,38 -36,57 -20,32 -50,86 -72,113l-11 -13c-27,-43 -112,-187 -133,-213 -118,-6 -103,-3 -103,33 1,63 -3,410 2,421z"/>
   <path class="fil68" d="M5036 12006c-5,-23 -106,-300 -114,-311l-96 0c-3,14 33,99 40,117 23,60 116,325 130,344 77,-2 61,6 78,-29 14,-28 78,-177 92,-190l103 220 66 0c12,-18 34,-89 43,-115l121 -329c2,-21 1,-6 -3,-12 -13,-7 -76,-4 -97,-3l-110 312 -65 -128c-11,-25 -49,-114 -63,-124 -17,18 -104,224 -118,242 -5,6 -1,2 -7,6z"/>
   <path class="fil67" d="M3781 12005c12,-13 22,-48 33,-69 13,-22 23,-42 40,-62 34,-42 59,-65 107,-98 90,-62 205,-85 326,-40 101,37 177,104 216,194 94,217 0,447 -113,635 -76,126 -177,244 -280,340 -18,16 -35,35 -53,51l-224 190c-16,12 -44,42 -69,26 -18,-12 -41,-31 -58,-45 -22,-17 -37,-31 -57,-46 -98,-78 -237,-211 -319,-300 -116,-129 -239,-312 -304,-522 -67,-215 13,-465 246,-535 65,-19 106,-26 176,-10 128,29 237,111 293,224 22,47 18,63 40,67zm-15 1197c42,2 106,-55 141,-86l159 -137c12,-11 27,-27 38,-37 35,-31 76,-77 111,-112 32,-31 77,-86 103,-121 99,-134 214,-334 240,-502 22,-138 -12,-305 -114,-398 -7,-6 -11,-11 -18,-18 -10,-8 -10,-4 -19,-17 -34,-15 -66,-55 -167,-76 -82,-18 -137,-15 -211,14 -99,39 -182,109 -232,200 -8,15 -12,29 -21,42 -20,-21 -48,-134 -200,-219 -108,-60 -217,-74 -339,-25 -97,39 -183,113 -218,203 -74,189 -36,337 45,510 57,121 123,225 206,326l100 109c52,49 98,101 162,156l85 75c9,8 20,15 29,23 24,20 96,80 120,90z"/>
   <path class="fil64" d="M8924 11973c-11,-98 57,-174 140,-187 101,-16 183,58 192,137 12,100 -54,180 -142,189 -99,11 -181,-56 -190,-139zm132 -264c-135,17 -226,137 -209,277 16,128 133,221 284,206 127,-13 225,-134 208,-279 -14,-122 -138,-221 -283,-204z"/>
   <path class="fil62" d="M5722 13007c-3,29 -5,187 1,203 13,8 122,9 139,2 8,-13 3,-258 2,-297 0,-101 3,-203 -1,-304l0 -95c-2,-11 2,-4 -3,-9 -7,-7 -120,-7 -138,-3 -7,14 -1,450 0,503z"/>
   <path class="fil64" d="M8404 13225c10,9 116,5 138,3 5,-13 1,-501 1,-585 0,-33 0,-67 0,-100 1,-33 9,-26 -70,-26 -97,-1 -73,-24 -74,118 -1,67 0,133 0,199l1 297c0,17 0,33 0,50 0,18 -3,36 4,44z"/>
   <path class="fil64" d="M7576 13223c3,-39 -1,-455 -1,-531 0,-29 0,-59 0,-88 0,-110 14,-91 -69,-92 -19,0 -57,-2 -73,2 -3,13 -3,622 0,692 0,23 9,18 34,18 36,-1 73,1 109,-1z"/>
   <path class="fil67" d="M6760 11973c-19,-102 50,-180 128,-196 101,-20 184,49 199,126 20,100 -49,181 -128,196 -99,20 -186,-50 -199,-126zm146 211c83,-12 120,6 203,-80 84,-88 56,-175 62,-212l-8 -19c-2,-5 -3,-11 -5,-16 -4,-10 -9,-21 -13,-29 -77,-139 -261,-164 -356,-94 -94,69 -143,178 -88,307 9,21 22,40 36,53 11,11 9,11 19,23 17,20 77,51 115,59 7,1 12,2 19,3 13,2 8,-1 16,5z"/>
   <path class="fil64" d="M8278 13868c-1,-13 -4,-76 2,-84 10,-16 57,4 65,10 19,15 17,42 2,58 -16,15 -42,17 -69,16zm101 26c17,-7 39,-35 43,-62 11,-67 -39,-101 -104,-107 -24,-3 -83,-5 -106,-1 -3,14 -3,310 6,318 13,5 42,3 59,2l-1 -161c22,11 45,43 69,63 23,20 42,41 68,63 20,17 50,40 85,42 39,2 85,3 113,-16 66,-46 34,-133 -18,-164 -27,-16 -74,-18 -76,-56 -3,-50 56,-33 85,-27l1 -57c-88,-49 -199,56 -141,130 35,45 124,53 118,99 -5,32 -42,39 -77,30 -29,-7 -52,-21 -69,-37 -15,-13 -47,-41 -55,-59z"/>
   <path class="fil69" d="M6592 12043c-19,5 -23,27 -81,44 -102,29 -207,-7 -207,-146 0,-81 31,-134 98,-150 108,-27 175,42 190,46l-2 -96c-26,-22 -79,-43 -122,-46 -256,-19 -353,327 -134,458 89,53 175,40 258,-10l0 -100z"/>
   <path class="fil68" d="M5671 11789l136 -2c3,-18 4,-68 -2,-84l-214 -1c-7,19 -2,194 -2,229l4 229 215 -1c4,-19 6,-62 -2,-78l-134 -2 -1 -110 129 -1c4,-17 5,-68 -2,-79 -15,-8 -101,-2 -127,-4l0 -96z"/>
   <path class="fil65" d="M7883 12170l216 2 0 -70c-6,-22 -83,-6 -136,-12l-1 -110 130 0c2,-15 1,-28 1,-42 0,-13 3,-30 -4,-39l-126 -2 0 -98 136 0 1 -83c-23,-6 -134,-2 -166,-2 -60,-1 -54,-28 -52,118 0,63 -4,299 1,338z"/>
   <path class="fil70" d="M7821 13781c-1,0 -2,-1 -2,-2 -12,-15 -42,-80 -110,-52 -127,55 15,248 112,308 25,-12 76,-62 93,-82 148,-174 20,-264 -52,-218 -10,7 -17,12 -23,19 -5,6 -5,7 -9,13l-9 14z"/>
   <path class="fil65" d="M8423 11718l-3 36c0,13 -1,27 1,41 26,7 99,0 132,3 6,26 1,149 1,186 1,55 -5,140 1,190 13,4 74,5 90,1 6,-20 3,-328 3,-377 34,-2 107,5 133,-2l2 -76c-12,-4 -344,-6 -360,-2z"/>
   <path class="fil65" d="M5178 14024c0,-42 4,-304 -2,-319 -13,-7 -42,-4 -59,-2 -10,39 -1,161 -2,211 -13,-9 -120,-184 -138,-212l-76 0c-4,49 -1,180 -1,244 0,20 -7,63 4,77 0,1 53,14 58,-7 1,-4 1,-9 1,-13l-1 -190c10,5 13,12 20,25l111 173c8,12 2,7 12,13 15,6 59,3 73,0z"/>
   <path class="fil65" d="M4454 13957c27,23 66,94 183,80 37,-4 71,-21 95,-39 25,-20 37,-44 47,-84 1,-23 5,-54 -2,-76 -26,0 -123,-6 -139,2 -7,11 -5,42 -2,59l73 0c1,47 -58,82 -111,77 -116,-12 -136,-180 -40,-213 26,-9 55,-7 81,0 21,5 54,27 59,28 6,-14 5,-52 2,-68 -38,-20 -60,-36 -116,-32 -41,3 -76,22 -99,46 -24,24 -44,51 -52,97 -11,68 13,93 21,123z"/>
   <path class="fil68" d="M5920 11702c-5,17 -4,422 0,458 8,1 190,7 215,3 8,-2 5,-1 9,-4 6,-7 6,-66 0,-74 -5,-5 6,-2 -12,-4 -19,-3 -91,2 -120,-2 0,-64 0,-127 -1,-191 0,-32 7,-167 -4,-184 -14,-7 -67,-4 -87,-2z"/>
   <path class="fil65" d="M7445 13760c68,-11 124,37 132,94 10,68 -41,122 -97,129 -153,21 -192,-199 -35,-223zm-14 -53c-223,31 -176,375 65,338 88,-13 158,-91 140,-198 -8,-48 -38,-86 -66,-107 -36,-27 -85,-41 -139,-33z"/>
   <path class="fil65" d="M6504 13764c153,-34 203,188 53,222 -68,15 -130,-31 -143,-85 -17,-72 33,-125 90,-137zm-13 -55c-230,53 -146,386 85,333 147,-33 178,-231 54,-308 -35,-22 -91,-37 -139,-25z"/>
   <path class="fil65" d="M4250 13852c-1,-1 -1,-2 -1,-3l-2 -41c0,-16 0,-31 -1,-47 126,-17 88,114 4,91zm220 148c-11,-8 -100,-106 -118,-116 6,-14 4,-8 14,-18 38,-38 38,-98 -2,-132 -40,-34 -114,-36 -179,-31 -5,5 -6,-4 -6,34l1 124c0,44 -5,125 1,165 85,12 66,-12 66,-77 0,-27 0,-54 0,-82 13,6 124,120 152,147 12,11 13,13 36,13 17,1 35,2 52,-1 -1,-11 -11,-18 -17,-26z"/>
   <path class="fil64" d="M6794 13862l0 -93c38,-1 82,2 80,45 -2,39 -40,51 -80,48zm-1 172l1 -163 101 101c19,17 34,32 53,50 12,12 10,14 33,14 16,0 37,1 51,-1 1,-17 -120,-123 -133,-146 13,-16 36,-34 40,-67 4,-34 -13,-62 -29,-77 -43,-39 -112,-35 -181,-33 -5,75 3,201 1,287 0,41 -8,36 63,35z"/>
   <path class="fil71" d="M5434 13764c-6,6 -126,248 -128,263l69 1 35 -71 122 0 37 72 66 1c3,-15 -18,-49 -26,-65 -15,-29 -89,-173 -90,-185 -19,-18 -23,-63 -46,-79 -17,4 -14,11 -22,28 -7,13 -11,22 -17,35zm35 53c-5,3 -39,81 -35,81 97,0 61,6 58,-27 -6,-4 -23,-54 -23,-54z"/>
   <path class="fil65" d="M3862 14024l11 7c21,-27 45,-77 62,-107 4,-7 54,-99 61,-102 10,-36 55,-89 62,-119 -18,-6 -56,-3 -76,-1 -6,3 -84,153 -95,174l-15 22c-20,-23 -78,-149 -101,-187 -16,-26 -71,-9 -71,-9 -5,6 -6,-8 -3,11l80 148c17,32 77,136 85,163z"/>
   <path class="fil64" d="M8173 14040c4,-57 2,-57 -19,-58l-75 -1 -2 -75 89 0c5,-17 11,-55 -9,-59l-80 -1 -2 -67 95 0 1 -59c-22,-5 -126,-1 -155,0 -3,34 0,83 0,120 0,40 1,80 1,120 1,94 -7,81 38,81 33,0 87,4 118,-1z"/>
   <path class="fil65" d="M5838 13765c-11,32 1,77 20,93 37,33 98,45 104,78 4,19 -6,36 -20,40 -33,9 -70,-25 -91,-21 -8,60 -11,75 68,82 28,2 52,-3 72,-15 31,-20 62,-73 33,-121 -17,-29 -68,-52 -100,-73 -59,-38 9,-80 60,-53 8,-4 17,-53 -1,-62l-36 -9c-46,-5 -87,18 -109,61z"/>
   <path class="fil65" d="M6305 13712l-123 1c-6,12 -7,303 -1,317 13,7 43,3 62,2 7,-17 3,-108 2,-133 23,-1 73,5 88,-3 0,0 15,-52 -7,-57 -5,0 -5,0 -10,-1 -7,0 -17,0 -25,0 -15,0 -30,0 -45,0l-1 -66 93 0 1 -56 -34 -4z"/>
   <path class="fil65" d="M7298 14035c6,-12 6,-44 -2,-54l-91 -4c-7,-52 7,-229 -3,-259 -9,-4 -16,-3 -29,-3 -13,0 -21,-1 -34,2 -5,27 -1,89 -1,119l1 181c1,25 11,19 37,19 37,0 88,3 122,-1z"/>
   <path class="fil65" d="M4071 14024c20,2 51,5 70,0 0,-44 5,-299 -2,-320 -16,-4 -51,-5 -66,0l-2 320z"/>
   <path class="fil65" d="M5285 14027c2,-37 4,-305 -2,-320 -16,-5 -45,-2 -65,-2l-2 320 69 2z"/>
   <path class="fil65" d="M5778 13709l-24 0c-7,13 -9,301 -2,317 1,1 3,1 3,2 0,1 2,1 3,1l50 0c1,0 2,0 3,0 1,-1 2,-1 3,-1 3,-14 3,-304 -1,-316l-35 -3z"/>
   <path class="fil65" d="M4794 13833c-1,17 -4,171 2,189 3,9 53,4 61,4 3,-51 0,-110 0,-162l1 -117c0,-5 0,-16 0,-21 0,-6 0,-4 -1,-10 -6,-21 -57,-8 -59,-6 -9,8 -4,109 -4,123z"/>
   <path class="fil72" d="M7821 13781l9 -14c4,-6 4,-7 9,-13 6,-7 13,-12 23,-19 72,-46 200,44 52,218 -17,20 -68,70 -93,82 -97,-60 -239,-253 -112,-308 68,-28 98,37 110,52 0,1 1,2 2,2zm3 273c52,-27 149,-135 168,-209 30,-118 -81,-175 -150,-108 -13,13 -12,19 -22,28 -47,-106 -208,-57 -169,78 19,67 71,124 119,168 9,9 42,37 54,43z"/>
  </g>
  <path class="fil73" d="M45979 15352c131,80 275,106 348,350 90,307 -117,477 -134,530 32,30 49,40 97,62 64,-177 112,-472 140,-671 -362,-69 -268,-507 20,-505 138,1 245,104 252,237 7,141 -86,249 -222,266l30 287c52,-54 63,-96 104,-129 -123,-84 -5,-258 121,-190 88,49 81,241 -107,205l-128 298 281 -112c-10,-144 2,-274 162,-327 150,-50 277,37 317,140 130,330 -349,478 -457,213 -76,51 -137,79 -208,133 -91,68 -122,82 -125,233 368,36 604,-66 753,-274 400,-557 -49,-1224 -640,-1176 -259,21 -561,220 -604,430z"/>
  <path class="fil74" d="M46430 15623c-28,199 -76,494 -140,671l-48 85c-82,11 -103,-29 -132,-80 -76,-69 -42,-266 -34,-380l6 -153c-27,42 -30,100 -40,149l-53 230 -132 -119 -100 -82c26,50 52,64 69,112 69,69 146,187 205,269 178,181 164,492 158,768 -11,470 -143,389 -411,516l1164 0c-189,-142 -401,-72 -442,-420 -25,-219 -49,-600 -30,-817 3,-151 34,-165 125,-233 71,-54 132,-82 208,-133l139 -86 -161 60 -281 112 128 -298 -14 -15c-41,33 -52,75 -104,129l-30 -287 -13 -180c-23,42 -28,127 -37,182z"/>
  <path class="fil75" d="M46031 16325c-59,-82 -136,-200 -205,-269 -17,-48 -43,-62 -69,-112l100 82 132 119 53 -230c10,-49 13,-107 40,-149l-6 153c-8,114 -42,311 34,380 9,-28 -8,-12 25,-39 39,-32 16,-14 58,-28 17,-53 224,-223 134,-530 -73,-244 -217,-270 -348,-350 -214,-17 -336,-12 -475,112 -175,156 -241,424 -100,654 155,254 381,257 627,207z"/>
  <path class="fil76" d="M44450 13077c226,590 288,740 262,1456 -138,-165 -176,-499 -370,-707 -42,-17 -32,-23 -26,23 91,248 220,444 307,764 60,220 117,730 32,926 -237,-395 -379,-817 -950,-803l-21 69c345,47 439,192 607,360 134,133 284,377 335,613 58,271 -55,1484 -81,1838l514 -11c-33,-673 -64,-1343 -82,-2019 -12,-473 -43,-545 226,-834 209,-226 228,-279 620,-401 12,-61 41,-25 -33,-40 -420,5 -545,203 -804,357 14,-291 31,-620 161,-852 123,-219 280,-413 422,-556l-42 -27c-170,160 -571,561 -643,764 -67,-80 -71,-171 -95,-272 -50,-208 -196,-566 -309,-706l-30 58z"/>
  <path class="fil75" d="M44450 13077l30 -58 14 -73c651,65 666,-842 -61,-706 -76,-462 -762,-435 -723,144 -707,15 -485,875 40,722 164,-48 68,-71 187,-7 97,53 135,86 275,70 108,-13 165,-68 238,-92z"/>
  <path class="fil77" d="M45790 14311c74,15 45,-21 33,40 301,25 216,41 472,-54 279,310 540,-23 572,-48 142,-111 188,9 351,-118 301,-233 158,-734 -364,-650 -106,-160 -161,-354 -458,-300 -233,42 -297,218 -297,452 -208,-4 -343,68 -409,225 -82,195 40,336 100,453z"/>
  <path class="fil75" d="M43684 14805l21 -69c15,-340 -192,-493 -536,-422 -102,-472 -753,-415 -727,145 -586,-1 -540,646 -155,731 171,38 179,-25 287,-46 102,-19 80,48 209,86 225,66 383,-54 449,-209 263,21 342,-54 452,-216z"/>
  <path class="fil77" d="M45527 13233l42 27c390,-202 399,186 685,-94 139,-135 24,-46 217,-92 379,-90 289,-657 -183,-578 -101,-124 -139,-278 -373,-243 -202,29 -228,177 -260,367 -202,7 -327,72 -342,268 -17,217 104,247 214,345z"/>
  <path class="fil78" d="M46781 15980l161 -60 -139 86c108,265 587,117 457,-213 -40,-103 -167,-190 -317,-140 -160,53 -172,183 -162,327z"/>
  <path class="fil78" d="M46430 15623c9,-55 14,-140 37,-182l13 180c136,-17 229,-125 222,-266 -7,-133 -114,-236 -252,-237 -288,-2 -382,436 -20,505z"/>
  <path class="fil75" d="M44316 13849c-6,-46 -16,-40 26,-23 58,-281 61,-487 -315,-438 -247,-366 -502,-249 -550,108 -450,26 -367,561 10,517 187,-21 31,-44 215,16 279,90 260,-73 397,-122 39,-14 167,-43 217,-58z"/>
  <path class="fil78" d="M46614 15779l14 15c188,36 195,-156 107,-205 -126,-68 -244,106 -121,190z"/>
  <rect class="fil79" y="17607" width="48790" height="102"/>
 </g>
</svg>
