<?xml version="1.0" encoding="UTF-8"?>
<!DOCTYPE svg PUBLIC "-//W3C//DTD SVG 1.1//EN" "http://www.w3.org/Graphics/SVG/1.1/DTD/svg11.dtd">
<!-- Creator: CorelDRAW X8 -->
<svg xmlns="http://www.w3.org/2000/svg" xml:space="preserve" width="4882px" height="1956px" version="1.1" style="shape-rendering:geometricPrecision; text-rendering:geometricPrecision; image-rendering:optimizeQuality; fill-rule:evenodd; clip-rule:evenodd"
viewBox="0 0 48794 19549"
 xmlns:xlink="http://www.w3.org/1999/xlink">
 <defs>
  <style type="text/css">
   <![CDATA[
    .str0 {stroke:#373435;stroke-width:41.6347}
    .str2 {stroke:#313131;stroke-width:41.6347}
    .str6 {stroke:black;stroke-width:20.8233}
    .str1 {stroke:#424242;stroke-width:20.8233}
    .str3 {stroke:black;stroke-width:8.99508}
    .str4 {stroke:#B5EEFF;stroke-width:8.99508}
    .str5 {stroke:#E6E6E6;stroke-width:8.99508}
    .fil17 {fill:none}
    .fil13 {fill:#373435}
    .fil20 {fill:#EFB783}
    .fil72 {fill:black}
    .fil65 {fill:#0B2F79}
    .fil35 {fill:#0B3859}
    .fil73 {fill:#0C5B24}
    .fil61 {fill:#1049B4}
    .fil62 {fill:#121212}
    .fil47 {fill:#121710}
    .fil23 {fill:#1369B6}
    .fil63 {fill:#188600}
    .fil54 {fill:#1B1B1C}
    .fil31 {fill:#1C1C1C}
    .fil27 {fill:#20547B}
    .fil7 {fill:#313131}
    .fil30 {fill:#33322E}
    .fil36 {fill:#333333}
    .fil26 {fill:#362D24}
    .fil28 {fill:#3689BB}
    .fil22 {fill:#3890D0}
    .fil10 {fill:#424242}
    .fil6 {fill:#464646}
    .fil67 {fill:#483B45}
    .fil14 {fill:#4A4A4A}
    .fil40 {fill:#4D4D4D}
    .fil39 {fill:#525252}
    .fil15 {fill:#5C707B}
    .fil16 {fill:#71848B}
    .fil8 {fill:#757575}
    .fil55 {fill:#767B7F}
    .fil70 {fill:#782400}
    .fil68 {fill:#786670}
    .fil32 {fill:#797977}
    .fil49 {fill:#7A838A}
    .fil41 {fill:gray}
    .fil75 {fill:#82916A}
    .fil66 {fill:#947C89}
    .fil56 {fill:#99A3AC}
    .fil50 {fill:#9CADB7}
    .fil57 {fill:#AAB5C5}
    .fil53 {fill:#ADBACA}
    .fil74 {fill:#B17130}
    .fil69 {fill:#B24615}
    .fil60 {fill:#B3B3B3}
    .fil38 {fill:#B5EEFF}
    .fil24 {fill:#B96F48}
    .fil52 {fill:#BACADA}
    .fil46 {fill:#C1C2C9}
    .fil18 {fill:#C1CFCF}
    .fil33 {fill:#C77066}
    .fil4 {fill:#C8382F}
    .fil11 {fill:#CACACA}
    .fil37 {fill:#CCCCCC}
    .fil45 {fill:#CDCED3}
    .fil76 {fill:#CFB175}
    .fil51 {fill:#D2D7DD}
    .fil5 {fill:#DF7E77}
    .fil3 {fill:#DFE9EB}
    .fil34 {fill:#E09474}
    .fil44 {fill:#E0E7ED}
    .fil1 {fill:#E6E6E6}
    .fil42 {fill:#E6EEF1}
    .fil21 {fill:#EC9956}
    .fil29 {fill:#ECB31E}
    .fil25 {fill:#EDD89F}
    .fil12 {fill:#EFEFEF}
    .fil43 {fill:#F1FAFF}
    .fil0 {fill:#F2F2F2}
    .fil48 {fill:#F2FBFF}
    .fil71 {fill:#FFD941}
    .fil9 {fill:white}
    .fil58 {fill:white}
    .fil19 {fill:#464646;fill-rule:nonzero}
    .fil2 {fill:#492107;fill-rule:nonzero}
    .fil64 {fill:white;fill-rule:nonzero}
    .fil59 {fill:#B3B3B3}
   ]]>
  </style>
   <mask id="id0">
  <linearGradient id="id1" gradientUnits="userSpaceOnUse" x1="25631.7" y1="16052.2" x2="30457.4" y2="16052.2">
   <stop offset="0" style="stop-opacity:0; stop-color:white"/>
   <stop offset="1" style="stop-opacity:1; stop-color:white"/>
  </linearGradient>
    <rect style="fill:url(#id1)" x="25621" y="14740" width="4847" height="2624"/>
   </mask>
 </defs>
 <g id="Слой_x0020_1">
  <metadata id="CorelCorpID_0Corel-Layer"/>
  <rect class="fil0" x="29" width="48765" height="19549"/>
  <path class="fil1" d="M48791 15245l1 -1832 -788 2c48,-359 14,-693 15,-1020 1,-153 15,-347 11,-500l-4 -2315c-12,-171 16,-109 15,-290l-161 -78 -2 -346 -1159 -4c-81,20 -65,123 -116,184l-194 -1c-54,-85 -34,-54 -37,-182l-1205 0 -34 185c-102,-94 -240,-144 -385,-27 -66,54 -50,29 -74,113l-1 3000c-198,22 -240,171 -448,236 4,-516 44,-255 -220,-445 -212,-152 -121,-52 -267,-112l-112 -1019c-84,98 -110,360 -129,482 -30,196 -14,367 -49,561 -293,6 -142,90 -339,198l-17 -289c-390,-253 -323,-230 -717,-8l21 288c-239,27 -152,-33 -333,-176 -61,-48 -45,-21 -114,-76l0 -2909 -468 0 2 -353 -2791 0 -3 353 -382 6 0 3236c-585,0 -659,-145 -827,-2 -105,-136 36,-56 -120,-99 -373,-102 -107,152 -591,91 -33,-365 -1,-1181 -10,-1609 -264,0 -264,28 -351,-51l-171 -281 -698 -1 -17 -334c-20,151 -42,386 -139,541 -52,0 -220,6 -260,-5 -133,-38 3,23 -66,-38 -8,-7 -26,-34 -32,-41l-1117 -45 -29 255 -231 3 -23 1399 -252 -14 1 -1383 -130 -83 -2 -926c-137,-75 -95,23 -217,-78l1 -582c-11,-6 -27,-20 -31,-12l-129 -111c-6,-8 -11,-20 -16,-28l-29 -62c-230,-1 -431,33 -622,-50 -182,-80 -319,-15 -691,-44l-4 -353 -281 -26 -944 5 -16 384c-320,-6 -656,-7 -977,-4 -355,3 -108,56 -385,88 -130,15 -361,-1 -506,3l-33 169 -292 -2 -1 958c-225,29 -267,-121 -744,-8 -113,26 -166,20 -288,19 74,198 40,784 44,1061l-394 1 -59 199 -960 -11 -31 -108 -430 -8c179,118 98,-38 134,157l-322 -39c-84,-18 -48,-17 -90,-57l248 -46c-161,-21 -279,10 -396,-56 -22,-252 -3,-77 37,-145l-117 -127c4,-285 60,-204 -110,-267 -672,-248 -260,-9 -392,-318 -66,-154 -109,-41 -125,-269 -105,-36 94,9 -25,8 -8,0 0,15 -59,-8 25,-539 120,-430 19,-606 -3,-4 -8,-14 -11,-18l-114 -114c-1,-343 -92,-999 -400,-1184 -249,-149 -187,-8 -272,-310l-253 20c-111,186 22,124 -185,238 -433,239 -373,487 -510,961 -87,299 100,65 -128,403 -85,126 -60,46 -14,284 32,166 32,235 15,403l-57 -110c-27,220 -52,123 -122,270 -45,95 -31,138 -26,247 -367,1 -92,82 -408,102 -4,-6 -9,-26 -10,-21l-29 -103c-616,-16 -304,-50 -581,-70 -199,-15 -788,-34 -941,61 -53,33 -50,35 -69,51 95,172 36,557 36,781l-389 8 -1 -908 -345 -8c-80,-189 56,-198 -622,-195 -254,1 -546,22 -749,24l-17 -362 -222 -46 -34 -604 -48 605 -455 18 -19 -760c62,106 1,584 2,757l-631 0c-3,-187 -21,-571 -71,-716 -37,-107 -86,-114 -102,-379 -219,-87 37,119 -178,-78l10 -328 -279 -6 -54 -1273 -46 1271 -660 8 -64 -21c-169,64 -135,-104 -143,388l-191 1c-5,139 -17,229 -64,334 -67,149 -61,109 -76,344 -18,283 -5,569 -9,853l-2732 1 -64 170 -351 2 0 393c-633,-125 -1117,-402 -1798,-401 -7,-7 -12,-31 -14,-25 -27,67 -24,-41 -30,-49 -81,-101 -104,-73 -161,-137l-67 -106c-863,6 -542,-32 -660,154l-893 2c-114,25 -43,19 -95,67 -124,115 202,89 -479,99l-1 472c-81,26 -412,71 -516,72l0 1401 -362 6 1 -2683c-132,-55 -60,20 -173,-77l-101 -144c-128,-17 -87,4 -168,-50l-590 40c-186,82 144,-96 -61,53 -133,96 -131,49 -312,77l-9 208 -341 -5 -11 -330 -819 2 -50 208 -507 -3c0,475 0,948 3,1422 3,333 -24,196 -67,267 -66,108 -56,129 -53,311 3,231 -2,462 4,693 -265,-28 -160,-325 -171,-614l-190 -49 -1 -242 -295 -25c-126,-4 -167,27 -364,29l-7 196 -468 15 35 308 -190 40c6,232 51,273 -125,351 -161,-78 55,13 -149,-239l-152 -199c-80,-84 20,-19 -102,-82l-338 516c-37,21 -25,-8 -106,41l0 1329 -356 2 -17 2787 29 0 0 3346 48762 0 0 -4304zm-10069 -5451c0,-81 -16,-15 42,-12 84,5 -43,127 -42,12z"/>
  <path class="fil2" d="M26729 14339c9,0 18,1 27,1 -6,-13 -31,-17 -27,-1z"/>
  <path class="fil2" d="M36636 13082c8,0 16,0 24,0 -8,-9 -23,-13 -24,0z"/>
  <g id="_2997297744048">
   <path class="fil3" d="M22423 15879c49,2 131,5 187,3 57,-2 88,-8 106,-15 18,-8 23,-17 14,-33 -8,-16 -29,-40 -58,-70 -28,-31 -66,-69 -104,-100 -38,-32 -77,-57 -116,-81 -39,-25 -79,-48 -116,-69 -37,-20 -72,-38 -106,-53 -35,-15 -69,-27 -94,-35 -24,-8 -38,-11 -57,-13 -18,-1 -40,-1 -68,-1 -27,0 -60,1 -85,5 -24,3 -39,10 -50,18 -11,8 -18,18 -19,35 0,17 6,41 24,71 17,30 47,65 82,100 34,34 73,68 117,102 44,34 93,69 138,91 45,22 86,31 114,37 28,5 43,6 91,8z"/>
   <rect class="fil4" x="16168" y="13489" width="525" height="561" rx="62" ry="59"/>
   <polygon class="fil5" points="16239,13489 16622,13489 16622,13777 16239,13777 "/>
   <path class="fil6" d="M11448 15211c-16,-13 -22,-40 -24,-69 -3,-30 -3,-61 2,-89 6,-28 16,-53 29,-72 13,-20 29,-34 48,-44 18,-10 41,-15 190,-17 149,-2 424,0 568,-1 144,-1 156,-3 256,-42 100,-39 289,-115 521,-206 232,-91 508,-198 780,-293 272,-96 540,-181 775,-242 234,-61 434,-99 624,-128 190,-29 370,-50 544,-62 94,-7 187,-11 282,-14 0,-1 0,-3 0,-5l0 0c0,-36 29,-66 66,-66l617 0c36,0 66,30 66,66l0 0c0,8 -1,16 -4,23 30,2 60,5 90,8 194,19 375,52 550,94 176,41 347,92 520,159 173,67 348,150 527,250 178,99 359,215 521,321 163,106 308,203 380,251 72,48 72,48 72,48 0,0 0,0 0,0 0,0 0,0 348,38 347,39 1042,116 1479,173 437,57 617,95 707,114 90,19 90,19 90,19 0,0 0,0 -31,0 -31,0 -92,0 -124,9 -33,10 -37,30 -18,71 18,41 58,103 108,157 50,54 110,100 165,133 55,34 104,56 196,67 93,10 228,9 296,8 67,0 67,0 67,0 0,0 0,0 0,0 0,0 0,0 11,19 10,20 31,59 39,120 8,61 2,144 0,186 -3,42 -3,42 -3,42 0,0 0,0 7,0 6,0 19,0 26,0 6,0 6,0 6,0 0,0 0,0 0,48 0,49 0,147 0,196 0,48 0,48 0,48 0,0 0,0 0,0 0,0 0,0 -6,-1 -5,-1 -17,-4 -23,-5 -6,-1 -6,-1 -6,-1 0,0 0,0 0,0 0,0 0,0 0,35 0,35 0,105 -4,160 -4,56 -11,96 -24,131 -13,35 -32,65 -54,89 -22,24 -48,43 -82,58 -34,16 -75,29 -187,42 -111,13 -292,26 -382,33 -91,6 -91,6 -91,6 0,0 0,0 -13,-6 -14,-7 -41,-20 -55,-27 -14,-6 -14,-6 -14,-6 0,0 0,0 -10,1 -10,0 -31,2 -42,2 -10,1 -10,1 -284,10 -274,9 -822,27 -1096,36 -274,10 -274,10 -274,10 0,0 0,0 -2,7 -3,7 -8,21 -11,28 -2,7 -2,7 -2,7 0,0 0,0 -934,-10 -934,-10 -2801,-31 -3772,-44 -971,-12 -1045,-16 -1082,-18 -37,-2 -37,-2 -279,-6 -242,-5 -726,-14 -1059,-27 -332,-13 -513,-30 -746,-55 -233,-26 -518,-59 -685,-83 -168,-23 -217,-36 -257,-54 -40,-17 -69,-40 -89,-62 -20,-23 -29,-47 -29,-181 0,-134 9,-378 19,-513 9,-135 18,-159 56,-205 39,-45 106,-112 208,-203 103,-91 239,-207 314,-280 75,-74 88,-105 87,-131 0,-25 -15,-44 -47,-59 -31,-14 -81,-23 -141,-20 -60,3 -130,19 -179,27 -49,9 -76,10 -92,-3z"/>
   <path class="fil7" d="M22297 15850c21,5 44,9 71,12l13 1 0 0 -687 215 0 -39 603 -189z"/>
   <path class="fil7" d="M11347 15827c10,-10 21,-21 33,-33l1179 198 356 179 -20 36 -367 -184 -1181 -196z"/>
   <path class="fil8" d="M21895 15446c-11,12 -9,30 4,59 18,41 58,103 108,157 27,29 56,55 85,78l8 8c0,0 0,0 -93,-2 -92,-2 -277,-7 -370,-9 -93,-2 -93,-2 -93,-2 0,0 0,0 -26,-13 -26,-13 -79,-39 -134,-57 -54,-17 -110,-27 -179,-34 -68,-7 -149,-12 -222,-6 -73,5 -138,20 -187,33 -49,13 -82,25 -98,31 -17,5 -17,5 -17,5 0,0 0,0 -171,-4 -172,-4 -514,-12 -686,-16 -171,-4 -171,-4 -171,-4 0,0 0,0 0,0 0,0 0,0 -12,-35 -11,-35 -34,-106 -61,-171 -27,-66 -57,-127 -93,-183 -37,-56 -79,-106 -101,-131 -21,-25 -21,-25 -21,-25 0,0 0,0 66,3 66,4 197,11 344,20 148,9 311,19 480,35 170,16 347,36 517,58 170,22 334,45 487,70 153,25 295,51 413,78 94,21 172,43 223,57z"/>
   <path class="fil4" d="M11537 15145c56,-7 139,-12 201,-13 61,0 102,4 137,14 35,10 65,27 87,48 22,21 37,46 44,60 7,14 7,18 1,28 -6,10 -18,25 -54,57 -36,32 -98,80 -163,134 -66,53 -136,112 -195,158 -58,47 -105,82 -140,109 -36,27 -59,45 -71,54 -11,9 -11,9 -11,9 0,0 0,0 5,-97 6,-98 18,-293 26,-399 9,-106 14,-123 31,-136 17,-12 46,-20 102,-26z"/>
   <path class="fil9" d="M12001 15245c2,3 3,6 5,9 7,14 7,18 1,28 -5,8 -14,21 -40,45l-564 0 1 -20c2,-25 4,-46 6,-62l591 0zm-336 330c-24,20 -48,39 -70,56 -11,9 -22,18 -32,26l-182 0 5 -82 279 0z"/>
   <circle class="fil10" cx="13662" cy="16717" r="890"/>
   <circle class="fil11 str0" cx="13662" cy="16717" r="625"/>
   <path class="fil12" d="M16745 15111c14,60 40,165 64,297 24,131 46,288 59,468 12,180 15,381 13,512 -1,28 -1,53 -2,75l-1700 0 2 23 1697 -3c-2,37 -4,67 -7,93l-1689 0 0 66 1680 0c-10,62 -22,124 -29,156 -6,32 -6,32 -6,32 0,0 0,0 0,0 0,0 0,0 -297,0 -297,0 -890,0 -1187,0 -297,0 -297,0 -297,0 0,0 0,0 0,0 0,0 0,0 -28,-70 -28,-69 -84,-209 -188,-408 -105,-199 -259,-458 -402,-680 -143,-223 -276,-409 -351,-514 -74,-104 -91,-128 -86,-140 5,-11 32,-11 487,-5 455,7 1337,20 1784,23 446,3 457,-3 462,0 6,3 8,16 21,75zm77 63c16,75 44,200 64,338 21,138 36,289 43,408 7,119 7,206 5,313 -1,72 -4,153 -8,230l2662 0c1,-20 2,-41 3,-62 9,-175 6,-384 -2,-541 -9,-157 -23,-261 -54,-352 -30,-91 -77,-169 -126,-232 -49,-62 -99,-109 -125,-133 -25,-23 -25,-23 -25,-23 0,0 0,0 0,0 0,0 0,0 0,0 0,0 0,0 -411,-12 -410,-11 -1231,-35 -1642,-47 -411,-11 -411,-11 -411,-11 0,0 0,0 3,12 3,12 8,37 24,112zm103 1309c-2,30 -4,58 -7,85l0 8 2661 0c3,-31 5,-63 8,-98l-2662 5zm-15 159c-9,67 -19,119 -25,148 -8,40 -8,40 -8,40 0,0 0,0 0,0 0,0 0,0 445,4 444,5 1333,14 1777,19 445,4 445,4 445,4 0,0 0,0 0,0 0,0 0,0 10,-70 4,-34 11,-83 18,-145l-2662 0z"/>
   <rect class="fil11" x="14363" y="15199" width="586" height="131"/>
   <rect class="fil13" x="14443" y="15243" width="425.555" height="42.945"/>
   <rect class="fil11" x="16995" y="15246" width="586" height="131"/>
   <rect class="fil13" x="17075" y="15290" width="425.555" height="42.945"/>
   <polygon class="fil14" points="13521,17230 13817,17230 13674,16843 "/>
   <polygon class="fil14" points="13176,16883 13336,17131 13584,16802 "/>
   <polygon class="fil14" points="14158,16883 13998,17131 13750,16802 "/>
   <polygon class="fil14" points="14111,16418 14213,16696 13800,16695 "/>
   <polygon class="fil14" points="13219,16417 13117,16694 13530,16693 "/>
   <polygon class="fil14" points="14005,16295 13734,16177 13710,16589 "/>
   <polygon class="fil14" points="13311,16295 13582,16177 13606,16589 "/>
   <path class="fil15" d="M14120 14968c158,8 449,8 594,8 145,0 145,0 145,0 0,0 0,0 0,0 0,0 0,0 -22,-129 -21,-128 -64,-384 -85,-512 -22,-129 -22,-129 -22,-129 0,0 0,0 0,0 0,0 0,0 -75,21 -75,21 -224,63 -337,99 -112,35 -188,65 -250,98 -63,34 -112,70 -149,110 -36,39 -60,82 -71,128 -11,45 -9,94 2,139 12,44 34,86 59,115 25,28 52,44 211,52z"/>
   <path class="fil16" d="M14585 14975c49,1 93,1 129,1 145,0 145,0 145,0 0,0 0,0 0,0 0,0 0,0 -22,-129 -21,-128 -64,-384 -85,-512 -22,-129 -22,-129 -22,-129 0,0 0,0 0,0 0,0 0,0 -75,21 -75,21 -224,63 -337,99 -70,22 -126,42 -173,62l440 587z"/>
   <path class="fil15" d="M14846 14374c23,130 65,366 86,484 22,118 23,118 24,118 1,0 1,0 1,0 0,0 0,0 255,3 255,3 765,10 1020,13 255,3 255,3 255,3 0,0 0,0 0,0 0,0 0,0 -14,-163 -15,-164 -43,-490 -58,-654 -14,-163 -14,-163 -14,-163 0,0 0,0 0,0 0,0 0,0 -81,3 -82,4 -244,10 -416,21 -172,11 -353,27 -517,48 -164,21 -311,47 -404,65 -93,18 -132,28 -151,34 -20,5 -20,5 -20,5 0,0 0,0 3,13 2,13 7,39 31,170z"/>
   <path class="fil16" d="M14846 14374c23,130 65,366 86,484 22,118 23,118 24,118 1,0 1,0 1,0 0,0 0,0 255,3l320 4 -639 -812c-32,7 -50,12 -61,15 -20,5 -20,5 -20,5 0,0 0,0 3,13 2,13 7,39 31,170z"/>
   <path class="fil15" d="M16746 14363c61,156 155,394 202,513 46,119 46,119 46,119 0,0 0,0 0,0 0,0 0,0 0,0 0,0 0,0 291,4 290,4 870,12 1161,16 290,4 290,4 290,4 0,0 0,0 0,0 0,0 0,0 0,-37 0,-36 0,-109 -1,-148 -1,-38 -2,-42 -3,-44 0,-2 0,-2 0,-2 0,0 0,0 -33,-29 -34,-29 -100,-88 -202,-154 -102,-67 -240,-141 -398,-212 -158,-71 -337,-138 -487,-183 -150,-45 -273,-67 -396,-87 -123,-19 -246,-36 -345,-47 -98,-10 -171,-14 -207,-16 -37,-2 -37,-2 -22,35 14,37 43,111 104,268z"/>
   <path class="fil16" d="M18736 14934c0,-35 -1,-75 -1,-100 -1,-38 -2,-42 -3,-44 0,-2 0,-2 0,-2 0,0 0,0 -33,-29 -34,-29 -100,-88 -202,-154 -62,-40 -137,-83 -221,-127l460 456z"/>
   <path class="fil16" d="M16746 14363l35 90 536 546 1022 14 -796 -823c-120,-32 -223,-50 -327,-67 -123,-19 -246,-36 -345,-47 -98,-10 -171,-14 -207,-16 -37,-2 -37,-2 -22,35 14,37 43,111 104,268z"/>
   <path class="fil8" d="M13513 14997l-2062 -10c-11,19 -20,41 -25,66 -4,25 -5,52 -3,79 56,-9 124,-20 180,-26 88,-11 150,-12 200,-7 51,5 91,17 122,31 31,13 51,29 69,47 18,18 32,39 41,60 9,21 13,42 12,57 0,16 -6,26 -8,32l-3 5 93 21c92,22 277,65 423,87 147,23 255,26 531,30 275,5 719,11 941,15l222 3 -52 -81 -208 -326 -52 -81 -421 -2z"/>
   <path class="fil13" d="M13662 15749c-535,0 -968,433 -968,968 0,105 17,207 48,302 27,1 55,3 84,5 -35,-96 -54,-199 -54,-307 0,-492 398,-890 890,-890 492,0 890,398 890,890 0,125 -26,245 -73,353 23,0 51,1 84,2 43,-110 67,-230 67,-355 0,-535 -433,-968 -968,-968z"/>
   <circle class="fil10" cx="21056" cy="16725" r="890"/>
   <circle class="fil11 str0" cx="21056" cy="16725" r="625"/>
   <polygon class="fil14" points="20916,17238 21211,17238 21069,16851 "/>
   <polygon class="fil14" points="20571,16890 20730,17139 20979,16810 "/>
   <polygon class="fil14" points="21552,16891 21393,17139 21144,16810 "/>
   <polygon class="fil14" points="21506,16426 21608,16703 21195,16703 "/>
   <polygon class="fil14" points="20613,16424 20511,16701 20924,16701 "/>
   <polygon class="fil14" points="21399,16303 21129,16184 21105,16596 "/>
   <polygon class="fil14" points="20706,16303 20976,16185 21000,16597 "/>
   <path class="fil13" d="M21056 15756c-534,0 -968,434 -968,969 0,75 9,148 25,219 3,14 6,29 9,42 6,21 11,37 17,51 5,14 11,27 17,37 4,9 9,16 14,22l0 -1 76 -2c-6,-15 -15,-40 -25,-68 -11,-32 -23,-69 -32,-106 -5,-21 -9,-42 -13,-61 -6,-43 -10,-88 -10,-133 0,-492 399,-891 890,-891 492,0 891,399 891,891 0,125 -26,244 -73,353 22,0 50,1 84,1 43,-110 67,-229 67,-354 0,-535 -434,-969 -969,-969z"/>
   <circle class="fil17 str1" cx="13663" cy="16700" r="80"/>
   <circle class="fil17 str1" cx="21065" cy="16715" r="80"/>
   <path class="fil18" d="M21983 15507c-6,14 16,50 41,84 25,33 52,64 86,94 33,30 73,59 110,81 37,22 71,36 109,46 38,9 79,15 99,17 21,3 21,3 21,3 0,0 0,0 -66,-54 -65,-54 -196,-162 -278,-220 -82,-58 -116,-66 -122,-51z"/>
   <ellipse class="fil3" cx="22575" cy="16678" rx="88" ry="138"/>
   <path class="fil7" d="M16725 14789c-39,-164 -113,-477 -155,-635 -16,-58 -27,-95 -35,-119 -4,0 -7,-1 -12,-2 -4,-2 -8,-3 -12,-5 4,24 12,63 25,126 34,164 106,492 142,656 36,164 36,164 36,164 0,0 0,0 9,1 9,1 27,2 36,3 9,0 9,0 9,0 0,0 0,0 -1,-6 -1,-7 -4,-20 -42,-183z"/>
   <path class="fil17 str2" d="M16656 14973c-791,-11 -1659,-14 -2120,-19 -460,-5 -514,-10 -552,-20 -39,-9 -62,-24 -81,-41 -19,-16 -33,-36 -44,-63 -11,-26 -19,-60 -18,-97 2,-37 12,-78 30,-116 18,-38 44,-75 79,-107 34,-33 77,-62 135,-89 57,-27 129,-53 239,-88 111,-36 260,-80 415,-119 155,-39 315,-73 469,-97 155,-25 303,-41 479,-55 175,-14 378,-27 536,-31 159,-4 272,1 412,13 140,13 306,32 466,58 159,26 311,59 449,96 137,37 259,79 391,131 132,53 274,117 401,186 127,70 239,146 307,196 67,51 91,77 119,110 28,33 60,74 81,108 21,35 30,63 33,78 2,14 -2,14 -361,5 -359,-9 -1074,-27 -1865,-39z"/>
   <path class="fil19" d="M15351 15586c41,0 81,10 120,28 38,19 68,46 90,81 22,35 34,77 34,127 0,51 -12,94 -34,129 -22,36 -52,63 -90,81 -39,18 -79,28 -120,28l-161 0 0 283 -160 0 0 -757 321 0zm-31 331c35,0 62,-8 80,-25 18,-16 27,-39 27,-70 0,-30 -9,-54 -27,-69 -18,-17 -45,-25 -80,-25l-130 0 0 189 130 0z"/>
   <path id="1" class="fil19" d="M16325 15968c0,-40 -8,-78 -24,-116 -17,-36 -43,-66 -76,-89 -35,-23 -77,-36 -128,-37 -50,0 -92,12 -125,35 -35,24 -60,54 -76,90 -17,36 -26,75 -26,117 0,42 9,81 26,116 16,37 41,67 76,90 33,24 75,36 125,36 51,-2 93,-14 128,-38 33,-23 59,-52 76,-89 16,-37 24,-75 24,-115zm-227 -396c109,0 203,39 280,116 77,78 116,171 116,280 0,109 -39,202 -116,279 -77,78 -171,116 -280,116 -109,0 -202,-38 -279,-116 -77,-77 -116,-170 -116,-279 0,-109 39,-202 116,-280 77,-77 170,-116 279,-116z"/>
   <polygon id="2" class="fil19" points="17052,16344 16603,16344 16603,15586 16763,15586 16763,16201 17052,16201 "/>
   <polygon id="3" class="fil19" points="17373,15586 17373,16344 17213,16344 17213,15586 "/>
   <path id="4" class="fil19" d="M17671 16008c4,34 13,64 27,91 20,37 46,65 80,84 33,19 70,29 112,29 45,0 85,-10 118,-31 34,-22 59,-49 74,-84l125 77c-22,60 -62,106 -119,140 -57,33 -123,49 -197,49 -71,0 -137,-15 -196,-47 -59,-31 -106,-76 -141,-135 -34,-59 -51,-129 -51,-212 0,-82 17,-152 51,-211 35,-59 82,-104 141,-135 59,-32 125,-47 196,-47 74,0 140,16 197,49 57,34 97,80 119,139l-125 78c-15,-35 -40,-63 -74,-84 -33,-21 -73,-31 -118,-31 -42,0 -79,10 -112,29 -34,19 -60,47 -80,84 -14,27 -23,57 -27,91 -1,21 -1,46 0,77z"/>
   <polygon id="5" class="fil19" points="18803,16344 18328,16344 18328,15586 18792,15586 18792,15728 18488,15728 18488,15890 18760,15890 18760,16030 18488,16030 18488,16202 18803,16202 "/>
  </g>
  <g id="_2997297739568">
   <path class="fil20" d="M23232 13598l178 0c2,-7 3,-13 5,-20 3,-14 7,-27 10,-39 8,-23 15,-39 28,-54 13,-15 30,-29 46,-43 15,-14 28,-28 38,-43 10,-15 17,-32 15,-45 -2,-13 -14,-24 -24,-29 -9,-5 -17,-5 -21,-5 -4,0 -4,0 -5,-55 -1,-54 -3,-164 -6,-225 -3,-61 -8,-74 -15,-83 -7,-9 -17,-13 -28,-15 -11,-1 -22,1 -33,7 -11,6 -21,16 -26,43 -5,27 -6,72 -6,95 0,22 0,22 -14,25 -14,4 -41,10 -60,17 -19,6 -30,13 -53,17 -24,5 -59,7 -81,10 -23,3 -34,6 -39,39 -5,32 -5,93 -2,141 3,49 10,85 20,113 10,28 24,49 36,68 12,19 22,36 29,54 1,2 2,4 2,6 3,7 4,14 6,21z"/>
   <path class="fil21" d="M23232 13598l45 0c-3,-13 -7,-28 -12,-40 -5,-12 -10,-22 -16,-32 -7,-10 -14,-20 -22,-33 -9,-13 -18,-29 -27,-50 -9,-21 -17,-48 -22,-78 -5,-30 -7,-64 -8,-92 0,-28 0,-50 3,-65 3,-15 9,-23 18,-28 10,-5 23,-8 35,-7 11,1 21,5 30,7 9,2 18,1 27,-3 8,-4 18,-12 27,-17 9,-6 18,-9 29,-8 11,0 23,5 33,4 10,0 17,-6 22,-14 5,-8 6,-17 8,-36 1,-18 3,-46 5,-69 2,-23 5,-41 9,-55 5,-13 10,-21 18,-26 7,-5 16,-7 27,-6 5,0 10,1 15,2 -6,-5 -14,-9 -23,-10 -11,-1 -22,1 -33,7 -11,6 -21,16 -26,43 -5,27 -6,72 -6,95 0,22 0,22 -14,25 -14,4 -41,10 -60,17 -19,6 -30,13 -53,17 -24,5 -59,7 -81,10 -23,3 -34,6 -39,39 -5,32 -5,93 -2,141 3,49 10,85 20,113 10,28 24,49 36,68 12,19 22,36 29,54 1,2 2,4 2,6 3,7 4,14 6,21z"/>
   <path class="fil22" d="M23177 13577l0 130c0,131 0,393 5,538 4,144 13,172 29,193 15,22 36,36 129,43 93,7 257,7 339,7l82 0 -1 147 -1 591 0 137 101 0c28,0 28,0 29,12 0,6 0,15 0,30 20,3 43,7 68,12 63,11 141,23 251,33 15,1 32,3 48,4l0 -12 63 0c7,28 19,53 36,65 25,18 63,6 93,-6 30,-13 51,-25 69,-52 1,-2 3,-5 4,-7l59 0 0 17c1,0 2,0 2,0l106 0c7,0 14,3 19,7 33,-2 66,-4 98,-6 2,-8 12,-7 46,-7l34 1c33,-4 62,-7 85,-11 24,-3 42,-7 56,-9 9,-5 17,-9 23,-12 1,-56 3,-56 15,-56 6,0 16,-1 25,0 1,-15 1,-47 1,-129l0 -533 0 -134 43 24 156 88 0 -482c-30,-15 -72,-34 -109,-50 -43,-19 -80,-33 -119,-46 -39,-13 -79,-25 -121,-35 -41,-10 -84,-18 -123,-26 -40,-7 -76,-14 -104,-20 -29,-6 -50,-10 -76,-18 -4,-1 -8,-2 -13,-3 -11,-4 -22,-7 -33,-11l0 -5 0 -49c-1,0 -2,0 -3,0 -4,4 -9,7 -13,9 -16,10 -30,16 -49,20 -20,5 -45,9 -71,11 -25,2 -51,2 -77,-1 -26,-2 -52,-6 -72,-11 -19,-6 -31,-12 -41,-17 -5,-3 -9,-5 -13,-8 0,0 -1,0 -1,0l0 50c-5,3 -11,5 -16,8 -8,4 -16,10 -24,16 -30,9 -66,19 -128,32 -83,18 -214,41 -309,56 -95,15 -156,22 -195,26 -40,4 -59,6 -72,6 -14,1 -21,1 -26,1 -5,0 -6,0 -7,-93 0,-93 0,-278 0,-371l0 -92 -50 -1 -9 0 -188 -1 -1 0 -49 0z"/>
   <path class="fil23" d="M25092 14571l41 23 156 88 0 -48 -15 -5c-37,-12 -110,-37 -146,-49 -37,-13 -37,-13 -37,-13l1 4z"/>
   <path class="fil23" d="M23177 13577l0 130c0,131 0,393 5,538 4,144 13,172 29,193 15,22 36,36 129,43 93,7 257,7 339,7l80 0c-2,-14 -8,-18 -15,-22 -8,-4 -19,-7 -43,-10 -24,-2 -63,-4 -123,-7 -61,-4 -144,-9 -201,-14 -56,-5 -86,-9 -105,-15 -20,-6 -29,-14 -36,-24 -7,-10 -11,-22 -17,-156 -6,-134 -13,-390 -19,-522 -5,-106 -9,-132 -14,-141l-9 0z"/>
   <polygon class="fil20" points="24251,13914 24591,13914 24591,14021 24448,14149 24401,14149 24251,14010 "/>
   <path class="fil24" d="M24227 13916c-2,3 7,11 15,17 8,6 14,10 23,15 10,5 22,11 41,17 20,5 46,9 72,11 26,3 52,3 77,1 26,-2 51,-6 71,-11 19,-4 33,-10 49,-20 16,-10 34,-24 43,-32 8,-7 8,-7 8,-7 0,0 0,0 -8,2 -8,1 -25,5 -56,9 -32,4 -80,8 -124,9 -45,0 -87,-4 -117,-6 -30,-2 -48,-4 -63,-5 -16,-2 -29,-3 -31,0z"/>
   <path class="fil20" d="M23851 13185c-3,23 -9,56 -11,72 -3,16 -3,16 -3,16 0,0 0,0 -2,0 -2,0 -6,0 -12,2 -7,2 -14,5 -22,13 -8,7 -15,18 -19,35 -5,16 -6,38 -5,57 0,19 3,35 7,49 4,15 10,28 17,37 8,10 18,16 28,20 10,5 20,7 31,8 12,1 25,1 31,1 6,0 6,0 6,0 0,0 0,0 1,24l0 21c2,15 5,32 8,49 5,26 11,49 18,72 7,23 15,45 24,64 9,19 18,35 27,49 10,14 20,26 33,39 13,14 29,29 45,41 15,13 30,22 48,32 17,9 37,19 58,27 22,9 46,16 68,22 22,5 42,8 62,10 19,2 38,3 63,3 25,1 56,1 89,0 33,-1 67,-3 100,-6 33,-2 64,-6 93,-12 29,-7 56,-16 81,-29 26,-13 49,-29 69,-44 20,-14 36,-27 51,-44 15,-17 28,-37 42,-58 13,-21 27,-42 39,-66 11,-23 22,-49 30,-75 8,-25 14,-50 19,-73 5,-23 8,-45 9,-56 2,-10 2,-10 2,-10 0,0 0,0 2,0 2,1 6,2 14,3 7,0 18,0 31,-4 2,-1 4,-1 7,-2 4,-2 8,-5 11,-8 11,-10 18,-25 22,-44 5,-20 7,-43 8,-65 1,-22 0,-42 -4,-58 -5,-16 -13,-28 -20,-34 -6,-7 -11,-9 -13,-10 -2,0 -2,0 -2,-15 -1,-15 -2,-45 -2,-60 -1,-15 -1,-15 -2,-35 0,-21 -2,-61 -8,-91 -5,-29 -14,-48 -51,-64 -37,-17 -102,-30 -208,-36 -106,-7 -253,-8 -373,-6 -120,2 -215,7 -285,15 -71,7 -118,17 -150,33 -32,15 -49,35 -63,59 -13,24 -22,51 -28,72 -6,21 -7,36 -11,60z"/>
   <path class="fil21" d="M23818 13277c-5,2 -11,5 -17,11 -8,7 -15,18 -19,35 -5,16 -6,38 -5,57 0,19 3,35 7,49 4,15 10,28 17,37 8,10 18,16 28,20 10,5 20,7 31,8 12,1 25,1 31,1 6,0 6,0 6,0 0,0 0,0 1,24l0 21c2,15 5,32 8,49 5,26 11,49 18,72 7,23 15,45 24,64 9,19 18,35 27,49 10,14 20,26 33,39 13,14 29,29 45,41 15,13 30,22 48,32 17,9 37,19 58,27 22,9 46,16 68,22 22,5 42,8 62,10 19,2 38,3 63,3 25,1 56,1 89,0 33,-1 67,-3 100,-6 33,-2 64,-6 93,-12 29,-7 56,-16 81,-29 26,-13 49,-29 69,-44 20,-14 36,-27 51,-44 15,-17 28,-37 42,-58 13,-21 27,-42 39,-66 11,-23 22,-49 30,-75 8,-25 14,-50 19,-73 5,-23 8,-45 9,-56 2,-10 2,-10 2,-10 0,0 0,0 2,0 2,1 6,2 14,3 7,0 18,0 31,-4 2,-1 4,-1 7,-2 4,-2 8,-5 11,-8 11,-10 18,-25 22,-44 5,-20 7,-43 8,-65 1,-22 0,-42 -4,-58 -5,-16 -13,-28 -20,-34 -2,-3 -4,-4 -6,-6 2,9 5,20 8,32 2,15 4,32 3,50 -1,18 -5,39 -10,56 -6,17 -13,30 -23,39 -11,9 -24,13 -34,15 -10,2 -18,2 -22,1 -4,0 -4,0 -4,0 0,0 0,0 -1,7 -2,6 -4,19 -8,39 -4,19 -10,45 -19,72 -8,27 -19,54 -31,78 -12,23 -24,43 -39,63 -14,21 -32,41 -50,59 -18,18 -36,34 -55,48 -18,14 -36,27 -56,39 -20,12 -43,23 -68,31 -25,8 -51,14 -80,18 -29,3 -61,5 -96,6 -34,2 -71,3 -103,2 -32,0 -59,-1 -87,-6 -28,-5 -59,-13 -86,-22 -27,-10 -51,-21 -72,-33 -22,-13 -41,-27 -57,-42 -17,-15 -31,-30 -44,-49 -13,-19 -25,-41 -35,-64 -11,-22 -19,-44 -27,-69 -7,-25 -13,-52 -17,-80 -4,-27 -7,-56 -8,-70 -1,-14 -1,-14 -1,-14 0,0 0,0 -8,3 -8,3 -24,9 -37,10 -13,1 -23,-2 -32,-9 -9,-7 -17,-19 -23,-31 -6,-13 -11,-27 -14,-45 -3,-18 -4,-38 -4,-56 1,-18 4,-34 8,-44 3,-6 6,-10 9,-14z"/>
   <path class="fil25" d="M24343 13787c4,4 9,9 14,14 5,4 10,8 15,12 6,3 12,5 19,7 8,2 17,4 26,4 10,1 19,1 29,1 10,-1 21,-1 30,-3 8,-1 13,-4 18,-7 4,-3 8,-6 12,-11 4,-4 7,-11 9,-14 1,-3 1,-3 -15,-4 -15,-1 -47,-3 -78,-5 -31,-2 -62,-5 -75,-4 -13,1 -8,5 -4,10z"/>
   <path class="fil25" d="M24590 13533c-8,1 -18,1 -26,1 -8,-1 -15,-2 -21,-5 -5,-2 -9,-6 -13,-10 -4,-4 -8,-9 -13,-16 -4,-7 -10,-17 -15,-30 -6,-13 -11,-28 -14,-44 -4,-15 -6,-31 -7,-43 -1,-12 -1,-21 0,-30 1,-10 2,-21 6,-31 3,-11 10,-21 16,-29 6,-9 12,-16 19,-21 8,-5 16,-9 22,-11 6,-2 10,-3 17,-1 6,2 15,7 29,29 14,22 33,61 42,97 10,37 10,70 6,92 -4,23 -13,33 -19,40 -6,6 -9,8 -13,9 -4,2 -9,3 -16,3z"/>
   <path class="fil25" d="M24322 13528c9,-1 17,-4 24,-11 7,-7 14,-18 21,-33 7,-14 15,-32 20,-50 5,-18 5,-35 5,-53 0,-17 0,-34 -2,-48 -2,-13 -5,-24 -10,-33 -4,-9 -11,-18 -17,-24 -7,-6 -13,-10 -21,-13 -7,-3 -15,-4 -28,-4 -13,0 -31,1 -46,5 -16,3 -28,9 -38,30 -11,20 -20,55 -18,88 3,33 17,65 32,89 15,25 31,42 44,51 13,8 24,8 34,6z"/>
   <path class="fil25" d="M23994 13111c0,46 0,128 0,170 0,41 0,41 -9,38 -9,-4 -27,-11 -42,-21 -16,-9 -29,-20 -40,-49 -11,-28 -18,-74 -18,-113 1,-40 11,-73 26,-89 16,-17 37,-16 52,-13 15,3 23,8 28,15 4,7 3,16 3,62z"/>
   <path class="fil25" d="M24913 13243c0,-43 0,-120 0,-159 0,-39 0,-39 16,-39 15,0 46,0 63,11 17,11 20,33 21,57 1,24 0,51 -4,72 -4,22 -11,37 -27,56 -16,19 -41,40 -54,47 -13,6 -14,-2 -15,-45z"/>
   <path class="fil26" d="M24091 12867c-180,2 -197,-2 -228,-22 -2,0 -3,0 -4,-1 -7,21 -17,57 -22,85 -2,14 -4,26 -4,36l0 0 0 0c-1,5 -1,11 -1,22 0,16 -1,42 0,72 1,31 3,66 5,91 1,20 2,34 4,45 1,7 2,13 2,19 1,10 2,17 3,22 1,5 2,8 2,11 1,4 1,4 14,7l52 13 11 3 -1 -2 3 1 0 -32 0 -134 0 -33 35 9c35,10 105,30 182,43 78,13 164,21 240,23 76,3 143,1 206,-3 63,-5 123,-11 185,-23 62,-12 127,-29 159,-37l32 -8 0 29 0 117 0 29 16 -10 34 -22 28 -18 16 -10 -1 -24c0,-12 -1,-30 -2,-50l0 -6c0,-17 0,-38 0,-58 0,-20 0,-40 -1,-57 0,-2 0,-4 0,-6 0,-16 -2,-49 -8,-80 -5,-27 -13,-53 -23,-75 -23,14 -56,14 -201,18 -183,5 -546,14 -733,16z"/>
   <path class="fil27" d="M24983 12780c11,1 25,18 37,42 12,24 23,54 28,86 6,31 8,64 8,80 1,17 1,17 -71,17 -71,0 -214,0 -418,-1 -204,0 -469,-1 -602,-1 -132,0 -132,0 -132,-11 -1,-11 -1,-32 4,-63 6,-31 17,-70 23,-90 6,-20 6,-20 106,-22 99,-3 298,-8 480,-11 181,-2 345,-1 432,-8 86,-6 94,-20 105,-18z"/>
   <ellipse class="fil24" cx="24693" cy="13268" rx="94" ry="31"/>
   <path class="fil28" d="M25027 12832c12,-4 20,-11 31,-21 31,-29 93,-86 123,-119 4,-3 7,-7 9,-10 11,-12 13,-15 13,-18 0,-5 -3,-9 -39,-30 -36,-22 -106,-61 -141,-80 -35,-20 -35,-20 -35,-20 0,0 0,0 -82,-25 -82,-24 -245,-74 -338,-101 -92,-26 -113,-30 -133,-29 -11,0 -22,2 -46,8 -15,3 -31,7 -51,12 -56,14 -135,35 -216,60l-205 55c-92,24 -92,24 -120,48 -21,19 -59,52 -88,78 -24,16 -35,27 -40,37 -8,8 -8,12 -3,17 1,11 11,24 37,45 34,27 95,68 126,88 17,12 25,16 34,18 31,20 48,24 228,22 187,-2 550,-11 733,-16 148,-4 180,-4 203,-19z"/>
   <path class="fil27" d="M25031 12830c10,-4 17,-10 27,-19 31,-29 93,-86 123,-119 4,-3 7,-7 9,-10 11,-12 13,-15 13,-18 0,-5 -3,-9 -39,-30 -36,-22 -106,-61 -141,-80 -35,-20 -35,-20 -35,-20l-31 -10c47,33 116,82 154,110 45,33 45,39 38,51 -8,12 -24,32 -45,58 -22,26 -50,59 -64,76 -4,5 -7,9 -9,11z"/>
   <path class="fil27" d="M23850 12532c-28,9 -34,14 -53,30 -21,19 -59,52 -88,78 -24,16 -35,27 -40,37 -8,8 -8,12 -3,17 1,11 11,24 37,45 34,27 95,68 126,88 17,11 24,16 32,18 -3,-3 -7,-6 -12,-10 -28,-24 -85,-73 -114,-100 -29,-28 -31,-36 -30,-43 0,-8 2,-16 22,-40 19,-23 56,-61 79,-83 22,-22 30,-28 43,-36l1 -1z"/>
   <ellipse class="fil24" cx="24173" cy="13270" rx="94" ry="31"/>
   <ellipse class="fil29" cx="24433" cy="12636" rx="113" ry="137"/>
   <path class="fil30" d="M24830 13259l-269 0c-11,0 -22,5 -30,13l0 0c-3,3 -4,6 -6,10 -1,4 -3,8 -3,13 -1,5 -1,11 -1,14 0,3 0,3 0,3 0,0 0,0 -5,-2 -5,-1 -16,-4 -28,-6 -13,-3 -29,-5 -44,-6 -15,-1 -30,-1 -43,1 -13,1 -23,4 -31,7 -8,3 -14,5 -17,7 -3,1 -3,1 -3,1 0,0 0,0 0,-6 0,-5 0,-16 -2,-24 -1,-2 -1,-4 -2,-5 -7,-12 -21,-20 -36,-20l-268 0c-18,0 -33,11 -40,27l-153 -35 150 139 1 0 0 102c0,23 19,42 42,42l268 0c24,0 43,-19 43,-42l0 -124 166 0 0 124c0,23 19,42 42,42l269 0c23,0 42,-19 42,-42l0 -125 188 -179 -198 86c-8,-9 -19,-15 -32,-15z"/>
   <path class="fil31" d="M24825 13259l-264 0c-11,0 -22,5 -30,13l0 0c-3,3 -4,6 -6,10 -1,4 -3,8 -3,13 -1,5 -1,11 -1,14 0,3 0,3 0,3l-1 0 0 14c0,11 -1,27 -1,42l0 0 0 124c0,23 19,42 42,42l145 0 1 -1c12,-8 16,-20 19,-26 2,-6 2,-6 -25,-5 -27,0 -81,0 -111,-2 -30,-2 -35,-7 -38,-14 -3,-7 -4,-16 -5,-41 0,-25 -1,-66 0,-95 1,-29 3,-46 7,-56 5,-9 11,-12 17,-13 6,-1 13,-1 43,-1 30,0 83,-1 117,0 35,0 51,2 63,0 13,-2 22,-6 27,-14 2,-2 3,-4 4,-7z"/>
   <path class="fil31" d="M24297 13259l-255 0c-18,0 -33,11 -40,27l-153 -35 150 139 1 0 0 102c0,23 19,42 42,42l156 0c13,-8 19,-17 23,-22 5,-7 5,-7 -19,-6 -23,0 -71,1 -101,1 -31,-1 -46,-3 -56,-6 -10,-3 -15,-8 -18,-13 -4,-6 -5,-12 -5,-41 -1,-30 -1,-83 0,-114 2,-31 6,-38 11,-44 5,-6 10,-9 22,-11 13,-2 31,-2 57,-2 25,0 57,0 87,1 31,0 59,1 78,-5 10,-3 17,-8 20,-13z"/>
   <path class="fil32" d="M24334 13266c-7,-4 -15,-7 -24,-7l-67 0c0,23 1,57 -1,84 -2,33 -7,57 -15,81 -8,24 -19,47 -33,66 -13,19 -29,34 -44,44l105 0c7,-7 14,-16 22,-26 11,-16 21,-35 29,-56 8,-21 14,-45 18,-69 4,-25 7,-50 8,-72 2,-18 2,-33 2,-45z"/>
   <path class="fil32" d="M24830 13259l-67 0c0,16 0,36 0,55 -1,29 -2,54 -7,78 -5,25 -13,49 -23,70 -10,21 -21,39 -34,53 -6,8 -12,14 -17,19l85 0c2,-1 4,-3 6,-4 10,-9 20,-19 29,-34 10,-15 20,-33 27,-53 7,-21 13,-44 16,-68 4,-24 6,-48 7,-72 0,-13 0,-27 -1,-38 -6,-4 -14,-6 -21,-6z"/>
   <path class="fil33" d="M24435 13736c-67,0 -128,-11 -173,-29 6,55 81,98 173,98 92,0 167,-43 173,-98 -45,18 -106,29 -173,29z"/>
   <path class="fil34" d="M24371 13614c-13,-1 -31,-1 -41,-4 -10,-4 -12,-10 -12,-20 1,-10 4,-23 11,-32 6,-9 16,-14 29,-18 12,-4 28,-6 36,-7 8,-1 8,-1 8,-1 0,0 0,0 0,13 0,14 0,41 0,55 0,14 0,14 0,14 0,0 0,0 -4,0 -5,0 -14,0 -27,0z"/>
   <line class="fil17" x1="24113" y1="14469" x2="24113" y2= "14856" />
   <line class="fil17" x1="23938" y1="14596" x2="24293" y2= "14596" />
   <rect class="fil35" x="25289" y="13874" width="843" height="1152"/>
   <rect class="fil9" x="25365" y="13950" width="691" height="999"/>
   <path class="fil20" d="M25958 13769c-25,-7 -53,-15 -80,-20 -27,-6 -52,-8 -70,-8 -19,0 -30,2 -38,8 -7,5 -12,13 -17,19 -5,7 -11,11 -22,16 -11,5 -28,11 -41,20 -14,8 -25,19 -31,29 -6,11 -8,22 0,31 7,9 22,15 34,24 11,8 18,17 28,28 10,10 23,21 44,29 20,9 47,14 75,15 29,2 58,0 82,-9 25,-10 44,-27 66,-39 21,-13 43,-22 66,-29 22,-7 44,-13 53,-21 8,-9 2,-20 -13,-32 -15,-13 -39,-27 -63,-37 -24,-11 -47,-16 -73,-24z"/>
   <path class="fil21" d="M25770 13948c20,6 45,11 70,12 29,2 58,0 82,-9 25,-10 44,-27 66,-39 21,-13 43,-22 66,-29 10,-3 19,-6 28,-9 -12,1 -25,4 -41,8 -22,6 -51,17 -78,28 -27,10 -51,20 -77,26 -25,7 -50,9 -74,10 -14,1 -28,1 -42,2z"/>
   <path class="fil21" d="M25958 13769c-25,-7 -53,-15 -80,-20 -27,-6 -52,-8 -70,-8 -19,0 -30,2 -38,8 -7,5 -12,13 -17,19 -5,7 -11,11 -22,16 -11,5 -28,11 -41,20 -14,8 -25,19 -31,29 -6,11 -8,22 0,31 7,9 22,15 34,24 4,3 8,6 12,10l0 -1c1,-11 5,-26 12,-38 7,-12 16,-21 27,-28 10,-6 22,-10 35,-15 13,-4 27,-11 49,-14 22,-4 50,-6 82,-6 31,0 65,2 95,7 31,5 59,14 96,37l6 3c-3,-4 -7,-9 -13,-13 -15,-13 -39,-27 -63,-37 -24,-11 -47,-16 -73,-24z"/>
   <rect class="fil9" x="24305" y="15492" width="226" height="109"/>
   <path class="fil17 str3" d="M23887 15617c-1,14 -1,27 -2,38 -5,49 -12,62 -30,70 -17,8 -44,11 -66,8 -22,-3 -39,-12 -51,-25 -11,-14 -16,-31 -19,-89 -2,-59 -1,-157 -1,-207 0,-49 0,-49 29,-49 28,0 85,0 113,0 28,0 28,0 29,12 0,11 0,31 1,74 38,0 87,1 116,2 37,2 38,3 41,29 2,27 6,78 5,106 -1,29 -8,34 -43,35 -32,1 -87,-1 -122,-4z"/>
   <rect class="fil17 str3" x="24119" y="15459" width="165" height="173" rx="30" ry="26"/>
   <path class="fil36" d="M24010 17366c149,0 269,71 269,158l22 0 0 75 -588 0 0 -75 28 0c0,-87 120,-158 269,-158z"/>
   <path class="fil36" d="M24766 17366c148,0 269,71 269,158l21 0 0 75 -587 0 0 -75 27 0c0,-87 121,-158 270,-158z"/>
   <rect class="fil23" x="24379" y="14153" width="85.89" height="1309.83"/>
   <path class="fil23" d="M24223 14337c-10,-19 -30,-56 -43,-91 -13,-34 -19,-67 -22,-93 -2,-26 -2,-45 4,-65 2,-9 6,-18 10,-27 -7,12 -14,26 -19,40 -6,18 -9,37 -10,56 -2,18 -2,38 3,62 4,24 13,54 23,78 10,25 23,44 33,59 11,16 21,26 26,32l4 5 30 -35 117 -138 0 -41 -112 135 -34 41 -10 -18z"/>
   <path class="fil23" d="M24465 14168l0 44c4,4 8,10 14,18l104 129 25 32 6 -4c6,-4 17,-12 28,-27 12,-15 23,-37 33,-62 9,-24 18,-51 23,-79 5,-29 8,-59 7,-85 -2,-27 -8,-51 -21,-74 -11,-19 -27,-38 -41,-53 -2,-1 -4,-1 -6,-2l-13 -3c14,8 28,19 39,33 13,15 23,34 28,53 5,20 6,39 3,65 -2,26 -8,59 -21,93 -13,35 -33,72 -43,91l-10 18 -34 -41 -121 -146z"/>
   <path class="fil23" d="M23967 14468c-6,2 -12,5 -17,9 -5,5 -10,11 -13,19 -4,7 -6,16 -7,70 -1,53 -1,152 0,204 1,53 2,59 5,65 3,7 6,13 12,17 5,4 13,7 28,9 15,1 36,2 83,2 46,0 117,-1 155,-1 39,-1 45,-1 53,-4 7,-2 16,-6 23,-13 6,-7 10,-16 13,-24 2,-7 2,-14 1,-67 0,-53 -2,-152 -4,-205 -1,-53 -3,-59 -7,-64 -4,-5 -10,-9 -16,-11 -6,-3 -13,-5 -16,-6 -3,-1 -3,-1 -3,-1 0,0 0,0 2,1 2,2 6,4 9,7 4,3 8,8 11,14 3,6 5,14 7,65 1,51 1,145 0,196 -1,51 -3,59 -5,66 -2,7 -5,14 -11,17 -7,4 -16,6 -64,7 -49,0 -137,-1 -184,-2 -47,-2 -54,-3 -59,-7 -5,-4 -9,-9 -11,-60 -1,-50 0,-146 1,-199 1,-53 2,-64 4,-72 2,-8 5,-13 10,-19 4,-5 10,-11 10,-13 0,-2 -5,-2 -10,0z"/>
   <rect class="fil23" x="23943" y="14583" width="350.064" height="23.4321"/>
   <rect class="fil23" x="24103" y="14467" width="19.5129" height="382.61"/>
   <line class="fil17" x1="24772" y1="14479" x2="24772" y2= "14867" />
   <line class="fil17" x1="24597" y1="14606" x2="24951" y2= "14606" />
   <path class="fil29" d="M24660 14608c58,-2 171,-2 229,-3 58,-1 61,-4 63,-8 1,-4 1,-9 1,-18 -1,-9 -2,-22 -3,-28 0,-7 0,-7 -59,-7 -58,1 -175,2 -233,2 -59,1 -59,1 -59,7 -1,6 -2,19 -3,31 0,13 0,26 2,29 1,3 4,-2 62,-5z"/>
   <path class="fil23" d="M24625 14479c-5,1 -11,4 -16,9 -5,4 -10,11 -14,18 -3,8 -5,16 -6,70 -1,54 -1,152 -1,205 1,52 3,59 6,65 2,6 6,12 11,17 6,4 14,6 28,8 15,2 37,2 83,2 46,0 117,0 156,-1 38,0 45,-1 52,-3 8,-3 17,-7 23,-14 7,-6 11,-15 13,-23 2,-8 2,-15 2,-68 -1,-52 -2,-152 -4,-204 -2,-53 -4,-59 -8,-64 -4,-5 -9,-9 -15,-12 -7,-3 -13,-5 -16,-5 -4,-1 -4,-1 -4,-1 0,0 0,0 2,1 2,1 6,3 10,6 4,4 7,8 10,14 3,7 6,15 7,66 1,51 1,144 1,195 -1,51 -3,60 -5,67 -3,7 -6,13 -12,17 -6,4 -15,6 -64,6 -48,0 -136,0 -184,-2 -47,-1 -53,-3 -59,-7 -5,-3 -9,-9 -10,-59 -2,-51 -1,-146 0,-199 1,-54 3,-64 5,-72 2,-9 5,-14 9,-19 5,-6 10,-11 10,-14 1,-2 -5,-1 -10,1z"/>
   <rect class="fil23" x="24602" y="14594" width="350.064" height="23.4321"/>
   <rect class="fil23" x="24762" y="14595" width="19.5129" height="265.615"/>
   <path class="fil29" d="M24081 14047c-8,0 -17,0 -33,1 -16,1 -37,2 -53,5 -15,3 -25,7 -30,11 -4,4 -4,8 -1,12 3,3 8,5 24,4 15,-1 41,-6 62,-12 20,-5 34,-11 39,-15 4,-4 -1,-5 -8,-6z"/>
   <path class="fil29" d="M23919 14068c-9,-1 -20,0 -31,1 -11,1 -21,2 -31,4 -11,2 -21,6 -28,10 -7,4 -11,9 -12,13 -1,4 2,7 6,10 5,2 11,3 22,3 12,0 28,-1 42,-3 14,-2 25,-5 34,-9 8,-3 13,-6 16,-10 3,-4 3,-8 0,-11 -3,-4 -9,-7 -18,-8z"/>
   <path class="fil29" d="M24780 14039c8,-1 17,0 33,1 15,1 37,4 53,7 15,3 25,7 29,11 4,5 4,9 1,12 -3,3 -8,5 -24,4 -15,-2 -41,-8 -61,-13 -20,-6 -34,-13 -39,-17 -4,-4 1,-5 8,-5z"/>
   <path class="fil29" d="M24941 14064c9,-1 20,0 31,2 11,1 21,2 32,4 10,3 20,6 27,11 7,4 11,9 12,13 0,4 -2,8 -7,10 -5,2 -11,3 -22,3 -12,0 -28,-2 -41,-5 -14,-2 -26,-5 -34,-9 -9,-3 -14,-7 -16,-11 -3,-4 -4,-7 0,-11 3,-3 9,-6 18,-7z"/>
   <circle class="fil23" cx="24464" cy="15292" r="36"/>
   <circle class="fil23" cx="24466" cy="15119" r="36"/>
   <circle class="fil23" cx="24468" cy="14945" r="36"/>
   <circle class="fil23" cx="24470" cy="14771" r="36"/>
   <circle class="fil23" cx="24472" cy="14597" r="36"/>
   <circle class="fil23" cx="24474" cy="14423" r="36"/>
   <rect class="fil37" x="25498" y="14015" width="413.833" height="36.4407"/>
   <circle class="fil38" cx="25501" cy="14820" r="74"/>
   <path class="fil17 str4" d="M25808 14830c0,0 33,-33 8,-1 -60,72 35,-9 59,-21 -84,72 -43,43 36,4 56,-27 -28,5 -52,21 -135,90 79,-5 74,-29 -39,1 -125,100 -21,20 11,-9 53,-72 13,-40 0,0 -128,109 -78,75 13,-9 74,-40 77,-42 -47,6 -120,105 -7,23 25,-18 -36,20 15,-3 29,-13 -27,-4 -26,7 39,0 56,-33 20,-11 -12,8 11,-1 -4,5 -18,6 53,6 76,-3 1,0 2,0 4,0"/>
   <path class="fil39" d="M23889 15402c0,-13 0,-21 0,-27 -1,-12 -1,-12 -29,-12l-101 0 -12 0c-29,0 -29,0 -29,49 0,50 -1,148 1,207 3,58 8,75 19,89 4,5 9,9 15,12 0,59 0,133 1,228 2,345 7,969 10,1280l1 230c43,-54 137,-92 245,-92 110,0 205,39 246,94 1,-33 3,-80 5,-146 6,-226 19,-677 29,-917 10,-240 16,-269 27,-292 10,-24 24,-42 46,-51 23,-9 52,-9 77,-1 25,9 44,26 56,54 11,29 13,69 15,311 2,242 3,686 4,908l0 140c40,-59 137,-100 251,-100 108,0 202,38 245,93l6 -214 39 -1226 4 -99c4,2 8,3 14,3 8,0 18,-3 26,-8 8,-5 14,-12 19,-19 6,-8 9,-16 12,-33 3,-16 5,-41 5,-116 1,-76 1,-202 0,-270 -1,-68 -2,-76 -5,-84 -3,-8 -6,-15 -12,-20 -6,-4 -13,-7 -21,-9 -8,-2 -17,-4 -25,-3 -6,0 -12,2 -16,6 -1,1 -2,1 -3,2l-1 1c-5,6 -9,16 -11,24 -3,9 -3,18 -3,22 0,5 0,5 -8,7 -7,2 -21,5 -61,11 -40,5 -106,11 -140,16 -20,2 -29,4 -34,7 -26,2 -57,5 -90,6 -35,0 -73,-2 -105,-2 -33,-1 -60,0 -106,-1 -46,-1 -112,-3 -158,-5 -45,-2 -71,-3 -107,-6 -36,-3 -84,-8 -138,-15 -55,-8 -115,-18 -152,-24 -24,-4 -38,-6 -51,-8zm1157 488l0 0 0 21 0 -21z"/>
   <path class="fil36" d="M24983 17431c11,9 20,18 28,28l6 -214 39 -1226 4 -99c4,2 8,3 14,3 8,0 18,-3 26,-8 3,-2 7,-5 10,-8 -1,-33 -2,-64 -3,-92 -10,-186 -38,-227 -54,-233 -16,-7 -20,21 -30,350 -10,328 -26,958 -34,1273 -3,108 -5,179 -6,226zm63 -1541l0 0 0 21 0 -21z"/>
   <path class="fil36" d="M24237 17439c7,7 14,14 19,21 1,-33 3,-80 5,-146 6,-226 19,-677 29,-917 10,-240 16,-269 27,-292 10,-24 24,-42 46,-51 23,-9 52,-9 77,-1 25,9 44,26 56,54 11,29 13,69 15,311 2,242 3,686 4,908l0 140c7,-10 14,-18 23,-27l1 -137c1,-209 4,-629 4,-863 0,-233 -3,-280 -9,-316 -7,-37 -19,-63 -36,-82 -17,-20 -41,-33 -67,-39 -26,-6 -55,-5 -78,4 -24,10 -43,28 -57,56 -13,28 -21,65 -27,133 -5,67 -9,165 -12,317 -4,152 -7,358 -11,527 -3,170 -7,303 -9,378l0 22z"/>
   <path class="fil36" d="M23733 15700c1,3 3,5 5,8 4,5 9,9 15,12 0,59 0,133 1,228 2,345 7,969 10,1280l1 230c6,-7 13,-14 20,-21l-1 -255c-2,-297 -5,-890 -8,-1197 -3,-308 -4,-328 -18,-324 -6,2 -15,10 -25,39z"/>
   <path class="fil31" d="M23896 15636c-3,8 -3,20 -6,34 -3,15 -8,32 -15,44 -8,13 -17,20 -26,25 -10,5 -21,7 -33,6 -11,0 -25,-2 -37,-5 -13,-2 -24,-5 -34,-10 -11,-6 -20,-13 -29,-53 -9,-39 -16,-111 -18,-170 -1,-59 4,-104 7,-127 4,-24 5,-25 36,-27 31,-1 93,-2 125,-1 32,1 36,3 36,17 1,14 -2,39 -3,52 -2,13 -2,13 19,14 20,0 60,2 86,5 25,3 36,8 42,16 7,8 8,20 10,44 1,23 2,59 1,80 -1,22 -3,30 -7,36 -4,6 -9,10 -33,11 -23,0 -65,-3 -89,-3 -23,1 -29,4 -32,12z"/>
   <path class="fil31" d="M24791 15466c1,-12 3,-14 37,-18 34,-4 100,-10 141,-16 40,-5 54,-9 61,-11 7,-2 7,-2 8,-6 0,-4 0,-13 2,-22 3,-9 6,-18 12,-24 5,-6 12,-9 20,-10 8,0 16,1 25,4 8,2 15,4 21,9 5,5 9,12 12,20 2,7 4,16 4,84 1,67 2,194 1,270 -1,75 -2,99 -5,116 -3,16 -7,25 -12,33 -5,7 -12,14 -20,18 -8,5 -17,8 -25,8 -8,1 -14,-2 -19,-5 -5,-3 -9,-7 -11,-49 -1,-41 -1,-119 -1,-159 1,-39 1,-39 -8,-38 -9,0 -26,1 -50,0 -24,-1 -54,-4 -79,-8 -24,-3 -42,-7 -57,-12 -15,-4 -27,-9 -35,-16 -9,-6 -15,-14 -18,-33 -3,-19 -3,-48 -4,-74 0,-26 -1,-49 0,-61z"/>
   <path class="fil40" d="M25112 15368c2,1 4,3 6,4 5,5 9,12 12,20 2,7 4,16 4,84 1,67 2,194 1,270 -1,75 -2,99 -5,116 -3,16 -7,25 -12,33 -4,5 -8,9 -12,13 0,-14 0,-34 0,-61 0,-98 1,-293 3,-397 1,-38 2,-64 3,-82z"/>
   <path class="fil31" d="M24256 15632l0 -173c0,0 -1,0 -2,0l-106 0c-16,0 -29,13 -29,30l0 113c0,17 13,30 29,30l106 0 2 0z"/>
   <path class="fil31" d="M24580 15457l0 175c1,0 2,0 2,0l106 0c17,0 30,-14 30,-32l0 -121c0,-40 -82,-22 -115,-22 -8,0 -15,0 -23,0z"/>
   <rect class="fil1" x="24256" y="15442" width="324" height="211"/>
   <rect class="fil31" x="24309" y="15489" width="224" height="115"/>
   <path class="fil41" d="M24834 17393c17,4 33,8 51,15 18,8 36,18 52,28 15,10 28,21 37,31 9,10 14,18 18,28 4,9 6,19 8,24 1,5 1,5 -19,5 -20,0 -60,0 -80,0 -20,0 -20,0 -20,0 0,0 0,0 0,-6 0,-7 -1,-20 -3,-35 -3,-15 -8,-33 -15,-46 -7,-13 -17,-21 -26,-29 -10,-8 -18,-14 -27,-18 -9,-5 -20,-7 -25,-8 -5,-1 -5,-1 4,1 9,2 27,6 45,10z"/>
   <path class="fil41" d="M24076 17393c17,4 34,8 52,15 17,8 36,18 51,28 16,10 29,21 37,31 9,10 15,18 18,28 4,9 7,19 8,24 2,5 2,5 -18,5 -20,0 -60,0 -80,0 -20,0 -20,0 -20,0 0,0 0,0 0,-6 -1,-7 -1,-20 -4,-35 -2,-15 -7,-33 -14,-46 -8,-13 -18,-21 -27,-29 -9,-8 -17,-14 -27,-18 -9,-5 -19,-7 -24,-8 -6,-1 -6,-1 3,1 10,2 28,6 45,10z"/>
   <path class="fil17 str5" d="M25457 14165l514 0m-514 244l514 0m-514 -30l514 0m-514 -31l514 0m-514 -30l514 0m-514 -31l514 0m-514 -30l514 0m-514 -31l514 0m-514 -30l514 0"/>
  </g>
  <g id="_2996555787232">
   <path class="fil42" d="M37924 16921c-22,43 -54,111 -80,155 -26,43 -48,62 -94,74 -46,12 -117,17 -1023,15 -906,-1 -2647,-9 -3525,-13 -878,-5 -892,-6 -903,-24 -10,-18 -17,-52 -27,-111 -11,-58 -25,-141 -31,-184 -6,-42 -4,-43 -310,-43 -306,0 -922,1 -1255,18 -334,16 -385,48 -410,89 -25,42 -24,93 -26,138 -2,45 -7,83 -20,105 -12,22 -32,27 -116,12 -83,-16 -231,-51 -327,-75 -96,-25 -141,-38 -178,-46 -37,-8 -66,-11 -90,-17 -25,-7 -45,-17 -58,-37 -14,-20 -22,-49 -17,-123 5,-75 24,-195 35,-289 11,-94 15,-163 24,-270 8,-107 22,-254 33,-349 11,-94 20,-138 33,-173 12,-35 28,-61 73,-103 46,-43 121,-101 225,-157 103,-57 235,-112 384,-163 149,-51 315,-97 470,-134 154,-38 298,-67 490,-95 192,-29 431,-56 744,-89 313,-33 700,-71 893,-91 193,-19 193,-19 193,-19 0,0 0,0 42,-35 42,-35 126,-104 264,-201 137,-97 326,-221 502,-324 175,-103 336,-184 472,-244 137,-59 249,-96 388,-132 139,-36 305,-72 494,-98 190,-27 404,-44 623,-55 220,-11 445,-16 653,-10 208,5 400,23 575,42 175,20 335,43 530,83 196,40 428,98 544,127 116,29 116,29 121,34 4,4 13,13 24,23 11,10 22,21 254,107 231,86 682,248 927,334 246,86 287,95 340,100 53,6 117,7 174,15 58,8 108,22 220,39 112,17 286,37 441,48 156,12 293,14 370,20 77,5 94,13 106,28 12,15 19,37 21,91 3,54 2,140 2,250 0,110 1,245 2,312 0,67 0,67 0,67 0,0 0,0 15,9 16,10 46,28 77,56 31,29 62,67 86,114 23,48 37,104 34,284 -4,180 -25,483 -38,638 -14,155 -21,162 -53,170 -32,7 -90,17 -338,18 -248,1 -686,-5 -1157,-5 -472,1 -978,9 -1279,13 -302,4 -398,4 -452,12 -55,9 -68,26 -91,69z"/>
   <polygon class="fil43" points="32978,16633 32970,16902 36014,16847 36093,16586 "/>
   <path class="fil44" d="M30278 16881c-5,5 -9,11 -12,16 -25,42 -24,93 -26,138 -2,45 -7,83 -20,105 -12,22 -32,27 -116,12 -83,-16 -231,-51 -327,-75 -96,-25 -141,-38 -178,-46 -37,-8 -66,-11 -90,-17 -25,-7 -45,-17 -58,-37 -14,-20 -22,-49 -17,-123 3,-36 8,-81 14,-129 67,1 141,5 220,10 170,12 361,26 466,32 106,6 125,3 136,51 4,16 6,38 8,63z"/>
   <path class="fil44" d="M41119 15405l1 71c0,67 0,67 0,67 0,0 0,0 15,9 16,10 46,28 77,56 31,29 62,67 86,114 23,48 37,104 34,284 -4,180 -25,483 -38,638 -14,155 -21,162 -53,170 -32,7 -90,17 -338,18 -226,1 -610,-4 -1034,-5 0,-17 1,-36 1,-57 2,-66 4,-149 -17,-242 -20,-94 -62,-198 -107,-286 -45,-88 -92,-161 -145,-225 -53,-65 -111,-122 -140,-150 -29,-28 -29,-28 69,-41 99,-12 295,-37 462,-69 166,-32 303,-70 398,-107 94,-37 145,-72 180,-109 35,-36 54,-73 62,-106 9,-34 7,-64 23,-78 15,-14 46,-11 137,-1 86,9 223,24 327,49z"/>
   <path class="fil4" d="M41323 16223c-2,37 -4,75 -6,113 -25,4 -51,5 -75,6 -45,1 -84,2 -115,-3 -31,-6 -54,-20 -70,-38 -16,-19 -24,-42 -28,-54 -4,-12 -4,-12 62,-14 55,-3 157,-7 232,-10z"/>
   <path class="fil45" d="M37924 16921c-22,43 -54,111 -80,155 -26,43 -48,62 -94,74 -46,12 -117,17 -1023,15 -906,-1 -2647,-9 -3525,-13 -878,-5 -892,-6 -903,-24 -10,-18 -17,-52 -27,-111l-1 -2 0 -1 0 0 0 -2 0 0 -1 -2 0 -1 0 -1 0 -1 0 -1 -1 -1 0 -2 0 0 0 -2 0 -1 -1 -1 0 -1 0 -1 0 -1 0 -2 -1 0 0 -2 0 -1 0 -1 -1 -2 0 0 0 -2 0 -1 0 -1 -1 -1 0 -1 0 -1 0 -2 0 0 -1 -2 0 -1 0 -1 0 -2 0 0 -1 -2 0 -1 0 -1 0 -2 0 0 -1 -2 0 -2 0 0 0 -2 0 -1 -1 -1 0 -2 0 0 0 -2 -1 -1 0 -1 0 -2 0 0 0 -2 -1 -1 0 -1 0 -2 0 -1 0 -1 -1 -2 0 0 0 -2 0 -1 0 -1 -1 -1 0 -1 0 -1 0 -2 0 0 -1 -2 0 -1 0 -1 0 -2 -1 -1 0 -1 0 -2 0 0 0 -2 -1 -1 0 -1 0 -2 0 0 0 -2 -1 -1 0 -1 0 -2 0 0 0 -2 -1 -1 0 -1 0 -2 0 0 0 -2 -1 -1 0 0 0 -2 0 -1 0 -1 -1 -2c89,-7 315,-13 889,-28 947,-25 2839,-75 3792,-85 953,-10 966,20 979,68 5,20 10,44 16,68l-1 1 -1 2z"/>
   <path class="fil46" d="M37830 17098c-21,28 -42,42 -80,52 -46,12 -117,17 -1023,15 -906,-1 -2647,-9 -3525,-13 -878,-5 -892,-6 -903,-24 -9,-16 -16,-46 -25,-96 78,-6 248,-7 619,-11 682,-6 2048,-20 2952,-31 904,-12 1347,-23 1602,-8 256,14 325,54 366,96 6,6 11,13 17,20z"/>
   <path class="fil42 str3" d="M30289 16871c-15,11 -25,27 -37,50 -7,13 -14,28 -22,44 -13,-48 -22,-98 -27,-148 -5,-38 -7,-78 -7,-117 0,-14 0,-28 1,-41 2,-43 5,-74 9,-103 7,-49 19,-90 32,-126 13,-35 28,-65 34,-50 5,15 1,74 4,155 3,82 12,185 13,279 0,19 0,39 0,57z"/>
   <path class="fil47" d="M29475 17000c-10,-6 -18,-13 -24,-23 -14,-20 -22,-49 -17,-123 5,-75 24,-195 35,-289l0 -1c21,-17 38,-29 57,-41 41,-26 89,-52 126,-66 37,-14 62,-15 86,-12 24,4 46,11 64,31 18,19 31,49 37,84 6,35 4,74 -2,110 -7,36 -19,67 -42,106 -23,39 -57,85 -90,119 -33,33 -65,54 -95,71 -29,15 -56,27 -135,34z"/>
   <path class="fil48" d="M29683 15627c44,-35 102,-75 174,-114 103,-57 235,-112 384,-163 149,-51 315,-97 470,-134 154,-38 298,-67 490,-95 192,-29 431,-56 744,-89 313,-33 700,-71 893,-91 193,-19 193,-19 193,-19 0,0 0,0 42,-35 42,-35 126,-104 264,-201 137,-97 326,-221 502,-324 175,-103 336,-184 472,-244 137,-59 249,-96 388,-132 139,-36 305,-72 494,-98 190,-27 404,-44 623,-55 220,-11 445,-16 653,-10 208,5 400,23 575,42 175,20 335,43 530,83 196,40 428,98 544,127 116,29 116,29 121,34 4,4 13,13 24,23 11,10 22,21 254,107 231,86 682,248 927,334 246,86 287,95 340,100 53,6 117,7 174,15 58,8 108,22 220,39 112,17 286,37 441,48 156,12 293,14 370,20 77,5 94,13 106,28 12,15 19,37 21,91 3,54 2,140 2,250 0,39 0,81 0,122 -118,-27 -244,-58 -360,-80 -176,-34 -329,-50 -935,-37 -607,13 -1666,55 -3546,142 -1879,87 -4578,219 -5928,285 -275,13 -494,24 -666,31z"/>
   <path class="fil49" d="M33055 14902l18 -15c42,-35 126,-104 264,-201 137,-97 326,-221 502,-324 175,-103 336,-184 472,-244 85,-36 160,-64 237,-89 14,8 21,18 21,31 1,16 -7,36 -59,73 -51,36 -144,90 -275,160 -131,71 -300,160 -457,249 -156,90 -301,181 -398,241 -97,60 -147,90 -188,106 -40,16 -71,18 -109,15 -9,0 -18,-1 -28,-2z"/>
   <path class="fil50" d="M29734 15926c-16,24 -33,46 -52,69 -18,23 -37,46 -54,61 -16,16 -29,24 -40,26 -11,3 -21,0 -27,-10 -6,-10 -9,-27 -7,-65 2,-37 10,-96 17,-135 6,-38 12,-57 20,-72 8,-14 19,-26 35,-33 17,-8 38,-12 58,-13 20,-1 39,1 53,5 14,4 22,9 27,25 6,16 8,42 2,68 -5,25 -17,50 -32,74z"/>
   <path class="fil51" d="M39046 15228c-701,41 -1824,107 -3176,165 -1353,58 -2934,108 -3725,133 -791,25 -791,25 -791,25 0,0 0,0 375,-21 374,-21 1123,-63 2028,-117 905,-54 1968,-120 2874,-168 907,-47 1658,-76 2245,-88 586,-12 1008,-7 1219,-4 211,3 211,3 211,3 0,0 0,0 -140,8 -140,7 -419,23 -1120,64z"/>
   <path class="fil52" d="M30024 15968c113,-77 287,-203 374,-267 86,-63 86,-63 86,-63 0,0 0,0 -34,-2 -34,-2 -103,-6 -178,-3 -76,2 -159,12 -238,29 -78,18 -152,45 -206,69 -55,24 -91,47 -116,71 -25,25 -39,51 -49,87 -9,36 -13,82 -11,117 2,35 10,59 37,73 27,14 73,18 122,6 49,-12 100,-40 213,-117z"/>
   <path class="fil47" d="M37680 14896c-367,15 -795,30 -1260,50 -464,20 -965,44 -1517,71 -552,27 -1156,57 -1453,66 -296,8 -286,-5 -235,-41 51,-37 142,-96 187,-126 46,-29 46,-29 48,-38 3,-10 8,-28 22,-49 13,-21 34,-45 60,-65 27,-19 58,-35 86,-46 27,-10 51,-16 76,-20 24,-5 49,-9 62,-11 12,-2 12,-2 12,-2 0,0 0,0 69,-45 69,-44 208,-134 342,-214 133,-80 263,-149 376,-205 113,-55 211,-96 309,-130 98,-33 197,-60 316,-77 119,-18 259,-27 404,-33 145,-6 295,-9 457,-7 161,2 334,9 469,15 135,7 233,14 367,30 135,16 306,43 462,70 156,28 297,57 455,97 159,41 334,92 485,141 152,48 280,95 375,133 95,38 156,68 199,96 43,28 67,53 79,77 12,25 12,48 4,75 -8,26 -24,55 -44,78 -21,23 -46,40 -86,51 -40,10 -96,14 -276,23 -179,8 -484,22 -850,36z"/>
   <path class="fil53 str3" d="M36861 14376c-33,123 -80,297 -104,384 -24,87 -24,87 -24,87 0,0 0,0 291,-8 291,-9 872,-26 1193,-42 322,-16 384,-30 421,-47 38,-17 51,-37 49,-63 -3,-26 -21,-57 -80,-95 -59,-37 -158,-81 -299,-133 -141,-53 -324,-115 -560,-175 -237,-60 -527,-118 -672,-147 -145,-29 -145,-29 -145,-29 0,0 0,0 -9,36 -9,36 -28,109 -61,232z"/>
   <path class="fil53 str3" d="M36714 14304c-35,127 -93,335 -122,439 -29,104 -29,104 -29,104 0,0 0,0 0,0 0,0 0,0 -178,10 -179,10 -536,30 -983,54 -446,25 -983,54 -1251,68 -268,15 -268,15 -268,15 0,0 0,0 4,-32 5,-32 14,-95 15,-140 2,-45 -5,-71 -19,-87 -13,-17 -35,-23 -45,-27 -11,-3 -11,-3 -11,-3 0,0 0,0 54,-34 53,-33 160,-100 272,-165 112,-65 229,-127 344,-183 115,-56 227,-106 341,-144 114,-38 230,-64 360,-85 131,-20 275,-35 444,-43 168,-8 359,-9 551,-2 192,6 386,21 483,28 97,7 97,7 97,7 0,0 0,0 -6,23 -6,23 -18,69 -53,197z"/>
   <path class="fil49" d="M39560 14568c230,83 241,90 245,97 2,3 2,7 1,10 -8,0 -15,-1 -22,-2 -53,-5 -94,-14 -340,-100 -245,-86 -696,-248 -927,-334 -232,-86 -243,-97 -254,-107 -2,-2 -5,-4 -7,-6 11,0 25,1 51,7 31,7 78,20 326,106 248,86 697,245 927,329z"/>
   <path class="fil4" d="M41118 15122l0 42c0,110 1,245 2,312 0,67 0,67 0,67l1 1c-21,9 -46,11 -74,12 -57,2 -124,0 -192,-14 -68,-13 -137,-40 -210,-90 -73,-50 -151,-124 -194,-172 -42,-48 -50,-70 -44,-93 7,-22 28,-45 69,-68 42,-24 104,-49 168,-65 64,-16 130,-22 189,-22 59,0 112,6 153,18 42,11 72,27 100,45 11,7 22,15 32,27z"/>
   <path class="fil47" d="M38902 15666c571,0 1034,462 1034,1033 0,44 -3,87 -8,129 -42,-1 -84,-1 -127,-1 6,-41 9,-84 9,-128 0,-501 -407,-907 -908,-907 -466,0 -851,352 -901,805 17,58 31,144 33,192 3,57 -11,59 -24,62l-2 1 0 2c-7,1 -13,2 -19,4 -5,2 -9,4 -13,6 -10,5 -18,11 -25,19 -8,9 -16,20 -26,39 -10,20 -24,47 -40,79 -17,31 -37,65 -47,83 -10,17 -10,17 -10,17 0,0 0,0 3,-38 3,-37 9,-112 16,-186 7,-73 14,-144 18,-191 2,-16 3,-29 5,-40 28,-546 479,-980 1032,-980z"/>
   <g>
    <path class="fil54 str3" d="M38902 15792c-501,0 -907,406 -907,907 0,502 406,908 907,908 501,0 908,-406 908,-908 0,-501 -407,-907 -908,-907zm603 1019c-61,8 -176,10 -356,15 -181,6 -427,14 -588,18 -161,4 -236,4 -274,4 -37,0 -37,0 -37,0 0,0 0,0 5,11 4,11 13,33 32,73 18,39 46,96 78,143 33,47 69,84 114,118 44,34 95,66 140,89 45,23 83,37 132,47 50,9 110,13 159,14 49,1 86,0 136,-10 50,-11 113,-31 172,-60 59,-29 113,-67 162,-124 49,-58 94,-134 127,-199 33,-64 54,-117 61,-137 6,-21 -1,-9 -63,-2z"/>
    <circle class="fil55" cx="38893" cy="16690" r="474"/>
    <circle class="fil18 str3" cx="38902" cy="16699" r="107"/>
    <path class="fil56" d="M38902 16002c-385,0 -698,312 -698,697 0,386 313,698 698,698 386,0 698,-312 698,-698 0,-385 -312,-697 -698,-697zm0 492c-13,0 -26,1 -39,4l-15 -427c18,-1 36,-2 54,-2 14,0 28,0 42,1l-4 427c-12,-2 -25,-3 -38,-3zm-69 12c-45,16 -83,48 -108,88l-366 -216c85,-142 223,-248 387,-290l87 418zm-122 117c-8,20 -13,42 -14,65l-417 -94c8,-46 21,-91 38,-133l393 162zm-13 103c6,43 25,82 53,113l-312 289c-104,-113 -167,-263 -167,-429 0,-9 0,-18 0,-27l426 54zm76 134c17,14 36,24 56,32l-227 363c-35,-19 -68,-41 -98,-66l269 -329zm84 40c14,3 29,5 44,5 23,0 46,-4 67,-11l190 382c-79,35 -165,54 -257,54 -83,0 -162,-16 -234,-45l190 -385zm136 -17c19,-9 36,-21 51,-36l282 319c-32,29 -67,55 -104,77l-229 -360zm75 -63c23,-32 37,-72 39,-114l424 -45c0,13 1,25 1,38 0,163 -61,310 -162,422l-302 -301zm37 -147c-3,-25 -11,-48 -22,-69l405 -136c13,34 24,69 31,105l-414 100zm-39 -97c-24,-31 -56,-56 -93,-69l63 -424c175,39 322,149 410,298l-380 195z"/>
    <circle class="fil57" cx="38899" cy="16696" r="107"/>
   </g>
   <path class="fil47" d="M31230 15666c571,0 1034,463 1034,1034 0,33 -2,67 -5,99l-2 27c-1,25 -2,50 -3,63 -1,13 -1,13 -1,13l-2 -2 -1 6c0,0 0,0 -30,-3 -30,-2 -91,-8 -173,-15 -81,-7 -184,-16 -288,-22 -104,-6 -210,-9 -354,-4 -144,6 -328,19 -469,41 -141,21 -239,52 -322,78 -82,26 -148,49 -209,74 -60,25 -116,53 -148,71 -20,12 -31,20 -38,23 -6,4 -10,7 -14,9 -4,2 -8,3 -10,1 -2,0 -4,0 -6,1 0,-10 0,-22 0,-36 1,-82 2,-246 4,-355 1,-45 2,-80 4,-110 21,-552 476,-993 1033,-993zm897 897c-66,-436 -443,-770 -897,-770 -488,0 -885,384 -907,866 46,-61 125,-103 320,-129 210,-27 557,-35 836,-28 279,7 489,30 607,52 15,3 29,6 41,9z"/>
   <g>
    <path class="fil54" d="M31230 15784c-501,0 -908,406 -908,907 0,501 407,907 908,907 501,0 907,-406 907,-907 0,-501 -406,-907 -907,-907zm603 1019c-61,7 -176,10 -357,15 -180,5 -427,13 -587,17 -161,4 -236,4 -274,4 -37,0 -37,0 -37,0 0,0 0,0 4,11 5,11 14,34 32,73 19,40 47,97 79,143 32,47 69,84 113,118 44,35 96,66 141,89 44,23 83,38 132,47 49,9 110,13 159,15 49,1 86,0 136,-11 50,-11 113,-30 172,-59 58,-29 112,-68 162,-125 49,-57 94,-134 127,-198 33,-65 54,-117 61,-138 6,-20 -2,-8 -63,-1z"/>
    <circle class="fil55" cx="31221" cy="16682" r="474"/>
    <circle class="fil18" cx="31230" cy="16691" r="107"/>
    <path class="fil56" d="M31230 15993c-386,0 -698,313 -698,698 0,385 312,698 698,698 385,0 698,-313 698,-698 0,-385 -313,-698 -698,-698zm0 492c-13,0 -26,2 -39,4l-16 -426c18,-2 36,-3 55,-3 14,0 28,1 41,2l-3 427c-13,-2 -25,-4 -38,-4zm-69 12c-45,16 -84,48 -108,89l-366 -216c84,-142 223,-248 387,-290l87 417zm-122 117c-8,21 -13,43 -14,66l-417 -94c8,-47 21,-92 38,-134l393 162zm-13 104c6,43 25,82 53,112l-312 289c-104,-112 -168,-263 -168,-428 0,-9 0,-18 1,-28l426 55zm76 134c16,13 35,24 56,32l-228 362c-34,-19 -67,-41 -98,-65l270 -329zm84 40c14,3 29,5 44,5 23,0 46,-4 66,-11l190 381c-78,35 -165,55 -256,55 -83,0 -162,-16 -235,-45l191 -385zm136 -17c19,-10 36,-22 51,-36l281 318c-31,29 -66,55 -104,77l-228 -359zm74 -63c24,-33 38,-72 39,-115l424 -45c1,13 1,26 1,39 0,162 -61,310 -161,422l-303 -301zm38 -148c-3,-24 -11,-48 -22,-69l405 -136c13,34 23,69 31,106l-414 99zm-39 -96c-24,-32 -56,-56 -94,-70l64 -423c174,38 322,148 409,298l-379 195z"/>
    <circle class="fil57" cx="31227" cy="16688" r="107"/>
   </g>
   <path class="fil46" d="M35884 15230c8,20 13,42 15,69 1,27 -2,59 -16,83 -15,25 -41,42 -85,52 -44,10 -106,12 -159,0 -53,-11 -96,-38 -123,-63 -26,-25 -35,-49 -31,-69 4,-20 21,-38 70,-59 48,-21 129,-46 184,-58 56,-12 86,-10 106,-1 21,9 31,26 39,46z"/>
   <path class="fil58" d="M35934 15342c-110,13 -328,19 -443,17 -116,-1 -129,-9 -134,-19 -5,-11 -3,-24 7,-35 9,-12 25,-21 127,-33 102,-13 290,-29 396,-34 105,-5 128,0 141,10 13,10 17,24 18,42 0,18 -2,39 -112,52z"/>
  </g>
  <polygon class="fil59" points="48794,19549 29,19549 29,17695 48794,17695 "/>
  <path class="fil58" style="mask:url(#id0)" d="M30397 15704c-109,74 -279,207 -401,285 -122,78 -195,102 -415,207 -220,106 -585,294 -1083,481 -498,187 -1127,375 -1627,487 -500,113 -870,151 -1054,171 -185,19 -185,19 -185,19 0,0 0,0 0,0 0,0 0,0 0,-434 0,-434 0,-1302 0,-1735 0,-434 0,-434 0,-434 0,0 0,0 828,140 828,141 2484,422 3289,571 805,150 757,167 648,242z"/>
  <rect class="fil60" x="3915" y="13528" width="156" height="4072"/>
  <rect class="fil60" x="8162" y="13545" width="156" height="4055"/>
  <g id="_2997490923296">
   <rect class="fil61" x="3406" y="11899" width="5438" height="2670" rx="244" ry="244"/>
   <path class="fil62" d="M4594 11647c2,-15 15,-27 30,-28 18,0 33,13 34,30 0,2 0,3 0,5 0,10 -1,21 -2,31 -8,60 -34,116 -64,168 -25,42 -53,83 -78,125 -16,28 -35,66 -36,98 -1,44 -4,81 -24,120 -17,34 -22,55 -27,93 -4,31 -19,66 -32,94 -16,36 -34,71 -50,106 -25,57 -71,164 -12,214 50,43 34,184 34,246 0,16 -11,29 -27,32 -12,2 -54,-3 -68,-3 -43,-3 -86,-6 -130,-9 -37,-2 -73,-4 -110,-6 -23,-1 -47,-3 -70,-3 -74,0 -148,1 -221,3 -47,1 -94,2 -140,5 -16,1 -57,3 -73,8 -12,8 -23,7 -36,3 -129,-22 -312,-91 -312,-248 0,-17 11,-40 17,-56 9,-21 17,-43 22,-65 9,-37 10,-74 -27,-95 -26,-15 -68,-31 -84,-58 -11,-20 -10,-42 -5,-64 6,-30 17,-62 26,-92 15,-49 -143,-164 -177,-189 -40,-30 -82,-60 -122,-91 -28,-22 -65,-51 -86,-81 -10,-13 -30,-23 -44,-30 -30,-14 -64,-27 -83,-55 -29,-44 -8,-97 16,-137 18,-31 48,-26 67,-42 22,-19 1,-84 -5,-104 -20,-61 -83,-59 -101,-104 -11,-29 6,-56 23,-78 29,-34 69,-68 104,-97 39,-32 87,-66 138,-77 -1,-24 -7,-47 -14,-70 -8,-31 -18,-64 -11,-96 10,-39 43,-61 77,-77 0,-6 0,-13 5,-21 12,-21 35,-21 55,-16 22,5 46,15 67,23 28,7 130,-20 159,-29 35,-11 109,-38 130,-69 14,-21 36,-46 65,-37 28,9 33,42 36,67 3,27 4,53 6,80 0,9 3,36 7,57 10,-15 21,-31 41,-36 26,-5 46,13 60,32 18,25 35,55 49,82 63,35 275,132 327,117 6,-1 11,-2 17,-3 39,-5 77,12 113,26 35,15 71,27 110,26 85,-2 196,90 196,178 0,28 -3,54 -7,81 -1,8 -5,26 -2,34 2,10 19,21 27,26 23,14 38,72 44,97 8,39 16,100 -25,121 -21,15 -77,107 -93,153 27,-6 63,-15 74,-29 8,-10 17,-35 22,-48 17,-39 39,-74 64,-109 7,-10 22,-22 32,-30 15,-14 32,-28 47,-42 12,-10 48,-43 57,-57z"/>
   <path class="fil63" d="M3497 12947c-107,-18 -284,-77 -284,-216 0,-31 101,-184 -5,-244 -87,-50 -95,-27 -48,-176 35,-113 -323,-294 -390,-390 -45,-64 -194,-43 -109,-187 19,-31 121,-2 64,-172 -41,-126 -216,-50 17,-244 40,-34 95,-73 149,-73 9,-127 -92,-195 48,-248 29,-11 -46,-60 88,-8 37,15 277,-36 327,-110 71,-105 20,161 80,205 57,-37 38,-136 133,46 0,1 279,148 360,124 62,-18 131,53 232,51 69,-2 163,77 163,145 0,103 -38,123 33,168 13,8 59,143 19,163 -32,16 -163,233 -91,217 170,-35 87,-46 201,-203 11,-14 144,-118 142,-143 0,162 -177,305 -180,423 -3,131 -36,84 -51,210 -13,101 -205,339 -83,443 35,30 22,170 22,221 -2,0 -316,-21 -372,-21 -59,0 -426,1 -451,20 -4,3 -7,0 -14,-1z"/>
   <polygon class="fil64" points="4615,12958 4516,12356 4604,12356 4666,12770 4743,12356 4844,12356 4918,12777 4982,12356 5068,12356 4966,12958 4875,12958 4792,12508 4708,12958 "/>
   <polygon id="1" class="fil64" points="5112,12958 5112,12356 5424,12356 5424,12458 5197,12458 5197,12592 5408,12592 5408,12693 5197,12693 5197,12856 5432,12856 5432,12958 "/>
   <polygon id="2" class="fil64" points="5507,12958 5507,12361 5592,12361 5592,12856 5803,12856 5803,12958 "/>
   <path id="3" class="fil64" d="M6133 12736l82 36c-12,67 -33,116 -63,148 -29,32 -66,48 -112,48 -56,0 -102,-27 -138,-82 -36,-54 -54,-129 -54,-224 0,-100 18,-178 55,-234 36,-55 83,-83 142,-83 52,0 94,22 126,66 19,25 33,62 43,111l-84 28c-5,-31 -15,-55 -31,-73 -16,-19 -35,-27 -58,-27 -31,0 -56,15 -76,48 -19,32 -29,83 -29,155 0,76 10,130 29,162 19,33 44,49 74,49 23,0 43,-10 59,-31 16,-20 28,-53 35,-97z"/>
   <path id="4" class="fil64" d="M6271 12661c0,-62 6,-113 19,-155 9,-31 23,-58 39,-83 17,-24 35,-42 55,-54 26,-16 56,-24 90,-24 63,0 112,28 149,83 38,55 56,132 56,230 0,97 -18,174 -55,228 -37,56 -87,83 -148,83 -63,0 -113,-27 -150,-82 -37,-55 -55,-130 -55,-226zm87 -4c0,68 11,120 33,155 22,35 50,53 84,53 34,0 62,-18 84,-53 22,-35 33,-87 33,-157 0,-69 -11,-121 -32,-154 -21,-35 -49,-51 -85,-51 -35,0 -63,17 -84,51 -22,35 -33,86 -33,156z"/>
   <polygon id="5" class="fil64" points="6745,12958 6745,12356 6872,12356 6948,12767 7022,12356 7150,12356 7150,12958 7072,12958 7071,12484 6988,12958 6906,12958 6824,12484 6823,12958 "/>
   <polygon id="6" class="fil64" points="7236,12958 7236,12356 7547,12356 7547,12458 7321,12458 7321,12592 7531,12592 7531,12693 7321,12693 7321,12856 7555,12856 7555,12958 "/>
   <polygon id="7" class="fil64" points="7886,12958 7886,12458 7761,12458 7761,12356 8095,12356 8095,12458 7971,12458 7971,12958 "/>
   <path id="8" class="fil64" d="M8122 12661c0,-62 7,-113 19,-155 10,-31 23,-58 40,-83 16,-24 34,-42 54,-54 26,-16 57,-24 91,-24 62,0 112,28 149,83 37,55 56,132 56,230 0,97 -19,174 -56,228 -37,56 -86,83 -148,83 -63,0 -112,-27 -149,-82 -37,-55 -56,-130 -56,-226zm88 -4c0,68 11,120 33,155 22,35 50,53 84,53 34,0 62,-18 84,-53 21,-35 32,-87 32,-157 0,-69 -10,-121 -32,-154 -21,-35 -49,-51 -84,-51 -35,0 -63,17 -85,51 -21,35 -32,86 -32,156z"/>
   <polygon class="fil64" points="3938,14133 3818,13403 3924,13403 4000,13905 4093,13403 4216,13403 4306,13913 4383,13403 4487,13403 4364,14133 4254,14133 4153,13587 4051,14133 "/>
   <polygon id="1" class="fil64" points="4603,14133 4603,13403 4706,13403 4706,14133 "/>
   <path id="2" class="fil64" d="M4843 13897l101 -15c6,49 18,84 36,106 19,23 43,34 75,34 33,0 58,-10 75,-30 16,-20 25,-43 25,-70 0,-18 -4,-32 -11,-44 -7,-12 -19,-23 -37,-32 -12,-6 -39,-17 -82,-32 -55,-20 -94,-44 -116,-72 -31,-41 -47,-90 -47,-148 0,-37 8,-72 22,-104 15,-33 36,-58 64,-75 28,-16 61,-25 100,-25 64,0 112,20 144,61 33,40 50,95 51,162l-103 5c-5,-37 -14,-64 -28,-81 -15,-16 -36,-25 -65,-25 -30,0 -53,9 -70,27 -11,11 -16,26 -16,45 0,18 5,33 15,45 13,16 45,32 95,49 50,17 87,34 110,52 25,19 43,43 57,75 13,31 20,70 20,116 0,42 -8,81 -24,118 -16,36 -39,63 -69,81 -30,18 -67,27 -111,27 -65,0 -114,-22 -149,-64 -35,-43 -55,-105 -62,-186z"/>
   <path id="3" class="fil64" d="M5738 13864l100 44c-15,80 -41,140 -77,179 -35,39 -81,59 -135,59 -68,0 -124,-34 -168,-100 -43,-66 -65,-157 -65,-272 0,-121 22,-216 66,-283 43,-67 101,-101 173,-101 62,0 113,27 152,79 23,32 41,77 52,135l-102 35c-6,-38 -18,-68 -37,-90 -20,-22 -43,-33 -70,-33 -38,0 -69,20 -93,59 -23,38 -35,101 -35,188 0,92 12,158 35,197 23,40 53,59 91,59 27,0 51,-12 70,-37 20,-25 34,-64 43,-118z"/>
   <path id="4" class="fil64" d="M5970 13773c0,-75 8,-137 24,-188 11,-37 27,-71 47,-100 21,-30 42,-52 66,-66 32,-19 69,-29 111,-29 75,0 135,33 180,100 46,67 68,160 68,279 0,118 -22,211 -67,277 -45,67 -105,101 -180,101 -76,0 -136,-34 -181,-100 -45,-66 -68,-158 -68,-274zm107 -5c0,83 13,145 40,188 27,43 61,64 102,64 41,0 75,-21 101,-63 27,-43 40,-106 40,-191 0,-84 -13,-147 -39,-188 -25,-41 -60,-62 -102,-62 -43,0 -77,21 -103,63 -26,42 -39,105 -39,189z"/>
   <polygon id="5" class="fil64" points="6612,14133 6612,13403 6712,13403 6922,13893 6922,13403 7018,13403 7018,14133 6915,14133 6708,13653 6708,14133 "/>
   <path id="6" class="fil64" d="M7166 13897l100 -15c6,49 18,84 37,106 18,23 43,34 74,34 33,0 58,-10 75,-30 17,-20 25,-43 25,-70 0,-18 -3,-32 -10,-44 -7,-12 -20,-23 -37,-32 -12,-6 -40,-17 -82,-32 -56,-20 -94,-44 -116,-72 -32,-41 -47,-90 -47,-148 0,-37 7,-72 22,-104 14,-33 36,-58 63,-75 28,-16 61,-25 101,-25 63,0 112,20 144,61 32,40 49,95 51,162l-104 5c-4,-37 -14,-64 -28,-81 -14,-16 -36,-25 -65,-25 -29,0 -53,9 -70,27 -10,11 -16,26 -16,45 0,18 5,33 16,45 12,16 44,32 94,49 50,17 87,34 111,52 24,19 43,43 56,75 14,31 21,70 21,116 0,42 -8,81 -25,118 -16,36 -39,63 -69,81 -29,18 -66,27 -111,27 -64,0 -114,-22 -149,-64 -34,-43 -55,-105 -61,-186z"/>
   <polygon id="7" class="fil64" points="7730,14133 7730,13403 7834,13403 7834,14133 "/>
   <polygon id="8" class="fil64" points="7997,14133 7997,13403 8097,13403 8308,13893 8308,13403 8403,13403 8403,14133 8300,14133 8093,13653 8093,14133 "/>
  </g>
  <path class="fil65" d="M8599 11899l-188 0c78,38 -5,54 127,136 32,19 97,128 117,111 5,-4 90,12 104,21 11,8 61,42 85,44l0 -68c0,-134 -110,-244 -245,-244z"/>
  <g id="_2997490927520">
   <path class="fil66" d="M8035 10813c12,-4 29,-7 49,-9 20,-1 44,-1 68,5 24,5 48,16 69,31 20,16 38,35 53,61 15,25 29,56 45,85 15,29 32,56 60,83 29,27 69,53 103,80 35,27 65,54 95,78 30,23 61,43 95,66 34,22 71,47 103,68 31,22 57,41 76,57 20,15 34,28 54,42 21,14 49,28 82,44 34,15 73,30 99,45 27,15 40,29 47,35 7,7 7,7 -7,4 -15,-3 -44,-9 -58,-12 -15,-3 -15,-3 -2,5 13,7 39,21 105,48 66,26 171,64 230,87 58,23 70,30 76,35 7,5 9,8 3,9 -6,1 -19,0 -56,-10 -37,-9 -98,-27 -156,-42 -57,-16 -111,-30 -151,-39 -39,-9 -65,-13 -98,-16 -34,-4 -75,-8 -113,-9 -39,-2 -74,-1 -100,0 -26,2 -43,4 -55,5 -12,1 -19,0 -23,-1 -3,0 -3,0 -1,3 2,2 6,7 17,12 10,5 26,10 34,13 8,2 8,2 3,3 -4,0 -13,1 -27,-3 -13,-3 -32,-11 -41,-15 -10,-4 -10,-5 -6,-2 3,3 9,10 16,14 7,5 14,9 18,10 4,2 4,2 -4,-1 -8,-3 -24,-10 -31,-13 -8,-3 -8,-3 -6,-1 2,3 6,8 12,12 5,4 12,9 16,11 3,2 3,2 -4,-1 -7,-3 -22,-9 -26,-9 -5,0 0,6 7,11 6,4 14,8 13,8 0,0 -9,-3 -19,-7 -10,-4 -20,-10 -21,-8 -1,1 8,9 9,11 0,3 -7,0 -13,-3 -7,-3 -13,-6 -17,-7 -4,-1 -7,1 -15,3 -8,1 -22,4 -42,4 -20,0 -47,-1 -60,-2 -14,-1 -14,-1 -12,4 2,4 6,12 9,23 3,12 5,27 3,40 -2,14 -9,26 -29,58 -15,24 -38,60 -56,87l-45 0c2,-14 8,-29 15,-45 8,-18 18,-36 24,-48 5,-12 7,-18 7,-23 0,-4 -1,-8 -4,-14 -3,-5 -9,-12 -11,-19 -3,-7 -3,-13 -5,-20 -2,-6 -6,-11 -8,-19 -2,-7 -3,-16 -5,-23 -1,-8 -3,-12 -5,-16 -2,-3 -3,-5 -17,-10 -14,-5 -39,-13 -66,-27 -28,-13 -58,-32 -85,-51 -28,-19 -53,-37 -76,-59 -23,-21 -42,-45 -60,-74 -17,-28 -32,-61 -43,-99 -10,-38 -17,-81 -22,-120 -4,-38 -7,-71 -9,-100 -2,-29 -4,-53 -6,-68 -1,-14 -2,-17 -8,-28 -6,-12 -18,-31 -28,-48 -10,-18 -18,-33 -24,-42 -6,-10 -11,-14 -17,-17 -6,-4 -14,-6 -28,-9 -14,-3 -35,-7 -54,-12 -19,-6 -36,-14 -45,-18 -9,-5 -9,-5 -9,-5 0,0 0,0 5,-2 5,-3 15,-8 30,-12 14,-3 33,-6 50,-7 18,-2 33,-2 43,-4 9,-1 12,-4 21,-11 9,-7 23,-19 34,-26 11,-8 19,-11 31,-14z"/>
   <path class="fil67" d="M8035 10813c12,-4 29,-7 49,-9 20,-1 44,-1 68,5 24,5 48,16 69,31 20,16 38,35 53,61 15,25 29,56 45,85 10,21 22,40 37,58 13,35 -21,-28 -12,-8 24,52 0,18 -7,-1 0,17 25,40 -15,-2 24,39 -15,-18 -5,-1 30,54 -34,-42 -10,-3 42,70 -28,-30 -37,-29 13,40 80,113 0,34 -43,-42 68,88 -4,22 -63,-58 36,54 -10,15 -58,-50 21,29 -4,11 -50,-34 7,19 -17,2 -38,-26 17,28 -11,11 -28,-18 6,14 -4,8 -59,-37 14,15 -41,-1 -13,-3 -14,12 -27,22 -32,26 -72,23 -112,13l0 -1c-2,-29 -4,-53 -6,-68 -1,-14 -2,-17 -8,-28 -6,-12 -18,-31 -28,-48 -10,-18 -18,-33 -24,-42 -6,-10 -11,-14 -17,-17 -6,-4 -14,-6 -28,-9 -14,-3 -35,-7 -54,-12 -19,-6 -36,-14 -45,-18 -9,-5 -9,-5 -9,-5 0,0 0,0 5,-2 5,-3 15,-8 30,-12 14,-3 33,-6 50,-7 18,-2 33,-2 43,-4 9,-1 12,-4 21,-11 9,-7 23,-19 34,-26 11,-8 19,-11 31,-14z"/>
   <path class="fil68" d="M8408 11093c23,19 50,37 74,56 35,27 65,54 95,78 30,23 61,43 95,66 34,22 71,47 103,68 31,22 57,41 76,57 20,15 34,28 54,42 21,14 49,28 82,44 34,15 73,30 99,45 27,15 40,29 47,35 7,7 7,7 -7,4 -15,-3 -44,-9 -58,-12 -13,-2 -15,-3 -5,3 -75,-16 -187,-41 -271,-61 -92,-21 -149,-35 -224,-52 -75,-17 -168,-36 -228,-63 -61,-28 -90,-64 -107,-97 -17,-34 -22,-64 -21,-89 1,-25 9,-44 18,-59 10,-14 20,-24 30,-32 9,-7 17,-12 29,-18 12,-6 28,-12 47,-15 20,-2 43,-2 62,-1 3,0 7,1 10,1z"/>
   <path class="fil69" d="M8389 11662l0 0c-3,-3 -10,-9 -14,-14 0,0 -5,-9 -4,-13 45,29 -15,-20 3,-5 46,40 -22,-23 6,1 34,29 -33,-37 -56,-52 37,30 -22,-32 2,-5 40,48 -18,-18 -10,-13 3,1 42,25 43,26 19,14 127,55 128,50 -33,-22 39,20 58,21 35,1 -3,-2 5,-3 56,-1 -19,-3 29,-3 66,0 -19,4 25,-1 61,-8 -41,0 3,-6 61,-10 -8,-5 11,-8 60,-10 -14,-3 12,-10 27,-7 17,-11 6,-8 26,-13 41,3 7,-5 82,-29 -56,9 26,-22 9,-3 -36,7 2,-4 35,-11 -17,-1 -2,-5 47,-12 -25,1 22,-15 -23,2 13,-9 2,-8 -26,0 25,-7 9,-6 -25,1 31,-3 10,-3 -42,0 32,-11 7,-10 -35,0 24,-14 5,-12 7,1 26,-8 -3,-12 24,9 -14,-12 -7,-12 27,-2 -64,-25 -65,-26 -1,-1 -92,-26 -100,-28 -55,-15 -80,-50 -80,-49 20,27 -27,-12 -20,-8 6,4 35,36 25,30 -49,-31 -35,-8 -79,-28 -70,-31 -82,-56 -135,-102 31,25 -10,-9 -11,-18 9,3 23,18 -3,-10 -32,-34 2,-1 -4,-10 -16,-23 -27,-16 -3,-12 -10,-25 -11,-7 -1,-9 -25,-25 0,-11 -5,-17 -20,-27 18,10 4,-6 -39,-42 2,-4 4,-11 -19,-23 -1,-7 1,-10 0,0 -9,-10 -7,-14 18,5 -6,-4 5,-4 26,1 -4,-10 8,-6 22,6 -9,-10 6,-4 35,13 -25,-11 7,-9 -38,-27 34,13 4,-10 -23,-18 16,4 17,-1 -14,-14 -3,-4 2,-6 -3,-15 -13,0 13,-3 12,-1 -21,-9 4,-15 -2,-16 -20,-4 -21,-4 -26,-4 -18,-30 -22,-4 -29,-18 -3,5 -11,-1 -31,-24 -1,12 -15,-1 -27,-24 7,13 -7,2 -55,-46 1,12 -33,-14 -33,-25 0,21 -20,-1 -28,-31 2,14 -7,4 -24,-27 -2,8 -15,-7 -16,-18 7,30 -5,11 -31,-45 -6,1 -13,-7 -36,-49 8,30 -16,-3 -33,-45 2,19 -15,-11 -33,-59 -10,-23 -10,-7 0,55 -9,-34 -9,9 0,1 -20,-24 -8,-3 -5,0 -11,-15 -11,-15 0,24 0,6 -10,8 -12,-29 -7,-11 -18,4 2,15 3,35 5,57 2,29 5,62 9,100 5,39 12,82 22,120 11,38 26,71 43,99 18,29 37,53 60,74 23,22 48,40 76,59 27,19 57,38 85,51 17,9 33,15 46,20 -3,-5 -7,-8 -7,-8 9,6 13,9 15,11z"/>
   <path class="fil70" d="M8389 11662l0 0c-3,-3 -10,-9 -14,-14 0,0 -5,-9 -4,-13 45,29 -15,-20 3,-5 46,40 -22,-23 6,1 34,29 -33,-37 -56,-52 37,30 -22,-32 2,-5 40,48 -18,-18 -10,-13 3,1 42,25 43,26 19,14 127,55 128,50 -28,-19 21,10 47,18 46,-38 -2,-66 58,-6 -73,-73 40,14 15,-13 -103,-107 59,39 -14,-39 -86,-93 49,26 0,-20 -78,-75 -31,-28 -7,-16 -62,-43 -114,-114 -67,-65 32,34 -104,-100 -72,-70 32,29 -29,-14 -51,-29l-1 -1c-2,0 -4,-1 -6,-2 65,82 -49,-32 -44,-22 63,112 -31,-19 -49,-27 79,88 14,38 -28,-13 -62,-74 68,83 -15,-1 -93,-94 26,46 -29,-27 -106,-141 56,78 -25,-7 -99,-104 30,75 -33,-1 -70,-85 38,82 -21,8 -67,-86 22,33 4,16 -24,-23 -82,-98 -23,-6 57,91 -81,-109 -20,-6 31,50 -19,-14 -56,-62 5,36 11,75 21,110 11,38 26,71 43,99 18,29 37,53 60,74 23,22 48,40 76,59 27,19 57,38 85,51 17,9 33,15 46,20 -3,-5 -7,-8 -7,-8 9,6 13,9 15,11z"/>
   <path class="fil37" d="M8035 11078c0,-4 0,-7 -1,-10 -1,-14 -2,-17 -8,-28 -6,-12 -18,-31 -28,-48 -10,-18 -18,-33 -24,-42 -6,-10 -11,-14 -17,-17 -3,-2 -6,-3 -10,-5 7,-19 24,-24 52,-16 11,4 12,9 14,10 13,5 31,31 20,23 -1,0 -17,-7 -8,6 6,8 13,28 23,40 11,12 6,17 -2,4 -1,-2 -22,-19 -30,-31 -2,-4 -22,-21 -5,-1 0,0 52,78 19,39 -11,-13 -10,-29 -29,-41 0,0 22,35 24,42 2,6 39,66 10,27 -4,-6 -11,-26 -20,-39 -24,-36 -3,4 3,15 7,12 28,54 21,66 -1,2 -2,4 -4,6z"/>
   <path class="fil71" d="M7961 10935c-2,-1 -3,-2 -4,-2 -6,-4 -14,-6 -28,-9 -14,-3 -35,-7 -54,-12 -19,-6 -36,-14 -45,-18 -9,-5 -9,-5 -9,-5 0,0 0,0 5,-2 5,-3 15,-8 30,-12 14,-3 33,-6 50,-7 16,-1 30,-2 40,-3 -3,3 -8,6 -12,8 -4,2 -8,3 -10,4 -2,2 -2,4 5,7 7,3 20,8 36,13 16,5 35,10 48,17 14,6 24,13 28,16 5,4 5,4 2,3 -3,-1 -9,-3 -19,-6 -9,-2 -22,-4 -32,-5 -10,-2 -17,-2 -20,-2 -3,0 -3,0 0,1 4,1 12,4 19,8 7,4 14,9 18,12 4,2 4,2 1,2 -2,-1 -7,-3 -13,-4 -6,-2 -15,-4 -22,-5 -5,0 -9,0 -14,1z"/>
   <path class="fil72" d="M8097 10867c15,0 27,11 27,24 0,14 -12,25 -27,25 -14,0 -26,-11 -26,-25 0,-13 12,-24 26,-24z"/>
   <path class="fil58 str6" d="M8084 10874c4,0 8,3 8,7 0,4 -4,7 -8,7 -4,0 -7,-3 -7,-7 0,-4 3,-7 7,-7z"/>
  </g>
  <path class="fil63" d="M42102 12768c5,106 10,72 58,150 61,101 -2,42 30,164 30,117 154,117 250,78 35,68 96,358 412,208 44,40 -3,1 34,42 119,131 230,-18 261,-37 66,77 121,149 256,149 65,0 122,-26 164,-55 67,-48 47,-55 91,-93 93,52 101,48 207,21 -13,235 130,273 305,189 38,45 188,265 356,115l76 -99c83,48 167,73 268,10 90,-57 96,-139 125,-189 248,157 311,-124 334,-174 97,19 178,27 229,-91l27 -86c109,43 220,28 272,-60 30,22 36,-36 20,38 39,-53 32,-72 34,-151l-89 -45c30,-64 112,-118 40,-217l-36 -35c-3,-3 -9,-7 -13,-11 165,-83 241,-309 63,-445 19,-29 142,-155 20,-272 -87,-83 -217,-37 -308,-6 -109,-231 -338,-166 -394,-31 -109,-60 -108,-71 -246,-36 -6,-153 -72,-211 -223,-226 42,-197 -56,-208 -173,-274 143,-195 34,-417 -187,-458 15,-230 -68,-227 -236,-309 26,-94 63,-177 -17,-257 -58,-59 -73,-16 -174,-101 -145,-121 -155,55 -234,106 -84,53 -152,-2 -64,230 -135,48 -196,161 -171,337 -153,133 -164,198 -68,393 -206,33 -180,159 -118,300 -116,35 -160,81 -197,208 -52,-62 -95,-149 -228,-130 -116,16 -164,116 -171,220 -77,-29 -152,-42 -223,-4 -69,36 -75,80 -101,115 -48,67 -210,118 -86,372 -109,83 -140,157 -18,272 -82,47 -92,77 -100,183l-57 -8z"/>
  <path class="fil73" d="M43020 14058c27,-31 2,-9 37,-36 27,-22 28,-19 51,-32l14 27c44,92 33,90 109,166l20 19c2,2 6,7 10,10 105,12 163,27 260,-15 43,64 39,152 161,164 104,10 147,-60 188,-125 100,64 83,57 215,103l167 0c145,-74 96,48 270,30 123,-12 141,-96 198,-180 176,25 274,36 458,28 79,-382 326,30 393,-352 275,-13 195,-142 201,-189 12,-85 137,-89 82,-333 37,-28 95,-64 104,-122 13,-94 -32,-87 -92,-114l11 -59c16,-74 10,-16 -20,-38 -52,88 -163,103 -272,60l-27 86c-51,118 -132,110 -229,91 -23,50 -86,331 -334,174 -29,50 -35,132 -125,189 -101,63 -185,38 -268,-10l-76 99c-168,150 -318,-70 -356,-115 -175,84 -318,46 -305,-189 -106,27 -114,31 -207,-21 -44,38 -24,45 -91,93 -42,29 -99,55 -164,55 -135,0 -190,-72 -256,-149 -31,19 -142,168 -261,37 -37,-41 10,-2 -34,-42 -316,150 -377,-140 -412,-208 -96,39 -220,39 -250,-78 -32,-122 31,-63 -30,-164 -48,-78 -53,-44 -58,-150 -229,-24 -170,88 -329,141 -231,76 -94,214 -112,309 -11,54 -63,68 -40,176 30,135 121,88 159,198 25,72 13,148 219,149 4,213 155,266 351,203 20,54 39,87 113,108 128,35 129,-19 199,-28 45,-7 100,33 156,40 84,11 130,-12 202,-6z"/>
  <path class="fil74" d="M43020 14058c103,267 206,458 362,642 185,220 251,337 280,726 24,332 37,1648 -75,1886 -47,144 -152,178 -175,324l101 0c36,-13 68,-31 120,-21 20,4 35,12 48,21l555 0c-41,-115 -187,-196 -221,-341 -89,-197 -67,-1291 -60,-1573 5,-216 -5,-593 39,-786 52,-224 166,-408 258,-597l-167 0 -289 354c-187,-24 -455,-339 -535,-481 -4,-3 -8,-8 -10,-10l-20 -19c-76,-76 -65,-74 -109,-166l-14 -27c-23,13 -24,10 -51,32 -35,27 -10,5 -37,36z"/>
  <path class="fil75" d="M44956 15517c-17,-46 -56,-43 -76,-95 -22,-59 7,-89 41,-114 -43,-105 10,-175 125,-179 -48,-108 -7,-204 101,-219 -35,-153 100,-156 228,-147 16,-76 96,-121 177,-36 21,-10 -4,2 15,-10 16,-10 34,-25 71,-19 45,8 45,25 61,61 51,16 43,2 82,36 92,-43 83,-15 132,27 32,-16 66,-14 99,1 43,19 41,30 66,64 66,2 110,8 134,64 19,44 -12,15 29,37 64,35 94,77 75,174 59,34 133,79 72,162 39,39 98,80 26,140 11,40 60,126 28,169 1,68 -47,77 -97,101 20,97 -31,139 -121,135 -7,103 -65,145 -175,124 -5,112 -104,81 -169,143 -42,40 -60,56 -131,3 -50,63 -107,84 -169,18 -22,-23 12,13 -8,-9 -1,-1 -3,-3 -4,-4 -1,-2 -3,-4 -4,-5 -1,-1 -2,-3 -4,-4 -33,14 -50,13 -89,10 -43,103 -83,155 -136,298 -30,82 -89,278 -57,359 48,6 60,-4 102,-21l-1 -76c-44,-80 -55,-91 17,-143 -28,-70 -7,-137 80,-143 -5,-134 78,-93 112,-102 26,-7 24,-18 62,-17 23,1 39,14 54,16 18,3 105,-64 159,33 58,-32 118,-46 131,43 83,2 127,42 128,124 79,1 114,77 83,119 2,41 -4,39 17,69 60,85 -30,99 -109,98 61,80 -18,128 -110,113 0,87 -61,111 -125,69 -22,22 -53,51 -105,55 -81,7 -81,-35 -139,-36 -82,-1 -68,-8 -113,-58 -29,-32 -52,-48 -74,-96 -88,44 -172,133 -207,254 -24,85 -47,323 -16,402 20,77 74,110 80,155 -56,-6 -40,-38 -89,-54 -37,32 -19,66 -81,72 -39,-25 -36,-68 -107,-51 -46,11 -92,27 -137,17 14,-44 48,-35 63,-122 12,-20 24,-466 49,-568 26,-107 5,-147 -41,-235 -36,-68 -85,-141 -125,-195 -28,15 -30,39 -74,52 -48,15 -84,2 -120,-16 -163,105 -168,16 -239,0 -22,-5 -104,1 -140,-78 -23,-51 6,-33 -44,-62 -21,-12 -45,-31 -52,-57 -11,-42 9,-56 35,-82 -25,-9 -53,-31 -62,-61 -15,-50 14,-66 29,-93 -43,-16 -59,-51 -63,-103 9,-79 39,-87 98,-118 -43,-96 -7,-167 111,-158 8,-84 76,-77 106,-48 16,-20 74,-154 204,-80 80,46 123,-56 206,100 102,5 147,44 128,155 44,13 79,49 93,89 45,45 9,146 5,205 -6,87 -3,140 -90,147 2,101 -45,94 -72,123 36,36 117,142 175,147 60,-67 182,-369 219,-487 -33,-85 -126,-12 -141,-173 -61,-25 -97,-52 -71,-127 -25,-10 -49,-32 -63,-51 -22,-29 -25,-61 -18,-104 -66,-22 -112,-115 -40,-127z"/>
  <rect class="fil76" x="28" y="17598" width="48765" height="101"/>
 </g>
</svg>
